<svg width="200" height="139" viewBox="0 0 200 139" fill="none" xmlns="http://www.w3.org/2000/svg">
<path d="M180.893 57.6652C183.979 60.3207 187.243 63.3072 190.662 65.9741C191.858 66.9061 193.19 67.3334 193.216 69.3041C193.222 69.71 193.248 70.3152 193.046 70.4652C189.631 73.0027 187.684 77.1991 184.912 80.4535C183.055 82.6334 180.873 84.3316 177.983 84.4584C177.407 84.4836 176.752 83.9738 176.134 83.7109C176.293 83.0319 176.29 82.1852 176.637 81.7009C179.161 78.1795 181.724 74.6967 184.346 71.2802C185.169 70.2086 184.825 69.6539 183.877 68.7633C181.69 66.7084 179.62 64.47 177.45 62.3863C176.523 61.496 175.467 60.8045 174.464 60.0337C174.38 59.9693 174.217 60.0427 174.151 59.972C173.466 59.2432 172.148 58.1726 172.241 57.8197C172.552 56.7335 173.166 55.8408 173.992 55.2713C176.446 53.672 178.48 56.2045 180.893 57.6652Z" fill="#D73F3B"/>
<path d="M182.721 69.311C179.108 69.0063 175.545 68.0981 171.952 67.5589C164.313 66.413 156.791 66.5108 149.234 66.4824C138.659 66.4427 129.104 69.1899 119.255 71.1315C109.812 72.9935 100.193 73.951 90.1314 73.1791C85.2779 72.7761 80.4385 71.6885 75.8131 69.9612C70.8025 68.1375 65.8278 66.2166 60.9547 64.0769C54.8065 61.3773 48.3915 60.1147 41.8706 59.5708C36.5103 59.0997 31.1615 58.9108 25.8549 59.0051C21.7248 59.0977 17.9346 60.0558 14.3555 61.495C11.9978 62.4372 9.4465 63.0602 6.78335 63.3442C6.18347 63.4184 5.55502 63.3742 4.94418 63.2151C4.39907 63.0689 3.4864 63.0189 4.39969 62.3169C4.55017 62.2011 4.26192 62.046 4.24519 61.9211C4.15701 61.2624 4.47737 60.8306 5.27345 60.8485C8.05303 60.9107 10.4218 60.0293 12.748 59.1273C15.5708 58.0316 18.2681 56.7232 21.3259 56.0352C24.4183 55.3384 27.5222 54.6974 30.9193 54.8877C33.2506 54.9765 35.5664 54.9256 37.8495 54.7356C39.3041 54.6413 40.7666 54.9578 42.1944 55.0883C43.147 55.176 43.9295 54.8883 44.8284 54.9944C45.9755 55.13 47.1259 55.1831 48.275 55.2825C51.4688 55.5581 54.6154 56.2466 57.7709 56.9514C63.3899 58.205 68.4718 60.8985 73.9073 62.6479C77.9873 63.9614 82.007 65.5279 86.1715 66.486C88.6025 67.0455 91.1435 67.1785 93.6172 67.2879C104.11 67.7523 114.034 66.221 123.721 63.9156C126.965 63.1424 130.224 62.3714 133.522 61.7617C136.207 61.2427 138.943 60.86 141.717 60.6155C145.185 60.3376 148.654 60.0904 152.16 60.0663C161.323 60.0033 170.495 60.7018 179.628 63.2208C180.182 63.4172 180.746 63.5831 181.316 63.7173C183.782 64.1063 184.906 65.7154 185.941 67.4038C186.34 68.0571 185.426 69.3769 184.583 69.3855C183.967 69.3922 183.342 69.3393 182.721 69.311ZM167.179 65.5548C172.491 66.0747 177.742 67.4275 183.046 68.0549C177.317 66.5618 169.204 65.3003 167.179 65.5548ZM164.414 60.9277L164.409 60.8028L154.748 60.3875L154.759 60.5126L164.414 60.9277Z" fill="#D73F3B"/>
<path d="M60 41.8C59.0133 41.0533 58.3867 40.48 58.12 40.08C57.8533 39.6533 57.6933 39.1467 57.64 38.56C57.5867 38.08 57.5867 37.4267 57.64 36.6C57.72 35.7733 57.8133 34.96 57.92 34.16C58.0267 33.36 58.12 32.76 58.2 32.36C58.3333 32.2267 58.3867 32.0533 58.36 31.84C58.36 31.6 58.36 31.48 58.36 31.48C58.3333 31.3467 58.4267 31 58.64 30.44C58.8533 29.8533 59.0533 29.1067 59.24 28.2C59.7733 26.6 60.28 25.2667 60.76 24.2C61.2667 23.1067 61.76 22.1733 62.24 21.4C62.72 20.6267 63.2 19.92 63.68 19.28C64.7733 18.16 65.6533 17.32 66.32 16.76C66.9867 16.1733 67.7333 15.6933 68.56 15.32C69.0933 15 69.5867 14.7467 70.04 14.56C70.4933 14.3733 70.8667 14.3467 71.16 14.48C72.6533 14.8 73.7733 15.4133 74.52 16.32C75.2667 17.2 75.8133 18.5733 76.16 20.44C76.3467 21.6133 76.4533 22.68 76.48 23.64C76.5333 24.5733 76.4667 25.5067 76.28 26.44C76.0933 27.3467 75.7467 28.3467 75.24 29.44C74.76 30.5333 74.08 31.8133 73.2 33.28C72.2667 35.12 71.2133 36.72 70.04 38.08C68.8933 39.44 67.7067 40.5067 66.48 41.28C65.28 42.08 64.1067 42.5333 62.96 42.64C61.84 42.7467 60.8533 42.4667 60 41.8ZM62.56 40.64C63.1733 40.56 63.76 40.3733 64.32 40.08C64.88 39.7867 65.4667 39.36 66.08 38.8C66.6933 38.2133 67.3867 37.48 68.16 36.6C68.8533 35.8 69.4133 35.1333 69.84 34.6C70.2933 34.04 70.6667 33.48 70.96 32.92C71.28 32.36 71.5733 31.68 71.84 30.88C72.1333 30.08 72.4667 29.04 72.84 27.76C73.0533 26.96 73.2133 26.2933 73.32 25.76C73.4267 25.2267 73.4933 24.7333 73.52 24.28C73.5467 23.8 73.5467 23.2533 73.52 22.64C73.52 22.0267 73.52 21.24 73.52 20.28C73.4933 19.8267 73.4 19.36 73.24 18.88C73.08 18.3733 72.8933 18 72.68 17.76C72.4133 17.4667 72.04 17.2667 71.56 17.16C71.08 17.0267 70.5467 17.0933 69.96 17.36C69.64 17.4933 69.2267 17.8 68.72 18.28C68.2133 18.7333 67.68 19.2667 67.12 19.88C66.56 20.4933 66.0267 21.12 65.52 21.76C65.04 22.4 64.64 22.9733 64.32 23.48C64.0267 23.96 63.88 24.2933 63.88 24.48C63.88 24.48 63.8667 24.5467 63.84 24.68C63.84 24.8133 63.7867 24.9467 63.68 25.08C63.3333 25.4533 62.9467 26.12 62.52 27.08C62.12 28.04 61.7333 29.1333 61.36 30.36C60.9867 31.56 60.6667 32.76 60.4 33.96C60.16 35.1333 60.0133 36.16 59.96 37.04C59.9067 37.76 59.88 38.2533 59.88 38.52C59.88 38.7867 59.9333 39 60.04 39.16C60.1467 39.2933 60.32 39.56 60.56 39.96C60.72 40.2267 60.9867 40.4267 61.36 40.56C61.76 40.6933 62.16 40.72 62.56 40.64ZM80.7238 40.76C80.6438 40.7867 80.4571 40.7467 80.1638 40.64C79.8704 40.5067 79.5504 40.3467 79.2038 40.16C78.8838 39.9467 78.6304 39.7467 78.4438 39.56C78.2304 39.2933 78.0304 39.0267 77.8438 38.76C77.6838 38.4667 77.6038 38.1333 77.6038 37.76C77.4171 37.36 77.3104 36.9467 77.2838 36.52C77.2838 36.0667 77.2704 35.6267 77.2438 35.2C77.2171 34.5333 77.3638 33.8533 77.6838 33.16C78.0038 32.44 78.2571 31.9067 78.4438 31.56C78.5771 31.1867 78.8438 30.7067 79.2438 30.12C79.6704 29.5067 80.1904 28.9067 80.8038 28.32C81.4171 27.7333 82.0571 27.28 82.7238 26.96C83.1504 26.7467 83.5771 26.5733 84.0038 26.44C84.4571 26.28 84.9771 26.3067 85.5638 26.52C85.8571 26.6 86.0704 26.7067 86.2038 26.84C86.3371 26.9733 86.4838 27.1067 86.6438 27.24C86.8571 27.08 87.0304 26.6933 87.1638 26.08C87.3238 25.44 87.4171 24.72 87.4438 23.92C87.4971 23.0933 87.4571 22.3067 87.3238 21.56C87.2171 20.7867 86.9904 20.1733 86.6438 19.72C86.0038 18.84 85.2971 18.2667 84.5238 18C83.7504 17.7333 82.8704 17.8133 81.8838 18.24C81.5638 18.1067 81.2704 17.8533 81.0038 17.48C80.7638 17.1067 80.6971 16.7333 80.8038 16.36C81.0171 16.1733 81.2838 15.9867 81.6038 15.8C81.9238 15.6133 82.2438 15.4933 82.5638 15.44C82.9371 15.36 83.3104 15.3067 83.6838 15.28C84.0838 15.2533 84.4971 15.36 84.9238 15.6C86.3104 16.0533 87.3504 16.6933 88.0438 17.52C88.7638 18.32 89.2571 19.2933 89.5238 20.44C89.7904 21.5867 89.9504 22.9067 90.0038 24.4C90.0571 24.8267 90.0704 25.2133 90.0438 25.56C90.0438 25.88 90.0038 26.4267 89.9238 27.2C89.6571 27.5467 89.5504 27.96 89.6038 28.44C89.6838 28.8933 89.6304 29.32 89.4438 29.72C89.4171 30.1733 89.3104 30.5467 89.1238 30.84C88.9371 31.1333 88.8438 31.4133 88.8438 31.68C88.3638 33.0133 87.7104 34.32 86.8838 35.6C86.0838 36.88 85.1638 37.9867 84.1238 38.92C83.0838 39.8533 81.9504 40.4667 80.7238 40.76ZM80.4838 38.16C80.7504 38.2667 81.1504 38.16 81.6838 37.84C82.2171 37.4933 82.7638 37.04 83.3238 36.48C83.8838 35.8933 84.3504 35.3333 84.7238 34.8C84.8571 34.6133 85.0304 34.3067 85.2438 33.88C85.4838 33.4533 85.6971 33.04 85.8838 32.64C86.0971 32.24 86.2171 31.9867 86.2438 31.88C86.4838 31.2133 86.6171 30.5867 86.6438 30C86.6971 29.3867 86.6304 28.9867 86.4438 28.8C86.1504 28.4533 85.6704 28.3733 85.0038 28.56C84.3638 28.7467 83.7504 29.0533 83.1638 29.48C82.7371 29.8 82.3504 30.2267 82.0038 30.76C81.6838 31.2667 81.3504 31.7333 81.0038 32.16C81.0304 32.3467 80.9771 32.5067 80.8438 32.64C80.7371 32.7733 80.6171 32.9067 80.4838 33.04C80.1371 33.7067 79.9104 34.3333 79.8038 34.92C79.6971 35.48 79.6438 35.8267 79.6438 35.96C79.6438 36.3867 79.7104 36.8267 79.8438 37.28C79.9771 37.7333 80.1904 38.0267 80.4838 38.16ZM91.1053 33.12C90.812 34.1333 90.6253 35.12 90.5453 36.08C90.492 37.04 90.5853 37.8933 90.8253 38.64C91.092 39.36 91.5453 39.92 92.1853 40.32C92.4786 40.5067 92.7853 40.6667 93.1053 40.8C93.4253 40.9067 93.7586 40.9467 94.1053 40.92C94.452 41.0533 94.8253 40.96 95.2253 40.64C95.652 40.2933 96.132 39.7467 96.6653 39C97.2253 38.2267 97.8253 37.2667 98.4653 36.12C98.5986 35.6933 98.732 35.28 98.8653 34.88C99.0253 34.4533 99.172 34.0267 99.3053 33.6C99.5186 33.0933 99.6653 32.68 99.7453 32.36C99.8253 32.04 99.8653 31.6133 99.8653 31.08C99.8653 31.0267 99.8653 30.9733 99.8653 30.92C99.892 30.8667 99.9053 30.8133 99.9053 30.76C99.9586 30.4133 100.039 30.12 100.145 29.88C100.279 29.6133 100.279 29.2933 100.145 28.92C100.225 28.7333 100.239 28.44 100.185 28.04C100.159 27.6133 100.092 27.2 99.9853 26.8C99.9053 26.3733 99.8253 26.0667 99.7453 25.88C99.7453 25.4533 99.6786 25.04 99.5453 24.64C99.412 24.24 99.2786 23.8533 99.1453 23.48C99.0386 23.4 98.9986 23.3067 99.0253 23.2C99.052 23.0933 99.0386 22.9867 98.9853 22.88C98.7453 22.4267 98.412 21.9067 97.9853 21.32C97.5586 20.7067 97.2386 20.1867 97.0253 19.76C97.132 19.6533 97.2653 19.5867 97.4253 19.56C97.612 19.5333 97.7986 19.5067 97.9853 19.48C98.172 19.4267 98.332 19.3733 98.4653 19.32C98.732 19.1867 99.1453 19.1333 99.7053 19.16C100.265 19.16 100.825 19.2133 101.385 19.32C101.945 19.4 102.359 19.5067 102.625 19.64C102.759 19.6933 102.892 19.72 103.025 19.72C103.159 19.72 103.279 19.7333 103.385 19.76C103.572 19.6267 103.692 19.3867 103.745 19.04C103.825 18.6667 103.892 18.3867 103.945 18.2C103.652 17.7733 103.425 17.44 103.265 17.2C103.105 16.96 102.732 16.8267 102.145 16.8C101.825 16.7733 101.505 16.7467 101.185 16.72C100.865 16.6933 100.545 16.7067 100.225 16.76C100.065 16.76 99.7453 16.8133 99.2653 16.92C98.812 17 98.3586 17.0933 97.9053 17.2C97.452 17.3067 97.1453 17.3867 96.9853 17.44C96.612 17.5733 96.2386 17.7333 95.8653 17.92C95.5186 18.08 95.1586 18.2267 94.7853 18.36C94.5186 18.44 94.372 18.6 94.3453 18.84C94.3186 19.08 94.3586 19.3067 94.4653 19.52C94.6253 19.76 94.812 20 95.0253 20.24C95.2386 20.4533 95.4386 20.68 95.6253 20.92C95.812 21.16 96.0653 21.5867 96.3853 22.2C96.732 22.7867 97.0253 23.3867 97.2653 24C97.5053 24.6133 97.572 25.08 97.4653 25.4C97.172 25.3467 96.9053 25.32 96.6653 25.32C96.452 25.2933 96.1986 25.3067 95.9053 25.36C95.3186 25.7067 94.7186 26.28 94.1053 27.08C93.492 27.88 92.9186 28.8133 92.3853 29.88C91.8786 30.92 91.452 32 91.1053 33.12ZM92.9853 35.96C93.0653 35.32 93.252 34.5467 93.5453 33.64C93.8386 32.7067 94.1853 31.8133 94.5853 30.96C95.012 30.08 95.452 29.4133 95.9053 28.96C96.1186 28.7467 96.372 28.4133 96.6653 27.96C96.9586 27.5067 97.1186 27.1467 97.1453 26.88C97.5453 27.28 97.7586 27.88 97.7853 28.68C97.8386 29.4533 97.7853 30.2533 97.6253 31.08C97.492 31.88 97.3186 32.5067 97.1053 32.96C97.0253 33.1467 96.9453 33.36 96.8653 33.6C96.812 33.8133 96.7586 34.0267 96.7053 34.24C96.332 34.8533 96.0253 35.3867 95.7853 35.84C95.572 36.2933 95.332 36.7467 95.0653 37.2C94.7986 37.6267 94.412 38.16 93.9053 38.8C93.772 38.6667 93.6386 38.5467 93.5053 38.44C93.372 38.3067 93.2386 38.1867 93.1053 38.08C92.9986 37.5733 92.932 37.2267 92.9053 37.04C92.9053 36.8267 92.932 36.4667 92.9853 35.96ZM108.767 39.6C108.207 40.08 107.553 40.36 106.807 40.44C106.087 40.52 105.38 40.4133 104.687 40.12C103.993 39.8 103.42 39.32 102.967 38.68C102.513 38.0933 102.22 37.4267 102.087 36.68C101.953 35.9067 101.94 34.9067 102.047 33.68C102.127 32.64 102.46 31.6 103.047 30.56C103.633 29.4933 104.34 28.5467 105.167 27.72C106.02 26.8933 106.86 26.32 107.687 26C108.087 25.7333 108.42 25.6133 108.687 25.64C108.98 25.64 109.42 25.6667 110.007 25.72C110.62 25.8 111.073 25.92 111.367 26.08C111.687 26.24 111.94 26.4533 112.127 26.72C112.527 27.12 112.793 27.52 112.927 27.92C113.06 28.2933 113.127 28.6667 113.127 29.04C113.02 29.6267 112.62 30.3467 111.927 31.2C111.26 32.0267 110.38 32.7067 109.287 33.24C108.7 33.4267 108.06 33.5067 107.367 33.48C106.673 33.4533 106.1 33.28 105.647 32.96C105.14 32.7467 104.807 32.7867 104.647 33.08C104.487 33.3467 104.34 34.0133 104.207 35.08C104.1 36.0933 104.18 36.84 104.447 37.32C104.713 37.7733 105.073 38.04 105.527 38.12C106.06 38.2267 106.473 38.3067 106.767 38.36C107.087 38.3867 107.473 38.2667 107.927 38C108.353 37.7333 108.62 37.5867 108.727 37.56C108.833 37.5067 108.913 37.4533 108.967 37.4C109.047 37.32 109.22 37.1467 109.487 36.88C109.673 36.6933 109.82 36.56 109.927 36.48C110.033 36.3733 110.153 36.32 110.287 36.32C110.42 36.32 110.54 36.3867 110.647 36.52C110.753 36.6267 110.86 36.7067 110.967 36.76C111.233 36.76 111.287 36.92 111.127 37.24C110.993 37.56 110.713 37.9467 110.287 38.4C109.86 38.8267 109.353 39.2267 108.767 39.6ZM108.727 31.12C109.02 30.9867 109.327 30.8 109.647 30.56C109.967 30.2933 110.233 30.0133 110.447 29.72C110.687 29.4 110.807 29.1333 110.807 28.92C110.807 28.5467 110.633 28.24 110.287 28C109.94 27.7333 109.42 27.6933 108.727 27.88C108.433 27.96 108.1 28.16 107.727 28.48C107.353 28.7733 106.993 29.1067 106.647 29.48C106.327 29.8533 106.06 30.1867 105.847 30.48C105.66 30.7733 105.593 30.9467 105.647 31C105.727 31.1333 105.953 31.24 106.327 31.32C106.7 31.3733 107.113 31.3867 107.567 31.36C108.047 31.3333 108.433 31.2533 108.727 31.12ZM112.974 49.92C112.788 49.84 112.588 49.7067 112.374 49.52C112.161 49.3333 111.988 49.12 111.854 48.88C111.721 48.6667 111.654 48.48 111.654 48.32C111.654 48.16 111.721 47.7333 111.854 47.04C111.988 46.3733 112.161 45.5467 112.374 44.56C112.614 43.6 112.868 42.6133 113.134 41.6C113.428 40.6133 113.721 39.7333 114.014 38.96C114.068 38.8267 114.241 38.3867 114.534 37.64C114.854 36.8667 115.161 35.9333 115.454 34.84C115.668 34.1467 115.948 33.36 116.294 32.48C116.641 31.6 117.001 30.72 117.374 29.84C117.748 28.9333 118.054 28.1333 118.294 27.44C118.534 26.7467 118.734 26.1867 118.894 25.76C119.081 25.3067 119.188 25.0267 119.214 24.92C119.268 24.76 119.348 24.6267 119.454 24.52C119.588 24.3867 119.721 24.28 119.854 24.2C119.988 24.0933 120.094 24.0267 120.174 24C120.654 23.8667 121.068 24.0667 121.414 24.6C121.548 24.84 121.574 25.12 121.494 25.44C121.414 25.76 121.268 26.16 121.054 26.64L120.774 27.44L122.214 27.12C122.454 27.12 122.748 27.1333 123.094 27.16C123.468 27.16 123.828 27.16 124.174 27.16C124.521 27.16 124.774 27.1867 124.934 27.24C125.574 27.2667 126.014 27.3867 126.254 27.6C126.521 27.8133 126.748 28.0933 126.934 28.44C127.068 28.5733 127.228 28.76 127.414 29C127.601 29.2133 127.708 29.4267 127.734 29.64C127.841 30.0933 127.841 30.5867 127.734 31.12C127.654 31.6267 127.494 32.1333 127.254 32.64C127.041 33.1467 126.748 33.6133 126.374 34.04C126.028 34.44 125.654 34.7733 125.254 35.04C124.988 35.1467 124.748 35.2667 124.534 35.4C124.321 35.5067 124.214 35.56 124.214 35.56C124.188 35.6933 123.894 35.9067 123.334 36.2C122.774 36.4667 122.134 36.72 121.414 36.96C120.694 37.2 120.068 37.36 119.534 37.44C119.348 37.4667 119.081 37.4933 118.734 37.52C118.388 37.5467 118.121 37.5067 117.934 37.4C117.641 37.3467 117.441 37.32 117.334 37.32C117.228 37.32 117.174 37.3733 117.174 37.48C117.148 37.5333 116.961 38.0933 116.614 39.16C116.268 40.2267 115.908 41.4667 115.534 42.88C115.028 44.4267 114.614 45.6533 114.294 46.56C113.974 47.4933 113.721 48.1867 113.534 48.64C113.374 49.0933 113.254 49.4 113.174 49.56C113.094 49.7467 113.028 49.8667 112.974 49.92ZM117.974 35.16C118.054 35.32 118.308 35.3733 118.734 35.32C119.188 35.24 119.721 35.08 120.334 34.84C120.974 34.5733 121.601 34.28 122.214 33.96C122.828 33.6133 123.334 33.2667 123.734 32.92C124.321 32.2533 124.801 31.64 125.174 31.08C125.548 30.4933 125.601 30.1067 125.334 29.92C125.041 29.4933 124.494 29.2933 123.694 29.32C122.894 29.3467 121.908 29.68 120.734 30.32C120.281 30.48 119.934 30.6933 119.694 30.96C119.481 31.2 119.294 31.5067 119.134 31.88C118.974 32.2533 118.774 32.7067 118.534 33.24C118.294 33.8267 118.134 34.2667 118.054 34.56C117.974 34.8533 117.948 35.0533 117.974 35.16ZM141.052 40.52C140.172 40.2 139.492 39.6 139.012 38.72C138.532 37.8133 138.225 36.9333 138.092 36.08C138.065 36.08 137.985 36.1333 137.852 36.24C137.745 36.32 137.612 36.4533 137.452 36.64C137.078 37.0133 136.612 37.48 136.052 38.04C135.492 38.5733 134.905 39.0533 134.292 39.48C133.705 39.88 133.145 40.0533 132.612 40C132.398 39.8667 132.172 39.72 131.932 39.56C131.718 39.3733 131.505 39.1867 131.292 39C131.185 38.8933 131.092 38.7867 131.012 38.68C130.958 38.5733 130.905 38.4533 130.852 38.32C130.558 37.52 130.398 36.8133 130.372 36.2C130.345 35.56 130.412 34.9333 130.572 34.32C130.758 33.68 130.972 32.9733 131.212 32.2C131.238 32.12 131.332 31.7867 131.492 31.2C131.678 30.6133 131.892 29.9467 132.132 29.2C132.372 28.4533 132.598 27.7867 132.812 27.2C133.052 26.6133 133.225 26.2667 133.332 26.16C133.412 26.16 133.492 26.16 133.572 26.16C133.678 26.1333 133.772 26.12 133.852 26.12C134.118 26.12 134.318 26.2133 134.452 26.4C134.558 26.56 134.692 26.68 134.852 26.76C135.038 26.84 135.172 26.9467 135.252 27.08C135.385 27.3467 135.292 27.92 134.972 28.8C134.652 29.6533 134.305 30.6267 133.932 31.72C133.585 32.7067 133.292 33.7067 133.052 34.72C132.812 35.7067 132.798 36.5333 133.012 37.2C133.198 37.2 133.452 37.04 133.772 36.72C134.118 36.3733 134.385 36.1333 134.572 36C134.838 35.84 135.185 35.5333 135.612 35.08C136.065 34.6 136.505 34.12 136.932 33.64C137.358 33.1333 137.652 32.7467 137.812 32.48C137.918 32.32 138.078 32.0267 138.292 31.6C138.505 31.1467 138.718 30.6667 138.932 30.16C139.172 29.6267 139.358 29.1333 139.492 28.68C139.652 28.2267 139.718 27.9067 139.692 27.72C139.665 27.4533 139.692 27.2533 139.772 27.12C139.878 26.96 140.038 26.8133 140.252 26.68C140.385 26.68 140.532 26.68 140.692 26.68C140.852 26.68 140.998 26.6933 141.132 26.72C141.292 26.9067 141.465 27.08 141.652 27.24C141.838 27.4 142.025 27.5733 142.212 27.76C142.345 28.2667 142.265 28.9467 141.972 29.8C141.678 30.6533 141.385 31.5733 141.092 32.56C140.798 33.5467 140.612 34.5467 140.532 35.56C140.452 36.5467 140.718 37.4133 141.332 38.16C141.892 37.92 142.318 37.6933 142.612 37.48C142.932 37.24 143.238 37 143.532 36.76C143.825 36.4933 144.198 36.2267 144.652 35.96C144.918 36.12 145.118 36.44 145.252 36.92C145.385 37.4 145.452 37.7867 145.452 38.08C145.345 38.16 145.238 38.24 145.132 38.32C145.052 38.3733 144.985 38.4533 144.932 38.56C144.772 38.9067 144.452 39.2533 143.972 39.6C143.492 39.9467 142.985 40.2267 142.452 40.44C141.918 40.6267 141.452 40.6533 141.052 40.52Z" fill="black"/>
</svg>
