<svg width="1597" height="737" viewBox="0 0 1597 737" fill="none" xmlns="http://www.w3.org/2000/svg">
<g clip-path="url(#clip0_6522_5656)">
<path fill-rule="evenodd" clip-rule="evenodd" d="M1040.29 191.874C1068.96 173.785 1047.61 159.941 1039 168.035C1030.39 159.941 1009.04 173.785 1037.71 191.874L1037.1 192.997C1037.06 193.068 1037.04 193.145 1037.03 193.223C1037.03 193.302 1037.04 193.381 1037.06 193.456C1037.12 193.607 1037.24 193.732 1037.39 193.803C1037.55 193.875 1037.73 193.886 1037.9 193.836C1038.06 193.786 1038.2 193.677 1038.28 193.535L1038.38 193.343C1038.4 193.751 1038.44 194.099 1038.51 194.423C1038.69 195.248 1039.06 195.915 1039.69 197.067L1039.73 197.134C1040.28 198.147 1040.2 199.174 1039.86 200.124C1039.5 201.089 1038.9 201.926 1038.45 202.531C1038.36 202.663 1038.32 202.826 1038.36 202.982C1038.39 203.138 1038.49 203.275 1038.64 203.364C1038.78 203.452 1038.96 203.485 1039.13 203.453C1039.3 203.422 1039.45 203.331 1039.55 203.198L1039.56 203.181C1039.99 202.586 1040.69 201.631 1041.1 200.506C1041.52 199.356 1041.66 197.984 1040.9 196.597C1040.22 195.361 1039.94 194.84 1039.8 194.187C1039.75 193.958 1039.72 193.727 1039.7 193.494L1039.73 193.535C1039.8 193.677 1039.94 193.786 1040.11 193.836C1040.27 193.886 1040.45 193.875 1040.61 193.803C1040.76 193.732 1040.88 193.607 1040.94 193.456C1040.99 193.305 1040.98 193.14 1040.9 192.997L1040.28 191.874H1040.29ZM1035.66 168.715C1032.59 167.251 1028.31 168.374 1026.59 171.438C1025.97 172.549 1025.64 174.03 1026.06 175.878C1026.2 176.526 1027.29 176.35 1027.44 175.707C1028.19 172.693 1030.53 169.799 1035.29 169.641C1035.9 169.622 1036.2 168.974 1035.66 168.715Z" fill="#D73F3B" fill-opacity="0.5"/>
</g>
<g clip-path="url(#clip1_6522_5656)">
<path fill-rule="evenodd" clip-rule="evenodd" d="M350.287 35.9375C378.957 17.8486 357.611 4.00473 349.001 12.0989C340.388 4.00473 319.041 17.8486 347.714 35.9375L347.1 37.0606C347.061 37.1312 347.038 37.208 347.032 37.2867C347.026 37.3655 347.037 37.4445 347.064 37.5194C347.12 37.6706 347.238 37.7956 347.394 37.8669C347.55 37.9382 347.731 37.9499 347.896 37.8995C348.061 37.8491 348.198 37.7407 348.276 37.5981L348.381 37.4061C348.405 37.8141 348.444 38.162 348.515 38.486C348.693 39.3115 349.061 39.9786 349.691 41.1305L349.725 41.1977C350.282 42.2103 350.203 43.2374 349.856 44.1877C349.502 45.1524 348.896 45.9899 348.455 46.5946C348.358 46.727 348.323 46.8891 348.356 47.0452C348.39 47.2014 348.491 47.3388 348.636 47.4273C348.781 47.5157 348.958 47.548 349.129 47.5169C349.299 47.4859 349.45 47.3941 349.547 47.2617L349.557 47.2449C349.993 46.6498 350.688 45.6947 351.101 44.5692C351.521 43.4198 351.657 42.0472 350.901 40.6601C350.224 39.4243 349.943 38.9035 349.801 38.2508C349.753 38.0217 349.721 37.7901 349.704 37.5573L349.725 37.5981C349.803 37.7407 349.94 37.8491 350.105 37.8995C350.271 37.9499 350.451 37.9382 350.607 37.8669C350.763 37.7956 350.882 37.6706 350.937 37.5194C350.992 37.3682 350.979 37.2031 350.901 37.0606L350.284 35.9375H350.287ZM345.656 12.778C342.593 11.3142 338.306 12.4373 336.59 15.5017C335.967 16.6127 335.645 18.0934 336.059 19.9411C336.204 20.5891 337.285 20.4139 337.443 19.7708C338.191 16.7567 340.532 13.8627 345.289 13.7043C345.903 13.6851 346.202 13.0372 345.656 12.778Z" fill="#D73F3B" fill-opacity="0.5"/>
</g>
<g clip-path="url(#clip2_6522_5656)">
<path fill-rule="evenodd" clip-rule="evenodd" d="M1250.29 54.8809C1278.96 36.792 1257.61 22.9481 1249 31.0423C1240.39 22.9481 1219.04 36.792 1247.71 54.8809L1247.1 56.0039C1247.06 56.0745 1247.04 56.1514 1247.03 56.2301C1247.03 56.3088 1247.04 56.3879 1247.06 56.4628C1247.12 56.614 1247.24 56.739 1247.39 56.8102C1247.55 56.8815 1247.73 56.8932 1247.9 56.8428C1248.06 56.7924 1248.2 56.684 1248.28 56.5415L1248.38 56.3495C1248.4 56.7574 1248.44 57.1054 1248.51 57.4294C1248.69 58.2549 1249.06 58.922 1249.69 60.0738L1249.73 60.141C1250.28 61.1537 1250.2 62.1808 1249.86 63.131C1249.5 64.0957 1248.9 64.9332 1248.45 65.5379C1248.36 65.6703 1248.32 65.8324 1248.36 65.9886C1248.39 66.1447 1248.49 66.2822 1248.64 66.3706C1248.78 66.4591 1248.96 66.4914 1249.13 66.4603C1249.3 66.4293 1249.45 66.3374 1249.55 66.2051L1249.56 66.1883C1249.99 65.5931 1250.69 64.6381 1251.1 63.5126C1251.52 62.3631 1251.66 60.9905 1250.9 59.6035C1250.22 58.3676 1249.94 57.8469 1249.8 57.1942C1249.75 56.9651 1249.72 56.7334 1249.7 56.5007L1249.73 56.5415C1249.8 56.684 1249.94 56.7924 1250.11 56.8428C1250.27 56.8932 1250.45 56.8815 1250.61 56.8102C1250.76 56.739 1250.88 56.614 1250.94 56.4628C1250.99 56.3115 1250.98 56.1465 1250.9 56.0039L1250.28 54.8809H1250.29ZM1245.66 31.7214C1242.59 30.2576 1238.31 31.3806 1236.59 34.445C1235.97 35.5561 1235.64 37.0367 1236.06 38.8845C1236.2 39.5324 1237.29 39.3572 1237.44 38.7141C1238.19 35.7001 1240.53 32.8061 1245.29 32.6477C1245.9 32.6285 1246.2 31.9806 1245.66 31.7214Z" fill="#D73F3B" fill-opacity="0.5"/>
</g>
<g clip-path="url(#clip3_6522_5656)">
<path fill-rule="evenodd" clip-rule="evenodd" d="M1503.53 106.069C1537.66 84.535 1512.25 68.0542 1502 77.6901C1491.75 68.0542 1466.34 84.535 1500.47 106.069L1499.74 107.406C1499.69 107.49 1499.66 107.582 1499.66 107.676C1499.65 107.769 1499.66 107.863 1499.7 107.953C1499.76 108.133 1499.9 108.281 1500.09 108.366C1500.27 108.451 1500.49 108.465 1500.69 108.405C1500.88 108.345 1501.05 108.216 1501.14 108.046L1501.26 107.818C1501.29 108.303 1501.34 108.718 1501.42 109.103C1501.64 110.086 1502.07 110.88 1502.82 112.251L1502.86 112.331C1503.53 113.537 1503.43 114.76 1503.02 115.891C1502.6 117.039 1501.88 118.036 1501.35 118.756C1501.24 118.914 1501.19 119.107 1501.23 119.293C1501.27 119.479 1501.39 119.642 1501.57 119.748C1501.74 119.853 1501.95 119.891 1502.15 119.854C1502.36 119.817 1502.54 119.708 1502.65 119.551L1502.66 119.531C1503.18 118.822 1504.01 117.685 1504.5 116.345C1505 114.977 1505.16 113.343 1504.26 111.692C1503.46 110.22 1503.12 109.6 1502.95 108.823C1502.9 108.551 1502.86 108.275 1502.84 107.998L1502.86 108.046C1502.96 108.216 1503.12 108.345 1503.32 108.405C1503.51 108.465 1503.73 108.451 1503.91 108.366C1504.1 108.281 1504.24 108.133 1504.31 107.953C1504.37 107.773 1504.36 107.576 1504.26 107.406L1503.53 106.069H1503.53ZM1498.02 78.4986C1494.37 76.7559 1489.27 78.0929 1487.23 81.741C1486.49 83.0637 1486.1 84.8264 1486.59 87.0261C1486.77 87.7974 1488.05 87.5889 1488.24 86.8233C1489.13 83.2351 1491.92 79.7899 1497.58 79.6013C1498.31 79.5785 1498.67 78.8071 1498.02 78.4986Z" fill="#D73F3B" fill-opacity="0.5"/>
</g>
<path fill-rule="evenodd" clip-rule="evenodd" d="M121.329 51.8698C173.208 16.0643 134.581 -11.3384 119.001 4.68332C103.416 -11.3384 64.7893 16.0643 116.674 51.8698L115.562 54.0928C115.492 54.2325 115.451 54.3847 115.439 54.5405C115.428 54.6963 115.448 54.8528 115.497 55.001C115.597 55.3003 115.812 55.5477 116.094 55.6888C116.376 55.8299 116.703 55.8531 117.002 55.7534C117.302 55.6536 117.549 55.439 117.69 55.1568L117.88 54.7768C117.923 55.5843 117.994 56.2731 118.122 56.9143C118.445 58.5483 119.11 59.8688 120.25 62.1488L120.312 62.2818C121.319 64.2863 121.177 66.3193 120.55 68.2003C119.908 70.1098 118.811 71.7676 118.013 72.9646C117.838 73.2266 117.774 73.5475 117.836 73.8566C117.897 74.1657 118.079 74.4377 118.341 74.6128C118.603 74.7879 118.924 74.8518 119.233 74.7903C119.542 74.7288 119.814 74.5471 119.989 74.2851L120.008 74.2518C120.797 73.0738 122.055 71.1833 122.801 68.9556C123.561 66.6803 123.808 63.9633 122.44 61.2178C121.215 58.7716 120.706 57.7408 120.45 56.4488C120.363 55.9953 120.304 55.5368 120.274 55.0761L120.312 55.1568C120.453 55.439 120.701 55.6536 121 55.7534C121.299 55.8531 121.626 55.8299 121.908 55.6888C122.19 55.5477 122.405 55.3003 122.505 55.001C122.604 54.7017 122.581 54.375 122.44 54.0928L121.324 51.8698H121.329ZM112.95 6.02757C107.406 3.13007 99.6495 5.35307 96.543 11.4188C95.4173 13.6181 94.833 16.5488 95.5835 20.2063C95.8448 21.4888 97.8018 21.1421 98.0868 19.8691C99.4405 13.9031 103.678 8.17457 112.285 7.86107C113.396 7.82307 113.938 6.54057 112.95 6.02757Z" fill="#D73F3B" fill-opacity="0.5"/>
<path fill-rule="evenodd" clip-rule="evenodd" d="M1561.33 519.87C1613.21 484.064 1574.58 456.662 1559 472.683C1543.42 456.662 1504.79 484.064 1556.67 519.87L1555.56 522.093C1555.49 522.233 1555.45 522.385 1555.44 522.54C1555.43 522.696 1555.45 522.853 1555.5 523.001C1555.6 523.3 1555.81 523.548 1556.09 523.689C1556.38 523.83 1556.7 523.853 1557 523.753C1557.3 523.654 1557.55 523.439 1557.69 523.157L1557.88 522.777C1557.92 523.584 1557.99 524.273 1558.12 524.914C1558.45 526.548 1559.11 527.869 1560.25 530.149L1560.31 530.282C1561.32 532.286 1561.18 534.319 1560.55 536.2C1559.91 538.11 1558.81 539.768 1558.01 540.965C1557.84 541.227 1557.77 541.547 1557.84 541.857C1557.9 542.166 1558.08 542.438 1558.34 542.613C1558.6 542.788 1558.92 542.852 1559.23 542.79C1559.54 542.729 1559.81 542.547 1559.99 542.285L1560.01 542.252C1560.8 541.074 1562.06 539.183 1562.8 536.956C1563.56 534.68 1563.81 531.963 1562.44 529.218C1561.21 526.772 1560.71 525.741 1560.45 524.449C1560.36 523.995 1560.3 523.537 1560.27 523.076L1560.31 523.157C1560.45 523.439 1560.7 523.654 1561 523.753C1561.3 523.853 1561.63 523.83 1561.91 523.689C1562.19 523.548 1562.4 523.3 1562.5 523.001C1562.6 522.702 1562.58 522.375 1562.44 522.093L1561.32 519.87H1561.33ZM1552.95 474.028C1547.41 471.13 1539.65 473.353 1536.54 479.419C1535.42 481.618 1534.83 484.549 1535.58 488.206C1535.84 489.489 1537.8 489.142 1538.09 487.869C1539.44 481.903 1543.68 476.175 1552.28 475.861C1553.4 475.823 1553.94 474.541 1552.95 474.028Z" fill="#D73F3B" fill-opacity="0.5"/>
<g clip-path="url(#clip4_6522_5656)">
<path fill-rule="evenodd" clip-rule="evenodd" d="M550.287 698.973C578.957 680.884 557.611 667.04 549.001 675.134C540.388 667.04 519.041 680.884 547.714 698.973L547.1 700.096C547.061 700.166 547.038 700.243 547.032 700.322C547.026 700.401 547.037 700.48 547.064 700.555C547.12 700.706 547.238 700.831 547.394 700.902C547.55 700.973 547.731 700.985 547.896 700.935C548.061 700.884 548.198 700.776 548.276 700.633L548.381 700.441C548.405 700.849 548.444 701.197 548.515 701.521C548.693 702.347 549.061 703.014 549.691 704.166L549.725 704.233C550.282 705.245 550.203 706.273 549.856 707.223C549.502 708.188 548.896 709.025 548.455 709.63C548.358 709.762 548.323 709.924 548.356 710.08C548.39 710.237 548.491 710.374 548.636 710.462C548.781 710.551 548.958 710.583 549.129 710.552C549.299 710.521 549.45 710.429 549.547 710.297L549.557 710.28C549.993 709.685 550.688 708.73 551.101 707.604C551.521 706.455 551.657 705.082 550.901 703.695C550.224 702.459 549.943 701.939 549.801 701.286C549.753 701.057 549.721 700.825 549.704 700.592L549.725 700.633C549.803 700.776 549.94 700.884 550.105 700.935C550.271 700.985 550.451 700.973 550.607 700.902C550.763 700.831 550.882 700.706 550.937 700.555C550.992 700.403 550.979 700.238 550.901 700.096L550.284 698.973H550.287ZM545.656 675.813C542.593 674.349 538.306 675.472 536.59 678.537C535.967 679.648 535.645 681.129 536.059 682.976C536.204 683.624 537.285 683.449 537.443 682.806C538.191 679.792 540.532 676.898 545.289 676.739C545.903 676.72 546.202 676.072 545.656 675.813Z" fill="#D73F3B" fill-opacity="0.5"/>
</g>
<path fill-rule="evenodd" clip-rule="evenodd" d="M61.2868 211.168C89.9571 193.079 68.6106 179.235 60.0006 187.329C51.3879 179.235 30.0414 193.079 58.7143 211.168L58.1001 212.291C58.0615 212.362 58.0384 212.438 58.0323 212.517C58.0262 212.596 58.0371 212.675 58.0644 212.75C58.1195 212.901 58.2381 213.026 58.3941 213.097C58.55 213.169 58.7306 213.18 58.896 213.13C59.0614 213.08 59.1981 212.971 59.2761 212.829L59.3811 212.637C59.4047 213.045 59.4441 213.393 59.5149 213.716C59.6934 214.542 60.0609 215.209 60.6909 216.361L60.7251 216.428C61.2816 217.441 61.2028 218.468 60.8563 219.418C60.5019 220.383 59.8956 221.22 59.4546 221.825C59.3578 221.957 59.3225 222.12 59.3565 222.276C59.3905 222.432 59.4909 222.569 59.6357 222.658C59.7805 222.746 59.9578 222.778 60.1286 222.747C60.2995 222.716 60.4498 222.625 60.5466 222.492L60.5571 222.475C60.9928 221.88 61.6884 220.925 62.1006 219.8C62.5206 218.65 62.6571 217.278 61.9011 215.891C61.2238 214.655 60.9429 214.134 60.8012 213.481C60.7533 213.252 60.7209 213.021 60.7041 212.788L60.7251 212.829C60.803 212.971 60.9398 213.08 61.1052 213.13C61.2706 213.18 61.4511 213.169 61.6071 213.097C61.763 213.026 61.8816 212.901 61.9367 212.75C61.9919 212.599 61.979 212.434 61.9011 212.291L61.2842 211.168H61.2868ZM56.6563 188.008C53.5929 186.545 49.3063 187.668 47.5896 190.732C46.9674 191.843 46.6446 193.324 47.0593 195.172C47.2037 195.82 48.2852 195.644 48.4427 195.001C49.1908 191.987 51.5323 189.093 56.2888 188.935C56.9031 188.916 57.2023 188.268 56.6563 188.008Z" fill="#D73F3B" fill-opacity="0.5"/>
<g clip-path="url(#clip5_6522_5656)">
<path fill-rule="evenodd" clip-rule="evenodd" d="M1454.29 317.254C1482.96 299.165 1461.61 285.321 1453 293.415C1444.39 285.321 1423.04 299.165 1451.71 317.254L1451.1 318.377C1451.06 318.448 1451.04 318.524 1451.03 318.603C1451.03 318.682 1451.04 318.761 1451.06 318.836C1451.12 318.987 1451.24 319.112 1451.39 319.183C1451.55 319.255 1451.73 319.266 1451.9 319.216C1452.06 319.165 1452.2 319.057 1452.28 318.915L1452.38 318.723C1452.4 319.13 1452.44 319.478 1452.51 319.802C1452.69 320.628 1453.06 321.295 1453.69 322.447L1453.73 322.514C1454.28 323.527 1454.2 324.554 1453.86 325.504C1453.5 326.469 1452.9 327.306 1452.45 327.911C1452.36 328.043 1452.32 328.205 1452.36 328.362C1452.39 328.518 1452.49 328.655 1452.64 328.744C1452.78 328.832 1452.96 328.864 1453.13 328.833C1453.3 328.802 1453.45 328.71 1453.55 328.578L1453.56 328.561C1453.99 327.966 1454.69 327.011 1455.1 325.886C1455.52 324.736 1455.66 323.364 1454.9 321.977C1454.22 320.741 1453.94 320.22 1453.8 319.567C1453.75 319.338 1453.72 319.106 1453.7 318.874L1453.73 318.915C1453.8 319.057 1453.94 319.165 1454.11 319.216C1454.27 319.266 1454.45 319.255 1454.61 319.183C1454.76 319.112 1454.88 318.987 1454.94 318.836C1454.99 318.685 1454.98 318.52 1454.9 318.377L1454.28 317.254H1454.29ZM1449.66 294.094C1446.59 292.631 1442.31 293.754 1440.59 296.818C1439.97 297.929 1439.64 299.41 1440.06 301.258C1440.2 301.905 1441.29 301.73 1441.44 301.087C1442.19 298.073 1444.53 295.179 1449.29 295.021C1449.9 295.002 1450.2 294.354 1449.66 294.094Z" fill="#D73F3B" fill-opacity="0.5"/>
</g>
<path fill-rule="evenodd" clip-rule="evenodd" d="M40.3285 464.87C92.208 429.064 53.581 401.662 38.001 417.683C22.4163 401.662 -16.2107 429.064 35.6735 464.87L34.562 467.093C34.4922 467.233 34.4505 467.385 34.4394 467.54C34.4284 467.696 34.4481 467.853 34.4975 468.001C34.5973 468.3 34.8118 468.548 35.094 468.689C35.3762 468.83 35.7029 468.853 36.0022 468.753C36.3015 468.654 36.5489 468.439 36.69 468.157L36.88 467.777C36.9228 468.584 36.994 469.273 37.1223 469.914C37.4453 471.548 38.1103 472.869 39.2503 475.149L39.312 475.282C40.319 477.286 40.1765 479.319 39.5495 481.2C38.9083 483.11 37.811 484.768 37.013 485.965C36.8379 486.227 36.7741 486.547 36.8355 486.857C36.897 487.166 37.0788 487.438 37.3408 487.613C37.6028 487.788 37.9237 487.852 38.2328 487.79C38.5419 487.729 38.8139 487.547 38.989 487.285L39.008 487.252C39.7965 486.074 41.0553 484.183 41.801 481.956C42.561 479.68 42.808 476.963 41.44 474.218C40.2145 471.772 39.7063 470.741 39.4498 469.449C39.3632 468.995 39.3045 468.537 39.274 468.076L39.312 468.157C39.4531 468.439 39.7005 468.654 39.9999 468.753C40.2992 468.853 40.6258 468.83 40.908 468.689C41.1902 468.548 41.4048 468.3 41.5046 468.001C41.6043 467.702 41.5811 467.375 41.44 467.093L40.3238 464.87H40.3285ZM31.9495 419.028C26.4063 416.13 18.6495 418.353 15.543 424.419C14.4173 426.618 13.833 429.549 14.5835 433.206C14.8448 434.489 16.8018 434.142 17.0868 432.869C18.4405 426.903 22.6775 421.175 31.2845 420.861C32.396 420.823 32.9375 419.541 31.9495 419.028Z" fill="#D73F3B" fill-opacity="0.5"/>
<path fill-rule="evenodd" clip-rule="evenodd" d="M405.329 712.87C457.208 677.064 418.581 649.662 403.001 665.683C387.416 649.662 348.789 677.064 400.674 712.87L399.562 715.093C399.492 715.233 399.451 715.385 399.439 715.54C399.428 715.696 399.448 715.853 399.497 716.001C399.597 716.3 399.812 716.548 400.094 716.689C400.376 716.83 400.703 716.853 401.002 716.753C401.302 716.654 401.549 716.439 401.69 716.157L401.88 715.777C401.923 716.584 401.994 717.273 402.122 717.914C402.445 719.548 403.11 720.869 404.25 723.149L404.312 723.282C405.319 725.286 405.177 727.319 404.55 729.2C403.908 731.11 402.811 732.768 402.013 733.965C401.838 734.227 401.774 734.547 401.836 734.857C401.897 735.166 402.079 735.438 402.341 735.613C402.603 735.788 402.924 735.852 403.233 735.79C403.542 735.729 403.814 735.547 403.989 735.285L404.008 735.252C404.797 734.074 406.055 732.183 406.801 729.956C407.561 727.68 407.808 724.963 406.44 722.218C405.215 719.772 404.706 718.741 404.45 717.449C404.363 716.995 404.304 716.537 404.274 716.076L404.312 716.157C404.453 716.439 404.701 716.654 405 716.753C405.299 716.853 405.626 716.83 405.908 716.689C406.19 716.548 406.405 716.3 406.505 716.001C406.604 715.702 406.581 715.375 406.44 715.093L405.324 712.87H405.329ZM396.95 667.028C391.406 664.13 383.65 666.353 380.543 672.419C379.417 674.618 378.833 677.549 379.584 681.206C379.845 682.489 381.802 682.142 382.087 680.869C383.441 674.903 387.678 669.175 396.285 668.861C397.396 668.823 397.938 667.541 396.95 667.028Z" fill="#D73F3B" fill-opacity="0.5"/>
<defs>
<clipPath id="clip0_6522_5656">
<rect width="42" height="38.3952" fill="white" transform="translate(1018 165.669)"/>
</clipPath>
<clipPath id="clip1_6522_5656">
<rect width="42" height="38.3952" fill="white" transform="translate(328 9.73242)"/>
</clipPath>
<clipPath id="clip2_6522_5656">
<rect width="42" height="38.3952" fill="white" transform="translate(1228 28.6758)"/>
</clipPath>
<clipPath id="clip3_6522_5656">
<rect width="50" height="45.7086" fill="white" transform="translate(1477 74.873)"/>
</clipPath>
<clipPath id="clip4_6522_5656">
<rect width="42" height="38.3952" fill="white" transform="translate(528 672.768)"/>
</clipPath>
<clipPath id="clip5_6522_5656">
<rect width="42" height="38.3952" fill="white" transform="translate(1432 291.049)"/>
</clipPath>
</defs>
</svg>
