<svg width="212" height="54" viewBox="0 0 212 54" fill="none" xmlns="http://www.w3.org/2000/svg">
<rect width="212" height="54" fill="#F5F5F5"/>
<g clip-path="url(#clip0_0_1)">
<path d="M29.3008 53.5205C13.3951 53.5205 0.535156 41.6645 0.535156 27.0005C0.535156 12.3365 13.3951 0.480469 29.3008 0.480469C45.2065 0.480469 58.0664 12.3365 58.0664 27.0005C58.0664 41.6645 45.2065 53.5205 29.3008 53.5205ZM29.3008 3.60047C15.2564 3.60047 3.91935 14.0525 3.91935 27.0005C3.91935 39.9485 15.2564 50.4005 29.3008 50.4005C43.3452 50.4005 54.6823 39.9485 54.6823 27.0005C54.6823 14.0525 43.3452 3.60047 29.3008 3.60047Z" fill="#202020"/>
<path d="M16 40.144V13L41.3815 26.572L16 40.144ZM19.3842 18.304V34.684L34.6131 26.416L19.3842 18.304Z" fill="#202020"/>
</g>
<path d="M76.2358 33.8842L72 18.6115H74.4236L77.3991 30.4389H77.5408L80.6357 18.6115H83.0369L86.1318 30.4463H86.2735L89.2415 18.6115H91.6726L87.4293 33.8842H85.1101L81.896 22.4446H81.7766L78.5625 33.8842H76.2358ZM95.8003 34.1378C95.0744 34.1378 94.4182 34.0035 93.8315 33.7351C93.2449 33.4616 92.78 33.0664 92.437 32.5493C92.0989 32.0323 91.9299 31.3984 91.9299 30.6477C91.9299 30.0014 92.0542 29.4694 92.3027 29.0518C92.5513 28.6342 92.8869 28.3036 93.3095 28.06C93.7321 27.8164 94.2044 27.6325 94.7264 27.5082C95.2484 27.3839 95.7804 27.2894 96.3223 27.2248C97.0084 27.1452 97.5652 27.0806 97.9927 27.0309C98.4203 26.9762 98.731 26.8892 98.9249 26.7699C99.1188 26.6506 99.2157 26.4567 99.2157 26.1882V26.136C99.2157 25.4847 99.0318 24.9801 98.6639 24.6222C98.301 24.2642 97.7591 24.0852 97.0382 24.0852C96.2875 24.0852 95.6959 24.2518 95.2633 24.5849C94.8358 24.913 94.54 25.2784 94.3759 25.6811L92.2804 25.2038C92.529 24.5078 92.8919 23.946 93.3692 23.5185C93.8514 23.0859 94.4057 22.7727 95.0322 22.5788C95.6586 22.38 96.3173 22.2805 97.0084 22.2805C97.4657 22.2805 97.9505 22.3352 98.4625 22.4446C98.9796 22.549 99.4618 22.7429 99.9093 23.0263C100.362 23.3097 100.732 23.7148 101.02 24.2418C101.309 24.7639 101.453 25.4425 101.453 26.2777V33.8842H99.2754V32.3181H99.1859C99.0417 32.6065 98.8255 32.8899 98.5371 33.1683C98.2488 33.4467 97.8784 33.6779 97.426 33.8618C96.9736 34.0458 96.4317 34.1378 95.8003 34.1378ZM96.285 32.348C96.9015 32.348 97.4285 32.2262 97.866 31.9826C98.3084 31.739 98.644 31.4208 98.8727 31.028C99.1064 30.6303 99.2232 30.2052 99.2232 29.7528V28.2762C99.1437 28.3558 98.9895 28.4304 98.7608 28.5C98.5371 28.5646 98.2811 28.6218 97.9927 28.6715C97.7044 28.7162 97.4235 28.7585 97.15 28.7983C96.8766 28.8331 96.6479 28.8629 96.464 28.8878C96.0314 28.9424 95.6362 29.0344 95.2782 29.1637C94.9253 29.2929 94.6419 29.4794 94.4281 29.723C94.2193 29.9616 94.1149 30.2798 94.1149 30.6775C94.1149 31.2294 94.3187 31.647 94.7264 31.9304C95.1341 32.2088 95.6536 32.348 96.285 32.348ZM109.77 22.4297V24.2195H103.513V22.4297H109.77ZM105.191 19.6854H107.421V30.5209C107.421 30.9534 107.485 31.2791 107.615 31.4978C107.744 31.7116 107.91 31.8583 108.114 31.9378C108.323 32.0124 108.549 32.0497 108.793 32.0497C108.972 32.0497 109.128 32.0373 109.263 32.0124C109.397 31.9875 109.501 31.9677 109.576 31.9527L109.979 33.7947C109.849 33.8444 109.665 33.8941 109.427 33.9439C109.188 33.9985 108.89 34.0284 108.532 34.0333C107.945 34.0433 107.398 33.9389 106.891 33.7201C106.384 33.5014 105.974 33.1633 105.661 32.7059C105.348 32.2485 105.191 31.6743 105.191 30.9833V19.6854ZM116.938 34.1154C115.83 34.1154 114.875 33.8643 114.075 33.3622C113.279 32.8551 112.668 32.1566 112.24 31.2667C111.812 30.3767 111.599 29.3576 111.599 28.2091C111.599 27.0458 111.817 26.0192 112.255 25.1293C112.692 24.2344 113.309 23.5359 114.104 23.0337C114.9 22.5316 115.837 22.2805 116.916 22.2805C117.786 22.2805 118.561 22.4421 119.243 22.7653C119.924 23.0835 120.473 23.5309 120.891 24.1076C121.313 24.6843 121.564 25.358 121.644 26.1286H119.474C119.354 25.5916 119.081 25.1293 118.653 24.7415C118.231 24.3537 117.664 24.1598 116.953 24.1598C116.332 24.1598 115.787 24.3239 115.32 24.652C114.858 24.9751 114.497 25.4375 114.239 26.0391C113.98 26.6357 113.851 27.3416 113.851 28.1569C113.851 28.9922 113.978 29.713 114.231 30.3196C114.485 30.9261 114.843 31.3959 115.305 31.729C115.772 32.0621 116.322 32.2287 116.953 32.2287C117.376 32.2287 117.758 32.1516 118.102 31.9975C118.45 31.8384 118.74 31.6122 118.974 31.3189C119.213 31.0255 119.379 30.6726 119.474 30.2599H121.644C121.564 31.0007 121.323 31.6619 120.92 32.2436C120.518 32.8253 119.978 33.2826 119.302 33.6157C118.631 33.9488 117.843 34.1154 116.938 34.1154ZM126.258 27.0831V33.8842H124.028V18.6115H126.228V24.294H126.37C126.638 23.6776 127.049 23.1879 127.6 22.8249C128.152 22.462 128.873 22.2805 129.763 22.2805C130.549 22.2805 131.235 22.4421 131.821 22.7653C132.413 23.0884 132.87 23.5707 133.193 24.212C133.522 24.8484 133.686 25.6438 133.686 26.5984V33.8842H131.456V26.8668C131.456 26.0266 131.24 25.3754 130.807 24.913C130.375 24.4457 129.773 24.212 129.002 24.212C128.475 24.212 128.003 24.3239 127.585 24.5476C127.173 24.7713 126.847 25.0994 126.609 25.532C126.375 25.9595 126.258 26.4766 126.258 27.0831ZM143.733 18.6115L147.983 31.0504H148.155L152.406 18.6115H154.896L149.4 33.8842H146.738L141.242 18.6115H143.733ZM156.923 33.8842V22.4297H159.153V33.8842H156.923ZM158.049 20.6623C157.661 20.6623 157.328 20.533 157.05 20.2745C156.776 20.011 156.639 19.6978 156.639 19.3349C156.639 18.967 156.776 18.6538 157.05 18.3952C157.328 18.1317 157.661 18 158.049 18C158.437 18 158.767 18.1317 159.041 18.3952C159.319 18.6538 159.458 18.967 159.458 19.3349C159.458 19.6978 159.319 20.011 159.041 20.2745C158.767 20.533 158.437 20.6623 158.049 20.6623ZM166.44 34.1079C165.516 34.1079 164.69 33.8718 163.964 33.3995C163.244 32.9222 162.677 32.2436 162.264 31.3636C161.856 30.4787 161.653 29.4172 161.653 28.1793C161.653 26.9414 161.859 25.8825 162.272 25.0025C162.689 24.1225 163.261 23.4489 163.987 22.9815C164.713 22.5142 165.535 22.2805 166.455 22.2805C167.166 22.2805 167.738 22.3999 168.17 22.6385C168.608 22.8722 168.946 23.1456 169.185 23.4588C169.428 23.772 169.617 24.0479 169.751 24.2866H169.886V18.6115H172.115V33.8842H169.938V32.1019H169.751C169.617 32.3455 169.423 32.6239 169.17 32.9371C168.921 33.2503 168.578 33.5238 168.141 33.7574C167.703 33.9911 167.136 34.1079 166.44 34.1079ZM166.932 32.2063C167.574 32.2063 168.116 32.0373 168.558 31.6992C169.006 31.3561 169.344 30.8814 169.572 30.2748C169.806 29.6683 169.923 28.9623 169.923 28.1569C169.923 27.3615 169.809 26.6655 169.58 26.0689C169.351 25.4723 169.016 25.0075 168.573 24.6744C168.131 24.3413 167.584 24.1747 166.932 24.1747C166.261 24.1747 165.702 24.3487 165.255 24.6967C164.807 25.0447 164.469 25.5195 164.24 26.1211C164.017 26.7227 163.905 27.4013 163.905 28.1569C163.905 28.9226 164.019 29.6111 164.248 30.2226C164.477 30.8341 164.815 31.3189 165.262 31.6768C165.714 32.0298 166.271 32.2063 166.932 32.2063ZM180.235 34.1154C179.106 34.1154 178.134 33.8743 177.319 33.392C176.508 32.9048 175.882 32.2212 175.439 31.3412C175.002 30.4563 174.783 29.4197 174.783 28.2315C174.783 27.0582 175.002 26.0241 175.439 25.1293C175.882 24.2344 176.498 23.5359 177.289 23.0337C178.084 22.5316 179.014 22.2805 180.078 22.2805C180.724 22.2805 181.351 22.3874 181.957 22.6012C182.564 22.815 183.108 23.1506 183.59 23.608C184.073 24.0653 184.453 24.6594 184.731 25.3903C185.01 26.1161 185.149 26.9986 185.149 28.0376V28.8281H176.044V27.1577H182.964C182.964 26.571 182.845 26.0515 182.606 25.5991C182.367 25.1417 182.032 24.7813 181.599 24.5178C181.172 24.2543 180.67 24.1225 180.093 24.1225C179.466 24.1225 178.92 24.2766 178.452 24.5849C177.99 24.8881 177.632 25.2859 177.378 25.7781C177.13 26.2653 177.006 26.7947 177.006 27.3665V28.6715C177.006 29.4371 177.14 30.0884 177.408 30.6253C177.682 31.1623 178.062 31.5724 178.549 31.8558C179.036 32.1342 179.606 32.2734 180.257 32.2734C180.68 32.2734 181.065 32.2137 181.413 32.0944C181.761 31.9701 182.062 31.7862 182.315 31.5426C182.569 31.299 182.763 30.9982 182.897 30.6402L185.007 31.0206C184.838 31.642 184.535 32.1864 184.097 32.6537C183.665 33.1161 183.121 33.4765 182.464 33.7351C181.813 33.9886 181.07 34.1154 180.235 34.1154ZM192.448 34.1154C191.374 34.1154 190.437 33.8693 189.636 33.3771C188.836 32.8849 188.215 32.1963 187.772 31.3114C187.33 30.4265 187.108 29.3924 187.108 28.2091C187.108 27.021 187.33 25.9819 187.772 25.092C188.215 24.2021 188.836 23.511 189.636 23.0188C190.437 22.5266 191.374 22.2805 192.448 22.2805C193.522 22.2805 194.459 22.5266 195.259 23.0188C196.06 23.511 196.681 24.2021 197.124 25.092C197.566 25.9819 197.787 27.021 197.787 28.2091C197.787 29.3924 197.566 30.4265 197.124 31.3114C196.681 32.1963 196.06 32.8849 195.259 33.3771C194.459 33.8693 193.522 34.1154 192.448 34.1154ZM192.455 32.2436C193.151 32.2436 193.728 32.0596 194.185 31.6917C194.643 31.3238 194.981 30.8341 195.2 30.2226C195.423 29.6111 195.535 28.9375 195.535 28.2017C195.535 27.4709 195.423 26.7997 195.2 26.1882C194.981 25.5717 194.643 25.0771 194.185 24.7042C193.728 24.3313 193.151 24.1449 192.455 24.1449C191.754 24.1449 191.173 24.3313 190.71 24.7042C190.253 25.0771 189.912 25.5717 189.689 26.1882C189.47 26.7997 189.361 27.4709 189.361 28.2017C189.361 28.9375 189.47 29.6111 189.689 30.2226C189.912 30.8341 190.253 31.3238 190.71 31.6917C191.173 32.0596 191.754 32.2436 192.455 32.2436Z" fill="#202020"/>
<defs>
<clipPath id="clip0_0_1">
<rect width="59" height="54" fill="white"/>
</clipPath>
</defs>
</svg>
