<svg width="923" height="861" viewBox="0 0 923 861" fill="none" xmlns="http://www.w3.org/2000/svg">
<path d="M105.776 839.422H276.251C279.176 839.422 279.176 834.027 276.251 834.027C219.401 834.027 162.551 834.027 105.776 834.027C102.851 834.027 102.851 839.422 105.776 839.422Z" fill="#E8E8E8"/>
<path d="M161.348 818.29H332.423H380.948C383.873 818.29 383.873 812.895 380.948 812.895C323.948 812.895 266.948 812.895 209.873 812.895C193.673 812.895 177.473 812.895 161.348 812.895C158.498 812.895 158.498 818.29 161.348 818.29Z" fill="#E8E8E8"/>
<path d="M377.276 785.022H493.076C496.001 785.022 496.001 779.627 493.076 779.627C454.451 779.627 415.826 779.627 377.276 779.627C374.351 779.627 374.351 785.022 377.276 785.022Z" fill="#E8E8E8"/>
<path d="M476.424 860.551H717.549H784.974C787.899 860.551 787.899 855.156 784.974 855.156C704.574 855.156 624.174 855.156 543.849 855.156C521.349 855.156 498.924 855.156 476.424 855.156C473.499 855.156 473.499 860.551 476.424 860.551Z" fill="#E8E8E8"/>
<path d="M666.401 839.422H825.776C828.701 839.422 828.701 834.027 825.776 834.027C772.676 834.027 719.501 834.027 666.401 834.027C663.476 834.027 663.476 839.422 666.401 839.422Z" fill="#E8E8E8"/>
<path d="M246.473 184.828C242.573 185.637 236.423 187.526 229.973 192.291C225.923 195.258 217.673 202.452 212.498 215.67C210.623 220.345 206.423 231.225 208.523 244.713C211.598 264.674 226.223 274.655 228.548 276.183C235.973 262.606 243.323 248.939 250.748 235.361C249.248 218.547 247.823 201.732 246.473 184.828Z" fill="#D73F3B"/>
<path d="M252.023 233.742C262.973 226.639 273.848 219.535 284.798 212.342C287.198 215.938 291.698 223.941 291.623 234.731C291.623 237.159 291.398 239.407 291.023 241.475C277.973 238.867 264.998 236.26 252.023 233.742Z" fill="#FFCC4D"/>
<path d="M134.574 295.785C135.924 316.915 137.199 338.136 138.549 359.266C143.349 358.906 148.149 358.457 152.874 358.097C151.299 336.607 149.724 315.207 148.149 293.717C143.574 294.436 139.074 295.066 134.574 295.785Z" fill="#FFCC4D"/>
<path d="M161.352 317.814C162.102 330.852 162.852 343.8 163.677 356.838C168.477 356.298 173.277 355.849 178.002 355.309C176.952 342.271 175.977 329.323 174.927 316.285C170.352 316.735 165.852 317.274 161.352 317.814Z" fill="#D73F3B"/>
<path d="M331.976 398.38C257.576 406.562 183.251 414.655 108.851 422.837C102.026 292.278 95.1258 161.719 88.3008 31.0702C162.476 27.9231 236.726 24.776 310.901 21.6289C317.951 147.242 325.001 272.856 331.976 398.38V398.38Z" stroke="#202020" stroke-width="2" stroke-miterlimit="10"/>
<path d="M165.024 6.34463C165.849 13.448 166.749 20.5515 167.574 27.6549C167.799 29.3633 169.974 28.644 169.749 26.9355C168.924 19.8321 168.024 12.7287 167.199 5.6253C166.974 3.91688 164.799 4.63622 165.024 6.34463Z" fill="#E8E8E8"/>
<path d="M166.6 6.16445C183.475 4.8157 200.425 4.00646 217.3 3.55688C218.725 3.55688 218.725 0.859375 217.3 0.859375C200.35 1.30896 183.475 2.20812 166.6 3.46695C165.175 3.55687 165.175 6.25437 166.6 6.16445Z" fill="#E8E8E8"/>
<path d="M216.625 2.47858C217.375 10.1215 217.975 17.6745 218.35 25.3174C218.425 27.0258 220.675 27.0258 220.6 25.3174C220.225 17.6745 219.625 10.0316 218.875 2.47858C218.65 0.770161 216.4 0.770161 216.625 2.47858Z" fill="#E8E8E8"/>
<path d="M166.675 6.07428C167.2 12.7281 167.725 19.4719 168.25 26.1257C168.325 26.845 168.7 27.4745 169.375 27.4745C185.5 27.6543 201.55 24.5971 217.75 25.2265C219.175 25.3165 219.175 22.6189 217.75 22.529C201.625 21.8996 185.575 24.8669 169.375 24.777L170.5 26.1257C169.975 19.4719 169.45 12.7281 168.925 6.07428C168.775 4.36586 166.525 4.36586 166.675 6.07428Z" fill="#E8E8E8"/>
<path d="M167.872 6.97435C170.347 8.77268 173.572 7.87352 176.272 7.69369C180.772 7.42393 185.272 7.15418 189.772 6.88443C198.772 6.34493 207.697 5.71552 216.697 5.17602C216.322 4.72643 215.947 4.27685 215.572 3.82727C215.797 9.67185 216.022 15.5164 216.247 21.4509C216.322 23.1593 218.572 23.1593 218.497 21.4509C218.272 15.6063 218.047 9.76177 217.822 3.82727C217.822 3.10793 217.297 2.47852 216.697 2.47852C208.747 3.01802 200.722 3.4676 192.772 4.0071C188.797 4.27685 184.822 4.5466 180.772 4.72643C177.622 4.90627 171.772 6.70459 168.997 4.63651C167.797 3.73734 166.672 6.07518 167.872 6.97435Z" fill="#E8E8E8"/>
<path d="M167.799 7.51356C168.924 12.9985 169.674 18.5733 170.124 24.2381C170.874 24.1481 171.624 23.9683 172.299 23.8784C171.474 19.0229 171.699 14.2573 172.449 9.31189C171.699 9.22197 170.949 9.04214 170.274 8.95223C170.424 14.3472 170.724 19.4725 172.449 24.4179C172.974 25.8566 174.849 24.7776 174.474 23.3389C173.199 17.5842 171.999 11.9195 173.274 5.98497C172.524 5.98497 171.849 5.98497 171.099 5.98497C171.774 11.38 172.449 16.775 173.124 22.17C173.349 23.8784 175.524 23.1591 175.299 21.4506C174.624 16.0556 173.949 10.6606 173.274 5.26564C173.124 3.91689 171.324 4.09672 171.099 5.26564C169.749 11.6497 170.949 17.854 172.299 24.0582C172.974 23.6986 173.649 23.3389 174.324 22.9792C172.749 18.4834 172.599 13.6279 172.449 8.86231C172.449 7.42364 170.499 6.97406 170.274 8.50264C169.449 13.8976 169.149 19.1128 170.124 24.5078C170.349 25.9465 172.449 25.6767 172.299 24.1481C171.849 18.3036 171.024 12.459 169.899 6.70431C169.599 5.08581 167.499 5.80514 167.799 7.51356Z" fill="#E8E8E8"/>
<path d="M173.575 12.2792C174.4 10.6607 175.225 9.04217 176.05 7.42367C175.375 6.97408 174.775 6.5245 174.1 6.07492C173.125 8.6825 172.225 11.2901 171.25 13.8977C170.8 15.1565 172.15 16.8649 173.05 15.5162C174.55 13.2682 175.975 10.9304 177.475 8.68249C176.875 8.23291 176.2 7.78333 175.6 7.33374C175 9.49174 174.25 11.4699 173.2 13.4481C172.525 14.7069 174.175 16.3254 175 15.0666C176.125 13.3582 177.25 11.6498 178.45 9.94134C177.85 9.40184 177.25 8.86233 176.65 8.32283C175.15 12.5489 173.65 16.6851 172.15 20.9112C171.7 22.17 173.05 23.8784 173.95 22.5297C176.65 18.4834 179.425 14.3472 182.125 10.301C181.525 9.7615 180.925 9.22199 180.325 8.68249C178.3 12.6388 176.275 16.6851 174.25 20.6414C173.725 21.6305 174.55 22.9792 175.525 22.6196C176.725 22.17 176.875 21.9902 177.775 21.091C177.175 20.6414 176.5 20.1918 175.9 19.7422C175.45 21.2708 174.7 22.4398 173.575 23.4288C172.45 24.4179 173.425 26.6658 174.7 25.7667C175.9 24.9574 177.025 24.4179 178.375 24.2381C177.925 23.6986 177.475 23.1591 177.025 22.6196C175.075 21.4507 174.475 19.8322 175.225 17.6742C175.45 16.5052 175.825 15.4263 176.275 14.4372C176.875 13.1783 178 10.1212 179.125 12.8187C179.95 14.7968 176.5 25.8566 176.05 19.0229C175.975 17.2246 176.125 15.4262 176.575 13.8077C176.875 12.5489 177.325 11.38 177.85 10.2111C178.6 8.41274 178.975 8.41274 179.05 10.2111C180.475 13.8077 178.75 19.4725 177.325 22.6196C178 22.7095 178.675 22.7994 179.35 22.9793C178.75 20.4616 178.525 18.0338 178.975 15.5162C179.125 14.5271 179.875 9.7615 180.7 11.2901C182.425 14.2573 179.575 21.0011 178.375 23.6087C179.05 23.8784 179.8 24.0583 180.475 24.328C180.25 21.9003 180.175 19.5624 180.55 17.1347C180.775 15.5162 181.6 10.301 183.025 10.1212C185.05 9.85142 181.15 20.9112 180.25 22.5297C180.925 22.6196 181.6 22.7095 182.275 22.8893C181.6 18.8431 181.6 10.2111 186.175 8.86233C185.725 8.59258 185.275 8.23291 184.825 7.96316C185.65 13.4481 184.375 18.7532 181.225 22.7994C181.825 22.9792 182.5 23.1591 183.1 23.4288C182.575 20.9112 182.5 18.4834 183.025 15.9657C183.325 14.617 184.9 8.95225 186.4 9.40183C187.45 9.67158 186.1 14.8867 185.8 16.0557C184.975 18.933 183.7 21.4507 181.825 23.6087C182.425 23.7885 183.1 23.9683 183.7 24.2381C182.5 18.2137 184.6 12.1892 189.025 8.95225C188.5 8.6825 187.9 8.41275 187.375 8.143C189.1 13.6279 184.675 20.7313 181.75 24.4179C182.35 24.5977 183.025 24.7776 183.625 25.0473C183.1 22.4397 183.1 19.9221 183.775 17.3145C184 16.5052 186.25 10.3909 187.3 10.8405C188.8 11.4699 186.25 16.9548 185.8 17.7641C185.275 18.933 184.3 21.0011 183.325 21.7204C182.2 22.6196 182.275 22.7994 182.2 20.8212C182.125 18.1237 183.625 15.0666 184.9 13.0884C185.575 12.0094 186.7 10.301 187.75 9.85141C188.95 9.222 188.8 9.04216 188.65 10.9304C188.125 16.5052 185.5 21.5406 182.2 25.407C182.8 25.5868 183.475 25.7667 184.075 26.0364C183.4 20.7313 184.9 15.2464 188.2 11.5598C189.175 10.4808 190.3 9.76149 190.675 12.0094C190.825 12.9086 189.925 15.0666 189.625 15.8758C188.575 18.8431 187.075 21.3608 185.2 23.6087H186.775C185.425 21.7204 187.15 17.5843 187.975 15.7859C188.35 14.9767 191.575 9.04216 192.475 9.58166C193.525 10.2111 191.2 16.2355 190.9 16.8649C189.85 19.2927 188.5 21.4507 186.925 23.4288C187.6 23.7885 188.2 24.0582 188.875 24.4179C188.95 17.854 191.5 12.2792 196.15 8.77242C195.55 8.41275 195.025 7.96316 194.425 7.6035C194.5 13.6279 192.7 18.933 189.1 23.1591C189.775 23.5188 190.375 23.7885 191.05 24.1482C191.5 17.5842 194.05 11.9195 198.25 7.69342C197.65 7.6035 197.05 7.51358 196.45 7.42367C198.85 11.7397 193.6 19.8322 191.5 23.0692C192.175 23.4288 192.775 23.6986 193.45 24.0583C193.525 21.5406 193.9 19.2027 194.725 16.8649C195.175 15.4262 197.05 10.4808 198.4 10.1212C200.2 9.67158 198.325 13.8078 197.725 15.3363C196.675 17.9439 195.25 20.1918 193.6 22.2599C194.2 22.7095 194.875 23.1591 195.475 23.6087C196.15 18.0338 198.025 10.6607 202.9 8.59259C202.45 8.143 201.925 7.69341 201.475 7.33374C200.875 13.4481 198.625 18.6632 194.875 22.7994C195.55 23.1591 196.15 23.4288 196.825 23.7885C197.05 20.9112 197.575 18.1237 198.625 15.4262C199.3 13.7178 201.1 9.22199 202.75 8.86233C203.575 8.68249 202.75 10.2111 202.45 11.2002C202 12.6388 201.4 13.9876 200.8 15.2464C199.6 17.7641 198.1 20.012 196.375 22.0801C197.05 22.4398 197.65 22.7095 198.325 23.0692C198.625 17.3145 200.875 12.3691 204.625 8.86233C204.1 8.32283 203.5 7.87324 202.975 7.33374C202.375 11.5598 200.575 14.8868 198.175 18.0338C196.75 19.9221 196.3 19.4725 196.15 16.9548C196 13.538 197.725 10.1212 200.575 9.222C200.125 8.77242 199.6 8.32283 199.15 7.96316C198.925 13.3582 197.575 18.2137 195.175 22.7095C195.85 22.9792 196.6 23.1591 197.275 23.4288C197.5 20.7313 198.1 18.1237 199.15 15.696C199.825 14.0775 201.55 10.0312 203.05 9.58166C205.225 8.86233 203.05 13.9876 202.525 15.2464C201.475 17.7641 200.05 19.9221 198.4 21.9902C199.075 22.3498 199.675 22.6196 200.35 22.9793C200.05 16.4153 203.35 10.6607 208.525 8.68249C208.075 8.23291 207.55 7.78333 207.1 7.42367C206.5 13.8077 203.95 19.2027 199.825 23.3389C200.5 23.6986 201.1 23.9683 201.775 24.328C202.375 18.1238 205 12.8187 209.275 9.222C208.75 8.95225 208.15 8.68249 207.625 8.41274C208.825 13.0884 204.7 19.2028 202.45 22.5297C203.125 22.8893 203.725 23.1591 204.4 23.5187C204.7 18.933 206.875 10.5707 211.45 9.76149C211 9.22199 210.55 8.6825 210.1 8.143C209.275 13.2683 207.55 17.854 204.775 21.9002C205.45 22.2599 206.05 22.5297 206.725 22.8893C206.95 17.4044 208.75 12.6388 211.9 8.77242C211.3 8.6825 210.7 8.59258 210.1 8.50266C211.825 12.2792 208.3 18.933 206.725 22.2599L208.75 23.3389C209.5 19.0229 210.1 11.7397 213.475 9.13208C213.025 9.04216 212.575 8.95225 212.125 8.95225C214 11.4699 210.4 19.9221 209.575 22.4397C210.325 22.7095 211 22.8893 211.75 23.1591C212.8 18.5733 213.775 14.0775 214.825 9.49175C214.075 9.40184 213.325 9.22199 212.65 9.13208C212.8 13.4481 212.275 17.4943 211.075 21.6305C211.825 21.7204 212.575 21.9002 213.25 21.9902C213.625 17.9439 213.25 11.6497 215.2 8.23291C214.525 8.14299 213.85 8.05308 213.175 7.87325C214.225 12.2792 213.85 16.5052 213.325 21.091C214.075 21.1809 214.825 21.3607 215.5 21.4507C215.2 16.4153 214.9 11.2901 214.6 6.25475C213.925 6.61441 213.325 6.88417 212.65 7.24384C215.5 10.7506 214.375 15.3363 213.1 19.3826C213.775 19.2927 214.45 19.2027 215.125 19.0229C214.3 17.1347 212.65 13.9876 212.725 11.7397C211.975 10.301 212.275 9.58167 213.7 9.67158C214.375 11.1102 214.6 12.6388 214.3 14.1674C214.975 13.8077 215.575 13.538 216.25 13.1783C215.05 11.4699 214.45 9.85141 214.075 7.78333C213.55 8.32283 212.95 8.77241 212.425 9.31191C212.725 10.301 213.025 11.38 213.325 12.3691C214 12.459 214.675 12.5489 215.35 12.7287C214.825 10.9304 214.6 9.31192 214.675 7.42367C214.225 7.87325 213.7 8.32283 213.25 8.68249C216.175 10.1212 214.15 19.4725 213.775 21.9002C214.15 21.5406 214.525 21.2708 214.825 20.9112C209.125 21.091 203.425 21.2708 197.725 21.4507C196.3 21.5406 196.3 24.0582 197.725 24.1482C202.75 24.328 207.7 23.4288 212.65 22.5297C212.425 21.6305 212.275 20.8212 212.05 19.9221C206.2 21.8103 200.35 23.0692 194.35 23.6087C192.925 23.6986 192.925 26.2163 194.35 26.3062C200.2 26.5759 205.9 24.1482 211.75 24.4179C211.675 23.5187 211.525 22.6196 211.45 21.8103C206.95 23.6087 202.45 24.1482 197.725 23.5187V26.2162C203.125 25.5868 208.525 24.9574 213.925 24.328C213.85 23.4288 213.7 22.5297 213.625 21.7204C210.025 22.9792 206.5 23.4288 202.75 23.249V25.9465C206.425 25.9465 209.95 25.407 213.475 24.328C214.9 23.8784 214.3 21.3607 212.875 21.7204C208.675 22.7994 204.475 23.3389 200.2 23.3389V26.0364C205.3 25.2272 210.4 24.2381 215.5 22.9793C216.7 22.7095 216.475 20.1918 215.2 20.3717C210.325 21.091 205.525 21.0011 200.725 20.1019C199.3 19.8322 198.7 22.4398 200.125 22.7095C205.15 23.6087 210.175 23.7885 215.2 23.0692C215.125 22.17 214.975 21.2708 214.9 20.4616C210.025 21.6305 205.15 22.7095 200.2 23.4288C198.775 23.6087 198.7 26.1263 200.2 26.1263C204.7 26.1263 209.05 25.5868 213.475 24.4179C213.25 23.5187 213.1 22.7095 212.875 21.8103C209.5 22.7994 206.2 23.3389 202.75 23.3389C201.325 23.3389 201.325 25.9465 202.75 26.0364C206.65 26.2162 210.4 25.6767 214.225 24.4179C215.425 23.9683 215.2 21.6305 213.925 21.8103C208.525 22.4398 203.125 23.0692 197.725 23.6986C196.3 23.8784 196.3 26.2162 197.725 26.3961C202.675 27.0255 207.4 26.3961 212.05 24.5977C213.25 24.1482 213.025 21.9902 211.75 21.9902C205.9 21.7204 200.2 24.1482 194.35 23.8784V26.5759C200.575 26.0364 206.65 24.7776 212.65 22.7994C214.075 22.3498 213.475 19.9221 212.05 20.1918C207.25 21.091 202.525 21.9002 197.725 21.7204V24.4179C203.425 24.2381 209.125 24.0583 214.825 23.8784C215.275 23.8784 215.8 23.4288 215.875 22.8893C216.625 17.854 218.95 8.95225 213.775 6.34467C213.025 5.985 212.425 6.88416 212.35 7.6035C212.2 9.85141 212.425 11.5598 213.1 13.6279C213.4 14.617 214.675 15.0666 215.125 13.9876C216.175 11.38 215.575 8.77242 213.4 7.24384C212.5 6.61442 211.525 7.6035 211.75 8.77242C212.2 11.38 213.1 13.3582 214.525 15.4262C215.2 16.4153 216.4 15.5162 216.475 14.4372C216.7 11.5598 214.6 3.01775 210.775 5.62533C207.325 8.05308 211.9 17.854 213.025 20.6414C213.475 21.8103 214.75 21.2708 215.05 20.2818C216.7 15.1565 217.45 9.76149 214 5.53541C213.325 4.72616 211.975 5.26567 212.05 6.5245C212.35 11.5598 212.65 16.6851 212.95 21.7204C213.025 23.1591 214.975 23.6986 215.125 22.0801C215.725 17.1347 216.175 12.3691 214.975 7.42367C214.675 6.25475 213.475 6.16483 212.95 7.06399C210.625 11.0203 211.075 17.5842 210.7 22.17C210.55 23.7885 212.5 23.8784 212.875 22.5297C214.15 18.2137 214.675 13.8977 214.525 9.31191C214.45 7.78333 212.65 7.42366 212.35 8.95225C211.3 13.538 210.325 18.0338 209.275 22.6196C208.9 24.328 210.925 24.9574 211.45 23.3389C212.8 19.2027 216.4 11.2901 213.4 7.15391C213.1 6.70433 212.425 6.61442 212.05 6.97408C207.925 10.2111 207.175 17.4943 206.275 22.7994C206.05 24.2381 207.7 25.2272 208.3 23.8784C210.325 19.4725 213.925 12.3691 211.675 7.33374C211.3 6.61441 210.4 6.43458 209.875 7.06399C206.275 11.5598 204.325 16.8649 204.025 23.0692C203.95 24.1482 205.3 24.9574 205.975 24.0583C209.05 19.6523 211 14.7069 211.9 9.13208C212.05 8.05308 211.375 7.33374 210.55 7.51358C204.925 8.50266 202.225 18.0338 201.85 23.8784C201.775 25.0473 203.125 25.6767 203.8 24.8675C206.725 20.6414 211.075 13.9876 209.575 8.143C209.35 7.33375 208.525 6.79424 207.925 7.33374C202.975 11.4699 199.975 17.4943 199.3 24.6877C199.15 25.9465 200.575 26.3062 201.25 25.6768C205.825 21.091 208.45 14.8868 209.125 7.87325C209.2 6.97408 208.375 6.34466 207.7 6.61441C201.55 8.95224 197.5 15.7859 197.875 23.5187C197.95 24.6877 199.075 25.3171 199.825 24.5078C201.55 22.4398 210.55 7.78333 204.925 6.16483C202.6 5.44549 199.975 9.76149 198.85 11.5598C196.525 15.2464 195.325 19.4725 194.875 24.0583C194.725 25.4969 196.45 25.7667 196.975 24.7776C199.675 19.9221 201.1 14.5271 201.325 8.68249C201.325 7.78333 200.575 7.15392 199.9 7.42367C196.825 8.41275 194.95 11.1102 194.2 14.7968C193.675 17.1347 193.15 21.5406 195.25 23.0692C197.275 24.5977 198.925 21.9003 200.05 20.2818C202.45 16.9548 204.4 13.3582 205 8.95225C205.15 7.96316 204.25 6.61442 203.35 7.42367C198.85 11.5598 196.3 17.2246 195.925 23.9683C195.85 25.1372 197.2 25.6768 197.875 24.9574C199.675 22.7994 209.275 8.59258 204.1 6.25475C201.775 5.17575 199.3 9.67158 198.25 11.4699C195.925 15.4262 194.8 19.8322 194.425 24.5977C194.35 25.8566 195.7 26.3062 196.375 25.5868C200.575 20.9112 203.05 15.0666 203.65 8.23291C203.725 7.42366 202.9 6.70433 202.225 6.97408C196.525 9.40183 194.05 17.2246 193.225 23.8784C193.075 25.1373 194.275 26.3062 195.1 25.2272C196.9 22.9793 205.45 8.86233 200.2 7.06399C197.8 6.25474 195.175 11.2002 194.125 13.1783C192.175 16.775 191.275 20.9112 191.125 25.1372C191.05 26.2162 192.4 27.0255 193.075 26.1263C195.925 21.9003 201.475 12.9086 198.4 7.24384C197.95 6.43459 197.2 6.43458 196.6 6.97408C191.95 11.6498 189.25 18.1238 188.725 25.407C188.65 26.5759 190 27.1154 190.675 26.3961C194.65 21.6305 196.675 15.6061 196.6 8.95225C196.6 7.96316 195.625 7.24383 194.875 7.78333C189.55 11.7397 186.55 18.3036 186.475 25.7667C186.475 26.9356 187.75 27.565 188.425 26.7558C191.275 23.1591 193.6 18.8431 194.575 13.9876C195.025 11.9195 195.325 7.87325 192.55 8.05308C189.625 8.23291 186.55 14.3472 185.5 17.0447C184.375 20.1019 183.175 24.0582 185.2 26.8457C185.575 27.3852 186.4 27.2952 186.775 26.8457C189.775 23.3389 192.025 18.933 192.85 13.9876C193.225 11.7397 193.375 7.96316 190.675 7.96316C187.825 7.96316 184.75 12.9985 183.625 15.6061C181.825 19.4725 181.375 23.6986 181.975 28.0146C182.125 29.0936 183.325 29.2734 183.85 28.644C187.225 24.6877 189.7 19.7422 190.75 14.1674C191.2 11.7397 191.8 7.6035 188.8 7.69342C183.625 7.87325 176.5 23.4288 181.375 27.4751C181.75 27.7448 182.2 27.6549 182.5 27.4751C185.125 25.9465 194.425 10.8405 188.725 8.86233C186.325 7.96316 183.625 12.8187 182.725 14.8868C181 18.7532 180.625 22.9792 181.45 27.1154C181.6 28.1045 182.8 28.4642 183.325 27.7448C186.85 23.249 191.575 15.2464 189.55 8.86233C189.325 8.05308 188.575 7.6035 187.9 8.05308C182.575 11.9195 180.1 19.2027 181.525 26.3961C181.75 27.3852 182.8 27.6549 183.4 27.0255C186.4 23.5188 188.05 19.1128 188.8 14.1674C189.1 12.0094 189.775 8.05308 187.45 7.15391C184.975 6.25475 182.65 11.2901 181.825 13.4481C180.325 17.3145 180.1 21.5406 180.925 25.7667C181.15 26.7557 182.2 27.1154 182.8 26.3961C186.55 21.5406 188.05 15.4262 187 8.95225C186.85 8.23291 186.175 7.87325 185.65 8.05308C179.8 9.7615 179.2 19.6523 180.175 25.407C180.4 26.6658 181.75 26.5759 182.2 25.7667C184.15 22.4397 185.425 18.7532 185.725 14.617C185.875 12.6388 186.325 8.50266 184.075 7.78333C181.825 7.06399 180.475 11.0203 179.8 12.9086C178.225 17.1347 177.85 21.6305 178.3 26.2162C178.45 27.4751 179.8 28.1944 180.4 26.9356C182.725 22.0801 184.675 14.7968 182.575 9.40183C182.425 8.95225 181.975 8.6825 181.6 8.77242C176.05 8.86233 176.35 21.5406 177.325 25.7667C177.55 26.8457 178.9 27.1154 179.35 26.1263C181.45 21.7204 182.8 15.2464 181 10.301C179.725 6.79425 177.4 8.41275 175.975 11.0203C173.95 14.7968 172.675 21.9002 174.7 26.0364C176.275 29.2734 178.3 26.8457 179.425 24.4179C180.775 21.4507 182.95 14.1674 180.7 11.0203C178.675 8.23292 176.05 12.0993 174.925 14.0775C173.2 17.2246 171.55 22.9792 173.725 26.3961C175.375 29.0037 178.375 28.4642 179.275 25.4969C179.65 24.4179 178.675 23.6986 177.925 23.8784C176.35 24.1482 175.075 24.6877 173.725 25.6768C174.1 26.486 174.475 27.2053 174.85 28.0146C176.425 26.5759 177.475 24.9574 178.225 22.7095C178.675 21.3608 177.1 20.6414 176.35 21.3608C175.9 21.6305 175.525 21.9002 175.075 22.17C175.525 22.7994 175.9 23.5187 176.35 24.1482C178.375 20.1918 180.4 16.1456 182.425 12.1893C183.1 10.9304 181.45 9.31192 180.625 10.5707C177.925 14.617 175.15 18.7532 172.45 22.7994C173.05 23.3389 173.65 23.8784 174.25 24.4179C175.75 20.1918 177.25 16.0557 178.75 11.8296C179.2 10.5707 177.85 8.86233 176.95 10.2111C175.825 11.9195 174.7 13.6279 173.5 15.3363C174.1 15.8758 174.7 16.4153 175.3 16.9548C176.425 14.7968 177.25 12.6388 177.925 10.2111C178.225 8.95224 176.725 7.78333 176.05 8.86233C174.55 11.1102 173.125 13.4481 171.625 15.696C172.225 16.2355 172.825 16.775 173.425 17.3145C174.4 14.7069 175.3 12.0993 176.275 9.49175C176.875 7.96317 175.075 6.61442 174.325 8.143C173.5 9.7615 172.675 11.38 171.85 12.9985C170.875 12.459 172.825 13.8077 173.575 12.2792Z" fill="#E8E8E8"/>
<path d="M214.298 4.63567C214.298 7.69284 214.373 10.8399 214.448 13.8971C214.523 16.145 215.348 20.9106 214.148 22.619C213.398 23.698 214.373 25.5863 215.498 24.777C216.023 24.3274 216.173 24.2375 216.623 23.698C217.073 22.9787 216.998 21.7198 216.098 21.4501C214.748 21.0904 213.773 21.0904 212.423 21.6299C211.073 22.1694 211.598 24.777 213.023 24.2375C213.848 24.1476 214.673 24.1476 215.498 24.0577C215.348 23.3383 215.198 22.5291 214.973 21.8098C214.748 22.0795 214.523 22.2593 214.373 22.5291C214.823 23.2484 215.273 23.9678 215.723 24.6871C217.373 22.3493 216.923 20.7308 216.773 17.5837C216.623 13.3576 216.548 9.04158 216.548 4.8155C216.548 2.83733 214.298 2.83734 214.298 4.63567Z" fill="#E8E8E8"/>
<path d="M103.373 82.9527C134.198 80.8846 165.098 80.0754 195.998 80.525C197.423 80.525 197.423 77.8275 195.998 77.8275C165.098 77.3779 134.198 78.1871 103.373 80.2552C101.948 80.3451 101.948 83.0426 103.373 82.9527Z" fill="#E8E8E8"/>
<path d="M107.347 107.59C129.472 104.802 151.672 103.364 173.872 103.364C175.297 103.364 175.297 100.666 173.872 100.666C151.672 100.666 129.472 102.015 107.347 104.892C105.922 105.072 105.847 107.769 107.347 107.59Z" fill="#E8E8E8"/>
<path d="M109.373 153.538C138.923 149.852 168.548 147.784 198.248 147.514C199.673 147.514 199.673 144.816 198.248 144.816C168.548 145.086 138.923 147.154 109.373 150.841C107.948 151.021 107.948 153.718 109.373 153.538Z" fill="#E8E8E8"/>
<path d="M230.724 276.545C216.174 269.801 207.549 250.469 208.974 232.126C210.474 213.513 222.024 197.598 235.899 190.135C245.424 185.01 255.924 183.931 265.299 189.955C272.649 194.631 278.949 201.824 283.374 210.276C292.599 227.9 291.924 249.21 282.174 266.474C276.324 276.815 265.299 279.782 255.624 281.58C246.024 283.379 235.899 282.749 227.799 275.646C226.599 274.657 225.474 276.994 226.674 277.984C234.174 284.547 243.399 285.896 252.399 284.817C261.324 283.738 271.899 281.4 279.099 274.567C286.224 267.823 290.499 255.055 291.999 244.624C293.424 234.644 291.849 224.573 288.324 215.401C280.449 194.99 262.299 178.626 243.024 184.29C226.374 189.146 211.674 205.241 207.624 225.472C203.274 246.962 212.649 270.97 230.049 279.062C231.474 279.782 232.074 277.174 230.724 276.545Z" fill="#E8E8E8"/>
<path d="M246.549 184.738C247.449 201.373 248.349 218.008 249.324 234.642C249.399 236.351 251.649 236.351 251.574 234.642C250.674 218.008 249.774 201.373 248.799 184.738C248.724 183.03 246.474 183.03 246.549 184.738Z" fill="#E8E8E8"/>
<path d="M251.424 236.26C262.824 228.797 274.074 220.975 285.174 212.702C286.374 211.803 285.249 209.465 284.049 210.364C273.024 218.637 261.774 226.459 250.299 233.923C249.024 234.822 250.149 237.16 251.424 236.26Z" fill="#E8E8E8"/>
<path d="M251.873 236.711C264.773 236.711 277.523 240.398 290.198 243.005C291.623 243.275 292.223 240.668 290.798 240.398C277.973 237.79 264.998 234.014 251.873 234.014C250.448 234.014 250.448 236.711 251.873 236.711Z" fill="#E8E8E8"/>
<path d="M249.922 234.913C242.722 249.209 235.522 263.416 228.247 277.713C227.497 279.242 229.447 280.59 230.197 279.062C237.397 264.765 244.597 250.558 251.872 236.261C252.622 234.823 250.672 233.384 249.922 234.913Z" fill="#E8E8E8"/>
<path d="M122.198 362.324C154.823 359.357 187.373 355.94 219.848 351.894C221.273 351.714 221.273 349.016 219.848 349.196C187.298 353.152 154.748 356.659 122.198 359.626C120.773 359.806 120.773 362.504 122.198 362.324Z" fill="#E8E8E8"/>
<path d="M133.3 296.057C134.5 316.738 135.775 337.508 136.975 358.189C137.05 359.898 139.3 359.898 139.225 358.189C138.025 337.508 136.75 316.738 135.55 296.057C135.4 294.348 133.15 294.348 133.3 296.057Z" fill="#E8E8E8"/>
<path d="M135.472 296.325C139.747 295.426 144.022 295.156 148.372 295.426C147.997 294.976 147.622 294.527 147.247 294.077C148.372 315.117 150.022 336.068 152.047 356.929C152.197 358.637 154.447 358.637 154.297 356.929C152.197 336.068 150.622 315.028 149.497 294.077C149.422 293.358 149.047 292.728 148.372 292.728C143.797 292.458 139.372 292.818 134.872 293.717C133.447 294.077 134.122 296.685 135.472 296.325Z" fill="#E8E8E8"/>
<path d="M159.098 317.366C160.823 329.865 161.873 342.543 162.248 355.221C162.323 356.929 164.573 356.929 164.498 355.221C164.123 342.273 163.073 329.415 161.273 316.647C161.048 314.938 158.873 315.658 159.098 317.366Z" fill="#E8E8E8"/>
<path d="M161.799 318.715C166.149 318.715 170.424 318.445 174.699 317.726C174.324 317.276 173.949 316.827 173.574 316.377C174.624 328.876 175.749 341.284 176.799 353.782C176.949 355.491 179.199 355.491 179.049 353.782C177.999 341.284 176.874 328.876 175.824 316.377C175.749 315.748 175.374 314.938 174.699 315.028C170.424 315.658 166.074 316.017 161.799 316.017C160.374 316.017 160.374 318.715 161.799 318.715Z" fill="#E8E8E8"/>
<path d="M185.8 295.875C187.6 315.297 188.725 334.719 189.175 354.321C189.25 356.029 191.5 356.029 191.425 354.321C190.9 334.809 189.775 315.297 188.05 295.875C187.9 294.167 185.65 294.167 185.8 295.875Z" fill="#E8E8E8"/>
<path d="M186.922 296.955C189.322 297.135 191.797 297.225 194.197 297.405C197.572 297.585 197.647 297.675 197.722 301.721C197.947 307.566 198.172 313.32 198.472 319.165C199.147 330.314 200.197 341.374 201.922 352.344C202.222 354.052 204.322 353.333 204.097 351.625C201.922 337.778 200.872 323.661 200.272 309.544C200.122 306.307 200.047 303.16 199.897 299.923C199.822 298.664 199.972 296.776 199.147 295.697C198.247 294.618 196.672 294.797 195.547 294.707C192.622 294.528 189.772 294.348 186.847 294.168C185.497 294.168 185.497 296.865 186.922 296.955Z" fill="#E8E8E8"/>
<path d="M216.098 381.476C245.048 379.049 273.923 374.643 302.423 368.259C303.848 367.899 303.248 365.381 301.823 365.651C273.473 372.035 244.823 376.351 216.098 378.779C214.598 378.869 214.598 381.566 216.098 381.476Z" fill="#E8E8E8"/>
<path d="M260.198 364.302C272.498 362.773 284.873 361.244 297.173 359.716C298.598 359.536 298.598 356.839 297.173 357.018C284.873 358.547 272.498 360.076 260.198 361.604C258.773 361.784 258.773 364.481 260.198 364.302Z" fill="#E8E8E8"/>
<path d="M281.199 346.32C286.824 346.05 292.524 345.78 298.149 345.51C299.574 345.42 299.574 342.723 298.149 342.813C292.524 343.082 286.824 343.352 281.199 343.622C279.699 343.712 279.699 346.409 281.199 346.32Z" fill="#E8E8E8"/>
<path d="M221.8 43.9285C223.225 48.8739 223.825 53.9093 223.6 59.1244C223.525 60.8329 225.775 60.8329 225.85 59.1244C226.075 53.6395 225.475 48.4244 223.975 43.2092C223.45 41.5907 221.275 42.31 221.8 43.9285Z" fill="#E8E8E8"/>
<path d="M223.674 44.1998C244.299 41.6821 264.924 40.0636 285.624 39.2544C287.049 39.1645 287.049 36.467 285.624 36.5569C264.924 37.3661 244.224 38.9846 223.674 41.5023C222.249 41.6821 222.249 44.3796 223.674 44.1998Z" fill="#E8E8E8"/>
<path d="M225.85 60.5634C246.4 58.7651 266.875 56.9668 287.425 55.1684C288.85 55.0785 288.85 52.381 287.425 52.4709C266.875 54.2693 246.4 56.0676 225.85 57.8659C224.425 57.9559 224.425 60.6534 225.85 60.5634Z" fill="#E8E8E8"/>
<path d="M285.923 39.704C286.598 45.2788 287.273 50.7638 287.948 56.3386C288.173 58.047 290.348 57.3277 290.123 55.6193C289.448 50.0444 288.773 44.5595 288.098 38.9847C287.873 37.2763 285.698 37.9956 285.923 39.704Z" fill="#E8E8E8"/>
<path d="M648.625 112.895C648.7 116.311 648.85 119.638 649.225 123.055C649.45 124.764 651.7 124.764 651.475 123.055C651.1 119.728 650.875 116.311 650.875 112.895C650.875 111.186 648.625 111.186 648.625 112.895Z" fill="#E8E8E8"/>
<path d="M650.272 114.244H795.847C797.272 114.244 797.272 111.547 795.847 111.547C747.322 111.547 698.797 111.547 650.272 111.547C648.847 111.547 648.847 114.244 650.272 114.244Z" fill="#E8E8E8"/>
<path d="M794.5 113.974V119.908C794.5 121.617 796.75 121.617 796.75 119.908C796.75 117.93 796.75 115.952 796.75 113.974C796.75 112.175 794.5 112.175 794.5 113.974Z" fill="#E8E8E8"/>
<path d="M651.625 124.045H795.325C796.75 124.045 796.75 121.348 795.325 121.348C747.4 121.348 699.475 121.348 651.625 121.348C650.125 121.348 650.125 124.045 651.625 124.045Z" fill="#E8E8E8"/>
<path d="M651.4 81.8739C653.275 92.0345 654.85 102.285 656.125 112.536C656.35 114.244 658.525 113.525 658.3 111.816C656.95 101.566 655.375 91.3152 653.575 81.1546C653.2 79.4462 651.1 80.1655 651.4 81.8739Z" fill="#E8E8E8"/>
<path d="M652.748 81.6938C662.573 82.0535 672.848 83.4922 682.673 82.0535C684.098 81.8737 684.098 79.1762 682.673 79.356C672.848 80.7947 662.573 79.356 652.748 78.9963C651.323 78.9064 651.323 81.6039 652.748 81.6938Z" fill="#E8E8E8"/>
<path d="M681.547 82.5938C680.497 92.3048 679.522 102.016 678.472 111.817C678.322 113.525 680.572 113.525 680.722 111.817C681.772 102.106 682.747 92.3947 683.797 82.5938C683.947 80.8854 681.697 80.8854 681.547 82.5938Z" fill="#E8E8E8"/>
<path d="M663.923 78.728C662.423 77.9187 660.623 77.1095 659.498 75.6708C657.548 73.333 657.698 70.1859 657.398 67.1287C656.948 63.0825 655.073 59.4858 654.848 55.3496C654.248 55.7093 653.723 56.1589 653.123 56.5185C660.098 61.9135 666.248 69.5565 666.023 80.1667C665.948 81.8751 668.198 81.8751 668.273 80.1667C668.573 68.5674 661.898 60.1152 654.248 54.1807C653.573 53.6412 652.523 54.3606 652.523 55.3496C652.673 57.7774 653.273 59.9354 653.948 62.2732C654.923 65.5102 654.923 68.6573 655.448 71.9842C656.273 76.9296 659.123 79.0877 662.723 81.0658C664.073 81.6952 665.198 79.4473 663.923 78.728Z" fill="#E8E8E8"/>
<path d="M666.099 67.2174C665.274 60.3838 669.024 53.8198 671.124 47.7954C672.774 43.0298 673.974 38.1743 673.749 32.9592C672.999 33.0491 672.249 33.2289 671.574 33.3189C674.349 48.8744 677.799 63.6208 671.874 78.9066C671.274 80.4352 673.224 81.8738 673.824 80.2553C676.524 73.2418 677.949 65.6889 677.649 57.956C677.274 49.4139 675.249 40.9618 673.749 32.5995C673.524 31.0709 671.499 31.4306 671.574 32.9592C672.024 45.4576 662.424 55.5283 663.999 67.9368C664.149 69.6452 666.324 68.9259 666.099 67.2174Z" fill="#E8E8E8"/>
<path d="M702.773 15.1554C703.673 47.8851 703.973 80.5248 703.448 113.254C703.448 114.963 705.698 114.963 705.698 113.254C706.148 80.5248 705.923 47.7951 705.023 15.1554C705.023 13.3571 702.773 13.3571 702.773 15.1554Z" fill="#E8E8E8"/>
<path d="M704.497 15.6049C707.722 12.3679 713.197 13.8066 716.797 15.1553C718.147 15.6948 718.747 13.0873 717.397 12.5478C712.822 10.8394 706.822 9.76035 702.922 13.7167C701.797 14.7957 703.372 16.6839 704.497 15.6049Z" fill="#E8E8E8"/>
<path d="M715.898 15.1554C716.048 47.4355 716.199 79.6256 716.349 111.906C716.349 113.614 718.599 113.614 718.599 111.906C718.449 79.6256 718.298 47.4355 718.148 15.1554C718.148 13.3571 715.898 13.3571 715.898 15.1554Z" fill="#E8E8E8"/>
<path d="M706.15 36.9164C709.15 33.9491 713.575 34.2189 716.35 37.366C717.4 38.5349 718.975 36.6466 717.925 35.4777C714.175 31.2516 708.475 31.1617 704.575 35.0281C703.45 36.1071 705.025 37.9954 706.15 36.9164Z" fill="#E8E8E8"/>
<path d="M705.174 26.5749C708.474 23.158 713.199 23.0681 716.649 26.2152C717.849 27.2942 718.899 24.8664 717.774 23.8774C713.424 20.0109 707.574 20.5504 703.524 24.6866C702.474 25.8555 704.124 27.7438 705.174 26.5749Z" fill="#E8E8E8"/>
<path d="M718.223 38.2641C721.598 38.2641 724.898 38.7137 728.198 39.7027C727.898 39.2532 727.673 38.8036 727.373 38.4439C727.823 62.7214 727.598 86.909 726.548 111.187C726.473 112.895 728.723 112.895 728.798 111.187C729.848 86.9989 730.073 62.7214 729.623 38.4439C729.623 37.9044 729.248 37.275 728.798 37.1851C725.273 36.1061 721.823 35.6565 718.223 35.6565C716.723 35.5666 716.723 38.2641 718.223 38.2641Z" fill="#E8E8E8"/>
<path d="M718.747 63.8018C721.747 61.4639 725.347 61.374 728.422 63.532C729.697 64.4312 730.822 62.0934 729.547 61.1942C725.797 58.4967 721.222 58.5866 717.622 61.4639C716.422 62.3631 717.547 64.7009 718.747 63.8018Z" fill="#E8E8E8"/>
<path d="M718.373 50.9429C720.998 49.4143 723.998 49.3244 726.698 50.6731C728.048 51.3025 729.173 49.0546 727.823 48.3353C724.298 46.537 720.698 46.6269 717.248 48.6051C715.973 49.4143 717.098 51.7521 718.373 50.9429Z" fill="#E8E8E8"/>
<path d="M734.575 111.456C734.575 109.928 733.75 104.353 734.5 103.274C735.55 101.745 741.325 102.285 742.825 102.195C748 101.835 753.25 101.566 758.425 101.476C768.85 101.296 779.275 101.745 789.625 102.735C789.25 102.285 788.875 101.835 788.5 101.386C788.95 105.432 789.175 109.478 789.1 113.614C789.1 115.323 791.35 115.323 791.35 113.614C791.35 109.478 791.2 105.432 790.75 101.386C790.675 100.577 790.3 100.127 789.625 100.037C776.8 98.8681 763.825 98.5085 751 99.048C748 99.1379 745.075 99.3177 742.075 99.5875C739.9 99.7673 735.85 99.2278 733.825 100.397C730.9 102.015 732.25 108.579 732.325 111.546C732.325 113.165 734.575 113.255 734.575 111.456Z" fill="#E8E8E8"/>
<path d="M742.297 99.1378C742.147 98.1487 741.397 95.1815 741.547 94.1924C742.072 91.4949 744.247 92.1243 745.897 92.1243C748.597 92.0344 751.372 92.0344 754.072 91.9445C759.772 91.8545 765.472 91.6747 771.247 91.5848C776.722 91.4949 782.197 91.3151 787.672 91.2251C790.672 91.1352 793.672 91.1352 796.597 91.0453C798.697 91.0453 799.897 90.1461 800.572 93.3831C800.872 94.8218 800.647 96.7101 800.572 98.1487C800.497 99.8572 802.747 99.8572 802.822 98.1487C802.897 95.8109 803.497 91.2251 801.922 89.247C800.497 87.5385 797.572 88.3478 795.847 88.4377C787.372 88.6176 778.972 88.7974 770.497 88.9772C762.322 89.1571 754.072 89.3369 745.897 89.5167C744.247 89.5167 740.722 88.7075 739.522 90.5058C738.097 92.5739 739.822 97.6992 740.122 99.9471C740.422 101.566 742.597 100.846 742.297 99.1378Z" fill="#E8E8E8"/>
<path d="M789.174 102.645C792.549 102.735 795.999 102.825 799.374 102.555C801.024 102.376 802.674 101.656 802.524 99.3184C802.374 97.61 800.124 97.61 800.274 99.3184C800.349 100.308 790.149 100.038 789.174 99.9478C787.749 99.8579 787.749 102.555 789.174 102.645Z" fill="#E8E8E8"/>
<path d="M748.9 90.0559C748.825 88.5273 748.45 86.4592 748.6 84.9306C748.75 83.1323 748.375 82.8625 750.1 82.5928C752.5 82.2331 755.575 83.2222 757.975 83.402C763 83.8516 768.1 84.1214 773.125 84.2113C778.15 84.3012 783.25 84.3012 788.275 84.0315C790.525 83.9415 793.225 83.2222 795.475 83.5819C796.525 83.0424 797.35 83.402 797.875 84.571C798.7 85.0205 799 85.8298 798.925 86.8189C799.15 87.5382 799.225 88.4374 799.45 89.2466C799.975 90.8651 802.15 90.1458 801.625 88.5273C800.95 86.5491 801.4 83.5819 800.05 81.8735C798.85 80.3449 797.125 80.7045 795.475 80.7945C788.05 81.244 780.55 81.5138 773.125 81.4239C765.925 81.244 758.725 80.7945 751.525 79.9852C750.025 79.8054 747.7 79.086 746.65 80.8844C745.45 83.0424 746.5 87.6281 746.65 89.966C746.8 91.7643 749.05 91.7643 748.9 90.0559Z" fill="#E8E8E8"/>
<path d="M806.422 179.074V219.087C806.422 220.796 808.672 220.796 808.672 219.087C808.672 205.78 808.672 192.382 808.672 179.074C808.672 177.366 806.422 177.366 806.422 179.074Z" fill="#E8E8E8"/>
<path d="M808.299 179.074H866.799C868.224 179.074 868.224 176.377 866.799 176.377C847.299 176.377 827.799 176.377 808.299 176.377C806.874 176.377 806.874 179.074 808.299 179.074Z" fill="#E8E8E8"/>
<path d="M865.75 178.176V218.189C865.75 219.897 868 219.897 868 218.189C868 204.881 868 191.484 868 178.176C868 176.467 865.75 176.467 865.75 178.176Z" fill="#E8E8E8"/>
<path d="M807.549 221.334H866.049C867.474 221.334 867.474 218.637 866.049 218.637C846.549 218.637 827.049 218.637 807.549 218.637C806.124 218.637 806.124 221.334 807.549 221.334Z" fill="#E8E8E8"/>
<path d="M833.048 176.376C833.048 174.038 833.198 171.88 833.723 169.632C833.948 168.643 834.248 167.115 834.773 166.395C834.998 165.496 835.523 165.226 836.423 165.586C837.623 164.957 838.223 165.406 838.298 167.025C839.198 170.801 839.348 175.117 839.798 179.074C840.023 180.782 842.198 180.063 841.973 178.354C841.523 174.398 841.373 170.172 840.473 166.305C840.023 164.147 838.673 161.899 836.648 161.72C831.623 161.36 830.723 172.33 830.723 176.376C830.873 178.084 833.123 178.084 833.048 176.376Z" fill="#E8E8E8"/>
<path d="M810.098 184.918V214.591C810.098 216.299 812.348 216.299 812.348 214.591C812.348 204.7 812.348 194.809 812.348 184.918C812.348 183.21 810.098 183.21 810.098 184.918Z" fill="#E8E8E8"/>
<path d="M812.424 184.918H863.424C864.849 184.918 864.849 182.221 863.424 182.221C846.399 182.221 829.374 182.221 812.424 182.221C810.999 182.221 810.999 184.918 812.424 184.918Z" fill="#E8E8E8"/>
<path d="M862 184.02V215.49C862 217.199 864.25 217.199 864.25 215.49C864.25 204.97 864.25 194.54 864.25 184.02C864.25 182.311 862 182.311 862 184.02Z" fill="#E8E8E8"/>
<path d="M811.674 215.94H860.424C861.849 215.94 861.849 213.242 860.424 213.242C844.149 213.242 827.874 213.242 811.674 213.242C810.249 213.242 810.249 215.94 811.674 215.94Z" fill="#E8E8E8"/>
<path d="M813.775 203.982C815.425 201.105 816.925 200.475 818.2 201.914C818.425 202.094 818.575 202.273 818.8 202.453C819.325 202.723 819.7 203.173 820.225 203.352C821.125 203.712 822.175 203.622 823.075 203.173C823.75 202.813 824.35 202.184 824.575 201.284C824.95 199.846 824.05 199.576 823.975 198.317C823.6 197.778 823.75 197.238 824.425 196.519C824.575 194.451 825.625 194.001 827.425 195.26C827.875 195.26 828.325 195.44 828.7 195.35C830.05 195.08 830.2 194.541 831.175 193.552C834.325 190.494 837.85 192.023 838.675 196.878C838.75 197.508 839.125 201.644 838.525 202.094C837.925 201.194 837.325 200.385 836.725 199.486C838.675 199.846 840.1 201.105 840.925 203.083C841.375 203.982 842.35 203.892 842.875 203.083C844.375 201.194 845.875 201.105 847.375 202.903C847.9 202.273 848.425 201.644 848.95 201.015C848.35 200.385 847.825 199.756 847.225 199.126C845.275 197.148 845.425 194.9 847.75 192.293C850.9 192.473 852.55 196.159 851.2 199.486C849.475 203.532 845.35 204.072 841.975 203.712V206.41C846.85 206.769 851.8 207.129 856.675 207.489C858.1 207.579 858.1 204.881 856.675 204.791C851.8 204.431 846.85 204.072 841.975 203.712C840.55 203.622 840.55 206.23 841.975 206.41C845.875 206.859 850.15 205.96 852.625 201.824C854.575 198.497 854.425 193.462 851.575 190.854C849.4 188.876 846.1 189.236 844.3 191.843C841.6 195.889 844.75 200.295 847.3 202.993C848.35 204.162 849.925 202.363 848.875 201.105C846.475 198.047 842.8 198.587 840.85 201.824H842.8C840.925 198.137 837.4 195.44 833.875 197.688C831.175 199.486 830.2 204.162 832.675 206.859C835.225 209.647 838.9 207.489 840.25 204.342C841.75 200.745 841.45 195.08 839.275 191.843C837.1 188.606 833.275 188.246 830.575 190.674C828.7 192.383 829.825 192.652 826.675 192.383C825.625 192.293 824.725 192.023 823.675 192.383C822.55 192.742 821.5 193.552 820.975 194.9C820.6 195.889 820.45 196.789 820.825 197.868C820.9 198.227 821.725 199.036 821.65 199.306C821.35 201.284 817 197.688 816.25 197.508C812.875 196.878 810.625 201.194 811.6 204.701C812.05 206.32 814.225 205.69 813.775 203.982Z" fill="#E8E8E8"/>
<path d="M878.047 128.002V158.933C878.047 160.642 880.297 160.642 880.297 158.933C880.297 148.593 880.297 138.342 880.297 128.002C880.297 126.294 878.047 126.294 878.047 128.002Z" fill="#E8E8E8"/>
<path d="M880.449 127.822H921.849C923.274 127.822 923.274 125.125 921.849 125.125C908.049 125.125 894.249 125.125 880.449 125.125C878.949 125.125 878.949 127.822 880.449 127.822Z" fill="#E8E8E8"/>
<path d="M879.772 161.09H921.172C922.597 161.09 922.597 158.393 921.172 158.393C907.372 158.393 893.572 158.393 879.772 158.393C878.347 158.393 878.347 161.09 879.772 161.09Z" fill="#E8E8E8"/>
<path d="M920.723 127.642V159.382C920.723 161.091 922.973 161.091 922.973 159.382C922.973 148.772 922.973 138.252 922.973 127.642C922.973 125.843 920.723 125.843 920.723 127.642Z" fill="#E8E8E8"/>
<path d="M880.598 129.171V158.574C880.598 160.282 882.848 160.282 882.848 158.574C882.848 148.773 882.848 138.972 882.848 129.171C882.848 127.373 880.598 127.373 880.598 129.171Z" fill="#E8E8E8"/>
<path d="M881.422 158.752H920.947C922.372 158.752 922.372 156.055 920.947 156.055C907.747 156.055 894.622 156.055 881.422 156.055C879.922 156.055 879.922 158.752 881.422 158.752Z" fill="#E8E8E8"/>
<path d="M882.022 129.709H920.272C921.697 129.709 921.697 127.012 920.272 127.012C907.522 127.012 894.772 127.012 882.022 127.012C880.597 127.012 880.597 129.709 882.022 129.709Z" fill="#E8E8E8"/>
<path d="M919.75 128.721V156.955C919.75 158.663 922 158.663 922 156.955C922 147.513 922 138.072 922 128.721C922 127.012 919.75 127.012 919.75 128.721Z" fill="#E8E8E8"/>
<path d="M889.297 151.649C895.522 148.053 902.572 146.344 908.872 150.75C910.147 151.649 911.272 149.312 909.997 148.412C903.022 143.467 895.147 145.265 888.172 149.312C886.822 150.031 888.022 152.369 889.297 151.649Z" fill="#E8E8E8"/>
<path d="M889.297 147.872C887.947 145.894 891.397 145.265 891.847 144.186C892.222 143.376 891.697 140.859 891.922 140.949C892.597 141.128 893.347 140.589 893.347 139.69C893.272 135.464 897.097 142.207 896.947 141.938C897.397 142.567 897.847 143.197 898.597 143.556C899.647 144.096 901.897 142.657 902.497 143.197C903.172 143.916 904.072 143.556 904.372 142.567C904.972 142.297 905.572 142.028 906.247 141.848C906.172 143.017 907.522 143.646 908.197 142.837C910.222 144.725 910.522 146.254 909.022 147.333C907.897 148.502 909.547 150.39 910.597 149.221C912.547 147.243 913.897 143.826 912.097 141.039C910.597 138.701 908.122 138.881 906.547 140.949C907.222 141.308 907.822 141.578 908.497 141.938C908.647 139.96 907.672 138.341 905.872 138.161C903.922 137.981 902.797 139.96 902.197 141.938C902.797 141.758 903.472 141.578 904.072 141.308C902.797 140.049 902.572 140.589 901.147 140.499C897.322 140.319 898.447 137.442 895.972 135.733C893.497 134.025 891.097 136.633 891.097 139.69C891.547 139.24 892.072 138.791 892.522 138.431C891.397 138.161 890.047 138.071 889.297 139.24C888.472 140.499 889.747 141.488 889.447 142.387C888.997 143.826 886.822 143.376 886.297 145.265C885.772 147.063 886.822 148.681 887.722 149.94C888.622 151.199 890.197 149.221 889.297 147.872Z" fill="#E8E8E8"/>
<path d="M898.297 124.225C897.847 123.056 897.622 121.887 897.847 120.628C897.922 119.819 898.522 117.212 899.572 117.571C900.322 117.841 901.072 120.179 901.222 120.988C901.597 122.427 901.672 123.776 901.522 125.304C901.372 127.013 903.622 127.013 903.772 125.304C903.997 122.876 903.697 120.539 902.722 118.381C901.972 116.582 900.547 114.154 898.597 114.874C897.097 115.413 896.122 117.661 895.747 119.37C895.297 121.528 895.522 123.686 896.347 125.664C897.022 127.192 898.897 125.844 898.297 124.225Z" fill="#E8E8E8"/>
<path d="M881.348 174.308V215.579C881.348 217.288 883.598 217.288 883.598 215.579C883.598 201.822 883.598 188.065 883.598 174.308C883.598 172.509 881.348 172.509 881.348 174.308Z" fill="#E8E8E8"/>
<path d="M882.473 173.319H917.348C918.773 173.319 918.773 170.621 917.348 170.621C905.723 170.621 894.098 170.621 882.473 170.621C880.973 170.621 880.973 173.319 882.473 173.319Z" fill="#E8E8E8"/>
<path d="M916.223 171.971V215.49C916.223 217.199 918.473 217.199 918.473 215.49C918.473 201.014 918.473 186.447 918.473 171.971C918.473 170.262 916.223 170.262 916.223 171.971Z" fill="#E8E8E8"/>
<path d="M883.373 218.637H916.373C917.798 218.637 917.798 215.939 916.373 215.939C905.348 215.939 894.398 215.939 883.373 215.939C881.948 215.939 881.948 218.637 883.373 218.637Z" fill="#E8E8E8"/>
<path d="M893.649 188.066C893.124 193.282 895.899 198.946 900.549 199.576C905.424 200.205 909.024 195.709 908.874 190.045C908.799 188.336 906.549 188.336 906.624 190.045C906.774 194.271 904.074 197.688 900.399 196.788C897.024 195.979 895.599 191.843 895.899 188.066C896.049 186.358 893.799 186.358 893.649 188.066Z" fill="#E8E8E8"/>
<path d="M901.225 198.945C901.075 200.204 901.75 201.193 901.45 202.362C901 204.161 899.05 205.869 898.075 207.218C896.425 209.556 895.225 211.893 895.15 215.04C895.075 216.749 897.325 216.749 897.4 215.04C897.55 210.904 900.475 208.477 902.425 205.419C903.025 204.52 903.625 203.531 903.85 202.452C904.075 201.193 903.325 200.204 903.475 198.945C903.625 197.237 901.375 197.237 901.225 198.945Z" fill="#E8E8E8"/>
<path d="M896.049 198.855C893.424 198.676 888.474 196.697 889.674 192.292C890.274 189.954 892.749 189.864 893.799 188.245C895.224 186.177 894.024 185.008 892.899 183.48C891.849 182.041 889.674 181.502 892.599 178.354C894.249 176.556 896.949 178.804 898.299 180.153C899.124 181.052 899.274 182.041 900.399 182.67C901.149 183.12 902.124 183.3 902.949 182.94C904.299 182.221 905.799 177.455 907.224 183.39C907.374 184.109 908.049 184.559 908.574 184.289C908.649 186.177 908.724 187.976 908.724 189.864C907.824 191.213 909.399 193.101 910.299 191.752C911.724 189.594 913.374 186.897 912.324 184.019C911.499 181.861 909.699 181.052 907.899 181.681C908.349 181.951 908.799 182.311 909.249 182.581C908.649 180.153 907.674 177.635 905.349 177.455C904.599 177.365 903.924 177.545 903.324 177.995C903.474 177.905 902.424 179.344 902.424 179.344C900.849 180.333 900.399 178.624 899.499 177.545C897.924 175.477 896.649 174.308 894.099 174.758C892.149 175.117 889.374 176.736 888.699 179.164C887.874 182.041 889.899 182.85 890.799 185.008C891.774 185.458 891.774 185.997 890.724 186.627C890.499 187.166 890.199 187.436 889.824 187.616C889.524 187.886 889.074 188.065 888.774 188.425C888.174 189.234 887.724 190.044 887.424 191.033C885.699 197.597 891.324 201.103 895.824 201.463C897.474 201.643 897.474 198.945 896.049 198.855Z" fill="#E8E8E8"/>
<path d="M896.873 171.701C896.798 170.353 896.423 167.925 897.773 167.116C899.198 166.306 898.973 168.914 898.823 169.813C898.523 171.521 900.698 172.241 900.998 170.532C901.223 169.094 901.373 167.475 900.773 166.126C900.173 164.868 899.048 164.148 897.923 164.328C894.848 164.778 894.473 168.734 894.698 171.701C894.698 173.41 896.948 173.41 896.873 171.701Z" fill="#E8E8E8"/>
<path d="M884.125 174.038V213.691C884.125 215.4 886.375 215.4 886.375 213.691C886.375 200.474 886.375 187.256 886.375 174.038C886.375 172.24 884.125 172.24 884.125 174.038Z" fill="#E8E8E8"/>
<path d="M885.475 215.67H915.4C916.825 215.67 916.825 212.973 915.4 212.973C905.425 212.973 895.45 212.973 885.475 212.973C884.05 212.973 884.05 215.67 885.475 215.67Z" fill="#E8E8E8"/>
<path d="M916.223 214.68C916.223 200.833 916.223 186.896 916.223 173.049C916.223 171.34 913.973 171.34 913.973 173.049V214.68C913.973 216.389 916.223 216.389 916.223 214.68Z" fill="#E8E8E8"/>
<path d="M885.998 174.399H915.623C917.048 174.399 917.048 171.701 915.623 171.701C905.723 171.701 895.898 171.701 885.998 171.701C884.573 171.701 884.573 174.399 885.998 174.399Z" fill="#E8E8E8"/>
<path d="M466.898 660.307C461.873 655.452 455.048 654.463 449.498 657.79C442.973 661.746 439.448 671.007 441.098 680.269C442.448 692.587 443.798 704.996 445.148 717.315C417.773 732.331 404.723 742.132 405.848 746.627C407.198 752.112 429.398 749.775 472.523 739.794C470.648 713.268 468.773 686.833 466.898 660.307Z" fill="#191919"/>
<path d="M448.599 368.437C447.549 386.511 445.824 415.824 442.899 452.15C439.299 497.738 437.799 543.685 432.699 589.093C427.449 636.209 421.674 668.489 434.949 679.729C439.749 683.775 445.524 683.775 449.649 683.146C453.999 681.797 458.349 680.358 462.699 679.01C466.974 681.527 472.749 683.955 477.399 681.078C491.049 672.715 478.149 629.825 479.124 568.322C479.799 527.77 486.324 487.307 495.024 434.167C501.624 393.614 506.649 372.574 497.274 362.233C485.874 349.555 460.599 361.694 448.599 368.437Z" fill="white" stroke="#202020" stroke-width="2" stroke-miterlimit="10"/>
<path opacity="0.14" d="M470.123 359.985C472.973 375.9 476.198 399.998 475.973 429.311C475.598 476.607 466.373 506.459 459.698 541.976C453.623 574.166 447.773 621.103 450.398 681.617C454.373 680.718 458.423 679.729 462.398 678.829C463.298 679.639 466.973 682.606 472.073 682.066C472.823 681.976 477.773 681.347 480.998 676.941C484.973 671.546 484.148 663.544 483.698 659.677C481.973 642.863 481.598 625.868 480.173 608.964C478.673 591.161 478.898 577.313 478.973 568.951C479.048 562.657 479.423 550.878 481.298 531.726C484.598 498.367 487.598 492.702 494.123 444.237C499.073 407.731 496.898 414.384 498.773 406.112C500.498 398.739 503.423 388.039 501.848 374.461C501.098 368.077 499.748 364.481 497.573 361.873C493.073 356.568 486.398 356.658 482.423 356.748C477.098 356.838 472.748 358.636 470.123 359.985Z" fill="#6D6C6C"/>
<path opacity="0.1" d="M491.5 451.701C485.875 466.627 479.95 486.229 476.35 509.877C470.05 551.599 476.275 572.819 470.95 617.418C469 633.872 465.325 654.553 458.125 677.931C460.825 678.381 463.525 678.831 466.3 679.37C470.35 681.079 475.45 682.337 479.125 679.37C485.725 674.065 483.475 658.509 481.825 640.256C481.825 640.256 479.8 617.777 479.5 575.067C479.35 551.419 481.15 533.975 483.775 508.528C486.1 485.69 488.95 466.358 491.5 451.701Z" fill="#6D6C6C"/>
<path d="M561.551 653.473C556.526 648.618 549.701 647.629 544.151 650.956C537.626 654.912 534.101 664.174 535.751 673.435C537.101 685.754 538.451 698.162 539.801 710.481C512.426 725.497 499.376 735.298 500.501 739.793C501.851 745.278 524.051 742.941 567.176 732.96C565.226 706.434 563.351 679.999 561.551 653.473Z" fill="#191919"/>
<path d="M533.575 365.65C537.925 408.36 542.575 452.419 547.525 498.187C550.9 529.658 551.725 537.121 554.35 549.349C558.85 570.57 564.925 588.643 570.175 621.463C572.65 636.748 573.925 649.157 568 658.508C563.575 665.522 554.95 671.097 553 668.939C552.175 667.95 552.7 665.432 553.45 663.184C551.65 665.252 540.25 678.11 531.175 673.614C525.85 671.007 523.675 663.544 522.625 659.497C511.975 620.384 510.25 581.18 510.25 581.18C509.575 566.074 507.925 550.608 504.7 519.587C502.3 496.838 497.8 463.929 488.125 423.916C486.7 422.837 472.75 411.687 471.85 391.096C471.775 389.568 471.25 374.012 479.425 363.492C490.225 349.555 513.325 348.566 533.575 365.65Z" fill="white" stroke="#202020" stroke-width="2" stroke-miterlimit="10"/>
<path d="M473.051 376.44C470.351 385.791 469.601 396.311 473.876 405.213C477.551 412.856 483.476 421.218 490.676 423.916C492.026 424.455 492.626 421.848 491.276 421.308C484.676 418.88 479.126 410.878 475.826 403.864C471.851 395.592 472.751 385.881 475.226 377.159C475.751 375.54 473.576 374.821 473.051 376.44Z" fill="white"/>
<path d="M470.799 393.164C471.474 407.191 478.974 418.88 490.374 422.747C491.799 423.196 492.399 420.589 490.974 420.139C480.624 416.632 473.724 406.022 473.049 393.164C472.974 391.456 470.724 391.456 470.799 393.164Z" fill="white"/>
<path opacity="0.14" d="M504.023 353.961C505.973 360.974 508.973 372.304 512.273 386.331C521.873 426.973 538.448 497.378 539.498 582.08C539.648 596.196 540.098 668.04 545.498 668.4C546.773 668.489 548.873 664.533 551.723 665.432C553.673 666.062 553.748 668.22 555.473 669.029C559.223 670.737 565.448 663.004 568.448 657.34C569.498 655.362 571.898 650.866 572.423 644.482C572.723 641.604 572.498 639.536 571.673 633.422C570.473 623.981 569.873 619.305 569.423 616.967C566.198 598.714 560.423 581.18 555.698 556.453C553.673 546.023 552.323 536.672 550.673 525.882C550.148 522.465 548.723 512.484 547.148 500.076C543.623 471.662 542.498 452.15 540.173 427.243C538.898 413.666 536.948 394.513 533.948 371.225C533.198 369.247 531.848 366.19 529.448 363.402C528.623 362.503 526.073 359.716 519.173 357.108C515.798 355.669 510.623 354.141 504.023 353.961Z" fill="#6D6C6C"/>
<path opacity="0.2" d="M552.774 543.055C556.899 566.073 559.674 585.765 561.549 601.231C564.549 626.407 564.699 635.579 560.799 645.29C554.949 659.946 542.799 668.668 543.549 669.837C543.849 670.287 545.799 669.388 552.549 664.172C552.774 666.33 553.299 668.758 554.799 669.567C558.624 671.546 567.099 661.655 570.774 652.214C575.799 639.176 572.124 625.778 568.749 612.92C564.549 596.645 558.924 573.447 552.774 543.055Z" fill="#6D6C6C"/>
<path d="M453.026 212.792C445.676 211.623 438.926 223.132 425.801 246.061C416.801 261.707 410.501 275.464 406.376 284.995C397.451 284.455 388.526 283.916 379.601 283.287C371.276 282.747 362.951 282.208 354.626 281.578C351.326 280.229 346.376 278.251 340.301 276.543C330.476 273.665 310.151 268.9 308.876 273.126C308.501 274.475 309.851 277.262 318.551 283.826C317.951 285.624 315.776 293.177 318.551 301.899C319.001 303.248 321.476 310.531 327.326 314.308C334.826 319.073 345.176 316.466 352.751 307.564C358.601 311.79 390.326 334 420.176 318.804C429.926 313.858 436.751 306.305 442.826 299.651C453.851 287.513 468.326 271.597 468.701 249.478C469.001 233.473 461.951 214.231 453.026 212.792Z" fill="white" stroke="#202020" stroke-width="2" stroke-miterlimit="10"/>
<path d="M308.277 274.206C311.202 277.713 314.051 281.489 317.351 284.456C320.576 287.334 324.252 288.952 328.002 290.481C329.052 290.93 329.501 288.952 328.451 288.503C324.476 286.884 320.651 285.086 317.351 281.849C314.501 279.061 312.026 275.824 309.476 272.767C308.726 271.868 307.527 273.307 308.277 274.206Z" fill="#202020"/>
<path d="M343.75 283.466C340.9 284.725 338.275 286.703 336.25 289.401C334.825 291.289 332.725 294.256 333.25 296.954C333.775 300.011 336.925 300.011 339.025 300.011C342.4 299.921 345.625 298.752 348.55 296.684C349.45 296.055 348.625 294.256 347.725 294.976C345.85 296.324 343.825 297.314 341.65 297.763C339.775 298.123 334.3 298.932 335.275 294.706C336.25 290.39 341.05 286.883 344.275 285.445C345.175 284.995 344.725 283.017 343.75 283.466Z" fill="#202020"/>
<path d="M317.575 285.445C316 291.469 316 297.314 321.4 300.191C325.375 302.349 331.15 301.27 333.175 296.145C333.625 294.976 332.2 293.987 331.75 295.156C330.1 299.382 325.375 300.101 322.075 298.303C317.5 295.875 317.95 290.93 319.225 285.985C319.525 284.726 317.95 284.186 317.575 285.445Z" fill="#202020"/>
<path d="M317.202 298.753C317.502 303.878 320.127 308.913 324.627 309.902C328.602 310.802 332.277 307.924 333.702 303.608C334.077 302.439 332.502 301.9 332.052 303.069C330.852 306.665 327.477 308.823 324.252 307.744C320.952 306.575 319.077 302.619 318.852 298.753C318.852 297.494 317.127 297.494 317.202 298.753Z" fill="#202020"/>
<path d="M333.401 304.596C339.251 303.338 337.301 315.836 333.026 315.386C331.976 315.296 331.976 317.275 333.026 317.454C336.626 317.814 338.576 312.509 338.801 308.912C339.026 304.956 336.176 302.079 332.951 302.798C331.901 302.888 332.351 304.776 333.401 304.596Z" fill="#202020"/>
<path d="M332.951 297.313C332.951 297.223 333.026 297.223 333.026 297.133C332.726 297.223 332.501 297.313 332.201 297.402C332.801 297.582 332.876 299.92 332.801 300.37C332.726 301.539 332.351 302.618 331.601 303.517C330.851 304.416 332.051 305.855 332.801 304.956C333.926 303.607 334.526 301.719 334.451 299.74C334.376 298.302 334.001 295.784 332.576 295.424C332.276 295.334 331.976 295.424 331.751 295.694C331.751 295.784 331.676 295.784 331.676 295.874C331.076 296.863 332.201 298.302 332.951 297.313Z" fill="#202020"/>
<path d="M328.901 290.661C330.701 290.751 331.826 292.819 331.376 294.887C331.076 296.146 332.726 296.685 333.026 295.426C333.776 292.099 331.901 288.772 328.976 288.683C327.776 288.593 327.776 290.661 328.901 290.661Z" fill="#202020"/>
<path opacity="0.12" d="M464.125 227.27C461.95 234.912 458.35 245.253 452.65 256.582C446.8 268.182 440.275 281.04 427.6 291.83C422.95 295.786 408.925 307.475 388.15 308.374C368.575 309.184 354.175 300.012 348.475 295.876C343.975 299.922 340.9 300.192 338.875 299.652C337.075 299.113 336.4 298.034 333.25 296.865C330.55 295.876 328.375 295.696 327.175 295.606C322.825 295.247 318.325 294.887 317.125 297.315C315.55 300.642 320.65 307.745 324.625 311.611C326.425 313.32 329.575 316.287 334 317.096C344.425 319.074 352.15 308.195 352.6 307.565C355.15 309.453 358.825 312.061 363.475 314.579C371.05 318.805 381.775 324.649 396.025 324.559C412.225 324.559 423.925 316.916 426.325 315.298C429.175 313.32 434.5 307.745 445.075 296.505C454.9 286.075 458.5 281.489 461.8 275.195C463.75 271.509 466.225 266.743 467.65 260.179C470.725 246.152 466.6 233.384 464.125 227.27Z" fill="#6D6C6C"/>
<path opacity="0.15" d="M468.098 238.059C466.673 243.993 464.198 252.355 459.923 261.617C455.948 270.249 445.448 292.458 423.173 306.126C416.573 310.172 405.173 317.005 389.348 316.646C371.798 316.196 359.198 307.205 353.873 302.889C350.873 305.136 346.373 308.014 340.523 309.902C332.723 312.33 327.098 311.521 326.948 312.869C326.798 314.218 332.198 317.095 337.823 316.916C345.698 316.646 351.248 310.442 353.273 307.924C358.448 312.42 377.798 328.245 403.148 324.199C422.723 321.052 435.098 307.834 445.973 296.145C454.073 287.423 463.448 277.082 467.048 259.818C468.923 251.007 468.623 243.274 468.098 238.059Z" fill="#6D6C6C"/>
<path d="M445.076 213.151C443.576 215.219 440.951 219.625 438.701 240.666C435.701 269.259 437.276 291.918 438.701 308.823C440.351 328.874 442.676 353.062 446.051 380.576C459.101 385.432 480.776 390.917 506.801 385.971C518.576 383.723 528.626 379.857 536.726 375.811C535.001 353.331 535.226 335.168 535.751 323.209C538.301 261.437 540.626 244.263 540.626 244.263C542.351 231.944 543.926 224.301 540.101 217.377C536.276 210.274 529.001 207.846 505.826 206.048C470.651 203.171 452.951 202.002 445.076 213.151Z" fill="#8AA6BF"/>
<path opacity="0.14" d="M495.699 206.229C498.024 216.119 499.974 226.64 501.624 237.789C510.174 296.415 504.174 348.387 495.699 387.141C500.049 386.781 504.624 386.152 509.499 385.163C519.849 383.095 528.924 379.858 536.424 376.531C535.374 358.637 535.074 343.351 535.074 331.213C535.149 297.314 537.624 271.418 538.674 261.078C540.024 248.489 541.449 237.969 542.649 230.326C542.949 228.168 543.249 224.212 541.674 220.076C539.874 215.31 536.499 212.792 535.074 211.803C530.199 208.297 525.249 208.297 522.549 208.297C516.099 208.027 507.549 207.577 495.699 206.229Z" fill="#6D6C6C"/>
<path opacity="0.16" d="M542.052 227.449C528.777 268.721 526.002 298.214 526.302 318.085C526.377 325.548 527.052 343.442 519.102 362.234C514.227 373.654 507.852 381.656 502.977 386.692C507.477 385.972 512.427 384.893 517.752 383.185C524.577 381.027 530.502 378.329 535.527 375.722C534.852 352.523 534.927 327.347 536.202 300.462C537.327 274.206 539.427 249.838 542.052 227.449Z" fill="#6D6C6C"/>
<path d="M531.849 213.422C541.074 208.567 553.599 222.774 561.699 231.855C570.549 241.836 588.474 262.067 589.374 295.157C590.124 322.761 578.649 342.722 572.949 351.085C564.024 364.123 553.899 370.956 547.899 374.283C547.824 377.34 547.449 382.196 545.724 387.501C544.749 390.378 539.799 405.484 530.349 406.114C529.074 406.204 524.724 406.204 519.699 400.539C519.399 400.539 517.899 400.269 516.924 398.651C516.024 397.122 515.949 394.874 516.849 393.076C516.624 392.896 514.674 391.727 514.224 388.94C513.699 385.882 515.424 383.635 515.574 383.545C515.649 382.016 515.949 380.038 517.149 379.049C518.499 377.97 519.924 378.869 522.099 378.689C523.524 378.509 525.549 377.88 527.949 375.362C525.249 374.463 519.174 372.125 519.324 369.518C519.399 366.46 528.174 364.662 530.124 364.213C534.924 363.223 539.049 363.403 541.824 363.673C543.474 360.076 545.874 354.771 548.724 348.387C553.524 337.597 555.924 332.202 557.349 328.336C560.049 321.143 563.049 310.263 563.874 295.067C560.499 291.11 555.324 285.446 548.724 279.241C534.474 265.934 529.674 265.664 525.774 258.111C518.424 243.994 521.949 218.637 531.849 213.422Z" fill="white" stroke="#202020" stroke-width="2" stroke-miterlimit="10"/>
<path d="M514.826 382.465C516.026 389.479 525.026 387.86 528.626 385.343C529.526 384.713 528.701 382.915 527.801 383.634C525.176 385.523 517.376 387.591 516.476 382.016C516.251 380.667 514.601 381.207 514.826 382.465Z" fill="#202020"/>
<path d="M515.727 393.703C520.227 397.57 526.827 395.772 531.552 393.164C532.527 392.624 531.702 390.916 530.727 391.456C526.527 393.703 520.602 395.322 516.627 391.995C515.727 391.186 514.902 392.984 515.727 393.703Z" fill="#202020"/>
<path d="M519.1 401.618C523.75 404.315 529.15 403.955 533.425 400.359C534.325 399.639 533.5 397.841 532.6 398.65C528.85 401.797 524.125 402.337 520 399.909C519.025 399.28 518.125 400.988 519.1 401.618Z" fill="#202020"/>
<path opacity="0.18" d="M528.623 216.838C527.123 222.953 544.673 228.797 560.048 248.579C565.373 255.413 576.248 269.35 578.798 290.031C582.023 315.657 570.848 336.158 566.723 343.531C558.773 358.007 549.098 366.55 543.248 370.955C543.248 373.473 542.948 382.645 537.098 390.378C535.898 391.996 531.173 398.2 524.273 399.099C520.298 399.639 516.698 398.29 516.548 398.83C516.473 399.369 519.248 400.089 522.848 403.056C525.173 404.944 525.248 405.753 526.373 406.383C531.023 408.99 538.373 401.078 539.198 400.268C546.848 391.906 547.748 379.498 547.898 374.912C549.623 373.743 551.948 372.124 554.648 369.966C557.423 367.719 565.598 361.244 572.048 352.702C573.773 350.454 582.548 338.496 586.823 319.343C588.323 312.6 592.448 293.088 585.848 271.777C582.923 262.516 579.173 256.492 572.423 245.971C566.423 236.53 561.998 231.854 553.448 222.773C547.298 216.209 543.623 213.152 538.673 212.792C535.298 212.522 529.448 213.511 528.623 216.838Z" fill="#6D6C6C"/>
<path opacity="0.18" d="M579.998 258.02C582.548 265.573 586.223 279.33 585.698 296.864C585.173 315.926 579.998 329.773 577.973 334.539C568.673 357.018 553.973 369.067 546.773 374.102C552.623 371.494 561.098 366.549 569.123 357.288C592.598 330.133 589.148 291.828 588.848 289.131C587.498 275.643 583.448 265.123 579.998 258.02Z" fill="#6D6C6C"/>
<path d="M494.05 144.186C498.55 162.259 500.2 172.779 506.575 189.324C509.575 197.057 512.425 203.171 514.45 207.217C507.925 210.904 497.35 215.669 483.775 216.299C475.75 216.659 468.85 215.4 463.525 213.961C464.05 209.016 464.35 202.811 463.975 195.798C463.45 186.986 461.875 179.523 460.375 174.038C453.175 172.959 445.9 171.79 438.7 170.711C437.275 166.935 435.85 163.068 434.425 159.292C432.475 159.202 430.45 159.112 428.5 159.022C430 153.807 432.25 145.624 434.875 135.464C439.75 116.312 439.675 113.614 442.3 109.298C449.575 97.519 465.85 89.966 476.575 96.3501C482.95 100.037 486.7 114.783 494.05 144.186Z" fill="white" stroke="#202020" stroke-width="2" stroke-miterlimit="10"/>
<path d="M428.651 160.46C432.401 160.55 436.076 160.19 439.751 159.561C441.176 159.291 440.576 156.683 439.151 156.953C435.626 157.583 432.176 157.852 428.651 157.762C427.226 157.762 427.226 160.46 428.651 160.46Z" fill="#202020"/>
<path d="M427.225 126.113C429.325 124.764 432.1 125.483 433.45 127.821C434.275 129.26 436.225 127.911 435.4 126.472C433.3 122.876 429.325 121.707 426.1 123.775C424.825 124.584 425.95 126.922 427.225 126.113Z" fill="#202020"/>
<path d="M444.925 129.26C447.625 128.271 450.55 129.35 452.125 132.227C452.95 133.666 454.9 132.317 454.075 130.879C451.9 127.102 448 125.304 444.325 126.742C442.975 127.192 443.5 129.8 444.925 129.26Z" fill="#202020"/>
<path d="M445.451 139.33C445.376 138.341 445.526 137.352 445.976 136.453C446.051 136.273 446.201 136.003 446.351 135.823C446.051 135.374 445.901 135.284 445.976 135.734C445.826 135.913 445.901 136.813 445.826 137.082C445.751 137.532 445.601 137.981 445.451 138.431C445.376 138.611 445.301 138.791 445.226 138.881C445.601 139.69 445.826 139.78 445.976 139.15C446.276 138.791 446.426 137.981 446.651 137.532C446.876 136.992 447.101 136.453 447.326 135.913C447.926 134.565 446.501 133.216 445.526 134.295C445.001 134.924 444.701 135.554 444.476 136.363C444.101 138.071 446.276 138.791 446.651 137.082C446.726 136.633 446.876 136.453 447.101 136.183C446.501 135.644 445.901 135.104 445.301 134.565C444.776 135.823 444.176 137.082 443.726 138.431C443.351 139.42 443.426 140.589 444.251 141.218C446.276 142.747 447.551 139.6 447.926 137.712C448.226 135.913 448.226 132.137 445.751 132.946C443.801 133.665 443.051 137.082 443.126 139.15C443.276 141.039 445.526 141.039 445.451 139.33Z" fill="#202020"/>
<path d="M439.676 113.973C440.201 110.107 441.476 103.633 445.001 96.9788C446.276 94.6409 448.901 89.6955 453.176 86.3686C461.351 79.9845 473.876 80.524 482.951 88.3468C491.876 95.9897 496.301 109.657 494.351 123.324C476.201 120.267 457.901 117.12 439.676 113.973Z" fill="#FFCC4D"/>
<path d="M409.824 114.243C437.949 118.469 465.999 122.695 494.124 126.921C498.399 127.55 498.399 119.458 494.124 118.828C465.999 114.602 437.949 110.376 409.824 106.15C405.474 105.521 405.549 113.613 409.824 114.243Z" fill="#202020"/>
<path d="M476.201 122.426C471.251 124.584 468.326 128.721 465.026 133.486C457.976 143.737 460.076 147.513 455.126 153.897C447.251 164.058 439.226 158.033 432.176 168.014C426.176 176.466 427.001 187.886 427.226 190.493C427.451 193.011 428.501 203.172 435.476 210.185C441.551 216.21 449.651 217.558 450.176 216.21C450.326 215.76 449.726 214.501 445.226 210.904C446.501 211.983 448.601 213.332 451.226 213.962C454.301 214.591 457.226 213.962 457.226 213.422C457.226 212.973 455.576 213.062 454.301 211.444C453.551 210.455 453.251 209.376 453.026 208.387C455.501 210.275 458.576 211.983 461.501 210.904C469.526 208.027 470.951 186.717 471.401 179.613C472.901 156.775 467.426 144.276 474.101 136.184C474.626 135.464 477.326 132.227 480.326 132.947C484.076 133.756 486.926 140.68 485.726 145.265C484.676 149.222 480.926 150.301 481.151 151.11C481.526 152.009 487.826 150.57 493.151 145.535C495.101 143.737 496.676 142.208 497.501 139.511C498.926 134.745 497.276 129.35 495.026 126.113C490.376 119.639 481.601 120.089 476.201 122.426Z" fill="#202020" stroke="#202020" stroke-width="2" stroke-miterlimit="10"/>
<path opacity="0.22" d="M483.626 151.919C482.426 152.099 480.701 152.099 480.626 151.649C480.551 151.38 481.001 151.02 481.001 151.02C481.001 151.02 479.576 153.178 477.776 153.448C476.951 153.538 476.201 153.268 475.676 152.908C478.826 160.911 482.051 170.532 484.826 181.682C487.826 193.91 489.551 204.97 490.526 214.501C493.751 214.501 498.326 214.051 503.576 212.073C507.851 210.455 511.226 208.297 513.776 206.409C507.026 193.73 503.576 183.57 501.626 176.646C500.726 173.409 498.776 165.766 497.876 161.99C496.151 155.156 494.726 149.491 493.826 145.715C493.376 146.254 492.551 147.064 491.576 147.873C490.151 149.132 487.376 151.47 483.626 151.919Z" fill="#6D6C6C"/>
<path d="M463.449 82.4127C470.724 84.1211 476.199 91.1346 477.099 99.317C478.074 109.118 472.074 115.862 471.474 116.401C479.274 117.57 486.999 118.649 494.799 119.818C494.949 117.66 495.024 114.693 494.499 111.276C492.999 100.306 487.599 93.4724 486.474 92.1237C484.674 89.9657 478.299 82.6824 468.774 82.053C466.599 81.9631 464.724 82.2329 463.449 82.4127Z" fill="#D73F3B"/>
<path d="M298.375 475.979C298.75 480.834 299.05 485.779 299.425 490.635L681.25 491.444C682.375 486.589 683.5 481.643 684.625 476.788C555.925 476.518 427.15 476.248 298.375 475.979Z" fill="white"/>
<path d="M303.477 476.608H307.527C308.952 476.608 308.952 473.91 307.527 473.91C306.177 473.91 304.827 473.91 303.477 473.91C301.977 473.91 301.977 476.608 303.477 476.608Z" fill="#202020"/>
<path d="M299.348 479.215H449.873C449.873 479.215 550.223 479.215 600.398 479.215H685.748C688.673 479.215 688.673 473.82 685.748 473.82C635.573 473.82 585.398 473.82 535.223 473.82C485.048 473.82 434.873 473.82 384.698 473.82C356.273 473.82 327.773 473.82 299.348 473.82C296.498 473.82 296.498 479.215 299.348 479.215Z" fill="#202020"/>
<path d="M300.401 492.524H596.801H680.651C683.576 492.524 683.576 487.129 680.651 487.129C581.876 487.129 483.026 487.129 384.251 487.129C356.276 487.129 328.376 487.129 300.401 487.129C297.476 487.129 297.476 492.524 300.401 492.524Z" fill="#202020"/>
<path d="M312.324 505.651V731.611V796.171C312.324 799.678 316.824 799.678 316.824 796.171C316.824 720.821 316.824 645.471 316.824 570.211C316.824 548.721 316.824 527.141 316.824 505.651C316.824 502.234 312.324 502.234 312.324 505.651Z" fill="#202020"/>
<path d="M625.676 502.054V706.614V764.7C625.676 768.207 630.176 768.207 630.176 764.7C630.176 696.544 630.176 628.297 630.176 560.14C630.176 540.808 630.176 521.476 630.176 502.054C630.176 498.547 625.676 498.547 625.676 502.054Z" fill="#202020"/>
<path d="M2.35 733.229H173.95H346.3H442.975C445.9 733.229 445.9 727.834 442.975 727.834C385.75 727.834 328.6 727.834 271.375 727.834C213.925 727.834 156.475 727.834 99.025 727.834C66.775 727.834 34.6 727.834 2.35 727.834C-0.575 727.834 -0.575 733.229 2.35 733.229Z" fill="#202020"/>
<path d="M529.225 735.657H681.25H832.525H918.625C921.55 735.657 921.55 730.262 918.625 730.262C867.925 730.262 817.3 730.262 766.6 730.262C716.2 730.262 665.725 730.262 615.325 730.262C586.6 730.262 557.95 730.262 529.225 730.262C526.3 730.262 526.3 735.657 529.225 735.657Z" fill="#202020"/>
<path d="M313.227 505.56V726.575V789.517C313.227 793.023 317.727 793.023 317.727 789.517C317.727 715.875 317.727 642.143 317.727 568.501C317.727 547.551 317.727 526.6 317.727 505.56C317.727 502.053 313.227 502.053 313.227 505.56Z" fill="#202020"/>
<path d="M314.199 506.731V726.847V789.518C314.199 793.025 318.699 793.025 318.699 789.518C318.699 716.147 318.699 642.775 318.699 569.403C318.699 548.542 318.699 527.681 318.699 506.731C318.699 503.314 314.199 503.314 314.199 506.731Z" fill="#202020"/>
<path d="M625.301 500.705V700.95V758.137C625.301 761.643 629.801 761.643 629.801 758.137C629.801 691.418 629.801 624.61 629.801 557.892C629.801 538.83 629.801 519.768 629.801 500.705C629.801 497.288 625.301 497.288 625.301 500.705Z" fill="#202020"/>
<path d="M626.352 501.964V700.5V757.058C626.352 760.564 630.852 760.564 630.852 757.058C630.852 690.879 630.852 624.7 630.852 558.522C630.852 539.639 630.852 520.757 630.852 501.964C630.852 498.457 626.352 498.457 626.352 501.964Z" fill="#202020"/>
<path d="M302.876 492.972C306.776 498.637 310.226 504.571 313.301 510.866C314.801 513.833 318.701 511.135 317.201 508.168C313.901 501.514 310.151 495.22 306.026 489.196C304.151 486.498 301.001 490.275 302.876 492.972Z" fill="#202020"/>
<path d="M318.102 508.978C323.652 503.403 329.127 497.738 334.677 492.163C336.852 489.915 333.702 486.139 331.527 488.387C325.977 493.962 320.502 499.626 314.952 505.201C312.702 507.449 315.927 511.226 318.102 508.978Z" fill="#202020"/>
<path d="M612.777 495.76C617.427 499.267 622.077 502.773 626.727 506.28C629.202 508.168 631.452 503.493 628.977 501.604C624.327 498.098 619.677 494.591 615.027 491.084C612.552 489.286 610.302 493.962 612.777 495.76Z" fill="#202020"/>
<path d="M639.851 489.375C635.951 493.151 632.201 497.198 628.676 501.424C626.651 503.851 629.801 507.718 631.826 505.2C635.351 500.974 639.101 496.928 643.001 493.151C645.251 490.993 642.101 487.217 639.851 489.375Z" fill="#202020"/>
<path d="M616.298 496.03C622.298 497.109 628.148 497.379 634.148 496.659C633.773 494.951 633.398 493.332 633.023 491.624C630.548 493.512 627.998 494.052 625.073 494.411C623.423 494.681 621.773 497.379 623.498 498.997C625.823 501.245 628.148 501.964 631.073 501.065C633.848 500.256 632.723 495.041 629.873 495.85C628.748 496.39 627.623 496.12 626.648 495.131C626.123 496.659 625.598 498.188 625.073 499.717C628.673 499.267 632.198 498.638 635.273 496.12C636.998 494.771 636.548 490.815 634.148 491.085C628.598 491.714 622.973 491.624 617.423 490.635C614.648 490.275 613.448 495.49 616.298 496.03Z" fill="#202020"/>
<path d="M638.049 490.904C635.949 490.365 633.849 490.724 632.049 492.163C631.074 492.972 630.624 494.501 631.224 495.85C631.824 497.018 633.324 497.648 634.299 496.839C635.124 496.119 635.949 495.85 636.774 496.119C637.974 496.389 639.174 495.67 639.549 494.231C639.924 492.882 639.249 491.174 638.049 490.904Z" fill="#202020"/>
<path d="M307.975 495.49C309.325 496.569 314.35 499.357 314.125 501.694L316.375 498.997C316.075 498.997 315.175 494.861 314.95 494.141C314.275 495.49 313.675 496.839 313 498.188C317.5 497.918 321.775 496.839 325.9 494.861C325.15 493.332 324.475 491.893 323.725 490.365C321.175 493.512 318.475 496.479 315.55 499.177L318.625 502.863C321.325 497.378 317.5 492.882 313.6 490.545C313.225 492.253 312.85 493.872 312.475 495.58C315.55 495.4 318.625 495.31 321.7 495.49C324.625 495.67 324.55 490.275 321.7 490.095C318.625 489.915 315.55 489.915 312.475 490.185C310.375 490.365 309.25 493.962 311.35 495.22C312.7 496.03 316 497.738 314.8 500.166C313.75 502.324 316 505.561 317.875 503.852C321.1 500.885 324.175 497.738 326.95 494.231C328.375 492.433 326.95 488.656 324.775 489.735C320.95 491.534 317.125 492.613 313.075 492.883C311.275 492.972 310.45 495.041 311.125 496.929C312.4 500.346 312.325 504.482 316.45 504.392C317.8 504.392 318.55 503.133 318.7 501.694C319.3 496.299 313.375 493.242 310.375 490.904C307.825 488.926 305.575 493.602 307.975 495.49Z" fill="#202020"/>
<path d="M332.574 473.191C332.574 468.785 332.574 464.379 332.574 459.883C332.574 458.174 330.324 458.174 330.324 459.883V473.191C330.324 474.989 332.574 474.989 332.574 473.191Z" fill="#E8E8E8"/>
<path d="M331.452 461.053H393.702C395.127 461.053 395.127 458.355 393.702 458.355C372.927 458.355 352.227 458.355 331.452 458.355C330.027 458.355 330.027 461.053 331.452 461.053Z" fill="#E8E8E8"/>
<path d="M392.574 459.704V472.383C392.574 474.091 394.824 474.091 394.824 472.383C394.824 468.156 394.824 463.93 394.824 459.704C394.824 457.906 392.574 457.906 392.574 459.704Z" fill="#E8E8E8"/>
<path d="M334.299 466.088H381.924C383.349 466.088 383.349 463.391 381.924 463.391C366.024 463.391 350.199 463.391 334.299 463.391C332.874 463.391 332.874 466.088 334.299 466.088Z" fill="#E8E8E8"/>
<path d="M344.873 471.213H381.398C382.823 471.213 382.823 468.516 381.398 468.516C369.248 468.516 357.023 468.516 344.873 468.516C343.448 468.516 343.448 471.213 344.873 471.213Z" fill="#E8E8E8"/>
<path d="M347.426 459.433C347.426 456.376 347.426 453.409 347.426 450.352C347.426 448.643 345.176 448.643 345.176 450.352V459.433C345.176 461.142 347.426 461.142 347.426 459.433Z" fill="#E8E8E8"/>
<path d="M347.725 451.16H401.95C403.375 451.16 403.375 448.463 401.95 448.463C383.875 448.463 365.8 448.463 347.725 448.463C346.3 448.463 346.3 451.16 347.725 451.16Z" fill="#E8E8E8"/>
<path d="M394.373 460.422H401.423C402.848 460.422 402.848 457.725 401.423 457.725C399.098 457.725 396.698 457.725 394.373 457.725C392.948 457.725 392.948 460.422 394.373 460.422Z" fill="#E8E8E8"/>
<path d="M400.824 450.083V458.805C400.824 460.513 403.074 460.513 403.074 458.805C403.074 455.928 403.074 452.96 403.074 450.083C403.074 448.285 400.824 448.285 400.824 450.083Z" fill="#E8E8E8"/>
<path d="M358.602 455.656H371.577C373.002 455.656 373.002 452.959 371.577 452.959C367.227 452.959 362.952 452.959 358.602 452.959C357.102 452.959 357.102 455.656 358.602 455.656Z" fill="#E8E8E8"/>
<path d="M380.952 457.905H392.502C393.927 457.905 393.927 455.207 392.502 455.207C388.677 455.207 384.777 455.207 380.952 455.207C379.527 455.207 379.527 457.905 380.952 457.905Z" fill="#E8E8E8"/>
<path d="M360.026 447.205C358.226 445.137 357.851 441.99 358.001 439.112C358.301 434.347 361.901 434.167 364.901 435.606C366.251 436.235 366.851 433.627 365.501 432.998C362.126 431.38 357.701 431.469 356.201 436.235C354.926 440.281 355.826 446.126 358.451 449.093C359.501 450.352 361.076 448.374 360.026 447.205Z" fill="#E8E8E8"/>
<path d="M364.524 434.256C371.574 430.48 374.499 444.687 368.424 448.283C367.149 449.093 368.274 451.341 369.549 450.621C378.249 445.406 373.149 426.703 363.399 431.919C362.049 432.638 363.249 434.976 364.524 434.256Z" fill="#E8E8E8"/>
<path d="M364.752 433.537C364.377 430.66 363.477 428.053 362.052 425.715C361.227 424.276 359.277 425.625 360.102 427.063C361.377 429.221 362.202 431.559 362.577 434.257C362.802 435.965 364.977 435.246 364.752 433.537Z" fill="#E8E8E8"/>
<path d="M363.7 428.952C363.925 428.232 364.225 427.603 364.6 426.973C364.75 426.704 364.975 426.344 365.2 426.074C365.275 425.894 365.425 425.804 365.575 425.625C365.2 424.725 364.975 424.546 364.825 424.995C364.45 425.445 364.075 426.614 363.85 427.243C363.475 428.052 363.025 428.772 362.575 429.491C361.75 430.93 363.7 432.278 364.525 430.84C365.35 429.491 366.1 428.052 366.7 426.524C367.225 425.265 367.525 423.646 366.175 423.017C363.925 422.028 362.2 426.254 361.6 428.142C361 429.851 363.175 430.57 363.7 428.952Z" fill="#E8E8E8"/>
<path d="M732.25 609.953C732.55 614.18 732.85 618.495 733.15 622.722C767.725 622.362 802.3 622.002 836.875 621.643C836.5 617.596 836.125 613.55 835.75 609.594C801.175 609.774 766.75 609.864 732.25 609.953Z" fill="white"/>
<path d="M732.924 624.161H836.573C839.498 624.161 839.498 618.766 836.573 618.766C801.998 618.766 767.499 618.766 732.924 618.766C730.074 618.766 729.999 624.161 732.924 624.161Z" fill="#202020"/>
<path d="M733.6 611.842H835.3C838.225 611.842 838.225 606.447 835.3 606.447C801.4 606.447 767.5 606.447 733.6 606.447C730.675 606.447 730.675 611.842 733.6 611.842Z" fill="#202020"/>
<path d="M730.074 609.954V619.126C730.074 622.632 734.574 622.632 734.574 619.126C734.574 616.069 734.574 613.011 734.574 609.954C734.574 606.448 730.074 606.448 730.074 609.954Z" fill="#202020"/>
<path d="M834.324 609.954V622.183C834.324 625.69 838.824 625.69 838.824 622.183C838.824 618.137 838.824 614.001 838.824 609.954C838.824 606.448 834.324 606.448 834.324 609.954Z" fill="#202020"/>
<path d="M783.773 622.991V777.918C783.773 781.424 788.273 781.424 788.273 777.918C788.273 726.306 788.273 674.693 788.273 622.991C788.273 619.485 783.773 619.485 783.773 622.991Z" fill="#202020"/>
<path d="M783.624 777.11C775.899 782.594 768.174 788.079 760.374 793.564C757.899 795.363 760.149 800.038 762.624 798.24C770.349 792.755 778.074 787.27 785.874 781.785C788.424 779.987 786.099 775.311 783.624 777.11Z" fill="#202020"/>
<path d="M784.899 780.975C793.674 786.819 802.374 792.754 811.149 798.598C813.699 800.307 815.949 795.631 813.399 793.923C804.624 788.078 795.924 782.144 787.149 776.299C784.599 774.591 782.349 779.266 784.899 780.975Z" fill="#202020"/>
<path d="M761.725 800.217C778.375 800.037 794.95 799.408 811.6 798.419C814.45 798.239 814.525 792.844 811.6 793.024C795.025 794.013 778.375 794.642 761.725 794.822C758.8 794.822 758.8 800.217 761.725 800.217Z" fill="#202020"/>
<path d="M764.199 624.971C770.949 636.48 777.099 648.529 782.649 660.937C783.999 663.994 787.899 661.297 786.549 658.24C780.999 645.831 774.849 633.782 768.099 622.273C766.449 619.396 762.549 622.093 764.199 624.971Z" fill="#202020"/>
<path d="M809.274 621.103C799.449 632.343 791.049 645.111 784.224 659.138C782.724 662.105 786.624 664.892 788.124 661.835C794.799 648.168 802.974 635.849 812.499 624.969C814.599 622.542 811.374 618.675 809.274 621.103Z" fill="#202020"/>
<path d="M625.973 726.845C625.373 739.703 624.848 752.561 624.248 765.419C595.598 780.345 581.798 790.146 582.923 794.642C584.198 800.037 606.248 798.149 648.923 789.157C649.223 767.127 649.523 745.098 649.748 723.068C641.873 724.327 633.923 725.586 625.973 726.845Z" fill="#202020"/>
<path d="M714.927 518.508C708.552 525.342 699.477 535.233 688.902 547.461C663.702 576.774 645.177 598.264 632.652 620.473C622.302 638.906 606.927 673.974 605.727 731.341C616.077 734.758 629.127 737.635 644.277 737.455C649.377 737.365 654.252 737.005 658.677 736.376C656.727 723.338 655.152 702.927 659.127 679.009C661.902 662.195 666.552 648.707 670.752 638.906C704.502 620.923 727.302 598.894 741.852 582.079C756.552 565.085 773.277 545.663 768.777 531.906C764.652 518.868 742.677 513.832 714.927 518.508Z" fill="#D73F3B"/>
<path opacity="0.18" d="M750.401 518.598C739.076 536.671 725.501 556.273 709.226 576.234C688.826 601.321 668.651 621.552 650.576 637.647C644.276 670.827 637.976 704.006 631.676 737.095C634.376 737.635 637.451 738.084 640.826 738.084C647.651 738.264 653.501 737.095 658.001 735.657C656.576 724.327 655.601 708.771 657.401 690.698C659.651 668.399 665.351 650.865 670.001 639.266C686.951 629.914 700.376 620.383 710.051 612.83C710.051 612.83 740.351 589.272 763.826 553.126C764.351 552.316 766.151 549.529 767.576 545.213C768.701 541.706 770.126 537.39 769.001 532.894C767.951 528.848 765.401 526.6 762.701 524.352C760.601 522.644 756.476 519.677 750.401 518.598Z" fill="#6D6C6C"/>
<path opacity="0.16" d="M669.4 639.717C666.175 646.91 663.025 654.463 659.95 662.376C649.6 689.081 642.4 714.617 637.375 737.816C644.275 737.456 651.1 737.097 658 736.827C656.425 725.947 655.225 711.29 656.575 694.296C658.45 670.288 664.525 651.586 669.4 639.717Z" fill="#6D6C6C"/>
<path d="M672.249 739.254C675.699 752.112 679.149 764.97 682.599 777.828C657.099 796.171 645.024 807.231 646.449 810.917C648.174 815.413 670.149 808.759 712.449 790.956C706.599 770.545 700.749 750.134 694.899 729.723C687.324 732.78 679.749 736.017 672.249 739.254Z" fill="#202020"/>
<path d="M795.925 535.954C801.25 568.414 793.225 586.667 789.4 593.68C781.75 607.707 771.55 612.023 741.775 629.737C730.15 636.66 712.45 647.45 690.775 661.747C692.275 673.166 694.675 686.294 698.5 700.591C702.1 714.079 706.3 725.858 710.35 735.748C706.375 740.334 698.35 748.427 686.125 753.102C672.925 758.228 661.6 756.699 656.05 755.53C644.275 727.656 641.275 703.199 640.45 688.272C639.475 670.289 638.35 649.878 647.125 629.737C653.875 614.271 660.4 612.832 687.7 587.836C728.725 550.34 732.85 536.313 754 531.098C771.325 526.872 786.7 531.817 795.925 535.954Z" fill="#D73F3B"/>
<path opacity="0.22" d="M767.877 529.928C768.252 540.358 767.577 556.723 760.602 573.448C754.752 587.564 746.952 597.635 721.227 618.496C698.352 637.019 680.127 651.315 668.352 660.487C675.852 690.609 683.352 720.731 690.852 750.853C693.102 749.954 695.802 748.605 698.577 746.717C703.677 743.21 707.277 738.984 709.602 735.747C706.302 727.295 703.002 717.854 700.077 707.513C695.277 690.969 692.277 675.503 690.402 662.105C709.002 649.697 722.052 641.604 729.702 637.019C741.102 630.185 746.727 626.768 752.502 623.441C754.452 622.362 758.802 619.935 764.502 616.338C770.877 612.382 774.027 610.493 776.877 608.155C779.202 606.267 785.052 601.322 789.777 593.139C796.527 581.45 797.127 569.222 797.577 560.32C797.877 554.565 797.802 546.203 796.002 536.402C792.102 534.424 786.852 532.266 780.552 531.007C775.677 529.928 771.402 529.748 767.877 529.928Z" fill="#6D6C6C"/>
<path opacity="0.11" d="M797.501 553.936C796.301 558.701 794.126 565.625 790.301 573.088C778.526 595.747 760.526 604.738 747.926 612.291C733.001 621.283 712.901 636.119 690.551 661.746C696.851 657.52 704.576 652.484 713.576 646.73C729.476 636.569 737.351 631.534 745.526 626.858C751.901 623.261 759.176 619.395 770.051 612.471C777.851 607.526 782.126 604.469 786.176 598.804C790.751 592.42 792.776 586.036 794.126 581.72C795.776 576.325 798.101 566.704 797.501 553.936Z" fill="#6D6C6C"/>
<path opacity="0.17" d="M690.25 662.645C690.325 670.198 690.775 678.29 691.6 686.832C693.7 708.682 698.125 727.474 702.85 742.67C704.2 741.771 705.775 740.512 707.425 738.804C708.475 737.725 709.375 736.646 710.05 735.657C706.9 727.834 703.825 719.112 700.9 709.671C695.725 692.587 692.425 676.672 690.25 662.645Z" fill="#6D6C6C"/>
<path d="M746.501 359.895C737.126 363.672 735.476 377.069 729.176 392.355C729.176 392.355 719.276 416.633 697.601 436.594C689.726 443.877 672.701 456.736 644.276 458.984C641.501 457.635 637.226 455.836 631.826 454.757C624.101 453.229 613.301 450.981 606.026 458.444C602.726 461.861 599.051 468.335 600.701 472.291C602.726 477.147 611.726 475.258 626.501 474.449C646.976 473.37 646.001 476.068 660.251 474.989C673.001 474 693.101 472.561 714.026 457.905C734.051 443.967 744.401 425.355 746.876 420.589C751.676 411.597 753.851 404.314 758.276 389.658C764.126 370.416 763.151 366.1 761.501 363.582C758.651 358.906 751.751 357.737 746.501 359.895Z" fill="white" stroke="#202020" stroke-width="2" stroke-miterlimit="10"/>
<path d="M635.349 461.772C630.624 462.851 623.799 463.121 620.349 467.796C618.399 470.494 618.699 475.259 622.299 475.259C623.349 475.259 623.424 473.191 622.299 473.191C620.499 470.943 620.649 469.145 622.899 467.886C623.649 467.257 624.474 466.807 625.374 466.358C626.349 465.908 627.324 465.638 628.299 465.368C630.774 464.739 633.249 464.2 635.799 463.66C636.849 463.48 636.399 461.592 635.349 461.772Z" fill="#202020"/>
<path d="M599.95 470.134C604.375 476.788 611.275 469.055 616.6 470.764C617.65 471.123 618.1 469.145 617.05 468.786C614.725 468.066 612.7 468.426 610.375 469.325C607.3 470.494 603.55 472.472 601.075 468.696C600.475 467.707 599.275 469.145 599.95 470.134Z" fill="#202020"/>
<path d="M602.651 461.952C602.801 464.649 604.301 465.728 606.476 465.728C611.351 465.728 615.626 463.39 620.501 465.279C621.551 465.638 622.001 463.75 620.951 463.301C618.476 462.311 616.076 462.222 613.526 462.491C611.726 462.671 604.526 465.099 604.376 461.862C604.226 460.693 602.576 460.693 602.651 461.952Z" fill="#202020"/>
<path d="M609.999 456.375C610.749 458.533 612.024 459.522 613.974 459.882C617.799 460.511 621.099 460.691 624.624 462.579C625.599 463.119 626.499 461.321 625.449 460.871C623.499 459.882 621.549 458.983 619.449 458.533C617.049 457.994 612.624 458.893 611.574 455.836C611.199 454.667 609.549 455.206 609.999 456.375Z" fill="#202020"/>
<path opacity="0.16" d="M755.574 360.166C751.299 361.425 752.574 375.182 750.324 387.95C746.574 408.541 734.349 421.399 720.849 435.606C711.699 445.227 700.974 456.557 684.624 461.592C678.999 463.3 669.699 465.189 659.724 465.818C646.224 466.627 639.549 467.077 639.099 466.987C636.849 466.717 631.374 465.998 625.524 469.055C624.324 469.684 621.024 471.393 621.249 472.652C621.549 474.54 629.349 474 646.899 473.821C659.874 473.731 658.524 474 662.499 473.821C669.999 473.461 683.049 472.921 697.749 466.537C718.674 457.546 731.574 441.63 737.499 434.257C743.199 427.064 746.349 421.489 747.324 419.781C751.974 411.418 754.149 403.955 758.424 389.299C763.374 372.215 763.374 367.719 761.424 364.212C760.074 362.144 757.599 359.536 755.574 360.166Z" fill="#6D6C6C"/>
<path opacity="0.13" d="M601.977 473.011C602.502 471.393 604.752 464.739 610.752 461.232C619.752 456.107 628.527 463.031 628.902 463.3C626.952 464.559 625.302 465.458 624.102 465.998C622.227 466.987 621.477 467.167 620.802 468.066C619.677 469.774 619.977 472.292 620.277 473.821C617.877 474.45 614.727 474.9 610.977 474.72C607.377 474.63 604.302 473.821 601.977 473.011Z" fill="#6D6C6C"/>
<path opacity="0.14" d="M761.349 374.912C758.199 387.5 751.298 408.721 736.148 429.222C715.523 457.186 691.298 468.066 680.273 472.112C688.748 470.314 720.248 462.311 742.448 427.783C755.573 407.282 759.774 386.421 761.349 374.912Z" fill="#6D6C6C"/>
<path d="M743.951 360.614C739.226 366.818 735.851 375.001 733.676 405.213C730.451 449.362 735.551 459.522 729.851 481.372C727.226 491.353 721.826 505.829 709.301 521.385C718.151 528.219 732.476 537.57 751.676 542.965C770.651 548.27 786.776 547.461 797.276 546.022C810.776 496.298 809.651 456.105 806.876 431.378C804.251 407.82 798.326 353.6 774.776 346.767C763.601 343.44 750.926 351.532 743.951 360.614Z" fill="white" stroke="#202020" stroke-width="2" stroke-miterlimit="10"/>
<path opacity="0.12" d="M768.776 346.947C768.401 350.634 767.876 356.119 767.351 362.683C763.826 406.652 767.951 414.654 765.251 440.55C763.751 455.297 760.601 482.901 744.401 508.617C737.651 519.318 730.526 526.781 725.426 531.366C733.601 536.312 746.051 542.516 761.951 545.393C776.201 547.911 788.276 546.922 796.826 545.393C799.226 537.121 802.076 525.881 804.326 512.394C808.526 487.397 808.826 466.087 808.301 451.34C807.326 422.837 805.151 361.694 779.051 349.195C775.001 347.307 771.326 346.947 768.776 346.947Z" fill="#6D6C6C"/>
<path opacity="0.24" d="M807.776 476.069C806.876 475.889 804.777 487.038 801.702 497.109C797.802 510.147 790.452 527.681 775.227 546.653C782.577 546.204 790.002 545.844 797.352 545.394C799.827 535.863 802.976 521.656 805.526 504.123C807.176 492.343 808.901 476.338 807.776 476.069Z" fill="#6D6C6C"/>
<path d="M788.501 359.446C796.976 361.424 800.576 377.519 803.576 391.636C806.576 405.843 812.351 434.796 804.251 472.92C800.876 488.656 797.876 503.312 787.451 518.148C773.876 537.57 756.551 545.123 748.451 547.911C739.451 555.374 734.801 559.15 732.176 561.129C730.301 562.567 729.176 563.377 727.151 565.085C724.226 567.603 723.701 568.412 722.276 569.131C720.776 569.851 718.376 570.39 714.776 569.041C714.476 569.131 712.151 569.491 710.426 567.423C709.376 566.164 709.151 564.725 709.151 564.096C708.926 564.096 707.501 563.916 706.526 562.477C705.626 561.129 705.551 559.24 706.226 557.622C705.926 556.903 705.626 555.913 705.626 554.655C705.251 548.36 711.476 543.325 714.926 540.448C718.601 537.391 725.876 532.535 737.126 531.276C743.201 527.41 752.276 520.486 760.301 508.887C762.851 505.29 779.876 479.934 778.526 445.855C778.001 431.559 773.726 404.943 771.326 380.126C771.176 378.328 770.726 373.473 772.901 368.797C776.051 362.413 783.251 358.277 788.501 359.446Z" fill="white" stroke="#202020" stroke-width="2" stroke-miterlimit="10"/>
<path d="M706.452 558.252C707.502 558.252 707.577 556.184 706.452 556.184C705.402 556.184 705.402 558.252 706.452 558.252Z" fill="#202020"/>
<path d="M705.623 557.173V557.803C705.698 558.882 706.673 559.152 707.198 558.342C710.198 553.577 714.249 550.07 718.974 548.272C720.024 547.912 719.573 545.934 718.523 546.294C713.348 548.272 708.998 552.048 705.698 557.263C706.223 557.443 706.748 557.623 707.273 557.803C707.273 557.623 707.273 557.443 707.273 557.173C707.273 555.915 705.548 555.915 705.623 557.173Z" fill="#202020"/>
<path d="M709.825 564.456C713.65 559.241 718.375 555.285 723.775 552.677C724.75 552.227 724.375 550.249 723.325 550.699C717.625 553.396 712.675 557.443 708.625 562.927C707.95 564.006 709.15 565.445 709.825 564.456Z" fill="#202020"/>
<path d="M715.449 569.312C719.349 564.007 723.849 559.601 728.949 556.004C729.849 555.375 729.024 553.577 728.124 554.296C722.949 557.983 718.299 562.478 714.324 567.963C713.574 568.862 714.774 570.301 715.449 569.312Z" fill="#202020"/>
<path opacity="0.13" d="M785.202 362.863C782.352 367.809 787.002 376.531 789.627 383.005C793.452 392.536 794.052 402.876 795.252 423.557C797.427 461.052 782.877 493.153 781.827 495.4C768.552 523.724 747.927 540.718 741.477 545.934C730.527 554.745 715.002 564.367 716.277 568.053C716.727 569.402 719.202 569.582 720.252 569.492C723.852 569.312 725.352 565.985 730.377 561.759C733.002 559.511 732.927 560.23 737.427 556.993C740.052 555.105 743.802 552.228 748.227 548.182C758.277 544.945 765.702 539.999 770.352 536.402C777.102 531.187 790.077 519.228 798.027 498.368C800.727 491.264 801.777 485.6 803.877 474.36C806.052 462.581 809.502 443.249 807.552 418.612C806.652 407.462 805.077 399.999 802.902 390.198C799.527 374.463 796.452 360.885 790.602 359.986C788.652 359.626 786.327 360.975 785.202 362.863Z" fill="#6D6C6C"/>
<path opacity="0.16" d="M806.577 412.047C805.902 412.047 806.052 421.488 802.827 446.575C799.902 469.054 798.401 480.563 794.276 491.084C788.276 506.369 780.102 515.991 776.127 520.576C764.802 533.704 757.976 534.603 740.651 549.889C731.576 557.892 724.827 565.175 720.852 569.671C729.852 562.477 738.776 555.284 747.776 548.181C756.026 545.303 772.977 537.75 786.627 518.418C796.002 505.111 799.676 492.073 802.526 481.912C812.276 445.676 807.777 412.047 806.577 412.047Z" fill="#6D6C6C"/>
<path d="M754.826 320.242C751.451 323.03 750.851 328.425 750.326 334.359C749.801 340.384 749.727 350.904 754.302 363.942C757.152 363.942 760.676 363.672 764.576 362.773C767.651 362.053 770.352 361.064 772.602 360.075C772.302 348.116 772.076 336.157 771.776 324.199C765.476 318.624 758.876 316.915 754.826 320.242Z" fill="white" stroke="#202020" stroke-width="2" stroke-miterlimit="10"/>
<path d="M736.977 260.269C731.727 263.865 729.477 269.89 725.052 281.579C720.102 294.887 716.652 306.396 715.302 314.848C715.077 316.107 715.602 317.366 716.577 317.905C717.852 318.625 720.102 318.894 721.302 319.254C721.302 322.761 721.677 328.785 724.302 335.259C729.102 347.038 737.952 351.804 740.577 353.063C748.902 351.354 755.052 347.938 758.727 345.33C762.102 343.082 766.452 340.025 770.727 334.09C774.552 328.695 776.577 323.3 777.627 319.704C779.202 319.704 781.602 319.524 784.077 317.905C789.177 314.578 793.527 305.857 790.827 300.551C788.802 296.685 783.252 295.067 777.552 297.584C777.627 294.707 777.552 290.751 776.727 286.075C776.502 284.906 774.927 276.364 771.327 270.339C764.427 258.74 747.627 252.986 736.977 260.269Z" fill="white" stroke="#202020" stroke-width="2" stroke-miterlimit="10"/>
<path d="M718.076 301C716.201 297.493 712.076 288.682 712.676 276.992C712.901 273.036 713.351 265.483 717.926 258.38C723.476 249.748 731.201 247.5 733.451 246.96C734.501 244.892 736.301 241.835 739.301 239.317C740.501 238.328 743.801 235.9 751.901 235.361C756.176 235.091 762.701 235.271 770.501 237.969C776.576 240.127 780.626 243.184 783.101 245.611C792.626 254.603 791.876 261.707 803.951 276.273C806.726 279.6 808.676 280.769 812.876 285.714C817.301 290.84 820.826 295.785 822.776 298.752C827.201 305.496 835.526 318.264 837.101 335.528C837.626 341.373 839.126 357.827 830.576 370.416C818.951 387.59 792.701 388.939 776.726 375.271C773.726 372.754 761.276 361.964 761.951 344.61C762.551 328.964 773.426 319.613 774.926 318.264C776.201 318.894 778.826 319.883 781.376 318.804C786.701 316.466 788.951 306.665 786.176 301.719C785.051 299.741 783.251 298.932 782.726 298.752C778.376 296.954 774.326 300.82 774.026 301.09C768.176 295.965 763.751 291.019 760.676 287.153C756.476 282.028 754.376 278.611 753.626 277.352C751.301 273.396 749.576 269.799 748.451 267.102C745.001 268.091 740.501 269.979 735.776 273.665C734.651 274.475 730.901 277.532 727.001 282.837C726.551 283.466 724.376 286.434 722.051 290.929C720.326 294.796 718.976 298.213 718.076 301Z" fill="#202020"/>
<path d="M733.374 309.002C733.374 308.912 733.374 308.912 733.374 309.002C733.374 309.092 733.449 309.272 733.449 309.452V309.542C733.374 309.722 733.299 309.812 733.224 309.991C733.374 309.812 733.224 309.901 732.924 310.171C732.774 310.081 732.624 310.081 732.474 309.991C732.399 309.901 732.324 309.901 732.324 309.812C732.249 309.632 732.249 309.452 732.174 309.272V309.182C732.249 309.002 732.324 308.912 732.399 308.733C732.549 308.733 732.699 308.643 732.849 308.643L733.449 309.362V309.632C733.074 309.722 732.699 309.901 732.324 309.991L732.249 309.902C732.174 309.722 732.099 309.632 732.024 309.452C732.099 309.182 732.249 308.912 732.324 308.733C732.474 308.643 732.624 308.643 732.774 308.553H732.699C732.249 308.643 731.874 309.002 731.874 309.542C731.874 310.081 732.249 310.621 732.699 310.531C733.149 310.441 733.599 310.171 733.674 309.542C733.824 309.002 733.599 308.373 733.149 308.103C732.699 307.833 732.249 308.013 732.024 308.463C731.574 309.182 731.874 310.351 732.624 310.441C733.299 310.531 733.899 309.901 733.899 309.092C733.899 308.283 733.224 307.743 732.549 307.923C731.874 308.193 731.574 309.002 731.874 309.812C732.099 310.351 732.699 310.441 732.999 310.171C733.524 310.081 733.524 309.452 733.374 309.002Z" fill="#202020"/>
<path d="M739.975 306.845C740.125 307.744 739.825 307.654 739.15 306.575C739.3 306.485 739.375 306.395 739.525 306.306C739.825 306.306 740.05 306.485 740.2 306.935C740.275 306.395 739.75 305.946 739.375 305.946C738.85 305.946 738.55 306.395 738.55 306.935C738.475 307.744 739.15 308.374 739.75 308.284C740.5 308.284 740.95 307.385 740.725 306.575C740.5 305.766 739.75 305.316 739.075 305.766C738.4 306.216 738.325 307.025 738.625 307.834C738.775 308.374 739.45 308.464 739.75 308.194C740.125 307.924 740.2 307.385 739.975 306.845Z" fill="#202020"/>
<path d="M737.876 312.779C738.326 312.779 738.401 312.958 738.101 313.408C738.101 313.768 738.026 313.947 737.801 313.947C737.726 313.588 737.726 313.138 737.651 312.779C737.876 312.689 738.026 312.689 738.251 312.868C737.501 311.879 736.301 313.318 737.051 314.307C737.576 315.026 738.551 314.847 738.926 314.037C739.301 313.228 738.926 312.239 738.251 311.969C737.501 311.7 736.751 312.329 736.676 313.228C736.676 314.217 737.501 314.936 738.251 314.757C739.376 314.397 738.926 312.419 737.876 312.779Z" fill="#202020"/>
<path d="M724 332.381C728.65 331.392 732.7 328.155 735.325 323.389C735.925 322.31 734.5 321.321 733.9 322.4C731.5 326.716 727.9 329.503 723.625 330.492C722.5 330.672 722.95 332.56 724 332.381Z" fill="#202020"/>
<path opacity="0.1" d="M749.5 270.068C750.85 273.305 752.575 277.621 754.525 282.747C760.525 298.392 761.2 302.708 761.425 306.485C761.725 312.149 760.9 316.465 760.225 319.523C756.775 336.247 746.65 347.397 741.625 352.252C744.1 351.893 747.1 351.263 750.4 349.914C755.5 347.846 759.475 345.059 762.175 342.721C761.95 345.508 761.95 349.824 763.3 354.68C764.8 360.435 767.5 364.031 769.75 367.448C771.475 370.056 774.55 374.192 779.425 377.519C784.15 380.846 788.575 382.015 791.275 382.554C797.575 384.263 802.825 384.083 806.35 383.723C811.225 383.184 818.95 382.374 826.15 375.72C827.95 374.012 832.075 370.146 834.55 363.312C835.15 361.693 836.05 358.636 836.5 350.544C837.025 341.013 837.4 334.359 835.525 325.907C833.575 317.185 830.05 310.441 826.6 305.496C820.6 324.828 806.125 335.977 793.075 333.639C782.875 331.751 776.725 322.13 774.925 319.163C778.9 320.242 782.95 318.803 785.275 315.296C788.05 311.34 788.875 304.237 785.275 300.46C782.425 297.493 777.7 297.403 774.175 300.73C769.9 297.043 765.025 292.188 760.075 285.894C755.65 280.409 752.2 274.924 749.5 270.068Z" fill="#6D6C6C"/>
<path d="M732.175 299.291C731.725 298.392 731.65 297.044 732.4 296.324C732.175 296.414 732.025 296.504 731.8 296.594H732.025C731.8 296.504 731.65 296.414 731.425 296.324C732.175 297.044 731.575 299.831 731.275 300.64C731.425 300.46 731.575 300.37 731.8 300.191C731.725 300.191 731.65 300.281 731.65 300.281C731.875 300.281 732.1 300.37 732.325 300.37C731.875 300.101 731.95 298.662 732.025 298.302C732.1 297.493 732.25 296.774 732.55 296.144C732.175 296.234 731.8 296.414 731.425 296.504C731.8 296.864 731.875 297.583 731.8 298.123C731.8 298.392 731.725 298.662 731.65 298.842C731.575 299.291 731.425 299.291 731.8 299.381C731.95 299.561 732.1 299.651 732.325 299.831C732.325 299.741 732.25 299.741 732.25 299.651C731.575 298.662 730.15 299.651 730.825 300.64C731.2 301.18 731.725 301.539 732.325 301.27C733 301 733.225 300.191 733.375 299.471C733.75 297.673 733.75 295.875 732.4 294.706C732.025 294.346 731.425 294.616 731.275 295.065C730.525 296.864 730.075 299.651 731.05 301.449C731.425 302.169 732.25 302.528 732.85 301.989C733.525 301.36 733.6 299.741 733.675 298.842C733.825 297.493 733.6 293.627 731.65 294.796C730.075 295.785 730.225 298.842 730.975 300.37C731.275 301.449 732.775 300.37 732.175 299.291Z" fill="#202020"/>
<path d="M728.723 290.12C732.698 289.31 736.073 291.918 739.148 294.705C740.048 295.515 740.873 293.716 739.973 292.997C736.523 289.85 732.773 287.422 728.273 288.231C727.223 288.321 727.673 290.299 728.723 290.12Z" fill="#202020"/>
<path d="M733.225 322.49C734.05 323.12 734.8 323.929 735.475 324.828C736.225 325.817 737.425 324.379 736.675 323.39C735.925 322.4 735.025 321.501 734.05 320.692C733.15 319.973 732.325 321.771 733.225 322.49Z" fill="#202020"/>
</svg>
