<svg width="861" height="15" viewBox="0 0 861 15" fill="none" xmlns="http://www.w3.org/2000/svg">
<path d="M14.1757 7.23252C14.1757 11.2269 11.2269 14.465 7.23252 14.465C2.60371 13.3078 0 11.2269 0 7.23252C1.1572 3.18231 3.23811 0 7.23252 0C11.572 0.289301 14.1757 3.23811 14.1757 7.23252Z" fill="#D73F3B"/>
<path d="M101.703 7.23252C101.703 11.2269 98.7543 14.465 94.7599 14.465C90.131 13.3078 87.5273 11.2269 87.5273 7.23252C88.6845 3.18231 90.7655 0 94.7599 0C99.0994 0.289301 101.703 3.23811 101.703 7.23252Z" fill="#D73F3B"/>
<path d="M72.5273 7.23252C72.5273 11.2269 69.5785 14.465 65.5841 14.465C60.9553 13.3078 58.3516 11.2269 58.3516 7.23252C59.5088 3.18231 61.5897 0 65.5841 0C69.9236 0.289301 72.5273 3.23811 72.5273 7.23252Z" fill="#D73F3B"/>
<path d="M43.3515 7.23252C43.3515 11.2269 40.4027 14.465 36.4083 14.465C31.7795 13.3078 29.1758 11.2269 29.1758 7.23252C30.333 3.18231 32.4139 0 36.4083 0C40.7478 0.289301 43.3515 3.23811 43.3515 7.23252Z" fill="#D73F3B"/>
<path d="M130.879 7.23252C130.879 11.2269 127.93 14.465 123.936 14.465C119.307 13.3078 116.703 11.2269 116.703 7.23252C117.86 3.18231 119.941 0 123.936 0C128.275 0.289301 130.879 3.23811 130.879 7.23252Z" fill="#D73F3B"/>
<path d="M218.406 7.23252C218.406 11.2269 215.457 14.465 211.463 14.465C206.834 13.3078 204.23 11.2269 204.23 7.23252C205.388 3.18231 207.469 0 211.463 0C215.802 0.289301 218.406 3.23811 218.406 7.23252Z" fill="#D73F3B"/>
<path d="M189.23 7.23252C189.23 11.2269 186.282 14.465 182.287 14.465C177.658 13.3078 175.055 11.2269 175.055 7.23252C176.212 3.18231 178.293 0 182.287 0C186.627 0.289301 189.23 3.23811 189.23 7.23252Z" fill="#D73F3B"/>
<path d="M160.055 7.23252C160.055 11.2269 157.106 14.465 153.111 14.465C148.483 13.3078 145.879 11.2269 145.879 7.23252C147.036 3.18231 149.117 0 153.111 0C157.451 0.289301 160.055 3.23811 160.055 7.23252Z" fill="#D73F3B"/>
<path d="M247.582 7.23252C247.582 11.2269 244.633 14.465 240.639 14.465C236.01 13.3078 233.406 11.2269 233.406 7.23252C234.563 3.18231 236.644 0 240.639 0C244.978 0.289301 247.582 3.23811 247.582 7.23252Z" fill="#D73F3B"/>
<path d="M335.109 7.23252C335.109 11.2269 332.161 14.465 328.166 14.465C323.537 13.3078 320.934 11.2269 320.934 7.23252C322.091 3.18231 324.172 0 328.166 0C332.506 0.289301 335.109 3.23811 335.109 7.23252Z" fill="#D73F3B"/>
<path d="M305.934 7.23252C305.934 11.2269 302.985 14.465 298.99 14.465C294.362 13.3078 291.758 11.2269 291.758 7.23252C292.915 3.18231 294.996 0 298.99 0C303.33 0.289301 305.934 3.23811 305.934 7.23252Z" fill="#D73F3B"/>
<path d="M276.758 7.23252C276.758 11.2269 273.809 14.465 269.815 14.465C265.186 13.3078 262.582 11.2269 262.582 7.23252C263.739 3.18231 265.82 0 269.815 0C274.154 0.289301 276.758 3.23811 276.758 7.23252Z" fill="#D73F3B"/>
<path d="M364.285 7.23252C364.285 11.2269 361.336 14.465 357.342 14.465C352.713 13.3078 350.109 11.2269 350.109 7.23252C351.267 3.18231 353.347 0 357.342 0C361.681 0.289301 364.285 3.23811 364.285 7.23252Z" fill="#D73F3B"/>
<path d="M451.812 7.23252C451.812 11.2269 448.864 14.465 444.869 14.465C440.24 13.3078 437.637 11.2269 437.637 7.23252C438.794 3.18231 440.875 0 444.869 0C449.209 0.289301 451.812 3.23811 451.812 7.23252Z" fill="#D73F3B"/>
<path d="M422.637 7.23252C422.637 11.2269 419.688 14.465 415.693 14.465C411.065 13.3078 408.461 11.2269 408.461 7.23252C409.618 3.18231 411.699 0 415.693 0C420.033 0.289301 422.637 3.23811 422.637 7.23252Z" fill="#D73F3B"/>
<path d="M393.461 7.23252C393.461 11.2269 390.512 14.465 386.518 14.465C381.889 13.3078 379.285 11.2269 379.285 7.23252C380.442 3.18231 382.523 0 386.518 0C390.857 0.289301 393.461 3.23811 393.461 7.23252Z" fill="#D73F3B"/>
<path d="M480.988 7.23252C480.988 11.2269 478.039 14.465 474.045 14.465C469.416 13.3078 466.812 11.2269 466.812 7.23252C467.97 3.18231 470.051 0 474.045 0C478.385 0.289301 480.988 3.23811 480.988 7.23252Z" fill="#D73F3B"/>
<path d="M568.516 7.23252C568.516 11.2269 565.567 14.465 561.572 14.465C556.944 13.3078 554.34 11.2269 554.34 7.23252C555.497 3.18231 557.578 0 561.572 0C565.912 0.289301 568.516 3.23811 568.516 7.23252Z" fill="#D73F3B"/>
<path d="M539.34 7.23252C539.34 11.2269 536.391 14.465 532.397 14.465C527.768 13.3078 525.164 11.2269 525.164 7.23252C526.321 3.18231 528.402 0 532.397 0C536.736 0.289301 539.34 3.23811 539.34 7.23252Z" fill="#D73F3B"/>
<path d="M510.164 7.23252C510.164 11.2269 507.215 14.465 503.221 14.465C498.592 13.3078 495.988 11.2269 495.988 7.23252C497.145 3.18231 499.226 0 503.221 0C507.56 0.289301 510.164 3.23811 510.164 7.23252Z" fill="#D73F3B"/>
<path d="M597.691 7.23252C597.691 11.2269 594.743 14.465 590.748 14.465C586.119 13.3078 583.516 11.2269 583.516 7.23252C584.673 3.18231 586.754 0 590.748 0C595.088 0.289301 597.691 3.23811 597.691 7.23252Z" fill="#D73F3B"/>
<path d="M685.219 7.23252C685.219 11.2269 682.27 14.465 678.275 14.465C673.647 13.3078 671.043 11.2269 671.043 7.23252C672.2 3.18231 674.281 0 678.275 0C682.615 0.289301 685.219 3.23811 685.219 7.23252Z" fill="#D73F3B"/>
<path d="M656.043 7.23252C656.043 11.2269 653.094 14.465 649.1 14.465C644.471 13.3078 641.867 11.2269 641.867 7.23252C643.024 3.18231 645.105 0 649.1 0C653.439 0.289301 656.043 3.23811 656.043 7.23252Z" fill="#D73F3B"/>
<path d="M626.867 7.23252C626.867 11.2269 623.918 14.465 619.924 14.465C615.295 13.3078 612.691 11.2269 612.691 7.23252C613.849 3.18231 615.93 0 619.924 0C624.263 0.289301 626.867 3.23811 626.867 7.23252Z" fill="#D73F3B"/>
<path d="M772.746 7.23252C772.746 11.2269 769.797 14.465 765.803 14.465C761.174 13.3078 758.57 11.2269 758.57 7.23252C759.728 3.18231 761.808 0 765.803 0C770.142 0.289301 772.746 3.23811 772.746 7.23252Z" fill="#D73F3B"/>
<path d="M743.57 7.23252C743.57 11.2269 740.621 14.465 736.627 14.465C731.998 13.3078 729.395 11.2269 729.395 7.23252C730.552 3.18231 732.633 0 736.627 0C740.967 0.289301 743.57 3.23811 743.57 7.23252Z" fill="#D73F3B"/>
<path d="M714.394 7.23252C714.394 11.2269 711.446 14.465 707.451 14.465C702.822 13.3078 700.219 11.2269 700.219 7.23252C701.376 3.18231 703.457 0 707.451 0C711.791 0.289301 714.394 3.23811 714.394 7.23252Z" fill="#D73F3B"/>
<path d="M860.273 7.23252C860.273 11.2269 857.325 14.465 853.33 14.465C848.701 13.3078 846.098 11.2269 846.098 7.23252C847.255 3.18231 849.336 0 853.33 0C857.67 0.289301 860.273 3.23811 860.273 7.23252Z" fill="#D73F3B"/>
<path d="M831.098 7.23252C831.098 11.2269 828.149 14.465 824.154 14.465C819.526 13.3078 816.922 11.2269 816.922 7.23252C818.079 3.18231 820.16 0 824.154 0C828.494 0.289301 831.098 3.23811 831.098 7.23252Z" fill="#D73F3B"/>
<path d="M801.922 7.23252C801.922 11.2269 798.973 14.465 794.979 14.465C790.35 13.3078 787.746 11.2269 787.746 7.23252C788.903 3.18231 790.984 0 794.979 0C799.318 0.289301 801.922 3.23811 801.922 7.23252Z" fill="#D73F3B"/>
</svg>
