<svg width="85" height="78" viewBox="0 0 85 78" fill="none" xmlns="http://www.w3.org/2000/svg">
<path d="M42.3008 65.5205C26.3951 65.5205 13.5352 53.6645 13.5352 39.0005C13.5352 24.3365 26.3951 12.4805 42.3008 12.4805C58.2065 12.4805 71.0664 24.3365 71.0664 39.0005C71.0664 53.6645 58.2065 65.5205 42.3008 65.5205ZM42.3008 15.6005C28.2564 15.6005 16.9193 26.0525 16.9193 39.0005C16.9193 51.9485 28.2564 62.4005 42.3008 62.4005C56.3452 62.4005 67.6823 51.9485 67.6823 39.0005C67.6823 26.0525 56.3452 15.6005 42.3008 15.6005Z" fill="black"/>
<path d="M33.8438 52.5717V25.4277L59.2252 38.9997L33.8438 52.5717ZM37.2279 30.7317V47.1117L52.4568 38.8437L37.2279 30.7317Z" fill="black"/>
</svg>
