<svg width="1032" height="488" viewBox="0 0 1032 488" fill="none" xmlns="http://www.w3.org/2000/svg">
<path d="M845.391 96.3223C846.76 97.2477 849.059 97.7014 846.068 99.4438C844.478 100.37 846.055 102.892 844.753 104.842C844.054 105.888 843.253 107.871 842.617 109.462C842.201 110.505 840.995 111.284 841.997 112.578C842.306 112.976 842.356 113.456 841.834 113.648C839.166 114.625 839.682 117.085 839.3 119.015C837.735 126.9 836.757 134.93 837.082 142.901C837.546 154.291 838.74 165.676 841.614 176.801C841.668 177.011 841.854 177.246 841.801 177.415C841.3 178.998 845.858 180.336 842.149 181.974C837.087 184.21 834.678 183.712 833.024 179.98C831.078 175.59 829.327 171.106 827.753 166.575C822.049 150.158 821.695 133.347 824.779 116.487C826.856 105.132 831.885 94.8215 838.739 85.4275C844.023 78.185 849.7 71.2475 857.018 65.8127C859.565 63.9205 862.151 61.9128 865.044 60.6935C866.561 60.0546 867.815 59.1411 869.148 58.5316C874.322 56.1622 878.944 52.3744 885.13 52.2339C886.64 52.1997 887.864 50.5767 889.658 50.0563C906.58 45.1449 922.883 46.596 938.019 55.2804C952.799 63.7598 966.366 73.8917 976.83 87.4653C979.183 90.5176 980.632 93.9448 982.204 97.4234C984.01 101.419 985.213 105.703 987.61 109.455C988.123 110.258 988.684 111.206 988.711 112.103C988.865 117.477 990.674 122.59 991.155 127.926C991.641 133.91 991.524 139.926 990.804 145.886C990.282 150.623 990.396 155.453 990.106 160.206C989.752 166.005 987.354 171.479 985.268 176.939C983.345 181.975 980.585 186.571 977.842 191.193C977.389 191.954 977.323 192.834 976.083 192.679C975.875 192.676 975.669 192.722 975.483 192.814C975.298 192.906 975.139 193.041 975.019 193.208C971.776 201.37 962.485 208.219 955.384 211.162C946.46 214.861 937.131 217.303 927.486 217.445C919.646 217.537 911.891 215.844 904.836 212.502C899.274 209.91 893.647 207.5 888.29 204.483C880.841 200.289 876.462 193.855 873.636 186.242C871.301 179.831 869.329 173.299 867.731 166.677C866.088 160.043 868.22 153.934 870.616 148.122C873.514 141.116 877.638 134.655 882.803 129.028C886.236 125.145 891.053 122.68 896.28 122.134C903.691 121.278 910.939 122.179 918.104 124.054C924.093 125.621 928.924 129.382 934.248 132.2C935.514 132.87 935.684 134.223 934.694 135.576C933.854 136.722 933.599 137.954 935.368 138.657C935.513 138.487 935.588 138.41 935.649 138.325C936.44 137.201 934.408 135.315 936.409 134.709C938.221 134.161 939.432 135.678 940.622 136.809C945.629 141.568 948.682 147.29 948.972 154.143C949.212 159.822 950.105 165.415 947.893 171.158C943.428 182.754 936.953 185.058 925.14 186.609C921.258 187.119 917.808 185.434 914.255 184.274C903.661 180.817 903.263 170.564 908.788 163.884C910.935 166.818 907.344 169.948 909.176 173.456C910.385 170.637 910.23 168.128 910.858 165.802C911.137 164.766 911.319 162.69 912.535 163.171C913.98 163.743 916.018 162.258 917.203 165.372C918.467 168.691 919.807 172.306 922.016 175.335C923.897 177.914 927.086 177.91 928.861 175.388C933.829 168.331 935.717 160.318 934.965 152.021C934.48 146.661 930.794 142.337 926.264 139.238C921.5 135.979 916.797 132.525 911.037 130.913C909.307 130.429 902.587 129.268 900.793 129.694C899.434 130.026 898.228 130.791 897.365 131.867C896.887 132.438 896.714 133.873 895.19 132.811C894.464 132.305 893.438 133.473 893.95 133.96C895.666 135.598 894.032 136.61 893.342 137.534C889.551 142.604 887.576 148.58 884.623 154.062C883.996 155.215 883.703 156.513 883.776 157.816C883.849 159.119 884.286 160.379 885.038 161.458C885.764 162.431 886.099 163.63 885.978 164.827C885.13 170.571 888.426 174.972 890.632 179.796C891.94 182.657 891.871 186.004 893.768 188.794C896.826 193.269 901.023 196.893 905.947 199.308C911.35 202.012 916.897 204.583 922.79 206.145C931.315 208.405 938.853 205.604 946.079 201.405C948.875 199.781 950.63 196.732 954.233 196.038C954.796 195.93 955.363 193.05 956.391 191.565C966.147 177.467 970.969 161.694 973.253 144.955C974.72 134.198 973.055 123.906 970.075 113.65C965.551 98.077 955.358 86.3281 943.157 76.056C937.065 70.8376 930.577 66.0776 923.748 61.8169C913.859 55.762 903.671 55.0569 892.819 59.277C887.859 61.2061 882.963 63.3649 878.032 65.3237C876.043 66.1133 873.055 67.3943 871.483 70.3646C870.117 72.9453 866.655 74.5018 864.459 76.9462C862.099 79.5761 858.786 81.3566 857.201 84.7139C856.792 85.5804 856.417 85.5449 856.018 84.5641C855.974 84.4369 855.886 84.3284 855.769 84.2565C855.653 84.1845 855.515 84.1534 855.378 84.1682C855.241 84.183 855.114 84.2428 855.017 84.3379C854.919 84.433 854.858 84.5576 854.843 84.6912C855.01 88.6068 850.502 90.3723 850.456 94.4135C850.426 96.8524 847.169 94.9928 845.391 96.3223ZM832.642 104.998C825.844 111.733 823.706 148.548 828.685 158.142C826.909 140.203 826.516 122.371 832.642 104.998ZM970.547 175.994C971.663 173.333 972.914 170.718 973.871 168.004C977.7 157.14 978.825 145.804 979.596 134.445C979.662 133.479 979.616 131.012 976.929 130.963C978.533 146.534 974.308 161.184 970.547 175.994ZM936.03 170.524C936.596 169.182 937.092 167.807 937.742 166.506C939.766 162.452 938.809 158.036 939.394 153.809C939.444 153.424 939.34 153.034 939.102 152.722C938.865 152.409 938.513 152.199 938.12 152.135C937.107 151.99 937.165 152.877 937.302 153.47C938.637 159.255 936.678 164.697 936.03 170.524ZM873.722 151.615C871.563 154.671 871.167 158.094 871.475 161.663C873.316 158.541 873.158 155.003 873.722 151.615ZM838.676 114.107C837.905 115.017 837.393 115.691 836.808 116.298C836.016 117.12 836.105 118.02 836.475 118.949C836.633 119.345 837.015 119.828 837.425 119.549C838.177 119.038 838.303 118.214 838.231 117.311C838.157 116.394 839.249 115.683 838.676 114.107Z" fill="#EDEAEA"/>
<path d="M905.043 419.585C902.333 419.627 899.661 419.198 896.938 419.349C896.508 419.373 895.74 419.283 895.659 419.135C894.848 417.653 892.142 417.831 890.624 416.873C889.28 416.024 889.158 415.352 889.807 414.495C892.31 411.176 894.512 407.782 896.556 404.347C897.094 403.443 897.623 402.532 898.017 401.601C898.394 400.709 899.628 400.424 900.705 400.177C901.873 399.909 902.011 400.788 902.631 401.164C905.544 402.926 905.63 405.312 906.483 407.534C907.581 410.398 908.57 413.281 909.816 416.121C910.853 418.484 909.636 419.964 905.043 419.585Z" fill="#EDEAEA"/>
<path d="M875.384 373.13C875.468 374.348 874.212 375.197 872.012 375.357C868.95 375.58 865.89 375.838 862.817 375.968C860.012 376.087 858.539 374.664 857.139 373.55C856.176 372.784 856.833 371.685 857.825 370.77C861.145 367.707 863.61 364.364 865.868 360.959C866.261 360.366 866.674 359.82 867.909 359.721C869.249 359.614 869.515 360.241 870.133 360.737C871.981 362.219 872.38 364.003 873.09 365.727C874.093 368.165 875.046 370.612 875.384 373.13Z" fill="#EDEAEA"/>
<path d="M868.955 400.389C868.955 401.929 869.625 403.136 867.298 403.83C866.746 403.995 866.257 404.219 865.678 404.156C863.076 403.875 860.535 403.965 858.159 404.697C856.3 405.269 855.255 404.823 853.876 403.979C851.227 402.36 851.163 401.709 852.829 399.704C855.495 396.5 858.518 393.383 860.175 389.882C860.394 389.367 860.698 388.869 861.082 388.393C861.912 387.434 863.418 387.416 864.567 388.228C866.989 389.941 867.264 392.094 867.777 394.179C868.321 396.378 868.625 398.599 868.955 400.389Z" fill="#EDEAEA"/>
<path d="M870.747 457.176C868.116 456.991 866.006 456.1 864.163 455.025C863.496 454.635 863.567 453.844 864.054 453.233C865.687 451.183 866.325 448.908 868.029 446.837C868.833 445.859 869.17 444.497 869.76 443.322C870.176 442.495 870.844 441.58 872.444 441.504C874.045 441.429 874.884 442.336 875.558 443.044C877.281 444.851 877.858 446.93 878.539 448.95C879.283 451.16 879.762 453.405 880.285 455.642C880.494 456.536 879.529 457.101 879.67 457.911C879.745 458.342 878.864 458.405 878.027 458.259C875.626 457.841 873.177 457.529 870.747 457.176Z" fill="#EDEAEA"/>
<path d="M834.425 385.441C834.431 386.884 833.218 387.558 830.675 387.272C828.591 387.038 826.519 387.168 824.486 387.178C821.974 387.189 820.324 386.504 818.621 385.579C817.05 384.727 816.971 383.738 817.871 382.727C820.733 379.513 823.098 376.138 824.936 372.647C825.654 371.283 827.141 371.2 828.691 372.279C829.737 372.999 830.527 373.847 831.01 374.768C832.757 378.24 833.901 381.818 834.425 385.441Z" fill="#EDEAEA"/>
<path d="M792.955 398.384C791.162 398.331 789.621 398.366 788.063 398.202C784.354 397.812 783.178 397.128 783.784 394.859C784.557 391.959 785.101 389.018 786.581 386.203C786.849 385.597 787.258 385.019 787.795 384.487C788.794 383.605 790.049 383.34 791.491 384.218C792.755 384.939 793.802 385.793 794.587 386.74C796.655 389.497 798.411 392.341 799.84 395.25C800.028 395.589 800.084 395.951 800.003 396.307C799.923 396.662 799.709 397 799.378 397.295C799.047 397.589 798.609 397.83 798.1 398C797.591 398.169 797.024 398.261 796.446 398.269C795.202 398.297 793.959 398.352 792.955 398.384Z" fill="#EDEAEA"/>
<path d="M831.425 444.52C829.813 444.73 828.291 445.031 826.594 444.823C824.092 444.517 821.286 442.196 822.078 440.75C823.836 437.54 824.896 434.215 826.492 430.981C826.855 430.243 827.111 429.419 828.683 429.3C830.264 429.18 830.902 429.943 831.443 430.619C834.165 434.008 835.952 437.619 837.741 441.222C838.27 442.286 837.667 443.129 835.92 443.741C834.455 444.254 832.738 443.896 831.425 444.52Z" fill="#EDEAEA"/>
<path d="M798.278 368.751C798.533 371.559 796.52 372.827 791.98 373.373C789.601 373.659 787.906 373.023 786.072 372.54C783.937 371.977 783.136 370.972 783.762 369.385C784.567 367.344 785.991 365.471 787.178 363.535C788.149 361.953 789.092 360.37 789.931 358.758C790.598 357.477 791.442 357.523 793.148 358.11C796.098 359.124 796.69 360.817 797.131 362.568C797.648 364.616 797.907 366.688 798.278 368.751Z" fill="#EDEAEA"/>
<path d="M776.316 431.27C776.34 430.246 776.808 429.244 777.672 428.372C779.745 426.141 781.227 423.749 782.774 421.374C784.03 419.447 784.305 419.598 786.911 420.629C789.622 421.703 790.302 423.297 791.192 424.897C792.157 426.634 792.985 428.407 793.673 430.194C794.301 431.822 793.77 432.157 791.258 432.693C788.941 433.187 786.807 433.975 784.254 434.078C783.035 434.127 782.484 433.889 782.119 433.235C781.79 432.644 781.069 432.686 780.297 432.885C778.205 433.425 776.313 432.655 776.316 431.27Z" fill="#EDEAEA"/>
<path d="M793.048 462.285C790.176 462.091 787.682 462.005 785.239 461.74C781.22 461.304 779.513 459.458 780.374 456.944C781.232 454.44 782.039 451.937 783.633 449.56C784.928 447.629 786.449 447.379 788.699 448.872C789.704 449.545 790.51 450.323 791.079 451.171C792.975 454.022 794.979 456.856 795.955 459.909C796.482 461.563 795.432 462.326 793.048 462.285Z" fill="#EDEAEA"/>
<path d="M761.479 393.775C761.556 395.954 760.72 396.334 757.721 396.297C756.015 396.277 754.296 396.626 752.583 396.81C749.912 397.098 745.861 395.643 745.151 394.233C745.033 394.034 744.98 393.823 744.995 393.611C745.01 393.399 745.092 393.191 745.238 392.999C747.31 390.073 749.334 387.134 751.424 384.213C752.337 382.939 753.392 382.835 755.098 383.791C758.935 385.937 759.732 388.96 761.039 391.825C761.273 392.466 761.42 393.119 761.479 393.775ZM755.585 391.195C754.915 390.806 755.897 389.788 754.386 389.529C753.857 389.438 753.525 389.984 753.72 390.3C754.082 390.888 753.749 391.756 755.049 391.986C755.685 392.098 755.586 391.639 755.585 391.194V391.195Z" fill="#EDEAEA"/>
<path d="M734.777 420.336C735.322 416.987 737.053 413.834 738.902 410.716C739.692 409.383 740.744 409.359 742.576 410.248C744.132 411.001 745.152 412.103 745.419 413.317C746.139 416.18 746.728 419.056 747.28 421.933C747.513 423.147 746.281 423.768 744.317 424.019C741.185 424.42 738.691 423.65 736.254 422.656C734.916 422.112 734.94 421.194 734.777 420.336Z" fill="#EDEAEA"/>
<path d="M825.207 419.023C824.359 418.98 823.384 418.746 823.017 418.945C821.727 419.645 820.157 419.164 818.737 419.486C817.222 419.828 814.914 417.512 815.096 416.355C815.367 414.641 817.753 413.557 818.138 411.837C818.519 410.139 819.613 408.5 820.441 406.844C820.526 406.604 820.737 406.389 821.041 406.233C821.345 406.076 821.724 405.987 822.119 405.979C823.105 405.947 823.626 406.223 824.077 406.777C826.567 409.845 827.892 413.178 829.793 416.379C830.841 418.146 828.227 418.769 825.207 419.023Z" fill="#EDEAEA"/>
<path d="M869.457 426.389C870.11 428.187 866.918 429.165 864.81 428.833C863.828 428.679 863.033 428.475 861.843 428.824C860.382 429.253 858.171 429.777 857.793 427.864C857.762 427.713 857.129 427.634 856.859 427.47C855.185 426.449 855.134 424.984 856.667 423.824C857.033 423.571 857.324 423.281 857.527 422.966C858.684 420.839 861.227 419.052 861.481 416.702C861.546 416.093 861.911 415.526 863.03 415.416C864.149 415.306 864.697 415.806 865.154 416.343C865.428 416.579 865.665 416.83 865.862 417.093C867.334 420.148 868.535 423.252 869.457 426.389Z" fill="#EDEAEA"/>
<path d="M190.424 62.8704C191.487 61.3476 190.922 59.8058 191.159 58.3824C191.297 57.5532 191.794 56.1719 192.257 56.448C195.538 58.4037 199.961 55.2485 202.762 58.9341C214.131 73.8936 229.452 84.8589 241.871 98.7571C242.743 99.7336 243.678 100.653 244.562 101.619C249.668 107.205 249.666 107.207 243.418 110.822C236.989 114.539 236.361 114.564 230.256 109.605C217.574 99.3011 204.946 88.9248 192.857 77.9034C189.087 74.4666 185.665 70.6641 184.827 65.278C184.579 63.8259 184.535 62.3453 184.698 60.8807C184.862 59.62 185.279 58.0211 186.804 57.8991C188.386 57.7722 188.128 59.4323 188.458 60.4509C188.755 61.3843 188.991 62.3567 190.424 62.8704Z" fill="#EDEAEA"/>
<path d="M141.188 116.9C147.544 117.312 152.96 120.277 158.269 123.527C169.797 130.586 180.13 139.467 191.886 146.183C194.159 147.482 194.138 148.677 192.054 150.651C186.001 156.387 180.119 153.79 174.424 150.519C162.995 143.956 151.748 137.065 140.392 130.37C137.449 128.635 134.394 127.092 131.36 125.522C129.605 124.616 129.339 123.077 129.47 121.358C129.604 119.579 130.711 119.128 132.353 118.705C135.276 117.952 138.09 116.787 141.188 116.9Z" fill="#EDEAEA"/>
<path d="M134.431 215.473C127.771 215.473 121.115 215.505 114.458 215.455C112.339 215.44 110.101 215.424 109.44 212.642C108.836 210.103 111.101 209.899 112.382 208.809C114.851 206.709 117.74 205.741 120.815 205.259C134.193 203.162 147.582 202.263 161.006 204.942C162.459 205.232 163.999 205.197 164.648 206.848C165.382 208.716 163.585 209.222 162.82 210.366C159.251 215.709 154.005 215.71 148.543 215.539C143.843 215.391 139.135 215.508 134.431 215.508V215.473Z" fill="#EDEAEA"/>
</svg>
