<svg width="269" height="78" viewBox="0 0 269 78" fill="none" xmlns="http://www.w3.org/2000/svg">
<path d="M42.3008 65.5205C26.3951 65.5205 13.5352 53.6645 13.5352 39.0005C13.5352 24.3365 26.3951 12.4805 42.3008 12.4805C58.2065 12.4805 71.0664 24.3365 71.0664 39.0005C71.0664 53.6645 58.2065 65.5205 42.3008 65.5205ZM42.3008 15.6005C28.2564 15.6005 16.9193 26.0525 16.9193 39.0005C16.9193 51.9485 28.2564 62.4005 42.3008 62.4005C56.3452 62.4005 67.6823 51.9485 67.6823 39.0005C67.6823 26.0525 56.3452 15.6005 42.3008 15.6005Z" fill="#202020"/>
<path d="M33.8438 52.5717V25.4277L59.2252 38.9997L33.8438 52.5717ZM37.2279 30.7317V47.1117L52.4568 38.8437L37.2279 30.7317Z" fill="#202020"/>
<path d="M98.3437 46L94.1079 30.7273H96.5316L99.5071 42.5547H99.6488L102.744 30.7273H105.145L108.24 42.5621H108.381L111.349 30.7273H113.78L109.537 46H107.218L104.004 34.5604H103.885L100.67 46H98.3437ZM117.908 46.2536C117.182 46.2536 116.526 46.1193 115.939 45.8509C115.353 45.5774 114.888 45.1822 114.545 44.6651C114.207 44.1481 114.038 43.5142 114.038 42.7635C114.038 42.1172 114.162 41.5852 114.411 41.1676C114.659 40.75 114.995 40.4194 115.417 40.1758C115.84 39.9322 116.312 39.7482 116.834 39.6239C117.356 39.4996 117.888 39.4052 118.43 39.3406C119.116 39.261 119.673 39.1964 120.101 39.1467C120.528 39.092 120.839 39.005 121.033 38.8857C121.227 38.7663 121.324 38.5724 121.324 38.304V38.2518C121.324 37.6005 121.14 37.0959 120.772 36.7379C120.409 36.38 119.867 36.201 119.146 36.201C118.395 36.201 117.804 36.3675 117.371 36.7006C116.944 37.0288 116.648 37.3942 116.484 37.7969L114.388 37.3196C114.637 36.6236 115 36.0618 115.477 35.6342C115.959 35.2017 116.514 34.8885 117.14 34.6946C117.766 34.4957 118.425 34.3963 119.116 34.3963C119.574 34.3963 120.058 34.451 120.57 34.5604C121.087 34.6648 121.57 34.8587 122.017 35.142C122.47 35.4254 122.84 35.8306 123.128 36.3576C123.417 36.8796 123.561 37.5582 123.561 38.3935V46H121.383V44.4339H121.294C121.15 44.7223 120.933 45.0057 120.645 45.2841C120.357 45.5625 119.986 45.7937 119.534 45.9776C119.081 46.1616 118.54 46.2536 117.908 46.2536ZM118.393 44.4638C119.009 44.4638 119.536 44.342 119.974 44.0984C120.416 43.8548 120.752 43.5366 120.981 43.1438C121.214 42.7461 121.331 42.321 121.331 41.8686V40.392C121.252 40.4716 121.097 40.5462 120.869 40.6158C120.645 40.6804 120.389 40.7376 120.101 40.7873C119.812 40.832 119.531 40.8743 119.258 40.9141C118.985 40.9489 118.756 40.9787 118.572 41.0036C118.139 41.0582 117.744 41.1502 117.386 41.2795C117.033 41.4087 116.75 41.5952 116.536 41.8388C116.327 42.0774 116.223 42.3956 116.223 42.7933C116.223 43.3452 116.427 43.7628 116.834 44.0462C117.242 44.3246 117.761 44.4638 118.393 44.4638ZM131.878 34.5455V36.3352H125.621V34.5455H131.878ZM127.299 31.8011H129.529V42.6367C129.529 43.0692 129.593 43.3949 129.723 43.6136C129.852 43.8274 130.018 43.9741 130.222 44.0536C130.431 44.1282 130.657 44.1655 130.901 44.1655C131.08 44.1655 131.236 44.1531 131.371 44.1282C131.505 44.1033 131.609 44.0835 131.684 44.0685L132.087 45.9105C131.957 45.9602 131.773 46.0099 131.535 46.0597C131.296 46.1143 130.998 46.1442 130.64 46.1491C130.053 46.1591 129.506 46.0547 128.999 45.8359C128.492 45.6172 128.082 45.2791 127.769 44.8217C127.455 44.3643 127.299 43.7901 127.299 43.0991V31.8011ZM139.046 46.2312C137.937 46.2312 136.983 45.9801 136.182 45.478C135.387 44.9709 134.776 44.2724 134.348 43.3825C133.92 42.4925 133.707 41.4734 133.707 40.3249C133.707 39.1616 133.925 38.1349 134.363 37.245C134.8 36.3501 135.417 35.6516 136.212 35.1495C137.008 34.6474 137.945 34.3963 139.024 34.3963C139.894 34.3963 140.669 34.5579 141.35 34.881C142.032 35.1992 142.581 35.6467 142.999 36.2234C143.421 36.8001 143.672 37.4737 143.752 38.2443H141.582C141.462 37.7074 141.189 37.245 140.761 36.8572C140.339 36.4695 139.772 36.2756 139.061 36.2756C138.44 36.2756 137.895 36.4396 137.428 36.7678C136.966 37.0909 136.605 37.5533 136.347 38.1548C136.088 38.7514 135.959 39.4574 135.959 40.2727C135.959 41.108 136.086 41.8288 136.339 42.4354C136.593 43.0419 136.951 43.5117 137.413 43.8448C137.88 44.1779 138.43 44.3445 139.061 44.3445C139.484 44.3445 139.866 44.2674 140.209 44.1133C140.557 43.9542 140.848 43.728 141.082 43.4347C141.321 43.1413 141.487 42.7884 141.582 42.3757H143.752C143.672 43.1165 143.431 43.7777 143.028 44.3594C142.626 44.9411 142.086 45.3984 141.41 45.7315C140.739 46.0646 139.951 46.2312 139.046 46.2312ZM148.366 39.1989V46H146.136V30.7273H148.336V36.4098H148.478C148.746 35.7933 149.156 35.3036 149.708 34.9407C150.26 34.5778 150.981 34.3963 151.871 34.3963C152.656 34.3963 153.343 34.5579 153.929 34.881C154.521 35.2042 154.978 35.6864 155.301 36.3278C155.629 36.9641 155.794 37.7596 155.794 38.7141V46H153.564V38.9826C153.564 38.1424 153.348 37.4911 152.915 37.0288C152.482 36.5614 151.881 36.3278 151.11 36.3278C150.583 36.3278 150.111 36.4396 149.693 36.6634C149.281 36.8871 148.955 37.2152 148.716 37.6477C148.483 38.0753 148.366 38.5923 148.366 39.1989ZM165.841 30.7273L170.091 43.1662H170.263L174.513 30.7273H177.004L171.508 46H168.846L163.35 30.7273H165.841ZM179.031 46V34.5455H181.261V46H179.031ZM180.157 32.7781C179.769 32.7781 179.436 32.6488 179.158 32.3903C178.884 32.1268 178.747 31.8136 178.747 31.4506C178.747 31.0827 178.884 30.7695 179.158 30.511C179.436 30.2475 179.769 30.1158 180.157 30.1158C180.545 30.1158 180.875 30.2475 181.149 30.511C181.427 30.7695 181.566 31.0827 181.566 31.4506C181.566 31.8136 181.427 32.1268 181.149 32.3903C180.875 32.6488 180.545 32.7781 180.157 32.7781ZM188.548 46.2237C187.624 46.2237 186.798 45.9876 186.072 45.5153C185.352 45.038 184.785 44.3594 184.372 43.4794C183.964 42.5945 183.761 41.533 183.761 40.2951C183.761 39.0572 183.967 37.9982 184.38 37.1183C184.797 36.2383 185.369 35.5646 186.095 35.0973C186.821 34.63 187.643 34.3963 188.563 34.3963C189.274 34.3963 189.846 34.5156 190.278 34.7543C190.716 34.9879 191.054 35.2614 191.293 35.5746C191.536 35.8878 191.725 36.1637 191.859 36.4023H191.994V30.7273H194.223V46H192.046V44.2177H191.859C191.725 44.4613 191.531 44.7397 191.278 45.0529C191.029 45.3661 190.686 45.6396 190.249 45.8732C189.811 46.1069 189.244 46.2237 188.548 46.2237ZM189.04 44.3221C189.682 44.3221 190.224 44.1531 190.666 43.815C191.114 43.4719 191.452 42.9972 191.68 42.3906C191.914 41.7841 192.031 41.0781 192.031 40.2727C192.031 39.4773 191.917 38.7812 191.688 38.1847C191.459 37.5881 191.124 37.1232 190.681 36.7901C190.239 36.457 189.692 36.2905 189.04 36.2905C188.369 36.2905 187.81 36.4645 187.363 36.8125C186.915 37.1605 186.577 37.6353 186.348 38.2369C186.125 38.8384 186.013 39.517 186.013 40.2727C186.013 41.0384 186.127 41.7269 186.356 42.3384C186.584 42.9499 186.923 43.4347 187.37 43.7926C187.822 44.1456 188.379 44.3221 189.04 44.3221ZM202.343 46.2312C201.214 46.2312 200.242 45.9901 199.427 45.5078C198.616 45.0206 197.99 44.337 197.547 43.457C197.11 42.5721 196.891 41.5355 196.891 40.3473C196.891 39.174 197.11 38.1399 197.547 37.245C197.99 36.3501 198.606 35.6516 199.397 35.1495C200.192 34.6474 201.122 34.3963 202.186 34.3963C202.832 34.3963 203.459 34.5032 204.065 34.717C204.672 34.9308 205.216 35.2663 205.698 35.7237C206.181 36.1811 206.561 36.7752 206.839 37.506C207.118 38.2319 207.257 39.1143 207.257 40.1534V40.9439H198.152V39.2734H205.072C205.072 38.6868 204.953 38.1673 204.714 37.7148C204.475 37.2575 204.14 36.897 203.707 36.6335C203.28 36.37 202.778 36.2383 202.201 36.2383C201.574 36.2383 201.028 36.3924 200.56 36.7006C200.098 37.0039 199.74 37.4016 199.486 37.8938C199.238 38.381 199.114 38.9105 199.114 39.4822V40.7873C199.114 41.5529 199.248 42.2042 199.516 42.7411C199.79 43.2781 200.17 43.6882 200.657 43.9716C201.144 44.25 201.714 44.3892 202.365 44.3892C202.788 44.3892 203.173 44.3295 203.521 44.2102C203.869 44.0859 204.17 43.902 204.423 43.6584C204.677 43.4148 204.871 43.114 205.005 42.756L207.115 43.1364C206.946 43.7578 206.643 44.3022 206.205 44.7695C205.773 45.2319 205.229 45.5923 204.572 45.8509C203.921 46.1044 203.178 46.2312 202.343 46.2312ZM214.556 46.2312C213.482 46.2312 212.545 45.9851 211.744 45.4929C210.944 45.0007 210.323 44.3121 209.88 43.4272C209.438 42.5423 209.216 41.5082 209.216 40.3249C209.216 39.1367 209.438 38.0977 209.88 37.2077C210.323 36.3178 210.944 35.6268 211.744 35.1346C212.545 34.6424 213.482 34.3963 214.556 34.3963C215.63 34.3963 216.567 34.6424 217.367 35.1346C218.168 35.6268 218.789 36.3178 219.232 37.2077C219.674 38.0977 219.895 39.1367 219.895 40.3249C219.895 41.5082 219.674 42.5423 219.232 43.4272C218.789 44.3121 218.168 45.0007 217.367 45.4929C216.567 45.9851 215.63 46.2312 214.556 46.2312ZM214.563 44.3594C215.259 44.3594 215.836 44.1754 216.293 43.8075C216.751 43.4396 217.089 42.9499 217.308 42.3384C217.531 41.7269 217.643 41.0533 217.643 40.3175C217.643 39.5866 217.531 38.9155 217.308 38.304C217.089 37.6875 216.751 37.1928 216.293 36.82C215.836 36.4471 215.259 36.2607 214.563 36.2607C213.862 36.2607 213.281 36.4471 212.818 36.82C212.361 37.1928 212.02 37.6875 211.797 38.304C211.578 38.9155 211.469 39.5866 211.469 40.3175C211.469 41.0533 211.578 41.7269 211.797 42.3384C212.02 42.9499 212.361 43.4396 212.818 43.8075C213.281 44.1754 213.862 44.3594 214.563 44.3594Z" fill="#202020"/>
</svg>
