<svg width="420" height="289" viewBox="0 0 420 289" fill="none" xmlns="http://www.w3.org/2000/svg">
<path d="M232.402 148.177C258.547 133.781 295.451 110.101 299.099 89.4519C299.369 87.9295 299.579 86.4457 299.761 84.9785C299.314 85.7793 298.839 86.5709 298.32 87.3478C288.374 102.324 259.206 127.08 232.402 148.177Z" fill="#D73F3B"/>
<path d="M215.968 156.808C245.604 134.069 283.748 103.066 295.095 85.9822C297.917 81.7476 299.669 77.1106 300.25 72.3356C298.81 46.9439 281.685 33.1242 254.649 36.9422C242.755 38.6248 234.708 43.4848 229.265 48.9744C228.343 50.2299 227.421 51.5259 226.555 52.9011C223.789 57.242 221.485 61.1649 219.606 64.7105C219.108 66.1655 218.705 67.6403 218.399 69.1287C219.487 71.6968 220.445 74.2354 221.277 76.6764C223.195 81.3597 225.308 87.6648 225.305 92.6813C225.368 93.1379 225.423 93.5778 225.462 93.97C225.586 95.3331 225.133 96.6901 224.176 97.823C222.738 100.349 219.772 101.65 214.442 100.673C212.967 100.402 211.974 99.2 211.329 97.4272C210.509 96.557 209.859 95.5924 209.402 94.5664C207.07 89.4119 208.019 81.8218 212.237 71.9011C212.603 69.9185 212.875 68.6722 212.875 68.6722C212.875 68.6722 201.198 42.2164 170.131 39.306C167.737 40.1803 165.46 41.2448 163.333 42.4834C146.941 51.9254 138.437 63.7588 138.064 77.6761C137.35 104.123 165.711 133.573 190.123 153.943C199.62 158.698 206.333 161.46 206.333 161.46C206.333 161.46 210.04 159.771 215.968 156.808Z" fill="#D73F3B"/>
<path d="M161.194 40.116C161.831 39.7478 162.467 39.3992 163.102 39.0703C130.94 40.1288 118.964 72.1478 128.746 102.482C134.277 119.652 157.223 135.786 176.735 146.826C154.99 127.001 133.768 101.446 134.409 77.6153C134.812 62.7334 143.82 50.1158 161.194 40.116Z" fill="#D73F3B"/>
<path d="M89.728 130.408C90.3687 127.722 90.9494 124.869 91.5716 121.848C94.4753 107.603 97.7638 91.4564 108.182 90.3463C110.257 90.1254 111.211 90.6188 111.741 91.0091C114.849 93.3065 114.322 101.114 113.815 108.663C113.384 115.027 112.937 121.609 114.114 127.321C114.764 130.532 115.916 134.175 117.115 138.03C122.129 154.023 128.999 175.927 114.972 204.448L118.375 205.516C132.829 176.124 125.796 153.696 120.659 137.319C119.417 133.361 118.355 129.941 117.709 126.848C116.596 121.449 117.032 115.029 117.451 108.822C118.06 99.8454 118.585 92.0934 114.213 88.8662C112.559 87.6439 110.369 87.1708 107.692 87.4524C94.5859 88.8478 91.0646 106.13 87.9582 121.38C87.3475 124.381 86.769 127.214 86.1376 129.861C84.6789 135.966 81.4779 144.138 78.0073 152.044C77.6755 128.317 76.5578 94.9762 73.0043 79.1444C78.7333 74.1426 93.8185 59.1337 100.278 46.9727C104.746 44.8575 134.085 30.7874 141.936 22.2768C147.714 16.0178 147.983 9.53039 146.315 5.55587C145.147 2.7945 142.967 0.841296 140.323 0.217227L139.402 0L138.655 0.487841C130.455 5.84673 75.9148 37.9007 59.3916 47.5967C54.0399 50.7251 50.0911 55.1466 48.1295 60.207L27.4236 113.244C24.6439 120.414 23.9193 127.991 25.3034 135.415C29.9585 160.303 18.4982 257.068 0 278.986L3.03042 280.617C22.3537 257.713 33.7563 160.855 28.9077 134.983C27.6047 127.995 28.2868 120.863 30.9033 114.114L51.6208 61.0869C53.3516 56.6219 56.8358 52.7207 61.5578 49.9604C82.0955 37.9062 129.831 9.83414 140.097 3.32468C141.224 3.87696 142.218 5.0128 142.844 6.49841C144.227 9.77707 143.941 15.1912 138.994 20.5556C131.112 29.0974 98.2316 44.5611 97.9021 44.7083L97.372 44.9569L97.1416 45.4097C91.3158 56.6963 76.1706 72.2484 69.718 77.6919L69.0774 78.2331L69.2525 78.9695C73.2508 95.8267 74.2049 136.097 74.4354 159.944C69.6374 170.181 65.2934 178.41 65.2174 178.579L65.1413 178.752C62.5695 186.037 67.0517 189.706 69.7803 190.628L70.1628 190.72C70.8206 190.821 71.4983 190.804 72.1466 190.669C72.7949 190.535 73.3973 190.286 73.9099 189.941C77.6663 187.5 78.0742 180.085 78.118 178.6C78.118 177.679 78.1848 170.61 78.118 160.474C82.7316 150.504 87.7415 138.727 89.728 130.408ZM74.4538 178.546C74.3616 181.622 73.4145 186.486 71.5939 187.67C71.4363 187.785 71.2315 187.851 71.0178 187.854C70.1536 187.464 66.6047 185.461 68.6234 179.619C69.052 178.809 71.4303 174.281 74.4745 168.059C74.4884 174.4 74.4561 178.38 74.4538 178.546Z" fill="#2A2928"/>
<path d="M394.705 135.416C396.09 127.992 395.365 120.414 392.583 113.244L371.87 60.226C369.908 55.1654 365.958 50.7439 360.606 47.6158C344.085 37.9197 289.544 5.86581 281.345 0.506924L280.598 0.0117188L279.676 0.228946C277.045 0.847492 274.862 2.79149 273.696 5.56759C272.021 9.54211 272.288 16.0221 278.075 22.2886C285.926 30.7991 315.265 44.8692 319.733 46.9844C326.186 59.1454 341.276 74.1544 347.005 79.1561C343.453 94.988 342.333 128.318 342.004 152.056C338.531 144.14 335.321 135.978 333.874 129.873C333.24 127.226 332.664 124.393 332.053 121.392C328.947 106.142 325.425 88.8596 312.317 87.4641C309.646 87.1806 307.452 87.6482 305.798 88.878C301.419 92.1051 301.952 99.8572 302.56 108.833C302.979 115.041 303.415 121.46 302.302 126.86C301.666 129.952 300.592 133.373 299.352 137.331C294.215 153.715 287.182 176.135 301.636 205.527L305.037 204.459C291.01 175.938 297.88 154.035 302.897 138.041C304.106 134.186 305.247 130.545 305.908 127.333C307.084 121.626 306.639 115.039 306.208 108.675C305.696 101.127 305.169 93.3182 308.282 91.0208C308.812 90.6305 309.757 90.1371 311.84 90.3581C322.259 91.4626 325.547 107.615 328.451 121.86C329.064 124.881 329.647 127.734 330.295 130.42C332.281 138.739 337.282 150.515 341.923 160.48C341.845 170.625 341.905 177.706 341.923 178.628C341.967 180.09 342.384 187.505 346.131 189.946C346.644 190.29 347.246 190.539 347.894 190.674C348.543 190.809 349.221 190.826 349.878 190.724L350.259 190.632C352.989 189.712 357.472 186.041 354.9 178.757L354.824 178.584C354.739 178.422 350.392 170.193 345.606 159.956C345.813 136.101 346.779 95.8384 350.782 78.9776L350.955 78.2412L350.282 77.6981C343.829 72.2545 328.686 56.7117 322.858 45.4159L322.628 44.9631L322.098 44.7145C321.766 44.5581 288.887 29.0999 281.006 20.5563C276.058 15.1919 275.773 9.77775 277.155 6.49909C277.78 5.01347 278.768 3.88131 279.902 3.32536C290.169 9.84034 337.904 37.9124 358.442 49.9667C363.165 52.7261 366.651 56.6275 368.381 61.0931L389.096 114.121C391.712 120.869 392.394 128.002 391.09 134.989C386.25 160.861 397.639 257.719 416.967 280.623L420 278.992C401.501 257.069 390.041 160.303 394.705 135.416ZM351.381 179.624C353.393 185.443 349.848 187.462 348.982 187.858C348.768 187.855 348.563 187.79 348.406 187.674C346.59 186.496 345.64 181.629 345.546 178.574C345.546 178.403 345.511 174.414 345.527 168.067C348.574 174.291 350.952 178.814 351.381 179.624Z" fill="#2A2928"/>
<path d="M294.919 213.557C259.013 206.16 224.902 179.71 224.561 179.445L224.413 179.34C224.167 179.185 217.205 174.762 207.328 167.459C214.905 161.752 223.526 155.171 232.407 148.181C259.211 127.084 288.379 102.327 298.316 87.3534C298.832 86.5765 299.309 85.785 299.756 84.9842C306.854 72.2819 305.218 56.9563 295.221 44.3534C286.439 33.2804 273.328 26.9679 260.142 27.4539C250.12 27.8221 235.59 32.3157 223.291 51.5698C220.484 55.9659 218.067 60.0871 216.039 63.9334C210.238 52.0889 201.672 40.6458 190.023 36.3289C181.6 33.2104 172.553 34.1309 163.097 39.0663C162.464 39.3965 161.828 39.745 161.189 40.112C143.825 50.1155 134.816 62.7331 134.413 77.615C133.773 101.449 154.995 127.001 176.74 146.833C185.497 154.815 194.335 161.875 201.859 167.512C188.237 177.729 178.662 184.587 178.353 184.806C172.772 188.869 166.545 190.836 158.663 193.329C149.906 196.1 138.981 199.549 124.419 207.202C101.629 219.168 90.0147 261.704 85.1199 285.993C84.9609 286.777 84.8641 287.282 84.8203 287.436L88.3692 288.13C88.4269 287.946 88.5006 287.578 88.7288 286.457C96.8959 245.939 110.635 217.942 126.426 209.645C140.674 202.158 151.395 198.769 160.007 196.046C168.239 193.445 174.737 191.391 180.803 186.978C182.008 186.115 191.447 179.355 204.569 169.528C213.967 176.435 220.834 180.816 222.063 181.591C224.282 183.32 257.605 208.894 293.995 216.385C329.051 223.607 331.153 287.16 331.169 287.801L334.824 287.738C334.762 285.027 332.644 221.326 294.919 213.557ZM221.821 94.2016C221.868 94.7503 221.738 95.2994 221.444 95.7966C221.15 96.2939 220.701 96.7227 220.141 97.0421C219.674 97.3258 219.122 97.5058 218.541 97.564C217.959 97.6222 217.369 97.5565 216.829 97.3735C215.605 96.9556 213.918 95.9578 212.842 93.5757C211.264 90.0908 210.987 83.7894 215.859 72.4586C219.495 81.7073 221.431 90.216 221.821 94.2016ZM190.124 153.943C165.713 133.573 137.351 104.122 138.066 77.6757C138.439 63.7585 146.943 51.9196 163.335 42.4831C165.462 41.2445 167.739 40.18 170.133 39.3057C173.525 38.087 176.832 37.4648 180.042 37.4648C182.968 37.4669 185.857 37.9842 188.504 38.9798C200.172 43.3023 208.554 55.7708 214.006 68.0054C213.365 69.3438 212.785 70.6398 212.25 71.9027C208.042 81.8233 207.083 89.4134 209.415 94.5679C209.867 95.5938 210.512 96.559 211.326 97.4305C212.372 98.5716 213.77 99.4767 215.384 100.058C216.502 100.438 217.725 100.58 218.933 100.468C220.14 100.356 221.29 99.9952 222.27 99.4206C223.334 98.8029 224.186 97.9799 224.744 97.0283C225.303 96.0767 225.55 95.0276 225.464 93.9788C225.425 93.5794 225.369 93.1394 225.307 92.6902C224.789 88.8482 223.464 83.1009 221.279 76.6853C220.447 74.2406 219.488 71.702 218.401 69.1376C218.244 68.7694 218.087 68.3884 217.924 68.011C218.444 66.9543 219.006 65.8596 219.608 64.7268C221.493 61.1812 223.784 57.2582 226.556 52.9174C227.432 51.5422 228.342 50.2462 229.266 48.9907C237.931 37.242 248.587 30.8209 260.32 30.3846C272.162 29.9428 284.072 35.7545 292.145 45.9293C297.516 52.702 301.494 62.2729 300.252 72.3518C299.668 77.1212 297.917 81.7523 295.097 85.9819C283.749 103.066 245.605 134.068 215.969 156.807C212.017 159.847 208.194 162.748 204.62 165.436C200.163 162.08 195.224 158.204 190.124 153.943Z" fill="#2A2928"/>
</svg>
