<svg width="451" height="771" viewBox="0 0 451 771" fill="none" xmlns="http://www.w3.org/2000/svg">
<path d="M42.75 143.75C39.2988 143.75 36.5 146.52 36.5 149.937C36.5 152.696 37.5938 159.244 48.36 165.863C48.5529 165.98 48.7743 166.042 49 166.042C49.2257 166.042 49.4471 165.98 49.64 165.863C60.4063 159.244 61.5 152.696 61.5 149.937C61.5 146.52 58.7013 143.75 55.25 143.75C51.7988 143.75 49 147.5 49 147.5C49 147.5 46.2013 143.75 42.75 143.75Z" stroke="#EDEAEA" stroke-width="2" stroke-linecap="round" stroke-linejoin="round"/>
<g clip-path="url(#clip0_2969_18742)">
<path d="M106.8 138H133.2C134.192 138 135 137.369 135 136.594V109.406C135 108.631 134.192 108 133.2 108H106.8C105.808 108 105 108.631 105 109.406V136.594C105 137.369 105.808 138 106.8 138ZM106.2 109.406C106.2 109.282 106.263 109.163 106.376 109.075C106.488 108.987 106.641 108.938 106.8 108.938H133.2C133.359 108.938 133.512 108.987 133.624 109.075C133.737 109.163 133.8 109.282 133.8 109.406V136.594C133.8 136.718 133.737 136.837 133.624 136.925C133.512 137.013 133.359 137.062 133.2 137.062H106.8C106.641 137.062 106.488 137.013 106.376 136.925C106.263 136.837 106.2 136.718 106.2 136.594V109.406Z" fill="#EDEAEA"/>
<path d="M109.202 133.312H130.802C130.961 133.312 131.113 133.263 131.226 133.175C131.338 133.087 131.402 132.968 131.402 132.844V111.281C131.402 111.157 131.338 111.038 131.226 110.95C131.113 110.862 130.961 110.812 130.802 110.812H109.202C109.042 110.812 108.89 110.862 108.777 110.95C108.665 111.038 108.602 111.157 108.602 111.281V132.844C108.602 132.968 108.665 133.087 108.777 133.175C108.89 133.263 109.042 133.312 109.202 133.312ZM109.802 111.75H130.202V132.375H109.802V111.75Z" fill="#EDEAEA"/>
<path d="M120.598 136.125C121.261 136.125 121.798 135.705 121.798 135.188C121.798 134.67 121.261 134.25 120.598 134.25C119.936 134.25 119.398 134.67 119.398 135.188C119.398 135.705 119.936 136.125 120.598 136.125Z" fill="#EDEAEA"/>
</g>
<path d="M61.5 229.75C61.5 229.551 61.579 229.36 61.7197 229.22C61.8603 229.079 62.0511 229 62.25 229H75.75C75.9489 229 76.1397 229.079 76.2803 229.22C76.421 229.36 76.5 229.551 76.5 229.75C76.5 229.949 76.421 230.14 76.2803 230.28C76.1397 230.421 75.9489 230.5 75.75 230.5H62.25C62.0511 230.5 61.8603 230.421 61.7197 230.28C61.579 230.14 61.5 229.949 61.5 229.75ZM71.253 223.008C71.5524 223.008 71.8395 222.889 72.0511 222.677C72.2628 222.465 72.3818 222.178 72.3818 221.879C72.3818 221.579 72.2628 221.292 72.0511 221.081C71.8395 220.869 71.5524 220.75 71.253 220.75C70.9536 220.75 70.6665 220.869 70.4549 221.081C70.2432 221.292 70.1243 221.579 70.1243 221.879C70.1243 222.178 70.2432 222.465 70.4549 222.677C70.6665 222.889 70.9536 223.008 71.253 223.008ZM76.8825 221.878C76.8825 222.177 76.7636 222.464 76.5519 222.676C76.3402 222.888 76.0531 223.007 75.7538 223.007C75.4544 223.007 75.1673 222.888 74.9556 222.676C74.7439 222.464 74.625 222.177 74.625 221.878C74.625 221.579 74.7439 221.292 74.9556 221.08C75.1673 220.868 75.4544 220.749 75.7538 220.749C76.0531 220.749 76.3402 220.868 76.5519 221.08C76.7636 221.292 76.8825 221.579 76.8825 221.878ZM62.253 223.008C62.5524 223.008 62.8395 222.889 63.0511 222.677C63.2628 222.465 63.3818 222.178 63.3818 221.879C63.3818 221.579 63.2628 221.292 63.0511 221.081C62.8395 220.869 62.5524 220.75 62.253 220.75C61.9536 220.75 61.6665 220.869 61.4549 221.081C61.2432 221.292 61.1242 221.579 61.1242 221.879C61.1242 222.178 61.2432 222.465 61.4549 222.677C61.6665 222.889 61.9536 223.008 62.253 223.008ZM65.625 225.628C65.625 225.776 65.5958 225.923 65.5391 226.06C65.4824 226.197 65.3992 226.321 65.2944 226.426C65.1896 226.531 65.0652 226.614 64.9282 226.671C64.7913 226.728 64.6445 226.757 64.4963 226.757C64.348 226.757 64.2012 226.728 64.0643 226.671C63.9274 226.614 63.8029 226.531 63.6981 226.426C63.5933 226.321 63.5101 226.197 63.4534 226.06C63.3967 225.923 63.3675 225.776 63.3675 225.628C63.3675 225.329 63.4864 225.042 63.6981 224.83C63.9098 224.618 64.1969 224.499 64.4963 224.499C64.7956 224.499 65.0827 224.618 65.2944 224.83C65.5061 225.042 65.625 225.329 65.625 225.628ZM69.003 226.757C69.3024 226.758 69.5895 226.639 69.8011 226.427C70.0128 226.215 70.1318 225.928 70.1318 225.629C70.1318 225.329 70.0128 225.042 69.8011 224.831C69.5895 224.619 69.3024 224.5 69.003 224.5C68.7036 224.5 68.4165 224.619 68.2049 224.831C67.9932 225.042 67.8743 225.329 67.8743 225.629C67.8743 225.928 67.9932 226.215 68.2049 226.427C68.4165 226.639 68.7036 226.757 69.003 226.757ZM74.6385 225.628C74.6385 225.927 74.5197 226.214 74.3081 226.426C74.0966 226.637 73.8097 226.756 73.5105 226.756C73.2113 226.756 72.9244 226.637 72.7129 226.426C72.5013 226.214 72.3825 225.927 72.3825 225.628C72.3825 225.329 72.5013 225.042 72.7129 224.83C72.9244 224.619 73.2113 224.5 73.5105 224.5C73.8097 224.5 74.0966 224.619 74.3081 224.83C74.5197 225.042 74.6385 225.329 74.6385 225.628ZM66.753 223.008C67.0524 223.008 67.3395 222.889 67.5511 222.677C67.7628 222.465 67.8818 222.178 67.8818 221.879C67.8818 221.579 67.7628 221.292 67.5511 221.081C67.3395 220.869 67.0524 220.75 66.753 220.75C66.4536 220.75 66.1665 220.869 65.9549 221.081C65.7432 221.292 65.6243 221.579 65.6243 221.879C65.6243 222.178 65.7432 222.465 65.9549 222.677C66.1665 222.889 66.4536 223.008 66.753 223.008ZM57 219.25C57 218.653 57.2371 218.081 57.659 217.659C58.081 217.237 58.6533 217 59.25 217H78.75C79.3467 217 79.919 217.237 80.341 217.659C80.7629 218.081 81 218.653 81 219.25V231.25C81 231.847 80.7629 232.419 80.341 232.841C79.919 233.263 79.3467 233.5 78.75 233.5H59.25C58.6533 233.5 58.081 233.263 57.659 232.841C57.2371 232.419 57 231.847 57 231.25V219.25ZM59.25 218.5C59.0511 218.5 58.8603 218.579 58.7197 218.72C58.579 218.86 58.5 219.051 58.5 219.25V231.25C58.5 231.449 58.579 231.64 58.7197 231.78C58.8603 231.921 59.0511 232 59.25 232H78.75C78.9489 232 79.1397 231.921 79.2803 231.78C79.421 231.64 79.5 231.449 79.5 231.25V219.25C79.5 219.051 79.421 218.86 79.2803 218.72C79.1397 218.579 78.9489 218.5 78.75 218.5H59.25Z" fill="#EDEAEA"/>
<path d="M106.75 61H89.25C87.8693 61 86.75 62.1193 86.75 63.5V76C86.75 77.3807 87.8693 78.5 89.25 78.5H106.75C108.131 78.5 109.25 77.3807 109.25 76V63.5C109.25 62.1193 108.131 61 106.75 61Z" stroke="#EDEAEA" stroke-width="2" stroke-linecap="round" stroke-linejoin="round"/>
<path d="M98 57.25C98 56.5083 97.7801 55.7833 97.368 55.1666C96.956 54.5499 96.3703 54.0693 95.6851 53.7855C94.9998 53.5016 94.2458 53.4274 93.5184 53.5721C92.791 53.7168 92.1228 54.0739 91.5983 54.5984C91.0739 55.1228 90.7168 55.791 90.5721 56.5184C90.4274 57.2458 90.5016 57.9998 90.7855 58.6851C91.0693 59.3703 91.5499 59.956 92.1666 60.368C92.7833 60.7801 93.5083 61 94.25 61M101.75 61C102.492 61 103.217 60.7801 103.833 60.368C104.45 59.956 104.931 59.3703 105.215 58.6851C105.498 57.9998 105.573 57.2458 105.428 56.5184C105.283 55.791 104.926 55.1228 104.402 54.5984C103.877 54.0739 103.209 53.7168 102.482 53.5721C101.754 53.4274 101 53.5016 100.315 53.7855C99.6297 54.0693 99.044 54.5499 98.632 55.1666C98.2199 55.7833 98 56.5083 98 57.25M98 57.25V78.5M109.25 69.75H86.75" stroke="#EDEAEA" stroke-width="2" stroke-linecap="round" stroke-linejoin="round"/>
<g clip-path="url(#clip1_2969_18742)">
<path d="M15.0013 229.333C12.7912 229.333 10.6715 228.455 9.10875 226.892C7.54594 225.329 6.66797 223.209 6.66797 220.999V210.999C6.66797 208.789 7.54594 206.67 9.10875 205.107C10.6715 203.544 12.7912 202.666 15.0013 202.666C17.2114 202.666 19.3311 203.544 20.8939 205.107C22.4567 206.67 23.3346 208.789 23.3346 210.999V220.999C23.3346 222.094 23.1191 223.177 22.7003 224.188C22.2815 225.199 21.6677 226.118 20.8939 226.892C20.12 227.666 19.2014 228.28 18.1903 228.698C17.1793 229.117 16.0957 229.333 15.0013 229.333ZM15.0013 204.333C13.2332 204.333 11.5375 205.035 10.2873 206.285C9.03701 207.536 8.33464 209.231 8.33464 210.999V220.999C8.33464 222.767 9.03701 224.463 10.2873 225.713C11.5375 226.964 13.2332 227.666 15.0013 227.666C16.7694 227.666 18.4651 226.964 19.7153 225.713C20.9656 224.463 21.668 222.767 21.668 220.999V210.999C21.668 209.231 20.9656 207.536 19.7153 206.285C18.4651 205.035 16.7694 204.333 15.0013 204.333Z" fill="#EDEAEA"/>
<path d="M15.0013 213.5C14.7803 213.5 14.5683 213.412 14.412 213.256C14.2558 213.1 14.168 212.888 14.168 212.667V209.333C14.168 209.112 14.2558 208.9 14.412 208.744C14.5683 208.588 14.7803 208.5 15.0013 208.5C15.2223 208.5 15.4343 208.588 15.5906 208.744C15.7468 208.9 15.8346 209.112 15.8346 209.333V212.667C15.8346 212.888 15.7468 213.1 15.5906 213.256C15.4343 213.412 15.2223 213.5 15.0013 213.5Z" fill="#EDEAEA"/>
</g>
<path d="M123.5 23.75H148.5M126 8.75C126 8.08696 126.263 7.45107 126.732 6.98223C127.201 6.51339 127.837 6.25 128.5 6.25H143.5C144.163 6.25 144.799 6.51339 145.268 6.98223C145.737 7.45107 146 8.08696 146 8.75V20H126V8.75Z" stroke="#EDEAEA" stroke-width="2" stroke-linecap="round" stroke-linejoin="round"/>
<path d="M33 293H43M25.5 275.5C25.5 274.837 25.7634 274.201 26.2322 273.732C26.7011 273.263 27.337 273 28 273H48C48.663 273 49.2989 273.263 49.7678 273.732C50.2366 274.201 50.5 274.837 50.5 275.5V286.75C50.5 287.413 50.2366 288.049 49.7678 288.518C49.2989 288.987 48.663 289.25 48 289.25H28C27.337 289.25 26.7011 288.987 26.2322 288.518C25.7634 288.049 25.5 287.413 25.5 286.75V275.5Z" stroke="#EDEAEA" stroke-width="2" stroke-linecap="round" stroke-linejoin="round"/>
<path d="M124 244H134M116.5 226.5C116.5 225.837 116.763 225.201 117.232 224.732C117.701 224.263 118.337 224 119 224H139C139.663 224 140.299 224.263 140.768 224.732C141.237 225.201 141.5 225.837 141.5 226.5V237.75C141.5 238.413 141.237 239.049 140.768 239.518C140.299 239.987 139.663 240.25 139 240.25H119C118.337 240.25 117.701 239.987 117.232 239.518C116.763 239.049 116.5 238.413 116.5 237.75V226.5Z" stroke="#EDEAEA" stroke-width="2" stroke-linecap="round" stroke-linejoin="round"/>
<path d="M38.75 356.75C35.2988 356.75 32.5 359.52 32.5 362.937C32.5 365.696 33.5938 372.244 44.36 378.863C44.5529 378.98 44.7743 379.042 45 379.042C45.2257 379.042 45.4471 378.98 45.64 378.863C56.4063 372.244 57.5 365.696 57.5 362.937C57.5 359.52 54.7013 356.75 51.25 356.75C47.7988 356.75 45 360.5 45 360.5C45 360.5 42.2013 356.75 38.75 356.75Z" stroke="#EDEAEA" stroke-width="2" stroke-linecap="round" stroke-linejoin="round"/>
<g clip-path="url(#clip2_2969_18742)">
<path d="M128.8 435H155.2C156.192 435 157 434.369 157 433.594V406.406C157 405.631 156.192 405 155.2 405H128.8C127.808 405 127 405.631 127 406.406V433.594C127 434.369 127.808 435 128.8 435ZM128.2 406.406C128.2 406.282 128.263 406.163 128.376 406.075C128.488 405.987 128.641 405.938 128.8 405.938H155.2C155.359 405.938 155.512 405.987 155.624 406.075C155.737 406.163 155.8 406.282 155.8 406.406V433.594C155.8 433.718 155.737 433.837 155.624 433.925C155.512 434.013 155.359 434.062 155.2 434.062H128.8C128.641 434.062 128.488 434.013 128.376 433.925C128.263 433.837 128.2 433.718 128.2 433.594V406.406Z" fill="#EDEAEA"/>
<path d="M131.202 430.312H152.802C152.961 430.312 153.113 430.263 153.226 430.175C153.338 430.087 153.402 429.968 153.402 429.844V408.281C153.402 408.157 153.338 408.038 153.226 407.95C153.113 407.862 152.961 407.812 152.802 407.812H131.202C131.042 407.812 130.89 407.862 130.777 407.95C130.665 408.038 130.602 408.157 130.602 408.281V429.844C130.602 429.968 130.665 430.087 130.777 430.175C130.89 430.263 131.042 430.312 131.202 430.312ZM131.802 408.75H152.202V429.375H131.802V408.75Z" fill="#EDEAEA"/>
<path d="M142.598 433.125C143.261 433.125 143.798 432.705 143.798 432.188C143.798 431.67 143.261 431.25 142.598 431.25C141.936 431.25 141.398 431.67 141.398 432.188C141.398 432.705 141.936 433.125 142.598 433.125Z" fill="#EDEAEA"/>
</g>
<path d="M134.75 489H117.25C115.869 489 114.75 490.119 114.75 491.5V504C114.75 505.381 115.869 506.5 117.25 506.5H134.75C136.131 506.5 137.25 505.381 137.25 504V491.5C137.25 490.119 136.131 489 134.75 489Z" stroke="#EDEAEA" stroke-width="2" stroke-linecap="round" stroke-linejoin="round"/>
<path d="M126 485.25C126 484.508 125.78 483.783 125.368 483.167C124.956 482.55 124.37 482.069 123.685 481.785C123 481.502 122.246 481.427 121.518 481.572C120.791 481.717 120.123 482.074 119.598 482.598C119.074 483.123 118.717 483.791 118.572 484.518C118.427 485.246 118.502 486 118.785 486.685C119.069 487.37 119.55 487.956 120.167 488.368C120.783 488.78 121.508 489 122.25 489M129.75 489C130.492 489 131.217 488.78 131.833 488.368C132.45 487.956 132.931 487.37 133.215 486.685C133.498 486 133.573 485.246 133.428 484.518C133.283 483.791 132.926 483.123 132.402 482.598C131.877 482.074 131.209 481.717 130.482 481.572C129.754 481.427 129 481.502 128.315 481.785C127.63 482.069 127.044 482.55 126.632 483.167C126.22 483.783 126 484.508 126 485.25M126 485.25V506.5M137.25 497.75H114.75" stroke="#EDEAEA" stroke-width="2" stroke-linecap="round" stroke-linejoin="round"/>
<g clip-path="url(#clip3_2969_18742)">
<path d="M265.8 608H292.2C293.192 608 294 607.369 294 606.594V579.406C294 578.631 293.192 578 292.2 578H265.8C264.808 578 264 578.631 264 579.406V606.594C264 607.369 264.808 608 265.8 608ZM265.2 579.406C265.2 579.282 265.263 579.163 265.376 579.075C265.488 578.987 265.641 578.938 265.8 578.938H292.2C292.359 578.938 292.512 578.987 292.624 579.075C292.737 579.163 292.8 579.282 292.8 579.406V606.594C292.8 606.718 292.737 606.837 292.624 606.925C292.512 607.013 292.359 607.062 292.2 607.062H265.8C265.641 607.062 265.488 607.013 265.376 606.925C265.263 606.837 265.2 606.718 265.2 606.594V579.406Z" fill="#EDEAEA"/>
<path d="M268.202 603.312H289.802C289.961 603.312 290.113 603.263 290.226 603.175C290.338 603.087 290.402 602.968 290.402 602.844V581.281C290.402 581.157 290.338 581.038 290.226 580.95C290.113 580.862 289.961 580.812 289.802 580.812H268.202C268.042 580.812 267.89 580.862 267.777 580.95C267.665 581.038 267.602 581.157 267.602 581.281V602.844C267.602 602.968 267.665 603.087 267.777 603.175C267.89 603.263 268.042 603.312 268.202 603.312ZM268.802 581.75H289.202V602.375H268.802V581.75Z" fill="#EDEAEA"/>
<path d="M279.598 606.125C280.261 606.125 280.798 605.705 280.798 605.188C280.798 604.67 280.261 604.25 279.598 604.25C278.936 604.25 278.398 604.67 278.398 605.188C278.398 605.705 278.936 606.125 279.598 606.125Z" fill="#EDEAEA"/>
</g>
<path d="M24 452H34M16.5 434.5C16.5 433.837 16.7634 433.201 17.2322 432.732C17.7011 432.263 18.337 432 19 432H39C39.663 432 40.2989 432.263 40.7678 432.732C41.2366 433.201 41.5 433.837 41.5 434.5V445.75C41.5 446.413 41.2366 447.049 40.7678 447.518C40.2989 447.987 39.663 448.25 39 448.25H19C18.337 448.25 17.7011 447.987 17.2322 447.518C16.7634 447.049 16.5 446.413 16.5 445.75V434.5Z" stroke="#EDEAEA" stroke-width="2" stroke-linecap="round" stroke-linejoin="round"/>
<path d="M205.5 505.75C205.5 505.551 205.579 505.36 205.72 505.22C205.86 505.079 206.051 505 206.25 505H219.75C219.949 505 220.14 505.079 220.28 505.22C220.421 505.36 220.5 505.551 220.5 505.75C220.5 505.949 220.421 506.14 220.28 506.28C220.14 506.421 219.949 506.5 219.75 506.5H206.25C206.051 506.5 205.86 506.421 205.72 506.28C205.579 506.14 205.5 505.949 205.5 505.75ZM215.253 499.008C215.552 499.008 215.839 498.889 216.051 498.677C216.263 498.465 216.382 498.178 216.382 497.879C216.382 497.579 216.263 497.292 216.051 497.081C215.839 496.869 215.552 496.75 215.253 496.75C214.954 496.75 214.667 496.869 214.455 497.081C214.243 497.292 214.124 497.579 214.124 497.879C214.124 498.178 214.243 498.465 214.455 498.677C214.667 498.889 214.954 499.008 215.253 499.008ZM220.883 497.878C220.883 498.177 220.764 498.464 220.552 498.676C220.34 498.888 220.053 499.007 219.754 499.007C219.454 499.007 219.167 498.888 218.956 498.676C218.744 498.464 218.625 498.177 218.625 497.878C218.625 497.579 218.744 497.292 218.956 497.08C219.167 496.868 219.454 496.749 219.754 496.749C220.053 496.749 220.34 496.868 220.552 497.08C220.764 497.292 220.883 497.579 220.883 497.878ZM206.253 499.008C206.552 499.008 206.839 498.889 207.051 498.677C207.263 498.465 207.382 498.178 207.382 497.879C207.382 497.579 207.263 497.292 207.051 497.081C206.839 496.869 206.552 496.75 206.253 496.75C205.954 496.75 205.667 496.869 205.455 497.081C205.243 497.292 205.124 497.579 205.124 497.879C205.124 498.178 205.243 498.465 205.455 498.677C205.667 498.889 205.954 499.008 206.253 499.008ZM209.625 501.628C209.625 501.776 209.596 501.923 209.539 502.06C209.482 502.197 209.399 502.321 209.294 502.426C209.19 502.531 209.065 502.614 208.928 502.671C208.791 502.728 208.644 502.757 208.496 502.757C208.348 502.757 208.201 502.728 208.064 502.671C207.927 502.614 207.803 502.531 207.698 502.426C207.593 502.321 207.51 502.197 207.453 502.06C207.397 501.923 207.368 501.776 207.368 501.628C207.368 501.329 207.486 501.042 207.698 500.83C207.91 500.618 208.197 500.499 208.496 500.499C208.796 500.499 209.083 500.618 209.294 500.83C209.506 501.042 209.625 501.329 209.625 501.628ZM213.003 502.757C213.302 502.758 213.589 502.639 213.801 502.427C214.013 502.215 214.132 501.928 214.132 501.629C214.132 501.329 214.013 501.042 213.801 500.831C213.589 500.619 213.302 500.5 213.003 500.5C212.704 500.5 212.417 500.619 212.205 500.831C211.993 501.042 211.874 501.329 211.874 501.629C211.874 501.928 211.993 502.215 212.205 502.427C212.417 502.639 212.704 502.757 213.003 502.757ZM218.639 501.628C218.639 501.927 218.52 502.214 218.308 502.426C218.097 502.637 217.81 502.756 217.511 502.756C217.211 502.756 216.924 502.637 216.713 502.426C216.501 502.214 216.383 501.927 216.383 501.628C216.383 501.329 216.501 501.042 216.713 500.83C216.924 500.619 217.211 500.5 217.511 500.5C217.81 500.5 218.097 500.619 218.308 500.83C218.52 501.042 218.639 501.329 218.639 501.628ZM210.753 499.008C211.052 499.008 211.339 498.889 211.551 498.677C211.763 498.465 211.882 498.178 211.882 497.879C211.882 497.579 211.763 497.292 211.551 497.081C211.339 496.869 211.052 496.75 210.753 496.75C210.454 496.75 210.167 496.869 209.955 497.081C209.743 497.292 209.624 497.579 209.624 497.879C209.624 498.178 209.743 498.465 209.955 498.677C210.167 498.889 210.454 499.008 210.753 499.008ZM201 495.25C201 494.653 201.237 494.081 201.659 493.659C202.081 493.237 202.653 493 203.25 493H222.75C223.347 493 223.919 493.237 224.341 493.659C224.763 494.081 225 494.653 225 495.25V507.25C225 507.847 224.763 508.419 224.341 508.841C223.919 509.263 223.347 509.5 222.75 509.5H203.25C202.653 509.5 202.081 509.263 201.659 508.841C201.237 508.419 201 507.847 201 507.25V495.25ZM203.25 494.5C203.051 494.5 202.86 494.579 202.72 494.72C202.579 494.86 202.5 495.051 202.5 495.25V507.25C202.5 507.449 202.579 507.64 202.72 507.78C202.86 507.921 203.051 508 203.25 508H222.75C222.949 508 223.14 507.921 223.28 507.78C223.421 507.64 223.5 507.449 223.5 507.25V495.25C223.5 495.051 223.421 494.86 223.28 494.72C223.14 494.579 222.949 494.5 222.75 494.5H203.25Z" fill="#EDEAEA"/>
<path d="M155.5 575.75H180.5M158 560.75C158 560.087 158.263 559.451 158.732 558.982C159.201 558.513 159.837 558.25 160.5 558.25H175.5C176.163 558.25 176.799 558.513 177.268 558.982C177.737 559.451 178 560.087 178 560.75V572H158V560.75Z" stroke="#EDEAEA" stroke-width="2" stroke-linecap="round" stroke-linejoin="round"/>
<g clip-path="url(#clip4_2969_18742)">
<path d="M349.8 771H376.2C377.192 771 378 770.369 378 769.594V742.406C378 741.631 377.192 741 376.2 741H349.8C348.808 741 348 741.631 348 742.406V769.594C348 770.369 348.808 771 349.8 771ZM349.2 742.406C349.2 742.282 349.263 742.163 349.376 742.075C349.488 741.987 349.641 741.938 349.8 741.938H376.2C376.359 741.938 376.512 741.987 376.624 742.075C376.737 742.163 376.8 742.282 376.8 742.406V769.594C376.8 769.718 376.737 769.837 376.624 769.925C376.512 770.013 376.359 770.062 376.2 770.062H349.8C349.641 770.062 349.488 770.013 349.376 769.925C349.263 769.837 349.2 769.718 349.2 769.594V742.406Z" fill="#EDEAEA"/>
<path d="M352.202 766.312H373.802C373.961 766.312 374.113 766.263 374.226 766.175C374.338 766.087 374.402 765.968 374.402 765.844V744.281C374.402 744.157 374.338 744.038 374.226 743.95C374.113 743.862 373.961 743.812 373.802 743.812H352.202C352.042 743.812 351.89 743.862 351.777 743.95C351.665 744.038 351.602 744.157 351.602 744.281V765.844C351.602 765.968 351.665 766.087 351.777 766.175C351.89 766.263 352.042 766.312 352.202 766.312ZM352.802 744.75H373.202V765.375H352.802V744.75Z" fill="#EDEAEA"/>
<path d="M363.598 769.125C364.261 769.125 364.798 768.705 364.798 768.188C364.798 767.67 364.261 767.25 363.598 767.25C362.936 767.25 362.398 767.67 362.398 768.188C362.398 768.705 362.936 769.125 363.598 769.125Z" fill="#EDEAEA"/>
</g>
<path d="M57.75 507H40.25C38.8693 507 37.75 508.119 37.75 509.5V522C37.75 523.381 38.8693 524.5 40.25 524.5H57.75C59.1307 524.5 60.25 523.381 60.25 522V509.5C60.25 508.119 59.1307 507 57.75 507Z" stroke="#EDEAEA" stroke-width="2" stroke-linecap="round" stroke-linejoin="round"/>
<path d="M49 503.25C49 502.508 48.7801 501.783 48.368 501.167C47.956 500.55 47.3703 500.069 46.6851 499.785C45.9998 499.502 45.2458 499.427 44.5184 499.572C43.791 499.717 43.1228 500.074 42.5983 500.598C42.0739 501.123 41.7168 501.791 41.5721 502.518C41.4274 503.246 41.5016 504 41.7855 504.685C42.0693 505.37 42.5499 505.956 43.1666 506.368C43.7833 506.78 44.5083 507 45.25 507M52.75 507C53.4917 507 54.2167 506.78 54.8334 506.368C55.4501 505.956 55.9307 505.37 56.2145 504.685C56.4984 504 56.5726 503.246 56.4279 502.518C56.2833 501.791 55.9261 501.123 55.4017 500.598C54.8772 500.074 54.209 499.717 53.4816 499.572C52.7542 499.427 52.0002 499.502 51.3149 499.785C50.6297 500.069 50.044 500.55 49.632 501.167C49.2199 501.783 49 502.508 49 503.25M49 503.25V524.5M60.25 515.75H37.75" stroke="#EDEAEA" stroke-width="2" stroke-linecap="round" stroke-linejoin="round"/>
<g clip-path="url(#clip5_2969_18742)">
<path d="M216.001 628.333C213.791 628.333 211.672 627.455 210.109 625.892C208.546 624.329 207.668 622.209 207.668 619.999V609.999C207.668 607.789 208.546 605.67 210.109 604.107C211.672 602.544 213.791 601.666 216.001 601.666C218.211 601.666 220.331 602.544 221.894 604.107C223.457 605.67 224.335 607.789 224.335 609.999V619.999C224.335 621.094 224.119 622.177 223.7 623.188C223.282 624.199 222.668 625.118 221.894 625.892C221.12 626.666 220.201 627.28 219.19 627.698C218.179 628.117 217.096 628.333 216.001 628.333ZM216.001 603.333C214.233 603.333 212.537 604.035 211.287 605.285C210.037 606.536 209.335 608.231 209.335 609.999V619.999C209.335 621.767 210.037 623.463 211.287 624.713C212.537 625.964 214.233 626.666 216.001 626.666C217.769 626.666 219.465 625.964 220.715 624.713C221.966 623.463 222.668 621.767 222.668 619.999V609.999C222.668 608.231 221.966 606.536 220.715 605.285C219.465 604.035 217.769 603.333 216.001 603.333Z" fill="#EDEAEA"/>
<path d="M216.001 612.5C215.78 612.5 215.568 612.412 215.412 612.256C215.256 612.1 215.168 611.888 215.168 611.667V608.333C215.168 608.112 215.256 607.9 215.412 607.744C215.568 607.588 215.78 607.5 216.001 607.5C216.222 607.5 216.434 607.588 216.591 607.744C216.747 607.9 216.835 608.112 216.835 608.333V611.667C216.835 611.888 216.747 612.1 216.591 612.256C216.434 612.412 216.222 612.5 216.001 612.5Z" fill="#EDEAEA"/>
</g>
<path d="M298.75 654.75C295.299 654.75 292.5 657.52 292.5 660.937C292.5 663.696 293.594 670.244 304.36 676.863C304.553 676.98 304.774 677.042 305 677.042C305.226 677.042 305.447 676.98 305.64 676.863C316.406 670.244 317.5 663.696 317.5 660.937C317.5 657.52 314.701 654.75 311.25 654.75C307.799 654.75 305 658.5 305 658.5C305 658.5 302.201 654.75 298.75 654.75Z" stroke="#EDEAEA" stroke-width="2" stroke-linecap="round" stroke-linejoin="round"/>
<path d="M215.5 689.75H240.5M218 674.75C218 674.087 218.263 673.451 218.732 672.982C219.201 672.513 219.837 672.25 220.5 672.25H235.5C236.163 672.25 236.799 672.513 237.268 672.982C237.737 673.451 238 674.087 238 674.75V686H218V674.75Z" stroke="#EDEAEA" stroke-width="2" stroke-linecap="round" stroke-linejoin="round"/>
<path d="M365.5 719.75H390.5M368 704.75C368 704.087 368.263 703.451 368.732 702.982C369.201 702.513 369.837 702.25 370.5 702.25H385.5C386.163 702.25 386.799 702.513 387.268 702.982C387.737 703.451 388 704.087 388 704.75V716H368V704.75Z" stroke="#EDEAEA" stroke-width="2" stroke-linecap="round" stroke-linejoin="round"/>
<path d="M117 376H127M109.5 358.5C109.5 357.837 109.763 357.201 110.232 356.732C110.701 356.263 111.337 356 112 356H132C132.663 356 133.299 356.263 133.768 356.732C134.237 357.201 134.5 357.837 134.5 358.5V369.75C134.5 370.413 134.237 371.049 133.768 371.518C133.299 371.987 132.663 372.25 132 372.25H112C111.337 372.25 110.701 371.987 110.232 371.518C109.763 371.049 109.5 370.413 109.5 369.75V358.5Z" stroke="#EDEAEA" stroke-width="2" stroke-linecap="round" stroke-linejoin="round"/>
<g clip-path="url(#clip6_2969_18742)">
<path d="M99.0013 573.333C96.7912 573.333 94.6715 572.455 93.1087 570.892C91.5459 569.329 90.668 567.209 90.668 564.999V554.999C90.668 552.789 91.5459 550.67 93.1087 549.107C94.6715 547.544 96.7912 546.666 99.0013 546.666C101.211 546.666 103.331 547.544 104.894 549.107C106.457 550.67 107.335 552.789 107.335 554.999V564.999C107.335 566.094 107.119 567.177 106.7 568.188C106.282 569.199 105.668 570.118 104.894 570.892C104.12 571.666 103.201 572.28 102.19 572.698C101.179 573.117 100.096 573.333 99.0013 573.333ZM99.0013 548.333C97.2332 548.333 95.5375 549.035 94.2873 550.285C93.037 551.536 92.3346 553.231 92.3346 554.999V564.999C92.3346 566.767 93.037 568.463 94.2873 569.713C95.5375 570.964 97.2332 571.666 99.0013 571.666C100.769 571.666 102.465 570.964 103.715 569.713C104.966 568.463 105.668 566.767 105.668 564.999V554.999C105.668 553.231 104.966 551.536 103.715 550.285C102.465 549.035 100.769 548.333 99.0013 548.333Z" fill="#EDEAEA"/>
<path d="M99.0013 557.5C98.7803 557.5 98.5683 557.412 98.412 557.256C98.2558 557.1 98.168 556.888 98.168 556.667V553.333C98.168 553.112 98.2558 552.9 98.412 552.744C98.5683 552.588 98.7803 552.5 99.0013 552.5C99.2223 552.5 99.4343 552.588 99.5906 552.744C99.7468 552.9 99.8346 553.112 99.8346 553.333V556.667C99.8346 556.888 99.7468 557.1 99.5906 557.256C99.4343 557.412 99.2223 557.5 99.0013 557.5Z" fill="#EDEAEA"/>
</g>
<path d="M235 456H245M227.5 438.5C227.5 437.837 227.763 437.201 228.232 436.732C228.701 436.263 229.337 436 230 436H250C250.663 436 251.299 436.263 251.768 436.732C252.237 437.201 252.5 437.837 252.5 438.5V449.75C252.5 450.413 252.237 451.049 251.768 451.518C251.299 451.987 250.663 452.25 250 452.25H230C229.337 452.25 228.701 451.987 228.232 451.518C227.763 451.049 227.5 450.413 227.5 449.75V438.5Z" stroke="#EDEAEA" stroke-width="2" stroke-linecap="round" stroke-linejoin="round"/>
<path d="M298.75 721H281.25C279.869 721 278.75 722.119 278.75 723.5V736C278.75 737.381 279.869 738.5 281.25 738.5H298.75C300.131 738.5 301.25 737.381 301.25 736V723.5C301.25 722.119 300.131 721 298.75 721Z" stroke="#EDEAEA" stroke-width="2" stroke-linecap="round" stroke-linejoin="round"/>
<path d="M290 717.25C290 716.508 289.78 715.783 289.368 715.167C288.956 714.55 288.37 714.069 287.685 713.785C287 713.502 286.246 713.427 285.518 713.572C284.791 713.717 284.123 714.074 283.598 714.598C283.074 715.123 282.717 715.791 282.572 716.518C282.427 717.246 282.502 718 282.785 718.685C283.069 719.37 283.55 719.956 284.167 720.368C284.783 720.78 285.508 721 286.25 721M293.75 721C294.492 721 295.217 720.78 295.833 720.368C296.45 719.956 296.931 719.37 297.215 718.685C297.498 718 297.573 717.246 297.428 716.518C297.283 715.791 296.926 715.123 296.402 714.598C295.877 714.074 295.209 713.717 294.482 713.572C293.754 713.427 293 713.502 292.315 713.785C291.63 714.069 291.044 714.55 290.632 715.167C290.22 715.783 290 716.508 290 717.25M290 717.25V738.5M301.25 729.75H278.75" stroke="#EDEAEA" stroke-width="2" stroke-linecap="round" stroke-linejoin="round"/>
<g clip-path="url(#clip7_2969_18742)">
<path d="M73.0013 454.333C70.7912 454.333 68.6715 453.455 67.1087 451.892C65.5459 450.329 64.668 448.209 64.668 445.999V435.999C64.668 433.789 65.5459 431.67 67.1087 430.107C68.6715 428.544 70.7912 427.666 73.0013 427.666C75.2114 427.666 77.3311 428.544 78.8939 430.107C80.4567 431.67 81.3346 433.789 81.3346 435.999V445.999C81.3346 447.094 81.1191 448.177 80.7003 449.188C80.2815 450.199 79.6677 451.118 78.8939 451.892C78.12 452.666 77.2014 453.28 76.1903 453.698C75.1793 454.117 74.0957 454.333 73.0013 454.333ZM73.0013 429.333C71.2332 429.333 69.5375 430.035 68.2873 431.285C67.037 432.536 66.3346 434.231 66.3346 435.999V445.999C66.3346 447.767 67.037 449.463 68.2873 450.713C69.5375 451.964 71.2332 452.666 73.0013 452.666C74.7694 452.666 76.4651 451.964 77.7153 450.713C78.9656 449.463 79.668 447.767 79.668 445.999V435.999C79.668 434.231 78.9656 432.536 77.7153 431.285C76.4651 430.035 74.7694 429.333 73.0013 429.333Z" fill="#EDEAEA"/>
<path d="M73.0013 438.5C72.7803 438.5 72.5683 438.412 72.412 438.256C72.2558 438.1 72.168 437.888 72.168 437.667V434.333C72.168 434.112 72.2558 433.9 72.412 433.744C72.5683 433.588 72.7803 433.5 73.0013 433.5C73.2223 433.5 73.4343 433.588 73.5906 433.744C73.7468 433.9 73.8346 434.112 73.8346 434.333V437.667C73.8346 437.888 73.7468 438.1 73.5906 438.256C73.4343 438.412 73.2223 438.5 73.0013 438.5Z" fill="#EDEAEA"/>
</g>
<path d="M429.75 742.75C426.299 742.75 423.5 745.52 423.5 748.937C423.5 751.696 424.594 758.244 435.36 764.863C435.553 764.98 435.774 765.042 436 765.042C436.226 765.042 436.447 764.98 436.64 764.863C447.406 758.244 448.5 751.696 448.5 748.937C448.5 745.52 445.701 742.75 442.25 742.75C438.799 742.75 436 746.5 436 746.5C436 746.5 433.201 742.75 429.75 742.75Z" stroke="#EDEAEA" stroke-width="2" stroke-linecap="round" stroke-linejoin="round"/>
<path d="M119.75 601.75C116.299 601.75 113.5 604.52 113.5 607.937C113.5 610.696 114.594 617.244 125.36 623.863C125.553 623.98 125.774 624.042 126 624.042C126.226 624.042 126.447 623.98 126.64 623.863C137.406 617.244 138.5 610.696 138.5 607.937C138.5 604.52 135.701 601.75 132.25 601.75C128.799 601.75 126 605.5 126 605.5C126 605.5 123.201 601.75 119.75 601.75Z" stroke="#EDEAEA" stroke-width="2" stroke-linecap="round" stroke-linejoin="round"/>
<path d="M200.5 404.75H225.5M203 389.75C203 389.087 203.263 388.451 203.732 387.982C204.201 387.513 204.837 387.25 205.5 387.25H220.5C221.163 387.25 221.799 387.513 222.268 387.982C222.737 388.451 223 389.087 223 389.75V401H203V389.75Z" stroke="#EDEAEA" stroke-width="2" stroke-linecap="round" stroke-linejoin="round"/>
<path d="M282.5 508.75C282.5 508.551 282.579 508.36 282.72 508.22C282.86 508.079 283.051 508 283.25 508H296.75C296.949 508 297.14 508.079 297.28 508.22C297.421 508.36 297.5 508.551 297.5 508.75C297.5 508.949 297.421 509.14 297.28 509.28C297.14 509.421 296.949 509.5 296.75 509.5H283.25C283.051 509.5 282.86 509.421 282.72 509.28C282.579 509.14 282.5 508.949 282.5 508.75ZM292.253 502.008C292.552 502.008 292.839 501.889 293.051 501.677C293.263 501.465 293.382 501.178 293.382 500.879C293.382 500.579 293.263 500.292 293.051 500.081C292.839 499.869 292.552 499.75 292.253 499.75C291.954 499.75 291.667 499.869 291.455 500.081C291.243 500.292 291.124 500.579 291.124 500.879C291.124 501.178 291.243 501.465 291.455 501.677C291.667 501.889 291.954 502.008 292.253 502.008ZM297.883 500.878C297.883 501.177 297.764 501.464 297.552 501.676C297.34 501.888 297.053 502.007 296.754 502.007C296.454 502.007 296.167 501.888 295.956 501.676C295.744 501.464 295.625 501.177 295.625 500.878C295.625 500.579 295.744 500.292 295.956 500.08C296.167 499.868 296.454 499.749 296.754 499.749C297.053 499.749 297.34 499.868 297.552 500.08C297.764 500.292 297.883 500.579 297.883 500.878ZM283.253 502.008C283.552 502.008 283.839 501.889 284.051 501.677C284.263 501.465 284.382 501.178 284.382 500.879C284.382 500.579 284.263 500.292 284.051 500.081C283.839 499.869 283.552 499.75 283.253 499.75C282.954 499.75 282.667 499.869 282.455 500.081C282.243 500.292 282.124 500.579 282.124 500.879C282.124 501.178 282.243 501.465 282.455 501.677C282.667 501.889 282.954 502.008 283.253 502.008ZM286.625 504.628C286.625 504.776 286.596 504.923 286.539 505.06C286.482 505.197 286.399 505.321 286.294 505.426C286.19 505.531 286.065 505.614 285.928 505.671C285.791 505.728 285.644 505.757 285.496 505.757C285.348 505.757 285.201 505.728 285.064 505.671C284.927 505.614 284.803 505.531 284.698 505.426C284.593 505.321 284.51 505.197 284.453 505.06C284.397 504.923 284.368 504.776 284.368 504.628C284.368 504.329 284.486 504.042 284.698 503.83C284.91 503.618 285.197 503.499 285.496 503.499C285.796 503.499 286.083 503.618 286.294 503.83C286.506 504.042 286.625 504.329 286.625 504.628ZM290.003 505.757C290.302 505.758 290.589 505.639 290.801 505.427C291.013 505.215 291.132 504.928 291.132 504.629C291.132 504.329 291.013 504.042 290.801 503.831C290.589 503.619 290.302 503.5 290.003 503.5C289.704 503.5 289.417 503.619 289.205 503.831C288.993 504.042 288.874 504.329 288.874 504.629C288.874 504.928 288.993 505.215 289.205 505.427C289.417 505.639 289.704 505.757 290.003 505.757ZM295.639 504.628C295.639 504.927 295.52 505.214 295.308 505.426C295.097 505.637 294.81 505.756 294.511 505.756C294.211 505.756 293.924 505.637 293.713 505.426C293.501 505.214 293.383 504.927 293.383 504.628C293.383 504.329 293.501 504.042 293.713 503.83C293.924 503.619 294.211 503.5 294.511 503.5C294.81 503.5 295.097 503.619 295.308 503.83C295.52 504.042 295.639 504.329 295.639 504.628ZM287.753 502.008C288.052 502.008 288.339 501.889 288.551 501.677C288.763 501.465 288.882 501.178 288.882 500.879C288.882 500.579 288.763 500.292 288.551 500.081C288.339 499.869 288.052 499.75 287.753 499.75C287.454 499.75 287.167 499.869 286.955 500.081C286.743 500.292 286.624 500.579 286.624 500.879C286.624 501.178 286.743 501.465 286.955 501.677C287.167 501.889 287.454 502.008 287.753 502.008ZM278 498.25C278 497.653 278.237 497.081 278.659 496.659C279.081 496.237 279.653 496 280.25 496H299.75C300.347 496 300.919 496.237 301.341 496.659C301.763 497.081 302 497.653 302 498.25V510.25C302 510.847 301.763 511.419 301.341 511.841C300.919 512.263 300.347 512.5 299.75 512.5H280.25C279.653 512.5 279.081 512.263 278.659 511.841C278.237 511.419 278 510.847 278 510.25V498.25ZM280.25 497.5C280.051 497.5 279.86 497.579 279.72 497.72C279.579 497.86 279.5 498.051 279.5 498.25V510.25C279.5 510.449 279.579 510.64 279.72 510.78C279.86 510.921 280.051 511 280.25 511H299.75C299.949 511 300.14 510.921 300.28 510.78C300.421 510.64 300.5 510.449 300.5 510.25V498.25C300.5 498.051 300.421 497.86 300.28 497.72C300.14 497.579 299.949 497.5 299.75 497.5H280.25Z" fill="#EDEAEA"/>
<path d="M105.5 314.75C105.5 314.551 105.579 314.36 105.72 314.22C105.86 314.079 106.051 314 106.25 314H119.75C119.949 314 120.14 314.079 120.28 314.22C120.421 314.36 120.5 314.551 120.5 314.75C120.5 314.949 120.421 315.14 120.28 315.28C120.14 315.421 119.949 315.5 119.75 315.5H106.25C106.051 315.5 105.86 315.421 105.72 315.28C105.579 315.14 105.5 314.949 105.5 314.75ZM115.253 308.008C115.552 308.008 115.839 307.889 116.051 307.677C116.263 307.465 116.382 307.178 116.382 306.879C116.382 306.579 116.263 306.292 116.051 306.081C115.839 305.869 115.552 305.75 115.253 305.75C114.954 305.75 114.667 305.869 114.455 306.081C114.243 306.292 114.124 306.579 114.124 306.879C114.124 307.178 114.243 307.465 114.455 307.677C114.667 307.889 114.954 308.008 115.253 308.008ZM120.883 306.878C120.883 307.177 120.764 307.464 120.552 307.676C120.34 307.888 120.053 308.007 119.754 308.007C119.454 308.007 119.167 307.888 118.956 307.676C118.744 307.464 118.625 307.177 118.625 306.878C118.625 306.579 118.744 306.292 118.956 306.08C119.167 305.868 119.454 305.749 119.754 305.749C120.053 305.749 120.34 305.868 120.552 306.08C120.764 306.292 120.883 306.579 120.883 306.878ZM106.253 308.008C106.552 308.008 106.839 307.889 107.051 307.677C107.263 307.465 107.382 307.178 107.382 306.879C107.382 306.579 107.263 306.292 107.051 306.081C106.839 305.869 106.552 305.75 106.253 305.75C105.954 305.75 105.667 305.869 105.455 306.081C105.243 306.292 105.124 306.579 105.124 306.879C105.124 307.178 105.243 307.465 105.455 307.677C105.667 307.889 105.954 308.008 106.253 308.008ZM109.625 310.628C109.625 310.776 109.596 310.923 109.539 311.06C109.482 311.197 109.399 311.321 109.294 311.426C109.19 311.531 109.065 311.614 108.928 311.671C108.791 311.728 108.644 311.757 108.496 311.757C108.348 311.757 108.201 311.728 108.064 311.671C107.927 311.614 107.803 311.531 107.698 311.426C107.593 311.321 107.51 311.197 107.453 311.06C107.397 310.923 107.368 310.776 107.368 310.628C107.368 310.329 107.486 310.042 107.698 309.83C107.91 309.618 108.197 309.499 108.496 309.499C108.796 309.499 109.083 309.618 109.294 309.83C109.506 310.042 109.625 310.329 109.625 310.628ZM113.003 311.757C113.302 311.758 113.589 311.639 113.801 311.427C114.013 311.215 114.132 310.928 114.132 310.629C114.132 310.329 114.013 310.042 113.801 309.831C113.589 309.619 113.302 309.5 113.003 309.5C112.704 309.5 112.417 309.619 112.205 309.831C111.993 310.042 111.874 310.329 111.874 310.629C111.874 310.928 111.993 311.215 112.205 311.427C112.417 311.639 112.704 311.757 113.003 311.757ZM118.639 310.628C118.639 310.927 118.52 311.214 118.308 311.426C118.097 311.637 117.81 311.756 117.511 311.756C117.211 311.756 116.924 311.637 116.713 311.426C116.501 311.214 116.383 310.927 116.383 310.628C116.383 310.329 116.501 310.042 116.713 309.83C116.924 309.619 117.211 309.5 117.511 309.5C117.81 309.5 118.097 309.619 118.308 309.83C118.52 310.042 118.639 310.329 118.639 310.628ZM110.753 308.008C111.052 308.008 111.339 307.889 111.551 307.677C111.763 307.465 111.882 307.178 111.882 306.879C111.882 306.579 111.763 306.292 111.551 306.081C111.339 305.869 111.052 305.75 110.753 305.75C110.454 305.75 110.167 305.869 109.955 306.081C109.743 306.292 109.624 306.579 109.624 306.879C109.624 307.178 109.743 307.465 109.955 307.677C110.167 307.889 110.454 308.008 110.753 308.008ZM101 304.25C101 303.653 101.237 303.081 101.659 302.659C102.081 302.237 102.653 302 103.25 302H122.75C123.347 302 123.919 302.237 124.341 302.659C124.763 303.081 125 303.653 125 304.25V316.25C125 316.847 124.763 317.419 124.341 317.841C123.919 318.263 123.347 318.5 122.75 318.5H103.25C102.653 318.5 102.081 318.263 101.659 317.841C101.237 317.419 101 316.847 101 316.25V304.25ZM103.25 303.5C103.051 303.5 102.86 303.579 102.72 303.72C102.579 303.86 102.5 304.051 102.5 304.25V316.25C102.5 316.449 102.579 316.64 102.72 316.78C102.86 316.921 103.051 317 103.25 317H122.75C122.949 317 123.14 316.921 123.28 316.78C123.421 316.64 123.5 316.449 123.5 316.25V304.25C123.5 304.051 123.421 303.86 123.28 303.72C123.14 303.579 122.949 303.5 122.75 303.5H103.25Z" fill="#EDEAEA"/>
<path d="M44 100H54M36.5 82.5C36.5 81.837 36.7634 81.2011 37.2322 80.7322C37.7011 80.2634 38.337 80 39 80H59C59.663 80 60.2989 80.2634 60.7678 80.7322C61.2366 81.2011 61.5 81.837 61.5 82.5V93.75C61.5 94.413 61.2366 95.0489 60.7678 95.5178C60.2989 95.9866 59.663 96.25 59 96.25H39C38.337 96.25 37.7011 95.9866 37.2322 95.5178C36.7634 95.0489 36.5 94.413 36.5 93.75V82.5Z" stroke="#EDEAEA" stroke-width="2" stroke-linecap="round" stroke-linejoin="round"/>
<defs>
<clipPath id="clip0_2969_18742">
<rect width="30" height="30" fill="white" transform="translate(105 108)"/>
</clipPath>
<clipPath id="clip1_2969_18742">
<rect width="30" height="30" fill="white" transform="translate(0 201)"/>
</clipPath>
<clipPath id="clip2_2969_18742">
<rect width="30" height="30" fill="white" transform="translate(127 405)"/>
</clipPath>
<clipPath id="clip3_2969_18742">
<rect width="30" height="30" fill="white" transform="translate(264 578)"/>
</clipPath>
<clipPath id="clip4_2969_18742">
<rect width="30" height="30" fill="white" transform="translate(348 741)"/>
</clipPath>
<clipPath id="clip5_2969_18742">
<rect width="30" height="30" fill="white" transform="translate(201 600)"/>
</clipPath>
<clipPath id="clip6_2969_18742">
<rect width="30" height="30" fill="white" transform="translate(84 545)"/>
</clipPath>
<clipPath id="clip7_2969_18742">
<rect width="30" height="30" fill="white" transform="translate(58 426)"/>
</clipPath>
</defs>
</svg>
