<svg width="1001" height="759" viewBox="0 0 1001 759" fill="none" xmlns="http://www.w3.org/2000/svg">
<path d="M341.43 318.717C344.972 325.169 345.035 332.822 341.62 339.337C341.051 340.412 342.695 341.361 343.264 340.286C346.996 333.138 346.933 324.789 343.075 317.769C342.442 316.63 340.861 317.642 341.43 318.717Z" fill="#161616"/>
<path d="M343.769 319.034C345.919 317.958 348.449 316.63 350.916 317.199C354.584 317.958 354.711 320.931 354.964 323.967C355.217 328.015 355.027 332.316 352.371 335.605C351.612 336.554 352.94 337.882 353.699 336.933C357.367 332.443 357.81 325.422 356.419 319.919C354.648 313.278 347.437 315.112 342.883 317.389C341.745 317.895 342.693 319.54 343.769 319.034Z" fill="#161616"/>
<path d="M343.769 340.665C347.311 341.108 350.852 339.716 353.193 336.996C353.952 336.048 352.623 334.719 351.864 335.668C349.84 338.072 346.931 339.21 343.769 338.831C342.567 338.641 342.567 340.538 343.769 340.665Z" fill="#161616"/>
<path d="M343.2 235.417C344.022 233.836 346.299 229.535 348.829 233.52C349.272 234.152 349.272 235.923 349.399 236.556C349.652 237.884 350.094 239.276 351.043 240.288C354.206 243.577 356.419 238.2 359.708 239.971C363.883 242.185 358.443 246.866 361.859 249.459C362.681 250.091 363.63 250.091 364.579 249.712C365.211 249.459 365.717 248.89 366.349 248.573C368.69 247.561 369.512 249.649 369.702 251.483C369.765 252.052 370.081 252.368 370.651 252.432C371.346 252.495 371.979 252.558 372.674 252.621C373.876 252.748 373.876 250.85 372.674 250.724C371.979 250.661 371.346 250.597 370.651 250.534C370.967 250.85 371.283 251.167 371.599 251.483C371.41 249.775 371.093 247.561 369.512 246.549C367.804 245.411 366.666 246.423 365.084 247.182C364.325 247.561 363.693 248.826 362.618 247.308C362.238 246.739 363.06 244.968 363.187 244.336C363.44 243.324 363.567 242.438 363.25 241.426C362.744 239.845 361.353 238.517 359.772 238.011C357.811 237.315 356.862 238.137 355.091 238.643C353.51 239.086 351.929 238.959 351.359 237.252C351.17 236.619 351.106 235.86 351.043 235.228C350.853 234.216 350.727 233.14 350.221 232.192C347.627 227.448 343.137 231.433 341.556 234.658C340.986 235.544 342.631 236.493 343.2 235.417Z" fill="#161616"/>
<path d="M355.468 229.534C356.986 228.08 358.378 227.447 360.022 228.839C361.35 229.977 361.097 230.357 361.477 231.875C361.73 232.76 361.983 233.582 362.742 234.215C363.691 235.037 364.766 235.037 365.968 234.911C367.106 234.784 368.434 234.025 369.383 235.227C369.826 235.796 369.763 237.061 369.763 237.757C369.826 239.654 369.826 241.931 371.976 242.627C372.609 242.817 373.305 242.501 373.874 242.69C374.633 242.374 374.949 242.564 375.012 243.386C375.265 243.892 375.392 244.398 375.329 245.031C375.645 246.485 376.214 247.561 377.353 248.573C378.238 249.395 379.566 248.067 378.681 247.244C376.783 245.473 378.112 243.007 376.53 241.425C374.886 239.781 372.293 242.184 371.723 239.148C371.281 236.808 372.166 233.646 369.067 232.823C366.853 232.254 364.513 234.468 363.311 231.432C362.805 230.167 362.995 228.775 362.109 227.574C360.022 224.854 356.164 226.245 354.077 228.206C353.191 229.028 354.583 230.42 355.468 229.534Z" fill="#161616"/>
<path d="M588.482 347.117C586.585 346.927 589.431 343.195 590 342.879C591.518 342.057 593.289 342.5 594.428 343.701C596.894 346.358 594.807 350.279 591.455 350.659C590.253 350.785 590.253 352.683 591.455 352.556C594.238 352.24 596.705 350.406 597.337 347.623C597.97 344.903 596.325 341.994 593.795 340.918C591.328 339.906 588.609 340.855 587.154 343.069C585.889 344.966 585.573 348.761 588.545 349.014C589.684 349.141 589.684 347.243 588.482 347.117Z" fill="#161616"/>
<path d="M575.707 343.259C574.378 342.057 575.96 339.653 577.478 340.982C579.059 342.31 576.908 344.144 575.454 343.069C574.505 342.31 573.556 343.954 574.505 344.713C575.833 345.725 577.857 345.409 579.059 344.207C580.45 342.816 580.134 340.665 578.679 339.464C577.225 338.262 575.137 338.325 573.999 339.906C572.987 341.298 573.113 343.322 574.378 344.524C575.264 345.409 576.655 344.081 575.707 343.259Z" fill="#161616"/>
<path d="M795.12 261.981C795.753 273.746 789.871 285.068 779.94 291.393C778.928 292.025 779.877 293.67 780.889 293.037C791.389 286.396 797.65 274.442 797.018 261.981C796.955 260.78 795.057 260.78 795.12 261.981Z" fill="#161616"/>
<path d="M796.386 263.373C802.458 267.801 799.991 275.833 796.639 281.083C793.476 286.08 788.353 292.025 781.775 291.013C780.573 290.824 780.067 292.658 781.269 292.848C789.175 293.986 795.184 287.345 798.853 281.146C802.521 275.011 803.913 266.536 797.335 261.729C796.323 261.033 795.374 262.677 796.386 263.373Z" fill="#161616"/>
<path d="M263.945 207.082C267.93 213.66 270.334 220.934 270.903 228.587C271.029 229.789 272.927 229.789 272.8 228.587C272.168 220.554 269.764 213.027 265.59 206.133C264.894 205.058 263.25 206.007 263.945 207.082Z" fill="#E8E8E8"/>
<path d="M271.665 204.994C274.954 210.94 276.788 217.391 277.231 224.159C277.294 225.361 279.192 225.361 279.128 224.159C278.686 217.075 276.725 210.307 273.309 204.045C272.74 202.97 271.096 203.919 271.665 204.994Z" fill="#E8E8E8"/>
<path d="M263.44 219.226C268.943 215.621 275.141 213.723 281.782 213.597C282.984 213.597 282.984 211.699 281.782 211.699C274.888 211.826 268.31 213.85 262.491 217.645C261.479 218.277 262.428 219.922 263.44 219.226Z" fill="#E8E8E8"/>
<path d="M263.252 226.941C270.147 222.767 277.673 220.11 285.643 218.909C286.845 218.719 286.339 216.885 285.137 217.074C276.978 218.276 269.324 221.059 262.304 225.297C261.292 225.929 262.24 227.574 263.252 226.941Z" fill="#E8E8E8"/>
<path d="M634.655 258.123C631.745 259.578 630.607 263.373 633.074 265.84C634.402 267.168 635.54 266.788 637.122 267.294C638.134 267.611 639.272 268.243 639.082 269.255C638.956 269.951 638.26 270.52 637.881 271.089C637.248 271.912 636.489 272.86 636.236 273.872C635.983 275.074 636.299 276.276 637.248 277.098C638.64 278.3 640.474 277.541 641.992 278.3C645.154 279.818 639.399 286.459 644.269 287.724C645.471 288.04 645.977 286.206 644.775 285.89C642.751 285.384 645.281 281.526 645.471 280.324C645.597 279.249 645.407 278.173 644.585 277.414C642.435 275.327 636.11 277.541 639.335 272.228C640.347 270.583 642.182 268.559 640.98 266.409C640.6 265.713 639.968 265.334 639.209 265.144C638.45 265.017 637.248 265.144 636.489 265.081C633.137 264.891 632.757 261.159 635.604 259.704C636.679 259.262 635.73 257.617 634.655 258.123Z" fill="#E8E8E8"/>
<path d="M648.698 268.75C646.611 269.572 646.547 271.849 647.812 273.557C648.635 274.759 649.963 275.012 651.038 275.834C653.695 277.795 651.354 279.439 650.912 281.716C650.153 285.638 654.327 284.309 655.529 286.839C656.541 288.927 656.161 291.267 658.755 292.216C659.893 292.658 660.399 290.824 659.261 290.381C657.426 289.749 657.679 286.27 656.667 284.879C656.351 284.373 655.908 284.056 655.466 283.677C655.213 283.487 654.833 283.55 654.643 283.424C654.201 283.361 653.884 283.044 653.758 282.412C652.872 281.843 652.746 281.273 653.505 280.641C654.074 278.87 655.213 277.795 654.011 275.96C653.568 275.265 652.746 274.759 652.05 274.316C651.481 273.936 647.37 271.406 649.267 270.647C650.342 270.141 649.836 268.307 648.698 268.75Z" fill="#E8E8E8"/>
<path d="M770.897 396.451C766.28 393.162 767.039 386.268 772.036 383.738C775.831 381.84 781.017 383.611 782.978 387.343C784.939 391.075 783.231 396.325 779.499 398.285C775.578 400.309 770.708 398.538 768.494 394.933C767.861 393.921 766.217 394.87 766.849 395.882C769.696 400.626 776.274 402.713 781.144 399.55C785.761 396.514 787.216 389.494 783.8 385.066C780.448 380.765 773.744 379.753 769.506 383.232C764.572 387.217 764.952 394.49 770.012 398.159C770.961 398.791 771.909 397.147 770.897 396.451Z" fill="#E8E8E8"/>
<path d="M334.346 414.667C335.042 412.39 336.054 411.757 337.255 412.833C337.572 412.959 337.888 413.149 338.141 413.275C338.584 413.402 339.153 413.528 339.596 413.465C340.545 413.339 341.304 412.769 341.746 412.01C343.328 409.48 341.557 407.014 339.975 405.053C339.153 404.104 337.635 402.839 337.825 401.384C338.078 398.601 339.722 399.74 341.114 399.55C342.126 399.424 343.011 399.044 343.517 398.095C344.023 397.273 343.897 396.198 343.77 395.312C343.707 394.806 343.517 394.237 343.517 393.731C343.075 392.403 343.707 391.581 345.415 391.264C346.237 391.834 346.933 392.529 347.502 393.415C348.198 394.427 349.842 393.478 349.147 392.466C347.439 390.063 342.379 386.774 341.557 391.77C341.177 394.3 343.517 396.957 339.785 397.589C337.951 397.906 336.686 397.906 336.117 400.056C335.611 401.827 336.307 403.535 337.382 404.926C337.888 405.559 338.457 406.128 338.963 406.697C339.596 407.33 340.039 408.026 340.355 408.848C339.596 409.607 338.9 410.366 338.141 411.125C337.572 411.251 336.117 410.05 335.295 409.986C331.626 409.733 329.666 414.667 333.334 416.248C334.536 416.754 335.485 415.11 334.346 414.667Z" fill="#E8E8E8"/>
<path d="M349.776 411.949C348.764 410.304 347.183 407.774 347.878 405.687C348.384 404.106 350.535 403.41 351.484 402.145C352.938 400.184 352.749 397.591 351.42 395.63C351.167 396.136 350.851 396.579 350.598 397.085C354.203 397.338 357.239 395.188 358.315 391.709C358.694 390.507 356.86 390.064 356.48 391.203C355.658 393.859 353.381 395.377 350.598 395.188C349.902 395.124 349.396 396.01 349.776 396.642C350.598 397.844 350.914 399.552 350.092 400.88C349.333 402.019 348.321 402.082 347.499 402.904C346.74 403.663 346.234 404.422 346.044 405.561C345.538 408.154 346.93 410.747 348.195 412.898C348.764 413.973 350.408 413.024 349.776 411.949Z" fill="#E8E8E8"/>
<path d="M542.942 85.1359C546.295 88.9941 548.382 93.4849 549.267 98.4816C549.457 99.6834 551.291 99.1774 551.102 97.9756C550.153 92.6626 547.813 87.8556 544.271 83.7444C543.448 82.8589 542.12 84.1871 542.942 85.1359Z" fill="#E8E8E8"/>
<path d="M544.589 85.3244C546.74 83.3636 555.342 75.6471 558.504 77.8609C560.085 78.9994 561.477 81.5926 562.489 83.3004C563.754 85.4509 564.766 87.7279 565.588 90.0681C565.968 91.2066 567.802 90.7006 567.422 89.5621C566.347 86.5894 565.019 83.6799 563.311 81.0234C562.236 79.3156 560.591 76.4061 558.631 75.5839C556.417 74.6351 553.697 76.5959 551.863 77.6711C548.764 79.4421 545.917 81.5926 543.261 83.9961C542.375 84.8184 543.704 86.1466 544.589 85.3244Z" fill="#E8E8E8"/>
<path d="M551.291 99.6831C556.225 95.5086 561.601 92.0931 567.547 89.4998C568.685 88.9938 567.673 87.3493 566.598 87.8553C560.526 90.5118 555.023 94.0538 549.963 98.3548C549.014 99.1138 550.343 100.442 551.291 99.6831Z" fill="#E8E8E8"/>
<path d="M562.299 81.8469C564.702 79.8229 570.078 74.6997 573.051 78.0519C575.202 80.4554 576.593 84.3769 577.858 87.2864C578.364 88.4249 580.009 87.4129 579.503 86.3377C578.301 83.6179 577.036 81.0247 575.518 78.4947C574.759 77.1664 573.81 75.1424 572.229 74.5732C570.395 73.9407 568.434 75.2689 566.979 76.1544C564.829 77.4194 562.868 78.8742 560.97 80.4554C560.022 81.3409 561.413 82.6692 562.299 81.8469Z" fill="#E8E8E8"/>
<path d="M557.617 93.4213C560.59 94.7496 563.12 96.5206 565.46 98.7976C565.903 99.2403 566.599 99.1138 566.978 98.6078C569.761 94.6231 573.43 91.5871 577.857 89.4998C578.996 88.9938 577.984 87.3493 576.909 87.8553C572.165 90.0691 568.307 93.3581 565.334 97.5958C565.84 97.5326 566.346 97.4693 566.852 97.4061C564.448 95.0026 561.729 93.1683 558.629 91.7768C557.428 91.3341 556.479 92.9153 557.617 93.4213Z" fill="#E8E8E8"/>
<path d="M571.406 163.754C571.28 163.058 571.09 162.362 570.964 161.667C571.533 161.097 572.102 160.591 572.798 160.212C573.177 159.959 573.62 159.706 574 159.39C574.759 158.757 575.265 158.125 575.644 157.239C576.087 156.101 575.96 155.025 575.834 153.824C575.771 153.444 575.707 153.001 575.644 152.622C575.581 152.179 575.834 147.056 577.858 148.7C578.807 149.459 580.135 148.131 579.186 147.372C577.795 146.234 576.34 146.423 575.075 147.625C572.924 149.712 573.936 152.179 574.063 154.709C574.253 158.504 569.319 158.694 568.876 162.173C568.687 163.754 569.319 165.209 570.964 165.525C572.102 165.778 572.608 163.944 571.406 163.754Z" fill="#FFCC4D"/>
<path d="M578.365 158.506C579.883 159.708 582.033 158.822 582.349 156.861C582.666 155.154 581.527 153.572 581.654 151.865C581.843 149.524 583.425 147.5 585.575 146.678C586.714 146.235 586.208 144.401 585.069 144.844C582.982 145.603 581.337 146.994 580.452 149.082C580.009 150.03 579.756 151.106 579.756 152.181C579.756 152.687 579.819 153.193 579.883 153.636C579.883 153.636 580.831 158 579.756 157.114C578.744 156.419 577.416 157.747 578.365 158.506Z" fill="#FFCC4D"/>
<path d="M415.177 367.229C414.038 366.597 413.912 365.142 414.734 364.193C415.556 363.244 417.074 362.865 418.276 363.055C419.288 363.244 420.427 363.751 420.869 364.763C421.375 365.901 420.616 367.862 419.098 367.672C417.897 367.482 417.391 369.317 418.592 369.506C420.743 369.823 422.64 368.368 422.957 366.154C423.336 363.814 421.439 361.916 419.288 361.347C417.074 360.714 414.291 361.41 412.963 363.434C411.761 365.268 412.267 367.862 414.291 368.874C415.303 369.443 416.252 367.798 415.177 367.229Z" fill="#FFCC4D"/>
<path d="M315.242 143.389C315.621 142.124 316.001 140.796 316.317 139.531C316.696 139.657 317.076 139.784 317.455 139.91C317.961 139.973 318.467 140.29 318.973 140.416C319.669 140.606 320.491 140.669 321.187 140.479C322.832 139.91 323.338 138.329 323.338 136.748C323.338 135.166 322.768 133.459 324.033 132.194C325.045 131.182 326.753 130.802 328.081 131.118C332.446 132.13 332.003 137.633 330.105 140.606C329.473 141.618 331.117 142.567 331.75 141.555C333.837 138.202 334.343 133.142 330.928 130.423C328.398 128.399 324.097 128.778 322.136 131.435C320.808 133.206 321.693 134.787 321.314 136.811C320.681 140.163 315.937 137.064 313.787 137.823C309.739 139.278 310.941 144.401 314.546 145.35C315.874 145.539 316.38 143.705 315.242 143.389Z" fill="#FFCC4D"/>
<path d="M726.62 420.802C727.948 419.79 729.403 419.727 730.984 420.549C731.68 420.928 732.628 420.296 732.375 419.474C731.806 418.335 731.933 417.323 732.881 416.438C733.324 414.477 734.336 414.35 735.854 415.995C736.297 416.88 737.562 416.374 737.625 415.489C737.625 414.667 737.688 413.781 737.815 412.959C738.005 410.935 739.333 410.429 741.673 411.378C742.179 412.516 743.76 411.504 743.318 410.429C742.559 408.658 740.535 408.089 738.764 408.784C736.107 409.86 735.791 413.022 735.728 415.489C736.297 415.299 736.929 415.173 737.499 414.983C736.613 413.085 734.336 412.39 732.439 413.338C730.035 414.603 729.909 417.576 730.541 419.916C730.984 419.537 731.49 419.221 731.933 418.841C729.782 417.766 727.758 417.829 725.671 419.094C724.659 419.79 725.608 421.434 726.62 420.802Z" fill="#FFCC4D"/>
<path d="M677.474 158.757C674.059 159.769 671.655 162.679 671.212 166.284C670.77 169.699 672.794 173.937 676.589 174.317C679.372 174.57 682.155 171.407 680.447 168.814C678.613 165.968 675.071 168.055 673.616 170.079C669.505 175.961 673.173 187.473 681.649 184.753C683.989 183.994 686.899 181.148 685.57 178.428C683.926 175.076 680.257 178.681 679.308 180.578C677.348 184.5 676.842 190.129 680.89 192.912C684.052 195.063 688.416 193.671 689.428 189.939C689.681 189.117 688.48 188.232 687.847 188.991C683.483 194.493 686.835 202.083 693.919 202.336C695.121 202.4 695.121 200.502 693.919 200.439C688.606 200.249 685.823 194.557 689.175 190.382C688.669 190.066 688.1 189.75 687.594 189.433C686.645 193.039 682.218 192.469 680.51 189.813C678.992 187.346 679.498 183.994 680.89 181.527C681.206 180.895 682.914 177.922 683.926 179.819C684.432 180.831 682.534 182.286 681.902 182.666C679.941 183.741 677.348 183.425 675.83 181.78C674.248 180.136 673.742 177.606 673.932 175.392C674.059 174.19 674.312 172.799 674.881 171.787C675.134 171.407 675.45 171.028 675.703 170.648C677.284 169.13 677.221 169.573 675.45 172.04C674.185 172.166 673.11 168.687 673.047 167.865C672.983 167.043 673.11 166.221 673.3 165.462C673.932 163.121 675.64 161.35 677.98 160.655C679.182 160.275 678.676 158.441 677.474 158.757Z" fill="#FFCC4D"/>
<path d="M337.189 197.403C336.683 195.885 336.936 194.43 338.075 193.229C339.34 191.9 340.858 192.09 342.439 192.343C343.578 192.533 344.463 192.659 345.538 192.027C346.361 191.521 346.93 190.572 347.309 189.75C347.562 189.117 347.752 188.485 347.879 187.852C347.942 187.41 348.068 186.967 348.132 186.587C348.258 185.069 349.333 184.437 351.294 184.69C351.231 185.828 352.812 185.892 353.128 184.943C353.634 183.488 354.267 181.97 355.595 181.085C357.556 179.756 360.339 180.009 360.718 182.729C360.908 183.931 362.679 183.425 362.553 182.223C362.173 179.63 359.706 177.985 357.113 178.365C353.951 178.808 352.243 181.78 351.357 184.5C351.99 184.563 352.622 184.69 353.192 184.753C353.318 182.856 351.547 181.654 349.713 181.907C346.74 182.286 346.614 185.639 345.981 187.852C345.538 189.434 345.159 190.635 342.945 190.572C342.313 190.572 341.554 190.129 340.858 190.129C339.656 190.129 338.454 190.572 337.506 191.268C335.418 192.849 334.533 195.506 335.355 197.972C335.735 199.048 337.569 198.605 337.189 197.403Z" fill="#8AA6BF"/>
<path d="M691.265 258.757C695.807 258.757 699.488 254.821 699.488 249.966C699.488 245.11 695.807 241.174 691.265 241.174C686.724 241.174 683.043 245.11 683.043 249.966C683.043 254.821 686.724 258.757 691.265 258.757Z" fill="#8AA6BF"/>
<path d="M246.49 260.717C249.494 260.717 251.93 258.31 251.93 255.341C251.93 252.372 249.494 249.965 246.49 249.965C243.486 249.965 241.051 252.372 241.051 255.341C241.051 258.31 243.486 260.717 246.49 260.717Z" fill="#8AA6BF"/>
<path d="M327.007 489.681C329.522 489.681 331.561 487.473 331.561 484.748C331.561 482.023 329.522 479.814 327.007 479.814C324.492 479.814 322.453 482.023 322.453 484.748C322.453 487.473 324.492 489.681 327.007 489.681Z" fill="#8AA6BF"/>
<path d="M681.715 269.699C686.99 269.699 691.266 265.649 691.266 260.654C691.266 255.659 686.99 251.609 681.715 251.609C676.44 251.609 672.164 255.659 672.164 260.654C672.164 265.649 676.44 269.699 681.715 269.699Z" fill="#FFCC4D"/>
<path d="M492.659 75.3946C495.349 75.3946 497.53 72.9593 497.53 69.9551C497.53 66.951 495.349 64.5156 492.659 64.5156C489.97 64.5156 487.789 66.951 487.789 69.9551C487.789 72.9593 489.97 75.3946 492.659 75.3946Z" fill="#FFCC4D"/>
<path d="M759.952 365.332C763.725 365.332 766.783 361.934 766.783 357.742C766.783 353.551 763.725 350.152 759.952 350.152C756.179 350.152 753.121 353.551 753.121 357.742C753.121 361.934 756.179 365.332 759.952 365.332Z" fill="#FFCC4D"/>
<path d="M227.389 326.117C234.934 326.117 241.051 319.858 241.051 312.138C241.051 304.418 234.934 298.16 227.389 298.16C219.843 298.16 213.727 304.418 213.727 312.138C213.727 319.858 219.843 326.117 227.389 326.117Z" fill="#FFCC4D"/>
<path d="M322.58 684.427C310.309 665.958 293.864 645.844 296.015 622.315C295.699 622.632 295.382 622.948 295.066 623.264C296.964 623.201 298.608 623.517 300.379 624.276C301.075 624.592 302.087 624.086 301.771 623.201C301.138 621.43 300 620.418 298.735 619.09C296.394 616.623 296.205 614.093 296.331 610.867C296.521 605.744 295.635 601.063 293.485 596.383C293.295 596.826 293.105 597.332 292.916 597.774C294.56 597.205 296.205 596.636 297.849 596.067C298.292 595.877 298.671 595.434 298.482 594.928C294.434 583.164 296.458 569.944 297.343 557.864C298.292 544.961 299.557 532.121 301.075 519.281C300.569 519.534 300.126 519.85 299.62 520.103C308.096 525.543 312.65 534.841 316.192 543.885C320.24 554.195 323.718 564.695 326.628 575.384C332.7 597.395 336.368 620.102 337.633 642.935C338.329 655.648 338.266 668.425 337.444 681.138C337.38 682.34 339.278 682.34 339.341 681.138C342.314 634.333 335.167 586.579 317.836 542.937C314.104 533.512 309.297 524.088 300.569 518.459C299.873 518.016 299.241 518.585 299.114 519.281C297.533 532.564 296.268 545.846 295.319 559.129C294.434 571.083 292.663 583.859 296.584 595.434C296.774 595.055 297.027 594.675 297.217 594.296C295.572 594.865 293.928 595.434 292.283 596.003C291.651 596.193 291.461 596.826 291.714 597.395C292.979 600.178 293.928 603.087 294.244 606.187C294.497 608.78 294.117 611.31 294.307 613.903C294.434 615.674 294.75 617.319 295.825 618.837C297.09 620.608 299.114 621.746 299.873 623.833C300.316 623.454 300.822 623.138 301.265 622.758C299.241 621.873 297.217 621.43 295.003 621.493C294.434 621.493 294.117 621.936 294.054 622.442C291.904 646.35 308.475 666.78 320.935 685.502C321.631 686.388 323.276 685.439 322.58 684.427Z" fill="#E8E8E8"/>
<path d="M301.137 523.708C315.558 562.417 324.224 603.214 326.69 644.453C327.386 656.091 327.576 667.792 327.323 679.493C327.323 680.695 329.22 680.695 329.22 679.493C330.169 638.254 325.046 596.889 313.977 557.104C310.815 545.656 307.083 534.334 302.972 523.202C302.592 522.064 300.758 522.57 301.137 523.708Z" fill="#E8E8E8"/>
<path d="M296.015 563.683C305.376 569.502 313.029 577.535 318.405 587.212C318.974 588.288 320.619 587.339 320.05 586.264C314.547 576.333 306.641 568.047 296.963 562.039C295.951 561.406 295.003 563.051 296.015 563.683Z" fill="#E8E8E8"/>
<path d="M297.913 540.344C303.226 544.329 307.527 549.262 310.879 554.955C311.511 556.03 313.156 555.081 312.523 554.006C308.981 547.997 304.427 542.874 298.861 538.699C297.913 538.004 296.964 539.648 297.913 540.344Z" fill="#E8E8E8"/>
<path d="M325.743 615.674C326.881 607.831 329.095 600.178 332.384 592.967C332.89 591.892 331.245 590.88 330.739 592.019C327.387 599.419 325.11 607.135 323.908 615.231C323.719 616.37 325.553 616.876 325.743 615.674Z" fill="#E8E8E8"/>
<path d="M330.296 579.748C336.115 560.457 346.172 543 356.229 525.67C355.66 525.606 355.09 525.543 354.521 525.417C359.708 550.717 364.009 576.143 367.298 601.759C367.614 601.443 367.93 601.127 368.246 600.811C366.033 600.684 363.819 600.558 361.605 600.431C360.846 600.368 360.277 601.57 360.909 602.076C364.704 604.985 364.325 610.045 363.882 614.346C363.313 620.039 362.68 625.668 362.048 631.36C362.427 631.044 362.87 630.728 363.25 630.475C361.542 630.095 359.897 629.969 358.126 629.969C357.431 629.969 356.925 630.791 357.304 631.424C362.174 639.773 354.584 648.501 351.042 655.712C347.5 662.985 345.223 670.828 344.085 678.861C343.895 680.063 345.729 680.569 345.919 679.367C347.247 669.627 350.41 660.392 355.28 651.853C358.949 645.402 363.186 637.749 358.949 630.475C358.696 630.981 358.379 631.424 358.126 631.93C359.708 631.866 361.226 631.993 362.744 632.372C363.376 632.499 363.882 632.119 363.945 631.487C364.641 624.972 365.653 618.457 365.969 611.943C366.159 607.895 365.59 603.53 362.238 600.874C361.985 601.443 361.795 601.949 361.542 602.518C363.756 602.645 365.969 602.771 368.183 602.898C368.626 602.898 369.195 602.455 369.132 601.949C365.78 576.206 361.479 550.527 356.229 525.1C356.039 524.278 354.901 524.215 354.521 524.847C344.401 542.304 334.281 559.951 328.399 579.369C328.146 580.381 329.98 580.887 330.296 579.748Z" fill="#E8E8E8"/>
<path d="M354.458 527.757C348.069 565.454 343.705 603.531 341.365 641.734C341.302 642.936 343.199 642.936 343.262 641.734C345.539 603.721 349.904 565.834 356.229 528.263C356.482 527.062 354.647 526.556 354.458 527.757Z" fill="#E8E8E8"/>
<path d="M335.294 566.023C337.887 574.815 340.923 583.417 344.338 591.892C344.781 593.031 346.615 592.525 346.173 591.386C342.757 582.911 339.784 574.246 337.128 565.517C336.748 564.315 334.914 564.821 335.294 566.023Z" fill="#E8E8E8"/>
<path d="M119.104 603.341C140.798 596.193 164.58 591.513 187.477 592.715C199.368 593.347 210.69 597.016 221.948 600.431C232.89 603.72 243.833 607.136 254.838 610.298C267.235 613.84 279.759 616.686 292.598 617.572C293.8 617.635 293.8 615.738 292.598 615.674C268.943 614.156 246.11 605.807 223.593 598.976C212.903 595.751 202.277 592.145 191.082 591.07C179.571 589.995 167.869 591.07 156.484 592.651C143.581 594.486 130.868 597.458 118.534 601.506C117.459 601.886 117.965 603.72 119.104 603.341Z" fill="#E8E8E8"/>
<path d="M186.59 591.956C205.059 587.908 223.591 583.86 241.807 578.61C259.707 573.424 277.164 565.265 295.823 562.988C297.024 562.861 297.024 560.964 295.823 561.09C277.417 563.367 260.213 571.273 242.503 576.46C223.971 581.899 205.059 586.011 186.147 590.185C184.882 590.375 185.388 592.209 186.59 591.956Z" fill="#E8E8E8"/>
<path d="M323.21 558.686C328.27 558.37 333.393 558.307 338.453 558.496C339.655 558.56 339.655 556.662 338.453 556.599C333.33 556.409 328.27 556.472 323.21 556.789C322.008 556.915 322.008 558.813 323.21 558.686Z" fill="#E8E8E8"/>
<path d="M143.392 678.165C164.644 675.129 185.707 680.505 206.579 683.794C216.509 685.375 226.503 686.324 236.56 686.071C247.818 685.755 259.077 684.616 270.209 686.577C271.41 686.767 271.916 684.932 270.715 684.743C259.772 682.845 248.83 683.794 237.761 684.173C226.629 684.553 215.687 683.414 204.745 681.643C184.252 678.291 163.696 673.421 142.886 676.394C141.685 676.52 142.191 678.354 143.392 678.165Z" fill="#E8E8E8"/>
<path d="M269.763 702.959C270.016 700.998 277.543 701.884 278.871 701.884C280.516 701.884 286.588 700.935 287.41 702.706C287.537 702.263 287.663 701.82 287.726 701.378C284.627 703.465 281.212 704.35 277.48 704.097C276.278 704.034 276.278 705.932 277.48 705.995C281.528 706.248 285.26 705.236 288.675 703.022C289.118 702.706 289.244 702.2 288.991 701.694C288.422 700.492 287.473 700.176 286.208 699.986C283.236 699.543 279.947 699.923 276.974 699.923C274.128 699.923 268.245 698.848 267.803 702.896C267.676 704.161 269.637 704.161 269.763 702.959Z" fill="#E8E8E8"/>
<path d="M271.157 671.65C269.955 672.283 268.69 672.093 267.425 671.081C267.362 671.587 267.298 672.093 267.235 672.599C268.816 671.397 270.651 670.638 272.675 670.702C274.319 670.765 275.774 671.65 277.418 671.714C278.936 671.777 280.328 671.144 281.846 670.955C284.249 670.575 286.463 671.081 288.614 672.283C289.689 672.852 290.638 671.271 289.562 670.638C287.981 669.753 286.4 669.12 284.566 668.994C281.972 668.741 279.569 670.132 277.102 669.816C275.078 669.563 273.434 668.741 271.283 668.93C269.386 669.12 267.741 669.879 266.223 671.018C265.78 671.334 265.527 672.093 266.033 672.536C267.741 673.927 269.512 674.37 271.599 673.611C272.801 673.105 272.295 671.271 271.157 671.65Z" fill="#E8E8E8"/>
<path d="M175.269 698.469C178.494 702.453 182.795 698.722 186.401 697.963C189.373 697.33 191.714 699.101 194.623 699.101C197.722 699.101 201.075 697.646 203.794 699.607C204.806 700.303 205.755 698.658 204.743 697.963C203.099 696.761 201.328 696.571 199.304 696.698C196.268 696.951 193.864 697.33 190.828 696.381C188.741 695.686 186.97 695.686 184.883 696.445C182.353 697.393 178.747 699.923 176.47 697.14C175.838 696.192 174.446 697.583 175.269 698.469Z" fill="#E8E8E8"/>
<path d="M379.566 685.819C383.74 684.174 387.092 684.68 391.457 685.186C394.176 685.502 396.074 684.554 398.477 683.478C401.007 682.34 402.715 682.909 404.992 684.174C405.941 684.68 406.826 685.123 407.902 685.313C411.127 685.945 415.492 683.795 418.211 686.135C419.16 686.957 420.488 685.566 419.54 684.807C417.136 682.783 414.543 683.225 411.57 683.478C409.103 683.668 407.206 683.225 405.119 682.024C403.854 681.328 402.652 680.695 401.197 680.695C399.869 680.695 398.667 681.265 397.465 681.771C394.619 683.036 392.911 683.415 389.749 682.909C386.017 682.34 382.602 682.53 379.06 683.921C377.921 684.427 378.427 686.261 379.566 685.819Z" fill="#E8E8E8"/>
<path d="M795.814 584.239C818.268 573.93 840.848 563.557 864.503 556.346C888.349 549.136 913.143 545.594 938.063 546.163C952.231 546.479 966.399 548.124 980.314 550.97C981.516 551.223 982.022 549.389 980.82 549.136C956.026 544.012 930.537 542.874 905.426 545.847C880.506 548.756 856.661 556.093 833.448 565.517C820.418 570.83 807.579 576.713 794.802 582.595C793.79 583.101 794.739 584.745 795.814 584.239Z" fill="#E8E8E8"/>
<path d="M898.597 586.327C913.397 580.95 928.577 576.776 944.074 573.993C952.043 572.538 960.013 571.526 968.109 570.767C973.928 570.261 984.743 567.794 988.918 573.36C989.614 574.309 991.321 573.36 990.562 572.412C986.957 567.605 980.695 568.047 975.256 568.364C966.654 568.87 957.989 569.818 949.45 571.147C931.93 573.866 914.726 578.42 898.091 584.492C896.952 584.935 897.458 586.769 898.597 586.327Z" fill="#E8E8E8"/>
<path d="M795.877 545.719C813.207 541.924 831.36 543.948 847.362 551.602C848.437 552.108 849.449 550.463 848.311 549.957C831.803 542.114 813.207 539.964 795.371 543.885C794.169 544.138 794.675 545.972 795.877 545.719Z" fill="#E8E8E8"/>
<path d="M834.525 632.752C837.244 629.526 841.545 633.195 844.392 634.333C846.732 635.282 848.566 635.029 850.843 634.017C854.512 632.372 857.484 633.827 861.153 633.701C864.948 633.574 868.047 629.969 871.526 633.131C872.411 633.954 873.803 632.625 872.854 631.803C870.577 629.779 868.11 629.4 865.264 630.412C863.809 630.981 862.734 631.677 861.09 631.803C859.825 631.866 858.56 631.55 857.295 631.424C855.777 631.234 854.259 630.981 852.804 631.234C850.4 631.677 848.503 633.574 845.846 632.878C843.949 632.372 842.368 631.044 840.533 630.285C837.94 629.273 834.967 629.083 833.07 631.36C832.374 632.372 833.702 633.701 834.525 632.752Z" fill="#E8E8E8"/>
<path d="M907.45 681.328C903.402 668.425 901.567 655.016 902.073 641.481C901.567 641.734 901.125 642.05 900.619 642.303C902.01 642.999 903.465 643.694 904.856 644.39C905.552 644.706 906.248 644.327 906.311 643.568C907.197 630.538 910.106 617.825 914.85 605.618C914.407 605.808 913.901 605.997 913.458 606.187C914.217 606.567 914.976 606.946 915.799 607.389C916.115 607.579 916.684 607.579 916.937 607.262C921.871 601.064 927.31 595.371 933.382 590.248C932.876 590.185 932.37 590.122 931.864 590.058C936.355 596.32 936.039 604.543 935.722 611.88C935.343 620.039 934.268 628.072 932.433 636.041C928.828 651.474 922.566 666.148 913.901 679.431C913.205 680.443 914.85 681.391 915.546 680.379C924.717 666.401 931.295 650.778 934.774 634.397C936.481 626.427 937.493 618.331 937.746 610.235C937.936 603.025 937.999 595.182 933.572 589.046C933.192 588.54 932.56 588.414 932.054 588.857C925.982 593.98 920.542 599.609 915.609 605.871C915.988 605.808 916.368 605.744 916.747 605.744C915.988 605.365 915.229 604.985 914.407 604.543C913.838 604.226 913.269 604.543 913.016 605.112C908.209 617.446 905.362 630.349 904.414 643.568C904.92 643.315 905.362 642.999 905.868 642.746C904.477 642.05 903.022 641.354 901.631 640.658C900.998 640.342 900.239 640.722 900.176 641.481C899.67 655.143 901.504 668.741 905.615 681.771C905.995 682.973 907.829 682.467 907.45 681.328Z" fill="#E8E8E8"/>
<path d="M935.6 633.385C939.901 624.151 944.961 615.296 950.653 606.884C950.274 607.01 949.957 607.2 949.578 607.326C953.246 608.275 955.27 604.923 957.168 602.393C960.647 597.712 965.011 593.981 970.134 591.134C969.691 590.945 969.185 590.755 968.743 590.565C974.498 608.528 970.83 627.124 960.077 642.43C955.017 649.641 949.198 656.535 943.253 663.05C937.307 669.438 930.793 675.194 922.95 679.178C921.874 679.748 922.823 681.392 923.898 680.823C931.868 676.775 938.572 670.893 944.581 664.378C950.906 657.484 957.105 650.21 962.354 642.493C972.917 626.997 976.333 608.085 970.577 590.122C970.387 589.553 969.755 589.237 969.185 589.553C965.77 591.451 962.607 593.728 959.761 596.511C958.496 597.776 957.294 599.167 956.156 600.622C954.764 602.393 952.93 606.251 950.084 605.555C949.641 605.429 949.262 605.619 949.009 605.998C943.316 614.41 938.256 623.265 933.955 632.5C933.449 633.512 935.094 634.524 935.6 633.385Z" fill="#E8E8E8"/>
<path d="M926.681 601.318C922.316 613.209 917.003 625.163 914.157 637.56C911.248 650.21 909.477 663.176 907.326 675.952C907.136 677.154 908.971 677.66 909.161 676.459C911.374 663.682 913.082 650.653 915.991 638.066C918.838 625.669 924.151 613.778 928.515 601.824C928.958 600.685 927.123 600.179 926.681 601.318Z" fill="#E8E8E8"/>
<path d="M960.012 610.741C952.992 621.999 945.971 633.258 938.95 644.453C932.562 654.699 925.668 664.756 921.24 676.015C920.798 677.153 922.632 677.659 923.075 676.521C927.629 665.072 934.776 654.763 941.291 644.326C948.058 633.447 954.889 622.568 961.657 611.626C962.29 610.614 960.645 609.665 960.012 610.741Z" fill="#E8E8E8"/>
<path d="M909.983 613.081C910.615 619.47 912.133 625.605 914.473 631.55C914.916 632.689 916.75 632.183 916.308 631.044C914.031 625.289 912.513 619.28 911.88 613.081C911.754 611.88 909.856 611.816 909.983 613.081Z" fill="#E8E8E8"/>
<path d="M915.17 643.504C922.444 637.243 929.148 630.412 935.347 623.075C936.106 622.126 934.777 620.798 934.018 621.746C927.82 629.083 921.115 635.914 913.842 642.176C912.893 642.998 914.284 644.327 915.17 643.504Z" fill="#E8E8E8"/>
<path d="M944.072 613.46C943.503 619.849 943.629 626.174 944.451 632.499C944.578 633.7 946.475 633.7 946.349 632.499C945.527 626.174 945.4 619.785 945.969 613.46C946.096 612.195 944.198 612.195 944.072 613.46Z" fill="#E8E8E8"/>
<path d="M199.051 408.278C189.879 405.748 183.238 396.83 183.365 387.279C183.491 376.59 193.105 365.205 204.3 365.458C216.065 365.774 222.39 380.068 221.251 390.378C219.923 402.649 207.716 410.365 196.015 407.139C194.813 406.823 194.307 408.657 195.509 408.974C204.933 411.567 215.116 407.898 220.176 399.423C225.236 390.884 223.528 379.562 218.152 371.53C212.713 363.434 202.466 361.41 194.054 366.28C186.021 371.024 180.518 380.827 181.657 390.188C182.795 399.423 189.563 407.582 198.545 410.049C199.746 410.428 200.252 408.594 199.051 408.278Z" fill="#E8E8E8"/>
<path d="M179.951 456.286C181.912 458.563 184.505 460.081 187.541 460.397C189.122 460.587 190.703 460.397 192.221 459.828C194.625 459.005 196.586 457.234 199.369 457.74C202.847 458.31 205.441 460.713 209.109 460.27C213.094 459.828 216.573 456.981 220.747 457.298C224.542 457.614 227.768 460.207 231.5 460.966C234.789 461.662 236.876 460.46 239.659 459.005C246.806 455.21 254.965 460.017 262.429 457.487C263.567 457.108 263.061 455.274 261.923 455.653C255.218 457.867 248.198 454.198 241.43 456.159C237.698 457.234 235.358 460.017 231.12 458.942C227.894 458.12 225.111 456.159 221.822 455.59C218.723 455.02 216.003 456.096 213.157 457.171C211.513 457.803 209.742 458.499 207.907 458.499C205.63 458.499 203.733 457.234 201.709 456.475C198.799 455.4 196.649 455.779 193.866 457.044C189.312 459.132 184.695 459.068 181.279 454.957C180.52 454.008 179.129 455.337 179.951 456.286Z" fill="#E8E8E8"/>
<path d="M228.842 439.776C233.839 442.559 239.595 438.448 244.528 441.041C246.489 442.053 247.754 443.698 250.157 443.382C252.118 443.129 253.636 441.611 255.154 440.472C258.57 437.816 261.353 438.448 265.084 439.966C267.867 441.105 270.524 441.8 273.497 441.737C280.201 441.611 286.842 438.701 293.484 440.915C294.622 441.294 295.128 439.46 293.99 439.081C288.297 437.183 282.605 438.828 276.849 439.523C273.433 439.966 270.208 439.903 266.982 438.638C264.325 437.626 261.669 436.108 258.696 436.487C256.735 436.74 255.281 437.879 253.763 439.081C252.498 440.093 251.296 441.358 249.588 441.358C247.88 441.421 246.868 440.093 245.414 439.334C240.48 436.614 234.598 440.788 229.728 438.069C228.716 437.499 227.767 439.144 228.842 439.776Z" fill="#E8E8E8"/>
<path d="M790.06 400.307C793.855 399.295 796.575 399.295 799.927 401.509C801.572 402.584 803.28 403.407 805.24 403.786C808.719 404.419 812.324 403.596 815.677 402.711C819.788 401.572 823.962 400.054 828.263 400.054C832.817 400.054 836.549 403.217 841.166 402.837C849.768 402.078 855.145 393.54 864.379 394.552C872.412 395.437 880.381 400.497 888.288 396.639C889.363 396.133 888.414 394.488 887.339 394.994C879.116 398.979 870.198 392.275 861.723 392.591C857.864 392.717 854.575 394.362 851.286 396.259C847.302 398.663 842.937 401.952 837.941 400.75C835.664 400.244 833.703 398.979 831.426 398.473C829.655 398.094 827.884 398.094 826.113 398.283C822.191 398.663 818.46 399.991 814.728 401.003C810.364 402.142 805.81 402.964 801.698 400.497C799.991 399.422 798.473 398.157 796.449 397.777C794.108 397.335 791.768 397.967 789.554 398.536C788.416 398.789 788.859 400.624 790.06 400.307Z" fill="#E8E8E8"/>
<path d="M858.938 417.007C862.543 414.92 866.718 414.54 870.513 416.311C872.79 417.323 874.561 418.651 877.154 418.462C883.036 418.019 887.084 412.832 893.219 415.615C895.054 416.438 896.825 417.323 898.912 417.007C901.505 416.564 903.339 414.477 905.68 413.591C911.435 411.378 917.95 414.603 923.959 413.275C925.161 413.022 924.655 411.188 923.453 411.441C917.507 412.706 911.372 409.67 905.49 411.631C902.77 412.516 900.683 415.109 897.71 415.109C894.737 415.109 892.397 412.706 889.298 412.769C883.605 412.896 879.051 418.588 873.232 415.805C868.046 413.275 863.112 412.516 857.863 415.552C856.914 415.932 857.863 417.576 858.938 417.007Z" fill="#E8E8E8"/>
<path d="M809.666 511.501C813.714 510.236 816.56 511.248 820.229 512.83C822.253 513.652 824.15 513.842 826.301 513.462C828.957 512.893 831.361 511.628 833.954 510.932C837.875 509.92 840.089 512.071 843.505 513.399C848.565 515.36 852.676 511.754 857.356 510.616C863.302 509.161 868.741 513.399 874.75 512.513C875.952 512.324 875.446 510.489 874.244 510.679C868.425 511.565 863.175 507.39 857.293 508.718C854.51 509.351 852.107 510.869 849.387 511.691C845.402 512.893 843.125 510.742 839.646 509.351C834.903 507.517 830.728 510.553 826.174 511.565C822.885 512.324 820.671 510.679 817.699 509.667C814.852 508.718 811.943 508.845 809.16 509.73C807.958 510.047 808.464 511.881 809.666 511.501Z" fill="#E8E8E8"/>
<path opacity="0.22" d="M931.17 703.466C846.478 719.658 761.724 735.787 677.032 751.979C575.642 720.354 474.316 688.729 372.926 657.104C508.091 657.61 643.256 658.052 778.358 658.558C829.338 673.548 880.254 688.539 931.17 703.466Z" fill="#666666"/>
<path opacity="0.19" d="M832.752 679.557C761.343 696.698 689.87 713.839 618.461 730.98C537.88 706.375 457.237 681.771 376.656 657.104C485.952 647.932 595.311 638.761 704.607 629.59C747.301 646.288 789.995 662.923 832.752 679.557Z" fill="#666666"/>
<path d="M372.609 465.836C373.558 528.896 374.57 591.956 375.519 655.08C455.593 673.169 535.605 691.196 615.679 709.285C615.553 636.295 615.363 563.304 615.236 490.314C534.34 482.091 453.443 473.932 372.609 465.836Z" fill="white" stroke="#161616" stroke-width="2" stroke-miterlimit="10"/>
<path d="M791.958 449.201C791.642 518.776 791.326 588.351 791.009 657.926C732.756 675.067 674.44 692.144 616.186 709.285C615.997 635.472 615.807 561.723 615.617 487.91C674.376 475.07 733.199 462.167 791.958 449.201Z" fill="white" stroke="#161616" stroke-width="2" stroke-miterlimit="10"/>
<path d="M613.591 489.682C533.58 481.396 453.632 473.11 373.684 464.825C426.371 451.416 479.058 438.007 531.745 424.598C617.892 432.883 704.102 441.169 790.248 449.518C731.362 462.864 672.477 476.273 613.591 489.682Z" fill="white" stroke="#161616" stroke-width="2" stroke-miterlimit="10"/>
<path d="M672.161 438.196C651.604 436.804 631.111 435.413 610.555 434.021C570.075 448.822 529.595 463.622 489.178 478.423C488.799 545.531 488.419 612.639 487.977 679.748C506.129 684.112 524.282 688.413 542.435 692.777C541.676 623.266 540.854 553.817 540.095 484.305C584.117 468.999 628.139 453.566 672.161 438.196Z" fill="#161616" stroke="#161616" stroke-width="2" stroke-miterlimit="10"/>
<path d="M689.87 686.895C706.632 681.772 723.456 676.648 740.217 671.525C739.648 602.013 739.016 532.565 738.446 463.053C656.348 453.376 574.186 443.699 492.088 434.021C477.856 437.563 463.688 441.105 449.457 444.711C529.785 457.171 610.112 469.568 690.503 482.028C690.313 550.338 690.123 618.585 689.87 686.895Z" fill="#161616" stroke="#161616" stroke-width="2" stroke-miterlimit="10"/>
<path d="M694.108 343.953C699.927 346.356 700.876 361.41 697.713 373.174C685.569 418.272 606.95 436.551 603.218 429.657C601.637 426.684 615.172 421.055 643.635 392.845C675.007 361.726 686.455 340.854 694.108 343.953Z" fill="white" stroke="#161616" stroke-width="2" stroke-miterlimit="10"/>
<path d="M532.317 373.617C533.835 380.765 537.566 389.05 561.538 412.073C577.604 427.506 585.7 435.223 587.977 433.705C592.594 430.542 577.287 400.119 562.74 378.424C555.276 367.292 542.184 347.875 535.542 350.405C530.799 352.176 530.419 364.699 532.317 373.617Z" fill="white" stroke="#161616" stroke-width="2" stroke-miterlimit="10"/>
<path d="M592.657 460.144C601.948 460.144 609.481 452.187 609.481 442.371C609.481 432.555 601.948 424.598 592.657 424.598C583.365 424.598 575.832 432.555 575.832 442.371C575.832 452.187 583.365 460.144 592.657 460.144Z" fill="#161616" stroke="#161616" stroke-width="2" stroke-miterlimit="10"/>
<path d="M592.973 435.16C602.523 425.862 612.201 415.995 621.878 405.686C643.256 382.916 662.295 360.462 679.182 338.704C682.851 338.261 690.061 337.818 693.097 341.93C697.525 347.812 690.504 359.45 687.215 364.953C670.454 392.846 617.134 422.51 592.973 435.16Z" fill="#161616" stroke="#161616" stroke-width="2" stroke-miterlimit="10"/>
<path d="M536.173 349.456C538.513 347.306 545.787 351.67 550.088 354.263C585.761 375.705 590.125 426.431 590.821 435.666C561.726 398.095 530.291 354.959 536.173 349.456Z" fill="#161616" stroke="#161616" stroke-width="2" stroke-miterlimit="10"/>
<path d="M385.827 499.991C414.669 500.497 443.638 500.371 472.416 501.699C501.511 503.027 530.353 507.075 559.069 512.072C575.261 514.918 591.453 518.017 607.645 521.18C608.847 521.433 609.353 519.599 608.151 519.346C579.815 513.843 551.416 508.404 522.763 504.545C493.795 500.687 464.826 499.422 435.605 498.916C419.033 498.663 402.399 498.347 385.827 498.094C384.625 498.094 384.625 499.991 385.827 499.991Z" fill="#161616"/>
<path d="M631.554 520.232C680.004 505.684 729.402 494.362 779.432 486.393C780.634 486.203 780.128 484.369 778.927 484.559C728.959 492.528 679.561 503.85 631.048 518.397C629.909 518.714 630.416 520.548 631.554 520.232Z" fill="#161616"/>
<path d="M544.523 607.327C544.523 626.492 544.523 645.593 544.523 664.758C544.523 665.96 546.421 665.96 546.421 664.758C546.421 645.593 546.421 626.492 546.421 607.327C546.421 606.125 544.523 606.125 544.523 607.327Z" fill="#161616"/>
<path d="M550.785 653.31C550.785 662.861 550.785 672.475 550.785 682.026C550.785 683.227 552.683 683.227 552.683 682.026C552.683 672.475 552.683 662.861 552.683 653.31C552.683 652.045 550.785 652.045 550.785 653.31Z" fill="#161616"/>
<path d="M681.711 558.561C681.711 573.868 681.711 589.174 681.711 604.481C681.711 605.683 683.608 605.683 683.608 604.481C683.608 589.174 683.608 573.868 683.608 558.561C683.608 557.36 681.711 557.36 681.711 558.561Z" fill="#161616"/>
<path d="M685.129 622.253C685.129 632.563 685.129 642.936 685.129 653.245C685.129 654.447 687.026 654.447 687.026 653.245C687.026 642.936 687.026 632.563 687.026 622.253C687.026 621.051 685.129 621.051 685.129 622.253Z" fill="#161616"/>
<path d="M453.949 556.095C453.949 564.38 453.949 572.666 453.949 580.952C453.949 582.154 455.847 582.154 455.847 580.952C455.847 572.666 455.847 564.38 455.847 556.095C455.847 554.893 453.949 554.893 453.949 556.095Z" fill="#161616"/>
<path d="M448.574 587.655C448.574 594.36 448.574 601.064 448.574 607.769C448.574 608.97 450.472 608.97 450.472 607.769C450.472 601.064 450.472 594.36 450.472 587.655C450.472 586.453 448.574 586.453 448.574 587.655Z" fill="#161616"/>
<path opacity="0.21" d="M787.909 657.673C730.731 675.067 673.553 692.524 616.375 709.917C616.375 637.306 616.375 564.695 616.375 492.084C673.869 478.928 731.363 465.772 788.858 452.68C788.605 520.99 788.288 589.3 787.909 657.673Z" fill="#666666"/>
<path opacity="0.21" d="M791.703 658.496C733.45 674.435 675.26 690.374 617.006 706.313C616.627 642.747 616.247 579.244 615.805 515.678C641.547 539.27 667.353 562.862 693.096 586.518C725.733 575.702 758.433 564.886 791.07 554.07C791.323 588.858 791.513 623.709 791.703 658.496Z" fill="#666666"/>
<path opacity="0.14" d="M696.957 347.242C693.858 346.61 690.569 367.925 679.753 385.445C669.95 401.321 650.405 419.917 607.332 430.669C612.898 430.163 621.374 429.025 631.304 426.115C641.614 423.142 685.13 410.492 696.578 376.527C701.258 362.486 699.487 347.748 696.957 347.242Z" fill="#666666"/>
<path opacity="0.2" d="M540.793 482.725C559.072 495.122 577.415 507.519 595.694 519.916C578.869 517.006 562.108 514.16 545.284 511.25C545.979 545.026 548.762 582.913 555.214 624.025C559.452 651.033 564.701 676.143 570.52 699.166C561.602 696.699 552.621 694.233 543.702 691.703C542.754 622.064 541.805 552.363 540.793 482.725Z" fill="#666666"/>
<path opacity="0.13" d="M545.219 483.294C572.1 479.436 599.044 475.578 625.926 471.72C614.098 470.138 602.27 468.557 590.443 467.039C582.283 470.075 575.579 472.162 570.898 473.554C566.091 474.945 562.486 475.831 557.11 477.918C551.986 479.879 547.875 481.903 545.219 483.294Z" fill="#666666"/>
<path d="M764.191 643.695C762.42 645.34 760.712 647.048 758.941 648.692C761.977 660.393 765.013 672.095 768.049 683.796C770.453 682.594 772.92 681.456 775.323 680.254C771.655 668.047 767.923 655.839 764.191 643.695Z" fill="#161616" stroke="#161616" stroke-width="3" stroke-miterlimit="10"/>
<path d="M767.668 638.192C765.897 637.686 764.189 637.18 762.418 636.674C762.102 630.602 761.722 624.53 761.406 618.458C771.716 614.726 782.089 610.994 792.399 607.199C793.284 607.452 794.233 607.705 795.119 607.958C786.011 618.015 776.839 628.135 767.668 638.192Z" fill="#161616" stroke="#161616" stroke-width="3" stroke-miterlimit="10"/>
<path d="M767.355 618.458C767.608 625.163 767.925 631.804 768.178 638.509C776.969 635.979 785.698 633.512 794.49 630.982C794.616 623.455 794.743 615.992 794.932 608.465C785.698 611.817 776.527 615.106 767.355 618.458Z" fill="white" stroke="#161616" stroke-width="3" stroke-miterlimit="10"/>
<path d="M764.445 643.505C775.324 640.722 786.14 637.939 797.019 635.156C796.64 638.382 796.45 642.051 796.576 646.035C797.019 656.535 799.802 665.137 802.395 671.082C793.351 674.118 784.306 677.217 775.261 680.253C771.656 667.983 768.051 655.776 764.445 643.505Z" fill="white" stroke="#161616" stroke-width="3" stroke-miterlimit="10"/>
<path d="M775.641 636.231C775.578 637.37 775.767 638.508 776.21 639.584C776.653 640.722 778.487 640.216 778.044 639.078C777.665 638.129 777.538 637.18 777.538 636.231C777.602 635.03 775.704 635.03 775.641 636.231Z" fill="#161616"/>
<path d="M781.457 635.218C781.331 636.23 781.52 637.242 781.9 638.128C782.089 638.571 782.532 638.95 783.038 638.76C783.481 638.634 783.924 638.065 783.671 637.622C783.355 636.8 783.228 636.041 783.291 635.218C783.355 634.712 782.849 634.27 782.343 634.27C781.837 634.27 781.457 634.712 781.457 635.218Z" fill="#161616"/>
<path d="M773.426 681.771C774.754 687.97 780.7 693.599 785.57 697.394C790.947 701.569 797.272 704.035 803.976 704.794C805.178 704.921 805.178 703.023 803.976 702.897C797.461 702.138 791.199 699.608 786.076 695.37C781.775 691.828 776.462 686.768 775.26 681.265C775.007 680.064 773.173 680.57 773.426 681.771Z" fill="#161616"/>
<path d="M777.852 680.127C784.05 689.551 792.273 698.28 803.911 700.177C805.113 700.367 805.619 698.533 804.417 698.343C793.222 696.509 785.442 688.223 779.433 679.178C778.801 678.103 777.156 679.052 777.852 680.127Z" fill="#161616"/>
<path d="M804.925 699.039C805.368 697.078 806.001 695.181 806.949 693.346C807.329 692.651 807.898 691.955 808.151 691.259C807.582 690.121 807.392 690.184 807.708 691.386C807.835 692.018 807.898 692.651 807.961 693.346C808.088 695.117 807.961 696.825 807.772 698.596C807.708 699.355 807.772 701.948 807.266 702.518C806.76 703.087 805.621 703.024 804.989 703.087C803.787 703.15 803.787 705.048 804.989 704.985C806.254 704.921 807.582 705.49 808.594 704.415C809.606 703.277 809.416 701.063 809.606 699.671C809.922 697.268 810.049 694.801 809.796 692.335C809.669 691.196 809.732 689.615 808.657 689.046C808.404 688.919 807.961 688.856 807.708 689.046C805.115 691.07 803.787 695.624 803.091 698.596C802.775 699.735 804.609 700.241 804.925 699.039Z" fill="#161616"/>
<path d="M792.465 675.067C798.347 682.214 807.455 685.63 816.563 684.428C817.765 684.238 817.259 682.467 816.057 682.593C807.582 683.732 799.169 680.316 793.793 673.738C793.034 672.79 791.706 674.118 792.465 675.067Z" fill="#161616"/>
<path d="M787.404 677.471C794.488 685.124 804.545 689.362 814.981 689.045C816.183 688.982 816.183 687.085 814.981 687.148C804.987 687.464 795.5 683.479 788.732 676.142C787.973 675.194 786.582 676.585 787.404 677.471Z" fill="#161616"/>
<path d="M817.955 683.225C818.271 682.023 818.651 680.821 819.094 679.683C819.22 679.303 820.359 675.698 820.801 675.698C820.485 675.445 820.169 675.255 819.916 675.002C820.548 676.9 820.106 679.557 819.916 681.454C819.663 683.794 819.157 686.071 818.524 688.348C818.208 689.55 820.042 690.056 820.359 688.854C821.054 686.451 821.56 683.984 821.813 681.454C822.003 679.367 822.446 676.521 821.75 674.497C821.624 674.117 821.244 673.801 820.865 673.801C818.018 673.991 816.754 680.569 816.184 682.719C815.805 683.921 817.639 684.427 817.955 683.225Z" fill="#161616"/>
<path d="M814.286 688.918C815.804 689.55 817.385 689.803 819.03 689.487C820.232 689.297 819.726 687.463 818.524 687.653C817.449 687.843 816.31 687.716 815.235 687.273C814.16 686.767 813.148 688.412 814.286 688.918Z" fill="#161616"/>
<path d="M779.686 689.55C779.939 688.032 781.268 687.083 782.786 687.273C783.987 687.399 783.987 685.502 782.786 685.375C780.509 685.122 778.232 686.767 777.852 689.044C777.599 690.246 779.433 690.752 779.686 689.55Z" fill="#161616"/>
<path d="M785.253 695.18C785.506 693.915 786.455 693.029 787.657 692.776C788.859 692.523 788.353 690.689 787.151 690.942C785.317 691.321 783.799 692.776 783.419 694.61C783.166 695.875 784.937 696.381 785.253 695.18Z" fill="#161616"/>
<path d="M791.136 699.671C791.578 698.343 792.654 697.394 794.045 697.141C795.247 696.888 794.741 695.054 793.539 695.307C791.515 695.687 789.934 697.205 789.301 699.165C788.922 700.304 790.756 700.81 791.136 699.671Z" fill="#161616"/>
<path d="M797.335 697.457C795.88 698.469 795.185 700.114 795.501 701.885C795.691 703.086 797.525 702.58 797.335 701.379C797.209 700.493 797.588 699.608 798.284 699.102C799.296 698.406 798.347 696.761 797.335 697.457Z" fill="#161616"/>
<path d="M807.138 692.017C805.936 695.242 806.569 699.417 806.569 702.832C806.569 704.034 808.466 704.034 808.466 702.832C808.466 699.607 807.834 695.559 808.972 692.523C809.352 691.384 807.517 690.878 807.138 692.017Z" fill="#161616"/>
<path d="M796.956 682.529C796.956 681.517 797.589 680.631 798.601 680.378C799.802 680.062 799.296 678.228 798.095 678.544C796.324 678.987 795.059 680.695 795.059 682.529C795.059 683.731 796.956 683.731 796.956 682.529Z" fill="#161616"/>
<path d="M791.83 679.178C792.336 678.166 793.285 677.533 794.423 677.344C794.929 677.28 795.182 676.648 795.056 676.205C794.929 675.636 794.423 675.446 793.917 675.573C792.336 675.826 790.944 676.838 790.185 678.292C789.679 679.304 791.324 680.253 791.83 679.178Z" fill="#161616"/>
<path d="M807.139 686.261C807.139 685.755 807.392 685.312 807.898 685.059C808.974 684.49 808.025 682.846 806.95 683.415C805.874 683.984 805.242 685.123 805.305 686.261C805.242 687.463 807.139 687.463 807.139 686.261Z" fill="#161616"/>
<path d="M771.972 626.87C773.237 626.87 774.502 626.87 775.767 626.87C776.968 626.87 776.968 624.973 775.767 624.973C774.502 624.973 773.237 624.973 771.972 624.973C770.77 624.973 770.77 626.87 771.972 626.87Z" fill="#161616"/>
<path d="M787.087 622.822C788.036 621.873 788.985 620.925 789.933 619.976C790.819 619.09 789.427 617.762 788.605 618.647C787.656 619.596 786.707 620.545 785.759 621.494C784.936 622.316 786.265 623.644 787.087 622.822Z" fill="#161616"/>
<path d="M779.941 629.654C781.712 630.223 783.61 629.401 784.558 627.883C785.191 626.807 783.546 625.859 782.914 626.934C782.408 627.819 781.396 628.136 780.447 627.883C779.245 627.503 778.803 629.337 779.941 629.654Z" fill="#161616"/>
<path d="M792.844 649.387C789.555 650.335 786.266 651.284 782.977 652.233C782.534 651.347 781.965 650.082 781.712 648.438C781.396 646.604 781.522 645.086 781.712 644.074C785.254 643.378 788.796 642.682 792.338 641.986C792.022 642.935 791.706 644.58 792.022 646.54C792.212 647.742 792.528 648.691 792.844 649.387Z" fill="#EC615B"/>
<path opacity="0.24" d="M773.934 616.37C774.123 622.695 774.376 629.083 774.566 635.408C781.081 633.701 787.596 632.056 794.11 630.348C794.174 623.391 794.237 616.497 794.237 609.539C787.532 611.879 780.701 614.093 773.934 616.37Z" fill="#666666"/>
<path opacity="0.24" d="M773.934 642.366C774.819 646.667 775.958 651.221 777.223 655.902C779.31 663.428 781.713 670.323 784.18 676.521C789.873 674.56 795.502 672.663 801.194 670.702C799.803 667.729 798.475 664.187 797.399 660.139C794.933 650.525 795.249 642.113 796.008 636.357C788.671 638.381 781.334 640.405 773.934 642.366Z" fill="#666666"/>
<path d="M442.124 139.024C442.377 144.147 442.82 151.611 443.642 160.529C445.666 182.73 446.868 201.895 451.991 217.075C455.849 228.523 464.957 249.964 487.727 271.533C486.399 275.897 484.248 281.4 480.643 287.345C476.216 294.619 471.156 299.805 467.361 303.158C448.639 284.878 438.835 266.663 433.648 254.898C420.935 225.93 420.619 199.554 420.366 180.01C420.176 164.134 421.504 150.789 422.896 141.238C420.619 139.087 417.14 135.735 412.776 131.75C404.806 124.54 401.77 122.2 402.276 121.188C402.719 120.302 406.008 120.365 419.67 125.236C407.906 110.119 402.656 102.023 403.921 100.821C405.059 99.7458 411.384 104.3 422.959 114.483C414.357 93.1045 412.966 86.7163 414.104 86.147C415.243 85.5778 419.67 90.701 432.067 111.257C430.106 94.6858 430.739 90.954 431.751 90.701C433.522 90.3215 437.443 100.631 438.582 103.731C441.238 110.815 442.693 116.887 443.452 120.998C454.141 112.586 456.292 113.345 456.798 113.851C458.632 115.495 453.762 123.844 452.56 125.931C449.081 132.003 445.097 136.304 442.124 139.024Z" fill="white" stroke="#161616" stroke-width="2" stroke-miterlimit="10"/>
<path opacity="0.15" d="M414.672 87.1582C413.597 87.7275 417.582 98.3535 422.768 107.398C424.223 109.865 425.109 111.067 432.762 122.578C435.861 127.259 438.391 131.054 440.099 133.584C437.885 142.692 435.482 155.215 434.849 170.269C434.406 180.768 433.711 201.577 441.048 226.498C449.017 253.569 462.869 273.113 472.989 284.941C477.859 280.577 482.729 276.212 487.6 271.848C466.664 251.735 457.429 231.558 453.192 220.11C447.183 203.791 445.538 188.105 444.084 174.443C442.502 160.212 442.313 148.194 442.439 139.403C445.665 136.873 450.472 132.445 454.014 125.551C454.773 124.033 458.947 116 456.86 114.229C454.646 112.332 446.614 118.404 443.261 120.997C435.861 96.5192 432.888 91.0165 431.687 91.2695C430.991 91.396 430.801 93.42 430.548 96.6457C430.042 103.224 431.181 108.6 432.256 111.952C432.193 112.079 432.193 112.079 414.672 87.1582Z" fill="#666666"/>
<path opacity="0.2" d="M455.154 119.986C452.561 121.188 447.058 124.161 442.694 130.486C438.709 136.242 437.634 141.808 437.318 144.654C436.432 153.509 436.243 163.629 437.381 174.571C441.366 213.533 459.645 242.122 471.473 257.365C463.314 243.893 452.814 223.21 446.805 196.203C441.619 173.053 441.429 152.94 442.378 138.455C444.845 135.862 447.628 132.573 450.284 128.525C452.308 125.489 453.889 122.58 455.154 119.986Z" fill="#666666"/>
<path d="M549.963 268.307C545.598 270.331 541.93 271.723 539.779 275.707C535.542 283.487 541.171 293.86 542.562 296.453C546.104 303.031 551.164 307.079 555.023 309.483C567.293 304.17 585.636 294.05 601.891 275.391C622.89 251.293 628.962 225.74 632.124 212.015C636.362 193.293 636.552 177.29 635.983 166.411C639.082 161.035 643.573 153.445 649.328 144.337C654.388 136.241 657.171 132.003 656.096 130.865C655.274 130.043 652.111 130.738 640.916 138.771C644.964 123.022 646.292 114.863 644.838 114.293C643.446 113.787 639.525 120.176 633.073 133.521C634.022 115.305 633.579 106.071 631.745 105.818C629.847 105.502 626.369 115.432 621.309 135.482C618.336 121.63 616.185 114.799 614.794 114.926C613.149 115.116 612.643 124.919 613.149 144.274C603.599 139.024 598.159 137.127 596.831 138.708C594.997 140.922 601.132 149.65 615.237 165.02C615.553 170.965 615.49 180.453 613.213 191.648C612.074 197.277 603.978 236.872 576.401 252.558C567.483 257.681 559.197 264.006 549.963 268.307Z" fill="white" stroke="#161616" stroke-width="2" stroke-miterlimit="10"/>
<path opacity="0.16" d="M644.838 114.167C643.826 113.85 642.119 119.669 635.161 129.663C633.517 132.066 632.758 132.952 632.125 134.849C630.417 140.352 633.453 143.831 633.327 148.448C633.2 151.737 631.493 156.354 623.65 161.92C624.978 166.664 626.433 173.432 626.875 181.591C628.583 214.165 611.506 238.01 605.56 247.94C599.931 257.365 583.106 281.779 542.184 296.769C542.5 298.351 543.638 302.715 547.56 306.194C549.963 308.344 552.493 309.293 554.011 309.672C562.487 306.194 574.251 300.248 586.395 290.255C605.56 274.442 614.858 257.175 619.285 248.699C637.185 214.671 637.185 181.465 635.983 164.893C639.589 159.201 642.751 154.204 645.218 150.282C654.073 136.241 656.856 131.75 655.781 130.675C655.211 130.106 653.314 130.359 647.179 134.533C645.091 135.798 643.004 137.126 640.917 138.391C645.408 119.48 645.724 114.42 644.838 114.167Z" fill="#666666"/>
<path opacity="0.28" d="M647.43 146.678C632.882 155.596 629.467 163.186 629.15 168.625C629.024 170.776 629.403 171.345 629.846 176.468C629.846 176.468 629.467 185.829 629.593 197.531C629.783 214.229 622.889 229.345 614.477 247.688C610.049 257.302 603.471 269.952 593.73 283.804C600.751 276.846 608.278 267.928 615.046 256.859C636.677 221.123 636.677 184.691 635.412 167.171C639.397 160.276 643.382 153.445 647.43 146.678Z" fill="#666666"/>
<path opacity="0.11" d="M596.641 139.783C610.745 146.993 614.73 148.195 615.173 147.562C615.552 146.93 613.212 144.463 611.062 143.072C610.176 142.502 608.974 141.933 606.571 140.921C602.27 139.087 601.131 138.96 600.309 138.96C598.665 138.897 597.4 139.403 596.641 139.783Z" fill="#666666"/>
<path d="M408.537 538.51C408.031 541.672 410.94 545.404 416.633 552.931C419.669 556.916 422.452 559.952 424.286 561.912C421.44 567.036 416.443 578.041 418.91 591.197C419.669 595.435 420.997 602.456 424.792 603.341C431.37 604.922 441.174 587.023 445.032 578.547C449.396 568.996 451.294 560.331 452.243 554.196C445.665 545.341 439.023 536.486 432.445 527.631C419.353 528.769 409.359 532.944 408.537 538.51Z" fill="#161616" stroke="#161616" stroke-width="2" stroke-miterlimit="10"/>
<path d="M485.954 403.344C490.128 434.78 483.677 447.177 476.403 452.49C469.825 457.297 463.31 455.715 447.751 460.206C434.152 464.191 423.716 469.883 416.822 474.311C417.707 480.636 419.541 488.732 423.21 497.524C429.029 511.439 437.125 521.242 442.88 527.125C441.742 529.528 436.998 538.763 425.929 543.443C416.948 547.301 408.852 545.91 405.879 545.277C395.759 535.916 380.2 518.523 373.179 492.906C370.333 482.47 366.854 468.998 371.977 453.944C375.203 444.52 380.2 439.207 390.257 428.581C393.546 425.102 407.903 410.239 433.33 396.703C448.194 388.797 455.72 384.812 464.639 386.646C475.96 389.113 482.981 398.601 485.954 403.344Z" fill="#D73F3B"/>
<path opacity="0.21" d="M471.152 401.447C460.906 407.646 446.675 416.691 430.23 428.518C401.767 449.011 388.738 459.954 384.057 471.339C379.503 482.407 382.729 502.647 423.841 542.811C426.055 542.368 429.534 541.293 433.013 538.89C438.642 535.031 441.235 529.845 442.184 527.505C437.567 522.761 432.064 516.056 427.13 507.201C420.11 494.551 417.327 482.724 416.125 474.691C429.028 465.646 440.35 461.914 448.572 460.206C460.843 457.613 470.773 458.625 478.363 450.782C482.221 446.798 483.739 442.243 485.131 438.069C489.052 426.368 487.597 415.995 486.396 410.619C481.336 407.646 476.212 404.547 471.152 401.447Z" fill="#666666"/>
<path opacity="0.16" d="M467.36 410.366C466.031 416.185 463.881 422.7 460.655 429.531C449.397 453.06 430.864 466.089 420.555 472.161C428.84 466.658 436.177 463.749 441.364 462.104C443.135 461.535 444.969 461.029 464.387 455.969C473.242 453.629 475.772 452.996 478.428 450.466C480.01 448.948 482.603 445.849 484.627 434.591C485.639 428.835 486.651 420.423 485.955 409.986C479.693 410.113 473.495 410.239 467.36 410.366Z" fill="#666666"/>
<path opacity="0.17" d="M416.188 472.92C414.481 480.953 412.457 496.386 417.77 514.412C421.122 525.797 426.372 534.399 430.42 540.028C432.317 538.953 434.974 537.119 437.567 534.209C439.781 531.679 441.172 529.212 442.058 527.315C437.44 522.571 431.874 515.867 427.004 506.948C419.667 493.539 417.137 481.016 416.188 472.92Z" fill="#666666"/>
<path d="M452.625 535.349C456.799 541.231 461.037 547.05 465.212 552.932C462.935 558.941 457.179 576.714 465.654 590.756C467.109 593.159 469.703 597.46 473.308 597.524C480.961 597.65 486.59 578.675 487.729 575.007C489.626 568.745 491.587 559.068 490.448 546.607C487.602 528.328 474.32 518.461 465.212 520.485C456.863 522.319 453.068 534.084 452.625 535.349Z" fill="#161616" stroke="#161616" stroke-width="2" stroke-miterlimit="10"/>
<path d="M530.865 401.259C536.241 435.161 525.299 446.925 521.314 450.404C517.582 453.629 513.977 454.895 493.8 461.599C486.273 464.129 475.205 467.797 461.669 472.225C462.555 478.55 464.389 486.646 468.057 495.438C473.876 509.353 481.972 519.156 487.728 525.039C486.59 527.442 481.846 536.677 470.777 541.357C461.796 545.216 453.7 543.824 450.727 543.191C440.607 533.831 425.047 516.437 418.027 490.821C415.18 480.384 411.702 466.912 416.825 451.859C420.051 442.434 425.047 437.121 435.104 426.495C438.393 423.017 452.751 408.153 478.177 394.617C493.041 386.711 500.568 382.726 509.486 384.561C520.934 386.964 527.892 396.515 530.865 401.259Z" fill="#D73F3B"/>
<path opacity="0.21" d="M489.246 399.867C487.222 406.129 483.238 416.249 475.648 426.938C456.799 453.377 435.547 454.958 429.475 469.758C424.921 480.827 428.147 501.067 469.259 541.231C471.726 540.219 474.889 538.701 478.178 536.234C482.921 532.692 485.894 528.707 487.665 525.924C482.985 521.054 477.545 514.35 472.612 505.621C465.338 492.655 462.302 480.574 460.91 472.225C475.268 467.355 486.843 463.75 494.559 461.346C509.992 456.666 517.899 454.642 524.034 446.862C527.829 441.992 529.41 436.868 530.422 433.516C533.585 423.206 532.699 414.225 531.814 409.038C517.646 406.066 503.478 402.966 489.246 399.867Z" fill="#666666"/>
<path opacity="0.16" d="M512.775 408.722C511.447 414.605 509.359 421.119 506.07 427.887C493.041 454.515 469.828 467.545 458.949 472.668C469.955 469.189 479.885 466.027 488.55 463.244C488.55 463.244 493.041 461.789 504.046 457.868C518.088 452.808 520.491 451.543 522.895 449.139C527.133 444.838 528.271 440.031 529.979 433.01C531.244 427.634 532.635 419.159 531.307 408.406C525.172 408.533 518.973 408.659 512.775 408.722Z" fill="#666666"/>
<path opacity="0.17" d="M461.606 471.34C459.899 479.373 457.875 494.806 463.188 512.832C466.54 524.217 471.79 532.819 475.838 538.448C477.735 537.373 480.392 535.539 482.985 532.629C485.199 530.099 486.59 527.632 487.476 525.735C482.858 520.991 477.292 514.287 472.422 505.368C465.085 491.959 462.555 479.436 461.606 471.34Z" fill="#666666"/>
<path d="M486.081 267.359C473.81 276.467 467.991 290.445 466.663 293.734C465.841 295.695 463.5 301.893 462.425 310.432C461.16 320.172 462.172 328.332 463.184 333.708C463.627 341.235 463.374 353.695 458.124 367.863C454.392 378.046 449.332 385.636 445.348 390.759C453.444 396.958 468.687 407.015 490.382 411.695C507.775 415.49 522.576 414.352 531.874 412.834C537.313 397.464 542.626 379.944 546.99 360.463C551.102 342.12 553.821 325.043 555.529 309.61C552.809 308.281 544.84 304.107 540.792 294.872C540.539 294.303 534.72 280.578 541.171 272.355C545.03 267.485 550.469 268.054 550.469 266.536C550.469 262.488 511.887 248.257 486.081 267.359Z" fill="white" stroke="#161616" stroke-width="2" stroke-miterlimit="10"/>
<path opacity="0.13" d="M502.968 260.717C501.703 262.994 501.26 269.066 501.26 272.481C501.26 276.086 501.64 279.122 502.083 281.273C502.083 286.902 508.155 314.732 503.917 341.171C499.047 371.531 482.665 394.933 474.695 405.116C481.084 408.089 490.634 411.631 502.715 413.212C514.733 414.73 524.789 413.718 531.747 412.517C536.301 399.487 540.602 385.129 544.397 369.507C549.583 348.128 552.809 328.204 554.77 310.431C551.481 308.281 541.108 300.944 538.578 288.23C537.882 284.562 536.617 278.363 540.349 272.797C543.701 267.737 549.077 266.156 550.975 265.713C526.307 256.479 506.384 254.518 502.968 260.717Z" fill="#666666"/>
<path opacity="0.17" d="M538.705 292.469C539.527 303.537 539.338 317.199 536.302 332.443C528.395 372.48 505.878 399.235 493.734 411.632C498.794 412.96 505.562 414.225 513.595 414.225C520.805 414.288 526.941 413.339 531.684 412.264C540.476 388.862 548.256 361.601 552.62 330.861C553.632 323.777 554.454 316.883 555.024 310.115C552.241 308.471 548.446 305.751 544.777 301.577C541.931 298.288 539.97 295.062 538.705 292.469Z" fill="#666666"/>
<path opacity="0.14" d="M495.566 269.825C498.729 275.771 504.801 279.503 511.316 279.629C521.562 279.882 529.848 271.09 528.646 267.991C527.824 265.841 521.562 264.576 495.566 269.825Z" fill="#666666"/>
<path d="M478.112 187.536C476.088 187.346 474.191 198.225 469.826 215.049C462.995 241.551 458.884 248.382 463.185 257.49C463.944 259.071 466.98 265.396 473.621 267.926C480.579 270.583 490.636 268.812 495.506 262.866C506.575 249.331 484.69 221.121 480.01 192.406C479.757 191.141 479.251 187.662 478.112 187.536Z" fill="#161616"/>
<path d="M496.203 253.696C496.773 256.036 497.405 259.641 496.836 263.942C496.52 266.599 495.824 268.812 495.191 270.583C497.911 271.342 502.086 272.165 507.082 271.912C512.965 271.595 517.582 269.888 520.302 268.623C519.353 266.535 518.467 264.258 517.645 261.665C516.19 257.174 515.431 253 514.989 249.395C514.103 250.47 511.13 253.632 506.07 254.708C501.327 255.72 497.532 254.265 496.203 253.696Z" fill="white" stroke="#161616" stroke-width="2" stroke-miterlimit="10"/>
<path d="M478.682 194.81C472.421 211.255 472.863 233.582 485.387 249.521C487.348 252.051 489.245 253.885 490.51 255.024C499.239 255.846 505.943 254.455 509.991 253.253C512.837 252.431 515.747 251.545 518.846 249.458C525.74 244.841 528.587 237.883 529.662 234.468C531.686 236.112 533.267 236.365 534.342 236.302C540.035 235.922 545.917 225.36 542.438 218.276C540.541 214.417 536.493 212.836 534.848 212.33C533.583 207.333 528.966 191.9 514.419 183.235C510.687 181.021 499.492 174.38 489.941 178.934C483.616 181.907 481.149 188.358 478.682 194.81Z" fill="white" stroke="#161616" stroke-width="2" stroke-miterlimit="10"/>
<path d="M497.911 257.49C497.721 257.553 497.468 257.616 497.278 257.743C496.266 258.122 496.456 259.514 497.531 259.577C502.781 260.083 509.296 256.604 513.534 253.758C514.546 253.062 513.597 251.418 512.585 252.113C508.6 254.77 502.465 258.122 497.531 257.679C497.595 258.312 497.721 258.944 497.784 259.514C497.974 259.45 498.227 259.387 498.417 259.261C499.555 258.881 499.049 257.047 497.911 257.49Z" fill="#161616"/>
<path d="M498.099 258.376C502.147 257.806 506.132 256.731 509.927 255.213C511.066 254.77 510.56 252.936 509.421 253.379C505.563 254.897 501.641 255.972 497.593 256.541C496.392 256.731 496.898 258.565 498.099 258.376Z" fill="#161616"/>
<path d="M498.351 257.363C499.742 257.489 501.197 257.426 502.588 257.047C503.79 256.73 503.284 254.896 502.082 255.212C500.881 255.529 499.616 255.592 498.351 255.465C497.149 255.339 497.149 257.236 498.351 257.363Z" fill="#161616"/>
<path d="M510.054 224.98C511.255 224.98 511.255 223.082 510.054 223.082C508.852 223.082 508.852 224.98 510.054 224.98Z" fill="#161616"/>
<path d="M515.937 224.03C515.937 223.967 515.937 223.904 515.937 223.904C515.937 223.398 515.494 222.955 514.988 222.955C514.482 222.955 514.039 223.398 514.039 223.904C514.039 223.967 514.039 224.03 514.039 224.03C514.039 224.536 514.482 224.979 514.988 224.979C515.494 224.916 515.937 224.536 515.937 224.03Z" fill="#161616"/>
<path d="M512.964 228.648C514.166 228.648 514.166 226.75 512.964 226.75C511.762 226.75 511.762 228.648 512.964 228.648Z" fill="#161616"/>
<path d="M480.515 220.679C481.716 220.679 481.716 218.781 480.515 218.781C479.313 218.781 479.313 220.679 480.515 220.679Z" fill="#161616"/>
<path d="M485.007 219.286C486.209 219.286 486.209 217.389 485.007 217.389C483.805 217.389 483.742 219.286 485.007 219.286Z" fill="#161616"/>
<path d="M483.933 223.714C485.135 223.714 485.135 221.816 483.933 221.816C482.668 221.816 482.668 223.714 483.933 223.714Z" fill="#161616"/>
<path d="M475.456 206.763C474.191 205.056 471.092 200.375 471.219 193.987C471.282 189.559 472.8 186.334 473.622 184.626C476.468 178.807 480.769 175.644 484.311 173.178C487.6 170.837 493.736 166.536 502.464 165.714C514.039 164.576 522.831 170.268 528.903 174.253C540.604 181.906 545.917 191.836 547.055 193.987C549.016 197.782 550.028 201.071 551.609 206.004C553.317 211.444 553.317 212.962 556.163 225.485C558.946 237.819 559.326 238.262 559.073 240.982C558.314 250.279 552.305 256.541 551.356 257.553C542.881 266.155 531.875 265.712 528.144 265.586C523.084 265.396 520.933 264.005 520.111 263.435C515.114 259.83 514.798 253.062 514.798 251.671C516.759 250.532 519.352 248.761 521.755 246.042C526.436 240.792 527.891 235.036 528.397 232.19C533.267 233.645 538.137 231.747 540.161 228.205C543.007 223.019 539.023 215.492 534.532 214.859C533.836 214.733 531.939 214.67 529.472 216.757C527.448 212.076 523.843 205.309 517.454 198.604C509.611 190.318 501.199 186.081 496.139 183.93C493.293 185.132 489.055 187.409 484.944 191.394C478.872 197.086 476.468 203.474 475.456 206.763Z" fill="#161616"/>
<path opacity="0.14" d="M512.774 193.67C515.368 197.844 519.416 205.814 519.226 216.187C518.846 240.601 495.381 254.263 493.926 255.022C495.444 255.275 510.244 257.616 520.554 247.116C525.994 241.55 527.638 235.099 528.144 232.126C529.219 232.505 531.623 233.075 534.406 232.252C535.102 232.063 539.15 230.861 540.478 227.066C541.11 225.358 540.921 223.777 540.794 222.891C540.731 221.816 540.478 219.286 538.58 217.072C537.885 216.313 536.809 215.048 535.038 214.669C532.192 214.1 529.978 216.187 529.662 216.44C528.207 212.961 525.994 208.66 522.705 204.106C519.163 199.615 515.684 196.137 512.774 193.67Z" fill="#666666"/>
<path opacity="0.18" d="M510.813 271.088C508.915 265.712 507.018 260.272 505.184 254.896C508.283 253.884 511.445 252.809 514.545 251.797C516.252 257.363 517.897 262.992 519.605 268.558C516.695 269.444 513.786 270.266 510.813 271.088Z" fill="#666666"/>
<path opacity="0.21" d="M528.838 229.344C527.257 232.886 524.474 238.072 519.477 243.006C511.255 251.165 501.894 253.821 497.656 254.77C499.491 254.897 510.559 255.656 518.782 248.825C523.272 245.093 525.613 240.349 525.613 240.349C526.815 237.882 527.51 235.352 527.827 234.277C528.333 232.316 528.649 230.609 528.838 229.344Z" fill="#666666"/>
<path opacity="0.18" d="M514.986 270.329C513.152 264.763 511.381 259.134 509.547 253.568C511.128 253.062 512.709 252.492 514.291 251.986C515.998 257.552 517.769 263.118 519.477 268.684C518.022 269.19 516.504 269.76 514.986 270.329Z" fill="#666666"/>
<path d="M496.202 206.952C494.494 213.72 493.102 220.551 491.964 227.445C491.774 228.584 491.395 229.912 492.596 230.545C493.988 231.304 497.34 230.228 498.795 229.912C499.997 229.659 499.491 227.825 498.289 228.078C497.277 228.331 495.443 228.9 494.494 228.774C493.229 228.584 493.545 228.837 493.925 227.382C494.431 225.232 494.684 222.891 495.126 220.741C496.012 216.313 496.961 211.886 498.036 207.522C498.352 206.32 496.518 205.814 496.202 206.952Z" fill="#161616"/>
<path d="M480.325 213.405C482.791 210.559 487.092 210.496 489.622 213.215C490.255 213.911 491.267 212.899 490.634 212.203C487.598 208.914 482.285 208.978 479.313 212.393C478.743 213.089 479.755 214.101 480.325 213.405Z" fill="#161616"/>
<path d="M506.323 214.1C509.676 211.949 514.166 212.898 516.317 216.314C516.823 217.073 518.025 216.377 517.519 215.618C514.989 211.57 509.612 210.305 505.564 212.898C504.805 213.341 505.564 214.606 506.323 214.1Z" fill="#161616"/>
<path d="M484.249 202.461C486.526 201.26 489.056 201.323 491.27 202.588C492.092 203.031 492.788 201.829 491.966 201.386C489.309 199.868 486.21 199.805 483.49 201.26C482.731 201.639 483.427 202.904 484.249 202.461Z" fill="#161616"/>
<path d="M507.079 202.842C510.178 202.336 513.151 203.158 515.618 204.992C516.377 205.561 517.072 204.296 516.313 203.79C513.467 201.703 510.115 200.944 506.699 201.45C505.814 201.64 506.193 202.968 507.079 202.842Z" fill="#161616"/>
<path d="M486.902 237.946C493.86 240.097 501.197 238.516 506.7 233.772C507.395 233.203 506.383 232.191 505.688 232.76C500.564 237.187 493.733 238.579 487.282 236.555C486.396 236.239 486.017 237.63 486.902 237.946Z" fill="#161616"/>
</svg>
