<svg width="53" height="53" viewBox="0 0 53 53" fill="none" xmlns="http://www.w3.org/2000/svg">
<circle cx="26.5" cy="26.5" r="25.5" fill="#F9F7F7"/>
<g clip-path="url(#clip0_843_22651)">
<path fill-rule="evenodd" clip-rule="evenodd" d="M49.6875 26.5C49.6875 20.3503 47.2445 14.4525 42.896 10.104C38.5475 5.75546 32.6497 3.3125 26.5 3.3125C20.3503 3.3125 14.4525 5.75547 10.104 10.104C5.75546 14.4525 3.3125 20.3503 3.3125 26.5C3.3125 32.6497 5.75546 38.5475 10.104 42.896C14.4525 47.2445 20.3503 49.6875 26.5 49.6875C32.6497 49.6875 38.5475 47.2445 42.896 42.896C47.2445 38.5475 49.6875 32.6497 49.6875 26.5V26.5ZM-2.3167e-06 26.5C-2.93113e-06 19.4718 2.79195 12.7314 7.76167 7.76167C12.7314 2.79196 19.4718 2.93113e-06 26.5 2.3167e-06C33.5282 1.70228e-06 40.2686 2.79196 45.2383 7.76167C50.208 12.7314 53 19.4718 53 26.5C53 33.5282 50.208 40.2686 45.2383 45.2383C40.2686 50.208 33.5282 53 26.5 53C19.4718 53 12.7314 50.208 7.76167 45.2383C2.79195 40.2686 -1.70228e-06 33.5282 -2.3167e-06 26.5V26.5ZM24.8437 38.0938C24.8437 38.533 25.0182 38.9543 25.3289 39.2649C25.6395 39.5755 26.0607 39.75 26.5 39.75C26.9393 39.75 27.3605 39.5755 27.6711 39.2649C27.9818 38.9543 28.1562 38.533 28.1562 38.0938L28.1562 18.9044L35.2649 26.0164C35.5759 26.3274 35.9977 26.5021 36.4375 26.5021C36.8773 26.5021 37.2991 26.3274 37.6101 26.0164C37.9211 25.7054 38.0958 25.2836 38.0958 24.8438C38.0958 24.4039 37.9211 23.9821 37.6101 23.6711L27.6726 13.7336C27.5188 13.5794 27.336 13.457 27.1348 13.3735C26.9336 13.29 26.7179 13.247 26.5 13.247C26.2821 13.247 26.0664 13.29 25.8652 13.3735C25.664 13.457 25.4812 13.5794 25.3274 13.7336L15.3899 23.6711C15.0789 23.9821 14.9042 24.4039 14.9042 24.8438C14.9042 25.2836 15.0789 25.7054 15.3899 26.0164C15.7009 26.3274 16.1227 26.5021 16.5625 26.5021C17.0023 26.5021 17.4241 26.3274 17.7351 26.0164L24.8437 18.9044L24.8437 38.0938Z" fill="#353535"/>
</g>
<defs>
<clipPath id="clip0_843_22651">
<rect width="53" height="53" fill="white" transform="translate(53 53) rotate(180)"/>
</clipPath>
</defs>
</svg>
