<svg width="270" height="112" viewBox="0 0 270 112" fill="none" xmlns="http://www.w3.org/2000/svg">
<path fill-rule="evenodd" clip-rule="evenodd" d="M0.00097049 62.624C-0.194193 96.9691 29.0805 111.902 56.6639 111.252C74.8141 110.863 84.8319 104.176 87.7594 103.137C87.7594 103.137 248.054 105.085 251.112 105.929C265.554 110.019 267.245 104.37 268.676 94.6967C271.474 75.544 269.782 37.8228 264.123 32.5639C259.113 27.8893 256.512 28.7333 257.683 34.7713C259.374 43.4063 260.024 75.9335 259.178 89.1132C258.658 96.7743 254.105 97.943 245.648 97.943C245.583 97.943 104.869 96.1251 104.804 96.1251C95.4365 95.8005 98.2338 94.437 101.552 90.9311C116.059 75.9984 121.849 60.2867 110.985 38.0825C105.325 26.5259 98.2338 28.0841 102.202 38.9265C106.626 50.9375 105.584 64.5068 99.1439 77.1671C96.0864 83.2051 77.8717 103.916 54.1268 103.981C31.8779 104.046 8.19792 86.0618 12.4265 56.1964C16.0045 31.0706 38.5783 -2.36555 71.1704 6.00973C78.5216 7.89254 90.8176 17.9559 89.5816 21.1372C88.866 23.02 97.6477 26.0065 101.486 24.5132C106.755 22.5006 99.7945 18.0208 97.1272 15.2939C89.5158 7.76269 81.6449 3.02319 71.9517 1.14038C39.4242 -5.09238 0.326244 14.0604 0.00097049 62.624ZM111.31 16.7223C104.089 17.1768 105.26 21.1372 113.326 21.2021C113.392 21.2021 235.043 22.3058 248.509 22.4356C249.29 22.4356 250.071 22.6954 250.721 23.1498L253.258 24.9028C259.374 29.1229 262.886 27.0453 257.812 22.176C252.738 17.3066 250.721 15.8783 234.783 15.3589C213.315 14.6447 152.554 14.0604 111.31 16.7223ZM52.5002 18.6051C52.0448 23.3446 52.2397 35.6803 52.2397 47.3018C51.6542 47.7562 45.4091 49.704 44.8887 55.2226C44.4333 59.8322 48.5317 64.5717 55.8826 65.4157C59.5256 65.8053 61.8026 67.9478 68.9586 77.6865C71.0403 80.5432 72.7974 81.3223 75.5948 80.673C81.3196 79.3096 81.1895 75.4141 75.2045 68.4023C69.8049 62.1046 67.9177 58.9233 67.9177 56.2614C67.9177 53.5345 65.3155 50.3532 61.6725 48.6003L58.6155 47.107C58.9408 29.902 59.201 21.9812 59.0059 18.7999C58.8107 14.2551 52.9556 14.3201 52.5002 18.6051Z" fill="#353535"/>
</svg>
