<svg width="301" height="150" viewBox="0 0 301 150" fill="none" xmlns="http://www.w3.org/2000/svg">
<path d="M43.9328 40.0318C4.51765 48.3401 -10.3485 108.551 20.6557 133.866C62.6144 168.077 98.2147 137.189 104.865 124.287C105.746 122.625 107.8 120.28 109.365 119.204C120.221 111.483 119.634 92.5204 112.593 75.6107C99.487 43.8439 64.1785 35.8289 43.9328 40.0318ZM18.4059 72.7761C32.3918 51.5656 49.4102 43.6484 71.8076 47.9491C91.7602 51.8589 108.485 70.2348 108.485 88.3174C108.485 91.2497 108.387 91.2497 104.181 90.9565C98.9 90.5654 91.3686 93.5955 90.3908 96.5278C89.6084 99.0691 88.826 99.0692 84.131 96.7234C75.9157 92.5204 69.949 82.1595 67.8957 68.5731C66.0371 56.3551 61.5382 51.8588 55.7677 56.4528C45.4006 64.761 13.3203 87.7308 12.8313 87.2421C12.0488 86.6557 15.9608 76.3926 18.4059 72.7761ZM21.7312 89.8813C32.001 83.5279 49.0187 71.0167 52.2466 67.4001C54.5938 64.8588 55.67 64.8587 55.67 67.5956C55.7677 83.7233 70.6337 99.4602 88.3368 102.002L90.2924 102.295C94.0096 102.881 97.8238 102.001 100.856 99.8511L102.42 98.776C103.203 98.2872 104.181 98.0917 105.061 98.3849C105.941 98.6782 106.724 99.2647 107.018 100.144C108.876 104.641 107.409 110.603 103.594 114.219C81.0992 135.625 70.7314 140.61 51.6597 139.144C29.9469 137.385 11.5595 118.032 11.5595 96.8211C11.6574 96.4301 16.1563 93.3023 21.7312 89.8813Z" fill="#353535"/>
<path fill-rule="evenodd" clip-rule="evenodd" d="M0.00108192 99.7217C-0.21649 135.217 32.4193 150.65 63.1697 149.979C83.4039 149.576 94.5719 142.665 97.8354 141.592C97.8354 141.592 276.534 143.605 279.943 144.477C296.043 148.704 297.929 142.867 299.524 132.869C302.643 113.074 300.757 74.0897 294.448 68.6547C288.863 63.8235 285.963 64.6958 287.269 70.936C289.154 79.8603 289.879 113.477 288.936 127.098C288.356 135.016 283.28 136.224 273.852 136.224C273.779 136.224 116.91 134.345 116.837 134.345C106.394 134.009 109.513 132.6 113.211 128.977C129.384 113.544 135.839 97.3061 123.727 74.3581C117.418 62.4144 109.513 64.0248 113.936 75.2304C118.868 87.6438 117.707 101.668 110.527 114.752C107.118 120.992 86.8125 142.397 60.3413 142.464C35.5379 142.531 9.13916 123.945 13.8532 93.0788C17.842 67.1114 43.0077 32.5552 79.3419 41.211C87.537 43.1569 101.245 53.5573 99.8668 56.8452C99.0691 58.7911 108.859 61.8776 113.138 60.3343C119.012 58.2543 111.252 53.6244 108.279 50.8062C99.7936 43.0227 91.0189 38.1245 80.2129 36.1786C43.9506 29.737 0.363701 49.5313 0.00108192 99.7217ZM124.09 52.2824C116.04 52.7521 117.345 56.8452 126.338 56.9123C126.411 56.9123 262.03 58.053 277.042 58.1872C277.912 58.1872 278.783 58.4556 279.508 58.9253L282.336 60.7369C289.153 65.0984 293.07 62.9512 287.413 57.9188C281.756 52.8863 279.508 51.4101 261.739 50.8733C237.807 50.1353 170.07 49.5314 124.09 52.2824Z" fill="#353535"/>
<path d="M103.731 23.2609C111.164 32.3913 115.5 35 115.5 35C115.5 35 119.836 32.3913 127.269 23.2609C134.702 14.1304 129.746 5 123.552 5C117.358 5 115.5 12.8261 115.5 12.8261C115.5 12.8261 113.642 5 107.448 5C101.254 5 96.2985 14.1304 103.731 23.2609Z" stroke="#D73F3B" stroke-width="6" stroke-linecap="round" stroke-linejoin="round"/>
<circle cx="34" cy="97" r="3" fill="#161616"/>
<circle cx="64" cy="103" r="3" fill="#161616"/>
</svg>
