<svg width="199" height="140" viewBox="0 0 199 140" fill="none" xmlns="http://www.w3.org/2000/svg">
<path d="M17.0258 1.66684C13.2457 2.3673 10.7699 5.04839 9.51394 8.78015L9.17578 9.80669L17.0258 47.0005L9.17578 114.151L9.45355 115.093C10.5163 118.765 13.1853 121.289 17.0258 122.267C17.8349 122.472 21.6995 122.484 99.6923 122.484C177.685 122.484 181.55 122.472 182.359 122.267C186.465 121.228 189.291 118.354 190.076 114.393C190.257 113.511 190.269 108.68 190.245 61.6167L188.502 10.5005L189.002 8.00049V5.50049C187.987 2.45711 187.352 2.12364 184.502 1.00049C182.509 0.203415 189.11 1.65476 99.5836 1.66684C33.2813 1.67892 17.7142 1.534 17.0258 1.66684ZM184.502 82.5005L178.796 111.555L79.502 115.093L20.5885 111.555V62.0998V12.6448L62.002 8.00049H107.502L178.796 12.6448L182.359 38.5005L184.502 82.5005Z" fill="#D73F3B"/>
<path d="M8.26841 126.288C6.3361 126.542 4.86272 127.278 3.42556 128.703C2.54395 129.585 2.29033 129.923 1.83141 130.877C0.949796 132.713 0.720334 134.343 1.08264 136.119C1.80726 139.597 4.79026 137.978 8.26841 138.667C47.5 136.119 1.29477 130.901 82.5 130.877C170.565 130.841 152.3 136.324 153 136.118C155.198 135.442 196.282 140.575 197.393 138.667C197.586 138.329 197.876 137.628 198.057 137.097C199.507 132.653 196.958 127.943 192.321 126.505L191.415 126.228L100.174 126.216C49.9942 126.203 8.63072 126.24 8.26841 126.288Z" fill="#D73F3B"/>
</svg>
