<svg width="746" height="472" viewBox="0 0 746 472" fill="none" xmlns="http://www.w3.org/2000/svg">
<path d="M623.9 68.8C633.234 68.8 640.8 61.2336 640.8 51.9C640.8 42.5664 633.234 35 623.9 35C614.566 35 607 42.5664 607 51.9C607 61.2336 614.566 68.8 623.9 68.8Z" fill="#D73F3B"/>
<path d="M272.6 267.2C277.35 267.2 281.2 263.35 281.2 258.6C281.2 253.85 277.35 250 272.6 250C267.85 250 264 253.85 264 258.6C264 263.35 267.85 267.2 272.6 267.2Z" fill="#D73F3B"/>
<path d="M297.4 283.8C302.592 283.8 306.8 279.591 306.8 274.4C306.8 269.209 302.592 265 297.4 265C292.209 265 288 269.209 288 274.4C288 279.591 292.209 283.8 297.4 283.8Z" fill="#FFCC4D"/>
<path d="M658.801 18C663.771 18 667.801 13.9706 667.801 9C667.801 4.02944 663.771 0 658.801 0C653.83 0 649.801 4.02944 649.801 9C649.801 13.9706 653.83 18 658.801 18Z" fill="#FFCC4D"/>
<path d="M698.8 49.0004C702.556 49.0004 705.6 45.9559 705.6 42.2004C705.6 38.4449 702.556 35.4004 698.8 35.4004C695.045 35.4004 692 38.4449 692 42.2004C692 45.9559 695.045 49.0004 698.8 49.0004Z" fill="#FFCC4D"/>
<path d="M223.301 18C225.786 18 227.801 15.9853 227.801 13.5C227.801 11.0147 225.786 9 223.301 9C220.815 9 218.801 11.0147 218.801 13.5C218.801 15.9853 220.815 18 223.301 18Z" fill="#FFCC4D"/>
<path d="M185.718 361.401C184.518 359.801 185.718 357.001 187.218 356.101C189.118 354.901 191.718 355.501 193.718 356.001C195.818 356.501 197.718 357.501 199.718 358.001C202.318 358.701 205.218 359.001 207.818 358.001C210.618 356.901 212.018 354.701 212.618 351.901C213.218 349.501 213.018 346.501 215.018 344.601C216.918 342.701 219.918 342.501 222.418 342.501C228.818 342.601 235.118 346.201 238.618 338.801C240.418 334.801 240.718 330.401 245.118 328.101C250.418 325.301 256.818 327.701 262.018 329.501C263.818 330.101 264.618 327.301 262.818 326.601C254.918 323.801 243.518 321.201 238.618 330.501C237.818 332.101 237.318 333.901 236.718 335.501C236.118 337.001 235.418 339.601 233.818 340.301C232.018 341.101 228.718 340.201 226.818 339.901C223.118 339.401 219.218 339.001 215.618 340.601C212.018 342.301 210.818 345.201 210.118 349.001C208.318 359.101 200.318 354.401 193.718 352.801C190.118 351.901 186.218 352.201 183.718 355.201C181.818 357.501 181.318 360.401 183.118 362.801C184.218 364.501 186.818 363.001 185.718 361.401Z" fill="#FFCC4D"/>
<path d="M211.922 375.122C212.922 369.322 217.422 366.122 223.222 366.422C226.422 366.522 229.922 367.622 233.122 366.622C235.322 365.922 237.022 364.422 237.922 362.322C240.022 357.722 240.022 353.822 244.522 350.422C248.322 347.522 252.822 346.622 257.422 347.722C260.322 348.422 263.422 349.722 266.422 348.622C269.622 347.422 271.122 343.722 274.022 341.822C277.722 339.422 282.222 338.622 286.422 337.922C288.322 337.622 287.522 334.722 285.622 335.022C281.722 335.722 277.822 336.522 274.322 338.222C272.722 339.022 271.322 339.922 270.022 341.122C267.422 343.522 266.322 345.922 262.022 345.722C258.322 345.622 255.422 343.822 251.522 344.322C248.022 344.822 244.722 346.322 242.022 348.522C239.522 350.622 237.522 353.322 236.522 356.522C235.422 359.822 234.722 363.822 230.222 363.922C228.122 364.022 226.022 363.522 223.922 363.422C216.622 362.822 210.322 366.822 209.022 374.222C208.722 376.222 211.522 377.022 211.922 375.122Z" fill="#FFCC4D"/>
<path d="M662.698 381.2C669.198 382.4 672.598 390.9 679.998 388.1C684.298 386.5 686.898 382.5 691.898 382.4C697.398 382.3 699.898 386.9 704.598 388.4C712.398 390.9 718.598 382.3 726.098 383.7C732.898 385 737.098 393.2 744.698 391C746.598 390.5 745.798 387.6 743.898 388.1C737.198 390 731.998 380.7 725.098 380.5C721.998 380.4 718.998 381.7 716.298 382.9C710.598 385.5 706.998 387.1 701.498 383C695.998 378.8 689.698 378.2 683.798 382.1C681.998 383.3 680.598 384.6 678.498 385.2C675.398 386.1 673.398 384.5 671.098 382.6C668.698 380.7 666.498 378.8 663.398 378.2C661.598 377.9 660.798 380.8 662.698 381.2Z" fill="#FFCC4D"/>
<path d="M649.516 366.708C654.616 370.808 660.516 365.108 665.916 368.508C671.016 371.708 673.916 372.708 679.716 370.708C682.916 369.608 686.116 368.008 689.616 368.508C692.416 369.008 694.616 371.108 697.516 371.408C700.216 371.708 702.516 370.208 704.916 369.108C709.716 367.008 714.416 367.208 718.916 370.108C720.516 371.208 722.016 368.608 720.416 367.508C715.716 364.508 710.316 363.708 705.016 365.708C703.416 366.308 701.516 367.808 699.816 368.108C697.316 368.508 695.316 367.408 693.116 366.408C691.116 365.508 689.216 365.208 687.016 365.408C684.216 365.708 681.616 366.908 678.916 367.708C674.616 369.108 671.816 368.908 668.016 366.208C665.916 364.708 664.016 363.908 661.416 364.008C658.416 364.108 654.316 366.608 651.616 364.508C650.116 363.408 648.016 365.508 649.516 366.708Z" fill="#FFCC4D"/>
<path d="M353.401 461C353.801 455.7 359.901 455.9 363.101 457.7C364.701 458.6 366.001 459.9 367.301 461.2C369.601 463.4 371.801 465.9 374.701 467.3C380.101 469.7 383.401 466.8 387.901 464.2C402.101 456.2 412.601 482.2 426.901 473.1C427.701 472.6 427.001 471.3 426.101 471.8C416.601 477.9 407.701 466.1 399.801 462.6C397.201 461.4 394.401 460.7 391.601 461.2C387.501 461.9 384.801 465.5 380.901 466.5C371.701 469 368.201 456 359.901 455.1C355.901 454.6 352.101 457 351.801 461.1C351.801 462 353.301 462 353.401 461Z" fill="#E8E8E8"/>
<path d="M273.3 79.1001C274.9 83.9001 278.4 90.2001 284.4 87.2001C288 85.4001 289.7 81.5001 294 80.7001C298.8 79.8001 303.8 82.2001 306.1 86.5001C306.7 87.7001 308.4 87.3001 308.8 86.1001C311.8 77.4001 322.8 76.7001 327.2 84.6001C328.1 86.3001 330.7 84.8001 329.8 83.1001C324.1 72.7001 309.8 74.2001 306 85.3001C306.9 85.2001 307.8 85.1002 308.7 84.9002C306.1 80.0002 300.9 77.2001 295.4 77.5001C292.9 77.6001 290.5 78.3001 288.5 79.8001C287.2 80.7001 286.2 82.4001 284.8 83.2001C283.4 84.0001 279 83.4001 277.8 82.2001C276.9 81.3001 276.5 79.4001 276.2 78.3001C275.6 76.5001 272.7 77.3001 273.3 79.1001Z" fill="#D73F3B"/>
<path d="M317.101 65.9004C319.001 67.4004 320.801 67.4004 323.101 66.7004C326.201 65.8004 328.201 63.9004 330.901 67.4004C331.801 68.6004 332.101 70.2004 333.301 71.3004C335.501 73.5004 338.701 73.8004 341.701 73.5004C345.201 73.2004 355.201 70.8004 354.701 77.3004C354.601 79.2004 357.601 79.2004 357.701 77.3004C358.401 68.1004 346.301 70.4004 341.001 70.6004C337.101 70.7004 335.301 69.1004 333.501 65.9004C332.701 64.5004 331.901 63.3004 330.401 62.6004C327.001 61.1004 321.801 65.7004 319.201 63.7004C317.701 62.6004 315.501 64.7004 317.101 65.9004Z" fill="#D73F3B"/>
<path d="M330.253 387.564C324.153 388.264 319.253 382.864 320.253 376.764C321.253 370.964 326.753 366.464 332.553 366.064C337.253 365.764 342.553 367.664 344.753 372.164C347.153 377.064 344.953 383.764 339.853 385.664C338.053 386.364 338.853 389.264 340.653 388.564C346.753 386.164 349.953 379.564 348.353 373.164C346.453 365.764 338.353 362.164 331.153 363.164C324.153 364.164 317.753 369.964 317.053 377.164C316.353 384.564 322.653 391.264 330.153 390.464C332.153 390.364 332.153 387.364 330.253 387.564Z" fill="#D73F3B"/>
<path d="M410.879 286.559C410.681 310.521 410.385 334.382 410.188 358.344C465.679 356.74 521.171 355.035 576.564 353.431C587.919 362.354 599.176 371.277 610.531 380.2C607.569 362.555 604.508 345.01 601.546 327.364C600.657 312.827 599.67 298.289 598.781 283.752C536.18 284.654 473.48 285.657 410.879 286.559Z" fill="#8AA6BF"/>
<path d="M404.855 108.702C402.979 143.391 401.103 177.98 399.326 212.669C389.551 225.001 379.775 237.433 370 249.765C381.651 246.556 393.303 243.348 404.954 240.14C474.269 237.734 543.585 235.328 612.9 232.921C611.024 191.314 609.148 149.607 607.371 108C539.734 108.201 472.295 108.401 404.855 108.702Z" fill="#D73F3B"/>
<path d="M521.267 154.821C522.65 179.785 540.324 200.338 564.515 204.95C566.391 205.251 567.181 202.444 565.305 202.043C542.398 197.732 525.513 178.482 524.229 154.821C524.032 152.816 521.07 152.816 521.267 154.821Z" fill="#E8E8E8"/>
<path d="M565.208 204.849C574.687 205.55 583.179 191.414 586.634 183.995C591.176 173.969 592.559 162.941 590.485 152.213C590.09 150.308 587.227 151.11 587.622 153.015C589.399 162.339 588.412 171.864 584.857 180.686C583.08 184.998 580.809 189.108 577.847 192.717C574.983 196.327 570.244 202.242 565.208 201.841C563.332 201.64 563.332 204.648 565.208 204.849Z" fill="#E8E8E8"/>
<path d="M573.502 201.741C577.452 206.654 582.784 210.063 588.807 211.767C590.683 212.269 591.473 209.361 589.597 208.86C583.969 207.256 579.229 204.148 575.576 199.636C574.391 198.132 572.317 200.338 573.502 201.741Z" fill="#E8E8E8"/>
<path d="M585.943 182.392C587.127 184.297 588.411 186.101 589.892 187.806C591.275 189.309 593.743 190.613 594.928 192.217C598.384 196.929 591.768 206.053 588.905 209.662C587.72 211.166 590.287 212.67 591.472 211.166C594.73 206.855 599.272 199.636 599.075 193.821C598.976 192.217 598.384 191.315 597.298 190.212C594.138 186.803 590.978 184.898 588.411 180.788C587.424 179.183 584.856 180.687 585.943 182.392Z" fill="#E8E8E8"/>
<path d="M584.068 185.399C583.575 190.212 582.39 194.824 580.316 199.235C580.02 199.937 579.329 200.839 579.131 201.541C578.638 203.346 579.921 200.438 580.218 200.037C581.402 197.932 582.39 195.726 583.377 193.621C582.489 193.22 581.6 192.819 580.711 192.418C579.823 195.325 578.341 197.531 575.972 199.536C576.762 200.137 577.552 200.739 578.341 201.34C580.415 197.831 582.39 194.322 584.463 190.713C585.451 189.009 582.982 187.705 581.896 189.209C579.724 192.217 577.552 195.225 575.379 198.132C574.392 199.536 576.564 201.24 577.749 199.937C580.119 197.13 581.896 194.122 583.081 190.713C583.772 188.908 580.909 188.106 580.218 189.911C579.131 192.919 577.65 195.425 575.577 197.831C576.367 198.433 577.157 199.035 577.947 199.636C580.119 196.628 582.291 193.621 584.463 190.713C583.575 190.212 582.785 189.711 581.896 189.209C579.823 192.718 577.848 196.227 575.774 199.837C574.886 201.441 576.86 202.644 578.144 201.641C580.909 199.436 582.686 196.628 583.673 193.22C584.167 191.615 581.699 190.513 581.007 192.016C579.921 194.122 578.835 196.328 577.848 198.433C577.255 199.636 576.268 201.14 576.465 202.544C576.564 204.248 578.243 205.752 580.02 205.15C582.39 204.348 583.575 199.937 584.365 197.831C585.944 193.821 586.833 189.61 587.327 185.299C587.228 183.495 584.266 183.495 584.068 185.399Z" fill="#E8E8E8"/>
<path d="M556.617 200.337C548.421 199.033 541.51 204.447 535.98 210.062C529.858 216.278 525.316 223.797 523.737 232.419C523.342 234.324 526.205 235.126 526.6 233.221C527.884 226.103 531.241 219.887 535.98 214.473C540.72 208.959 548.027 201.941 555.827 203.244C557.703 203.545 558.493 200.637 556.617 200.337Z" fill="#E8E8E8"/>
<path d="M546.744 158.328C549.805 166.449 553.261 174.47 556.914 182.29C557.506 183.493 559.284 183.092 559.58 181.889C560.468 178.28 560.863 174.771 560.666 171.061C560.567 169.156 557.605 169.156 557.704 171.061C557.901 174.47 557.605 177.779 556.716 181.087C557.605 180.987 558.494 180.887 559.382 180.686C555.828 173.066 552.471 165.347 549.508 157.426C548.916 155.722 546.052 156.524 546.744 158.328Z" fill="#E8E8E8"/>
<path d="M533.018 169.257C532.327 167.953 533.611 166.55 534.796 166.149C536.573 165.547 538.449 166.249 540.226 166.75C542.004 167.352 542.794 164.444 541.016 163.843C538.153 162.941 534.697 162.239 532.13 164.244C530.155 165.848 529.266 168.455 530.55 170.761C531.34 172.465 533.907 170.961 533.018 169.257Z" fill="#E8E8E8"/>
<path d="M564.026 162.441C565.013 158.03 569.851 156.125 573.307 159.333C574.69 160.636 576.862 158.531 575.381 157.228C570.444 152.616 562.643 154.922 561.162 161.639C560.767 163.544 563.631 164.346 564.026 162.441Z" fill="#E8E8E8"/>
<path d="M570.343 165.749C570.244 165.849 570.047 166.05 569.948 166.15C569.356 166.752 569.356 167.654 569.948 168.255C570.541 168.857 571.429 168.857 572.022 168.255C572.121 168.155 572.318 167.955 572.417 167.854C573.009 167.253 573.009 166.351 572.417 165.749C571.824 165.147 570.936 165.147 570.343 165.749Z" fill="#E8E8E8"/>
<path d="M576.959 162.941C577.058 163.241 577.255 163.442 577.354 163.743C577.749 164.445 578.736 164.645 579.428 164.244C580.119 163.843 580.316 162.941 579.921 162.139C579.823 161.838 579.625 161.637 579.526 161.337C579.131 160.635 578.144 160.434 577.453 160.835C576.762 161.236 576.564 162.139 576.959 162.941Z" fill="#E8E8E8"/>
<path d="M576.069 169.759C576.168 169.859 576.366 170.059 576.464 170.16C577.057 170.761 577.945 170.761 578.538 170.16C579.13 169.558 579.13 168.656 578.538 168.054C578.439 167.954 578.242 167.754 578.143 167.653C577.55 167.052 576.662 167.052 576.069 167.653C575.477 168.255 575.477 169.157 576.069 169.759Z" fill="#E8E8E8"/>
<path d="M535.293 176.477C535.293 176.577 535.293 176.777 535.293 176.878C535.293 177.68 535.984 178.381 536.774 178.381C537.564 178.381 538.255 177.68 538.255 176.878C538.255 176.777 538.255 176.577 538.255 176.477C538.255 175.674 537.564 174.973 536.774 174.973C535.885 174.973 535.293 175.574 535.293 176.477Z" fill="#E8E8E8"/>
<path d="M542.006 173.669C541.513 173.669 541.118 173.669 540.624 173.669C541.216 174.17 542.105 174.27 542.697 173.669C543.29 173.067 543.29 172.065 542.697 171.563C541.809 170.761 540.723 170.761 539.834 171.563C539.241 172.065 539.34 173.168 539.834 173.669C540.525 174.27 541.414 174.17 542.006 173.669Z" fill="#E8E8E8"/>
<path d="M543.587 178.783C543.587 178.683 543.587 178.482 543.587 178.382C543.587 177.58 542.896 176.878 542.106 176.878C541.316 176.878 540.625 177.58 540.625 178.382C540.625 178.482 540.625 178.683 540.625 178.783C540.625 179.585 541.316 180.287 542.106 180.287C542.896 180.186 543.587 179.585 543.587 178.783Z" fill="#E8E8E8"/>
<path d="M536.375 151.814C533.907 150.21 530.747 151.012 528.97 153.318C528.476 153.919 528.871 155.022 529.463 155.423C530.253 155.924 531.043 155.523 531.537 154.922C532.327 153.919 533.808 153.819 534.795 154.521C536.573 155.423 538.054 152.816 536.375 151.814Z" fill="#E8E8E8"/>
<path d="M559.977 148.404C561.162 147.902 562.445 147.602 563.828 147.501C565.704 147.401 565.704 144.393 563.828 144.494C561.952 144.594 560.174 144.995 558.496 145.797C557.805 146.098 557.607 147.201 558.002 147.902C558.397 148.604 559.187 148.704 559.977 148.404Z" fill="#E8E8E8"/>
<path d="M560.669 190.512C565.013 190.913 569.062 188.006 570.444 183.795C571.036 181.99 568.173 181.188 567.581 182.993C566.593 186.001 563.73 187.805 560.669 187.504C558.793 187.304 558.793 190.312 560.669 190.512Z" fill="#E8E8E8"/>
<path d="M598.782 194.121C602.04 193.921 605.101 194.622 607.965 196.227C609.643 197.129 611.125 194.522 609.446 193.62C606.089 191.815 602.534 190.913 598.782 191.113C596.906 191.214 596.906 194.221 598.782 194.121Z" fill="#E8E8E8"/>
<path d="M525.712 121.936C517.417 125.746 510.999 133.165 508.728 142.188C507.346 147.702 508.333 153.116 508.136 158.731C507.84 165.047 504.976 170.661 503.1 176.577C497.669 193.721 506.951 212.569 524.132 217.783C526.008 218.284 526.699 215.477 524.922 214.875C516.726 212.369 510.111 206.253 506.655 198.333C502.903 189.61 504.384 181.389 507.543 172.767C508.926 169.057 510.308 165.348 510.802 161.337C511.394 156.525 510.407 151.713 510.901 146.9C511.789 136.975 518.405 128.553 527.193 124.543C528.871 123.741 527.39 121.234 525.712 121.936Z" fill="#E8E8E8"/>
<path d="M523.443 154.619C534.008 149.606 541.907 140.884 546.054 129.855C546.746 128.051 543.882 127.249 543.191 129.053C539.34 139.28 531.737 147.401 521.962 152.012C520.185 152.814 521.764 155.421 523.443 154.619Z" fill="#E8E8E8"/>
<path d="M547.337 129.255C550.595 135.07 557.408 137.677 563.431 139.682C571.034 142.288 579.032 143.391 587.03 143.291C588.906 143.291 588.906 140.283 587.03 140.283C580.415 140.384 573.898 139.582 567.578 137.777C561.456 136.072 553.261 133.666 549.904 127.651C549.015 126.047 546.448 127.551 547.337 129.255Z" fill="#E8E8E8"/>
<path d="M587.718 144.995C589.989 140.884 595.815 141.385 597.197 146.097C598.579 150.709 594.827 154.519 590.483 155.02C588.607 155.221 588.607 158.229 590.483 158.028C597.098 157.226 602.628 150.91 599.567 144.092C596.703 137.876 588.409 137.776 585.151 143.591C584.262 145.095 586.73 146.599 587.718 144.995Z" fill="#E8E8E8"/>
<path d="M589.597 156.124C587.425 168.957 588.708 186.302 599.57 195.024C601.051 196.227 603.124 194.122 601.643 192.919C591.769 184.998 590.387 168.857 592.461 157.026C592.856 155.021 589.992 154.219 589.597 156.124Z" fill="#E8E8E8"/>
<path d="M525.219 125.343C531.736 121.935 538.648 118.225 546.152 118.325C552.57 118.426 557.902 121.433 564.419 120.23C571.232 119.027 577.453 115.819 584.562 115.418C591.869 115.017 599.768 116.22 604.902 121.935C606.186 123.338 608.259 121.233 606.976 119.829C597.003 108.801 581.007 112.51 568.665 116.12C563.728 117.624 559.383 118.025 554.347 116.721C550.793 115.819 547.534 115.117 543.782 115.418C536.673 116.12 530.057 119.428 523.837 122.737C522.059 123.639 523.541 126.246 525.219 125.343Z" fill="#E8E8E8"/>
<path d="M524.134 215.177C523.838 215.277 523.443 215.377 523.147 215.377C521.567 215.778 521.863 217.783 523.147 218.285C525.517 219.287 527.985 219.588 530.552 219.287C532.429 219.087 532.429 216.079 530.552 216.279C528.281 216.58 526.109 216.279 523.937 215.377C523.937 216.38 523.937 217.282 523.937 218.285C524.233 218.184 524.628 218.084 524.924 218.084C526.702 217.683 525.912 214.776 524.134 215.177Z" fill="#E8E8E8"/>
<path d="M422.627 145.296C424.108 147.602 427.662 147.101 428.156 144.293C428.354 143.391 426.971 142.99 426.774 143.892C426.477 145.296 424.799 145.797 423.91 144.594C423.417 143.792 422.133 144.494 422.627 145.296Z" fill="#E8E8E8"/>
<path d="M433.981 144.194C434.574 145.197 435.265 146.299 436.549 146.5C437.635 146.7 438.622 146.199 439.017 145.096C439.313 144.194 437.931 143.793 437.635 144.695C437.437 145.096 436.845 144.996 436.549 144.796C436.055 144.495 435.759 143.893 435.462 143.292C434.771 142.59 433.488 143.292 433.981 144.194Z" fill="#E8E8E8"/>
<path d="M430.824 146.901C430.923 147.101 431.022 147.302 431.12 147.502V147.402C431.022 147.603 431.022 147.803 430.923 147.903C430.923 147.903 430.923 147.803 431.022 147.803C430.824 147.903 430.627 147.903 430.528 148.004H430.627C430.429 147.903 430.232 147.803 430.034 147.603C429.837 147.302 429.738 147.903 429.738 148.104C429.738 148.505 429.837 149.006 429.837 149.407C429.837 149.808 429.837 150.209 429.639 150.51C429.541 150.711 429.146 151.011 428.948 150.811C428.257 150.209 427.171 151.212 427.862 151.914C428.553 152.515 429.343 152.515 430.133 152.014C430.923 151.513 431.219 150.61 431.219 149.608C431.219 148.906 431.12 148.405 431.318 147.803C431.417 147.402 431.417 147.101 431.219 146.801C430.627 145.999 429.738 146.6 429.639 147.402C429.639 147.603 429.837 147.903 430.034 148.004C430.034 148.004 430.034 148.004 430.133 148.004C430.923 148.706 431.713 147.402 430.824 146.901Z" fill="#E8E8E8"/>
<path d="M430.133 147.501C430.429 148.905 430.034 150.409 431.12 151.612C431.91 152.514 433.095 152.715 434.082 151.913C434.773 151.311 433.786 150.208 432.996 150.81C432.404 151.311 431.811 149.807 431.811 149.507C431.712 148.705 431.712 147.902 431.614 147.1C431.317 146.198 429.935 146.599 430.133 147.501Z" fill="#E8E8E8"/>
<path d="M424.409 140.384C425.1 140.384 425.89 140.384 426.581 140.384C427.568 140.384 427.568 138.88 426.581 138.88C425.89 138.88 425.1 138.88 424.409 138.88C423.421 138.88 423.421 140.384 424.409 140.384Z" fill="#E8E8E8"/>
<path d="M435.166 140.684C435.857 140.684 436.45 140.784 437.042 141.185C437.832 141.686 438.622 140.383 437.832 139.881C437.042 139.38 436.154 139.18 435.265 139.18C434.179 139.18 434.179 140.684 435.166 140.684Z" fill="#E8E8E8"/>
<path d="M430.233 157.527C420.556 158.128 421.445 147.702 419.174 141.285C418.581 139.38 417.495 137.776 416.804 135.871C414.237 128.452 419.865 133.665 421.741 136.372C422.333 137.175 423.617 136.372 423.025 135.57C421.938 133.966 417.989 128.051 415.619 128.753C413.151 129.455 414.73 134.768 415.323 136.272C416.409 139.28 417.89 141.686 418.483 144.894C418.976 147.802 419.075 150.81 420.556 153.416C422.531 157.026 426.086 159.231 430.134 158.93C431.121 159.031 431.121 157.527 430.233 157.527Z" fill="#E8E8E8"/>
<path d="M423.416 136.875C428.156 134.268 433.093 134.068 437.931 136.373C438.326 136.574 438.721 136.474 438.919 136.073C440.202 133.667 441.782 131.862 443.954 130.258C443.559 130.057 443.066 129.857 442.671 129.756C442.868 135.271 443.066 141.086 442.177 146.5C440.893 154.119 435.956 156.926 428.847 157.829C427.958 157.929 427.86 159.433 428.847 159.333C434.673 158.53 440.005 157.127 442.473 151.212C445.139 144.795 444.448 136.574 444.152 129.756C444.152 129.055 443.362 128.854 442.868 129.255C441.486 130.358 439.906 133.265 438.425 134.068C436.746 134.97 434.771 133.667 432.895 133.466C429.242 133.065 425.786 133.967 422.528 135.672C421.836 136.073 422.528 137.376 423.416 136.875Z" fill="#E8E8E8"/>
<path d="M422.627 155.122C419.961 159.534 420.949 164.847 421.739 169.76C422.923 177.279 425.096 184.598 427.268 191.817C427.564 192.719 428.947 192.318 428.65 191.416C427.071 186.002 425.392 180.488 424.207 174.973C422.923 169.259 420.652 161.238 423.911 155.924C424.405 155.122 423.121 154.32 422.627 155.122Z" fill="#E8E8E8"/>
<path d="M427.17 191.214C425.294 191.515 419.271 193.52 421.147 196.527C421.838 197.63 423.319 197.831 424.504 197.931C426.775 198.132 429.046 197.731 431.218 197.029C432.107 196.728 431.712 195.324 430.823 195.625C428.848 196.227 425.689 197.229 423.615 196.427C423.22 196.227 422.43 195.525 422.628 195.024C422.727 194.723 423.615 194.322 424.01 194.121C425.195 193.52 426.38 193.018 427.664 192.818C428.552 192.417 428.157 191.013 427.17 191.214Z" fill="#E8E8E8"/>
<path d="M431.516 167.954C432.207 176.175 433.095 184.296 434.28 192.517C434.379 193.52 435.86 193.019 435.663 192.116C434.478 184.096 433.589 176.075 432.898 167.954C432.997 166.952 431.516 166.952 431.516 167.954Z" fill="#E8E8E8"/>
<path d="M434.872 191.916C432.7 192.217 428.849 194.122 430.824 197.029C432.996 200.137 439.118 197.53 441.685 196.528C442.574 196.227 442.179 194.723 441.29 195.124C439.612 195.826 437.933 196.428 436.156 196.728C435.366 196.829 433.885 197.129 433.095 196.728C431.811 195.224 431.91 194.222 433.391 193.821C433.885 193.62 434.378 193.52 434.872 193.52C435.761 193.32 435.761 191.816 434.872 191.916Z" fill="#E8E8E8"/>
<path d="M441.98 151.211C445.929 153.617 446.818 157.728 448.595 161.738C449.879 164.646 451.459 166.651 453.829 168.756C457.284 171.764 460.444 174.07 461.728 178.882C463.011 183.895 461.925 189.109 460.543 193.921C460.247 194.823 461.728 195.224 461.925 194.322C464.295 186.001 465.184 176.877 458.272 170.461C456.692 168.957 454.816 167.754 453.335 166.25C451.163 163.944 450.076 161.337 448.99 158.43C447.608 154.921 446.127 151.913 442.868 149.908C441.881 149.406 441.19 150.71 441.98 151.211Z" fill="#E8E8E8"/>
<path d="M453.831 176.376C450.573 175.874 447.907 178.682 446.919 181.79C445.537 186 449.092 190.211 451.461 193.219C451.659 192.818 451.856 192.317 451.955 191.916C448.795 192.216 446.228 193.219 443.661 195.124C443.365 195.324 443.167 195.826 443.365 196.127C445.833 199.335 451.461 197.931 454.917 197.931C458.571 197.831 462.224 197.53 462.125 192.818C462.125 191.815 460.644 191.815 460.644 192.818C460.743 197.63 451.363 196.528 448.795 196.528C448.203 196.528 447.709 196.528 447.117 196.528C445.241 196.227 444.846 195.826 445.932 195.324C446.426 194.021 450.869 193.52 451.955 193.42C452.646 193.319 452.844 192.617 452.449 192.116C451.165 190.412 449.388 188.407 448.697 186.301C447.709 183.594 448.894 177.078 453.436 177.779C454.423 177.98 454.818 176.576 453.831 176.376Z" fill="#E8E8E8"/>
<path d="M440.598 183.293C440.993 187.303 441.191 191.314 441.29 195.324C441.29 196.326 442.771 196.326 442.771 195.324C442.672 191.314 442.475 187.303 442.08 183.293C441.981 182.391 440.5 182.391 440.598 183.293Z" fill="#E8E8E8"/>
<path d="M442.178 192.518C445.239 194.022 448.497 194.322 451.657 193.32C452.545 193.019 452.15 191.615 451.262 191.916C448.398 192.718 445.535 192.518 442.869 191.214C442.079 190.813 441.289 192.117 442.178 192.518Z" fill="#E8E8E8"/>
<path d="M463.013 187.605C465.777 185.701 467.752 183.194 468.443 179.785C469.53 174.371 466.172 169.358 468.542 164.045C470.418 159.934 473.578 156.826 474.467 152.315C475.454 147.202 473.479 141.988 474.664 136.875C474.96 135.672 475.355 134.068 476.244 133.065C477.133 131.06 478.515 131.561 480.193 134.669C479.996 135.171 479.798 135.672 479.601 136.173C479.305 138.68 477.429 141.286 476.935 143.893C476.54 146.199 476.738 148.505 476.441 150.811C476.046 154.119 474.467 156.726 472.985 159.734C470.912 164.045 471.307 167.855 471.504 172.567C471.801 179.685 469.036 185.6 462.716 189.009C461.828 189.51 462.618 190.814 463.506 190.312C467.653 188.006 470.912 184.497 472.294 179.886C474.467 172.868 471.504 166.15 474.96 159.232C476.244 156.525 477.527 154.22 477.922 151.212C478.416 147.703 478.12 144.695 479.206 141.186C479.996 138.68 484.439 131.862 481.082 129.456C478.91 127.952 476.046 130.559 474.96 132.163C471.998 136.374 472.887 141.788 473.084 146.7C473.282 151.212 472.492 154.721 470.122 158.531C468.838 160.536 467.456 162.541 466.666 164.847C464 172.667 470.912 180.387 462.321 186.402C461.532 186.904 462.223 188.207 463.013 187.605Z" fill="#E8E8E8"/>
<path d="M496.485 213.772C493.029 213.07 489.968 214.173 487.203 216.378C485.229 217.882 482.661 220.088 483.056 222.895C484.241 230.214 495.596 225.903 499.151 223.497C500.731 222.394 499.25 219.787 497.67 220.89C496.189 221.893 494.708 222.695 493.029 223.196C491.943 223.497 490.857 223.797 489.771 223.797C488.29 223.898 487.697 223.998 486.907 222.494C486.117 220.99 486.512 220.99 487.598 219.887C488.289 219.186 488.981 218.684 489.771 218.083C491.548 216.88 493.523 216.178 495.695 216.579C497.571 217.08 498.361 214.173 496.485 213.772Z" fill="#E8E8E8"/>
<path d="M493.523 212.87C492.93 208.359 491.647 204.048 489.376 200.037C487.895 197.431 484.636 191.716 481.18 191.315C473.676 190.413 481.773 210.364 483.056 213.071C483.945 214.775 486.413 213.271 485.624 211.567C484.142 208.459 482.958 205.351 482.168 202.042C481.773 200.338 480.983 197.832 481.18 196.227C481.18 195.726 481.081 195.325 481.081 194.824C481.871 195.225 482.563 195.826 483.155 196.528C487.302 200.839 489.771 206.955 490.561 212.87C490.857 214.675 493.819 214.775 493.523 212.87Z" fill="#E8E8E8"/>
<path d="M485.721 211.467C483.549 207.256 474.564 193.019 468.442 198.533C462.32 204.047 473.28 215.978 477.131 219.587C478.513 220.891 480.587 218.785 479.205 217.482C477.131 215.477 475.156 213.371 473.576 211.065C472.688 209.762 468.343 203.245 469.824 201.842C471.009 201.641 472.194 201.441 473.379 201.24C474.268 201.842 475.058 202.544 475.847 203.245C476.736 204.047 477.625 205.05 478.513 205.952C480.39 208.058 481.871 210.464 483.154 212.97C484.043 214.775 486.61 213.271 485.721 211.467Z" fill="#E8E8E8"/>
<path d="M476.936 218.384C473.579 215.576 468.642 218.384 468.939 222.695C469.333 228.51 475.752 229.713 480.195 228.409C482.071 227.908 481.281 225.001 479.405 225.502C477.035 226.204 473.777 226.404 472.296 223.798C471.703 222.795 471.605 221.592 472.493 220.79C473.086 220.188 474.172 219.888 474.863 220.489C476.245 221.792 478.319 219.687 476.936 218.384Z" fill="#E8E8E8"/>
<path d="M470.519 222.695C466.372 223.998 466.372 229.011 468.742 232.019C471.112 235.026 475.654 237.032 479.011 234.425C480.492 233.222 478.418 231.116 476.937 232.32C475.357 233.523 472.79 231.918 471.704 230.816C470.519 229.613 468.939 226.404 471.408 225.602C473.185 225.001 472.395 222.093 470.519 222.695Z" fill="#E8E8E8"/>
<path d="M494.809 213.974C502.017 213.974 504.19 227.709 502.807 232.822C502.313 234.727 505.177 235.529 505.671 233.624C507.645 226.406 504.288 210.966 494.809 210.966C492.834 210.966 492.834 213.974 494.809 213.974Z" fill="#E8E8E8"/>
<path d="M424.309 318.442C458.375 318.442 492.44 318.442 526.505 318.442C528.381 318.442 528.381 315.435 526.505 315.435C492.44 315.435 458.375 315.435 424.309 315.435C422.433 315.435 422.433 318.442 424.309 318.442Z" fill="#E8E8E8"/>
<path d="M450.473 331.875C481.873 331.875 513.272 331.875 544.573 331.875C546.449 331.875 546.449 328.867 544.573 328.867C513.173 328.867 481.774 328.867 450.473 328.867C448.597 328.867 448.597 331.875 450.473 331.875Z" fill="#E8E8E8"/>
<path d="M538.845 317.94C542.794 317.94 546.744 317.94 550.693 317.94C552.569 317.94 552.569 314.933 550.693 314.933C546.744 314.933 542.794 314.933 538.845 314.933C536.968 314.933 536.968 317.94 538.845 317.94Z" fill="#E8E8E8"/>
<path d="M572.514 326.962C568.86 325.258 566.096 322.25 565.108 318.24C564.614 316.335 564.219 313.528 565.503 311.824C567.972 308.314 570.934 313.127 571.724 315.633C572.119 316.937 574.291 317.137 574.587 315.633C574.686 314.932 574.883 314.23 575.081 313.528C575.871 310.52 577.747 310.821 580.808 314.23C581.302 316.034 580.117 319.042 579.327 320.546C577.648 323.955 574.883 326.361 571.526 328.065C569.848 328.867 571.329 331.474 573.007 330.672C579.327 327.664 586.239 318.842 583.079 311.322C582.091 309.016 579.722 307.212 577.154 307.613C573.699 308.114 572.217 311.824 571.625 314.831C572.612 314.831 573.501 314.831 574.488 314.831C572.81 309.317 565.701 302.901 562.442 311.021C559.579 318.14 564.713 326.561 571.033 329.569C572.711 330.371 574.192 327.765 572.514 326.962Z" fill="#E8E8E8"/>
</svg>
