<svg width="154" height="126" viewBox="0 0 154 126" fill="none" xmlns="http://www.w3.org/2000/svg">
<path d="M75.2437 45.5362L75.1645 46.1169C75.4721 46.0752 75.7618 45.9485 76.0011 45.7508C76.2404 45.5532 76.4197 45.2926 76.5187 44.9985L76.7993 45.4893C76.9093 45.4976 77.0637 45.5558 77.1165 45.5056C77.5601 45.0825 78.156 45.0531 78.6748 45.0583C79.2836 45.0641 79.8969 45.3812 80.4259 44.8256C80.4629 44.7867 80.5418 44.736 80.572 44.7511C81.7888 45.3193 83.0858 44.6766 84.3183 45.0023C84.7239 45.1099 84.3788 45.345 84.4584 45.6209C85.6255 45.0701 86.7296 44.2442 88.2982 44.7116L88.6306 45.1611C88.7878 45.2632 88.8337 45.2219 88.8634 45.0581C88.8712 44.9578 88.9013 44.8605 88.9516 44.7734C89.0018 44.6862 89.0709 44.6113 89.1538 44.5543C89.2367 44.4973 89.3313 44.4594 89.4307 44.4436C89.53 44.4278 89.6317 44.4344 89.7282 44.463C90.9753 44.7735 92.2104 44.4691 93.4404 44.4155C95.7087 44.3172 97.966 44.4723 100.227 44.4835C102.504 44.4949 104.768 44.5911 107.037 44.7629C110.028 44.9892 113.02 45.1491 116.009 45.4488C117.944 45.6429 119.898 45.8357 121.856 45.9133C123.722 45.9876 125.573 46.3917 127.435 46.5865C129.623 46.8162 131.775 47.2845 133.984 47.4034C135.085 47.4628 136.158 47.9129 137.293 48.0332C141.502 48.4795 145.53 49.7606 149.596 50.8555C150.33 51.0535 151.085 51.2171 151.581 52.1058C150.593 52.2884 149.719 52.425 148.808 52.1681C147.475 51.7914 146.135 51.4365 144.798 51.0722C144.128 50.8895 143.465 50.5842 142.791 50.5597C142.117 50.5351 141.515 50.2615 140.85 50.2267C140.193 50.1925 139.555 49.9833 138.882 49.9154C137.718 49.7981 136.568 49.4555 135.411 49.2214C133.932 48.9229 132.433 48.978 130.96 48.6773C129.453 48.3691 127.903 48.2857 126.377 48.0755C125.885 48.0073 125.441 47.7426 124.908 48.0803C124.7 48.2119 124.253 48.0285 123.938 47.9177C122.818 47.5243 121.649 47.5721 120.493 47.4965C119.301 47.4186 118.108 47.361 116.917 47.2809C113.499 47.0514 110.075 46.8795 106.666 46.5577C104.501 46.3537 102.329 46.5926 100.174 46.3006C99.4527 46.6753 98.8229 45.9473 98.0536 46.1676C97.4296 46.3771 96.76 46.4109 96.1181 46.2654C95.6065 46.0743 95.0627 45.9837 94.5168 45.9985C93.9346 46.0782 93.3485 46.1255 92.7611 46.1403C92.1648 46.1664 91.5673 46.1318 90.9779 46.037C90.3696 45.9193 89.7783 46.1238 89.2088 46.0404C88.8852 45.993 88.5256 46.3797 88.2873 46.0078C88.0632 45.6587 87.8457 45.7106 87.5977 45.9116C87.1243 46.2977 86.5547 46.1601 86.0319 46.2315C85.8089 46.0466 85.8375 45.6737 85.4527 45.5583C84.8601 46.5325 83.6566 46.0793 82.8472 46.6281C82.1756 45.8124 81.4592 46.7226 80.7707 46.5742C80.0587 46.421 79.4213 46.8767 78.6964 46.7887C77.5205 46.6457 76.3521 46.9183 75.1802 47.0126C74.0612 47.1184 72.9375 47.166 71.8136 47.1552C71.3435 47.144 71.201 47.2912 71.1111 47.7939C70.0683 46.985 68.7955 48.47 67.7367 47.3229C67.6421 47.5 67.5748 47.8006 67.4548 47.8236C66.354 48.0331 65.285 48.4228 64.1405 48.3981C63.2196 48.3772 62.2737 48.4325 61.4772 48.9082C61.1331 49.0804 60.7419 49.1347 60.3639 49.0626C58.5154 48.9081 56.8746 49.6742 55.1642 50.1009C53.8103 50.4385 52.4396 50.6661 51.0754 50.9394C49.3936 51.2762 47.6898 51.5014 46.0513 52.0742C45.0485 52.4246 43.9517 52.4933 42.9228 52.7836C42.1911 52.9899 41.3656 52.9846 40.7609 53.5378C40.3091 53.9512 39.6826 53.6024 39.1676 53.9674C38.9797 54.1006 38.3306 53.9506 38.1324 54.2684C37.8843 54.668 37.2446 53.9253 37.2341 54.6591C36.4693 54.8273 35.699 55.1535 34.9402 55.1289C33.6735 55.0872 32.6619 55.7943 31.5092 56.0693C29.6569 56.5119 28.0281 57.6699 26.0948 57.9257C25.547 58.6358 24.3341 58.1299 23.9083 59.1464C23.807 59.3889 23.327 59.1393 22.9775 59.2757C21.1184 60.0097 19.1719 60.5495 17.4946 61.6761C17.129 61.9228 16.4612 61.5784 16.3681 62.2794C15.7096 61.9934 15.317 62.5525 14.8288 62.7822C14.3599 63.0021 13.9274 63.4968 13.4702 63.5074C12.3296 63.5325 11.9579 64.6784 11.0188 64.9708C10.2343 65.2153 9.6579 65.9995 8.70866 65.8854C8.62127 65.8873 8.53574 65.911 8.45986 65.9544C8.38398 65.9978 8.32014 66.0595 8.27419 66.1338C8.00241 66.9551 7.22164 67.1654 6.58861 67.4492C5.48011 67.946 4.83762 69.0303 3.74945 69.5336C3.61929 69.5937 3.62982 69.9585 3.54126 70.3197C4.5518 69.7736 5.63458 69.5333 6.30213 68.5404C6.53622 68.2947 6.81958 68.1014 7.13366 67.9729C8.88537 66.9645 10.6635 66.0003 12.3857 64.9443C13.1646 64.4669 14.1178 64.5708 14.8662 63.9787C15.5377 63.4473 16.3165 62.8477 17.1146 62.7343C17.9971 62.607 18.6065 61.9123 19.4226 61.8833C20.3072 61.8514 20.8145 61.1357 21.5636 60.9289C23.1703 60.4852 24.5996 59.5702 26.18 59.1292C27.489 58.7633 28.7381 58.2227 30.0571 57.9311C30.3636 57.8634 30.2131 57.2643 30.7219 57.5423C31.026 57.708 31.3233 57.3029 31.6206 57.153C31.8929 57.0157 32.1736 57.3514 32.422 57.103C32.7034 56.8225 33.0975 57.0604 33.362 56.9383C34.1165 56.5891 34.8677 56.2724 35.6577 55.9932C37.1973 55.4486 38.7788 55.0809 40.3313 54.6037C41.1374 55.0106 41.5451 53.9037 42.3797 54.103C42.9963 54.2503 43.6226 53.764 44.2409 53.5824C46.2982 52.9785 48.3909 52.4728 50.4959 52.0626C51.9732 51.7745 53.4688 51.6611 54.8968 51.0816C55.5043 50.835 56.2744 50.841 56.9448 50.798C58.8862 50.6738 60.7366 50.127 62.6227 49.77C63.5283 49.5986 64.4348 49.6209 65.3341 49.5078C66.8157 49.3216 68.2452 48.8299 69.7772 48.8791C70.7786 48.9102 71.7737 48.3035 72.8174 48.7273C73.4614 47.8984 74.4022 48.5871 75.1895 48.2629C75.959 47.9459 76.8746 48.1865 77.7275 47.9889C78.5166 47.8468 79.3177 47.7826 80.1194 47.7973C80.9224 47.7739 81.7273 47.8118 82.5329 47.8231L82.934 48.5246C83.2162 48.1972 83.3612 47.7442 83.7912 47.6787C84.0955 47.65 84.1342 47.9485 84.3193 48.0532C84.4264 48.0526 84.5326 48.0334 84.6331 47.9964C85.6366 47.4397 86.7924 47.2201 87.9301 47.3699C89.8349 47.5636 91.6963 47.2381 93.578 47.2344C95.7854 47.2295 97.9947 47.3124 100.195 47.2597C102.791 47.198 105.365 47.5263 107.959 47.4709C109.747 47.4318 111.542 47.6886 113.332 47.8347C115.617 48.0216 117.897 48.3127 120.184 48.4035C122.048 48.4774 123.878 48.8016 125.729 48.9593C127.603 49.08 129.469 49.3021 131.32 49.6246C132.936 49.9405 134.597 50.0216 136.236 50.231C138.042 50.4622 139.829 50.8217 141.64 51.0376C142.871 51.1782 144.09 51.4048 145.29 51.7159C147.354 52.2649 149.416 52.8266 151.474 53.401C151.735 53.473 152.061 53.4495 152.202 53.8311C152.06 54.4357 151.528 54.4516 150.984 54.3393C151.196 55.1582 151.983 54.8037 152.261 55.3066C152.382 55.5845 152.139 55.8291 152.126 56.1104C151.676 55.7154 151.622 56.5161 151.305 56.3865C150.965 56.2476 150.651 56.6768 150.333 56.3857C149.995 56.626 150.545 56.874 150.199 57.2503C149.341 57.1302 148.368 57.0185 147.405 56.8511C146.749 56.7359 146.134 56.4966 145.429 56.5471C144.849 56.5882 144.263 56.0168 143.644 56.551C143.532 56.6481 143.382 56.4081 143.255 56.3456C142.374 55.9122 141.01 55.8235 139.738 56.0003C139.039 56.0624 138.336 56.0367 137.644 55.9238C136.441 55.7834 135.248 55.5408 134.028 55.4886C133.81 55.4549 133.604 55.3668 133.429 55.2325C133.016 54.9541 132.544 54.7746 132.05 54.7079C131.556 54.6412 131.054 54.689 130.581 54.8477C130.054 55.0156 129.808 54.9015 128.965 54.6479C128.54 54.551 128.108 54.4926 127.672 54.4733C125.934 54.2876 124.182 54.3028 122.457 54.0879C121.413 53.9577 120.397 54.6188 119.381 54.0787C118.788 54.6375 118.2 54.1125 117.605 54.0889C116.152 54.0311 114.678 53.6695 113.252 54.0424C112.741 54.1754 112.58 53.2631 112.118 53.8414C110.72 53.6784 109.315 53.9491 107.927 53.8108C107.395 53.7579 106.793 53.431 106.317 53.6094C105.411 53.9481 104.46 53.1336 103.62 53.8197C102.777 53.1967 101.928 53.6641 101.057 53.7382C100.384 53.7962 99.7463 53.4002 98.9688 53.7157C98.3151 53.9805 97.4902 53.8417 96.7418 53.8459C95.9934 53.8501 95.2357 53.6072 94.4854 53.8687C93.9209 53.1909 93.1771 53.6056 92.5435 53.6298C91.8613 53.6554 91.1205 53.4975 90.4819 53.8514C89.9844 54.1268 89.5759 53.1768 89.0337 53.8399C88.6988 54.2499 88.0988 53.9568 87.6224 54.0157C87.164 54.0718 86.6437 54.3258 86.2641 53.7253C86.1562 53.555 85.7568 53.5249 85.4866 53.5096C84.4143 53.4508 83.3094 54.0569 82.2686 53.3465C81.7365 53.7356 81.0257 53.438 80.5478 53.6619C78.9952 54.3884 77.3537 54.1318 75.7692 54.2126C74.596 54.2722 73.4389 54.8847 72.2408 54.4092C71.5359 55.0081 70.6292 54.5429 69.8792 54.8518C69.0022 55.2125 68.0476 54.8652 67.1786 55.1931C66.3096 55.5209 65.3731 55.3874 64.4842 55.5867C64.335 55.62 64.1524 55.5066 63.9066 55.4396C62.7902 56.5884 60.9674 55.7423 59.5176 56.855C60.2667 56.8138 60.7773 56.7856 61.5651 56.7407C60.2171 57.6107 58.8487 57.3394 57.6447 57.7406C56.4576 58.1368 55.1294 58.1684 53.8689 58.4013C52.6084 58.6342 51.3058 58.7039 50.0875 59.0667C48.8436 59.4383 47.5529 59.5274 46.3133 59.909C45.0873 60.2863 43.8092 60.493 42.4882 60.7891L42.0469 60.1454C40.9495 59.9583 40.1263 60.8723 39.0751 60.8912C38.9231 60.8939 38.7582 61.1452 38.6262 61.1229C37.4263 60.9201 36.4538 61.7387 35.3237 61.8288C34.1564 61.922 33.2257 62.7311 32.0721 62.8983C30.7316 63.0924 29.5165 63.7558 28.1796 63.9984C27.487 64.1239 26.9671 64.8241 26.1666 64.6679C25.377 65.3609 24.3312 65.471 23.3998 65.8085C22.5487 66.0575 21.7294 66.4045 20.9584 66.8426C19.9704 66.4476 19.4509 67.8453 18.4503 67.5021C18.3061 67.4525 18.0479 67.6944 17.8582 67.8251C16.6422 68.6494 15.2139 68.9597 13.8733 69.4822C13.4838 69.6343 13.4158 70.1648 12.9459 70.2358C11.0789 70.5178 9.72168 71.8552 8.08251 72.6038C7.42565 72.9062 6.8884 73.419 6.55582 74.0611L6.86679 74.1787C7.12728 75.1239 6.57814 75.6805 5.80049 75.8731C5.15439 76.0331 4.84405 75.4013 4.60715 74.8418C3.94699 74.871 3.2247 75.0014 2.98527 74.1286C2.84987 73.6345 2.41472 73.4792 2.05244 73.2283C2.0461 72.7415 2.19682 72.1795 2.00163 71.792C1.5664 70.9278 1.92406 70.2 2.31289 69.5649C2.7665 68.8983 3.30732 68.2953 3.92091 67.7721C5.57356 66.2295 7.62549 65.3589 9.51738 64.2228C11.3989 63.0924 13.3289 62.0469 15.2237 60.9397C15.9026 60.5433 16.7235 60.6429 17.4032 60.1463C18.0061 59.7043 18.6291 59.0775 19.5332 59.2835C20.5083 58.4596 21.8598 58.5132 22.9024 57.7857C24.2269 56.8616 25.8205 56.4979 27.3479 56.0302C27.6608 55.8862 27.9871 55.773 28.3219 55.6921C28.7185 55.6605 29.0923 55.4943 29.3814 55.221C29.9399 54.7508 30.6543 54.8916 31.2741 54.6421C31.9076 54.3867 32.6268 54.2634 33.1085 53.8951C33.4777 54.0175 33.4665 54.3813 33.8985 54.2776C34.1605 53.463 34.9283 53.333 35.7723 53.1602C37.4239 52.82 39.0372 52.3147 40.5878 51.6519C41.0941 51.4748 41.6185 51.354 42.1513 51.2918C43.4922 51.0503 44.8335 50.8173 46.1594 50.072L46.8771 50.3887C47.2025 50.2426 46.9642 49.9348 47.3527 49.8903C48.0411 49.8088 48.7677 49.8008 49.389 49.4014C49.4831 49.3439 49.5871 49.3045 49.6957 49.2853C50.0319 49.2206 50.5417 49.9334 50.6975 49.0577C51.2149 49.4678 51.5881 48.7209 52.1378 48.8937C52.5026 49.0085 53.0088 48.7542 53.3652 48.6345C53.7972 48.4901 54.2368 48.5753 54.6428 48.3979C55.4375 48.051 56.4421 48.504 57.0743 47.7675C57.4197 47.7447 57.4512 48.053 57.6471 48.1463C58.0821 47.7549 59.6762 47.3882 60.6951 47.4493L60.7333 47.978C60.8511 47.9544 61.0065 47.9701 61.0525 47.9068C61.3676 47.4727 61.5596 46.8622 62.3067 47.1308C63.3969 46.5961 64.6296 46.5546 65.7692 46.495C66.7302 46.4071 67.6814 46.2327 68.611 45.9737C69.5028 45.7656 70.4565 46.1383 71.3055 45.6468C72.6011 45.996 73.8715 45.2689 75.2437 45.5362ZM83.4361 52.0779C83.5832 51.6377 83.8812 52.2947 83.9534 51.8365C84.0221 51.401 84.4391 51.3992 84.6525 51.158C84.7593 51.0373 84.7163 50.9396 84.5903 50.9173C84.1179 50.883 83.8683 51.4935 83.3939 51.3581L83.0443 50.9611C82.6278 51.4131 82.8272 52.0767 82.423 52.469C81.5557 52.7007 81.354 52.032 81.0352 51.5141C81.001 51.4582 80.8612 51.4683 80.7705 51.447C80.5974 51.8357 81.1574 52.0181 81.0605 52.2919C80.6424 53.1226 80.3712 52.1356 79.7905 52.4035C79.8812 52.3893 80.095 52.7051 79.7882 52.6561C79.4624 52.5265 79.5421 51.9973 79.1147 51.9639C78.4292 52.6615 77.6709 52.8159 76.1503 52.567L76.0595 52.9004C75.7272 52.9421 75.738 52.4292 75.3945 52.4883C75.0296 52.5389 75.1047 52.9144 74.9349 53.1091C73.0772 53.0564 73.0772 53.0564 72.204 53.501L70.433 52.8339C69.8408 52.8835 69.9269 53.4809 69.6525 53.7016C68.9944 53.4995 68.3023 53.3417 67.7206 53.7159C67.2966 53.9899 66.8783 53.9288 66.4555 54.0042C65.4579 54.181 64.4571 54.3364 63.4626 54.533C63.4027 54.5333 63.3438 54.5484 63.2912 54.5769C63.2386 54.6054 63.1939 54.6466 63.161 54.6966C63.1281 54.7466 63.1081 54.804 63.1028 54.8636C63.0975 54.9232 63.107 54.9832 63.1305 55.0383C63.716 55.0777 64.3041 55.0419 64.8804 54.9315C66.1739 54.6069 67.4922 54.3906 68.8216 54.2849C70.1561 54.2124 71.4426 53.6896 72.8171 53.9299C73.1895 53.9368 73.5608 53.8867 73.9181 53.7815C75.9165 53.4406 77.9358 53.2368 79.962 53.1713C81.0643 53.1103 82.2333 53.2901 83.2883 52.7597C83.3763 52.6976 83.4546 52.6228 83.5206 52.5378L83.4361 52.0779Z" fill="#D73F3B"/>
<path d="M89.02 68.4294C88.5481 68.9459 87.5641 68.7669 87.3627 69.6503C87.5214 70.1153 87.9414 69.8914 88.2892 70.0369C88.9924 69.2805 89.8793 69.0437 90.8897 68.8055C91.8884 68.5708 92.925 68.6658 93.9172 68.2719C94.8524 67.9008 95.9314 67.8839 96.9512 67.7386C97.9786 67.5926 99.0114 67.4829 100.041 67.3532C100.847 67.2087 101.659 67.1087 102.476 67.0539C104.417 67.0276 106.336 66.777 108.265 66.6207C109.265 66.5399 110.273 66.6294 111.29 66.5515C113.036 66.4168 114.809 66.6302 116.557 66.5112C118.441 66.3828 120.314 66.6515 122.176 66.5518C126.375 66.3263 130.534 66.887 134.715 67.0051C135.394 67.0243 136.074 67.0912 136.76 67.1073C138.266 67.143 139.82 67.0578 141.191 67.8281C141.72 68.1251 142.015 67.4773 142.621 67.7328C143.253 67.97 143.931 68.0548 144.602 67.9803C145.292 67.905 145.968 68.119 146.643 68.1681C147.454 68.2262 148.294 68.3942 149.165 68.47C149.659 68.8892 150.168 69.3406 150.703 69.7592C150.793 69.8302 150.994 69.7612 151.124 69.7577C151.279 69.4385 150.632 69.2994 151.153 68.8552C152.003 68.7524 152.864 68.8989 153.632 69.2768C153.698 69.4512 153.397 69.5414 153.353 69.7409C153.312 69.9275 153.429 70.1871 153.046 70.1444C152.629 70.0975 152.926 70.4686 152.792 70.6171C152.277 70.6012 152.212 69.9692 151.79 69.8266C151.096 69.7799 151.565 70.532 151.108 70.7193C150.636 70.6882 150.184 70.4094 149.685 70.2002L149.208 70.6299C148.009 70.5975 146.934 69.7058 145.705 70.2496C145.12 70.5084 144.658 69.7668 143.984 70.1224C143.514 70.3704 142.95 69.9086 142.465 69.7354C142.198 69.5498 142.418 69.2924 142.278 69.0613C141.527 69.2142 141.956 69.8875 141.781 70.2915C141.383 70.2709 140.979 70.2504 140.576 70.2294L140.575 69.7388C140.061 69.7714 139.67 69.2564 139.16 69.4221C138.82 69.5732 138.869 69.8786 138.843 70.1407L138.128 70.1038L138.129 69.6079C137.3 70.0342 137.3 70.0342 136.222 70.0053C135.951 69.6804 136.759 69.5203 136.127 68.9916C135.662 68.8046 134.972 69.9066 134.287 69.1646C134.239 69.3713 134.192 69.573 134.116 69.9042C133.319 69.7642 132.498 69.8643 131.767 69.7204C130.942 69.5589 130.155 69.8256 129.301 69.6074L128.595 68.825C128.147 69.2084 127.497 68.8602 127.071 69.1407C125.638 70.0851 124.12 69.619 122.654 69.4518C122.116 69.3905 121.611 69.1518 121.07 69.3904C120.898 69.4666 120.772 69.4939 120.629 69.3361C120.027 68.6682 119.383 68.6849 118.681 69.1969C118.604 69.2604 118.516 69.3082 118.422 69.3374C118.327 69.3667 118.227 69.377 118.129 69.3676C118.03 69.3582 117.934 69.3293 117.847 69.2827C117.759 69.236 117.682 69.1725 117.619 69.0958C117.103 68.556 116.505 68.7942 116.035 68.7875C115.595 69.224 116.209 69.3619 116.026 69.7328C115.677 69.4673 114.983 70.1064 114.837 69.1921C114.829 69.1345 114.345 69.0378 114.227 69.1351C114.016 69.321 113.763 69.4536 113.491 69.5219C113.218 69.5902 112.933 69.5922 112.66 69.5277C112.141 70.2087 111.408 69.9898 110.764 69.9007C109.908 69.7821 109.079 70.0096 108.262 70.0952C107.286 70.2444 106.29 70.1754 105.343 69.8933C105.09 69.8267 104.831 69.7827 104.57 69.7618C104.385 69.9976 104.15 70.1894 103.882 70.3235C103.614 70.4576 103.32 70.5306 103.02 70.5374C100.9 70.6894 98.7614 70.78 96.6873 71.3222C96.3671 71.3947 96.0334 71.382 95.7196 71.2853C95.4058 71.1887 95.1228 71.0114 94.8989 70.7712C94.5822 70.4875 94.2626 70.5953 94.0233 70.5403C93.4896 71.5589 92.0683 71.1533 91.7135 72.1557C91.1366 72.0144 91.036 71.5454 90.6262 71.335C89.7703 71.7612 88.858 72.2148 87.9542 72.6648C87.8136 72.972 88.321 73.1204 88.0425 73.5308C87.6788 73.7389 87.0386 73.6066 86.6614 74.4575L86.6552 73.5889C86.3576 73.4507 86.2138 73.991 85.8892 73.7387C85.5091 73.4234 85.7953 72.9989 85.7397 72.6336L84.3038 72.0802C84.3032 71.4791 84.6531 71.5027 85.0147 71.5373C85.0604 71.2227 85.2318 70.8978 84.9094 70.5971C84.6042 70.2646 84.4672 70.8994 84.1264 70.7299C84.2522 69.5217 85.7559 69.6479 86.0292 68.589C86.4741 68.6808 86.8101 68.7505 87.1409 68.8191L87.1967 68.2867C87.7511 68.1356 88.3409 67.9728 88.9331 67.8201C88.9595 67.8136 89.0097 67.8997 89.0488 67.9425C89.2136 68.1132 89.204 68.2755 89.02 68.4294Z" fill="#D73F3B"/>
<path d="M89.0202 68.4286C89.2044 68.2742 89.2129 68.1112 89.0456 67.9394C89.9006 67.0359 91.1232 67.0417 92.1973 66.7879C93.9828 66.3684 95.8221 66.1738 97.6345 65.8721C98.9729 65.6503 100.39 65.6513 101.766 65.5132C103.634 65.3253 105.515 65.3668 107.382 65.1087C108.484 64.9564 109.627 65.0923 110.747 65.0735C112.326 65.0471 113.908 64.7991 115.499 64.9901C116.323 65.0889 117.16 65.188 118.011 64.9251C118.23 64.8619 118.46 64.8506 118.683 64.8923C118.907 64.934 119.117 65.0274 119.298 65.1651C119.51 65.321 119.983 64.9922 120.392 64.9984C124.446 65.06 128.497 65.1508 132.547 65.3833C135.052 65.527 137.533 65.8934 140.034 66.0884C142.033 66.2408 144.022 66.5088 145.99 66.8911C146.744 67.0394 147.651 66.8888 148.325 67.4092C148.28 67.8689 148.025 67.9795 147.719 67.8891C145.766 67.3517 143.748 67.0879 141.722 67.1054C141.039 67.0973 140.459 66.7054 139.761 66.7262C139.165 66.7442 138.554 66.7876 137.955 66.445C137.532 66.2428 137.046 66.2169 136.603 66.373C135.951 66.6276 135.362 66.3463 134.764 66.3962C134.176 66.393 133.589 66.3309 133.013 66.2109C132.177 66.1214 131.294 66.5149 130.462 66.0387C129.776 66.5762 129.057 65.829 128.454 66.0387C127.741 66.2855 127.145 65.9192 126.485 65.945C125.854 66.0223 125.216 66.0348 124.582 65.9823C123.894 65.9037 123.202 65.8625 122.51 65.8588C121.816 65.823 121.127 65.7789 120.435 65.7544C119.769 65.7305 119.093 65.8403 118.45 65.8408C117.039 65.8411 115.638 66.0831 114.215 65.948C112.675 65.8018 111.128 66.002 109.58 66.1251C108.032 66.2482 106.462 66.437 104.933 66.3391C103.784 66.2655 102.708 66.8231 101.583 66.4968C100.902 67.0197 100.084 66.5937 99.3199 66.7955C98.6576 67.0139 97.9437 67.0205 97.2775 66.8143C96.9215 66.6797 96.2393 67.2946 95.9464 67.1327C95.3851 66.8224 95.1905 67.2155 94.8115 67.3283C94.5126 67.4518 94.1981 67.5334 93.8769 67.571C92.3089 67.6427 90.7636 67.9746 89.3043 68.553C89.2353 68.5826 89.1166 68.4744 89.0202 68.4286Z" fill="#D73F3B"/>
</svg>
