<svg width="471" height="579" viewBox="0 0 471 579" fill="none" xmlns="http://www.w3.org/2000/svg">
<path d="M171.258 294.447C169.95 293.373 172.038 292.205 171.006 291.148C172.355 290.288 171.84 288.748 172.432 287.573C172.38 286.939 174.144 288.468 173.501 286.771C173.301 285.523 173.329 284.259 173.583 283.03L176.388 282.945L174.698 282.099L176.943 279.785L179.04 280.692C179.651 280.069 180.083 279.313 180.297 278.489C180.512 277.666 180.502 276.802 180.269 275.973L177.859 279.315L175.928 278.064C176.332 277.51 178.24 278.24 177.243 276.458L175.08 276.996C174.972 276.722 174.799 276.481 174.861 276.404C175.654 275.399 176.479 274.419 177.297 273.433C175.453 272.118 175.005 270.148 174.616 267.824L176.412 268.722C176.935 268.156 178.326 268.098 178.377 266.712L175.098 266.777C174.734 265.61 174.443 265.408 173.632 265.64C172.544 263.894 175.123 264.012 175.46 262.801L173.295 262.151C173.507 261.498 174.497 261.289 173.855 260.247C172.965 258.8 172.74 257.007 171.842 255.563C170.943 254.119 171.63 253.174 172.431 252.002L170.387 251.546C171.004 249.855 169.977 248.314 169.678 246.671C168.963 242.743 167.825 238.902 166.9 235.019C166.074 231.549 165.024 228.121 164.115 224.665C163.366 221.819 162.614 218.97 161.98 216.103C161.12 212.208 159.857 208.394 158.865 204.527C158.09 201.505 157.155 198.454 156.259 195.425C155.963 194.425 155.205 193.453 155.704 192.308C155.741 192.155 155.744 191.996 155.713 191.84C155.681 191.685 155.616 191.536 155.52 191.404C153.421 188.47 153.97 184.829 152.306 181.784C152.209 181.583 152.195 181.358 152.266 181.152C153.281 178.466 151.613 176.138 150.884 173.71C149.721 169.861 148.929 165.93 148.518 161.966C148.501 161.127 148.368 160.291 148.121 159.479C147.827 158.746 148.227 158.078 148.033 157.449C147.8 156.618 147.389 155.836 146.824 155.15C146.015 154.239 147.981 154.026 147.163 152.977C146.568 152.212 146.851 150.918 146.478 149.941C145.866 148.347 146.484 146.531 145.232 145.026C144.972 144.714 145.171 143.835 145.475 143.419C146.024 142.667 146.211 142.386 145.166 141.702C144.594 141.328 144.667 139.935 144.648 138.997C144.591 136.033 143.186 133.16 143.754 130.159C142.35 127.55 142.962 124.739 142.611 122.025C142.528 121.4 142.365 120.779 142.332 120.153C142.267 118.986 142.974 117.925 142.221 116.603C141.685 115.674 142.987 114.328 141.96 113.112C141.761 112.876 142.11 112.018 142.46 111.662C143.381 110.723 142.082 111.052 141.984 110.795C141.827 110.387 142.152 109.839 142.019 109.413C141.394 107.528 141.351 105.529 141.896 103.647C142.89 100.306 141.983 96.8332 142.589 93.4536C142.772 92.4318 142.153 91.2606 143.151 90.3525C142.371 88.2625 144.188 86.5616 144.021 84.5695C143.95 83.7331 143.385 82.6666 143.75 82.1126C144.49 80.6491 144.957 79.0751 145.133 77.456C145.513 75.8936 146.07 74.373 146.549 72.8343C146.614 72.6289 146.611 72.2932 146.747 72.2389C147.976 71.7298 147.473 70.5349 147.871 69.8321C148.779 68.2323 148.652 66.3052 149.941 64.8506C150.674 63.8624 151.573 62.9907 152.604 62.2672L151.027 61.2773C153.417 59.1379 153.646 55.4846 157.428 53.978L157.803 51.5041C158.449 51.2856 159.368 51.1723 159.403 50.93C159.65 49.2285 159.965 47.8338 162.46 48.3375C162.845 48.4147 163.426 47.5597 164.548 46.589L161.36 47.0896C162.482 45.9351 163.255 45.0978 164.081 44.3187C164.798 43.5242 165.635 42.8308 166.568 42.2591C167.683 41.7053 168.168 40.5628 169.352 40.1119C170.427 39.7386 171.445 39.2418 172.383 38.6327C173.327 37.9729 174.51 37.7433 175.367 36.8013C175.934 36.1741 177.407 36.2588 178.495 36.0249L179.31 36.968L178.171 37.8422C178.934 37.8643 179.412 38.0069 179.737 37.8635C180.927 37.2073 181.899 36.265 182.555 35.1335C182.871 34.7022 183.277 34.142 183.747 34.0446C184.404 33.9091 185.21 34.3253 185.859 34.1786C186.384 34.0607 186.838 33.0762 187.211 33.1328C189.09 33.4492 190.944 32.4882 192.796 33.2298C196.049 32.4423 199.16 33.7251 202.34 33.9987C208.245 34.5071 213.528 36.87 218.626 39.4628C224.346 42.4174 229.544 46.1859 234.027 50.6274C237.201 53.7251 240.478 56.7107 243.429 60.0159C247.537 64.4985 251.956 68.7295 256.656 72.6809C258.078 73.905 259.862 74.6687 261.282 75.9851C262.72 77.1845 264.346 78.1725 266.101 78.9133C267.675 79.5885 269.303 80.1456 270.969 80.5791C272.292 80.9726 273.838 80.6392 274.931 81.8421C275.145 82.0786 275.843 82.003 276.304 81.9655C276.852 81.9235 277.41 81.6179 277.94 81.6733C281.637 82.0044 285.347 81.5519 288.788 80.3501C292.23 79.1483 295.313 77.2287 297.804 74.7369C300.902 71.793 303.527 68.5408 306.442 65.4978C310.552 61.2086 314.145 56.5331 318.295 52.2838C321.522 48.9742 324.423 45.3873 327.476 41.9298C330.906 38.0517 333.895 33.8276 338.074 30.5584C338.763 28.5137 341.028 27.7165 342.191 26.014C343.493 24.1097 345.744 23.0502 347.376 21.3675C349.389 19.5433 351.537 17.8517 353.805 16.3044C355.2 15.5068 356.434 14.4927 357.454 13.3051C357.98 12.543 358.794 11.993 359.742 11.7595C361.492 11.4207 362.566 10.2388 363.934 9.43565C370.375 5.51778 377.636 2.87114 385.279 1.65569C388.502 1.17653 391.822 1.34384 394.966 0.469798C397.511 1.33016 400.132 0.459335 402.708 0.942904C405.218 1.41379 407.928 1.32597 410.241 2.2111C413.712 3.53228 417.594 4.02389 420.586 6.40827C425.443 7.77093 433.484 13.565 436.523 16.1029C439.918 19.1712 442.851 22.65 445.239 26.4407C446.687 28.3717 447.605 30.5944 447.911 32.9101C448.044 34.4678 448.667 35.9548 448.828 37.5681C449.147 38.9065 448.965 40.2952 448.311 41.5029C448.01 41.9814 448.512 42.8545 448.451 43.5258C448.37 44.7627 448.18 45.9892 447.885 47.1931C447.648 48.0854 446.56 48.7848 447.317 49.8829C446.04 50.7438 446.791 52.2076 446.231 53.2537C445.74 54.17 444.913 54.9303 444.415 55.8405C443.608 57.3219 442.963 58.8804 442.215 60.3857C441.998 60.8623 441.703 61.3036 441.34 61.6941C439.095 63.9306 438.094 66.86 436.488 69.4461C434.769 72.2103 433.402 75.1842 431.431 77.8001C430.018 79.6688 429.004 81.7541 427.779 83.6988C426.49 85.7426 424.975 87.6645 423.786 89.7647C421.172 93.9626 418.323 98.0279 415.251 101.945C411.551 107.09 407.82 112.218 404.059 117.327C397.468 126.265 390.81 135.16 384.245 144.115C382.572 146.296 381.104 148.609 379.857 151.029C379.285 152.206 378.294 153.055 377.797 154.219C377.048 155.966 376.233 157.689 375.544 159.457C375.199 160.913 374.708 162.333 374.079 163.7C372.666 165.874 372.248 168.39 371.04 170.653C369.765 173.043 370.531 175.928 372.145 178.362C372.848 179.424 373.776 180.362 374.533 181.396C377.497 185.458 381.553 186.931 386.646 186.199C388.869 185.709 391.178 185.594 393.464 185.858C394.99 184.721 396.958 186.417 398.495 185.308C401.098 185.993 403.834 185.682 406.461 186.987C408.3 188.001 410.356 188.616 412.47 188.784C418.137 188.993 423.511 190.938 428.993 192.093C432.878 193.018 436.655 194.324 440.259 195.988C442.764 197.072 445.003 198.532 447.373 199.749C449.974 201.323 452.362 203.187 454.48 205.298C459.078 209.493 462.744 214.48 465.262 219.966C467.281 223.873 468.748 227.995 469.627 232.229C469.959 233.996 469.869 235.876 470.114 237.626C470.386 239.561 469.564 241.393 469.982 243.122C470.344 244.85 470.271 246.623 469.767 248.301C468.989 251.421 467.974 254.492 466.921 257.54C465.731 260.45 464.236 263.24 462.458 265.87C460.375 269.444 457.733 272.705 454.616 275.548C454.199 276.049 453.716 276.499 453.177 276.888C450.061 278.47 446.985 280.15 443.735 281.472C438.605 283.594 433.944 286.555 429.971 290.217C429.214 290.751 428.394 291.205 427.526 291.57C427.845 292.479 428.03 293.421 428.076 294.371C428.066 295.218 428.186 296.065 428.432 296.887C428.573 297.788 428.434 298.702 428.032 299.521C427.599 300.341 428.927 301.022 428.028 301.832C427.782 302.055 428.2 302.913 428.319 303.479C428.376 304.104 428.509 304.722 428.716 305.322C429.127 306.185 427.511 306.241 428.053 307.207C428.341 307.717 428.061 308.474 428.129 309.114C428.207 309.841 428.463 310.558 428.506 311.283C428.565 312.292 427.783 313.062 427.499 313.931C427.302 314.538 428.364 315.438 428.455 316.237C428.425 317.302 428.489 318.369 428.648 319.428C428.925 320.439 429.045 322.16 426.905 322.327C426.767 322.338 426.738 323.308 426.644 323.93L428.367 323.438C428.684 324.595 430.087 325.641 428.54 326.752C429.264 327.332 428.34 327.611 428.334 327.918C428.319 328.791 430.536 329.454 428.708 330.596C429.039 331.558 429.292 332.541 429.464 333.535C429.507 333.938 428.68 334.417 428.739 334.801C428.822 335.367 429.773 335.94 428.836 336.459C427.966 336.942 429.107 337.404 428.809 337.654C428.511 337.904 427.964 337.87 427.536 337.962C427.969 340.333 427.969 340.333 430.041 341.203C429.715 341.746 429.334 342.258 428.901 342.731C428.458 343.056 427.973 343.329 427.455 343.542L429.273 344.943C427.224 349.424 427.279 349.79 430.352 351.965L430.009 354.227L428.545 354.614C430.294 355.309 430.294 355.309 431.037 357.145C431.135 357.889 429.186 356.294 429.98 357.969C430.195 358.422 430.26 358.922 430.169 359.404C430.077 359.885 429.832 360.327 429.465 360.673C429.297 360.934 429.187 361.223 429.141 361.526C429.095 361.829 429.114 362.138 429.197 362.437C429.468 363.551 429.226 365.054 431.274 365.161C431.627 365.18 432.173 365.828 431.374 366.615C430.599 367.38 430.487 368.724 430.007 370.026C430.666 369.924 431.301 369.827 432.124 369.701C431.11 371.46 430.392 372.928 431.846 374.62C432.312 375.161 431.026 375.641 431.525 376.733C432.213 378.23 431.99 380.071 432.181 381.999L433.781 382.477C433.841 382.653 433.925 382.767 433.9 382.851C433.696 384.492 433.69 386.154 433.883 387.805C434.172 389.466 434.399 391.136 434.613 392.807C435.593 400.617 437.678 408.277 438.895 416.045C439.757 421.555 440.666 427.086 441.267 432.648C441.775 437.328 442.316 442.045 443.157 446.719C443.48 449.363 443.658 452.017 443.692 454.671C443.75 455.506 443.98 456.341 444.028 457.172C444.111 458.561 444.111 459.951 444.147 461.34C444.075 462.727 444.124 464.119 444.293 465.503C444.913 468.555 444.312 471.621 444.965 474.698C445.335 476.427 444.502 478.287 444.911 480.194C445.245 481.746 444.506 483.573 445.107 484.978C445.807 486.606 445.05 488.105 445.58 489.735C446.109 491.365 445.164 493.3 445.561 495.209C445.717 495.961 444.92 496.964 444.342 497.704C443.879 498.109 443.592 498.659 443.534 499.252C443.476 499.846 443.651 500.444 444.026 500.938C444.9 503.198 445.498 505.536 445.81 507.909C444.315 508.951 445.334 510.206 445.597 511.762C444.842 511.468 444.382 511.298 443.937 511.109C443.562 510.952 443.196 510.771 442.612 510.501C442.924 512.119 444.064 512.34 445.364 512.371C444.879 512.937 444.314 513.375 444.398 513.536C444.84 514.386 444.507 514.95 444.106 515.71C443.828 516.238 444.352 517.114 444.416 517.841C444.442 518.294 444.374 518.745 444.215 519.169C443.995 519.785 442.647 520.085 443.62 521.025C444.545 521.916 442.766 522.308 443.202 522.825C444.446 524.298 442.649 524.962 442.383 526.003C442.157 526.887 441.798 528.032 440.313 528.054C440.176 528.19 440.074 528.354 440.014 528.533C439.954 528.712 439.937 528.902 439.965 529.089C440.211 529.599 440.716 530.07 440.086 530.529C438.365 531.783 437.836 533.933 436.024 535.122C435.539 535.393 435.186 535.826 435.035 536.335C434.961 537.341 434.125 537.633 433.46 537.983C432.524 538.461 431.661 539.05 430.893 539.736C430.076 540.482 429.094 540.894 428.799 542.22C428.574 543.23 426.871 543.522 426.192 544.684C424.184 547.919 421.752 550.906 418.949 553.577C416.427 556.34 413.691 558.928 410.762 561.321C408.86 562.744 407.026 564.277 405.061 565.65C401.907 567.853 398.145 569.095 394.822 570.977C390.201 573.6 385.05 574.725 379.99 576.169C375.453 577.364 370.77 578.065 366.034 578.259C363.113 578.441 360.08 577.902 357.233 578.849C357.112 578.865 356.987 578.846 356.876 578.795C354.097 577.865 351.224 578.734 348.411 578.216C345.662 577.708 342.871 577.419 340.123 576.907C339.019 576.701 337.997 576.096 336.909 575.793C335.871 575.647 334.877 575.285 334.001 574.735C333.297 574.192 332.095 574.247 331.158 573.629C330.604 573.265 329.43 573.786 328.53 573.805C327.536 573.825 326.635 573.621 326.754 572.381C324.847 571.832 323.541 570.11 321.853 569.593C318.531 568.576 316.629 565.771 313.554 564.588C312.823 562.937 310.6 562.958 309.61 561.396C308.836 560.175 307.216 559.425 306.077 558.37C304.819 557.206 303.684 555.929 302.485 554.708C302.25 554.471 301.957 554.074 301.72 554.092C299.571 554.216 298.914 552.569 297.918 551.357C296.281 549.363 294.608 547.388 293.104 545.311C290.458 541.809 288.116 538.12 286.102 534.282C284.823 531.711 282.694 529.47 281.631 526.854C280.448 523.945 278.854 521.238 277.534 518.407C275.861 514.818 274.414 511.148 272.902 507.502C271.309 503.658 270.021 499.728 268.382 495.904C267.221 493.713 266.23 491.451 265.417 489.135C264.597 485.911 262.904 483.021 261.686 479.962C260.177 476.169 258.027 472.582 256.137 468.912C254.513 465.756 252.05 463.11 249.897 460.273C248.9 459.172 248.083 457.943 247.473 456.626C246.854 455.299 245.795 454.184 244.453 453.444C241.871 451.723 239.143 450.2 236.299 448.892C235.053 448.531 233.788 448.232 232.51 447.997C231.565 447.707 229.877 448.402 229.934 446.488C229.936 446.371 229.122 446.158 228.672 446.086C226.15 445.683 223.616 445.345 221.1 444.914C219.465 444.634 217.871 445.628 216.243 444.873C214.589 446.017 212.685 444.692 210.818 445.301C209.194 445.83 207.138 445.184 205.295 445.292C202.938 445.429 200.567 446.201 198.27 445.969C195.538 445.692 193.106 446.679 190.45 446.67C188.027 446.662 185.631 447.808 183.208 447.803C180.036 447.912 176.877 448.185 173.746 448.619C173.421 448.652 173.021 448.148 172.6 447.854L171.976 448.977C169.714 448.733 167.433 448.826 165.22 449.254C164.268 449.257 163.316 449.172 162.377 449C161.48 448.989 160.578 449.266 159.689 449.225C158.656 449.063 157.602 449.129 156.614 449.418C155.652 449.726 154.616 449.807 153.601 449.652C152.569 449.481 151.514 449.572 150.547 449.916C149.63 450.277 148.989 448.363 147.918 449.642C147.168 450.536 145.98 449.52 145.237 449.842C143.464 450.609 141.611 449.951 139.807 450.21C138.567 450.362 137.315 450.433 136.06 450.421C134.823 450.429 133.565 449.742 132.35 450.463C131.895 449.292 131.263 450.382 130.721 450.341C130.179 450.3 129.602 450.493 129.043 450.474C128.386 450.434 127.732 450.347 127.087 450.214C126.831 450.167 126.446 449.876 126.368 449.943C124.593 451.474 122.321 450.18 120.346 450.728C119.34 450.859 118.322 450.916 117.302 450.899C115.864 451.057 114.384 451.582 112.81 451.07C112.026 450.906 111.212 451.018 110.525 451.382C109.448 451.82 108.222 451.861 107.094 451.495C105.375 451.151 105.412 451.448 103.488 451.547C101.656 451.644 99.9172 452.398 98.1197 452.142C96.4996 451.911 94.644 453.491 93.2086 451.562C93.1938 451.543 92.4927 451.953 92.1131 452.172C91.1328 452.728 90.0379 452.47 88.9883 452.583C88.3921 452.7 87.7711 452.685 87.1758 452.538C86.5806 452.391 86.028 452.116 85.5629 451.736L85.1667 452.688C85.0699 452.755 84.9724 452.88 84.8768 452.877C82.78 452.809 80.6837 452.702 78.5886 452.649C76.7295 452.603 74.924 451.489 72.9895 452.438C72.3564 452.748 71.7508 451.156 70.6592 452.063C70.4192 452.262 69.3392 451.594 68.6454 451.323L68.0464 452.39C65.9923 451.978 64.6169 449.617 62.1782 450.732C61.8756 449.632 62.4555 448.013 60.1638 447.829L60.7026 449.362C60.4844 449.56 60.2958 449.848 60.1724 449.823C59.3729 449.661 58.5878 449.43 57.8006 449.213C57.5668 449.125 57.3254 449.057 57.0792 449.009C56.199 450.627 54.8154 448.579 53.5407 449.416C52.3759 450.18 50.9294 448.707 49.7516 448.148C48.7078 447.68 47.6149 447.317 46.492 447.066C44.8855 446.855 43.3309 446.359 41.9134 445.605C40.6474 444.674 39.1301 445.023 38.0218 444.246C37.0476 443.303 35.7615 442.692 34.3788 442.515C32.6805 440.66 29.9327 440.378 28.0643 438.804C27.7046 438.5 27.6302 437.884 27.4135 437.386L23.8351 436.843C23.4054 435.876 23.3688 434.645 21.8797 434.434C21.1847 432.674 19.8066 434.62 18.8164 433.859C18.8308 433.586 18.7149 433.137 18.8895 432.995C19.3511 432.628 19.7773 432.441 19.1756 431.787C18.7531 431.325 18.584 431.538 18.1107 431.625C16.8683 431.857 15.3527 430.706 15.5984 430.541C17.1515 429.501 15.4088 429.115 15.1875 428.477C15.117 428.331 15.0091 428.204 14.8734 428.105C14.7377 428.006 14.5785 427.94 14.41 427.911C12.0968 428.092 11.7977 426.326 11.2085 424.992C9.52107 421.174 9.56694 421.157 9.87907 418.325C9.19977 418.174 8.50935 418.076 7.81508 418.032C7.38866 418.039 6.968 417.917 6.61785 417.683C6.26771 417.449 6.00756 417.116 5.87741 416.737C4.79989 414.517 3.84422 412.251 3.01426 409.947C2.13918 407.779 1.62587 405.507 1.49234 403.21C1.54035 399.88 0.437304 396.59 1.19041 393.233C1.90377 390.057 2.25062 386.799 2.69749 383.569C3.17343 380.13 4.78065 377.083 6.11421 373.923C6.99825 371.789 8.11634 369.749 9.4511 367.835C10.3894 366.598 10.9015 365.121 10.9217 363.593C11.0774 361.555 11.8821 359.62 13.2341 358.032C16.3018 353.766 19.8772 349.841 23.8951 346.326C25.8062 344.317 27.9209 342.483 30.2113 340.849C34.4635 338.224 39.2388 336.392 44.2778 335.454C47.3264 334.727 50.2888 333.737 53.1266 332.497C58.651 330.186 63.7979 328.981 70.6379 327.106C76.3398 325.543 82.1854 324.656 87.9507 323.478C90.983 322.857 94.0211 322.1 97.1237 321.64C100.253 321.283 103.31 320.555 106.221 319.473C107.977 318.755 110.104 318.486 111.931 317.763C115.372 316.527 118.894 315.483 122.478 314.639C126.766 313.484 131.024 312.144 135.358 311.244C139.225 310.441 142.701 308.775 146.545 307.976C150.354 307.187 154.026 305.871 157.739 304.734C161.312 303.846 164.385 301.775 166.386 298.907C167.547 297.038 169.228 295.499 171.258 294.447ZM184.573 287.269L185.011 287.818C185.208 287.667 185.567 287.527 185.574 287.361C185.638 286.052 185.892 284.49 186.463 284.118C188.714 282.658 188.262 280.355 188.158 278.395C187.832 276.54 187.269 274.723 186.481 272.982C186.239 272.43 186.082 271.849 186.016 271.259C186.016 271.018 186.866 270.846 186.267 270.345C185.872 270.016 185.435 269.731 184.406 268.983C184.968 271.129 182.262 272.073 183.911 273.947C183.94 273.98 183.395 274.674 183.126 274.66C182.976 274.633 182.821 274.645 182.678 274.694C182.536 274.744 182.413 274.829 182.321 274.941C182.229 275.053 182.174 275.187 182.159 275.328C182.145 275.469 182.174 275.612 182.241 275.74C183.063 277.603 182.163 279.394 182.197 281.238L183.737 281.711L181.925 282.949L181.84 282.549L180.01 283.788C181.098 284.248 183.29 283.535 183.688 285.746C183.172 286.143 182.806 286.682 182.643 287.289C182.479 287.896 182.526 288.54 182.776 289.13C183.433 288.452 184.007 287.86 184.573 287.269ZM450.388 232.961L453.298 229.232L452.599 228.25L451.837 228.701L448.735 223.68C448.558 223.778 448.093 224.127 448.001 224.059C447.203 223.438 446.506 222.706 445.715 222.072C443.942 220.665 442.217 219.097 439.511 219.709C440.368 221.322 442.404 222.435 441.88 224.491C442.515 224.365 443.295 224.001 443.536 224.2C444.776 225.034 445.822 226.093 446.61 227.31C447.101 228.471 447.991 229.456 449.139 230.111C450.637 230.766 450.005 231.682 450.388 232.961ZM23.5399 420.82C24.5788 421.802 25.6731 422.733 26.8179 423.609C30.4733 426.114 33.2866 429.772 38.0086 430.841C38.1893 430.88 38.2863 431.204 38.4549 431.369C39.6178 432.599 41.2302 433.386 42.9671 433.57C44.8074 433.805 46.5645 434.466 48.075 435.493C48.241 435.637 48.4364 435.748 48.649 435.82C48.8617 435.891 49.0869 435.921 49.3106 435.908C49.5342 435.895 49.7515 435.839 49.9487 435.744C50.1458 435.648 50.3187 435.516 50.4563 435.354C49.9885 434.78 49.4376 434.268 48.8197 433.832C47.8248 433.316 46.6621 433.095 45.6387 432.615C42.8042 431.291 39.7754 430.301 37.2906 428.357C36.9661 428.053 36.543 427.856 36.0896 427.799C35.2162 427.777 34.3554 427.569 33.5732 427.191C32.7911 426.814 32.1085 426.277 31.5778 425.622C29.5012 423.442 26.3633 422.529 24.8643 419.922L23.5399 420.82ZM107.664 432.905C106.755 432.298 105.908 431.537 105.736 431.65C104.543 432.433 103.394 431.737 102.254 431.647C101.039 431.654 99.8277 431.452 98.6813 431.052C97.6049 430.547 96.4704 431.967 95.6144 430.696C94.5472 431.612 93.3575 430.917 92.2304 430.808C91.0215 430.695 89.8243 430.46 88.6219 430.277C84.054 429.584 79.486 428.883 74.9155 428.207C74.4492 428.175 73.9816 428.182 73.5185 428.228C75.3903 428.762 77.0698 429.671 78.8195 430.064C82.9932 431 87.2929 431.303 91.4037 432.688C93.138 433.273 95.1451 432.871 96.945 433.04C100.522 433.264 104.106 433.219 107.662 432.905L107.664 432.905ZM395.597 521.273C395.067 521.818 394.614 522.279 394.183 522.751C393.751 523.222 393.338 523.712 392.918 524.194C391.33 523.063 391.342 523.069 390.326 524.027C389.928 524.399 389.419 524.951 388.968 524.947C387.176 524.904 388.055 526.051 387.903 526.5C389.188 526.59 390.401 526.677 391.613 526.762C392.394 528.338 393.615 527.114 394.607 527.17C395.282 527.131 395.924 526.905 396.45 526.521C396.553 526.457 396.114 525.656 395.886 525.098C396.813 524.856 397.547 524.665 398.735 524.356L397.572 526.181C399.051 527.01 398.696 525.295 399.365 525.264C400.257 525.307 401.145 525.43 402.016 525.63L402.699 521.131L404.572 520.789C401.813 520.192 401.813 520.192 400.584 521.156L401.799 521.752L399.933 523.107L400.651 524.85C398.476 524.22 398.286 522.68 397.613 521.584L395.597 521.273ZM301.868 533.651C301.754 534.08 301.575 534.357 301.662 534.488C303.106 536.646 304.467 538.862 306.076 540.913C309.502 545.073 313.422 548.866 317.759 552.218C319.598 553.96 321.736 555.405 324.083 556.49C325.22 556.924 325.093 555.975 325.662 555.946C321.215 552.933 316.559 550.142 312.919 546.282C309.119 542.24 305.612 537.953 301.868 533.651ZM449.923 206.794C448.942 204.335 446.664 203.188 444.618 201.817C442.688 200.524 440.407 199.71 438.46 198.506C436.354 197.207 434.003 196.297 431.54 195.829C429.059 195.357 426.884 193.439 424.105 194.22C424.62 194.66 425.17 195.063 425.751 195.425C426.146 195.635 426.696 195.569 427.134 195.734C428.724 196.323 430.295 196.957 431.873 197.573C433.575 198.236 435.134 199.271 437.071 199.316C440.712 201.635 445.002 202.952 448.333 205.754C448.838 206.133 449.369 206.48 449.923 206.794ZM330.628 517.416L331.061 516.907C330.408 516.423 329.827 515.86 329.337 515.232C328.921 514.521 329.091 513.467 328.58 512.872C327.677 511.625 327.026 510.239 326.66 508.784C324.525 508.015 324.192 506.024 323.215 504.471C322.453 503.252 321.732 502.002 320.897 500.825C320.649 500.478 320.073 500.325 319.646 500.088C319.971 501.285 320.983 502.068 320.412 503.281C319.987 504.181 320.909 504.223 321.356 504.655C321.728 505.015 321.416 506.32 321.669 506.394C323.066 506.81 323.127 507.915 323.587 508.868C324.041 509.977 324.675 511.018 325.467 511.955C326.308 512.833 326.094 513.764 326.241 514.658C326.851 514.535 327.44 514.416 328.395 514.222L327.972 517.013L330.628 517.416Z" fill="#E6E6E6"/>
</svg>
