<svg width="120" height="120" viewBox="0 0 120 120" fill="none" xmlns="http://www.w3.org/2000/svg">
<path d="M54.9036 12.7663C54.184 12.877 53.6799 13.034 53.1162 13.3155C51.5442 14.114 50.3068 15.7478 49.8164 17.677C49.4681 19.0432 49.5094 20.617 49.931 22.2694C50.4901 24.4617 51.5534 26.3078 53.2995 28.1217C54.7844 29.6632 56.5901 31.0109 58.9916 32.3586C59.9998 32.9263 61.1593 33.5078 61.2831 33.5078C61.4022 33.5078 62.9467 32.7094 64.0008 32.1001C64.8349 31.6201 66.2098 30.7201 66.8973 30.2032C70.4995 27.4847 72.4931 24.3186 72.9147 20.6263C72.9972 19.9386 72.9514 18.7617 72.8277 18.1247C72.3969 15.9509 71.0907 14.1278 69.3629 13.2878C67.2043 12.2355 64.867 12.7386 62.9055 14.6678C62.4059 15.1663 61.9293 15.7293 61.5764 16.2601C61.4252 16.4817 61.2877 16.6617 61.2739 16.6617C61.2556 16.6617 61.1456 16.5186 61.031 16.3432C60.4811 15.5124 59.5461 14.5017 58.8449 13.9755C57.7404 13.154 56.5443 12.7293 55.3848 12.7478C55.1831 12.7478 54.9677 12.757 54.9036 12.7663Z" fill="#202020"/>
<path d="M79.3089 23.8661C78.7086 23.9584 78.1999 24.2169 77.7461 24.6692C76.8662 25.5507 76.7012 26.8984 77.3383 27.9969C77.5353 28.343 78.0257 28.7999 78.3923 28.9938C79.4923 29.5661 80.7205 29.3861 81.5821 28.523C82.6958 27.4061 82.6683 25.6522 81.5225 24.5815C80.9313 24.023 80.0789 23.7507 79.3089 23.8661Z" fill="#202020"/>
<path d="M42.2303 23.912C41.5291 24.0689 40.8646 24.5489 40.4659 25.1812C40.2872 25.472 40.113 26.0166 40.0763 26.4227C39.9572 27.7243 40.9242 29.0027 42.2395 29.2843C43.9031 29.6397 45.5026 28.3566 45.5209 26.6535C45.5301 25.8458 45.2872 25.2412 44.7097 24.6689C44.3019 24.2627 43.9352 24.0504 43.4403 23.9304C43.1194 23.8566 42.5191 23.8474 42.2303 23.912Z" fill="#202020"/>
<path d="M86.9095 29.1635C86.4008 29.3112 86.1121 29.482 85.7225 29.8789C85.3009 30.3081 85.0992 30.6497 84.9663 31.1804C84.8563 31.6051 84.8518 31.9374 84.9434 32.3758C85.1405 33.3174 85.8509 34.1112 86.7675 34.4112C87.2441 34.5681 87.9086 34.5866 88.3348 34.4574C89.1002 34.2266 89.7281 33.7051 90.0443 33.0404C90.1451 32.8281 90.2551 32.5235 90.2872 32.362C90.3651 31.9466 90.3193 31.2451 90.191 30.8989C89.861 30.0312 89.1323 29.3712 88.2432 29.1451C87.8857 29.0528 87.2624 29.062 86.9095 29.1635Z" fill="#202020"/>
<path d="M34.2105 29.1928C33.8347 29.2944 33.546 29.4375 33.2206 29.6821C32.6615 30.0975 32.3086 30.6975 32.1848 31.4313C32.1207 31.8052 32.1207 31.8882 32.1848 32.2713C32.4736 33.979 34.1234 34.999 35.7229 34.4544C36.5662 34.1682 37.1849 33.5498 37.469 32.7005C37.7165 31.9575 37.5974 31.0298 37.1666 30.379C36.7816 29.8021 36.1812 29.3636 35.5396 29.1928C35.2096 29.1098 34.5268 29.1052 34.2105 29.1928Z" fill="#202020"/>
<path d="M28.2528 36.5815C27.0749 36.8446 26.2363 37.823 26.14 39.0553C26.0484 40.2184 26.8412 41.4184 27.9686 41.8153C28.3674 41.9584 29.1098 41.9907 29.5085 41.8846C30.0172 41.7507 30.3747 41.5476 30.7597 41.1646C31.3463 40.5876 31.6075 39.8953 31.5663 39.06C31.4884 37.6476 30.4114 36.5907 28.9861 36.5261C28.7202 36.5169 28.4636 36.5353 28.2528 36.5815Z" fill="#202020"/>
<path d="M93.1037 36.5716C92.43 36.7285 91.903 37.0516 91.5455 37.5316C91.1331 38.0808 90.9727 38.5562 90.9727 39.2024C90.9727 40.0193 91.2018 40.5824 91.7701 41.1454C92.3338 41.7085 92.9158 41.9531 93.6858 41.9531C94.749 41.9531 95.6702 41.367 96.1239 40.407C96.3302 39.9777 96.3989 39.6547 96.3989 39.1839C96.3898 38.3024 95.936 37.4393 95.2211 36.9685C94.6528 36.5947 93.7454 36.4239 93.1037 36.5716Z" fill="#202020"/>
<path d="M24.8216 49.3377C23.4375 49.5131 22.2597 50.0854 21.3064 51.0408C20.1928 52.167 19.6016 53.6024 19.6016 55.1993C19.6016 57.7054 21.1414 59.9024 23.5017 60.7562C24.6979 61.1854 26.1644 61.1854 27.3697 60.7562C28.2268 60.447 28.9142 60.0039 29.5833 59.33C30.2799 58.6285 30.7016 57.9316 30.9995 56.9993C31.2149 56.3254 31.2745 55.9239 31.2745 55.1762C31.2699 54.4239 31.192 53.9439 30.9536 53.2516C30.2754 51.2808 28.6072 49.8316 26.5265 49.4116C26.0865 49.3193 25.2386 49.287 24.8216 49.3377Z" fill="#202020"/>
<path d="M96.5851 49.3196C95.8519 49.4027 94.9627 49.6704 94.3624 49.9935C93.07 50.6904 92.0205 51.9273 91.5667 53.2981C91.3376 53.9996 91.2734 54.415 91.2734 55.1996C91.2734 55.9889 91.3376 56.3996 91.5713 57.115C92.1305 58.8042 93.5695 60.235 95.2561 60.7796C96.1956 61.0842 97.268 61.1673 98.1342 60.9966C100.586 60.5212 102.438 58.6335 102.864 56.1827C102.951 55.6704 102.951 54.7196 102.864 54.2027C102.447 51.7981 100.632 49.9196 98.2625 49.4304C97.818 49.3381 96.938 49.2827 96.5851 49.3196Z" fill="#202020"/>
<path d="M19.7521 62.8383C18.3405 63.0967 17.1672 63.9921 16.5669 65.2752C16.4065 65.6167 11.1956 80.9675 11.0902 81.4106C11.0123 81.7383 11.0535 82.2875 11.1818 82.6244C11.3881 83.1875 11.8876 83.6859 12.4605 83.9167C12.6897 84.009 12.818 84.0183 13.6429 84.0367C14.6741 84.0552 14.9262 84.0229 15.3478 83.8106C15.6594 83.6536 16.0582 83.2798 16.2323 82.9798C16.3011 82.8644 16.8877 81.1936 17.5385 79.269L18.7209 75.7613L18.7438 92.169L18.7667 108.577L18.895 108.946C19.2204 109.887 19.972 110.571 20.9207 110.797C21.3469 110.894 22.1856 110.866 22.5477 110.732C23.0472 110.557 23.2993 110.391 23.6705 110.012C24.0601 109.615 24.2526 109.287 24.4084 108.761C24.4863 108.498 24.4955 107.921 24.5184 98.1459C24.5413 88.6429 24.5459 87.7983 24.6192 87.669C24.8025 87.3321 25.1096 87.1659 25.5083 87.1936C25.7466 87.2075 25.8291 87.2352 25.9666 87.3506C26.2003 87.5398 26.3057 87.6875 26.3516 87.9044C26.3791 88.0106 26.3974 92.3167 26.3974 98.2613C26.3974 109.546 26.3745 108.655 26.7045 109.338C26.9107 109.767 27.4286 110.307 27.8502 110.529C28.6889 110.972 29.8392 110.972 30.6733 110.529C31.2462 110.224 31.7962 109.551 32.0207 108.877C32.0986 108.632 32.1032 108.009 32.1261 92.1783L32.1491 75.7383L33.3131 79.1859C33.9548 81.0875 34.5276 82.7398 34.5918 82.869C34.8439 83.3767 35.4626 83.8659 36.0217 83.9952C36.37 84.0783 37.9328 84.0598 38.2261 83.9721C38.8723 83.7783 39.3535 83.3675 39.6285 82.7675C39.766 82.4675 39.7981 82.3429 39.8164 82.0059C39.8302 81.7659 39.8164 81.5167 39.7843 81.3829C39.6973 81.0506 34.4818 65.6306 34.3535 65.3352C34.0693 64.6844 33.4323 63.9275 32.8503 63.5398C32.282 63.1613 31.622 62.9029 31.0033 62.8198C30.4396 62.7413 20.1966 62.7598 19.7521 62.8383Z" fill="#202020"/>
<path d="M91.4778 62.8198C90.0662 63.0552 88.8105 64.0013 88.2193 65.2752C88.146 65.4321 86.8902 69.1013 85.4237 73.4306C82.793 81.1936 82.7564 81.3044 82.738 81.729C82.7197 82.0567 82.7334 82.2367 82.793 82.4583C82.9351 82.9936 83.3751 83.5383 83.8563 83.7829C84.3008 84.0136 84.5116 84.0459 85.4466 84.0459C86.3723 84.0459 86.6107 84.009 87.0185 83.8106C87.2844 83.6859 87.8068 83.1736 87.9351 82.9152C87.9901 82.8136 88.563 81.1521 89.2138 79.2229L90.4008 75.7152L90.4237 92.1921L90.4466 108.669L90.5658 108.978C90.7491 109.449 90.9645 109.777 91.2945 110.091C91.8399 110.607 92.4906 110.861 93.2881 110.861C94.1084 110.861 94.7546 110.603 95.3092 110.054C95.6575 109.703 95.8546 109.394 96.0241 108.923L96.1295 108.623L96.1525 98.2383L96.1754 87.8536L96.2854 87.6598C96.6428 87.0321 97.5869 87.0321 97.9307 87.6644C98.004 87.7983 98.0086 88.4952 98.0315 98.169L98.0544 108.531L98.1781 108.904C98.4348 109.657 98.9298 110.229 99.6126 110.561C100.13 110.815 100.46 110.88 101.088 110.852C102.344 110.797 103.284 110.067 103.696 108.831C103.779 108.586 103.783 108.018 103.806 92.1829L103.829 75.7844L104.993 79.2367C105.635 81.1336 106.194 82.7583 106.24 82.8506C106.483 83.3398 107.01 83.7829 107.55 83.9536C107.807 84.0321 107.977 84.0459 108.728 84.0459C109.691 84.0459 109.97 83.9998 110.378 83.7783C111.171 83.349 111.657 82.2921 111.455 81.4244C111.377 81.0736 106.093 65.4783 105.974 65.2383C105.451 64.1859 104.544 63.3875 103.462 63.0136C102.738 62.7644 102.802 62.769 97.0507 62.7736C94.113 62.7783 91.6199 62.7967 91.4778 62.8198Z" fill="#202020"/>
</svg>
