<svg width="120" height="101" viewBox="0 0 120 101" fill="none" xmlns="http://www.w3.org/2000/svg">
<path d="M59.0163 0.539413C58.6085 0.592133 58.088 0.776642 57.7768 0.976967C57.4548 1.18256 1.42676 46.6983 0.992106 47.1042C-0.113322 48.1375 -0.322602 49.835 0.503786 51.0738C1.25505 52.202 2.65025 52.7397 3.95959 52.4076C4.19033 52.3496 4.5123 52.2336 4.67865 52.144C4.845 52.0544 5.68749 51.4165 6.54071 50.7206L8.09689 49.4607L8.12372 73.6946C8.15056 97.0798 8.15592 97.9391 8.24715 98.2185C8.55302 99.1147 9.14866 99.8053 9.91066 100.164C10.1521 100.274 10.4848 100.401 10.6458 100.438C10.8927 100.501 14.9763 100.512 35.1423 100.506C48.4557 100.506 59.6227 100.501 59.9608 100.501C60.2988 100.501 71.5195 100.506 84.8866 100.506L109.195 100.512L109.625 100.369C110.714 100.006 111.567 99.0778 111.792 98.0182C111.835 97.8179 111.851 91.0227 111.851 73.5997C111.851 60.3204 111.862 49.4554 111.878 49.4554C111.894 49.4554 112.597 50.0195 113.451 50.7101C114.298 51.3954 115.103 52.0227 115.232 52.1018C116.085 52.5921 117.282 52.6342 118.194 52.202C118.94 51.854 119.611 51.1107 119.847 50.3674C120.18 49.3447 119.96 48.1849 119.284 47.3731C118.972 47.0041 62.5043 1.12984 62.0643 0.892616C61.5116 0.592133 61.1896 0.52887 60.1754 0.513062C59.6871 0.50779 59.1666 0.518333 59.0163 0.539413ZM82.7562 25.7592L105.46 44.2101L105.466 69.2084V94.2121L82.8367 94.2331C70.3872 94.249 60.1057 94.2595 59.9876 94.2595C59.8696 94.2595 49.5987 94.249 37.1707 94.2331L14.5631 94.2121V69.2084V44.2048L37.278 25.7434C49.7651 15.5901 60.0037 7.28718 60.0198 7.29772C60.0359 7.30299 70.2692 15.6112 82.7562 25.7592Z" fill="#202020"/>
<path d="M53.8983 21.3523C52.3797 21.6686 51.0382 22.7282 50.2708 24.2201C50.0132 24.7209 49.7342 25.5538 49.6269 26.1548C49.4981 26.8823 49.5464 28.2213 49.7342 29.0648C50.4318 32.2594 52.4602 34.8952 55.9911 37.199C57.2414 38.0108 59.7528 39.3867 59.9889 39.3867C60.1284 39.3867 61.8885 38.4853 62.8866 37.9001C65.4892 36.3713 67.421 34.6738 68.6821 32.8182C70.0987 30.7306 70.7641 27.9841 70.3456 25.9703C70.0773 24.6787 69.546 23.6613 68.6874 22.7914C66.4229 20.493 63.2032 20.8146 60.8689 23.5664C60.6382 23.8405 60.3538 24.199 60.2465 24.3677C60.1338 24.5416 60.0318 24.6787 60.0157 24.6787C59.9996 24.6787 59.8279 24.4626 59.6401 24.1937C59.1947 23.5717 58.4005 22.7598 57.8317 22.3381C56.5975 21.4313 55.2077 21.0834 53.8983 21.3523Z" fill="#202020"/>
<path d="M39.0971 41.3949C37.5785 41.6585 36.1994 42.6812 35.5179 44.0519C35.1691 44.753 35.0564 45.1958 35.0242 46.0077C34.9813 47.0831 35.1906 47.8897 35.7379 48.7542C36.0331 49.2181 36.7199 49.9245 37.1438 50.2039L37.4283 50.3937L36.2853 50.4201C35.0189 50.4464 34.7666 50.4939 34.1173 50.8049C33.3875 51.1581 32.7382 51.8065 32.4109 52.5182C32.2499 52.8556 27.8872 65.4286 27.7799 65.8503C27.5814 66.6411 27.9946 67.4898 28.7726 67.8641L29.1322 68.0381H30.0713C30.9674 68.0381 31.0211 68.0328 31.3055 67.901C31.6596 67.7376 32.0567 67.3633 32.2016 67.0522C32.2606 66.9257 32.7382 65.5762 33.2695 64.0474L34.23 61.2692L34.2569 74.828C34.2783 86.0461 34.2944 88.4237 34.3588 88.5976C34.6754 89.5202 35.373 90.1106 36.3389 90.2635C37.4766 90.448 38.5873 89.8259 39.022 88.7611C39.1079 88.566 39.1132 87.8016 39.1401 79.8624C39.1669 71.1958 39.1669 71.18 39.2796 71.0376C39.6552 70.5421 40.2991 70.5316 40.6265 71.0113L40.7499 71.1905V79.6358C40.7499 85.1605 40.7714 88.1812 40.8036 88.3657C40.9431 89.0826 41.4636 89.7521 42.1022 90.0474C43.492 90.68 45.1019 90.0315 45.5365 88.6609C45.6277 88.3657 45.6331 87.7647 45.6331 74.77C45.6331 67.3053 45.6438 61.2059 45.6599 61.2218C45.676 61.2323 46.1322 62.5344 46.6795 64.1106C47.2269 65.6922 47.7366 67.0786 47.8064 67.1999C47.9781 67.4845 48.2679 67.7323 48.6382 67.901C48.9226 68.0328 48.9709 68.0381 49.8724 68.0381C50.79 68.0381 50.8168 68.0328 51.1119 67.8904C51.4393 67.7323 51.8256 67.3791 51.9705 67.105L52.0618 66.9363L52.1422 67.0944C52.1852 67.1788 53.0974 68.929 54.1707 70.9902L56.1239 74.7331L56.1508 81.9026L56.1776 89.0721L56.301 89.3409C56.8484 90.5271 58.528 90.6009 59.1773 89.4675L59.3436 89.1775L59.3705 85.9354C59.3866 84.1536 59.4188 82.6512 59.4402 82.6037C59.5529 82.3876 59.9393 82.2822 60.1754 82.4034C60.4169 82.5299 60.4169 82.5352 60.4437 85.9143L60.4705 89.1301L60.6315 89.4411C61.2325 90.6009 62.9604 90.5376 63.5131 89.3409L63.6366 89.0721L63.6634 81.9026L63.6902 74.7331L65.5093 71.2538C66.5074 69.3402 67.4465 67.5372 67.5914 67.2526L67.8597 66.7254L67.9885 66.989C68.187 67.4002 68.4554 67.669 68.8578 67.8641L69.2174 68.0381H70.1564C71.074 68.0381 71.1009 68.0328 71.4014 67.8904C71.7663 67.7165 72.1097 67.3896 72.2707 67.0628C72.3405 66.931 72.8234 65.5709 73.3547 64.0421L74.3152 61.2534L74.342 74.8491L74.3689 88.4395L74.4923 88.7347C74.7499 89.3673 75.1362 89.7838 75.7104 90.0526C76.9661 90.6325 78.4149 90.1475 79.0052 88.9403L79.1984 88.5449L79.2252 79.8624L79.2521 71.18L79.3647 71.0324C79.4238 70.9533 79.5579 70.8268 79.6599 70.7635C80.0087 70.5263 80.5936 70.7055 80.7599 71.1009C80.8243 71.2485 80.8351 72.6402 80.8351 79.7307C80.8351 88.856 80.8243 88.4131 81.1141 89.0299C81.2858 89.3937 81.7795 89.8628 82.1873 90.0474C83.4752 90.6378 84.9241 90.137 85.5197 88.9034L85.6914 88.5449L85.7183 74.8649L85.7451 61.1849L86.7325 64.0316C87.2745 65.5973 87.7628 66.9679 87.8218 67.0786C87.9935 67.416 88.3209 67.7218 88.6858 67.8852C89.0131 68.0328 89.0346 68.0381 89.9575 68.0381C90.8752 68.0381 90.902 68.0328 91.1971 67.8904C91.6049 67.6954 92.002 67.2737 92.1523 66.8783C92.4045 66.2193 92.4957 66.5303 89.9629 59.2343C88.7126 55.639 87.6072 52.534 87.4998 52.3284C87.2101 51.7749 86.5232 51.1212 85.9329 50.8365C85.2246 50.4939 84.9777 50.4464 83.7113 50.4095L82.5844 50.3779L82.8259 50.225C84.1621 49.3605 85.0207 47.779 85.0207 46.1764C85.0207 45.3961 84.7148 44.3629 84.2587 43.6196C83.9796 43.1557 83.2928 42.4756 82.7562 42.1277C81.8707 41.5584 80.9102 41.3053 79.8155 41.3528C78.9999 41.3897 78.5437 41.5056 77.8032 41.8641C76.5905 42.4545 75.6728 43.5352 75.2757 44.8426C75.0826 45.4858 75.0343 46.5559 75.1738 47.1674C75.4475 48.3905 76.1558 49.4553 77.1539 50.1459L77.5242 50.4043H76.5905C75.2596 50.4043 74.6318 50.5308 73.9235 50.942C73.4673 51.2003 72.8502 51.8382 72.6088 52.2915C72.4853 52.5235 71.6482 54.8588 70.4462 58.3223C69.3676 61.4326 68.391 64.2582 68.2675 64.5956L68.0475 65.2177L67.9026 65.0174C67.4465 64.4006 66.7489 64.2266 66.0728 64.5587C65.9386 64.6273 65.7562 64.7643 65.6703 64.8592C65.5845 64.9594 64.9352 66.1508 64.2322 67.5109C63.5239 68.8762 62.8799 70.0887 62.7994 70.21C62.6116 70.4736 62.3057 70.6317 61.8657 70.6792L61.5438 70.7161L61.9194 70.4261C62.676 69.8357 63.1053 69.0397 63.1643 68.1119C63.3038 66.0401 61.3667 64.3584 59.3114 64.7643C58.6085 64.9067 58.1362 65.1544 57.6211 65.6605C57.2991 65.9768 57.1381 66.1877 56.9879 66.4829C56.6337 67.1946 56.5479 67.9379 56.7357 68.6548C56.9503 69.4772 57.3635 70.0518 58.1416 70.6106C58.2704 70.7055 58.2704 70.7055 57.9592 70.6739C57.5674 70.637 57.3474 70.5474 57.1435 70.3471C57.0469 70.2574 56.4244 69.124 55.641 67.611C54.8844 66.1561 54.2243 64.9488 54.1224 64.8381C53.6018 64.2741 52.7057 64.2424 52.1315 64.7696L51.8739 65.0068L49.8724 59.2185C47.5542 52.5077 47.5649 52.5393 47.2912 52.1123C46.9693 51.6167 46.3736 51.0896 45.8424 50.8313C45.1394 50.4939 44.8926 50.4464 43.6262 50.4095L42.5046 50.3779L42.8159 50.1776C43.7281 49.5766 44.4686 48.5328 44.7853 47.3941C44.957 46.7773 44.9516 45.6228 44.7799 45.0008C44.5438 44.1309 44.0608 43.3244 43.3954 42.7023C42.7622 42.1013 42.129 41.7481 41.1792 41.4687C40.825 41.3633 39.5264 41.3159 39.0971 41.3949Z" fill="#202020"/>
</svg>
