<svg width="120" height="120" viewBox="0 0 120 120" fill="none" xmlns="http://www.w3.org/2000/svg">
<path d="M47.9376 15.138C45.3436 15.3688 42.5801 17.058 41.4068 19.1303C40.9073 20.0164 40.6919 20.8611 40.6919 21.9226C40.6965 23.7918 41.5673 25.5687 43.3775 27.3918C44.3216 28.3472 45.5728 29.3211 46.8423 30.0872L47.2227 30.318L43.3271 30.3318C39.6974 30.3457 39.4178 30.3549 39.1841 30.4334C38.3592 30.7103 37.8138 31.2826 37.603 32.0811C37.5021 32.4549 37.5021 69.3595 37.603 69.7334C37.7084 70.1441 37.9009 70.4857 38.1988 70.7811C38.4966 71.0857 38.7716 71.2472 39.207 71.3857C39.4728 71.4641 40.2519 71.4688 61.2741 71.4688H83.0663L83.3917 71.3672C83.9875 71.178 84.5008 70.7441 84.7574 70.218C85.0324 69.6503 85.0141 71.1595 85.0141 50.9072C85.0141 30.6549 85.0324 32.1641 84.7574 31.5964C84.5099 31.0841 84.0012 30.6503 83.4146 30.4518C83.1121 30.3457 83.0984 30.3457 79.157 30.3226L75.2019 30.2995L75.4677 30.1426C77.7317 28.7949 79.7161 26.9349 80.7335 25.2226C81.8839 23.2841 82.0168 21.1795 81.1093 19.3703C80.2615 17.6672 78.1946 16.0795 76.0085 15.438C73.4603 14.6903 70.7609 15.2718 68.3228 17.0857C65.8617 18.918 63.4511 22.1395 61.7324 25.8918C61.5308 26.3349 61.3245 26.7826 61.2787 26.8841L61.1916 27.0687L61.0908 26.838C59.8167 23.9672 58.4877 21.7426 56.8699 19.7764C56.3474 19.1395 55.1192 17.9118 54.5371 17.4457C52.4198 15.7426 50.1375 14.9441 47.9376 15.138ZM49.2804 19.7718C50.3024 19.9703 51.4024 20.658 52.571 21.8303C53.868 23.1318 55.0825 24.8857 56.1824 27.0687C56.5216 27.7426 57.2411 29.3303 57.2411 29.4134C57.2411 29.4272 57.1449 29.4134 57.0257 29.3764C56.902 29.3441 56.5078 29.2334 56.1412 29.1272C52.1036 27.9918 48.3043 25.9934 46.439 24.0318C45.9348 23.5011 45.6599 23.118 45.4353 22.6472C45.1053 21.9411 45.1878 21.4841 45.7561 20.9349C46.274 20.4364 47.2135 19.9195 47.8551 19.7764C48.2401 19.6934 48.8588 19.6934 49.2804 19.7718ZM74.4732 19.7718C75.4585 19.9841 76.7097 20.8011 77.0305 21.4426C77.1634 21.7149 77.1863 21.918 77.1084 22.218C76.6272 24.0734 73.4237 26.4641 69.1798 28.1395C67.9286 28.6334 65.2659 29.4641 65.188 29.3857C65.1468 29.3488 65.573 28.3611 66.0496 27.378C68.1395 23.1041 70.8251 20.2149 73.1487 19.758C73.4649 19.6934 74.1478 19.7026 74.4732 19.7718ZM58.9826 41.7687V48.5995H50.527H42.0714V41.7687V34.938H50.527H58.9826V41.7687ZM80.4769 41.7687V48.5995H72.0213H63.5656V41.7687V34.938H72.0213H80.4769V41.7687ZM58.9826 60.0457V66.8764H50.527H42.0714V60.0457V53.2149H50.527H58.9826V60.0457ZM80.4769 60.0457V66.8764H72.0213H63.5656V60.0457V53.2149H72.0213H80.4769V60.0457Z" fill="#202020"/>
<path d="M16.3713 68.3078C15.4272 68.4417 14.584 68.8663 13.8828 69.5586C13.2274 70.2001 12.7508 71.1093 12.5308 72.1386C12.4116 72.6924 12.4116 74.1786 12.5308 74.8386C13.1311 78.1663 15.4181 82.597 19.0753 87.5309C20.3677 89.2755 21.3072 90.4155 22.1551 91.274C22.7004 91.8232 22.7142 91.8324 23.1908 92.0309C25.4961 92.9817 32.2514 94.9109 37.0269 95.9817C37.7739 96.1478 38.3926 96.2955 38.4064 96.3047C38.4339 96.337 37.6135 97.9894 37.1323 98.8617C36.9169 99.254 36.5228 99.9417 36.2569 100.385C35.9911 100.828 35.7299 101.312 35.6703 101.456C35.3587 102.222 35.5649 103.122 36.1836 103.703C36.7382 104.225 37.4256 104.414 38.0993 104.239C38.8601 104.04 39.1442 103.754 39.9921 102.323C41.4266 99.914 42.2103 98.3217 42.6915 96.854C42.9619 96.0324 43.0489 95.5617 43.0489 94.9847C43.0489 94.5786 43.0306 94.4447 42.9298 94.1632C42.6823 93.457 42.2423 92.9355 41.6465 92.6493C41.2982 92.4832 41.1058 92.437 40.3771 92.354C39.1351 92.2155 35.8078 91.4217 31.7381 90.3047C28.7042 89.4693 25.6427 88.537 25.1569 88.3017C24.7903 88.1263 22.9708 85.8417 21.4264 83.6078C19.2586 80.4832 17.7141 77.6678 17.0267 75.5909C16.7471 74.7417 16.628 74.1232 16.6188 73.477C16.6142 72.9878 16.6234 72.9278 16.7288 72.7386C16.8342 72.554 16.8617 72.5309 17.0313 72.517C17.5537 72.4801 18.8966 73.4955 20.276 74.977C20.8856 75.6278 21.573 76.3986 21.8388 76.7263L22.0038 76.934L21.793 77.294C21.4172 77.9447 21.1835 78.8955 21.243 79.5417C21.4126 81.3693 22.6271 82.7863 25.0653 84.014C26.6189 84.7986 28.4154 85.4355 32.2193 86.5617C33.9334 87.0693 34.8408 87.374 35.2349 87.5724C35.8582 87.8909 36.399 87.9601 36.9352 87.7893C37.3202 87.6693 37.5631 87.5124 37.8472 87.2124C38.6126 86.3955 38.6126 85.1586 37.8472 84.3417C37.2973 83.7555 36.5044 83.437 33.113 82.4309C28.9791 81.2078 26.6602 80.2986 25.7252 79.537C25.6152 79.4493 25.5282 79.3617 25.5282 79.3386C25.5282 79.2647 26.0002 79.154 26.5089 79.1078C27.3064 79.0386 28.5713 79.1447 29.6987 79.3801C30.3128 79.5093 30.7528 79.634 31.486 79.8924C32.8976 80.3955 33.8005 80.534 37.7418 80.8617C42.4761 81.254 43.2002 81.3647 45.4413 82.0663C50.0655 83.5063 51.9262 84.7063 52.7466 86.7786C52.9253 87.2309 53.0445 87.7201 53.1453 88.3847C53.2553 89.1047 53.2553 90.8401 53.1453 91.8693C52.8153 94.9524 51.8254 98.9263 49.983 104.571C49.5522 105.882 49.4972 106.094 49.4972 106.376C49.4972 107.682 50.6705 108.692 51.9308 108.466C52.577 108.346 53.1499 107.931 53.4294 107.372C53.5761 107.077 54.2177 105.143 54.8364 103.126C56.6054 97.357 57.4258 93.1755 57.4258 89.9309C57.4212 84.974 55.4734 81.7986 51.1425 79.7124C49.8593 79.094 47.9161 78.3878 45.8125 77.774C43.8831 77.2063 42.5082 77.0078 38.2001 76.6617C34.8729 76.394 33.8967 76.2647 33.003 75.9555L32.4301 75.7617L32.0406 75.1847C31.5594 74.4647 30.6107 73.1863 30.1066 72.577C29.5383 71.8847 28.4109 70.777 27.8838 70.3893C26.3577 69.2724 24.5382 68.5755 22.6638 68.3955C21.6968 68.3032 20.5052 68.4278 19.6161 68.7186C19.2449 68.8386 19.2036 68.8432 19.0615 68.7832C18.1129 68.3724 17.1321 68.2017 16.3713 68.3078ZM25.2073 73.6524C25.4273 73.8001 25.8077 74.1278 26.0781 74.3955L26.5593 74.8801L26.1927 74.917L25.8306 74.9493L25.6886 74.7786C25.6152 74.6863 25.3036 74.317 25.0011 73.9617C24.2357 73.057 24.2724 73.1217 24.5657 73.2693C24.7032 73.3386 24.9919 73.5093 25.2073 73.6524Z" fill="#202020"/>
<path d="M105.086 68.3121C104.627 68.3767 104.22 68.4875 103.766 68.6675L103.321 68.8429L103.01 68.7413C102.249 68.4782 101.048 68.3259 100.209 68.3767C98.0784 68.5013 95.9839 69.309 94.3432 70.6382C93.2616 71.5152 91.7401 73.3244 90.4385 75.2767L90.1177 75.7613L89.5494 75.9552C88.6465 76.2598 87.8216 76.3752 84.6043 76.6382C80.9563 76.9382 79.4301 77.1182 78.1194 77.4044C76.8866 77.6767 74.3064 78.4982 72.7573 79.1167C68.8709 80.6629 66.6619 82.7675 65.6857 85.8552C64.7829 88.7029 64.957 92.4506 66.2494 97.869C66.9415 100.781 68.8572 107.017 69.2238 107.566C69.6729 108.24 70.4933 108.595 71.277 108.466C72.3632 108.286 73.1285 107.317 73.0414 106.241C73.0231 106.024 72.849 105.429 72.4457 104.187C69.7738 96.0229 68.848 90.8859 69.5034 87.8075C70.0396 85.2736 71.6253 83.9213 75.6904 82.5229C76.5062 82.2413 78.1515 81.7336 78.6694 81.6044C79.7601 81.3275 81.2175 81.1521 84.8106 80.8613C88.697 80.5429 89.5356 80.4136 91.2039 79.8459C92.5604 79.389 93.4724 79.2044 94.8611 79.1029C95.3423 79.0706 95.7089 79.0706 96.0481 79.1029C96.5568 79.149 97.0243 79.2644 97.0243 79.3382C97.0243 79.4213 96.3826 79.8598 95.8785 80.1182C94.5174 80.8198 92.8079 81.429 89.279 82.4767C85.4155 83.6213 84.696 83.9767 84.2835 84.9413C83.7932 86.0952 84.4073 87.4106 85.5989 87.7844C86.1717 87.9598 86.6529 87.8998 87.3679 87.549C87.8262 87.3275 88.4953 87.1059 90.5622 86.4921C94.7557 85.2459 96.6622 84.5306 98.2525 83.5982C98.9675 83.1829 99.4441 82.8182 99.962 82.2967C100.631 81.6182 100.984 81.0136 101.199 80.1782C101.433 79.2644 101.231 78.0506 100.709 77.229C100.622 77.0952 100.553 76.9613 100.553 76.9382C100.553 76.8506 101.864 75.3875 102.661 74.5844C103.862 73.3706 104.696 72.7336 105.292 72.5813C105.782 72.4521 105.92 72.6413 105.924 73.4582C105.924 74.6398 105.429 76.1675 104.375 78.2536C103.06 80.8613 100.842 84.2213 98.5779 87.0459C97.6842 88.1629 97.6155 88.2275 97.1388 88.4075C95.7044 88.9429 90.411 90.4567 86.8225 91.3567C84.4119 91.9613 82.7895 92.3029 81.8775 92.3952C81.6254 92.4229 81.3183 92.4782 81.19 92.5198C80.3605 92.8059 79.7326 93.549 79.5355 94.4767C79.2377 95.8936 80.3238 98.6444 82.7941 102.738C83.3898 103.726 83.7565 104.054 84.4531 104.238C84.7877 104.326 85.0672 104.326 85.4064 104.238C86.4696 103.957 87.1617 102.932 86.9921 101.894C86.9188 101.464 86.8683 101.354 86.2176 100.264C85.5897 99.2121 84.7235 97.6152 84.3569 96.8259L84.1094 96.2905L84.4852 96.2121C89.4532 95.1598 97.9363 92.7459 99.6137 91.9059C99.994 91.7167 100.329 91.4029 101.121 90.4844C103.335 87.9229 105.746 84.4752 107.405 81.4844C108.294 79.8875 109.146 77.9721 109.573 76.6059C110.31 74.2798 110.306 72.3136 109.568 70.8229C109.137 69.9506 108.34 69.1382 107.496 68.709C106.804 68.3629 105.833 68.2013 105.086 68.3121ZM98.1425 73.2552C97.6613 73.809 96.7493 74.8936 96.7264 74.9398C96.7218 74.9444 96.5568 74.9352 96.3551 74.9167L95.9931 74.8844L96.3597 74.4967C96.7951 74.0444 97.3726 73.5921 97.8492 73.3382C98.0371 73.2367 98.2021 73.1536 98.2113 73.1536C98.225 73.1536 98.1929 73.1998 98.1425 73.2552Z" fill="#202020"/>
</svg>
