<svg width="1687" height="762" viewBox="0 0 1687 762" fill="none" xmlns="http://www.w3.org/2000/svg">
<path d="M1139.03 638.638C1137.27 638.681 1135.54 638.228 1133.78 638.388C1133.5 638.413 1133.01 638.318 1132.95 638.161C1132.43 636.594 1130.68 636.782 1129.7 635.769C1128.83 634.871 1128.75 634.16 1129.17 633.254C1130.79 629.744 1132.21 626.154 1133.54 622.52C1133.88 621.564 1134.23 620.6 1134.48 619.616C1134.72 618.672 1135.52 618.37 1136.22 618.109C1136.98 617.826 1137.07 618.755 1137.47 619.153C1139.35 621.017 1139.41 623.541 1139.96 625.891C1140.67 628.92 1141.31 631.97 1142.12 634.973C1142.79 637.473 1142 639.039 1139.03 638.638Z" fill="#EDEAEA"/>
<path d="M1119.84 589.504C1119.89 590.792 1119.08 591.69 1117.65 591.859C1115.67 592.095 1113.69 592.368 1111.71 592.506C1109.89 592.631 1108.94 591.126 1108.03 589.948C1107.41 589.138 1107.83 587.975 1108.48 587.007C1110.62 583.769 1112.22 580.232 1113.68 576.631C1113.93 576.003 1114.2 575.426 1115 575.321C1115.87 575.208 1116.04 575.871 1116.44 576.396C1117.63 577.964 1117.89 579.851 1118.35 581.674C1119 584.253 1119.62 586.84 1119.84 589.504Z" fill="#EDEAEA"/>
<path d="M1115.68 618.335C1115.68 619.964 1116.11 621.24 1114.6 621.975C1114.25 622.15 1113.93 622.386 1113.56 622.32C1111.87 622.022 1110.23 622.118 1108.69 622.892C1107.49 623.497 1106.81 623.025 1105.92 622.133C1104.2 620.42 1104.16 619.731 1105.24 617.611C1106.97 614.222 1108.92 610.925 1109.99 607.222C1110.14 606.678 1110.33 606.15 1110.58 605.647C1111.12 604.632 1112.09 604.614 1112.84 605.473C1114.4 607.284 1114.58 609.562 1114.91 611.767C1115.27 614.092 1115.46 616.442 1115.68 618.335Z" fill="#EDEAEA"/>
<path d="M1116.83 678.397C1115.13 678.201 1113.77 677.259 1112.57 676.122C1112.14 675.709 1112.19 674.872 1112.5 674.227C1113.56 672.058 1113.97 669.651 1115.07 667.462C1115.6 666.427 1115.81 664.987 1116.19 663.744C1116.46 662.869 1116.9 661.901 1117.93 661.821C1118.97 661.741 1119.51 662.701 1119.95 663.449C1121.06 665.361 1121.43 667.56 1121.87 669.696C1122.36 672.033 1122.67 674.408 1123 676.775C1123.14 677.719 1122.52 678.317 1122.61 679.174C1122.66 679.63 1122.09 679.696 1121.54 679.542C1119.99 679.1 1118.41 678.77 1116.83 678.397Z" fill="#EDEAEA"/>
<path d="M1093.33 602.525C1093.34 604.05 1092.55 604.763 1090.9 604.461C1089.56 604.213 1088.22 604.351 1086.9 604.362C1085.28 604.374 1084.21 603.648 1083.11 602.671C1082.09 601.769 1082.04 600.723 1082.62 599.653C1084.47 596.254 1086 592.684 1087.19 588.992C1087.66 587.549 1088.62 587.462 1089.62 588.603C1090.3 589.364 1090.81 590.261 1091.12 591.235C1092.25 594.908 1092.99 598.693 1093.33 602.525V602.525Z" fill="#EDEAEA"/>
<path d="M1066.5 616.215C1065.34 616.158 1064.34 616.196 1063.33 616.023C1060.93 615.61 1060.17 614.886 1060.56 612.486C1061.06 609.419 1061.41 606.308 1062.37 603.331C1062.55 602.691 1062.81 602.079 1063.16 601.516C1063.8 600.583 1064.62 600.303 1065.55 601.232C1066.37 601.994 1067.05 602.897 1067.55 603.899C1068.89 606.815 1070.03 609.823 1070.95 612.9C1071.07 613.259 1071.11 613.642 1071.06 614.018C1071.01 614.393 1070.87 614.751 1070.65 615.063C1070.44 615.374 1070.16 615.629 1069.83 615.808C1069.5 615.987 1069.13 616.085 1068.76 616.093C1067.95 616.123 1067.15 616.181 1066.5 616.215Z" fill="#EDEAEA"/>
<path d="M1091.39 665.012C1090.35 665.235 1089.36 665.553 1088.26 665.333C1086.65 665.009 1084.83 662.554 1085.34 661.024C1086.48 657.63 1087.17 654.112 1088.2 650.692C1088.43 649.912 1088.6 649.04 1089.62 648.914C1090.64 648.787 1091.05 649.594 1091.4 650.309C1093.16 653.894 1094.32 657.713 1095.48 661.524C1095.82 662.649 1095.43 663.541 1094.3 664.188C1093.35 664.731 1092.24 664.352 1091.39 665.012Z" fill="#EDEAEA"/>
<path d="M1069.94 584.87C1070.11 587.84 1068.81 589.181 1065.87 589.759C1064.33 590.062 1063.23 589.389 1062.05 588.878C1060.67 588.282 1060.15 587.219 1060.55 585.541C1061.07 583.382 1061.99 581.401 1062.76 579.353C1063.39 577.68 1064 576.005 1064.54 574.301C1064.98 572.946 1065.52 572.994 1066.63 573.615C1068.53 574.687 1068.92 576.478 1069.2 578.33C1069.54 580.497 1069.7 582.689 1069.94 584.87Z" fill="#EDEAEA"/>
<path d="M1055.73 650.997C1055.75 649.914 1056.05 648.855 1056.61 647.932C1057.95 645.572 1058.91 643.043 1059.91 640.531C1060.73 638.492 1060.9 638.652 1062.59 639.743C1064.34 640.878 1064.78 642.564 1065.36 644.257C1065.98 646.094 1066.52 647.969 1066.97 649.86C1067.37 651.582 1067.03 651.935 1065.4 652.503C1063.9 653.025 1062.52 653.858 1060.87 653.967C1060.08 654.02 1059.73 653.768 1059.49 653.076C1059.28 652.451 1058.81 652.495 1058.31 652.705C1056.96 653.276 1055.73 652.463 1055.73 650.997Z" fill="#EDEAEA"/>
<path d="M1066.56 683.8C1064.7 683.595 1063.09 683.504 1061.51 683.223C1058.91 682.762 1057.8 680.809 1058.36 678.151C1058.92 675.503 1059.44 672.855 1060.47 670.341C1061.31 668.299 1062.29 668.034 1063.75 669.614C1064.4 670.325 1064.92 671.148 1065.29 672.044C1066.51 675.06 1067.81 678.058 1068.44 681.287C1068.78 683.036 1068.1 683.843 1066.56 683.8Z" fill="#EDEAEA"/>
<path d="M1046.13 611.339C1046.18 613.644 1045.64 614.046 1043.7 614.007C1042.6 613.985 1041.49 614.355 1040.38 614.549C1038.65 614.854 1036.03 613.315 1035.57 611.824C1035.49 611.613 1035.46 611.389 1035.47 611.165C1035.48 610.941 1035.53 610.721 1035.62 610.518C1036.96 607.424 1038.27 604.315 1039.63 601.226C1040.22 599.878 1040.9 599.768 1042 600.778C1044.49 603.048 1045 606.246 1045.85 609.276C1046 609.954 1046.09 610.645 1046.13 611.339V611.339ZM1042.32 608.61C1041.89 608.199 1042.52 607.122 1041.54 606.848C1041.2 606.752 1040.99 607.329 1041.11 607.664C1041.35 608.285 1041.13 609.204 1041.97 609.446C1042.38 609.565 1042.32 609.08 1042.32 608.609V608.61Z" fill="#EDEAEA"/>
<path d="M1028.86 639.433C1029.21 635.891 1030.33 632.557 1031.52 629.258C1032.04 627.849 1032.72 627.824 1033.9 628.763C1034.91 629.561 1035.57 630.726 1035.74 632.01C1036.21 635.037 1036.59 638.079 1036.95 641.123C1037.1 642.407 1036.3 643.063 1035.03 643.329C1033 643.753 1031.39 642.938 1029.81 641.888C1028.95 641.313 1028.96 640.341 1028.86 639.433Z" fill="#EDEAEA"/>
<path d="M1087.37 638.043C1086.82 637.997 1086.19 637.75 1085.95 637.961C1085.12 638.702 1084.1 638.193 1083.18 638.533C1082.2 638.894 1080.71 636.445 1080.83 635.222C1081 633.409 1082.55 632.262 1082.8 630.443C1083.04 628.646 1083.75 626.913 1084.29 625.161C1084.34 624.908 1084.48 624.681 1084.67 624.515C1084.87 624.349 1085.12 624.255 1085.37 624.247C1086.01 624.213 1086.35 624.505 1086.64 625.091C1088.25 628.336 1089.11 631.861 1090.34 635.246C1091.01 637.116 1089.32 637.775 1087.37 638.043Z" fill="#EDEAEA"/>
<path d="M1116 645.833C1116.42 647.735 1114.36 648.769 1112.99 648.418C1112.36 648.255 1111.84 648.04 1111.07 648.409C1110.13 648.863 1108.7 649.417 1108.45 647.394C1108.43 647.234 1108.02 647.15 1107.85 646.976C1106.77 645.897 1106.73 644.348 1107.73 643.12C1107.96 642.853 1108.15 642.546 1108.28 642.213C1109.03 639.963 1110.68 638.073 1110.84 635.588C1110.88 634.943 1111.12 634.343 1111.84 634.227C1112.57 634.111 1112.92 634.64 1113.22 635.208C1113.39 635.457 1113.55 635.723 1113.67 636.001C1114.63 639.233 1115.4 642.515 1116 645.833V645.833Z" fill="#EDEAEA"/>
<path d="M111.604 237.481C111.372 237.833 110.98 237.375 110.742 237.661C110.46 237.369 110.073 237.548 109.738 237.449C109.573 237.485 109.906 237.006 109.483 237.222C109.161 237.315 108.826 237.355 108.49 237.338L108.355 236.669L108.199 237.105L107.497 236.651L107.653 236.115C107.463 235.991 107.246 235.915 107.019 235.893C106.793 235.872 106.565 235.906 106.355 235.992L107.336 236.448L107.082 236.957C106.919 236.88 107.036 236.396 106.605 236.7L106.834 237.199C106.766 237.235 106.709 237.285 106.686 237.273C106.388 237.12 106.096 236.957 105.802 236.797C105.528 237.287 105.025 237.466 104.426 237.644L104.591 237.181C104.421 237.076 104.349 236.744 103.981 236.783L104.13 237.567C103.835 237.696 103.794 237.774 103.888 237.96C103.469 238.284 103.397 237.661 103.063 237.625L102.978 238.168C102.797 238.141 102.702 237.911 102.452 238.103C102.105 238.369 101.639 238.488 101.293 238.756C100.948 239.024 100.67 238.894 100.328 238.744L100.289 239.251C99.817 239.165 99.4506 239.467 99.0279 239.599C98.0174 239.913 97.047 240.326 96.0567 240.689C95.172 241.014 94.3072 241.39 93.4294 241.734C92.7066 242.017 91.9831 242.301 91.2499 242.558C90.254 242.906 89.2955 243.348 88.3125 243.727C87.544 244.022 86.7745 244.358 86.0089 244.683C85.7564 244.79 85.5297 245.007 85.2066 244.93C85.1647 244.926 85.1225 244.931 85.0826 244.944C85.0427 244.958 85.0061 244.979 84.9749 245.007C84.2829 245.617 83.2975 245.618 82.5588 246.128C82.5096 246.158 82.4507 246.17 82.3933 246.16C81.642 246.014 81.0929 246.499 80.4799 246.763C79.5082 247.182 78.5002 247.515 77.468 247.758C77.2467 247.792 77.0309 247.855 76.8259 247.943C76.6439 248.041 76.4509 247.969 76.2924 248.038C76.082 248.125 75.8916 248.252 75.7327 248.412C75.5242 248.639 75.3888 248.175 75.1442 248.41C74.9658 248.581 74.612 248.56 74.3684 248.685C73.9712 248.89 73.4662 248.807 73.1183 249.163C73.0462 249.236 72.8055 249.22 72.6834 249.163C72.4623 249.058 72.3806 249.024 72.2416 249.299C72.1654 249.45 71.7941 249.483 71.5465 249.522C70.7647 249.644 70.0611 250.085 69.2442 250.058C68.6104 250.49 67.8422 250.445 67.1382 250.629C66.9764 250.671 66.8185 250.733 66.6543 250.764C66.3482 250.822 66.039 250.691 65.7196 250.919C65.4952 251.082 65.0868 250.818 64.8065 251.109C64.7519 251.165 64.5109 251.113 64.4027 251.042C64.1174 250.855 64.2564 251.155 64.1925 251.188C64.0909 251.24 63.9327 251.182 63.8255 251.229C63.3517 251.448 62.8247 251.531 62.3049 251.469C61.3812 251.352 60.4988 251.696 59.5803 251.674C59.3026 251.667 59.0177 251.858 58.7373 251.652C58.2157 251.915 57.6928 251.541 57.1725 251.654C56.954 251.701 56.6945 251.875 56.5333 251.808C56.1164 251.684 55.6812 251.629 55.2458 251.646C54.8172 251.611 54.3926 251.533 53.9663 251.474C53.9094 251.466 53.8207 251.479 53.8008 251.449C53.6168 251.172 53.3209 251.337 53.119 251.267C52.6593 251.107 52.1545 251.208 51.718 250.952C51.4271 250.812 51.1604 250.628 50.9276 250.407L50.729 250.821C50.067 250.326 49.0913 250.404 48.5409 249.551H47.8713C47.7876 249.404 47.7207 249.188 47.6552 249.189C47.1951 249.191 46.8135 249.166 46.8466 248.55C46.8516 248.455 46.602 248.346 46.3002 248.112L46.5607 248.859C46.2101 248.632 45.9576 248.477 45.7183 248.307C45.4793 248.164 45.2623 247.988 45.0736 247.786C44.8823 247.538 44.5606 247.464 44.3937 247.196C44.2518 246.952 44.0795 246.726 43.8807 246.523C43.6682 246.32 43.56 246.045 43.2764 245.874C43.0877 245.761 43.051 245.404 42.9454 245.152L43.1622 244.922L43.4392 245.163C43.4144 244.979 43.4329 244.859 43.3819 244.787C43.1606 244.525 42.8722 244.326 42.5466 244.21C42.4198 244.15 42.2553 244.073 42.2106 243.964C42.1484 243.811 42.2262 243.603 42.1613 243.453C42.109 243.331 41.8303 243.258 41.8303 243.166C41.8386 242.704 41.5099 242.294 41.6317 241.823C41.2928 241.072 41.5073 240.278 41.452 239.506C41.3494 238.071 41.7625 236.718 42.2437 235.4C42.7957 233.921 43.584 232.537 44.5791 231.3C45.2712 230.426 45.9295 229.531 46.6854 228.703C47.7064 227.554 48.6484 226.341 49.505 225.069C49.7718 224.684 49.9022 224.228 50.1935 223.839C50.453 223.451 50.6491 223.025 50.7747 222.577C50.8901 222.175 50.9721 221.764 51.0199 221.349C51.0709 221.017 50.9206 220.658 51.195 220.352C51.249 220.292 51.201 220.128 51.1725 220.018C51.1394 219.888 51.0361 219.766 51.0295 219.637C50.9687 218.738 50.7 217.864 50.2439 217.083C49.7878 216.301 49.1562 215.631 48.3969 215.124C47.4937 214.488 46.5279 213.977 45.6058 213.389C44.306 212.559 42.9249 211.867 41.6341 211.027C40.6289 210.373 39.5635 209.808 38.5262 209.201C37.3625 208.52 36.1249 207.957 35.0923 207.073C34.5237 206.982 34.2218 206.468 33.7247 206.251C33.1686 206.008 32.7979 205.507 32.2872 205.177C31.7238 204.76 31.19 204.306 30.6896 203.819C30.4226 203.513 30.1048 203.254 29.7496 203.053C29.5269 202.954 29.3487 202.779 29.2489 202.56C29.089 202.153 28.7332 201.938 28.4658 201.639C27.1707 200.237 26.1789 198.591 25.5505 196.802C25.2943 196.047 25.2053 195.244 24.8479 194.522C24.9733 193.88 24.6377 193.283 24.6622 192.648C24.686 192.029 24.5539 191.382 24.6953 190.795C24.9054 189.914 24.8796 188.965 25.3903 188.16C25.5558 186.946 26.7659 184.806 27.3153 183.985C27.9907 183.059 28.7933 182.229 29.7003 181.518C30.153 181.1 30.7042 180.799 31.3046 180.641C31.7113 180.553 32.0797 180.349 32.5001 180.252C32.8413 180.127 33.2161 180.12 33.5618 180.233C33.7005 180.288 33.9113 180.135 34.0914 180.126C34.4219 180.1 34.754 180.101 35.0843 180.128C35.3299 180.152 35.5586 180.388 35.8188 180.166C36.0978 180.441 36.4549 180.208 36.7541 180.304C37.0163 180.388 37.2506 180.559 37.5114 180.645C37.9357 180.785 38.3739 180.883 38.8022 181.008C38.937 181.042 39.0656 181.097 39.1835 181.17C39.8653 181.627 40.6805 181.76 41.4292 182.052C42.2295 182.363 43.0712 182.583 43.8423 182.96C44.3934 183.231 44.9859 183.399 45.5495 183.622C46.142 183.856 46.7113 184.15 47.3146 184.359C48.5302 184.833 49.7201 185.368 50.8796 185.963C52.3895 186.663 53.8958 187.371 55.3984 188.087C58.0277 189.343 60.6484 190.616 63.281 191.865C63.9252 192.187 64.596 192.455 65.2864 192.665C65.6207 192.76 65.8851 192.967 66.2131 193.044C66.7053 193.16 67.1938 193.292 67.6893 193.393C68.0884 193.423 68.4838 193.489 68.8705 193.59C69.5024 193.85 70.1849 193.859 70.8322 194.066C71.5157 194.285 72.2482 193.996 72.8274 193.521C73.0799 193.313 73.2908 193.056 73.534 192.837C74.4896 191.978 74.7166 190.952 74.3184 189.757C74.0996 189.241 73.9763 188.692 73.9544 188.134C73.5923 187.809 73.962 187.276 73.6068 186.947C73.6836 186.298 73.4917 185.653 73.7313 184.975C73.9257 184.497 74.0059 183.982 73.9656 183.468C73.7932 182.102 74.0921 180.742 74.1774 179.385C74.2663 178.419 74.4601 177.466 74.7557 176.541C74.942 175.9 75.2382 175.31 75.4649 174.697C75.777 174.016 76.1744 173.376 76.6479 172.791C77.573 171.535 78.7452 170.474 80.0953 169.67C81.0479 169.044 82.0797 168.542 83.1645 168.177C83.6186 168.033 84.1197 167.986 84.5728 167.864C85.0739 167.728 85.5915 167.859 86.0321 167.695C86.4747 167.546 86.9467 167.499 87.4109 167.558C88.2675 167.631 89.1208 167.763 89.9694 167.905C90.7872 168.084 91.5853 168.341 92.3524 168.672C93.3816 169.042 94.3503 169.557 95.2276 170.201C95.377 170.283 95.5155 170.382 95.64 170.497C96.1835 171.187 96.7515 171.864 97.2317 172.595C97.9992 173.748 98.9697 174.759 100.098 175.578C100.27 175.741 100.423 175.921 100.554 176.116C100.782 176.006 101.024 175.927 101.273 175.882C101.498 175.853 101.717 175.794 101.924 175.705C102.157 175.638 102.404 175.638 102.637 175.705C102.872 175.779 102.998 175.436 103.249 175.622C103.318 175.673 103.528 175.541 103.673 175.492C103.836 175.455 103.994 175.401 104.145 175.329C104.356 175.2 104.436 175.585 104.67 175.42C104.793 175.332 105.005 175.372 105.171 175.332C105.361 175.287 105.54 175.2 105.73 175.163C105.995 175.112 106.23 175.272 106.471 175.308C106.639 175.333 106.835 175.046 107.043 174.995C107.326 174.963 107.605 174.909 107.879 174.832C108.135 174.729 108.586 174.638 108.716 175.145C108.725 175.177 108.982 175.149 109.151 175.149L108.951 174.754C109.245 174.636 109.465 174.261 109.821 174.592C109.946 174.397 110.056 174.608 110.138 174.599C110.37 174.57 110.456 174.014 110.831 174.411C111.073 174.297 111.322 174.201 111.579 174.123C111.684 174.098 111.843 174.279 111.943 174.251C112.089 174.21 112.202 173.961 112.377 174.167C112.54 174.358 112.617 174.068 112.695 174.13C112.773 174.193 112.786 174.325 112.827 174.424C113.437 174.234 113.437 174.234 113.584 173.706C113.741 173.764 113.892 173.837 114.034 173.923C114.138 174.018 114.229 174.124 114.307 174.241L114.604 173.754C115.872 174.082 115.967 174.056 116.419 173.239H117.031L117.192 173.576C117.306 173.131 117.306 173.131 117.762 172.886C117.955 172.836 117.611 173.361 118.022 173.11C118.133 173.042 118.263 173.008 118.394 173.012C118.525 173.017 118.652 173.06 118.758 173.135C118.834 173.166 118.915 173.182 118.997 173.182C119.079 173.182 119.16 173.166 119.235 173.135C119.519 173.03 119.927 173.033 119.873 172.538C119.864 172.452 120.013 172.298 120.254 172.461C120.487 172.619 120.847 172.597 121.211 172.665C121.157 172.51 121.106 172.361 121.04 172.169C121.546 172.348 121.963 172.467 122.352 172.056C122.477 171.925 122.655 172.216 122.924 172.056C123.293 171.837 123.789 171.823 124.291 171.707L124.353 171.306C124.397 171.285 124.424 171.261 124.447 171.264C124.89 171.253 125.33 171.194 125.759 171.088C126.187 170.958 126.619 170.843 127.053 170.731C129.08 170.211 131.023 169.432 133.029 168.858C134.452 168.45 135.879 168.031 137.326 167.684C138.544 167.392 139.77 167.09 140.973 166.719C141.659 166.545 142.354 166.405 143.055 166.301C143.274 166.256 143.485 166.171 143.703 166.129C144.067 166.059 144.435 166.008 144.801 165.949C145.171 165.916 145.537 165.853 145.897 165.762C146.679 165.503 147.515 165.535 148.302 165.266C148.745 165.115 149.27 165.247 149.759 165.079C150.156 164.943 150.669 165.053 151.016 164.858C151.419 164.631 151.846 164.758 152.256 164.572C152.666 164.385 153.216 164.541 153.705 164.377C153.897 164.312 154.195 164.467 154.414 164.578C154.54 164.675 154.696 164.723 154.856 164.716C155.015 164.708 155.166 164.645 155.282 164.537C155.845 164.245 156.439 164.016 157.055 163.855C157.39 164.176 157.681 163.885 158.083 163.766C158.035 163.957 158.008 164.074 157.976 164.188C157.95 164.283 157.917 164.378 157.869 164.527C158.284 164.394 158.297 164.112 158.253 163.799C158.422 163.895 158.561 164.015 158.6 163.989C158.807 163.852 158.97 163.911 159.187 163.98C159.338 164.027 159.549 163.87 159.738 163.828C159.857 163.805 159.979 163.805 160.098 163.828C160.269 163.858 160.403 164.17 160.613 163.903C160.811 163.648 160.986 164.061 161.105 163.937C161.445 163.585 161.693 163.992 161.979 164.018C162.222 164.04 162.54 164.085 162.605 164.44C162.646 164.468 162.694 164.486 162.744 164.494C162.793 164.502 162.844 164.499 162.893 164.486C163.018 164.408 163.122 164.27 163.269 164.404C163.67 164.772 164.26 164.82 164.647 165.211C164.738 165.318 164.867 165.387 165.008 165.405C165.277 165.386 165.388 165.576 165.507 165.722C165.671 165.93 165.861 166.115 166.074 166.274C166.304 166.443 166.452 166.664 166.815 166.686C167.091 166.703 167.237 167.101 167.571 167.222C168.508 167.586 169.396 168.06 170.215 168.636C171.047 169.14 171.842 169.702 172.592 170.317C173.045 170.722 173.524 171.106 173.967 171.527C174.676 172.204 175.156 173.061 175.787 173.789C176.666 174.802 177.171 175.997 177.756 177.158C178.254 178.203 178.628 179.301 178.869 180.429C179.035 181.123 179.014 181.871 179.379 182.519C179.388 182.548 179.388 182.578 179.379 182.607C179.244 183.307 179.59 183.965 179.565 184.658C179.542 185.336 179.577 186.016 179.552 186.694C179.542 186.966 179.423 187.233 179.386 187.505C179.389 187.76 179.333 188.011 179.223 188.241C179.108 188.43 179.171 188.716 179.045 188.964C178.971 189.11 179.156 189.372 179.197 189.587C179.242 189.825 179.224 190.049 178.891 190.065C178.823 190.543 178.42 190.919 178.35 191.342C178.215 192.176 177.549 192.735 177.359 193.515C176.952 193.751 177.047 194.283 176.673 194.577C176.381 194.808 176.248 195.223 176.015 195.535C175.757 195.879 175.465 196.198 175.19 196.53C175.137 196.595 175.044 196.68 175.058 196.736C175.177 197.247 174.768 197.464 174.487 197.747C174.025 198.213 173.57 198.686 173.081 199.122C172.26 199.884 171.379 200.58 170.444 201.203C169.815 201.603 169.308 202.196 168.658 202.546C167.936 202.936 167.284 203.416 166.588 203.836C165.706 204.368 164.793 204.849 163.889 205.344C162.936 205.866 161.948 206.318 161.002 206.851C160.469 207.209 159.91 207.529 159.33 207.808C158.51 208.122 157.814 208.634 157.053 209.037C156.11 209.537 155.248 210.183 154.353 210.77C153.583 211.275 152.982 211.962 152.318 212.582C152.066 212.861 151.774 213.102 151.45 213.296C151.124 213.493 150.871 213.787 150.73 214.136C150.378 214.818 150.085 215.528 149.853 216.258C149.807 216.57 149.779 216.884 149.768 217.199C149.729 217.436 149.981 217.816 149.472 217.872C149.441 217.875 149.418 218.079 149.417 218.189C149.411 218.809 149.424 219.429 149.411 220.048C149.402 220.45 149.729 220.797 149.595 221.214C149.964 221.57 149.69 222.075 149.926 222.5C150.131 222.871 150.043 223.387 150.145 223.825C150.276 224.386 150.575 224.926 150.606 225.486C150.643 226.151 151.001 226.699 151.106 227.336C151.201 227.917 151.6 228.45 151.696 229.032C151.852 229.789 152.051 230.536 152.292 231.272C152.314 231.349 152.197 231.463 152.136 231.575L152.458 231.683C152.484 232.235 152.6 232.778 152.802 233.294C152.841 233.522 152.857 233.754 152.849 233.985C152.882 234.2 152.992 234.407 153.017 234.621C153.015 234.875 153.075 235.125 153.191 235.352C153.311 235.572 153.374 235.817 153.374 236.066C153.37 236.32 153.437 236.57 153.566 236.789C153.699 236.996 153.218 237.219 153.6 237.43C153.866 237.577 153.645 237.899 153.76 238.066C154.034 238.463 153.934 238.931 154.075 239.355C154.166 239.647 154.234 239.944 154.282 240.246C154.334 240.542 154.202 240.869 154.442 241.134C154.15 241.286 154.464 241.398 154.475 241.529C154.486 241.661 154.56 241.792 154.578 241.927C154.593 242.086 154.597 242.246 154.587 242.406C154.585 242.469 154.524 242.572 154.544 242.588C155.021 242.958 154.77 243.55 154.994 244.004C155.069 244.24 155.125 244.482 155.161 244.728C155.261 245.067 155.459 245.403 155.387 245.799C155.375 245.993 155.437 246.184 155.561 246.336C155.72 246.578 155.78 246.871 155.729 247.154C155.707 247.579 155.784 247.56 155.887 248.018C155.987 248.454 156.256 248.843 156.26 249.284C156.264 249.681 156.757 250.068 156.304 250.483C156.3 250.487 156.436 250.64 156.509 250.723C156.696 250.938 156.672 251.21 156.743 251.458C156.799 251.597 156.819 251.746 156.804 251.894C156.789 252.042 156.739 252.185 156.657 252.31L156.925 252.371C156.946 252.392 156.983 252.41 156.986 252.433C157.053 252.939 157.109 253.446 157.179 253.95C157.241 254.398 157.019 254.871 157.348 255.301C157.455 255.441 157.058 255.644 157.342 255.873C157.404 255.924 157.271 256.207 157.227 256.383L157.533 256.488C157.507 256.996 156.937 257.412 157.33 257.956C157.051 258.069 156.6 257.989 156.643 258.545L157.027 258.36C157.088 258.405 157.172 258.44 157.17 258.47C157.16 258.668 157.13 258.865 157.104 259.061C157.09 259.121 157.082 259.181 157.079 259.242C157.542 259.394 157.056 259.801 157.329 260.076C157.578 260.327 157.246 260.728 157.146 261.031C157.064 261.298 157.011 261.574 156.99 261.852C156.999 262.245 156.93 262.636 156.787 263.004C156.592 263.341 156.745 263.692 156.584 263.986C156.374 264.254 156.264 264.585 156.273 264.923C155.85 265.398 155.886 266.068 155.544 266.573C155.478 266.67 155.318 266.711 155.195 266.781V267.659C154.957 267.797 154.633 267.851 154.636 268.216C154.199 268.446 154.769 268.706 154.607 268.971C154.535 268.978 154.42 269.022 154.376 268.985C154.26 268.888 154.194 268.792 154.045 268.961C153.939 269.079 154.003 269.111 154.045 269.222C154.156 269.511 153.912 269.917 153.859 269.864C153.521 269.529 153.489 269.961 153.329 270.038C153.293 270.06 153.264 270.09 153.243 270.127C153.223 270.163 153.211 270.203 153.211 270.245C153.351 270.793 152.896 270.929 152.567 271.119C151.625 271.663 151.618 271.652 150.856 271.68C150.844 271.849 150.846 272.018 150.862 272.186C150.881 272.288 150.865 272.394 150.818 272.486C150.77 272.579 150.692 272.653 150.597 272.698C150.053 273.037 149.492 273.349 148.916 273.632C148.377 273.921 147.797 274.127 147.194 274.242C146.311 274.352 145.485 274.736 144.567 274.678C143.698 274.622 142.822 274.658 141.95 274.668C141.021 274.679 140.15 274.405 139.261 274.2C138.661 274.065 138.076 273.872 137.516 273.621C137.151 273.441 136.74 273.372 136.335 273.423C135.789 273.46 135.245 273.337 134.771 273.071C133.519 272.49 132.337 271.775 131.246 270.939C130.637 270.554 130.067 270.114 129.543 269.624C128.678 268.699 128.001 267.621 127.551 266.446C127.236 265.741 126.856 265.067 126.413 264.431C125.58 263.19 125.055 261.999 124.284 260.427C123.642 259.116 123.172 257.746 122.629 256.406C122.343 255.702 122.021 255 121.775 254.273C121.555 253.535 121.239 252.829 120.836 252.17C120.576 251.775 120.419 251.274 120.155 250.862C119.689 250.082 119.272 249.275 118.904 248.446C118.427 247.46 117.901 246.487 117.489 245.48C117.121 244.582 116.541 243.809 116.176 242.916C115.814 242.031 115.318 241.198 114.869 240.349C114.49 239.524 113.819 238.862 112.98 238.487C112.439 238.276 111.964 237.929 111.604 237.481V237.481ZM109.17 234.548L109.298 234.423C109.25 234.381 109.199 234.3 109.155 234.305C108.806 234.337 108.382 234.333 108.261 234.209C107.784 233.723 107.193 233.915 106.679 234.011C106.201 234.157 105.743 234.358 105.314 234.61C105.178 234.689 105.03 234.747 104.877 234.785C104.813 234.793 104.734 234.596 104.625 234.758C104.554 234.865 104.496 234.98 104.339 235.254C104.885 235.041 105.243 235.656 105.673 235.192C105.68 235.184 105.886 235.289 105.893 235.354C105.892 235.391 105.901 235.428 105.92 235.46C105.939 235.493 105.966 235.519 105.999 235.537C106.033 235.555 106.07 235.563 106.108 235.562C106.146 235.56 106.183 235.548 106.214 235.527C106.674 235.262 107.184 235.413 107.67 235.338L107.734 234.951L108.134 235.34L108.032 235.375L108.433 235.769C108.511 235.492 108.234 234.992 108.803 234.816C108.929 234.925 109.086 234.993 109.253 235.01C109.421 235.028 109.589 234.993 109.735 234.911C109.529 234.779 109.349 234.662 109.17 234.548ZM84.1306 172.765L83.0271 172.203L82.7954 172.406L82.9454 172.573L81.7416 173.5C81.7747 173.539 81.8856 173.637 81.8714 173.662C81.739 173.876 81.5735 174.07 81.4374 174.283C81.1363 174.759 80.7907 175.23 81.0614 175.857C81.4537 175.592 81.6665 175.064 82.2315 175.114C82.1725 174.966 82.0448 174.793 82.0878 174.728C82.2588 174.4 82.4969 174.11 82.7872 173.877C83.0746 173.717 83.2995 173.468 83.4266 173.168C83.5398 172.785 83.8076 172.904 84.1306 172.765ZM150.968 268.313C151.186 268.028 151.389 267.732 151.574 267.425C152.09 266.457 152.945 265.649 153.038 264.478C153.041 264.433 153.123 264.398 153.16 264.351C153.439 264.028 153.582 263.612 153.561 263.189C153.549 262.739 153.654 262.293 153.865 261.894C153.896 261.849 153.918 261.798 153.928 261.744C153.939 261.69 153.938 261.635 153.925 261.582C153.913 261.529 153.889 261.479 153.856 261.435C153.823 261.391 153.781 261.355 153.733 261.328C153.599 261.461 153.486 261.611 153.396 261.776C153.299 262.033 153.287 262.32 153.201 262.583C152.965 263.311 152.824 264.073 152.41 264.74C152.342 264.829 152.308 264.938 152.311 265.049C152.34 265.259 152.319 265.473 152.251 265.674C152.182 265.876 152.068 266.059 151.916 266.21C151.422 266.788 151.307 267.573 150.677 268.028L150.968 268.313ZM150.788 247.695C150.664 247.935 150.496 248.166 150.533 248.203C150.788 248.46 150.65 248.761 150.672 249.038C150.723 249.329 150.718 249.627 150.658 249.917C150.568 250.193 150.989 250.414 150.687 250.665C150.972 250.888 150.836 251.199 150.853 251.473C150.871 251.767 150.857 252.063 150.857 252.358C150.857 253.479 150.855 254.6 150.86 255.721C150.87 255.834 150.891 255.946 150.921 256.055C150.987 255.587 151.161 255.151 151.194 254.717C151.274 253.682 151.182 252.639 151.383 251.603C151.468 251.165 151.281 250.699 151.254 250.261C151.169 249.395 151.014 248.536 150.788 247.695V247.695ZM162.606 175.413C162.772 175.52 162.912 175.612 163.054 175.698C163.196 175.785 163.342 175.866 163.487 175.949C163.251 176.371 163.252 176.368 163.546 176.577C163.661 176.659 163.827 176.761 163.844 176.869C163.905 177.3 164.173 177.048 164.298 177.068C164.27 176.756 164.244 176.462 164.218 176.169C164.604 175.924 164.231 175.675 164.206 175.436C164.169 175.275 164.083 175.129 163.96 175.017C163.939 174.995 163.745 175.129 163.607 175.204C163.505 174.991 163.425 174.821 163.296 174.548L163.825 174.76C163.985 174.375 163.546 174.523 163.511 174.364C163.486 174.148 163.483 173.931 163.501 173.714H162.283L162.118 173.278C162.071 173.961 162.071 173.961 162.375 174.221L162.484 173.908L162.917 174.306L163.349 174.07C163.27 174.615 162.871 174.717 162.607 174.918L162.606 175.413ZM169.644 197.444C169.762 197.456 169.843 197.489 169.874 197.463C170.387 197.038 170.918 196.631 171.396 196.171C172.359 195.198 173.206 194.119 173.918 192.957C174.305 192.452 174.601 191.887 174.794 191.285C174.864 190.996 174.618 191.061 174.587 190.926C173.969 192.102 173.417 193.32 172.542 194.334C171.625 195.393 170.632 196.39 169.644 197.444ZM77.2264 173.829C76.6154 174.154 76.4033 174.742 76.1229 175.283C75.8582 175.793 75.7344 176.37 75.4941 176.88C75.2349 177.433 75.0887 178.03 75.0638 178.638C75.0383 179.25 74.6183 179.842 74.9364 180.48C75.0323 180.34 75.1168 180.194 75.1892 180.041C75.229 179.939 75.1892 179.809 75.2154 179.698C75.3074 179.295 75.412 178.895 75.5116 178.494C75.6188 178.062 75.83 177.65 75.7641 177.184C76.2315 176.226 76.4076 175.15 77.0152 174.248C77.0952 174.114 77.1657 173.974 77.2264 173.829V173.829ZM164.194 191.137L164.042 191.052C163.94 191.226 163.815 191.386 163.668 191.526C163.497 191.652 163.211 191.649 163.074 191.794C162.781 192.056 162.44 192.262 162.07 192.403C161.952 192.943 161.439 193.095 161.067 193.386C160.775 193.613 160.474 193.832 160.196 194.075C160.114 194.147 160.096 194.291 160.051 194.402C160.354 194.28 160.521 194.009 160.865 194.102C161.12 194.171 161.094 193.948 161.191 193.825C161.271 193.723 161.628 193.75 161.638 193.687C161.692 193.337 161.982 193.282 162.216 193.137C162.491 192.988 162.741 192.798 162.957 192.574C163.155 192.34 163.41 192.357 163.641 192.29C163.584 192.148 163.529 192.011 163.439 191.789H164.194V191.137Z" fill="#EDEAEA"/>
<path d="M1576.66 600.249C1577.59 601.615 1579.03 601.604 1580.13 602.239C1580.77 602.608 1581.76 603.449 1581.39 603.759C1578.78 605.949 1580.03 610.663 1576.14 611.919C1560.36 617.019 1546.67 626.688 1531.45 633.002C1530.38 633.446 1529.34 633.96 1528.27 634.416C1522.12 637.051 1522.11 637.049 1521.04 630.646C1519.93 624.058 1520.1 623.517 1526.05 619.844C1538.39 612.213 1550.78 604.65 1563.53 597.742C1567.51 595.587 1571.68 593.839 1576.38 594.766C1577.65 594.997 1578.88 595.41 1580.04 595.994C1581.02 596.517 1582.21 597.357 1581.85 598.688C1581.47 600.07 1580.19 599.346 1579.25 599.316C1578.39 599.284 1577.51 599.189 1576.66 600.249Z" fill="#EDEAEA"/>
<path d="M1547.13 542.023C1544.86 547.293 1540.77 550.989 1536.48 554.506C1527.16 562.144 1516.7 568.214 1507.59 576.149C1505.83 577.684 1504.85 577.302 1503.86 574.933C1500.98 568.05 1504.9 563.847 1509.33 560.008C1518.21 552.304 1527.31 544.853 1536.28 537.25C1538.6 535.28 1540.8 533.157 1543.02 531.058C1544.3 529.844 1545.65 530.086 1547.02 530.721C1548.45 531.376 1548.48 532.452 1548.33 533.975C1548.06 536.685 1548.17 539.428 1547.13 542.023Z" fill="#EDEAEA"/>
<path d="M1468 506.302C1470.02 500.649 1472.02 494.99 1474.09 489.354C1474.75 487.56 1475.44 485.666 1477.93 485.951C1480.21 486.21 1479.69 488.195 1480.19 489.614C1481.17 492.348 1481.09 495.095 1480.55 497.852C1478.21 509.845 1474.88 521.484 1468.59 532.063C1467.91 533.208 1467.47 534.526 1465.91 534.575C1464.15 534.63 1464.28 532.95 1463.57 531.953C1460.25 527.298 1461.85 522.845 1463.65 518.261C1465.2 514.317 1466.54 510.285 1467.97 506.292L1468 506.302Z" fill="#EDEAEA"/>
<path d="M1050.01 202.406C1045.67 201.906 1041 201.213 1036.3 200.915C1034.66 200.811 1033.1 201.262 1032.22 199.452C1032.04 199.079 1031.76 198.535 1031.9 198.267C1034.36 193.743 1034.59 188.615 1036.07 183.835C1037.07 180.633 1038.61 177.671 1041.56 175.716C1042.15 175.326 1043.04 175.382 1043.8 175.233C1043.93 175.963 1044.29 176.746 1044.14 177.416C1043.02 182.286 1041.85 187.144 1040.59 191.979C1040.2 193.496 1040.79 193.791 1042.16 194.014C1045.31 194.529 1048.42 195.288 1051.57 195.84C1052.91 196.075 1054.31 196.045 1055.68 196.121C1055.79 196.128 1055.93 195.956 1056.03 195.979C1057.05 196.22 1058.88 196.374 1058.94 196.76C1059.08 197.965 1058.82 199.183 1058.21 200.237C1056.35 203.28 1053.15 202.225 1050.01 202.406Z" fill="#EDEAEA"/>
<path d="M1043.13 192.771C1047.01 190.756 1051.1 189.332 1055.07 187.548C1063.49 183.752 1071.27 178.878 1079.13 174.098C1090.13 167.411 1098.88 158.787 1108.28 150.725C1117.3 142.993 1126.88 135.988 1137.67 130.306C1142.88 127.593 1148.37 125.524 1153.92 124.184C1159.91 122.688 1165.9 121.306 1171.88 120.19C1179.42 118.783 1186.63 115.875 1193.64 112.232C1199.41 109.26 1205.05 106.034 1210.52 102.572C1214.77 99.8596 1218.3 96.5611 1221.4 92.9508C1223.45 90.578 1225.83 88.378 1228.47 86.4212C1229.07 85.971 1229.74 85.6123 1230.44 85.3714C1231.07 85.1603 1232.04 84.6263 1231.39 85.8578C1231.28 86.0609 1231.65 86.0214 1231.72 86.1265C1232.1 86.6811 1231.95 87.2852 1231.11 87.7748C1228.2 89.4847 1226.11 91.8082 1224.08 94.1237C1221.62 96.9344 1219.38 99.8628 1216.5 102.445C1213.58 105.058 1210.63 107.626 1207.02 109.61C1204.56 111.01 1202.18 112.529 1199.89 114.158C1198.42 115.17 1196.76 115.807 1195.22 116.594C1194.19 117.118 1193.5 117.882 1192.53 118.356C1191.28 118.959 1190.06 119.642 1188.82 120.28C1185.38 122.056 1181.82 123.419 1178.24 124.772C1171.86 127.183 1165.43 127.917 1159.03 129.752C1154.23 131.129 1149.38 132.233 1144.65 133.993C1141.88 135.02 1139.19 136.513 1136.57 137.984C1125.47 144.226 1115.81 151.957 1106.74 160.254C1103.7 163.034 1100.64 165.821 1097.48 168.484C1094.91 170.672 1092.23 172.767 1089.45 174.758C1085.97 177.221 1082.47 179.656 1078.84 181.907C1069.35 187.793 1059.52 192.978 1048.95 196.451C1048.29 196.62 1047.63 196.825 1046.98 197.064C1044.25 198.271 1042.4 197.494 1040.6 196.587C1039.9 196.235 1040.29 194.43 1041.16 193.887C1041.8 193.488 1042.47 193.14 1043.13 192.771ZM1060.88 186.37C1055.14 189.266 1049.11 191.351 1043.33 194.143C1049.92 191.883 1058.89 187.894 1060.88 186.37V186.37ZM1065.74 188.901L1065.8 189.014L1076.01 183.256L1075.95 183.146L1065.74 188.901Z" fill="#EDEAEA"/>
<path d="M250.043 532.585C247.333 532.627 244.661 532.198 241.938 532.349C241.508 532.373 240.74 532.283 240.659 532.135C239.848 530.653 237.142 530.831 235.624 529.873C234.28 529.024 234.158 528.352 234.807 527.495C237.31 524.176 239.512 520.782 241.556 517.347C242.094 516.443 242.623 515.532 243.017 514.601C243.394 513.709 244.628 513.424 245.705 513.177C246.873 512.909 247.011 513.788 247.631 514.164C250.544 515.926 250.63 518.312 251.483 520.534C252.581 523.398 253.57 526.281 254.816 529.121C255.853 531.484 254.636 532.964 250.043 532.585Z" fill="#EDEAEA"/>
<path d="M220.384 486.13C220.468 487.348 219.212 488.197 217.012 488.357C213.95 488.58 210.89 488.838 207.817 488.968C205.012 489.087 203.539 487.664 202.139 486.55C201.176 485.784 201.833 484.685 202.825 483.77C206.145 480.707 208.61 477.364 210.868 473.959C211.261 473.366 211.674 472.82 212.909 472.721C214.249 472.614 214.515 473.241 215.133 473.737C216.981 475.219 217.38 477.003 218.09 478.727C219.093 481.165 220.046 483.612 220.384 486.13Z" fill="#EDEAEA"/>
<path d="M213.955 513.389C213.955 514.929 214.625 516.136 212.298 516.83C211.746 516.995 211.257 517.219 210.678 517.156C208.076 516.875 205.535 516.965 203.159 517.697C201.3 518.269 200.255 517.823 198.876 516.979C196.227 515.36 196.163 514.709 197.829 512.704C200.495 509.5 203.518 506.383 205.175 502.882C205.394 502.367 205.698 501.869 206.082 501.393C206.912 500.434 208.418 500.416 209.567 501.228C211.989 502.941 212.264 505.094 212.777 507.179C213.321 509.378 213.625 511.599 213.955 513.389Z" fill="#EDEAEA"/>
<path d="M215.747 570.176C213.116 569.991 211.006 569.1 209.163 568.025C208.496 567.635 208.567 566.844 209.054 566.233C210.687 564.183 211.325 561.908 213.029 559.837C213.833 558.859 214.17 557.497 214.76 556.322C215.176 555.495 215.844 554.58 217.444 554.504C219.045 554.429 219.884 555.336 220.558 556.044C222.281 557.851 222.858 559.93 223.539 561.95C224.283 564.16 224.762 566.405 225.285 568.642C225.494 569.536 224.529 570.101 224.67 570.911C224.745 571.342 223.864 571.405 223.027 571.259C220.626 570.841 218.177 570.529 215.747 570.176Z" fill="#EDEAEA"/>
<path d="M179.425 498.441C179.431 499.884 178.218 500.558 175.675 500.272C173.591 500.038 171.519 500.168 169.486 500.178C166.974 500.189 165.324 499.504 163.621 498.579C162.05 497.727 161.971 496.738 162.871 495.727C165.733 492.513 168.098 489.138 169.936 485.647C170.654 484.283 172.141 484.2 173.691 485.279C174.737 485.999 175.527 486.847 176.01 487.768C177.757 491.24 178.901 494.818 179.425 498.441V498.441Z" fill="#EDEAEA"/>
<path d="M137.955 511.384C136.162 511.331 134.621 511.366 133.063 511.202C129.354 510.812 128.178 510.128 128.784 507.859C129.557 504.959 130.101 502.018 131.581 499.203C131.849 498.597 132.258 498.019 132.795 497.487C133.794 496.605 135.049 496.34 136.491 497.218C137.755 497.939 138.802 498.793 139.587 499.74C141.655 502.497 143.411 505.341 144.84 508.25C145.028 508.589 145.084 508.951 145.003 509.307C144.923 509.662 144.709 510 144.378 510.295C144.047 510.589 143.609 510.83 143.1 511C142.591 511.169 142.024 511.261 141.446 511.269C140.202 511.297 138.959 511.352 137.955 511.384Z" fill="#EDEAEA"/>
<path d="M176.425 557.52C174.813 557.73 173.291 558.031 171.594 557.823C169.092 557.517 166.286 555.196 167.078 553.75C168.836 550.54 169.896 547.215 171.492 543.981C171.855 543.243 172.111 542.419 173.683 542.3C175.264 542.18 175.902 542.943 176.443 543.619C179.165 547.008 180.952 550.619 182.741 554.222C183.27 555.286 182.667 556.129 180.92 556.741C179.455 557.254 177.738 556.896 176.425 557.52Z" fill="#EDEAEA"/>
<path d="M143.278 481.751C143.533 484.559 141.52 485.827 136.98 486.373C134.601 486.659 132.906 486.023 131.072 485.54C128.937 484.977 128.136 483.972 128.762 482.385C129.567 480.344 130.991 478.471 132.178 476.535C133.149 474.953 134.092 473.37 134.931 471.758C135.598 470.477 136.442 470.523 138.148 471.11C141.098 472.124 141.69 473.817 142.131 475.568C142.648 477.616 142.907 479.688 143.278 481.751Z" fill="#EDEAEA"/>
<path d="M121.316 544.27C121.34 543.246 121.808 542.244 122.672 541.372C124.745 539.141 126.227 536.749 127.774 534.374C129.03 532.447 129.305 532.598 131.911 533.629C134.622 534.703 135.302 536.297 136.192 537.897C137.157 539.634 137.985 541.407 138.673 543.194C139.301 544.822 138.77 545.157 136.258 545.693C133.941 546.187 131.807 546.975 129.254 547.078C128.035 547.127 127.484 546.889 127.119 546.235C126.79 545.644 126.069 545.686 125.297 545.885C123.205 546.425 121.313 545.655 121.316 544.27Z" fill="#EDEAEA"/>
<path d="M138.048 575.285C135.176 575.091 132.682 575.005 130.239 574.74C126.22 574.304 124.513 572.458 125.374 569.944C126.232 567.44 127.039 564.937 128.633 562.56C129.928 560.629 131.449 560.379 133.699 561.872C134.704 562.545 135.51 563.323 136.079 564.171C137.975 567.022 139.979 569.856 140.955 572.909C141.482 574.563 140.432 575.326 138.048 575.285Z" fill="#EDEAEA"/>
<path d="M106.479 506.775C106.556 508.954 105.72 509.334 102.721 509.297C101.015 509.277 99.2962 509.626 97.5834 509.81C94.9118 510.098 90.8611 508.643 90.1515 507.233C90.0331 507.034 89.9797 506.823 89.9946 506.611C90.0095 506.399 90.0923 506.191 90.2382 505.999C92.3098 503.073 94.3336 500.134 96.4241 497.213C97.3368 495.939 98.3918 495.835 100.098 496.791C103.935 498.937 104.732 501.96 106.039 504.825C106.273 505.466 106.42 506.119 106.479 506.775V506.775ZM100.585 504.195C99.9154 503.806 100.897 502.788 99.3858 502.529C98.8574 502.438 98.5254 502.984 98.7201 503.3C99.0818 503.888 98.749 504.756 100.049 504.986C100.685 505.098 100.586 504.639 100.585 504.194V504.195Z" fill="#EDEAEA"/>
<path d="M79.7773 533.336C80.3216 529.987 82.0533 526.834 83.9021 523.716C84.6917 522.383 85.7443 522.359 87.576 523.248C89.1319 524.001 90.1521 525.103 90.4192 526.317C91.1389 529.18 91.7275 532.056 92.2802 534.933C92.5134 536.147 91.2812 536.768 89.3172 537.019C86.1847 537.42 83.6907 536.65 81.254 535.656C79.9163 535.112 79.9398 534.194 79.7773 533.336Z" fill="#EDEAEA"/>
<path d="M170.207 532.023C169.359 531.98 168.384 531.746 168.017 531.945C166.727 532.645 165.157 532.164 163.737 532.486C162.222 532.828 159.914 530.512 160.096 529.355C160.367 527.641 162.753 526.557 163.138 524.837C163.519 523.139 164.613 521.5 165.441 519.844C165.526 519.604 165.737 519.389 166.041 519.233C166.345 519.076 166.724 518.987 167.119 518.979C168.105 518.947 168.626 519.223 169.077 519.777C171.567 522.845 172.892 526.178 174.793 529.379C175.841 531.146 173.227 531.769 170.207 532.023Z" fill="#EDEAEA"/>
<path d="M214.457 539.389C215.11 541.187 211.918 542.165 209.81 541.833C208.828 541.679 208.033 541.475 206.843 541.824C205.382 542.253 203.171 542.777 202.793 540.864C202.762 540.713 202.129 540.634 201.859 540.47C200.185 539.449 200.134 537.984 201.667 536.824C202.033 536.571 202.324 536.281 202.527 535.966C203.684 533.839 206.227 532.052 206.481 529.702C206.546 529.093 206.911 528.526 208.03 528.416C209.149 528.306 209.697 528.806 210.154 529.343C210.428 529.579 210.665 529.83 210.862 530.093C212.334 533.148 213.535 536.252 214.457 539.389V539.389Z" fill="#EDEAEA"/>
<path d="M557.873 62.8704C558.937 61.3476 558.372 59.8058 558.609 58.3824C558.747 57.5532 559.243 56.1719 559.706 56.448C562.987 58.4037 567.41 55.2485 570.211 58.9341C581.581 73.8936 596.901 84.8588 609.32 98.7571C610.192 99.7336 611.127 100.653 612.011 101.619C617.118 107.205 617.115 107.207 610.867 110.822C604.439 114.539 603.81 114.564 597.705 109.605C585.023 99.3011 572.395 88.9248 560.306 77.9034C556.536 74.4666 553.114 70.6641 552.276 65.278C552.028 63.8259 551.984 62.3453 552.147 60.8807C552.311 59.62 552.728 58.0211 554.253 57.8991C555.835 57.7722 555.577 59.4323 555.907 60.4509C556.204 61.3843 556.44 62.3567 557.873 62.8704Z" fill="#EDEAEA"/>
<path d="M508.637 116.9C514.993 117.312 520.41 120.277 525.718 123.527C537.246 130.586 547.579 139.467 559.335 146.183C561.608 147.482 561.587 148.677 559.503 150.651C553.45 156.387 547.568 153.79 541.874 150.519C530.444 143.956 519.197 137.065 507.841 130.37C504.898 128.635 501.844 127.092 498.809 125.522C497.054 124.616 496.788 123.077 496.92 121.358C497.054 119.579 498.16 119.128 499.803 118.705C502.725 117.952 505.539 116.787 508.637 116.9Z" fill="#EDEAEA"/>
<path d="M501.88 215.473C495.22 215.473 488.564 215.505 481.907 215.455C479.788 215.44 477.551 215.424 476.889 212.642C476.286 210.103 478.55 209.899 479.831 208.809C482.3 206.709 485.189 205.741 488.264 205.259C501.642 203.162 515.032 202.263 528.455 204.942C529.908 205.232 531.448 205.197 532.097 206.848C532.831 208.716 531.034 209.222 530.27 210.366C526.7 215.709 521.455 215.71 515.993 215.539C511.293 215.391 506.584 215.508 501.88 215.508V215.473Z" fill="#EDEAEA"/>
</svg>
