<svg width="1363" height="875" viewBox="0 0 1363 875" fill="none" xmlns="http://www.w3.org/2000/svg">
<g clip-path="url(#clip0_639_1342)">
<path d="M950.646 726.646C943.328 720.389 935.658 713.374 927.444 707.059C924.573 704.852 921.138 703.763 921.821 699.343C921.961 698.433 922.122 697.074 922.724 696.758C932.913 691.407 939.773 682.194 948.501 675.173C954.347 670.47 960.89 666.879 968.74 666.88C970.306 666.881 971.878 668.088 973.447 668.738C972.759 670.244 972.444 672.142 971.322 673.194C963.162 680.837 954.911 688.39 946.526 695.789C943.894 698.11 944.612 699.387 946.831 701.477C951.949 706.298 956.683 711.519 961.745 716.404C963.908 718.49 966.495 720.145 968.91 721.971C969.113 722.124 969.58 721.975 969.732 722.141C971.301 723.841 974.451 726.371 974.065 727.153C972.811 729.557 970.813 731.497 968.363 732.692C961.127 736.034 956.604 730.157 950.646 726.646Z" fill="#D73F3B" fill-opacity="0.2"/>
</g>
<path d="M941.873 699.428L944.385 698.56C943.502 697.106 941.774 698.563 940.602 696.706C958.028 692.194 973.943 684.545 989.645 676.424C1005.44 668.255 1021.21 660.028 1034.53 648.196C1034.25 646.831 1033.26 647.007 1032.56 646.87C1023.66 645.114 1015.96 640.946 1009.15 635.137C1001.64 628.767 994.545 621.934 987.906 614.678C979.329 605.262 978.531 597.501 984.484 586.357C992.531 571.291 1009.03 563.657 1026.05 566.93C1041.5 569.902 1052.94 578.21 1059.98 592.12C1063.53 599.105 1063.77 606.782 1063.1 614.412C1062.49 621.312 1061.08 628.116 1058.9 634.689C1057.7 638.337 1057.67 638.432 1061.68 637.839C1071.99 636.383 1081.93 632.992 1090.94 627.849C1101.21 621.941 1109.68 613.95 1117.51 605.178C1130.31 590.835 1138.35 573.734 1146.37 556.613C1152.48 543.575 1158.28 530.375 1163.02 516.797C1168.33 501.607 1171.87 485.911 1174.23 469.969C1175.43 461.928 1175.95 453.81 1177.04 445.751C1177.53 442.115 1176.6 438.203 1176.98 434.394C1177.06 433.599 1176.78 432.661 1177.7 432.383C1178.69 432.087 1178.96 433.078 1179.35 433.75C1179.84 434.617 1180.8 435.312 1180.58 436.453C1179.37 442.932 1181.87 449.294 1181.23 455.78C1180.56 462.531 1180.37 469.329 1179.76 476.087C1179.14 482.863 1177.83 489.539 1176.46 496.198C1172.86 513.655 1167.28 530.443 1160.3 546.853C1155.44 558.29 1150.57 569.728 1144.84 580.731C1139.64 590.704 1134.12 600.458 1126.64 609.183C1120.8 615.996 1114.75 622.474 1107.94 628.23C1102.64 632.717 1097.01 636.763 1090.36 639.478C1085.73 641.369 1081.19 643.402 1076.35 644.789C1070.19 646.557 1063.94 648.424 1057.55 648.213C1052.27 648.039 1049.05 650.815 1046.4 654.198C1042.37 659.176 1037.65 663.56 1032.38 667.219C1017.22 678.109 1000.65 686.66 983.585 694.257C975.518 697.847 967.143 700.629 958.351 701.734C952.905 702.42 947.342 702.374 941.873 699.428ZM1050.59 622.854C1052.27 617.564 1053.38 612.108 1053.9 606.579C1054.84 596.348 1052.82 587.406 1043.19 581.537C1031.84 574.62 1012.32 572.212 999.855 585.249C995.12 590.202 992.017 595.671 990.639 602.247C990.289 603.629 990.31 605.079 990.7 606.455C991.09 607.831 991.835 609.084 992.862 610.09C997.168 614.496 1001.68 618.731 1005.73 623.353C1015.05 633.989 1027.14 638.053 1040.81 638.802C1042.82 638.912 1043.96 638.242 1044.96 636.631C1047.51 632.344 1049.41 627.702 1050.59 622.854ZM1008.65 670.468L1008.97 671.022L995.721 677.321L995.706 677.27L1008.65 670.468Z" fill="#D73F3B" fill-opacity="0.2"/>
<path d="M44.6492 100.286C30.4824 104.656 28.0962 111.916 39.9622 114.605C67.897 120.947 120.225 134.724 142.922 136.706C171.592 139.106 171.372 129.081 158.987 109.854C137.085 76.0506 123.101 43.3737 111.233 25.4312C95.1228 1.07046 78.1974 12.1868 85.1483 29.4536C91.0077 44.0091 127.642 113.173 130.705 115.423C135.341 118.698 59.1015 95.8011 44.6492 100.286Z" fill="#D73F3B" fill-opacity="0.2"/>
<path d="M57.2495 86.2645C65.4294 89.2759 71.5489 91.2902 76.2378 92.2234C107.345 98.6167 90.6322 72.3426 87.476 66.1507C78.925 49.0299 55.3632 14.4013 52.0184 13.9224C38.7542 12.2922 43.3368 31.5061 64.4697 66.2824C66.5918 69.9057 64.7044 69.3382 47.9984 61.631C27.2879 52.218 21.199 51.5161 14.009 57.5573C6.27745 64.3137 16.6935 71.2357 57.2495 86.2645Z" fill="#D73F3B" fill-opacity="0.2"/>
<defs>
<clipPath id="clip0_639_1342">
<rect width="386.664" height="292.331" fill="white" transform="matrix(0.588071 -0.80881 0.812529 0.582921 804.941 647.857)"/>
</clipPath>
</defs>
</svg>
