<svg width="224" height="182" viewBox="0 0 224 182" fill="none" xmlns="http://www.w3.org/2000/svg">
<path d="M109.339 66.1677L109.223 67.0114C109.67 66.951 110.091 66.7668 110.439 66.4796C110.787 66.1924 111.047 65.8138 111.191 65.3864L111.599 66.0995C111.759 66.1117 111.983 66.1961 112.06 66.1232C112.704 65.5085 113.57 65.4657 114.324 65.4733C115.209 65.4817 116.1 65.9425 116.869 65.1352C116.922 65.0787 117.037 65.0049 117.081 65.027C118.849 65.8526 120.734 64.9186 122.525 65.3919C123.114 65.5483 122.613 65.8898 122.728 66.2907C124.424 65.4905 126.029 64.2903 128.308 64.9695L128.791 65.6226C129.019 65.771 129.086 65.711 129.129 65.473C129.14 65.3273 129.184 65.1859 129.257 65.0592C129.33 64.9326 129.431 64.8238 129.551 64.7409C129.671 64.658 129.809 64.6031 129.953 64.5801C130.098 64.5572 130.245 64.5668 130.386 64.6082C132.198 65.0594 133.993 64.6171 135.78 64.5393C139.076 64.3965 142.356 64.6218 145.641 64.638C148.95 64.6546 152.24 64.7943 155.536 65.044C159.882 65.3729 164.231 65.6051 168.574 66.0406C171.385 66.3227 174.225 66.6029 177.07 66.7157C179.781 66.8236 182.47 67.4109 185.177 67.6938C188.356 68.0276 191.483 68.7081 194.692 68.8809C196.293 68.9672 197.852 69.6212 199.501 69.7961C205.617 70.4445 211.47 72.3061 217.378 73.897C218.445 74.1847 219.542 74.4226 220.263 75.7138C218.828 75.9792 217.556 76.1776 216.234 75.8044C214.297 75.257 212.35 74.7413 210.407 74.2119C209.433 73.9465 208.47 73.5029 207.49 73.4672C206.511 73.4315 205.636 73.0339 204.67 72.9834C203.716 72.9337 202.788 72.6297 201.81 72.531C200.119 72.3606 198.448 71.8627 196.766 71.5226C194.617 71.0889 192.439 71.1689 190.299 70.732C188.109 70.2841 185.857 70.163 183.639 69.8575C182.924 69.7584 182.279 69.3738 181.504 69.8645C181.203 70.0557 180.553 69.7893 180.096 69.6282C178.467 69.0566 176.769 69.126 175.089 69.0162C173.358 68.903 171.624 68.8192 169.893 68.7029C164.926 68.3694 159.951 68.1196 154.997 67.652C151.852 67.3555 148.695 67.7027 145.564 67.2784C144.516 67.8229 143.601 66.7651 142.483 67.0852C141.576 67.3896 140.603 67.4387 139.671 67.2272C138.927 66.9496 138.137 66.818 137.344 66.8395C136.498 66.9552 135.646 67.0239 134.793 67.0454C133.926 67.0835 133.058 67.0332 132.202 66.8955C131.318 66.7244 130.458 67.0215 129.631 66.9004C129.161 66.8315 128.638 67.3934 128.292 66.853C127.966 66.3457 127.65 66.4211 127.29 66.7132C126.602 67.2743 125.774 67.0743 125.015 67.1781C124.691 66.9094 124.732 66.3676 124.173 66.1999C123.312 67.6154 121.563 66.9569 120.387 67.7544C119.411 66.569 118.37 67.8917 117.37 67.6759C116.335 67.4534 115.409 68.1156 114.356 67.9876C112.647 67.7799 110.949 68.176 109.246 68.3131C107.62 68.4668 105.987 68.5359 104.354 68.5202C103.671 68.504 103.464 68.7179 103.333 69.4482C101.818 68.273 99.9688 70.4308 98.4302 68.7639C98.2928 69.0212 98.1951 69.4581 98.0206 69.4915C96.4211 69.7959 94.8678 70.3622 93.2047 70.3263C91.8666 70.2959 90.4921 70.3762 89.3348 71.0675C88.8347 71.3177 88.2663 71.3966 87.717 71.2919C85.031 71.0673 82.6468 72.1805 80.1614 72.8006C78.1942 73.2911 76.2024 73.6218 74.2201 74.019C71.7763 74.5084 69.3006 74.8357 66.9197 75.668C65.4625 76.1771 63.8688 76.2769 62.3737 76.6987C61.3105 76.9985 60.111 76.9908 59.2324 77.7947C58.5759 78.3954 57.6655 77.8886 56.9172 78.4189C56.644 78.6124 55.7009 78.3945 55.4129 78.8563C55.0524 79.4369 54.1229 78.3577 54.1076 79.424C52.9963 79.6685 51.8769 80.1424 50.7743 80.1067C48.9338 80.0461 47.4638 81.0736 45.7888 81.4732C43.0974 82.1163 40.7306 83.799 37.9213 84.1707C37.1253 85.2025 35.3629 84.4674 34.7442 85.9444C34.597 86.2967 33.8994 85.934 33.3916 86.1323C30.6901 87.1988 27.8618 87.9832 25.4246 89.6202C24.8933 89.9788 23.9229 89.4783 23.7877 90.4969C22.8308 90.0813 22.2603 90.8938 21.5509 91.2276C20.8695 91.547 20.2412 92.2659 19.5767 92.2813C17.9194 92.3177 17.3792 93.9829 16.0147 94.4078C14.8747 94.763 14.0372 95.9025 12.6579 95.7367C12.5309 95.7394 12.4066 95.7739 12.2963 95.8369C12.1861 95.9 12.0933 95.9896 12.0265 96.0977C11.6316 97.2911 10.4971 97.5966 9.57727 98.009C7.96654 98.731 7.03295 100.306 5.45173 101.038C5.26262 101.125 5.27791 101.655 5.14924 102.18C6.61763 101.387 8.191 101.037 9.16098 99.5946C9.50115 99.2377 9.9129 98.9567 10.3693 98.77C12.9146 97.3048 15.4983 95.9037 18.0009 94.3692C19.1327 93.6755 20.5178 93.8265 21.6053 92.9662C22.581 92.1939 23.7127 91.3227 24.8723 91.158C26.1547 90.973 27.0402 89.9634 28.226 89.9213C29.5114 89.8749 30.2485 88.8351 31.3371 88.5345C33.6718 87.8898 35.7487 86.5603 38.0451 85.9194C39.9472 85.3878 41.7622 84.6022 43.6789 84.1785C44.1242 84.0801 43.9055 83.2095 44.6448 83.6136C45.0867 83.8543 45.5188 83.2657 45.9507 83.0478C46.3465 82.8484 46.7542 83.3362 47.1152 82.9752C47.5242 82.5676 48.0969 82.9133 48.4811 82.7358C49.5775 82.2285 50.669 81.7683 51.8169 81.3625C54.0542 80.5713 56.3522 80.0369 58.6081 79.3435C59.7794 79.9347 60.3718 78.3263 61.5845 78.6159C62.4805 78.83 63.3905 78.1233 64.2891 77.8595C67.2784 76.982 70.3193 76.2471 73.3781 75.6511C75.5246 75.2325 77.6979 75.0677 79.7729 74.2256C80.6556 73.8672 81.7747 73.876 82.7488 73.8135C85.5699 73.633 88.2586 72.8385 90.9992 72.3198C92.3151 72.0707 93.6324 72.1031 94.9392 71.9387C97.092 71.6683 99.1692 70.9537 101.395 71.0252C102.85 71.0704 104.296 70.1888 105.813 70.8046C106.749 69.6002 108.116 70.6009 109.26 70.1298C110.378 69.6692 111.708 70.0188 112.948 69.7317C114.094 69.5252 115.258 69.432 116.423 69.4533C117.59 69.4193 118.76 69.4743 119.93 69.4908L120.513 70.5101C120.923 70.0344 121.134 69.3761 121.759 69.2809C122.201 69.2392 122.257 69.673 122.526 69.8251C122.682 69.8243 122.836 69.7963 122.982 69.7426C124.44 68.9336 126.12 68.6145 127.773 68.8323C130.541 69.1137 133.245 68.6406 135.98 68.6353C139.187 68.6281 142.398 68.7487 145.595 68.6721C149.368 68.5824 153.108 69.0595 156.876 68.979C159.475 68.9222 162.082 69.2953 164.683 69.5076C168.004 69.7791 171.317 70.2022 174.64 70.3341C177.349 70.4415 180.008 70.9126 182.697 71.1417C185.421 71.3171 188.133 71.6398 190.821 72.1085C193.17 72.5674 195.584 72.6854 197.965 72.9897C200.59 73.3256 203.186 73.8479 205.817 74.1617C207.606 74.3659 209.378 74.6953 211.121 75.1473C214.121 75.945 217.116 76.7612 220.107 77.5959C220.486 77.7005 220.961 77.6664 221.165 78.2209C220.959 79.0994 220.186 79.1225 219.395 78.9593C219.704 80.1492 220.847 79.6341 221.251 80.3649C221.427 80.7687 221.074 81.1241 221.054 81.5328C220.401 80.9589 220.322 82.1224 219.861 81.9341C219.368 81.7322 218.912 82.3558 218.449 81.9329C217.958 82.282 218.757 82.6425 218.254 83.1892C217.008 83.0147 215.594 82.8524 214.194 82.6091C213.241 82.4417 212.347 82.094 211.323 82.1673C210.48 82.2272 209.629 81.3969 208.73 82.1731C208.567 82.3142 208.349 81.9654 208.165 81.8746C206.884 81.2448 204.903 81.116 203.054 81.3729C202.039 81.4631 201.017 81.4258 200.011 81.2617C198.263 81.0576 196.529 80.7053 194.757 80.6294C194.44 80.5804 194.141 80.4524 193.886 80.2572C193.286 79.8527 192.6 79.5919 191.883 79.4949C191.165 79.398 190.435 79.4675 189.749 79.6981C188.983 79.9421 188.624 79.7762 187.4 79.4077C186.783 79.267 186.154 79.1821 185.522 79.154C182.996 78.8842 180.45 78.9062 177.943 78.594C176.426 78.4048 174.95 79.3654 173.474 78.5806C172.612 79.3925 171.758 78.6297 170.893 78.5955C168.781 78.5115 166.64 77.9861 164.567 78.528C163.826 78.7211 163.591 77.3955 162.92 78.2358C160.888 77.9989 158.847 78.3923 156.83 78.1913C156.057 78.1144 155.183 77.6395 154.49 77.8987C153.174 78.3909 151.792 77.2073 150.571 78.2042C149.346 77.299 148.113 77.9782 146.847 78.0859C145.869 78.1701 144.943 77.5947 143.813 78.0532C142.863 78.4379 141.664 78.2362 140.577 78.2423C139.489 78.2484 138.389 77.8955 137.298 78.2754C136.478 77.2905 135.397 77.8932 134.477 77.9284C133.485 77.9656 132.409 77.7361 131.481 78.2503C130.758 78.6505 130.164 77.2701 129.377 78.2337C128.89 78.8294 128.018 78.4035 127.326 78.489C126.66 78.5706 125.904 78.9398 125.352 78.0671C125.195 77.8196 124.615 77.7759 124.222 77.7537C122.664 77.6682 121.059 78.5489 119.546 77.5167C118.773 78.0821 117.74 77.6497 117.046 77.975C114.79 79.0307 112.405 78.6578 110.102 78.7752C108.397 78.8618 106.716 79.7519 104.975 79.0609C103.951 79.9311 102.633 79.2552 101.544 79.704C100.269 80.2281 98.882 79.7235 97.6194 80.1999C96.3567 80.6762 94.9958 80.4823 93.7042 80.7719C93.4873 80.8202 93.2221 80.6555 92.8649 80.5582C91.2427 82.2275 88.594 80.998 86.4873 82.6148C87.5758 82.5549 88.3177 82.514 89.4624 82.4488C87.5038 83.7129 85.5152 83.3186 83.7659 83.9017C82.0408 84.4774 80.1109 84.5233 78.2793 84.8617C76.4476 85.2001 74.555 85.3015 72.7846 85.8286C70.9771 86.3686 69.1016 86.498 67.3003 87.0526C65.5189 87.6007 63.6617 87.9011 61.7422 88.3314L61.101 87.396C59.5064 87.1241 58.3102 88.4522 56.7827 88.4797C56.5619 88.4837 56.3222 88.8488 56.1304 88.8165C54.3868 88.5218 52.9738 89.7113 51.3316 89.8421C49.6354 89.9775 48.283 91.1532 46.6068 91.3962C44.659 91.6782 42.8933 92.6422 40.9507 92.9947C39.9443 93.1771 39.1889 94.1945 38.0257 93.9676C36.8783 94.9745 35.3586 95.1346 34.0052 95.625C32.7685 95.9868 31.578 96.491 30.4577 97.1276C29.0221 96.5537 28.2672 98.5845 26.8132 98.0859C26.6037 98.0138 26.2286 98.3653 25.9529 98.5553C24.186 99.753 22.1106 100.204 20.1625 100.963C19.5965 101.184 19.4978 101.955 18.815 102.058C16.102 102.468 14.1299 104.411 11.748 105.499C10.7936 105.938 10.0129 106.684 9.52961 107.617L9.98149 107.788C10.36 109.161 9.56204 109.97 8.43207 110.25C7.49322 110.482 7.04229 109.564 6.69805 108.751C5.73879 108.793 4.68925 108.983 4.34134 107.715C4.14458 106.997 3.51228 106.771 2.98586 106.407C2.97664 105.699 3.19564 104.883 2.91203 104.319C2.27959 103.064 2.79932 102.006 3.36432 101.083C4.02346 100.115 4.80929 99.2385 5.7009 98.4782C8.10233 96.2367 11.084 94.9716 13.833 93.3209C16.5669 91.6782 19.3715 90.1591 22.1248 88.5503C23.1112 87.9742 24.3041 88.1189 25.2917 87.3974C26.1678 86.755 27.0731 85.8443 28.3868 86.1436C29.8036 84.9465 31.7675 85.0242 33.2825 83.9672C35.2072 82.6244 37.5228 82.0959 39.7422 81.4163C40.1969 81.2071 40.6709 81.0425 41.1575 80.925C41.7337 80.8791 42.2769 80.6376 42.697 80.2405C43.5086 79.5572 44.5466 79.7619 45.4473 79.3993C46.3678 79.0282 47.4128 78.849 48.1128 78.3139C48.6493 78.4918 48.6329 79.0203 49.2606 78.8697C49.6414 77.686 50.757 77.4971 51.9835 77.246C54.3834 76.7517 56.7276 76.0175 58.9807 75.0544C59.7165 74.7969 60.4785 74.6214 61.2527 74.531C63.2012 74.1801 65.1501 73.8415 67.0768 72.7585L68.1196 73.2188C68.5925 73.0065 68.2463 72.5592 68.8108 72.4946C69.811 72.3761 70.8668 72.3645 71.7696 71.7842C71.9064 71.7006 72.0575 71.6434 72.2153 71.6154C72.7038 71.5214 73.4446 72.5573 73.671 71.2848C74.4228 71.8806 74.9651 70.7954 75.7638 71.0465C76.2939 71.2132 77.0294 70.8437 77.5473 70.6698C78.1751 70.4599 78.8139 70.5837 79.4038 70.3259C80.5586 69.8219 82.0183 70.4801 82.937 69.4099C83.4389 69.3768 83.4846 69.8249 83.7693 69.9603C84.4014 69.3917 86.7178 68.8589 88.1983 68.9476L88.2538 69.7158C88.425 69.6815 88.6507 69.7043 88.7176 69.6123C89.1755 68.9816 89.4545 68.0945 90.54 68.4848C92.1242 67.7079 93.9154 67.6475 95.5714 67.5609C96.9678 67.4332 98.3499 67.1797 99.7007 66.8034C100.997 66.5011 102.382 67.0426 103.616 66.3285C105.499 66.8358 107.345 65.7793 109.339 66.1677ZM121.243 75.6734C121.457 75.0336 121.889 75.9883 121.994 75.3225C122.094 74.6898 122.7 74.6871 123.01 74.3366C123.165 74.1612 123.103 74.0193 122.92 73.9869C122.234 73.937 121.871 74.8242 121.181 74.6273L120.673 74.0505C120.068 74.7074 120.358 75.6716 119.771 76.2416C118.51 76.5784 118.217 75.6067 117.754 74.854C117.704 74.7728 117.501 74.7875 117.369 74.7565C117.118 75.3214 117.932 75.5864 117.791 75.9843C117.183 77.1913 116.789 75.7571 115.945 76.1464C116.077 76.1258 116.388 76.5847 115.942 76.5134C115.469 76.3252 115.584 75.5562 114.963 75.5077C113.967 76.5213 112.865 76.7457 110.656 76.384L110.524 76.8685C110.041 76.9291 110.057 76.1838 109.558 76.2697C109.027 76.3432 109.137 76.8888 108.89 77.1718C106.19 77.0952 106.19 77.0952 104.922 77.7412L102.348 76.7718C101.488 76.8439 101.613 77.712 101.214 78.0327C100.258 77.7391 99.2522 77.5097 98.4068 78.0534C97.7908 78.4517 97.183 78.3628 96.5686 78.4724C95.119 78.7293 93.6648 78.955 92.2196 79.2408C92.1327 79.2412 92.0471 79.2631 91.9707 79.3045C91.8942 79.346 91.8292 79.4058 91.7814 79.4785C91.7337 79.5511 91.7046 79.6345 91.6969 79.7212C91.6891 79.8078 91.7029 79.895 91.7371 79.975C92.5878 80.0323 93.4424 79.9802 94.2799 79.8199C96.1594 79.3482 98.0751 79.0339 100.007 78.8803C101.946 78.7749 103.815 78.0152 105.813 78.3644C106.354 78.3744 106.893 78.3017 107.412 78.1487C110.316 77.6535 113.25 77.3572 116.195 77.2621C117.796 77.1735 119.495 77.4347 121.028 76.664C121.156 76.5738 121.27 76.4652 121.366 76.3416L121.243 75.6734Z" fill="#D73F3B"/>
<path d="M158.551 93.5241C158.079 94.0406 157.095 93.8616 156.894 94.745C157.053 95.2101 157.473 94.9861 157.82 95.1316C158.524 94.3752 159.411 94.1385 160.421 93.9002C161.42 93.6655 162.456 93.7605 163.448 93.3666C164.384 92.9956 165.463 92.9786 166.482 92.8334C167.51 92.6874 168.543 92.5776 169.573 92.4479C170.378 92.3034 171.191 92.2035 172.007 92.1486C173.948 92.1223 175.867 91.8718 177.796 91.7154C178.797 91.6346 179.804 91.7241 180.821 91.6462C182.568 91.5115 184.34 91.7249 186.089 91.6059C187.972 91.4776 189.845 91.7462 191.707 91.6465C195.906 91.421 200.066 91.9817 204.246 92.0998C204.925 92.1191 205.606 92.1859 206.292 92.2021C207.797 92.2377 209.352 92.1525 210.723 92.9229C211.251 93.2198 211.546 92.572 212.153 92.8275C212.784 93.0647 213.463 93.1496 214.133 93.075C214.823 92.9998 215.5 93.2137 216.174 93.2629C216.985 93.3209 217.825 93.489 218.696 93.5647C219.19 93.984 219.699 94.4353 220.234 94.8539C220.325 94.9249 220.525 94.8559 220.655 94.8524C220.81 94.5332 220.164 94.3941 220.684 93.9499C221.534 93.8471 222.395 93.9936 223.163 94.3716C223.229 94.5459 222.928 94.6361 222.884 94.8356C222.843 95.0222 222.96 95.2818 222.577 95.2391C222.16 95.1923 222.458 95.5634 222.324 95.7118C221.808 95.6959 221.743 95.0639 221.321 94.9213C220.627 94.8746 221.096 95.6267 220.639 95.814C220.167 95.7829 219.716 95.5041 219.216 95.2949L218.74 95.7246C217.54 95.6922 216.465 94.8006 215.236 95.3443C214.652 95.6031 214.19 94.8616 213.516 95.2171C213.045 95.4651 212.481 95.0033 211.996 94.8301C211.729 94.6445 211.95 94.3871 211.81 94.1561C211.058 94.3089 211.487 94.9822 211.312 95.3862C210.914 95.3657 210.51 95.3451 210.107 95.3241L210.106 94.8335C209.592 94.8662 209.201 94.3511 208.692 94.5169C208.352 94.6679 208.4 94.9733 208.375 95.2354L207.659 95.1985L207.661 94.7026C206.831 95.1289 206.831 95.1289 205.753 95.1C205.482 94.7751 206.291 94.615 205.658 94.0863C205.194 93.8994 204.503 95.0013 203.818 94.2593C203.771 94.4661 203.724 94.6677 203.647 94.9989C202.85 94.859 202.029 94.959 201.298 94.8152C200.473 94.6537 199.686 94.9203 198.832 94.7021L198.126 93.9197C197.678 94.3031 197.028 93.9549 196.602 94.2354C195.169 95.1798 193.651 94.7138 192.185 94.5466C191.647 94.4852 191.142 94.2465 190.601 94.4851C190.429 94.5613 190.303 94.5887 190.16 94.4308C189.558 93.7629 188.915 93.7796 188.212 94.2916C188.136 94.3551 188.048 94.4029 187.953 94.4322C187.858 94.4615 187.759 94.4717 187.66 94.4623C187.561 94.4529 187.465 94.424 187.378 94.3774C187.291 94.3307 187.213 94.2672 187.15 94.1905C186.634 93.6507 186.037 93.8889 185.566 93.8823C185.126 94.3187 185.741 94.4567 185.557 94.8275C185.208 94.5621 184.514 95.2011 184.368 94.2869C184.361 94.2292 183.876 94.1326 183.758 94.2299C183.547 94.4157 183.295 94.5483 183.022 94.6166C182.75 94.6849 182.464 94.6869 182.191 94.6224C181.672 95.3034 180.94 95.0846 180.296 94.9955C179.439 94.8768 178.61 95.1043 177.794 95.19C176.818 95.3391 175.821 95.2701 174.875 94.988C174.621 94.9215 174.363 94.8775 174.102 94.8565C173.917 95.0923 173.682 95.2841 173.414 95.4182C173.146 95.5523 172.851 95.6254 172.552 95.6321C170.431 95.7841 168.293 95.8747 166.219 96.4169C165.898 96.4894 165.565 96.4767 165.251 96.3801C164.937 96.2834 164.654 96.1061 164.43 95.866C164.113 95.5822 163.794 95.6901 163.555 95.6351C163.021 96.6537 161.6 96.2481 161.245 97.2504C160.668 97.1091 160.567 96.6401 160.157 96.4297C159.302 96.8559 158.389 97.3096 157.485 97.7595C157.345 98.0667 157.852 98.2151 157.574 98.6256C157.21 98.8336 156.57 98.7014 156.193 99.5523L156.186 98.6837C155.889 98.5454 155.745 99.0858 155.42 98.8334C155.04 98.5181 155.327 98.0937 155.271 97.7283L153.835 97.1749C153.834 96.5738 154.184 96.5974 154.546 96.632C154.592 96.3174 154.763 95.9925 154.441 95.6918C154.135 95.3593 153.998 95.9941 153.658 95.8247C153.783 94.6164 155.287 94.7427 155.56 93.6837C156.005 93.7755 156.341 93.8453 156.672 93.9138L156.728 93.3814C157.282 93.2303 157.872 93.0675 158.464 92.9148C158.491 92.9083 158.541 92.9944 158.58 93.0372C158.745 93.2079 158.735 93.3702 158.551 93.5241Z" fill="#D73F3B"/>
<path d="M92.942 94.4869C93.3295 94.1621 93.3473 93.819 92.9955 93.4578C94.7943 91.557 97.3663 91.5691 99.6259 91.0352C103.382 90.1526 107.252 89.7433 111.065 89.1085C113.881 88.6419 116.863 88.6439 119.756 88.3535C123.687 87.958 127.644 88.0454 131.572 87.5025C133.89 87.1819 136.294 87.4678 138.65 87.4283C141.973 87.3728 145.301 86.8511 148.648 87.253C150.381 87.4609 152.143 87.6693 153.934 87.1162C154.393 86.9831 154.877 86.9595 155.347 87.0472C155.817 87.1349 156.26 87.3315 156.64 87.6212C157.088 87.9491 158.082 87.2573 158.942 87.2705C167.47 87.3999 175.994 87.591 184.514 88.0801C189.783 88.3825 195.004 89.1533 200.264 89.5635C204.471 89.8842 208.655 90.448 212.796 91.2523C214.382 91.5643 216.29 91.2475 217.709 92.3423C217.614 93.3093 217.077 93.5421 216.433 93.3518C212.324 92.2213 208.078 91.6664 203.816 91.7031C202.38 91.6861 201.159 90.8616 199.69 90.9054C198.436 90.9432 197.151 91.0345 195.891 90.3138C195.001 89.8883 193.978 89.8338 193.048 90.1623C191.675 90.698 190.435 90.1062 189.178 90.2111C187.94 90.2044 186.706 90.0738 185.495 89.8212C183.735 89.6329 181.878 90.4607 180.127 89.459C178.685 90.5898 177.172 89.0179 175.904 89.4589C174.402 89.9782 173.149 89.2076 171.761 89.2619C170.432 89.4245 169.09 89.4508 167.756 89.3403C166.309 89.1749 164.854 89.0882 163.398 89.0805C161.938 89.0052 160.489 88.9124 159.034 88.8608C157.632 88.8105 156.209 89.0416 154.857 89.0426C151.888 89.0432 148.942 89.5524 145.946 89.2682C142.708 88.9607 139.453 89.3817 136.196 89.6407C132.94 89.8997 129.636 90.2968 126.42 90.091C124.001 89.936 121.738 91.1093 119.371 90.4228C117.939 91.5228 116.219 90.6267 114.611 91.0511C113.217 91.5106 111.715 91.5244 110.314 91.0906C109.565 90.8076 108.129 92.1011 107.513 91.7605C106.333 91.1078 105.923 91.9347 105.126 92.1721C104.497 92.4318 103.835 92.6035 103.16 92.6826C99.8607 92.8336 96.6098 93.5317 93.5398 94.7485C93.3946 94.8108 93.1448 94.5832 92.942 94.4869Z" fill="#D73F3B"/>
</svg>
