<svg width="929" height="289" viewBox="0 0 929 289" fill="none" xmlns="http://www.w3.org/2000/svg">
<path d="M118.446 130.503C118.131 131.005 117.596 130.352 117.271 130.76C116.888 130.344 116.361 130.599 115.905 130.458C115.68 130.509 116.134 129.827 115.558 130.134C115.119 130.267 114.662 130.323 114.206 130.3L114.022 129.346L113.809 129.968L112.853 129.32L113.065 128.557C112.807 128.381 112.511 128.272 112.202 128.242C111.894 128.211 111.583 128.259 111.297 128.382L112.633 129.032L112.288 129.756C112.066 129.647 112.225 128.957 111.638 129.391L111.95 130.102C111.857 130.153 111.78 130.224 111.749 130.207C111.343 129.989 110.945 129.757 110.545 129.529C110.172 130.227 109.487 130.482 108.67 130.736L108.896 130.075C108.663 129.926 108.566 129.454 108.064 129.509L108.267 130.625C107.866 130.81 107.81 130.92 107.938 131.185C107.368 131.647 107.27 130.76 106.815 130.708L106.699 131.481C106.452 131.443 106.323 131.115 105.982 131.389C105.509 131.768 104.876 131.937 104.405 132.319C103.934 132.701 103.555 132.515 103.089 132.303L103.037 133.024C102.394 132.901 101.895 133.332 101.319 133.52C99.9433 133.968 98.6217 134.555 97.2731 135.073C96.0683 135.535 94.8905 136.071 93.6951 136.561C92.7107 136.965 91.7254 137.369 90.727 137.734C89.3708 138.23 88.0654 138.859 86.7267 139.399C85.6801 139.82 84.6321 140.298 83.5896 140.761C83.2457 140.914 82.9369 141.223 82.497 141.112C82.4399 141.107 82.3824 141.115 82.3281 141.134C82.2738 141.152 82.2239 141.183 82.1815 141.222C81.239 142.091 79.8972 142.093 78.8911 142.819C78.8241 142.862 78.7439 142.879 78.6657 142.865C77.6426 142.658 76.8948 143.348 76.06 143.723C74.7367 144.32 73.364 144.795 71.9583 145.141C71.6569 145.19 71.363 145.279 71.0839 145.405C70.836 145.544 70.5732 145.442 70.3573 145.54C70.0707 145.663 69.8114 145.844 69.5951 146.073C69.3111 146.396 69.1268 145.736 68.7937 146.069C68.5507 146.313 68.0689 146.283 67.7371 146.461C67.1963 146.753 66.5084 146.636 66.0347 147.142C65.9364 147.247 65.6088 147.224 65.4424 147.142C65.1413 146.993 65.03 146.944 64.8407 147.336C64.737 147.551 64.2313 147.598 63.8942 147.653C62.8295 147.827 61.8712 148.456 60.7588 148.417C59.8957 149.032 58.8495 148.969 57.8908 149.23C57.6704 149.29 57.4554 149.378 57.2318 149.422C56.8149 149.505 56.3939 149.318 55.9589 149.644C55.6533 149.875 55.0971 149.5 54.7153 149.914C54.6409 149.994 54.3128 149.92 54.1654 149.818C53.7769 149.552 53.9662 149.979 53.8792 150.026C53.7408 150.101 53.5254 150.018 53.3793 150.086C52.7342 150.397 52.0164 150.515 51.3086 150.427C50.0506 150.26 48.849 150.75 47.5982 150.718C47.22 150.709 46.8319 150.981 46.4501 150.687C45.7398 151.062 45.0276 150.529 44.319 150.69C44.0216 150.757 43.6682 151.006 43.4487 150.91C42.8809 150.733 42.2882 150.655 41.6953 150.679C41.1116 150.63 40.5333 150.518 39.9527 150.435C39.8752 150.423 39.7544 150.442 39.7274 150.398C39.4768 150.004 39.0738 150.238 38.7989 150.139C38.1728 149.911 37.4854 150.055 36.8909 149.69C36.4948 149.49 36.1316 149.229 35.8145 148.914L35.5441 149.504C34.6426 148.798 33.3138 148.909 32.5642 147.696H31.6524C31.5384 147.486 31.4473 147.178 31.3581 147.179C30.7316 147.182 30.2118 147.147 30.2569 146.269C30.2637 146.133 29.9238 145.979 29.5128 145.646L29.8675 146.709C29.3902 146.386 29.0462 146.165 28.7204 145.923C28.3949 145.719 28.0993 145.469 27.8423 145.18C27.5818 144.828 27.1437 144.722 26.9165 144.341C26.7232 143.993 26.4885 143.67 26.2179 143.382C25.9285 143.093 25.7811 142.701 25.3948 142.457C25.1379 142.296 25.0879 141.788 24.9441 141.429L25.2393 141.101L25.6166 141.445C25.5828 141.183 25.608 141.013 25.5386 140.909C25.2371 140.537 24.8445 140.253 24.4009 140.088C24.2283 140.002 24.0043 139.893 23.9434 139.737C23.8587 139.52 23.9646 139.223 23.8763 139.009C23.8051 138.835 23.4255 138.731 23.4255 138.601C23.4368 137.942 22.9892 137.359 23.1551 136.688C22.6935 135.617 22.9856 134.488 22.9103 133.387C22.7706 131.343 23.3331 129.416 23.9885 127.54C24.7403 125.432 25.8138 123.461 27.1689 121.699C28.1114 120.454 29.0079 119.18 30.0374 118C31.4278 116.364 32.7106 114.635 33.8773 112.825C34.2405 112.275 34.4181 111.626 34.8148 111.073C35.1683 110.519 35.4353 109.913 35.6063 109.275C35.7635 108.702 35.8752 108.117 35.9403 107.525C36.0097 107.053 35.8051 106.542 36.1787 106.106C36.2522 106.021 36.1868 105.786 36.1481 105.63C36.103 105.445 35.9624 105.271 35.9533 105.087C35.8705 103.807 35.5047 102.563 34.8835 101.449C34.2623 100.335 33.4021 99.3817 32.3682 98.6598C31.1381 97.7541 29.8229 97.0258 28.5671 96.1876C26.7971 95.0058 24.9161 94.021 23.1583 92.8234C21.7894 91.8923 20.3384 91.0873 18.9258 90.2236C17.341 89.2526 15.6557 88.4504 14.2494 87.1924C13.475 87.0629 13.064 86.3305 12.387 86.0212C11.6297 85.6753 11.1249 84.961 10.4294 84.4908C9.66212 83.8976 8.9352 83.2514 8.2537 82.5567C7.89008 82.1215 7.45727 81.7526 6.9736 81.4655C6.67023 81.3253 6.42758 81.0757 6.29164 80.7641C6.07393 80.1839 5.58939 79.8783 5.22519 79.4524C3.46145 77.4549 2.11087 75.1113 1.25509 72.5632C0.90622 71.4869 0.784971 70.3439 0.298174 69.3152C0.469004 68.4011 0.0119536 67.5508 0.0453082 66.6455C0.0777613 65.7638 -0.10208 64.8423 0.0903847 64.0063C0.376603 62.7519 0.341442 61.4 1.03693 60.2543C1.2623 58.5241 2.9102 55.4767 3.65843 54.3069C4.57825 52.9878 5.67124 51.8053 6.90644 50.793C7.52295 50.1981 8.27356 49.7692 9.09117 49.5446C9.64513 49.4184 10.1468 49.1285 10.7192 48.9898C11.184 48.8114 11.6943 48.8018 12.1652 48.9625C12.3541 49.0406 12.6412 48.8238 12.8864 48.8099C13.3365 48.7734 13.7887 48.7745 14.2386 48.8131C14.573 48.8478 14.8845 49.183 15.2388 48.8677C15.6188 49.2593 16.1051 48.9269 16.5126 49.0637C16.8696 49.1839 17.1887 49.4271 17.5439 49.5501C18.1217 49.749 18.7185 49.8886 19.3017 50.0661C19.4853 50.1155 19.6604 50.1935 19.821 50.2973C20.7495 50.9483 21.8597 51.1383 22.8792 51.5531C23.9691 51.997 25.1154 52.31 26.1656 52.8477C26.9161 53.2333 27.7229 53.4719 28.4905 53.7895C29.2973 54.1238 30.0726 54.5418 30.8943 54.8391C32.5497 55.5147 34.1701 56.2772 35.7492 57.1236C37.8054 58.1211 39.8567 59.1298 41.9031 60.1498C45.4838 61.9382 49.0527 63.7516 52.6379 65.5303C53.5151 65.989 54.4288 66.3706 55.3689 66.6709C55.8241 66.8055 56.1843 67.1 56.631 67.2096C57.3012 67.3746 57.9665 67.5637 58.6412 67.7075C59.1847 67.7501 59.7233 67.844 60.2499 67.9882C61.1104 68.3581 62.0398 68.3705 62.9215 68.666C63.8522 68.9776 64.8497 68.5661 65.6385 67.8888C65.9824 67.5933 66.2695 67.2276 66.6008 66.9155C67.9021 65.6921 68.2113 64.2301 67.6691 62.5282C67.371 61.794 67.2031 61.0111 67.1733 60.2163C66.6802 59.754 67.1836 58.9939 66.7 58.526C66.8046 57.6012 66.5431 56.6825 66.8695 55.7176C67.1342 55.0365 67.2434 54.3023 67.1886 53.5713C66.9538 51.6243 67.3608 49.6875 67.4771 47.7548C67.598 46.3795 67.862 45.0213 68.2645 43.7036C68.5183 42.7918 68.9217 41.9512 69.2304 41.0783C69.6554 40.1079 70.1966 39.1956 70.8414 38.3624C72.1012 36.5742 73.6976 35.063 75.5363 33.9182C76.8335 33.026 78.2386 32.3111 79.716 31.7913C80.3344 31.586 81.0168 31.5194 81.6338 31.3451C82.3163 31.1519 83.0212 31.3377 83.6211 31.1052C84.2239 30.8918 84.8667 30.825 85.4989 30.91C86.6654 31.0141 87.8274 31.2018 88.9831 31.4034C90.0968 31.6591 91.1837 32.0252 92.2284 32.4964C93.6301 33.0226 94.9492 33.7561 96.144 34.6737C96.3474 34.7902 96.536 34.932 96.7056 35.0958C97.4457 36.0783 98.2192 37.0423 98.8732 38.084C99.9184 39.7267 101.24 41.1654 102.777 42.3331C103.01 42.5641 103.219 42.8207 103.398 43.0984C103.708 42.9421 104.037 42.83 104.377 42.765C104.683 42.7245 104.981 42.6396 105.264 42.513C105.581 42.4182 105.918 42.4182 106.235 42.513C106.554 42.6184 106.726 42.1297 107.068 42.3946C107.161 42.4672 107.448 42.28 107.645 42.2097C107.867 42.1579 108.082 42.0804 108.287 41.9785C108.576 41.7936 108.684 42.3428 109.003 42.1075C109.171 41.9827 109.459 42.0391 109.686 41.9827C109.943 41.9184 110.188 41.7936 110.446 41.7413C110.807 41.6687 111.127 41.8962 111.456 41.948C111.685 41.9841 111.951 41.5744 112.234 41.5018C112.619 41.4569 113 41.3796 113.373 41.2706C113.722 41.1236 114.336 40.9932 114.513 41.7159C114.525 41.7621 114.876 41.7219 115.105 41.7219L114.833 41.1587C115.233 40.9904 115.533 40.4569 116.018 40.9276C116.187 40.6501 116.338 40.9516 116.449 40.9377C116.765 40.8975 116.882 40.1055 117.394 40.671C117.722 40.508 118.062 40.3707 118.411 40.2604C118.554 40.2248 118.772 40.4823 118.907 40.4425C119.106 40.3848 119.261 40.0301 119.499 40.3233C119.721 40.5956 119.825 40.1818 119.931 40.2705C120.038 40.3593 120.055 40.548 120.112 40.6894C120.942 40.4185 120.942 40.4185 121.142 39.6658C121.356 39.7487 121.561 39.8526 121.755 39.976C121.897 40.1103 122.021 40.2621 122.126 40.4278L122.532 39.7342C124.258 40.2017 124.387 40.1642 125.003 39.0014H125.836L126.056 39.4813C126.211 38.8479 126.211 38.8479 126.832 38.4988C127.094 38.4266 126.626 39.1752 127.186 38.8173C127.338 38.7204 127.514 38.672 127.693 38.6784C127.871 38.6847 128.044 38.7455 128.189 38.8529C128.292 38.8969 128.402 38.9194 128.514 38.9194C128.625 38.9194 128.736 38.8969 128.839 38.8529C129.225 38.7027 129.78 38.7073 129.707 38.0022C129.694 37.8806 129.898 37.6605 130.225 37.8926C130.543 38.1178 131.033 38.0864 131.529 38.183C131.456 37.9629 131.386 37.7511 131.296 37.4765C131.985 37.7317 132.553 37.9009 133.083 37.3165C133.253 37.1293 133.496 37.5435 133.862 37.3165C134.364 37.004 135.04 36.9845 135.724 36.8195L135.808 36.248C135.868 36.2184 135.905 36.1837 135.936 36.1879C136.539 36.1726 137.138 36.0883 137.722 35.9368C138.305 35.7519 138.894 35.5878 139.485 35.4282C142.245 34.6885 144.891 33.5788 147.623 32.7604C149.561 32.1801 151.504 31.5828 153.475 31.089C155.133 30.6728 156.803 30.2433 158.441 29.7139C159.376 29.4664 160.323 29.2678 161.277 29.1189C161.575 29.0555 161.863 28.9339 162.16 28.8743C162.656 28.7739 163.157 28.7018 163.655 28.6177C164.159 28.5701 164.657 28.4812 165.147 28.3518C166.213 27.9819 167.35 28.0281 168.423 27.6453C169.026 27.4294 169.741 27.6176 170.406 27.379C170.947 27.1843 171.646 27.342 172.119 27.0641C172.667 26.7405 173.249 26.9213 173.807 26.6559C174.366 26.3905 175.114 26.6129 175.78 26.3784C176.043 26.286 176.447 26.5065 176.746 26.6656C176.917 26.8027 177.131 26.8721 177.348 26.8612C177.565 26.8502 177.771 26.7596 177.928 26.6059C178.695 26.1902 179.505 25.8645 180.342 25.635C180.799 26.0918 181.196 25.6784 181.742 25.5078C181.677 25.7811 181.641 25.9471 181.598 26.1089C181.562 26.2453 181.516 26.3794 181.451 26.593C182.017 26.4025 182.034 26.0016 181.974 25.5559C182.205 25.6923 182.394 25.8624 182.447 25.8255C182.729 25.6303 182.95 25.715 183.246 25.8125C183.451 25.88 183.739 25.6558 183.997 25.5961C184.159 25.5638 184.325 25.5638 184.486 25.5961C184.72 25.6391 184.902 26.0844 185.188 25.7029C185.458 25.3409 185.697 25.9281 185.859 25.7524C186.322 25.2512 186.659 25.8305 187.049 25.8675C187.38 25.899 187.812 25.9623 187.901 26.4686C187.957 26.5082 188.022 26.5346 188.09 26.5458C188.157 26.5571 188.227 26.553 188.293 26.5338C188.463 26.4233 188.605 26.2263 188.805 26.4177C189.351 26.9407 190.154 27.01 190.682 27.5672C190.806 27.7189 190.981 27.8171 191.173 27.8423C191.54 27.8155 191.691 28.0859 191.853 28.2949C192.076 28.5899 192.336 28.8541 192.625 29.0809C192.938 29.3214 193.141 29.6358 193.634 29.6677C194.01 29.6922 194.209 30.259 194.665 30.4306C195.94 30.9488 197.149 31.625 198.265 32.4442C199.398 33.1626 200.48 33.9631 201.502 34.8396C202.119 35.4158 202.771 35.9627 203.374 36.5629C204.34 37.5264 204.993 38.7471 205.853 39.7851C207.05 41.2276 207.737 42.9291 208.534 44.583C209.213 46.0712 209.722 47.6347 210.05 49.2427C210.276 50.2312 210.247 51.2956 210.744 52.2189C210.757 52.2595 210.757 52.3031 210.744 52.3437C210.561 53.3415 211.031 54.2778 210.998 55.2658C210.966 56.2313 211.014 57.1999 210.98 58.1653C210.966 58.5532 210.804 58.9338 210.755 59.3212C210.758 59.6833 210.682 60.0417 210.532 60.3694C210.375 60.638 210.461 61.0458 210.289 61.3981C210.188 61.6062 210.44 61.9803 210.496 62.2868C210.558 62.6252 210.534 62.9438 210.08 62.9674C209.987 63.6475 209.438 64.1829 209.344 64.7863C209.159 65.9741 208.252 66.7694 207.994 67.8814C207.439 68.2166 207.569 68.9749 207.06 69.3942C206.662 69.722 206.481 70.3143 206.163 70.7582C205.812 71.2483 205.414 71.7023 205.04 72.1753C204.967 72.2678 204.84 72.3885 204.86 72.4685C205.022 73.1962 204.464 73.506 204.082 73.9092C203.453 74.5717 202.833 75.2459 202.167 75.8673C201.05 76.9529 199.849 77.9442 198.576 78.8315C197.72 79.4016 197.029 80.2454 196.145 80.7443C195.161 81.2991 194.273 81.9838 193.325 82.5817C192.124 83.3395 190.881 84.0242 189.65 84.7298C188.352 85.4733 187.006 86.1169 185.718 86.8752C184.992 87.3856 184.232 87.8414 183.442 88.2391C182.325 88.6867 181.376 89.4149 180.34 89.9896C179.056 90.7017 177.882 91.6222 176.663 92.4582C175.615 93.1767 174.796 94.1555 173.891 95.0382C173.549 95.4358 173.151 95.7786 172.71 96.0553C172.266 96.3356 171.922 96.7552 171.729 97.2519C171.25 98.2236 170.85 99.2344 170.535 100.274C170.473 100.718 170.434 101.166 170.419 101.615C170.367 101.953 170.709 102.493 170.016 102.573C169.974 102.578 169.942 102.868 169.941 103.025C169.933 103.908 169.95 104.791 169.933 105.673C169.921 106.246 170.366 106.739 170.183 107.334C170.686 107.84 170.312 108.559 170.634 109.166C170.913 109.693 170.793 110.429 170.933 111.053C171.111 111.851 171.519 112.621 171.561 113.418C171.61 114.366 172.099 115.145 172.241 116.053C172.371 116.881 172.914 117.641 173.045 118.469C173.258 119.547 173.529 120.612 173.856 121.659C173.886 121.769 173.726 121.931 173.643 122.09L174.082 122.245C174.118 123.031 174.276 123.805 174.551 124.539C174.605 124.864 174.626 125.194 174.615 125.523C174.66 125.83 174.809 126.125 174.843 126.43C174.841 126.791 174.923 127.148 175.081 127.471C175.245 127.784 175.33 128.133 175.33 128.488C175.325 128.849 175.415 129.205 175.592 129.518C175.772 129.812 175.118 130.13 175.637 130.43C176 130.64 175.699 131.099 175.856 131.336C176.229 131.902 176.093 132.569 176.285 133.172C176.408 133.588 176.502 134.012 176.566 134.441C176.637 134.863 176.458 135.329 176.784 135.707C176.387 135.922 176.814 136.082 176.829 136.269C176.844 136.456 176.945 136.644 176.969 136.836C176.99 137.062 176.995 137.29 176.982 137.518C176.979 137.607 176.896 137.754 176.924 137.777C177.573 138.304 177.23 139.147 177.536 139.794C177.638 140.131 177.714 140.476 177.764 140.825C177.899 141.308 178.17 141.787 178.071 142.351C178.055 142.627 178.14 142.899 178.309 143.115C178.525 143.461 178.607 143.877 178.537 144.281C178.507 144.887 178.612 144.859 178.753 145.511C178.888 146.132 179.255 146.687 179.261 147.314C179.266 147.88 179.937 148.432 179.32 149.022C179.314 149.028 179.5 149.246 179.6 149.365C179.854 149.671 179.821 150.058 179.919 150.411C179.994 150.609 180.022 150.822 180.002 151.033C179.981 151.244 179.912 151.447 179.801 151.625L180.166 151.711C180.195 151.741 180.245 151.768 180.249 151.8C180.34 152.52 180.416 153.242 180.511 153.961C180.596 154.598 180.294 155.273 180.741 155.884C180.888 156.085 180.347 156.374 180.734 156.7C180.818 156.772 180.637 157.175 180.577 157.426L180.994 157.576C180.958 158.299 180.183 158.891 180.718 159.667C180.338 159.827 179.723 159.713 179.782 160.505L180.305 160.242C180.388 160.306 180.502 160.355 180.5 160.399C180.485 160.681 180.445 160.961 180.41 161.241C180.391 161.325 180.38 161.411 180.376 161.498C181.007 161.715 180.345 162.294 180.716 162.686C181.055 163.044 180.603 163.615 180.466 164.046C180.355 164.427 180.284 164.819 180.254 165.216C180.266 165.776 180.173 166.332 179.979 166.856C179.712 167.337 179.921 167.837 179.702 168.256C179.415 168.638 179.265 169.109 179.277 169.59C178.702 170.267 178.75 171.22 178.286 171.94C178.195 172.079 177.978 172.136 177.81 172.236V173.487C177.485 173.683 177.044 173.76 177.049 174.279C176.453 174.608 177.23 174.978 177.01 175.356C176.91 175.365 176.755 175.428 176.694 175.376C176.537 175.237 176.446 175.101 176.243 175.341C176.1 175.509 176.186 175.556 176.243 175.713C176.395 176.125 176.063 176.703 175.99 176.627C175.53 176.151 175.486 176.766 175.269 176.875C175.22 176.906 175.18 176.95 175.152 177.001C175.124 177.053 175.108 177.111 175.107 177.17C175.299 177.951 174.679 178.144 174.231 178.415C172.948 179.189 172.939 179.174 171.901 179.215C171.884 179.455 171.887 179.696 171.909 179.935C171.935 180.08 171.914 180.23 171.848 180.362C171.783 180.494 171.678 180.6 171.548 180.664C170.807 181.147 170.043 181.591 169.258 181.994C168.525 182.406 167.734 182.699 166.914 182.864C165.712 183.02 164.587 183.567 163.336 183.484C162.153 183.405 160.96 183.455 159.772 183.47C158.507 183.486 157.321 183.095 156.11 182.803C155.293 182.612 154.497 182.335 153.734 181.979C153.237 181.722 152.677 181.624 152.125 181.696C151.382 181.749 150.641 181.574 149.995 181.195C148.291 180.368 146.681 179.35 145.195 178.159C144.366 177.61 143.59 176.983 142.876 176.285C141.698 174.969 140.777 173.432 140.163 171.759C139.735 170.755 139.216 169.794 138.614 168.889C137.479 167.122 136.764 165.426 135.714 163.186C134.839 161.319 134.2 159.368 133.461 157.459C133.071 156.455 132.632 155.457 132.297 154.421C131.997 153.37 131.568 152.363 131.018 151.425C130.664 150.862 130.451 150.149 130.09 149.563C129.457 148.451 128.888 147.302 128.388 146.121C127.738 144.716 127.022 143.331 126.461 141.897C125.96 140.617 125.17 139.516 124.672 138.244C124.179 136.984 123.504 135.798 122.892 134.588C122.376 133.413 121.462 132.471 120.319 131.936C119.583 131.636 118.936 131.142 118.446 130.503ZM115.132 126.326L115.306 126.148C115.24 126.088 115.171 125.973 115.11 125.979C114.635 126.025 114.059 126.019 113.893 125.843C113.244 125.15 112.439 125.424 111.739 125.561C111.088 125.768 110.464 126.055 109.88 126.414C109.694 126.526 109.494 126.61 109.285 126.663C109.198 126.675 109.09 126.394 108.942 126.624C108.845 126.776 108.766 126.941 108.553 127.331C109.295 127.028 109.783 127.903 110.368 127.243C110.379 127.231 110.659 127.381 110.668 127.474C110.667 127.527 110.679 127.579 110.705 127.625C110.731 127.671 110.768 127.709 110.813 127.734C110.859 127.76 110.91 127.772 110.962 127.769C111.013 127.767 111.063 127.75 111.106 127.72C111.732 127.343 112.426 127.557 113.089 127.45L113.175 126.899L113.72 127.454L113.581 127.504L114.127 128.065C114.233 127.67 113.857 126.958 114.631 126.707C114.803 126.863 115.017 126.96 115.245 126.984C115.472 127.009 115.702 126.959 115.901 126.843C115.62 126.654 115.376 126.488 115.132 126.326ZM81.0317 38.3263L79.5289 37.5255L79.2134 37.8149L79.4176 38.0521L77.7782 39.3722C77.8233 39.4277 77.9743 39.5682 77.9549 39.6034C77.7746 39.9081 77.5493 40.1841 77.364 40.4874C76.9538 41.1661 76.4833 41.8366 76.852 42.7294C77.3861 42.353 77.6759 41.5998 78.4453 41.672C78.3651 41.4616 78.1911 41.2142 78.2497 41.1213C78.4826 40.6546 78.8068 40.2422 79.2021 39.9099C79.5935 39.6819 79.8999 39.3268 80.0729 38.9006C80.2271 38.355 80.5917 38.5233 81.0317 38.3263ZM172.053 174.418C172.351 174.012 172.626 173.59 172.879 173.154C173.582 171.775 174.746 170.624 174.873 168.955C174.877 168.892 174.988 168.842 175.038 168.776C175.418 168.314 175.613 167.723 175.585 167.12C175.569 166.479 175.711 165.844 175.999 165.275C176.041 165.211 176.071 165.138 176.085 165.062C176.099 164.986 176.097 164.907 176.08 164.831C176.063 164.756 176.031 164.684 175.986 164.622C175.941 164.559 175.884 164.507 175.818 164.469C175.637 164.658 175.482 164.873 175.359 165.107C175.228 165.473 175.212 165.882 175.095 166.257C174.773 167.294 174.581 168.38 174.017 169.329C173.925 169.456 173.878 169.611 173.882 169.769C173.921 170.068 173.894 170.373 173.8 170.66C173.707 170.947 173.551 171.208 173.344 171.423C172.672 172.246 172.515 173.365 171.657 174.012L172.053 174.418ZM171.808 145.051C171.639 145.393 171.411 145.722 171.461 145.774C171.808 146.142 171.621 146.57 171.65 146.964C171.719 147.379 171.713 147.803 171.631 148.216C171.508 148.61 172.082 148.924 171.671 149.282C172.059 149.599 171.874 150.042 171.896 150.432C171.922 150.851 171.902 151.272 171.902 151.693C171.902 153.289 171.9 154.886 171.906 156.483C171.92 156.644 171.948 156.803 171.99 156.959C172.08 156.292 172.316 155.671 172.362 155.053C172.471 153.578 172.344 152.094 172.619 150.617C172.735 149.994 172.48 149.33 172.443 148.706C172.328 147.472 172.115 146.25 171.808 145.051V145.051ZM187.903 42.0973C188.128 42.2499 188.319 42.3808 188.512 42.5037C188.706 42.6267 188.905 42.7423 189.102 42.8612C188.781 43.4622 188.782 43.4576 189.183 43.7554C189.339 43.8719 189.566 44.0171 189.589 44.1715C189.671 44.786 190.036 44.4262 190.207 44.4549C190.169 44.011 190.134 43.5921 190.098 43.1737C190.623 42.8251 190.116 42.4714 190.081 42.1297C190.031 41.9012 189.914 41.6935 189.747 41.5337C189.718 41.5018 189.454 41.6932 189.265 41.8C189.127 41.4958 189.018 41.2549 188.842 40.8651L189.563 41.168C189.781 40.6196 189.182 40.83 189.134 40.603C189.101 40.2959 189.097 39.9862 189.121 39.6783H187.463L187.238 39.0559C187.173 40.0297 187.173 40.0297 187.588 40.3995L187.736 39.9534L188.326 40.5207L188.915 40.185C188.807 40.9609 188.263 41.1056 187.904 41.3922L187.903 42.0973ZM197.487 73.4778C197.648 73.4944 197.757 73.5411 197.8 73.5046C198.498 72.8994 199.222 72.3196 199.873 71.6635C201.185 70.2774 202.337 68.7415 203.308 67.0861C203.835 66.3675 204.238 65.5619 204.501 64.704C204.595 64.293 204.26 64.3855 204.219 64.1926C203.376 65.8682 202.625 67.6035 201.434 69.0474C200.185 70.5552 198.832 71.9756 197.487 73.4778ZM71.6293 39.8419C70.7972 40.3043 70.5083 41.1421 70.1265 41.9124C69.7659 42.6388 69.5973 43.4604 69.2701 44.1877C68.9171 44.9748 68.7181 45.8252 68.6841 46.6909C68.6494 47.5629 68.0775 48.4053 68.5106 49.3143C68.6412 49.1157 68.7563 48.9068 68.855 48.6897C68.9091 48.5436 68.855 48.3591 68.8906 48.201C69.0159 47.6272 69.1583 47.0575 69.294 46.4865C69.44 45.8707 69.7276 45.2844 69.6379 44.6204C70.2743 43.256 70.5141 41.7224 71.3417 40.4388C71.4506 40.2468 71.5466 40.0473 71.6293 39.8419ZM190.065 64.4936L189.858 64.372C189.72 64.6204 189.548 64.8479 189.349 65.048C189.115 65.227 188.726 65.2237 188.54 65.429C188.14 65.8023 187.677 66.0965 187.172 66.2969C187.012 67.0662 186.313 67.2831 185.807 67.6973C185.409 68.021 184.998 68.3322 184.62 68.6785C184.508 68.7811 184.485 68.986 184.423 69.1441C184.836 68.9712 185.063 68.5846 185.531 68.7169C185.879 68.8153 185.844 68.4982 185.975 68.3229C186.084 68.1773 186.571 68.2161 186.584 68.126C186.658 67.6271 187.052 67.5489 187.371 67.3423C187.745 67.1299 188.086 66.8593 188.38 66.5401C188.65 66.2072 188.997 66.2321 189.312 66.1355C189.234 65.9334 189.159 65.7383 189.037 65.4221H190.065V64.4936Z" fill="#EDEAEA"/>
<path d="M551.807 74.8089C553.043 75.6831 555.118 76.1116 552.418 77.7577C550.983 78.6327 552.407 81.0148 551.231 82.8567C550.6 83.8452 549.877 85.7183 549.303 87.2214C548.927 88.2062 547.838 88.9423 548.743 90.1646C549.022 90.5409 549.068 90.9945 548.596 91.1754C546.187 92.0988 546.653 94.4229 546.308 96.2453C544.896 103.694 544.013 111.28 544.306 118.81C544.725 129.569 545.803 140.324 548.398 150.834C548.446 151.031 548.614 151.253 548.566 151.413C548.114 152.909 552.229 154.173 548.881 155.72C544.311 157.832 542.136 157.362 540.643 153.836C538.887 149.689 537.306 145.453 535.885 141.174C530.736 125.665 530.416 109.784 533.2 93.8573C535.075 83.1312 539.615 73.3912 545.802 64.5171C550.572 57.6754 555.697 51.1219 562.302 45.9879C564.602 44.2005 566.936 42.3039 569.548 41.1521C570.917 40.5486 572.049 39.6856 573.252 39.1099C577.922 36.8715 582.095 33.2934 587.679 33.1607C589.042 33.1284 590.148 31.5952 591.767 31.1036C607.042 26.4641 621.759 27.8349 635.422 36.0386C648.764 44.0487 661.011 53.6198 670.457 66.4421C672.581 69.3255 673.889 72.563 675.308 75.8491C676.938 79.6233 678.024 83.6709 680.188 87.2144C680.651 87.9728 681.158 88.8691 681.182 89.7162C681.321 94.7931 682.953 99.6231 683.388 104.664C683.827 110.316 683.721 115.999 683.071 121.63C682.6 126.104 682.703 130.667 682.441 135.157C682.122 140.635 679.956 145.806 678.074 150.963C676.338 155.721 673.846 160.063 671.37 164.429C670.962 165.148 670.902 165.979 669.782 165.833C669.594 165.829 669.409 165.873 669.241 165.96C669.074 166.047 668.93 166.175 668.822 166.332C665.895 174.043 657.507 180.513 651.097 183.293C643.042 186.787 634.62 189.093 625.914 189.227C618.837 189.314 611.836 187.716 605.468 184.558C600.447 182.11 595.368 179.833 590.531 176.983C583.808 173.021 579.854 166.943 577.304 159.752C575.195 153.696 573.416 147.525 571.974 141.269C570.49 135.002 572.415 129.232 574.577 123.741C577.194 117.123 580.916 111.02 585.579 105.705C588.678 102.036 593.026 99.7081 597.744 99.1923C604.435 98.3832 610.977 99.2347 617.445 101.006C622.851 102.486 627.212 106.039 632.018 108.701C633.161 109.334 633.315 110.612 632.42 111.89C631.663 112.973 631.432 114.136 633.029 114.801C633.16 114.64 633.227 114.567 633.283 114.487C633.997 113.425 632.163 111.643 633.969 111.071C635.604 110.553 636.698 111.986 637.772 113.055C642.291 117.55 645.048 122.955 645.309 129.43C645.526 134.794 646.332 140.077 644.336 145.503C640.305 156.457 634.46 158.633 623.796 160.099C620.292 160.58 617.178 158.988 613.97 157.893C604.408 154.627 604.048 144.941 609.036 138.631C610.973 141.403 607.732 144.36 609.385 147.673C610.477 145.01 610.337 142.64 610.904 140.443C611.156 139.465 611.32 137.503 612.418 137.958C613.722 138.498 615.562 137.095 616.631 140.037C617.772 143.172 618.982 146.587 620.976 149.448C622.674 151.884 625.553 151.881 627.155 149.499C631.64 142.832 633.344 135.263 632.665 127.425C632.227 122.362 628.9 118.277 624.811 115.35C620.51 112.271 616.265 109.008 611.066 107.485C609.504 107.028 603.438 105.931 601.818 106.333C600.591 106.647 599.502 107.369 598.723 108.387C598.293 108.926 598.136 110.282 596.76 109.278C596.105 108.8 595.179 109.903 595.641 110.364C597.19 111.911 595.715 112.867 595.092 113.739C591.67 118.529 589.887 124.174 587.221 129.353C586.655 130.442 586.391 131.668 586.457 132.899C586.523 134.13 586.917 135.32 587.596 136.34C588.252 137.258 588.554 138.391 588.444 139.522C587.679 144.948 590.654 149.105 592.646 153.663C593.826 156.366 593.765 159.527 595.476 162.162C598.237 166.39 602.026 169.813 606.471 172.094C611.348 174.649 616.355 177.077 621.675 178.553C629.37 180.688 636.175 178.042 642.698 174.076C645.222 172.541 646.806 169.661 650.059 169.006C650.566 168.903 651.079 166.183 652.007 164.78C660.813 151.462 665.166 136.562 667.228 120.749C668.552 110.588 667.049 100.866 664.359 91.1778C660.275 76.4665 651.074 65.3679 640.06 55.6643C634.561 50.7347 628.704 46.2382 622.54 42.2133C613.613 36.4935 604.416 35.8274 594.62 39.814C590.142 41.6363 585.723 43.6756 581.272 45.526C579.477 46.2719 576.779 47.482 575.36 50.288C574.127 52.7257 571.002 54.1962 569.02 56.5053C566.889 58.9896 563.898 60.6715 562.468 63.843C562.099 64.6616 561.76 64.628 561.4 63.7015C561.36 63.5814 561.28 63.4789 561.175 63.4109C561.07 63.3429 560.946 63.3135 560.822 63.3275C560.699 63.3415 560.584 63.398 560.496 63.4878C560.408 63.5776 560.353 63.6953 560.339 63.8216C560.49 67.5204 556.42 69.1882 556.379 73.0057C556.351 75.3097 553.412 73.553 551.807 74.8089ZM540.298 83.0045C534.162 89.3667 532.232 124.144 536.727 133.207C535.123 116.261 534.769 99.4154 540.298 83.0045ZM664.785 150.071C665.792 147.557 666.922 145.087 667.786 142.523C671.243 132.261 672.258 121.552 672.953 110.822C673.013 109.909 672.972 107.579 670.546 107.533C671.994 122.241 668.181 136.081 664.785 150.071ZM633.627 144.903C634.138 143.636 634.585 142.337 635.172 141.108C636.999 137.278 636.135 133.107 636.663 129.114C636.709 128.75 636.614 128.382 636.4 128.087C636.186 127.792 635.868 127.593 635.513 127.532C634.599 127.395 634.651 128.234 634.775 128.793C635.98 134.259 634.211 139.399 633.627 144.903ZM577.381 127.041C575.432 129.928 575.074 133.162 575.353 136.533C577.015 133.584 576.873 130.242 577.381 127.041ZM545.745 91.6089C545.05 92.4693 544.587 93.1058 544.059 93.6794C543.344 94.4557 543.424 95.3061 543.758 96.1832C543.901 96.5577 544.246 97.0135 544.616 96.7505C545.295 96.2675 545.409 95.4891 545.343 94.6359C545.276 93.7692 546.262 93.0981 545.745 91.6089Z" fill="#EDEAEA"/>
<path d="M921.959 243.242C922.803 244.441 924.11 244.432 925.107 244.988C925.688 245.313 926.583 246.052 926.249 246.323C923.884 248.246 925.02 252.386 921.496 253.489C907.191 257.967 894.78 266.457 880.978 272.001C880.009 272.39 879.065 272.842 878.099 273.242C872.52 275.556 872.519 275.554 871.544 269.932C870.541 264.148 870.696 263.672 876.082 260.447C887.272 253.746 898.502 247.106 910.064 241.04C913.67 239.148 917.453 237.613 921.705 238.427C922.858 238.63 923.975 238.993 925.024 239.505C925.92 239.964 926.999 240.702 926.669 241.871C926.328 243.084 925.159 242.449 924.308 242.422C923.529 242.394 922.738 242.311 921.959 243.242Z" fill="#EDEAEA"/>
<path d="M298.874 210.021C294.953 209.549 290.737 208.894 286.498 208.613C285.017 208.515 283.602 208.941 282.815 207.231C282.653 206.879 282.395 206.364 282.526 206.112C284.747 201.838 284.95 196.994 286.291 192.478C287.189 189.454 288.579 186.655 291.24 184.808C291.771 184.44 292.582 184.493 293.264 184.352C293.377 185.042 293.708 185.782 293.57 186.415C292.565 191.015 291.508 195.604 290.37 200.172C290.013 201.604 290.55 201.883 291.784 202.094C294.629 202.58 297.436 203.297 300.277 203.818C301.491 204.041 302.749 204.012 303.988 204.084C304.092 204.09 304.216 203.928 304.306 203.951C305.229 204.178 306.88 204.323 306.929 204.688C307.057 205.826 306.827 206.977 306.272 207.972C304.59 210.847 301.703 209.851 298.874 210.021Z" fill="#EDEAEA"/>
<path d="M292.656 200.919C296.162 199.016 299.855 197.671 303.433 195.985C311.041 192.4 318.058 187.795 325.157 183.28C335.09 176.963 342.989 168.817 351.474 161.2C359.61 153.897 368.262 147.28 377.996 141.912C382.704 139.349 387.664 137.394 392.67 136.128C398.074 134.716 403.483 133.41 408.881 132.356C415.691 131.027 422.196 128.279 428.522 124.838C433.731 122.031 438.821 118.983 443.761 115.713C447.599 113.15 450.783 110.035 453.583 106.624C455.43 104.383 457.582 102.304 459.97 100.456C460.504 100.031 461.11 99.6917 461.744 99.4641C462.312 99.2647 463.188 98.7602 462.603 99.9236C462.506 100.115 462.837 100.078 462.901 100.177C463.238 100.701 463.105 101.272 462.351 101.734C459.72 103.35 457.839 105.545 456.007 107.732C453.783 110.387 451.759 113.153 449.158 115.593C446.527 118.061 443.864 120.487 440.604 122.361C438.383 123.683 436.231 125.119 434.163 126.657C432.836 127.613 431.342 128.215 429.952 128.958C429.025 129.454 428.402 130.176 427.518 130.623C426.39 131.193 425.29 131.838 424.174 132.441C421.072 134.118 417.855 135.405 414.623 136.684C408.868 138.961 403.06 139.655 397.286 141.388C392.951 142.689 388.575 143.732 384.299 145.394C381.803 146.365 379.368 147.775 377.006 149.165C366.986 155.061 358.27 162.364 350.077 170.202C347.333 172.828 344.575 175.461 341.717 177.976C339.401 180.043 336.983 182.022 334.475 183.903C331.33 186.23 328.172 188.53 324.894 190.657C316.324 196.217 307.452 201.115 297.912 204.395C297.317 204.556 296.724 204.749 296.137 204.974C293.674 206.115 291.997 205.381 290.374 204.524C289.746 204.192 290.093 202.487 290.88 201.973C291.456 201.597 292.063 201.268 292.656 200.919ZM308.685 194.873C303.502 197.608 298.054 199.578 292.836 202.215C298.788 200.081 306.884 196.312 308.685 194.873ZM313.068 197.264L313.121 197.37L322.342 191.931L322.284 191.827L313.068 197.264Z" fill="#EDEAEA"/>
</svg>
