<svg width="1920" height="762" viewBox="0 0 1920 762" fill="none" xmlns="http://www.w3.org/2000/svg">
<path d="M1025.71 171.901C1025.35 172.472 1024.75 171.731 1024.39 172.193C1023.96 171.721 1023.37 172.011 1022.86 171.851C1022.61 171.908 1023.12 171.134 1022.47 171.483C1021.98 171.634 1021.47 171.698 1020.95 171.672L1020.75 170.589L1020.51 171.294L1019.44 170.56L1019.68 169.693C1019.39 169.493 1019.06 169.37 1018.71 169.335C1018.36 169.301 1018.02 169.355 1017.7 169.494L1019.19 170.232L1018.81 171.054C1018.56 170.931 1018.74 170.148 1018.08 170.639L1018.43 171.446C1018.32 171.504 1018.24 171.586 1018.2 171.566C1017.75 171.318 1017.3 171.056 1016.85 170.796C1016.43 171.589 1015.67 171.878 1014.75 172.166L1015.01 171.417C1014.74 171.247 1014.64 170.711 1014.07 170.773L1014.3 172.041C1013.85 172.25 1013.79 172.375 1013.93 172.676C1013.29 173.201 1013.18 172.194 1012.67 172.134L1012.54 173.012C1012.27 172.968 1012.12 172.597 1011.74 172.907C1011.21 173.337 1010.5 173.53 1009.97 173.963C1009.45 174.397 1009.02 174.186 1008.5 173.944L1008.44 174.763C1007.72 174.624 1007.16 175.113 1006.52 175.325C1004.97 175.834 1003.49 176.501 1001.98 177.088C1000.63 177.613 999.314 178.222 997.975 178.777C996.872 179.235 995.768 179.695 994.649 180.109C993.13 180.672 991.667 181.386 990.167 181.998C988.995 182.476 987.821 183.018 986.653 183.544C986.267 183.718 985.921 184.069 985.428 183.943C985.364 183.937 985.3 183.945 985.239 183.967C985.178 183.988 985.122 184.022 985.075 184.067C984.019 185.054 982.516 185.055 981.388 185.88C981.313 185.929 981.223 185.948 981.136 185.932C979.99 185.697 979.152 186.481 978.216 186.906C976.734 187.584 975.196 188.122 973.621 188.515C973.283 188.57 972.954 188.671 972.641 188.815C972.364 188.972 972.069 188.856 971.827 188.969C971.506 189.108 971.216 189.313 970.973 189.573C970.655 189.94 970.449 189.19 970.075 189.569C969.803 189.845 969.263 189.811 968.892 190.013C968.286 190.344 967.515 190.212 966.984 190.786C966.874 190.905 966.507 190.879 966.321 190.786C965.983 190.617 965.859 190.561 965.647 191.007C965.53 191.251 964.964 191.304 964.586 191.367C963.393 191.563 962.32 192.277 961.073 192.234C960.106 192.931 958.934 192.86 957.86 193.156C957.613 193.224 957.372 193.324 957.122 193.374C956.655 193.468 956.183 193.256 955.696 193.626C955.353 193.888 954.73 193.463 954.302 193.932C954.219 194.023 953.851 193.938 953.686 193.824C953.251 193.522 953.463 194.006 953.365 194.059C953.21 194.144 952.969 194.05 952.805 194.127C952.083 194.48 951.278 194.615 950.485 194.514C949.076 194.325 947.73 194.881 946.328 194.845C945.905 194.834 945.47 195.143 945.042 194.81C944.246 195.235 943.448 194.631 942.654 194.813C942.321 194.889 941.925 195.171 941.679 195.062C941.043 194.862 940.379 194.773 939.715 194.8C939.061 194.745 938.413 194.618 937.762 194.523C937.676 194.51 937.54 194.531 937.51 194.481C937.229 194.035 936.778 194.3 936.47 194.187C935.768 193.929 934.998 194.092 934.332 193.678C933.888 193.451 933.481 193.154 933.126 192.797L932.823 193.467C931.813 192.666 930.324 192.792 929.484 191.414H928.463C928.335 191.177 928.233 190.827 928.133 190.828C927.431 190.832 926.849 190.792 926.899 189.795C926.907 189.641 926.526 189.466 926.066 189.088L926.463 190.295C925.928 189.928 925.543 189.677 925.178 189.403C924.813 189.172 924.482 188.888 924.194 188.56C923.902 188.16 923.411 188.039 923.157 187.607C922.94 187.212 922.677 186.846 922.374 186.518C922.05 186.191 921.885 185.746 921.452 185.469C921.164 185.286 921.108 184.71 920.947 184.302L921.278 183.93L921.7 184.321C921.663 184.023 921.691 183.83 921.613 183.712C921.275 183.289 920.835 182.968 920.338 182.78C920.145 182.683 919.894 182.559 919.826 182.382C919.731 182.135 919.85 181.798 919.751 181.555C919.671 181.359 919.246 181.24 919.246 181.093C919.258 180.345 918.757 179.683 918.943 178.921C918.425 177.706 918.753 176.424 918.668 175.175C918.512 172.855 919.142 170.668 919.876 168.539C920.719 166.147 921.921 163.91 923.44 161.91C924.496 160.497 925.5 159.051 926.653 157.712C928.211 155.855 929.648 153.893 930.956 151.838C931.363 151.215 931.562 150.478 932.006 149.85C932.402 149.222 932.701 148.533 932.893 147.809C933.069 147.159 933.194 146.495 933.267 145.823C933.345 145.287 933.115 144.707 933.534 144.213C933.616 144.116 933.543 143.85 933.5 143.673C933.449 143.463 933.292 143.265 933.282 143.056C933.189 141.603 932.779 140.191 932.083 138.927C931.387 137.663 930.423 136.581 929.265 135.762C927.887 134.734 926.413 133.907 925.006 132.956C923.023 131.615 920.916 130.497 918.946 129.138C917.412 128.081 915.787 127.167 914.204 126.187C912.429 125.085 910.54 124.175 908.965 122.747C908.097 122.6 907.637 121.769 906.878 121.418C906.03 121.025 905.464 120.214 904.685 119.681C903.825 119.007 903.011 118.274 902.247 117.486C901.84 116.992 901.355 116.573 900.813 116.247C900.473 116.088 900.201 115.805 900.049 115.451C899.805 114.793 899.262 114.446 898.854 113.962C896.878 111.695 895.365 109.035 894.406 106.144C894.015 104.922 893.879 103.625 893.334 102.457C893.525 101.42 893.013 100.455 893.051 99.4272C893.087 98.4265 892.886 97.3807 893.101 96.4319C893.422 95.0082 893.383 93.4739 894.162 92.1735C894.414 90.2099 896.261 86.7512 897.099 85.4236C898.129 83.9265 899.354 82.5845 900.738 81.4355C901.429 80.7603 902.27 80.2735 903.186 80.0187C903.806 79.8754 904.368 79.5464 905.01 79.3889C905.53 79.1865 906.102 79.1756 906.63 79.358C906.841 79.4467 907.163 79.2006 907.438 79.1848C907.942 79.1434 908.449 79.1446 908.953 79.1885C909.327 79.2278 909.676 79.6083 910.073 79.2504C910.499 79.6949 911.044 79.3176 911.5 79.4729C911.9 79.6093 912.258 79.8854 912.656 80.025C913.303 80.2506 913.972 80.4091 914.625 80.6106C914.831 80.6666 915.027 80.7551 915.207 80.873C916.247 81.6118 917.491 81.8275 918.634 82.2982C919.855 82.802 921.139 83.1572 922.316 83.7675C923.156 84.2051 924.06 84.4759 924.92 84.8364C925.824 85.2158 926.693 85.6902 927.613 86.0276C929.468 86.7944 931.284 87.6598 933.053 88.6204C935.357 89.7525 937.655 90.8973 939.948 92.0549C943.959 94.0847 947.958 96.1428 951.975 98.1615C952.958 98.6821 953.981 99.1152 955.034 99.4561C955.545 99.6088 955.948 99.943 956.448 100.067C957.199 100.255 957.945 100.469 958.701 100.633C959.31 100.681 959.913 100.787 960.503 100.951C961.467 101.371 962.508 101.385 963.496 101.72C964.539 102.074 965.657 101.607 966.54 100.838C966.926 100.503 967.247 100.088 967.619 99.7337C969.076 98.3452 969.423 96.6859 968.815 94.7543C968.481 93.921 968.293 93.0325 968.26 92.1305C967.707 91.6057 968.272 90.743 967.73 90.212C967.847 89.1625 967.554 88.1198 967.92 87.0246C968.216 86.2517 968.338 85.4184 968.277 84.5887C968.014 82.379 968.47 80.1808 968.6 77.9873C968.736 76.4264 969.032 74.885 969.483 73.3894C969.767 72.3546 970.219 71.4006 970.565 70.4099C971.041 69.3085 971.647 68.2731 972.37 67.3275C973.781 65.298 975.57 63.5829 977.63 62.2836C979.083 61.2711 980.657 60.4596 982.313 59.8697C983.005 59.6367 983.77 59.5611 984.461 59.3633C985.226 59.1439 986.016 59.3549 986.688 59.091C987.363 58.8488 988.083 58.773 988.792 58.8695C990.099 58.9876 991.401 59.2006 992.695 59.4294C993.943 59.7197 995.161 60.1351 996.331 60.6699C997.902 61.2672 999.38 62.0996 1000.72 63.141C1000.95 63.2733 1001.16 63.4342 1001.35 63.6201C1002.18 64.7352 1003.04 65.8293 1003.78 67.0116C1004.95 68.8759 1006.43 70.5088 1008.15 71.8341C1008.41 72.0962 1008.64 72.3874 1008.85 72.7025C1009.19 72.5253 1009.56 72.398 1009.94 72.3242C1010.28 72.2782 1010.62 72.1819 1010.94 72.0382C1011.29 71.9306 1011.67 71.9306 1012.02 72.0382C1012.38 72.1578 1012.57 71.6032 1012.96 71.9039C1013.06 71.9863 1013.38 71.7737 1013.6 71.694C1013.85 71.6352 1014.09 71.5472 1014.32 71.4316C1014.65 71.2217 1014.77 71.8451 1015.12 71.578C1015.31 71.4363 1015.64 71.5003 1015.89 71.4363C1016.18 71.3634 1016.45 71.2217 1016.74 71.1624C1017.15 71.08 1017.5 71.3382 1017.87 71.397C1018.13 71.4379 1018.43 70.973 1018.75 70.8906C1019.18 70.8396 1019.6 70.7519 1020.02 70.6282C1020.41 70.4613 1021.1 70.3133 1021.3 71.1335C1021.31 71.186 1021.71 71.1403 1021.96 71.1403L1021.66 70.5012C1022.11 70.3102 1022.44 69.7046 1022.98 70.2388C1023.17 69.924 1023.34 70.2661 1023.47 70.2504C1023.82 70.2047 1023.95 69.3058 1024.53 69.9476C1024.89 69.7626 1025.28 69.6068 1025.67 69.4816C1025.83 69.4412 1026.07 69.7335 1026.22 69.6884C1026.44 69.6228 1026.62 69.2203 1026.88 69.553C1027.13 69.862 1027.25 69.3924 1027.37 69.4931C1027.49 69.5939 1027.51 69.808 1027.57 69.9686C1028.5 69.6611 1028.5 69.6611 1028.73 68.8068C1028.97 68.9009 1029.2 69.0188 1029.41 69.1589C1029.57 69.3113 1029.71 69.4835 1029.83 69.6716L1030.28 68.8844C1032.22 69.415 1032.36 69.3725 1033.05 68.0527H1033.99L1034.23 68.5974C1034.4 67.8785 1034.4 67.8785 1035.1 67.4823C1035.39 67.4004 1034.87 68.25 1035.5 67.8438C1035.67 67.7338 1035.87 67.6789 1036.07 67.6861C1036.27 67.6933 1036.46 67.7623 1036.62 67.8843C1036.74 67.9341 1036.86 67.9597 1036.98 67.9597C1037.11 67.9597 1037.23 67.9341 1037.35 67.8843C1037.78 67.7137 1038.4 67.719 1038.32 66.9187C1038.31 66.7807 1038.54 66.5309 1038.9 66.7943C1039.26 67.0499 1039.81 67.0142 1040.36 67.1239C1040.28 66.8741 1040.2 66.6338 1040.1 66.3221C1040.87 66.6117 1041.51 66.8038 1042.1 66.1405C1042.29 65.928 1042.57 66.3981 1042.98 66.1405C1043.54 65.7858 1044.3 65.7637 1045.06 65.5764L1045.16 64.9278C1045.22 64.8942 1045.27 64.8548 1045.3 64.8596C1045.98 64.8422 1046.65 64.7466 1047.3 64.5746C1047.95 64.3647 1048.61 64.1784 1049.28 63.9974C1052.37 63.1578 1055.33 61.8984 1058.39 60.9696C1060.57 60.311 1062.74 59.633 1064.95 59.0726C1066.81 58.6003 1068.68 58.1128 1070.52 57.512C1071.56 57.2311 1072.62 57.0057 1073.69 56.8366C1074.03 56.7647 1074.35 56.6267 1074.68 56.559C1075.24 56.4451 1075.8 56.3633 1076.36 56.2678C1076.92 56.2138 1077.48 56.1129 1078.03 55.966C1079.22 55.5462 1080.5 55.5987 1081.7 55.1642C1082.37 54.9192 1083.18 55.1327 1083.92 54.862C1084.53 54.641 1085.31 54.82 1085.84 54.5046C1086.45 54.1373 1087.11 54.3425 1087.73 54.0412C1088.36 53.74 1089.2 53.9924 1089.94 53.7264C1090.24 53.6214 1090.69 53.8718 1091.02 54.0523C1091.22 54.2079 1091.45 54.2867 1091.7 54.2743C1091.94 54.2619 1092.17 54.159 1092.35 53.9846C1093.21 53.5127 1094.11 53.1431 1095.05 52.8826C1095.56 53.401 1096.01 52.9319 1096.62 52.7383C1096.55 53.0484 1096.51 53.2368 1096.46 53.4205C1096.42 53.5753 1096.37 53.7274 1096.3 53.9699C1096.93 53.7537 1096.95 53.2987 1096.88 52.7929C1097.14 52.9477 1097.35 53.1408 1097.41 53.0988C1097.73 52.8773 1097.97 52.9734 1098.31 53.0841C1098.54 53.1607 1098.86 52.9062 1099.15 52.8385C1099.33 52.8018 1099.51 52.8018 1099.7 52.8385C1099.96 52.8873 1100.16 53.3927 1100.48 52.9597C1100.78 52.5489 1101.05 53.2153 1101.23 53.0159C1101.75 52.447 1102.13 53.1046 1102.57 53.1465C1102.94 53.1822 1103.42 53.2541 1103.52 53.8287C1103.58 53.8737 1103.66 53.9036 1103.73 53.9164C1103.81 53.9291 1103.89 53.9245 1103.96 53.9027C1104.15 53.7773 1104.31 53.5537 1104.53 53.771C1105.15 54.3645 1106.05 54.4432 1106.64 55.0755C1106.78 55.2477 1106.97 55.3592 1107.19 55.3878C1107.6 55.3573 1107.77 55.6643 1107.95 55.9015C1108.2 56.2363 1108.49 56.5362 1108.81 56.7936C1109.16 57.0665 1109.39 57.4233 1109.94 57.4595C1110.37 57.4873 1110.59 58.1307 1111.1 58.3253C1112.53 58.9135 1113.88 59.681 1115.13 60.6106C1116.4 61.426 1117.61 62.3346 1118.76 63.3294C1119.45 63.9832 1120.18 64.604 1120.86 65.2851C1121.94 66.3787 1122.67 67.7641 1123.63 68.9422C1124.98 70.5794 1125.75 72.5105 1126.64 74.3875C1127.4 76.0765 1127.97 77.8511 1128.34 79.676C1128.59 80.7979 1128.56 82.0059 1129.11 83.0538C1129.13 83.0999 1129.13 83.1494 1129.11 83.1955C1128.91 84.3279 1129.44 85.3906 1129.4 86.512C1129.36 87.6076 1129.42 88.707 1129.38 89.8027C1129.36 90.243 1129.18 90.6748 1129.13 91.1146C1129.13 91.5255 1129.05 91.9322 1128.88 92.3042C1128.7 92.6091 1128.8 93.0719 1128.6 93.4718C1128.49 93.7079 1128.77 94.1324 1128.84 94.4803C1128.91 94.8645 1128.88 95.226 1128.37 95.2528C1128.27 96.0247 1127.65 96.6324 1127.55 97.3172C1127.34 98.6653 1126.32 99.5678 1126.03 100.83C1125.41 101.21 1125.56 102.071 1124.99 102.547C1124.54 102.919 1124.34 103.591 1123.98 104.095C1123.59 104.651 1123.14 105.166 1122.72 105.703C1122.64 105.808 1122.5 105.945 1122.52 106.036C1122.7 106.862 1122.08 107.213 1121.65 107.671C1120.95 108.423 1120.25 109.188 1119.5 109.893C1118.25 111.126 1116.91 112.251 1115.48 113.258C1114.52 113.905 1113.75 114.862 1112.76 115.429C1111.66 116.058 1110.66 116.835 1109.6 117.514C1108.25 118.374 1106.86 119.151 1105.48 119.952C1104.03 120.796 1102.52 121.526 1101.08 122.387C1100.26 122.966 1099.41 123.483 1098.53 123.935C1097.27 124.443 1096.21 125.269 1095.05 125.921C1093.61 126.73 1092.3 127.774 1090.93 128.723C1089.76 129.539 1088.84 130.65 1087.83 131.651C1087.44 132.103 1087 132.492 1086.5 132.806C1086 133.124 1085.62 133.6 1085.4 134.164C1084.87 135.267 1084.42 136.414 1084.06 137.594C1083.99 138.098 1083.95 138.606 1083.94 139.115C1083.88 139.499 1084.26 140.112 1083.48 140.203C1083.44 140.209 1083.4 140.537 1083.4 140.716C1083.39 141.718 1083.41 142.72 1083.39 143.721C1083.38 144.371 1083.88 144.931 1083.67 145.607C1084.23 146.181 1083.82 146.997 1084.18 147.685C1084.49 148.284 1084.35 149.119 1084.51 149.827C1084.71 150.733 1085.17 151.607 1085.21 152.511C1085.27 153.587 1085.82 154.472 1085.98 155.502C1086.12 156.442 1086.73 157.304 1086.88 158.244C1087.12 159.467 1087.42 160.676 1087.79 161.864C1087.82 161.989 1087.64 162.174 1087.55 162.354L1088.04 162.53C1088.08 163.421 1088.26 164.3 1088.56 165.133C1088.62 165.502 1088.65 165.876 1088.64 166.25C1088.69 166.599 1088.85 166.933 1088.89 167.279C1088.89 167.689 1088.98 168.094 1089.16 168.461C1089.34 168.816 1089.44 169.212 1089.44 169.615C1089.43 170.025 1089.53 170.429 1089.73 170.784C1089.93 171.118 1089.2 171.479 1089.78 171.819C1090.19 172.057 1089.85 172.578 1090.03 172.847C1090.44 173.489 1090.29 174.247 1090.51 174.931C1090.64 175.403 1090.75 175.884 1090.82 176.371C1090.9 176.85 1090.7 177.379 1091.07 177.808C1090.62 178.053 1091.1 178.234 1091.12 178.446C1091.13 178.659 1091.25 178.871 1091.27 179.089C1091.3 179.346 1091.3 179.605 1091.29 179.863C1091.28 179.965 1091.19 180.131 1091.22 180.157C1091.95 180.756 1091.57 181.713 1091.91 182.446C1092.02 182.829 1092.11 183.22 1092.16 183.617C1092.32 184.165 1092.62 184.708 1092.51 185.348C1092.49 185.662 1092.59 185.971 1092.77 186.216C1093.02 186.608 1093.11 187.081 1093.03 187.54C1093 188.227 1093.11 188.195 1093.27 188.935C1093.42 189.64 1093.83 190.269 1093.84 190.981C1093.85 191.623 1094.6 192.25 1093.91 192.92C1093.9 192.927 1094.11 193.174 1094.22 193.309C1094.51 193.656 1094.47 194.096 1094.58 194.496C1094.66 194.721 1094.69 194.962 1094.67 195.202C1094.65 195.441 1094.57 195.672 1094.45 195.874L1094.85 195.972C1094.89 196.005 1094.94 196.036 1094.95 196.073C1095.05 196.89 1095.14 197.709 1095.24 198.525C1095.34 199.248 1095 200.014 1095.5 200.708C1095.66 200.936 1095.06 201.264 1095.49 201.634C1095.59 201.715 1095.38 202.173 1095.32 202.458L1095.78 202.628C1095.74 203.449 1094.87 204.121 1095.47 205.001C1095.05 205.183 1094.36 205.053 1094.43 205.953L1095.01 205.654C1095.1 205.727 1095.23 205.783 1095.23 205.832C1095.21 206.152 1095.17 206.47 1095.13 206.788C1095.11 206.883 1095.09 206.981 1095.09 207.079C1095.8 207.325 1095.06 207.982 1095.47 208.427C1095.85 208.834 1095.35 209.482 1095.19 209.971C1095.07 210.404 1094.99 210.849 1094.95 211.299C1094.97 211.934 1094.86 212.566 1094.65 213.16C1094.35 213.706 1094.58 214.274 1094.34 214.749C1094.01 215.182 1093.85 215.717 1093.86 216.264C1093.21 217.031 1093.27 218.113 1092.75 218.93C1092.65 219.088 1092.4 219.153 1092.22 219.266V220.686C1091.85 220.909 1091.36 220.996 1091.36 221.586C1090.7 221.959 1091.57 222.379 1091.32 222.807C1091.21 222.818 1091.03 222.889 1090.97 222.83C1090.79 222.672 1090.69 222.518 1090.46 222.79C1090.3 222.981 1090.4 223.034 1090.46 223.212C1090.63 223.68 1090.26 224.336 1090.18 224.25C1089.66 223.709 1089.61 224.408 1089.37 224.531C1089.31 224.567 1089.27 224.616 1089.24 224.675C1089.21 224.733 1089.19 224.799 1089.19 224.866C1089.4 225.752 1088.71 225.972 1088.21 226.279C1086.77 227.158 1086.76 227.141 1085.6 227.187C1085.58 227.459 1085.58 227.733 1085.6 228.004C1085.63 228.169 1085.61 228.34 1085.54 228.489C1085.46 228.639 1085.35 228.759 1085.2 228.832C1084.37 229.38 1083.51 229.884 1082.63 230.342C1081.81 230.809 1080.93 231.141 1080.01 231.328C1078.66 231.506 1077.4 232.127 1076 232.032C1074.67 231.943 1073.34 232 1072.01 232.017C1070.59 232.035 1069.26 231.591 1067.9 231.259C1066.99 231.042 1066.1 230.729 1065.24 230.324C1064.68 230.033 1064.06 229.921 1063.44 230.003C1062.61 230.063 1061.78 229.865 1061.05 229.434C1059.14 228.495 1057.34 227.34 1055.67 225.989C1054.75 225.366 1053.88 224.654 1053.08 223.862C1051.76 222.368 1050.72 220.624 1050.04 218.725C1049.56 217.586 1048.98 216.495 1048.3 215.468C1047.03 213.462 1046.23 211.537 1045.05 208.995C1044.07 206.876 1043.36 204.662 1042.53 202.496C1042.09 201.356 1041.6 200.223 1041.22 199.047C1040.89 197.855 1040.41 196.712 1039.79 195.647C1039.39 195.008 1039.15 194.199 1038.75 193.533C1038.04 192.272 1037.4 190.968 1036.84 189.628C1036.12 188.033 1035.31 186.461 1034.68 184.833C1034.12 183.381 1033.24 182.132 1032.68 180.688C1032.13 179.257 1031.37 177.911 1030.69 176.538C1030.11 175.205 1029.08 174.135 1027.8 173.528C1026.98 173.188 1026.25 172.627 1025.71 171.901ZM1021.99 167.161L1022.19 166.959C1022.11 166.891 1022.04 166.76 1021.97 166.767C1021.44 166.82 1020.79 166.813 1020.6 166.614C1019.88 165.826 1018.98 166.138 1018.19 166.293C1017.46 166.528 1016.76 166.854 1016.11 167.262C1015.9 167.388 1015.68 167.483 1015.44 167.543C1015.34 167.558 1015.22 167.238 1015.06 167.5C1014.95 167.672 1014.86 167.859 1014.62 168.302C1015.45 167.957 1016 168.951 1016.66 168.201C1016.67 168.188 1016.98 168.359 1016.99 168.464C1016.99 168.524 1017 168.583 1017.03 168.635C1017.06 168.688 1017.1 168.731 1017.15 168.76C1017.2 168.788 1017.26 168.802 1017.32 168.799C1017.38 168.797 1017.43 168.777 1017.48 168.743C1018.18 168.315 1018.96 168.559 1019.7 168.437L1019.8 167.812L1020.41 168.442L1020.25 168.498L1020.87 169.135C1020.99 168.686 1020.56 167.878 1021.43 167.594C1021.62 167.771 1021.86 167.881 1022.12 167.908C1022.37 167.936 1022.63 167.88 1022.85 167.748C1022.54 167.533 1022.27 167.346 1021.99 167.161ZM983.787 67.2866L982.103 66.3777L981.749 66.7062L981.978 66.9754L980.142 68.4735C980.192 68.5365 980.361 68.696 980.34 68.7359C980.138 69.0817 979.885 69.395 979.677 69.7393C979.218 70.5096 978.691 71.2705 979.104 72.2838C979.702 71.8566 980.027 71.0018 980.889 71.0837C980.799 70.8449 980.604 70.5642 980.67 70.4587C980.931 69.9291 981.294 69.461 981.737 69.0838C982.175 68.8251 982.519 68.4221 982.713 67.9383C982.885 67.3191 983.294 67.5101 983.787 67.2866ZM1085.77 221.743C1086.1 221.282 1086.41 220.803 1086.69 220.308C1087.48 218.743 1088.78 217.437 1088.92 215.543C1088.93 215.471 1089.05 215.414 1089.11 215.339C1089.54 214.816 1089.75 214.144 1089.72 213.46C1089.7 212.732 1089.86 212.012 1090.19 211.366C1090.23 211.293 1090.27 211.211 1090.28 211.124C1090.3 211.038 1090.3 210.949 1090.28 210.863C1090.26 210.777 1090.22 210.696 1090.17 210.625C1090.12 210.554 1090.06 210.495 1089.98 210.451C1089.78 210.666 1089.61 210.91 1089.47 211.175C1089.32 211.591 1089.3 212.055 1089.17 212.48C1088.81 213.657 1088.6 214.89 1087.97 215.968C1087.86 216.111 1087.81 216.287 1087.81 216.466C1087.86 216.806 1087.83 217.152 1087.72 217.478C1087.62 217.803 1087.44 218.099 1087.21 218.344C1086.46 219.277 1086.28 220.548 1085.32 221.282L1085.77 221.743ZM1085.49 188.413C1085.3 188.801 1085.05 189.174 1085.1 189.234C1085.49 189.651 1085.28 190.137 1085.31 190.584C1085.39 191.055 1085.38 191.537 1085.29 192.005C1085.16 192.452 1085.8 192.808 1085.34 193.215C1085.77 193.575 1085.56 194.077 1085.59 194.52C1085.62 194.996 1085.6 195.474 1085.6 195.951C1085.6 197.763 1085.59 199.575 1085.6 201.387C1085.62 201.57 1085.65 201.751 1085.69 201.928C1085.8 201.171 1086.06 200.466 1086.11 199.764C1086.23 198.091 1086.09 196.406 1086.4 194.73C1086.53 194.023 1086.24 193.269 1086.2 192.561C1086.07 191.161 1085.84 189.774 1085.49 188.413V188.413ZM1103.52 71.5664C1103.78 71.7396 1103.99 71.8881 1104.21 72.0277C1104.42 72.1673 1104.65 72.2985 1104.87 72.4333C1104.51 73.1155 1104.51 73.1103 1104.96 73.4482C1105.13 73.5805 1105.39 73.7452 1105.41 73.9205C1105.5 74.6179 1105.91 74.2096 1106.1 74.2422C1106.06 73.7384 1106.02 73.263 1105.98 72.7881C1106.57 72.3924 1106 71.991 1105.96 71.6032C1105.91 71.3438 1105.78 71.1081 1105.59 70.9268C1105.56 70.8906 1105.26 71.1078 1105.05 71.229C1104.9 70.8837 1104.77 70.6103 1104.58 70.168L1105.38 70.5117C1105.63 69.8893 1104.96 70.1281 1104.9 69.8704C1104.87 69.5219 1104.86 69.1705 1104.89 68.8209H1103.03L1102.78 68.1146C1102.71 69.2197 1102.71 69.2197 1103.17 69.6396L1103.34 69.1332L1104 69.777L1104.66 69.3961C1104.54 70.2766 1103.93 70.4409 1103.53 70.7662L1103.52 71.5664ZM1114.26 107.181C1114.44 107.2 1114.56 107.253 1114.61 107.212C1115.39 106.525 1116.21 105.867 1116.93 105.122C1118.4 103.549 1119.7 101.806 1120.78 99.9273C1121.37 99.1117 1121.83 98.1974 1122.12 97.2238C1122.23 96.7572 1121.85 96.8622 1121.8 96.6434C1120.86 98.5451 1120.02 100.514 1118.68 102.153C1117.28 103.865 1115.77 105.477 1114.26 107.181ZM973.252 69.0067C972.32 69.5314 971.996 70.4823 971.569 71.3565C971.165 72.1809 970.976 73.1134 970.609 73.9389C970.214 74.8322 969.991 75.7974 969.953 76.7799C969.914 77.7696 969.273 78.7257 969.758 79.7573C969.905 79.5319 970.034 79.2948 970.144 79.0484C970.205 78.8826 970.144 78.6732 970.184 78.4937C970.324 77.8425 970.484 77.196 970.636 76.5479C970.8 75.849 971.122 75.1836 971.021 74.43C971.734 72.8815 972.003 71.1409 972.93 69.6842C973.052 69.4661 973.16 69.2398 973.252 69.0067ZM1105.95 96.985L1105.71 96.847C1105.56 97.1289 1105.37 97.3871 1105.14 97.6142C1104.88 97.8172 1104.45 97.8136 1104.24 98.0466C1103.79 98.4702 1103.27 98.8041 1102.71 99.0315C1102.53 99.9047 1101.74 100.151 1101.17 100.621C1100.73 100.988 1100.27 101.341 1099.85 101.735C1099.72 101.851 1099.69 102.083 1099.62 102.263C1100.09 102.067 1100.34 101.628 1100.87 101.778C1101.26 101.89 1101.22 101.53 1101.36 101.331C1101.49 101.166 1102.03 101.21 1102.05 101.107C1102.13 100.541 1102.57 100.453 1102.93 100.218C1103.35 99.977 1103.73 99.6699 1104.06 99.3076C1104.36 98.9297 1104.75 98.9581 1105.1 98.8484C1105.01 98.6191 1104.93 98.3976 1104.79 98.0387H1105.95V96.985Z" fill="#EDEAEA"/>
<path d="M1732.02 118.295C1733.4 119.29 1735.72 119.779 1732.7 121.653C1731.09 122.65 1732.69 125.363 1731.37 127.46C1730.66 128.586 1729.85 130.719 1729.21 132.431C1728.79 133.552 1727.57 134.391 1728.58 135.783C1728.9 136.211 1728.95 136.728 1728.42 136.934C1725.72 137.986 1726.24 140.632 1725.86 142.708C1724.28 151.19 1723.29 159.83 1723.62 168.405C1724.09 180.658 1725.29 192.907 1728.2 204.876C1728.25 205.101 1728.44 205.354 1728.39 205.536C1727.88 207.239 1732.49 208.679 1728.74 210.441C1723.62 212.846 1721.19 212.311 1719.51 208.295C1717.55 203.573 1715.78 198.748 1714.19 193.875C1708.42 176.212 1708.06 158.127 1711.18 139.988C1713.28 127.773 1718.36 116.68 1725.29 106.574C1730.63 98.7823 1736.37 91.3189 1743.77 85.4719C1746.34 83.4363 1748.96 81.2763 1751.88 79.9646C1753.42 79.2773 1754.68 78.2945 1756.03 77.6389C1761.26 75.0897 1765.93 71.0147 1772.19 70.8636C1773.71 70.8269 1774.95 69.0807 1776.76 68.5209C1793.87 63.2371 1810.35 64.7983 1825.65 74.1411C1840.59 83.2635 1854.31 94.1636 1864.88 108.766C1867.26 112.05 1868.73 115.737 1870.32 119.48C1872.14 123.778 1873.36 128.387 1875.78 132.423C1876.3 133.287 1876.87 134.307 1876.89 135.272C1877.05 141.054 1878.88 146.555 1879.37 152.295C1879.86 158.732 1879.74 165.204 1879.01 171.617C1878.48 176.712 1878.6 181.909 1878.3 187.023C1877.95 193.261 1875.52 199.15 1873.41 205.024C1871.47 210.442 1868.68 215.387 1865.91 220.359C1865.45 221.178 1865.38 222.124 1864.13 221.958C1863.92 221.954 1863.71 222.004 1863.52 222.103C1863.34 222.202 1863.17 222.347 1863.05 222.526C1859.78 231.308 1850.38 238.676 1843.2 241.842C1834.18 245.822 1824.75 248.448 1815 248.601C1807.08 248.7 1799.24 246.879 1792.11 243.283C1786.48 240.495 1780.8 237.903 1775.38 234.657C1767.85 230.145 1763.42 223.222 1760.57 215.033C1758.21 208.136 1756.21 201.109 1754.6 193.984C1752.94 186.847 1755.09 180.275 1757.51 174.022C1760.44 166.484 1764.61 159.534 1769.83 153.481C1773.3 149.303 1778.17 146.651 1783.46 146.064C1790.95 145.143 1798.28 146.112 1805.52 148.129C1811.57 149.815 1816.46 153.861 1821.84 156.893C1823.12 157.614 1823.29 159.069 1822.29 160.525C1821.44 161.758 1821.18 163.083 1822.97 163.84C1823.12 163.656 1823.19 163.574 1823.26 163.483C1824.06 162.273 1822 160.244 1824.02 159.592C1825.86 159.003 1827.08 160.635 1828.28 161.852C1833.34 166.971 1836.43 173.127 1836.72 180.5C1836.97 186.609 1837.87 192.626 1835.63 198.805C1831.12 211.28 1824.57 213.759 1812.63 215.427C1808.71 215.976 1805.22 214.163 1801.63 212.915C1790.92 209.196 1790.52 198.165 1796.1 190.979C1798.27 194.136 1794.64 197.504 1796.49 201.277C1797.72 198.244 1797.56 195.545 1798.19 193.042C1798.48 191.928 1798.66 189.694 1799.89 190.212C1801.35 190.827 1803.41 189.23 1804.61 192.58C1805.89 196.15 1807.24 200.04 1809.47 203.298C1811.38 206.073 1814.6 206.068 1816.39 203.356C1821.42 195.764 1823.32 187.143 1822.56 178.217C1822.07 172.45 1818.35 167.799 1813.77 164.465C1808.95 160.959 1804.2 157.243 1798.38 155.508C1796.63 154.987 1789.83 153.739 1788.02 154.197C1786.65 154.554 1785.43 155.377 1784.55 156.535C1784.07 157.149 1783.9 158.693 1782.36 157.55C1781.62 157.005 1780.58 158.262 1781.1 158.787C1782.84 160.549 1781.19 161.637 1780.49 162.631C1776.66 168.086 1774.66 174.515 1771.67 180.413C1771.04 181.653 1770.74 183.049 1770.82 184.451C1770.89 185.853 1771.33 187.208 1772.09 188.37C1772.83 189.416 1773.17 190.706 1773.04 191.994C1772.19 198.173 1775.52 202.908 1777.75 208.098C1779.07 211.176 1779 214.777 1780.92 217.778C1784.01 222.593 1788.25 226.491 1793.23 229.089C1798.69 231.998 1804.3 234.764 1810.26 236.444C1818.87 238.876 1826.49 235.863 1833.8 231.346C1836.63 229.598 1838.4 226.318 1842.04 225.572C1842.61 225.455 1843.18 222.357 1844.22 220.759C1854.09 205.592 1858.96 188.623 1861.27 170.615C1862.75 159.042 1861.07 147.97 1858.06 136.937C1853.48 120.183 1843.18 107.543 1830.84 96.4919C1824.69 90.8779 1818.13 85.7569 1811.22 81.1732C1801.23 74.6592 1790.93 73.9006 1779.96 78.4408C1774.94 80.5161 1770 82.8386 1765.01 84.9459C1763 85.7953 1759.98 87.1735 1758.39 90.3691C1757.01 93.1453 1753.51 94.8199 1751.29 97.4497C1748.9 100.279 1745.56 102.194 1743.95 105.806C1743.54 106.739 1743.16 106.7 1742.76 105.645C1742.71 105.508 1742.62 105.392 1742.51 105.314C1742.39 105.237 1742.25 105.203 1742.11 105.219C1741.97 105.235 1741.84 105.3 1741.75 105.402C1741.65 105.504 1741.59 105.638 1741.57 105.782C1741.74 109.994 1737.18 111.894 1737.14 116.241C1737.1 118.865 1733.81 116.865 1732.02 118.295ZM1719.13 127.628C1712.26 134.874 1710.09 174.481 1715.13 184.802C1713.33 165.502 1712.94 146.318 1719.13 127.628ZM1858.53 204.007C1859.66 201.145 1860.93 198.332 1861.89 195.411C1865.76 183.724 1866.9 171.528 1867.68 159.308C1867.75 158.269 1867.7 155.615 1864.98 155.562C1866.61 172.313 1862.34 188.075 1858.53 204.007ZM1823.64 198.122C1824.21 196.679 1824.71 195.199 1825.37 193.799C1827.42 189.438 1826.45 184.688 1827.04 180.141C1827.09 179.726 1826.99 179.306 1826.75 178.97C1826.51 178.635 1826.15 178.408 1825.75 178.339C1824.73 178.183 1824.79 179.138 1824.93 179.775C1826.28 186 1824.29 191.854 1823.64 198.122ZM1760.65 177.78C1758.47 181.068 1758.07 184.751 1758.38 188.59C1760.24 185.231 1760.08 181.425 1760.65 177.78ZM1725.23 137.428C1724.45 138.407 1723.93 139.132 1723.34 139.786C1722.54 140.67 1722.63 141.638 1723 142.637C1723.16 143.064 1723.55 143.583 1723.96 143.283C1724.72 142.733 1724.85 141.847 1724.78 140.875C1724.7 139.888 1725.81 139.124 1725.23 137.428Z" fill="#EDEAEA"/>
<path d="M193.301 155.87C194.381 154.348 193.807 152.806 194.047 151.382C194.188 150.553 194.691 149.172 195.162 149.448C198.492 151.404 202.982 148.248 205.825 151.934C217.367 166.894 232.918 177.859 245.525 191.757C246.411 192.734 247.36 193.653 248.257 194.619C253.441 200.205 253.438 200.207 247.096 203.822C240.57 207.539 239.932 207.564 233.735 202.605C220.861 192.301 208.043 181.925 195.771 170.903C191.944 167.467 188.47 163.664 187.62 158.278C187.367 156.826 187.323 155.345 187.489 153.881C187.655 152.62 188.078 151.021 189.626 150.899C191.232 150.772 190.971 152.432 191.305 153.451C191.606 154.384 191.846 155.357 193.301 155.87Z" fill="#EDEAEA"/>
<path d="M143.322 209.9C149.775 210.312 155.273 213.277 160.661 216.527C172.363 223.586 182.853 232.467 194.787 239.183C197.094 240.482 197.072 241.677 194.957 243.651C188.813 249.387 182.842 246.79 177.061 243.519C165.459 236.956 154.042 230.065 142.514 223.37C139.527 221.635 136.426 220.092 133.346 218.522C131.564 217.616 131.294 216.077 131.428 214.358C131.564 212.579 132.687 212.128 134.355 211.705C137.321 210.952 140.178 209.787 143.322 209.9Z" fill="#EDEAEA"/>
<path d="M136.462 308.473C129.701 308.473 122.945 308.505 116.187 308.455C114.036 308.44 111.765 308.424 111.094 305.642C110.481 303.103 112.78 302.899 114.08 301.809C116.586 299.709 119.519 298.741 122.641 298.259C136.221 296.162 149.813 295.263 163.439 297.942C164.914 298.232 166.477 298.197 167.136 299.848C167.881 301.716 166.057 302.222 165.281 303.366C161.658 308.709 156.333 308.71 150.788 308.539C146.017 308.391 141.238 308.508 136.462 308.508V308.473Z" fill="#EDEAEA"/>
<path d="M1624.48 225.249C1625.42 226.615 1626.89 226.604 1628 227.239C1628.65 227.608 1629.66 228.449 1629.28 228.759C1626.63 230.949 1627.91 235.663 1623.96 236.919C1607.94 242.019 1594.04 251.688 1578.59 258.002C1577.5 258.445 1576.44 258.96 1575.36 259.416C1569.11 262.051 1569.11 262.049 1568.02 255.646C1566.9 249.058 1567.07 248.517 1573.1 244.844C1585.63 237.213 1598.21 229.65 1611.16 222.742C1615.2 220.587 1619.43 218.839 1624.19 219.766C1625.48 219.997 1626.74 220.41 1627.91 220.994C1628.91 221.517 1630.12 222.357 1629.75 223.688C1629.37 225.07 1628.06 224.346 1627.11 224.316C1626.24 224.284 1625.35 224.189 1624.48 225.249Z" fill="#EDEAEA"/>
<path d="M1594.51 167.023C1592.2 172.293 1588.05 175.989 1583.69 179.506C1574.23 187.144 1563.61 193.214 1554.37 201.149C1552.58 202.684 1551.59 202.302 1550.58 199.933C1547.65 193.05 1551.64 188.847 1556.13 185.008C1565.15 177.304 1574.39 169.853 1583.49 162.25C1585.85 160.28 1588.08 158.157 1590.33 156.058C1591.63 154.844 1593 155.086 1594.4 155.721C1595.84 156.376 1595.88 157.452 1595.73 158.975C1595.45 161.685 1595.56 164.428 1594.51 167.023Z" fill="#EDEAEA"/>
<path d="M1514.18 131.302C1516.24 125.649 1518.26 119.99 1520.36 114.354C1521.03 112.56 1521.73 110.666 1524.26 110.951C1526.57 111.21 1526.04 113.195 1526.56 114.614C1527.55 117.348 1527.47 120.095 1526.92 122.852C1524.55 134.845 1521.16 146.484 1514.78 157.063C1514.09 158.208 1513.64 159.526 1512.06 159.575C1510.27 159.63 1510.4 157.95 1509.68 156.953C1506.32 152.298 1507.94 147.845 1509.77 143.261C1511.34 139.317 1512.7 135.285 1514.15 131.292L1514.18 131.302Z" fill="#EDEAEA"/>
<path d="M1646.22 501.263C1648.1 500.913 1649.01 499.798 1650.06 498.943C1652.1 497.282 1653.77 497.812 1654.37 500.485C1654.64 501.647 1654.7 502.291 1656.28 502.612C1657.83 502.929 1658.18 505.152 1658.89 506.597C1661.01 511.006 1661.95 515.891 1661.62 520.774C1661.24 527.344 1657.97 532.272 1652.6 535.935C1650.13 537.614 1647.6 538.605 1644.49 538.238C1643.02 538.064 1642.17 537.121 1641.03 536.555C1637.11 534.609 1633.06 532.924 1629.4 530.449C1625.47 527.785 1620.89 517.812 1622.81 512.524C1624.04 509.135 1626.11 507.092 1629.56 506.374C1631.54 505.962 1632.44 506.785 1632.59 509.208C1633.55 508.559 1634.22 507.561 1634.46 506.425C1635.16 503.702 1636.16 501.066 1637.45 498.565C1638.97 495.571 1641.49 494.108 1644.61 493.374C1645.83 493.086 1647.04 493.238 1647.79 494.214C1648.51 495.161 1648.45 496.306 1647.79 497.452C1647.19 498.509 1646.84 499.716 1646.22 501.263ZM1654.09 531.221C1652.07 532.132 1650.65 533.164 1649.81 534.854C1651.19 533.782 1653.5 533.781 1654.09 531.221Z" fill="#EDEAEA"/>
<path d="M1637.16 573.401C1637.4 584.824 1633.96 593.232 1629.31 601.126C1626.04 606.659 1620.71 609.428 1614.29 609.756C1608.81 610.035 1603.42 609.609 1598.2 607.624C1594.26 606.127 1591.65 603.238 1589.48 599.902C1585.43 593.701 1580.67 587.728 1580.51 579.842C1580.3 569.994 1582.33 560.732 1588.84 552.957C1591.59 549.665 1594.86 547.456 1599.61 548.196C1604.32 548.931 1606.22 554.669 1606.19 558.107C1606.17 559.699 1604.84 560.5 1604.06 561.435C1600.49 565.688 1599.77 571.01 1598.08 575.974C1597.73 576.996 1598.44 577.278 1599.22 577.448C1604.3 578.552 1608.92 578.227 1612.37 573.593C1614.21 571.137 1616.19 568.809 1617.4 565.948C1617.68 565.311 1617.84 564.625 1617.86 563.928C1617.87 563.232 1617.75 562.539 1617.5 561.889C1616.9 560.172 1615.69 558.058 1618.71 557.119C1619.32 556.927 1619.2 556.402 1618.91 555.899C1617.64 553.7 1618.37 551.559 1620.76 550.399C1625.59 548.05 1633.1 552.342 1633.57 557.706C1633.56 558.28 1633.7 558.848 1633.95 559.361C1637.31 564.249 1636.65 569.945 1637.16 573.401ZM1609.34 607.363C1612.72 608.194 1616.3 607.655 1619.29 605.864C1615.85 605.447 1612.63 606.664 1609.34 607.363H1609.34Z" fill="#EDEAEA"/>
<path d="M1688.35 519.743C1687.19 520.743 1685.59 520.248 1684.91 521.679C1685.81 522.367 1686.64 521.409 1687.42 521.578C1688.52 521.816 1690.76 521.43 1688.99 523.776C1688.85 523.95 1688.55 524.124 1688.92 524.308C1692 525.826 1689.69 527.779 1689.21 529.433C1688.71 531.16 1687.93 532.816 1687.89 534.646C1687.84 537.208 1687.81 539.771 1687.85 542.333C1687.89 545.474 1688.38 545.879 1691.49 545.582C1696.87 545.071 1700.64 541.198 1700.51 535.812C1700.4 531.396 1701.28 527.172 1702.27 522.958C1702.78 520.787 1704.15 519.046 1706.56 518.631C1709.4 518.143 1713.52 519.89 1714.58 522.412C1716.36 526.654 1717.97 531.043 1718.6 535.601C1719.84 544.602 1719.59 553.582 1717.06 562.404C1716.08 565.85 1714.73 569.209 1712.65 572.052C1709.91 575.789 1705.8 577.473 1701.22 577.952C1695.43 578.558 1689.85 578.367 1685 574.417C1683.94 573.551 1683.27 572.419 1682.55 571.42C1677.8 564.838 1672.1 558.656 1670.97 550.172C1669.67 540.403 1671.17 531.032 1676.21 522.427C1677.95 519.44 1680.34 517.198 1684.21 517.634C1685.79 517.814 1687.26 518.283 1688.35 519.743ZM1703.57 574.647C1700.87 574.146 1698.09 574.479 1695.58 575.6C1698.33 575.945 1701.06 576.251 1703.57 574.647Z" fill="#EDEAEA"/>
<path d="M1696.48 625.392C1696.77 634.124 1694.02 642.684 1688.68 649.603C1686.4 652.601 1683.11 654.673 1679.42 655.439C1673.16 656.931 1666.58 656.205 1660.8 653.384C1657.33 651.706 1655.11 648.849 1652.85 645.83C1648.63 640.218 1646.55 633.733 1644.8 627.179C1642.8 619.681 1644.22 612.452 1647.67 605.479C1648.86 603.082 1649.67 600.669 1652.14 599.233C1654.01 598.14 1655.81 598.614 1657.61 599.27C1658.04 599.428 1658.71 599.942 1658.67 600.213C1658.17 604.057 1661.45 607.267 1660.45 611.187C1660.07 612.705 1659.86 614.27 1659.61 615.821C1658.94 620.131 1661.29 623.31 1665.71 623.791C1670.02 624.259 1673.8 622.944 1676.46 619.417C1678.66 616.518 1680.23 613.19 1681.06 609.648C1681.76 606.675 1684.1 605.076 1687.13 605.529C1692.17 606.283 1693.42 607.633 1693.96 612.88C1693.94 613.21 1694.01 613.539 1694.16 613.834C1696.82 617.01 1696.01 620.895 1696.48 625.392ZM1668.11 653C1670.71 654.32 1675.13 654.177 1677.24 652.801C1674.21 652.633 1671.31 652.414 1668.11 653Z" fill="#EDEAEA"/>
<path d="M1762.34 498.745C1766.05 499.901 1763.11 502.078 1763.12 503.74C1763.13 504.554 1762.19 505.475 1763.08 506.337C1763.94 507.177 1765.04 507.114 1766.1 506.69C1770.83 504.794 1773.39 500.972 1774.39 496.279C1775.13 492.83 1776.33 489.536 1777.07 486.099C1777.73 483.014 1780.87 481.381 1783.98 482.083C1787.68 482.923 1790 484.946 1790.51 488.85C1791.12 493.491 1792.43 497.973 1792.3 502.792C1791.97 514.003 1788.8 524.068 1781.84 532.896C1775.35 541.13 1762.91 541.489 1756.23 533.35C1754.06 530.711 1752.05 527.681 1751.66 524.003C1751.52 523.367 1751.24 522.77 1750.85 522.252C1745.14 513.195 1745.73 503.853 1749.96 494.566C1752.85 488.21 1757.83 488.517 1761.88 491.545C1762.39 491.924 1763.09 492.376 1762.97 493.1C1762.82 494.03 1761.89 493.567 1761.32 493.761C1760.78 493.945 1760.04 493.968 1760.13 494.736C1760.22 495.537 1760.99 495.299 1761.53 495.356C1762.53 495.459 1763.57 495.525 1763.95 496.696C1764.36 497.956 1762.93 497.959 1762.34 498.745ZM1765.82 536.185C1767.55 536.61 1769.27 537.304 1770.87 536.017C1769.16 535.846 1767.46 535.413 1765.82 536.185Z" fill="#EDEAEA"/>
<path d="M1597.74 669.251C1599.18 670.106 1599.47 668.334 1600.99 668.409C1599.12 669.818 1597.71 671.752 1596.95 673.964C1596.42 675.417 1594.22 676.302 1592.81 676.99C1587.83 679.431 1582.46 681.056 1576.83 681.214C1575.13 681.262 1573.49 680.195 1571.7 680.073C1571.55 680.064 1571.41 680.027 1571.28 679.962C1571.15 679.898 1571.03 679.808 1570.93 679.698C1570.84 679.587 1570.76 679.459 1570.72 679.32C1570.67 679.181 1570.65 679.034 1570.66 678.888C1570.67 678.715 1570.98 678.396 1571.11 678.416C1572.14 678.58 1572.86 678.496 1572.35 677.17C1572.12 676.579 1572.21 675.756 1571.42 675.537C1570.03 675.148 1571.12 677.115 1570.05 677.023C1569.04 677.887 1570.37 673.64 1568.52 676.358C1568.4 676.265 1568.23 676.196 1568.18 676.076C1567.08 673.432 1564.51 671.96 1563.08 669.484C1561.71 667.124 1559.97 664.989 1558.94 662.399C1555.85 654.614 1554.87 646.602 1556.42 638.365C1557.22 634.081 1559.94 632.336 1563.86 633.097C1564.48 633.178 1565.07 633.41 1565.58 633.773C1566.09 634.135 1566.5 634.617 1566.78 635.176C1568.8 639.51 1571.85 643.544 1570.27 648.893C1569.78 650.549 1570.72 652.317 1571.9 653.67C1572.62 654.506 1573.51 655.002 1574.74 654.377C1577.09 653.177 1579.43 652.028 1581.09 649.832C1582.28 648.264 1583.7 646.869 1584.96 645.357C1586.71 643.269 1587.18 640.618 1587.38 638.108C1587.68 634.281 1590.14 632.487 1593.72 634.099C1595.17 634.755 1596.58 635.734 1597.2 637.167C1598.81 640.954 1600.66 644.594 1601.53 648.766C1602.35 652.746 1602.65 656.816 1602.42 660.874C1602.33 662.645 1601.19 664.188 1601.35 666.043C1601.38 666.387 1600.58 667.096 1600.13 667.13C1598.67 667.236 1598.58 668.536 1597.74 669.251ZM1586.06 676.317C1584.12 675.717 1581.9 678.049 1580.72 675.017C1580.71 676.327 1579.94 678.269 1581.47 678.191C1582.86 678.12 1584.95 678.242 1586.06 676.317ZM1589.24 666.268C1588.7 667.07 1589.04 667.783 1589.85 667.862C1591.12 667.988 1590.33 667.043 1590.38 666.504C1590.44 665.737 1590.8 666.224 1591.18 666.295C1592.02 666.452 1591.95 665.671 1591.6 665.446C1591.02 665.032 1590.31 664.819 1589.59 664.84C1588.83 664.927 1589.04 665.679 1589.24 666.268Z" fill="#EDEAEA"/>
<path d="M1762.06 577.357C1763.36 577.906 1764.45 578.58 1764.64 579.889C1764.8 580.907 1763.61 580.385 1763.04 581.051C1765.78 581.114 1765.24 583.521 1764.95 584.519C1764.18 587.152 1765.15 589.668 1764.84 592.24C1764.64 593.93 1764.25 595.642 1764.11 597.351C1763.96 599.124 1762.78 596.681 1761.86 596.809C1761.37 597.336 1761.41 597.89 1762.03 598.205C1762.66 598.527 1763.79 598.463 1763.7 599.358C1763.59 600.446 1763.28 602.116 1762.57 602.426C1760.66 603.26 1761.1 605.157 1761.22 606.034C1761.47 607.928 1760.61 607.697 1759.6 607.411C1758.15 607 1757.27 607.462 1756.98 608.876C1756.61 610.677 1754.58 610.381 1753.68 611.649C1752.79 612.892 1751.4 613.77 1751.52 615.631C1749.03 615.332 1750.18 613.128 1749.19 611.793C1748.84 616.16 1745.61 616.085 1742.69 616.41C1741.72 616.518 1740.62 616.145 1739.76 616.477C1737.97 617.171 1738.1 616.305 1738.56 614.674C1737.56 616.618 1736.64 617.28 1735.24 615.664C1734.73 615.078 1733.88 615.169 1733.16 615.008C1731.84 614.71 1731.67 614.402 1731.71 612.69C1731.72 612.209 1731.41 612.257 1731.12 612.122C1728.07 610.727 1726.75 608.175 1726.72 604.834C1726.71 603.243 1727.37 600.706 1724.22 600.872C1723.79 600.895 1723.7 600.565 1723.57 600.27C1720.68 594.133 1721.62 588.234 1724.87 582.589C1726.36 579.984 1730.19 578.687 1733.11 579.71C1734.14 580.108 1734.99 580.874 1735.49 581.859C1735.89 582.76 1734.88 583.119 1733.95 583.238C1733.23 583.33 1733.46 583.945 1733.61 584.42C1733.87 585.211 1734.4 585.416 1735.16 585.136C1737 584.454 1737.41 584.76 1737.2 586.94C1737.04 588.537 1739.31 589.173 1740.59 590.038C1741.45 590.624 1741.91 589.368 1742.17 588.646C1742.3 588.17 1742.62 587.766 1743.05 587.522C1747.08 585.458 1747.53 581.505 1748.15 577.713C1748.45 575.934 1748.49 574.016 1748.84 572.335C1749.19 570.628 1749.72 568.841 1750.17 567.083C1750.88 564.263 1753.21 564.174 1755.43 564.299C1756.89 564.468 1758.32 564.797 1759.7 565.278C1760.04 565.376 1760.55 565.868 1760.52 566.122C1760.25 568.341 1762.84 569.925 1761.78 572.413C1761.51 573.043 1762.37 574.295 1762.93 575.11C1763.99 576.656 1764.03 576.705 1762.06 577.357ZM1741.97 603.005C1740.97 602.991 1739.79 603.023 1739.63 604.397C1739.44 606.013 1740.93 605.283 1741.67 605.636C1742.58 606.073 1743.39 605.209 1744.15 605.472C1744.98 605.759 1745.48 605.517 1745.78 604.908C1746.21 604.022 1745.4 603.384 1745.04 602.72C1744.65 602.019 1744.01 602.543 1743.54 602.791C1743.06 603.044 1742.71 603.665 1741.97 603.005ZM1747.26 613.064C1746.31 612.173 1744.75 612.798 1744.27 612.187C1742.58 610.057 1741.44 612.679 1740.01 612.514C1739.76 612.485 1738.8 613.411 1739.08 614.054C1739.36 614.711 1740.58 615.216 1740.93 614.913C1742.75 613.352 1745.23 614.276 1747.26 613.064ZM1743.35 594.493C1741.84 596.044 1741.4 596.194 1740.89 595.207C1740.21 593.87 1738.25 593.414 1737.24 594.382C1737.1 594.498 1736.98 594.641 1736.9 594.804C1736.82 594.967 1736.78 595.145 1736.77 595.327C1736.76 595.509 1736.8 595.69 1736.86 595.858C1736.93 596.027 1737.04 596.179 1737.17 596.304C1738 597.166 1742.89 595.773 1743.35 594.493Z" fill="#EDEAEA"/>
<path d="M1703.18 479.529C1704.72 476.039 1705.41 472.436 1708.13 469.891C1708.5 469.453 1708.92 469.071 1709.4 468.755C1710.57 468.189 1712.06 467.272 1713.07 468.146C1713.95 468.903 1713.8 470.504 1713.36 471.807C1713.14 472.432 1712.34 473.291 1713.26 473.752C1714.03 474.142 1714.48 473.137 1714.98 472.621C1715.26 472.323 1715.47 471.951 1715.77 471.672C1716.33 471.15 1716.6 470.019 1717.66 470.436C1718.1 470.571 1718.49 470.827 1718.79 471.175C1719.09 471.524 1719.29 471.95 1719.36 472.405C1719.48 473.365 1719.47 474.253 1720.96 473.604C1721.72 473.275 1722.25 474.261 1722.66 474.816C1727.2 480.953 1728.14 487.302 1722.24 493.556C1720.43 495.468 1718.58 497.332 1716.75 499.22C1715.75 500.259 1714.53 500.246 1713.31 499.813C1711.93 499.326 1713.42 498.209 1712.8 497.316C1711.4 499.564 1710.06 499.265 1708.27 497.644C1707.16 496.639 1705.83 495.383 1703.74 496.224C1702.97 496.534 1701.51 495.679 1700.61 495.018C1696.12 491.71 1693.41 487.33 1693.3 481.63C1693.26 479.37 1694 477.366 1696.29 476.348C1696.71 476.15 1697.17 476.033 1697.64 476.004C1698.69 478.361 1701.74 477.419 1703.18 479.529Z" fill="#EDEAEA"/>
<path d="M1265.46 212.232C1261.07 211.694 1256.35 210.948 1251.6 210.628C1249.94 210.516 1248.36 211.002 1247.48 209.054C1247.29 208.653 1247 208.067 1247.15 207.779C1249.64 202.912 1249.87 197.395 1251.37 192.253C1252.37 188.808 1253.93 185.621 1256.91 183.518C1257.5 183.099 1258.41 183.159 1259.18 182.998C1259.3 183.784 1259.67 184.627 1259.52 185.347C1258.39 190.586 1257.21 195.813 1255.94 201.014C1255.54 202.646 1256.14 202.964 1257.52 203.204C1260.71 203.757 1263.85 204.574 1267.03 205.167C1268.39 205.421 1269.8 205.389 1271.19 205.471C1271.3 205.477 1271.44 205.293 1271.54 205.318C1272.58 205.577 1274.42 205.743 1274.48 206.158C1274.62 207.454 1274.37 208.764 1273.74 209.898C1271.86 213.172 1268.63 212.037 1265.46 212.232Z" fill="#EDEAEA"/>
<path d="M1258.49 201.867C1262.42 199.7 1266.56 198.168 1270.56 196.248C1279.08 192.165 1286.94 186.921 1294.89 181.779C1306.01 174.584 1314.86 165.307 1324.36 156.633C1333.47 148.315 1343.16 140.779 1354.06 134.666C1359.33 131.748 1364.89 129.522 1370.49 128.08C1376.54 126.471 1382.6 124.983 1388.65 123.784C1396.27 122.27 1403.56 119.141 1410.64 115.222C1416.48 112.025 1422.17 108.554 1427.71 104.829C1432 101.911 1435.57 98.3627 1438.71 94.4787C1440.77 91.926 1443.18 89.5592 1445.86 87.454C1446.46 86.9697 1447.13 86.5837 1447.85 86.3245C1448.48 86.0975 1449.46 85.523 1448.81 86.8479C1448.7 87.0663 1449.07 87.0238 1449.14 87.137C1449.52 87.7336 1449.37 88.3834 1448.52 88.9102C1445.58 90.7497 1443.47 93.2494 1441.42 95.7405C1438.93 98.7644 1436.66 101.915 1433.75 104.693C1430.8 107.503 1427.82 110.266 1424.17 112.4C1421.68 113.907 1419.27 115.542 1416.96 117.293C1415.47 118.383 1413.8 119.067 1412.24 119.914C1411.2 120.478 1410.51 121.301 1409.52 121.81C1408.25 122.459 1407.02 123.193 1405.77 123.88C1402.3 125.79 1398.7 127.256 1395.08 128.712C1388.63 131.306 1382.13 132.096 1375.66 134.07C1370.81 135.551 1365.91 136.739 1361.12 138.633C1358.32 139.738 1355.6 141.343 1352.95 142.927C1341.73 149.642 1331.97 157.959 1322.8 166.885C1319.72 169.876 1316.63 172.874 1313.43 175.739C1310.84 178.093 1308.13 180.346 1305.32 182.488C1301.8 185.138 1298.27 187.758 1294.59 190.18C1285 196.512 1275.06 202.09 1264.38 205.826C1263.71 206.009 1263.05 206.229 1262.39 206.486C1259.63 207.785 1257.76 206.949 1255.94 205.972C1255.23 205.594 1255.62 203.653 1256.5 203.067C1257.15 202.639 1257.83 202.264 1258.49 201.867ZM1276.44 194.981C1270.64 198.097 1264.54 200.34 1258.7 203.343C1265.36 200.912 1274.43 196.621 1276.44 194.981ZM1281.35 197.704L1281.41 197.826L1291.74 191.631L1291.67 191.513L1281.35 197.704Z" fill="#EDEAEA"/>
<path d="M702.464 615.96C698.872 616.048 695.329 615.133 691.719 615.456C691.151 615.507 690.132 615.316 690.024 614.998C688.949 611.835 685.362 612.214 683.35 610.17C681.568 608.358 681.407 606.923 682.267 605.095C685.586 598.01 688.504 590.765 691.213 583.432C691.926 581.503 692.627 579.557 693.15 577.571C693.65 575.666 695.286 575.057 696.713 574.53C698.262 573.959 698.445 575.834 699.266 576.637C703.128 580.398 703.242 585.493 704.372 590.234C705.828 596.349 707.14 602.503 708.791 608.565C710.166 613.61 708.552 616.769 702.464 615.96Z" fill="#EDEAEA"/>
<path d="M663.142 516.799C663.253 519.399 661.588 521.211 658.672 521.553C654.613 522.028 650.557 522.58 646.483 522.857C642.765 523.111 640.812 520.073 638.956 517.696C637.68 516.061 638.551 513.715 639.866 511.761C644.267 505.224 647.535 498.087 650.528 490.82C651.049 489.553 651.597 488.388 653.234 488.176C655.01 487.948 655.362 489.286 656.181 490.345C658.631 493.509 659.159 497.317 660.101 500.997C661.431 506.201 662.694 511.423 663.142 516.799Z" fill="#EDEAEA"/>
<path d="M654.623 574.986C654.623 578.272 655.511 580.849 652.426 582.332C651.693 582.684 651.046 583.161 650.279 583.027C646.829 582.426 643.461 582.619 640.31 584.182C637.846 585.403 636.461 584.45 634.633 582.65C631.121 579.193 631.036 577.803 633.245 573.524C636.78 566.685 640.786 560.031 642.983 552.557C643.274 551.459 643.677 550.394 644.186 549.379C645.286 547.331 647.282 547.294 648.805 549.028C652.016 552.683 652.38 557.28 653.061 561.729C653.782 566.423 654.185 571.164 654.623 574.986Z" fill="#EDEAEA"/>
<path d="M656.995 696.201C653.507 695.806 650.711 693.903 648.267 691.609C647.383 690.776 647.477 689.087 648.122 687.784C650.287 683.408 651.133 678.551 653.391 674.131C654.458 672.043 654.904 669.136 655.687 666.628C656.237 664.862 657.123 662.909 659.245 662.748C661.367 662.586 662.479 664.524 663.372 666.033C665.657 669.892 666.421 674.329 667.324 678.641C668.311 683.358 668.945 688.151 669.638 692.926C669.916 694.833 668.637 696.04 668.823 697.769C668.922 698.69 667.755 698.823 666.645 698.512C663.462 697.62 660.216 696.954 656.995 696.201Z" fill="#EDEAEA"/>
<path d="M608.847 543.077C608.855 546.156 607.248 547.594 603.876 546.983C601.114 546.484 598.367 546.761 595.672 546.784C592.342 546.808 590.154 545.344 587.897 543.371C585.815 541.551 585.71 539.44 586.903 537.281C590.697 530.421 593.832 523.216 596.268 515.765C597.22 512.854 599.192 512.677 601.247 514.981C602.633 516.516 603.68 518.326 604.32 520.293C606.636 527.705 608.153 535.343 608.847 543.077Z" fill="#EDEAEA"/>
<path d="M553.873 570.705C551.497 570.591 549.453 570.667 547.388 570.317C542.472 569.484 540.913 568.023 541.716 563.18C542.741 556.989 543.462 550.711 545.423 544.703C545.779 543.41 546.321 542.176 547.033 541.04C548.357 539.158 550.021 538.592 551.933 540.466C553.608 542.004 554.997 543.827 556.036 545.849C558.778 551.735 561.105 557.804 563 564.014C563.249 564.739 563.323 565.512 563.217 566.27C563.11 567.029 562.826 567.751 562.388 568.379C561.949 569.007 561.369 569.523 560.694 569.884C560.018 570.246 559.267 570.442 558.502 570.459C556.852 570.52 555.205 570.636 553.873 570.705Z" fill="#EDEAEA"/>
<path d="M604.868 669.189C602.732 669.637 600.714 670.28 598.464 669.836C595.148 669.182 591.428 664.228 592.478 661.14C594.809 654.289 596.214 647.19 598.329 640.287C598.811 638.713 599.149 636.953 601.234 636.699C603.33 636.443 604.175 638.072 604.893 639.515C608.5 646.75 610.869 654.457 613.241 662.148C613.942 664.42 613.143 666.219 610.827 667.525C608.885 668.621 606.609 667.856 604.868 669.189Z" fill="#EDEAEA"/>
<path d="M560.932 507.446C561.27 513.44 558.601 516.147 552.583 517.313C549.429 517.924 547.182 516.566 544.751 515.535C541.921 514.333 540.859 512.187 541.688 508.8C542.756 504.442 544.644 500.445 546.218 496.313C547.504 492.935 548.754 489.556 549.867 486.116C550.751 483.382 551.869 483.478 554.131 484.732C558.041 486.896 558.826 490.51 559.412 494.248C560.097 498.62 560.44 503.044 560.932 507.446Z" fill="#EDEAEA"/>
<path d="M531.816 640.903C531.847 638.717 532.468 636.579 533.614 634.716C536.362 629.954 538.327 624.849 540.377 619.78C542.042 615.666 542.406 615.987 545.86 618.189C549.455 620.481 550.356 623.884 551.536 627.299C552.815 631.007 553.912 634.792 554.824 638.607C555.657 642.082 554.953 642.797 551.624 643.941C548.552 644.995 545.723 646.677 542.339 646.897C540.723 647.003 539.993 646.494 539.509 645.098C539.072 643.836 538.117 643.926 537.093 644.351C534.319 645.503 531.811 643.86 531.816 640.903Z" fill="#EDEAEA"/>
<path d="M554 707.106C550.193 706.693 546.887 706.509 543.648 705.943C538.32 705.013 536.057 701.071 537.199 695.707C538.337 690.361 539.406 685.018 541.519 679.945C543.236 675.823 545.251 675.288 548.235 678.476C549.567 679.913 550.635 681.573 551.389 683.382C553.903 689.468 556.56 695.518 557.853 702.035C558.552 705.565 557.161 707.194 554 707.106Z" fill="#EDEAEA"/>
<path d="M512.152 560.867C512.255 565.518 511.146 566.329 507.171 566.251C504.909 566.207 502.63 566.953 500.36 567.346C496.818 567.96 491.449 564.854 490.508 561.845C490.351 561.42 490.28 560.968 490.3 560.516C490.32 560.064 490.43 559.62 490.623 559.211C493.369 552.965 496.052 546.691 498.823 540.456C500.033 537.736 501.432 537.514 503.694 539.554C508.78 544.134 509.836 550.587 511.569 556.703C511.879 558.072 512.074 559.465 512.152 560.867ZM504.339 555.358C503.451 554.529 504.753 552.356 502.749 551.802C502.049 551.609 501.609 552.773 501.867 553.449C502.346 554.704 501.905 556.557 503.629 557.047C504.472 557.286 504.34 556.308 504.339 555.356V555.358Z" fill="#EDEAEA"/>
<path d="M476.754 617.564C477.475 610.416 479.771 603.686 482.222 597.029C483.268 594.185 484.664 594.134 487.092 596.03C489.154 597.64 490.507 599.991 490.861 602.583C491.815 608.693 492.595 614.832 493.328 620.974C493.637 623.566 492.004 624.891 489.4 625.428C485.248 626.283 481.941 624.638 478.711 622.518C476.938 621.357 476.969 619.396 476.754 617.564Z" fill="#EDEAEA"/>
<path d="M596.627 614.759C595.503 614.667 594.211 614.168 593.725 614.592C592.014 616.088 589.933 615.061 588.05 615.747C586.043 616.477 582.982 611.534 583.224 609.065C583.583 605.406 586.746 603.092 587.257 599.42C587.762 595.794 589.212 592.296 590.31 588.761C590.422 588.25 590.702 587.791 591.105 587.457C591.508 587.122 592.011 586.932 592.534 586.916C593.841 586.847 594.532 587.436 595.129 588.618C598.431 595.167 600.187 602.282 602.707 609.114C604.096 612.887 600.631 614.217 596.627 614.759Z" fill="#EDEAEA"/>
<path d="M655.288 630.483C656.153 634.322 651.921 636.409 649.127 635.7C647.826 635.371 646.771 634.937 645.194 635.683C643.257 636.598 640.326 637.715 639.825 633.632C639.785 633.309 638.946 633.142 638.588 632.79C636.368 630.612 636.3 627.485 638.333 625.008C638.818 624.469 639.203 623.849 639.473 623.176C641.007 618.636 644.378 614.822 644.714 609.806C644.801 608.505 645.284 607.295 646.767 607.06C648.251 606.825 648.977 607.893 649.583 609.04C649.946 609.543 650.26 610.079 650.521 610.641C652.473 617.162 654.064 623.787 655.288 630.483Z" fill="#EDEAEA"/>
<path d="M628.578 192.497C626.426 192.529 624.304 192.194 622.141 192.312C621.801 192.331 621.191 192.261 621.126 192.144C620.482 190.985 618.333 191.124 617.127 190.375C616.06 189.711 615.963 189.186 616.478 188.516C618.467 185.921 620.215 183.266 621.838 180.58C622.265 179.873 622.685 179.16 622.999 178.432C623.298 177.734 624.278 177.511 625.133 177.318C626.061 177.109 626.171 177.796 626.663 178.09C628.976 179.468 629.045 181.335 629.722 183.072C630.594 185.312 631.38 187.567 632.369 189.787C633.193 191.636 632.226 192.793 628.578 192.497Z" fill="#EDEAEA"/>
<path d="M605.024 156.166C605.09 157.118 604.093 157.782 602.346 157.907C599.914 158.081 597.484 158.284 595.044 158.385C592.816 158.478 591.646 157.365 590.534 156.494C589.769 155.895 590.291 155.036 591.079 154.32C593.716 151.925 595.674 149.31 597.466 146.648C597.779 146.184 598.107 145.757 599.088 145.679C600.152 145.596 600.363 146.086 600.854 146.474C602.321 147.633 602.638 149.028 603.202 150.376C603.999 152.283 604.755 154.196 605.024 156.166Z" fill="#EDEAEA"/>
<path d="M599.917 177.484C599.917 178.688 600.449 179.632 598.601 180.176C598.162 180.305 597.774 180.48 597.314 180.431C595.248 180.21 593.23 180.281 591.342 180.854C589.866 181.301 589.037 180.952 587.941 180.292C585.837 179.026 585.786 178.516 587.11 176.949C589.227 174.443 591.628 172.006 592.944 169.267C593.118 168.865 593.359 168.475 593.664 168.103C594.324 167.353 595.519 167.339 596.432 167.974C598.355 169.313 598.573 170.998 598.981 172.628C599.413 174.347 599.655 176.084 599.917 177.484Z" fill="#EDEAEA"/>
<path d="M601.339 221.895C599.249 221.75 597.574 221.053 596.11 220.212C595.58 219.907 595.637 219.288 596.023 218.811C597.32 217.207 597.827 215.428 599.18 213.809C599.819 213.044 600.086 211.979 600.555 211.06C600.885 210.413 601.415 209.697 602.687 209.638C603.958 209.579 604.624 210.289 605.159 210.842C606.528 212.256 606.986 213.881 607.526 215.461C608.118 217.189 608.498 218.945 608.913 220.695C609.079 221.393 608.313 221.835 608.425 222.469C608.484 222.806 607.785 222.855 607.12 222.741C605.213 222.414 603.268 222.17 601.339 221.895Z" fill="#EDEAEA"/>
<path d="M572.496 165.794C572.501 166.922 571.538 167.449 569.518 167.226C567.863 167.043 566.218 167.144 564.603 167.152C562.608 167.161 561.298 166.625 559.945 165.902C558.698 165.235 558.635 164.462 559.349 163.671C561.622 161.158 563.501 158.518 564.96 155.788C565.531 154.722 566.712 154.657 567.943 155.501C568.773 156.063 569.401 156.726 569.784 157.447C571.171 160.162 572.081 162.961 572.496 165.794Z" fill="#EDEAEA"/>
<path d="M539.559 175.915C538.136 175.873 536.912 175.901 535.674 175.773C532.729 175.468 531.795 174.933 532.276 173.158C532.89 170.89 533.322 168.59 534.497 166.389C534.71 165.915 535.035 165.463 535.462 165.047C536.255 164.357 537.252 164.15 538.397 164.837C539.401 165.4 540.233 166.068 540.856 166.809C542.498 168.965 543.892 171.189 545.028 173.464C545.177 173.729 545.221 174.013 545.157 174.29C545.094 174.568 544.923 174.833 544.661 175.063C544.398 175.293 544.05 175.482 543.646 175.615C543.241 175.747 542.791 175.819 542.332 175.825C541.344 175.847 540.357 175.89 539.559 175.915Z" fill="#EDEAEA"/>
<path d="M570.11 211.997C568.83 212.161 567.621 212.397 566.273 212.234C564.286 211.994 562.057 210.18 562.687 209.048C564.083 206.538 564.925 203.938 566.192 201.408C566.481 200.832 566.684 200.187 567.932 200.094C569.188 200 569.694 200.597 570.124 201.126C572.285 203.776 573.705 206.6 575.126 209.418C575.546 210.25 575.067 210.909 573.68 211.388C572.516 211.789 571.152 211.509 570.11 211.997Z" fill="#EDEAEA"/>
<path d="M543.791 152.74C543.993 154.936 542.394 155.928 538.789 156.355C536.9 156.579 535.553 156.081 534.097 155.703C532.401 155.263 531.765 154.477 532.262 153.236C532.901 151.64 534.033 150.175 534.975 148.661C535.746 147.424 536.495 146.186 537.162 144.925C537.692 143.924 538.361 143.959 539.716 144.418C542.059 145.211 542.529 146.535 542.88 147.905C543.29 149.506 543.496 151.127 543.791 152.74Z" fill="#EDEAEA"/>
<path d="M526.348 201.634C526.366 200.832 526.738 200.049 527.424 199.367C529.071 197.622 530.248 195.752 531.476 193.895C532.474 192.387 532.692 192.505 534.761 193.312C536.915 194.151 537.454 195.398 538.162 196.649C538.928 198.008 539.585 199.394 540.132 200.792C540.631 202.065 540.209 202.327 538.214 202.746C536.374 203.133 534.679 203.749 532.652 203.83C531.684 203.868 531.246 203.682 530.956 203.17C530.694 202.708 530.122 202.741 529.509 202.896C527.847 203.319 526.345 202.717 526.348 201.634Z" fill="#EDEAEA"/>
<path d="M539.637 225.89C537.356 225.738 535.376 225.671 533.435 225.464C530.243 225.123 528.887 223.679 529.571 221.713C530.253 219.755 530.893 217.797 532.16 215.939C533.188 214.428 534.396 214.233 536.183 215.401C536.981 215.927 537.621 216.535 538.073 217.198C539.579 219.428 541.17 221.644 541.945 224.032C542.364 225.325 541.53 225.922 539.637 225.89Z" fill="#EDEAEA"/>
<path d="M514.562 172.312C514.624 174.016 513.959 174.313 511.578 174.284C510.223 174.269 508.858 174.542 507.497 174.686C505.376 174.91 502.159 173.773 501.595 172.67C501.501 172.515 501.459 172.349 501.471 172.183C501.483 172.018 501.548 171.855 501.664 171.705C503.309 169.417 504.917 167.118 506.577 164.834C507.302 163.838 508.14 163.756 509.495 164.503C512.542 166.182 513.175 168.546 514.213 170.786C514.399 171.288 514.516 171.798 514.562 172.312ZM509.882 170.294C509.35 169.99 510.129 169.194 508.929 168.991C508.509 168.92 508.246 169.347 508.4 169.594C508.687 170.054 508.423 170.733 509.456 170.913C509.961 171 509.882 170.642 509.882 170.293V170.294Z" fill="#EDEAEA"/>
<path d="M493.355 193.082C493.788 190.463 495.163 187.998 496.631 185.559C497.258 184.517 498.094 184.498 499.549 185.193C500.785 185.783 501.595 186.644 501.807 187.594C502.379 189.832 502.846 192.081 503.285 194.331C503.47 195.281 502.492 195.767 500.932 195.963C498.444 196.277 496.463 195.674 494.528 194.897C493.466 194.472 493.484 193.753 493.355 193.082Z" fill="#EDEAEA"/>
<path d="M565.174 192.056C564.501 192.023 563.727 191.84 563.436 191.995C562.411 192.543 561.164 192.167 560.036 192.418C558.833 192.686 557 190.875 557.145 189.97C557.36 188.63 559.255 187.782 559.561 186.437C559.863 185.108 560.732 183.827 561.39 182.532C561.457 182.344 561.625 182.176 561.866 182.054C562.108 181.931 562.409 181.862 562.722 181.855C563.505 181.83 563.919 182.046 564.277 182.479C566.255 184.879 567.307 187.485 568.817 189.988C569.649 191.371 567.573 191.858 565.174 192.056Z" fill="#EDEAEA"/>
<path d="M600.315 197.816C600.834 199.222 598.299 199.987 596.625 199.727C595.845 199.607 595.213 199.448 594.268 199.721C593.108 200.056 591.352 200.466 591.052 198.97C591.028 198.851 590.525 198.79 590.31 198.661C588.98 197.863 588.94 196.718 590.158 195.81C590.448 195.613 590.679 195.386 590.841 195.139C591.76 193.476 593.779 192.078 593.981 190.241C594.033 189.764 594.322 189.321 595.211 189.235C596.1 189.149 596.534 189.54 596.898 189.96C597.115 190.144 597.304 190.341 597.46 190.547C598.629 192.936 599.583 195.363 600.315 197.816Z" fill="#EDEAEA"/>
</svg>
