<svg width="170" height="104" viewBox="0 0 170 104" fill="none" xmlns="http://www.w3.org/2000/svg">
<path d="M83.6911 38.1694L83.6041 38.644C83.942 38.61 84.2605 38.5064 84.5235 38.3449C84.7865 38.1834 84.9835 37.9704 85.0923 37.73L85.4006 38.1311C85.5216 38.1379 85.6912 38.1855 85.7492 38.1444C86.2368 37.7987 86.8917 37.7746 87.4618 37.7789C88.1309 37.7836 88.8049 38.0428 89.3862 37.5887C89.4269 37.5569 89.5136 37.5155 89.5468 37.5279C90.884 37.9922 92.3095 37.4669 93.6639 37.7331C94.1097 37.8211 93.7304 38.0132 93.8179 38.2387C95.1006 37.7886 96.3139 37.1136 98.0377 37.4956L98.4031 37.8629C98.5759 37.9463 98.6262 37.9126 98.6589 37.7788C98.6675 37.6968 98.7006 37.6173 98.7559 37.546C98.8111 37.4748 98.887 37.4136 98.9781 37.367C99.0692 37.3204 99.1731 37.2895 99.2823 37.2766C99.3915 37.2636 99.5032 37.269 99.6093 37.2923C100.98 37.5461 102.337 37.2973 103.689 37.2536C106.182 37.1733 108.663 37.3 111.147 37.3091C113.65 37.3184 116.138 37.397 118.631 37.5374C121.918 37.7224 125.207 37.8531 128.492 38.098C130.618 38.2566 132.766 38.4142 134.918 38.4776C136.968 38.5383 139.002 38.8686 141.049 39.0278C143.453 39.2155 145.818 39.5982 148.245 39.6954C149.456 39.744 150.635 40.1118 151.882 40.2102C156.508 40.5748 160.934 41.6218 165.403 42.5166C166.21 42.6784 167.04 42.8122 167.585 43.5384C166.499 43.6877 165.538 43.7993 164.538 43.5894C163.072 43.2815 161.6 42.9915 160.131 42.6937C159.394 42.5445 158.666 42.295 157.925 42.2749C157.184 42.2548 156.523 42.0312 155.792 42.0028C155.07 41.9748 154.368 41.8038 153.629 41.7483C152.35 41.6525 151.086 41.3725 149.814 41.1812C148.189 40.9373 146.541 40.9823 144.922 40.7365C143.267 40.4846 141.563 40.4165 139.885 40.2447C139.345 40.1889 138.857 39.9726 138.271 40.2486C138.043 40.3562 137.551 40.2063 137.206 40.1157C135.974 39.7942 134.69 39.8333 133.419 39.7715C132.11 39.7079 130.799 39.6607 129.489 39.5953C125.733 39.4077 121.97 39.2673 118.223 39.0042C115.845 38.8375 113.457 39.0328 111.089 38.7941C110.296 39.1004 109.604 38.5054 108.759 38.6855C108.073 38.8567 107.337 38.8843 106.632 38.7654C106.069 38.6092 105.472 38.5352 104.872 38.5473C104.232 38.6124 103.588 38.651 102.942 38.6631C102.287 38.6845 101.63 38.6562 100.983 38.5788C100.314 38.4825 99.6644 38.6497 99.0386 38.5815C98.6829 38.5428 98.2877 38.8588 98.0258 38.5549C97.7795 38.2695 97.5405 38.3119 97.268 38.4762C96.7477 38.7918 96.1217 38.6793 95.5471 38.7377C95.302 38.5866 95.3335 38.2819 94.9106 38.1876C94.2594 38.9837 92.9368 38.6133 92.0472 39.0618C91.3091 38.3952 90.5219 39.1391 89.7651 39.0177C88.9827 38.8925 88.2822 39.265 87.4855 39.193C86.1932 39.0762 84.9092 39.299 83.6213 39.3761C82.3915 39.4625 81.1566 39.5014 79.9215 39.4926C79.4049 39.4834 79.2482 39.6037 79.1494 40.0145C78.0034 39.3535 76.6046 40.5671 75.441 39.6296C75.337 39.7743 75.2631 40.0201 75.1312 40.0389C73.9214 40.21 72.7466 40.5286 71.4888 40.5083C70.4768 40.4912 69.4372 40.5364 68.5619 40.9252C68.1837 41.066 67.7538 41.1103 67.3383 41.0514C65.3069 40.9251 63.5037 41.5512 61.624 41.9C60.1361 42.1758 58.6297 42.3619 57.1305 42.5852C55.2822 42.8605 53.4098 43.0445 51.6091 43.5126C50.507 43.799 49.3016 43.8552 48.1709 44.0924C47.3668 44.261 46.4595 44.2567 45.795 44.7088C45.2985 45.0466 44.6099 44.7616 44.044 45.0599C43.8374 45.1687 43.1242 45.0461 42.9063 45.3059C42.6337 45.6324 41.9307 45.0254 41.9191 45.6251C41.0786 45.7626 40.232 46.0292 39.3981 46.0091C38.0061 45.975 36.8943 46.5529 35.6275 46.7776C33.5919 47.1393 31.8019 48.0857 29.6771 48.2948C29.0751 48.8751 27.7422 48.4617 27.2743 49.2924C27.1629 49.4905 26.6354 49.2865 26.2513 49.398C24.2081 49.9979 22.069 50.439 20.2257 51.3597C19.8239 51.5614 19.09 51.2799 18.9877 51.8528C18.264 51.6191 17.8325 52.076 17.296 52.2638C16.7807 52.4434 16.3054 52.8478 15.8029 52.8564C14.5494 52.8769 14.1409 53.8134 13.1089 54.0524C12.2467 54.2522 11.6133 54.8931 10.5701 54.7998C10.474 54.8013 10.38 54.8207 10.2966 54.8562C10.2132 54.8916 10.1431 54.9421 10.0926 55.0028C9.7939 55.674 8.93584 55.8458 8.24015 56.0778C7.02192 56.4839 6.31584 57.3699 5.11995 57.7813C4.97691 57.8304 4.98848 58.1286 4.89117 58.4237C6.00173 57.9774 7.19169 57.781 7.9253 56.9696C8.18258 56.7688 8.49399 56.6108 8.83915 56.5058C10.7642 55.6817 12.7184 54.8937 14.611 54.0307C15.467 53.6405 16.5146 53.7254 17.3372 53.2416C18.0751 52.8073 18.931 52.3172 19.808 52.2246C20.7779 52.1206 21.4476 51.5528 22.3445 51.5291C23.3167 51.503 23.8741 50.9182 24.6974 50.7491C26.4632 50.3865 28.034 49.6388 29.7708 49.2783C31.2094 48.9793 32.5821 48.5375 34.0317 48.2992C34.3685 48.2438 34.2031 47.7542 34.7622 47.9814C35.0965 48.1168 35.4232 47.7858 35.7499 47.6633C36.0492 47.5511 36.3576 47.8254 36.6307 47.6224C36.9399 47.3931 37.3731 47.5876 37.6637 47.4878C38.4929 47.2024 39.3185 46.9436 40.1866 46.7154C41.8787 46.2704 43.6167 45.9698 45.3229 45.5799C46.2088 45.9124 46.6568 45.0078 47.574 45.1706C48.2517 45.2911 48.9399 44.8936 49.6195 44.7452C51.8804 44.2517 54.1802 43.8384 56.4937 43.5032C58.1171 43.2677 59.7608 43.175 61.3301 42.7014C61.9978 42.4999 62.8441 42.5048 63.5808 42.4696C65.7145 42.3681 67.748 41.9213 69.8208 41.6295C70.816 41.4894 71.8123 41.5077 72.8006 41.4152C74.4289 41.2631 75.9998 40.8612 77.6835 40.9014C78.784 40.9268 79.8776 40.431 81.0246 40.7774C81.7323 40.1 82.7663 40.6628 83.6315 40.3979C84.4772 40.1388 85.4834 40.3354 86.4207 40.174C87.2879 40.0578 88.1684 40.0054 89.0494 40.0174C89.9319 39.9982 90.8165 40.0292 91.7018 40.0385L92.1426 40.6117C92.4527 40.3442 92.6121 39.9739 93.0847 39.9204C93.4191 39.8969 93.4616 40.1409 93.665 40.2265C93.7827 40.226 93.8994 40.2103 94.0099 40.18C95.1127 39.7251 96.3829 39.5456 97.6333 39.6681C99.7266 39.8264 101.772 39.5603 103.84 39.5573C106.266 39.5533 108.694 39.6211 111.112 39.578C113.966 39.5276 116.794 39.7959 119.644 39.7506C121.61 39.7186 123.582 39.9285 125.549 40.0479C128.06 40.2006 130.566 40.4386 133.08 40.5127C135.129 40.5731 137.139 40.8381 139.174 40.967C141.233 41.0656 143.284 41.2471 145.318 41.5107C147.094 41.7688 148.92 41.8352 150.721 42.0063C152.706 42.1952 154.669 42.489 156.659 42.6655C158.012 42.7804 159.353 42.9656 160.671 43.2198C162.94 43.6684 165.205 44.1275 167.467 44.597C167.753 44.6558 168.113 44.6366 168.267 44.9485C168.111 45.4426 167.527 45.4556 166.928 45.3637C167.162 46.033 168.027 45.7433 168.332 46.1543C168.465 46.3814 168.198 46.5813 168.183 46.8112C167.689 46.4884 167.63 47.1428 167.281 47.0368C166.908 46.9233 166.563 47.2741 166.213 47.0362C165.842 47.2325 166.446 47.4353 166.065 47.7428C165.123 47.6446 164.054 47.5534 162.995 47.4165C162.274 47.3224 161.598 47.1268 160.824 47.1681C160.186 47.2017 159.542 46.7347 158.863 47.1713C158.739 47.2506 158.575 47.0545 158.435 47.0034C157.466 46.6492 155.968 46.5767 154.569 46.7212C153.802 46.772 153.028 46.751 152.268 46.6587C150.946 46.5439 149.635 46.3457 148.294 46.3031C148.055 46.2755 147.828 46.2035 147.636 46.0937C147.182 45.8662 146.663 45.7195 146.12 45.665C145.578 45.6105 145.026 45.6496 144.506 45.7793C143.927 45.9165 143.656 45.8232 142.73 45.616C142.263 45.5368 141.788 45.4891 141.309 45.4733C139.399 45.3215 137.474 45.3339 135.578 45.1583C134.43 45.0519 133.314 45.5922 132.197 45.1508C131.545 45.6074 130.9 45.1784 130.246 45.1591C128.648 45.1119 127.029 44.8164 125.461 45.1212C124.9 45.2298 124.723 44.4842 124.215 44.9568C122.679 44.8236 121.135 45.0449 119.61 44.9318C119.025 44.8886 118.364 44.6215 117.84 44.7673C116.845 45.0441 115.8 44.3784 114.876 44.9391C113.949 44.43 113.017 44.812 112.059 44.8726C111.32 44.9199 110.619 44.5963 109.765 44.8541C109.046 45.0705 108.14 44.9571 107.317 44.9605C106.495 44.964 105.662 44.7654 104.837 44.9792C104.217 44.4252 103.4 44.7642 102.703 44.7839C101.954 44.8049 101.139 44.6758 100.438 44.965C99.8909 45.1901 99.4419 44.4137 98.8461 44.9557C98.478 45.2907 97.8187 45.0512 97.2951 45.0993C96.7913 45.1451 96.2195 45.3528 95.8024 44.862C95.6837 44.7228 95.2448 44.6982 94.9479 44.6857C93.7694 44.6376 92.5551 45.1329 91.4113 44.5524C90.8266 44.8704 90.0454 44.6272 89.5202 44.8102C87.814 45.4039 86.0099 45.1942 84.2686 45.2602C82.9792 45.3089 81.7076 45.8095 80.3909 45.4209C79.6162 45.9104 78.6198 45.5302 77.7956 45.7826C76.8318 46.0774 75.7827 45.7936 74.8277 46.0615C73.8727 46.3294 72.8435 46.2204 71.8666 46.3832C71.7025 46.4104 71.5019 46.3178 71.2318 46.263C70.0049 47.2019 68.0017 46.5104 66.4083 47.4197C67.2316 47.386 67.7927 47.363 68.6585 47.3263C67.1771 48.0373 65.6732 47.8156 64.3501 48.1435C63.0454 48.4673 61.5858 48.4931 60.2005 48.6834C58.8152 48.8738 57.3837 48.9308 56.0447 49.2272C54.6778 49.5309 53.2593 49.6037 51.897 49.9156C50.5497 50.2239 49.145 50.3929 47.6933 50.6349L47.2083 50.1088C46.0023 49.9559 45.0976 50.7028 43.9423 50.7183C43.7753 50.7205 43.594 50.9259 43.449 50.9077C42.1303 50.7419 41.0616 51.4109 39.8195 51.4846C38.5367 51.5607 37.5139 52.2219 36.2461 52.3586C34.7729 52.5172 33.4376 53.0594 31.9684 53.2577C31.2072 53.3602 30.6358 53.9325 29.7561 53.8048C28.8883 54.3711 27.7389 54.4612 26.7154 54.737C25.78 54.9405 24.8796 55.2241 24.0323 55.5821C22.9466 55.2593 22.3756 56.4015 21.276 56.121C21.1175 56.0805 20.8338 56.2782 20.6253 56.3851C19.2889 57.0587 17.7193 57.3123 16.2459 57.7393C15.8179 57.8636 15.7432 58.2971 15.2268 58.3551C13.1749 58.5856 11.6833 59.6786 9.88193 60.2904C9.16004 60.5375 8.56961 60.9566 8.20411 61.4814L8.54587 61.5775C8.83214 62.35 8.22863 62.8048 7.37402 62.9622C6.66396 63.093 6.32291 62.5766 6.06254 62.1194C5.33704 62.1433 4.54327 62.2498 4.28014 61.5366C4.13132 61.1327 3.6531 61.0058 3.25497 60.8008C3.248 60.4029 3.41363 59.9437 3.19913 59.6269C2.72081 58.9207 3.11388 58.3259 3.54119 57.8069C4.03971 57.2621 4.63406 56.7693 5.30838 56.3417C7.12462 55.081 9.37968 54.3695 11.4588 53.4411C13.5265 52.5172 15.6477 51.6628 17.73 50.758C18.476 50.434 19.3783 50.5154 20.1252 50.1096C20.7878 49.7483 21.4725 49.2361 22.466 49.4044C23.5376 48.7311 25.0229 48.7749 26.1688 48.1803C27.6244 47.4251 29.3758 47.1279 31.0543 46.7456C31.3982 46.628 31.7567 46.5354 32.1247 46.4693C32.5605 46.4435 32.9714 46.3077 33.2891 46.0844C33.9029 45.7 34.688 45.8152 35.3692 45.6112C36.0653 45.4025 36.8557 45.3017 37.3851 45.0008C37.7909 45.1008 37.7785 45.3981 38.2533 45.3134C38.5412 44.6476 39.385 44.5414 40.3126 44.4002C42.1277 44.1222 43.9007 43.7092 45.6047 43.1675C46.1612 43.0227 46.7375 42.924 47.3231 42.8732C48.7967 42.6758 50.2707 42.4854 51.7279 41.8763L52.5166 42.1352C52.8742 42.0158 52.6124 41.7642 53.0393 41.7279C53.7958 41.6612 54.5943 41.6547 55.2771 41.3283C55.3806 41.2813 55.4949 41.2491 55.6142 41.2334C55.9837 41.1805 56.544 41.7631 56.7151 41.0474C57.2838 41.3825 57.6939 40.7722 58.298 40.9134C58.6989 41.0072 59.2552 40.7993 59.6469 40.7015C60.1217 40.5835 60.6048 40.6532 61.051 40.5081C61.9244 40.2247 63.0284 40.5949 63.7232 39.9929C64.1028 39.9743 64.1373 40.2263 64.3527 40.3025C64.8307 39.9827 66.5827 39.683 67.7024 39.733L67.7444 40.165C67.8738 40.1457 68.0446 40.1585 68.0952 40.1068C68.4415 39.752 68.6525 39.2532 69.4735 39.4727C70.6716 39.0357 72.0263 39.0017 73.2788 38.953C74.3349 38.8812 75.3802 38.7386 76.4018 38.527C77.3819 38.357 78.43 38.6615 79.363 38.2599C80.7869 38.5452 82.1831 37.951 83.6911 38.1694ZM92.6944 43.5157C92.8561 43.1559 93.1835 43.6928 93.263 43.3183C93.3385 42.9625 93.7967 42.961 94.0312 42.7638C94.1486 42.6652 94.1013 42.5854 93.9629 42.5672C93.4437 42.5391 93.1694 43.0381 92.648 42.9274L92.2638 42.6029C91.8061 42.9724 92.0253 43.5147 91.581 43.8352C90.6278 44.0247 90.4062 43.4782 90.0559 43.0548C90.0183 43.0092 89.8646 43.0175 89.765 43C89.5747 43.3177 90.1902 43.4667 90.0836 43.6906C89.6241 44.3694 89.3261 43.5628 88.6879 43.7817C88.7877 43.7701 89.0226 44.0282 88.6854 43.9882C88.3274 43.8823 88.4149 43.4498 87.9453 43.4225C87.192 43.9926 86.3585 44.1188 84.6875 43.9154L84.5876 44.1878C84.2224 44.2219 84.2344 43.8028 83.8568 43.8511C83.4558 43.8924 83.5383 44.1993 83.3518 44.3584C81.3101 44.3154 81.3101 44.3154 80.3505 44.6787L78.4042 44.1335C77.7534 44.174 77.848 44.6623 77.5464 44.8426C76.8231 44.6775 76.0626 44.5485 75.4233 44.8543C74.9574 45.0783 74.4977 45.0283 74.0329 45.0899C72.9367 45.2344 71.8368 45.3614 70.7438 45.5221C70.678 45.5223 70.6133 45.5346 70.5555 45.5579C70.4977 45.5813 70.4485 45.6149 70.4124 45.6558C70.3762 45.6966 70.3543 45.7435 70.3484 45.7923C70.3426 45.841 70.353 45.89 70.3788 45.935C71.0223 45.9673 71.6686 45.9379 72.302 45.8478C73.7235 45.5825 75.1723 45.4057 76.6333 45.3194C78.0999 45.26 79.5137 44.8328 81.0243 45.0292C81.4336 45.0348 81.8416 44.9939 82.2343 44.9079C84.4305 44.6294 86.6497 44.4627 88.8764 44.4092C90.0879 44.3594 91.3726 44.5063 92.532 44.0728C92.6287 44.0221 92.7147 43.961 92.7873 43.8915L92.6944 43.5157Z" fill="#D73F3B"/>
</svg>
