<svg width="191" height="133" viewBox="0 0 191 133" fill="none" xmlns="http://www.w3.org/2000/svg">
<path d="M125.425 34.178C136.697 23.2938 136.198 17.7963 124.421 23.3462C96.6944 36.4065 44.0579 59.8057 22.6955 72.1977C-4.2506 87.9101 -0.365097 93.4099 17.9624 96.8395C50.301 102.793 75.0268 112.826 92.4122 115.842C116.014 119.938 127.314 103.623 114.647 98.0608C103.969 93.372 45.2382 76.3239 41.6267 76.8823C36.2075 77.8014 113.935 45.2966 125.425 34.178Z" fill="#D73F3B" fill-opacity="0.2"/>
<path d="M118.971 49.3245C110.428 52.5004 104.124 55.0104 99.5182 57.2763C68.888 72.1956 93.7411 77.0079 98.8867 78.6077C112.955 83.1358 147.105 88.5655 150.322 86.8442C162.98 79.8671 151.75 71.8021 119.753 64.8441C116.492 64.0718 118.417 63.2674 136.437 57.6557C158.726 50.6191 164.519 47.3903 168.835 39.7188C173.38 31.3234 161.366 33.6334 118.971 49.3245Z" fill="#D73F3B" fill-opacity="0.2"/>
</svg>
