<svg width="664" height="599" viewBox="0 0 664 599" fill="none" xmlns="http://www.w3.org/2000/svg">
<g clip-path="url(#clip0_639_1203)">
<path d="M476.749 445.394C483.291 438.333 490.095 430.478 497.52 423.255C500.116 420.731 503.4 419.252 502.211 414.941C501.966 414.053 501.649 412.722 501.015 412.478C490.279 408.341 482.402 399.983 472.924 394.019C466.576 390.023 459.664 387.213 451.87 388.122C450.315 388.303 448.894 389.684 447.411 390.512C448.269 391.928 448.801 393.777 450.037 394.691C459.023 401.34 468.089 407.888 477.27 414.268C480.152 416.269 479.587 417.62 477.626 419.953C473.101 425.333 469.005 431.067 464.544 436.504C462.638 438.827 460.261 440.769 458.074 442.863C457.891 443.038 457.41 442.944 457.278 443.126C455.917 444.997 453.082 447.874 453.555 448.606C455.079 450.848 457.287 452.545 459.857 453.448C467.428 455.931 471.24 449.571 476.749 445.394Z" fill="#D73F3B" fill-opacity="0.2"/>
</g>
<path d="M456.346 426.757L453.751 426.185C454.46 424.639 456.344 425.885 457.293 423.906C439.469 421.439 422.782 415.682 406.252 409.431C389.622 403.144 373.018 396.795 358.424 386.583C358.537 385.195 359.546 385.255 360.222 385.039C368.854 382.265 376.019 377.234 382.114 370.677C388.831 363.481 395.084 355.873 400.836 347.899C408.263 337.554 408.157 329.753 400.957 319.372C391.225 305.338 373.962 299.662 357.438 304.883C342.444 309.62 332.051 319.195 326.661 333.827C323.953 341.175 324.599 348.828 326.146 356.33C327.553 363.113 329.738 369.708 332.659 375.986C334.274 379.469 334.319 379.56 330.271 379.435C319.857 379.181 309.603 376.962 300.054 372.896C289.174 368.215 279.84 361.258 271.056 353.45C256.69 340.683 246.725 324.626 236.783 308.547C229.212 296.303 221.925 283.863 215.642 270.925C208.613 256.451 203.289 241.268 199.094 225.707C196.98 217.858 195.519 209.855 193.505 201.976C192.597 198.422 193.066 194.429 192.248 190.689C192.077 189.909 192.252 188.944 191.301 188.776C190.283 188.596 190.133 189.611 189.828 190.323C189.437 191.241 188.569 192.042 188.912 193.151C190.864 199.446 189.119 206.054 190.506 212.423C191.949 219.052 192.93 225.781 194.319 232.423C195.714 239.082 197.787 245.562 199.92 252.018C205.512 268.941 212.992 284.972 221.819 300.465C227.971 311.262 234.132 322.06 241.095 332.327C247.405 341.632 254.02 350.682 262.453 358.483C269.04 364.575 275.801 370.31 283.222 375.24C289.008 379.083 295.061 382.452 301.977 384.38C306.796 385.722 311.538 387.217 316.501 388.035C322.827 389.078 329.243 390.211 335.571 389.261C340.792 388.479 344.307 390.864 347.332 393.918C351.906 398.396 357.1 402.204 362.76 405.229C379.071 414.293 396.508 420.871 414.332 426.443C422.757 429.077 431.394 430.872 440.252 430.952C445.738 431.004 451.256 430.315 456.346 426.757ZM339.543 363.269C337.262 358.208 335.529 352.918 334.372 347.486C332.258 337.431 333.232 328.315 342.112 321.373C352.581 313.19 371.688 308.54 385.568 320.048C390.842 324.421 394.556 329.495 396.684 335.867C397.192 337.199 397.338 338.642 397.11 340.054C396.882 341.465 396.287 342.796 395.385 343.915C391.619 348.789 387.631 353.517 384.144 358.577C376.116 370.219 364.586 375.653 351.103 377.978C349.112 378.321 347.909 377.786 346.731 376.302C343.697 372.339 341.274 367.947 339.543 363.269ZM386.689 405.714L386.442 406.3L400.324 411.025L400.333 410.972L386.689 405.714Z" fill="#D73F3B" fill-opacity="0.2"/>
<defs>
<clipPath id="clip0_639_1203">
<rect width="386.637" height="292.232" fill="white" transform="matrix(-0.6775 -0.735428 -0.73956 0.673193 612.305 350.285)"/>
</clipPath>
</defs>
</svg>
