<svg width="720" height="571" viewBox="0 0 720 571" fill="none" xmlns="http://www.w3.org/2000/svg">
<path d="M15.4385 504.365C42.4457 505.582 69.4529 506.19 96.4602 506.135C97.5031 506.135 97.5031 504.476 96.4602 504.476C69.4529 504.531 42.4457 503.923 15.4385 502.706C14.3955 502.651 14.3955 504.31 15.4385 504.365Z" fill="#E8E8E8"/>
<path d="M98.1098 463.222C102.337 479.204 106.289 495.297 109.912 511.445C110.131 512.495 111.723 512.053 111.504 511.002C107.826 494.854 103.928 478.762 99.7017 462.78C99.4272 461.784 97.8353 462.227 98.1098 463.222Z" fill="#E8E8E8"/>
<path d="M171.667 464.44C170.13 479.648 168.593 494.911 167.111 510.119C167.001 511.17 168.648 511.17 168.758 510.119C170.294 494.911 171.831 479.648 173.314 464.44C173.368 463.39 171.722 463.39 171.667 464.44Z" fill="#E8E8E8"/>
<path d="M110.346 512.938C119.953 514.652 129.669 515.426 139.44 515.15C148.771 514.873 158.981 514.154 167.874 511.168C168.862 510.836 168.423 509.233 167.435 509.564C158.597 512.495 148.661 513.214 139.44 513.491C129.833 513.767 120.227 512.993 110.786 511.334C109.743 511.113 109.303 512.717 110.346 512.938Z" fill="#E8E8E8"/>
<path d="M98.7682 463.776C110.131 466.984 122.482 467.039 134.229 467.094C146.854 467.205 159.48 466.486 171.995 465.048C173.038 464.938 173.038 463.279 171.995 463.389C159.809 464.827 147.568 465.491 135.327 465.435C123.415 465.38 110.79 465.38 99.2074 462.173C98.1644 461.896 97.7253 463.5 98.7682 463.776Z" fill="#E8E8E8"/>
<path d="M94.0443 458.078C94.1541 459.129 94.2639 460.235 94.3737 461.286C94.4286 461.95 94.4286 462.779 94.703 463.387C95.3617 464.825 97.5574 464.327 98.82 464.327C99.8629 464.327 99.8629 462.668 98.82 462.668C98.2162 462.668 97.6123 462.668 96.9536 462.668C96.1302 462.668 96.1302 462.503 96.0753 461.673C95.9655 460.456 95.8558 459.295 95.746 458.078C95.5813 457.028 93.9345 456.972 94.0443 458.078Z" fill="#E8E8E8"/>
<path d="M95.1403 458.965C108.863 460.569 122.642 461.343 136.474 461.454C143.281 461.509 150.088 461.398 156.95 461.177C160.353 461.067 163.756 460.901 167.16 460.735C168.751 460.679 170.947 460.126 172.539 460.458C174.46 460.79 174.35 462.449 174.57 464.163C174.735 463.832 174.954 463.5 175.119 463.168C174.405 463.168 173.692 463.168 172.978 463.168C171.935 462.947 171.496 464.551 172.539 464.772C173.637 464.993 174.46 464.993 175.503 464.772C175.997 464.661 176.162 464.163 176.052 463.776C175.778 461.841 175.997 459.408 173.692 458.91C172.319 458.578 170.618 458.965 169.191 459.02C167.379 459.131 165.623 459.186 163.811 459.297C156.126 459.629 148.386 459.85 140.646 459.85C125.386 459.85 110.181 459.131 95.0305 457.306C94.0973 457.195 94.0973 458.855 95.1403 458.965Z" fill="#E8E8E8"/>
<path d="M107.053 499.168C111.444 504.975 116.604 510.007 122.423 514.321C123.301 514.929 124.124 513.491 123.246 512.883C117.647 508.736 112.652 503.869 108.425 498.284C107.821 497.454 106.394 498.284 107.053 499.168Z" fill="#E8E8E8"/>
<path d="M103.372 482.302C111.936 494.744 122.475 505.639 134.661 514.542C135.54 515.15 136.363 513.713 135.485 513.104C123.573 504.367 113.198 493.638 104.8 481.472C104.196 480.587 102.769 481.417 103.372 482.302Z" fill="#E8E8E8"/>
<path d="M100.025 467.48C114.846 485.177 131.314 501.712 150.965 513.989C151.844 514.542 152.722 513.104 151.789 512.551C132.247 500.385 115.889 483.96 101.178 466.319C100.519 465.49 99.3661 466.706 100.025 467.48Z" fill="#E8E8E8"/>
<path d="M115.779 466.54C129.887 483.075 145.531 498.781 162.987 511.721C163.865 512.33 164.689 510.892 163.81 510.284C146.464 497.454 130.93 481.748 116.932 465.379C116.218 464.55 115.066 465.711 115.779 466.54Z" fill="#E8E8E8"/>
<path d="M133.787 467.701C143.338 479.48 154.316 489.987 166.503 499.001C167.381 499.609 168.204 498.172 167.326 497.563C155.25 488.66 144.381 478.208 134.939 466.539C134.281 465.71 133.128 466.871 133.787 467.701Z" fill="#E8E8E8"/>
<path d="M148.498 467.093C154.646 474.061 161.672 480.034 169.467 485.066C170.345 485.619 171.169 484.181 170.29 483.628C162.605 478.706 155.689 472.734 149.651 465.932C148.937 465.102 147.784 466.264 148.498 467.093Z" fill="#E8E8E8"/>
<path d="M72.5287 375.959C76.0968 383.535 78.512 391.498 79.8843 399.793C79.9392 400.18 80.3235 400.402 80.6529 400.402C80.9822 400.402 82.7388 400.346 82.8486 400.899C82.9035 401.121 81.8056 402.392 81.6958 402.669C81.3665 403.554 81.3665 404.605 81.6958 405.489C82.135 406.54 82.9584 407.259 83.9464 407.646C84.2758 407.812 84.66 407.867 85.0443 407.923C85.3736 407.978 85.703 407.978 86.0323 407.923C86.4715 407.867 86.4166 407.923 85.9226 408.144C85.3736 408.973 84.6051 409.084 84.3856 410.301C84.2209 411.462 84.7698 412.568 85.209 413.563C87.0204 417.434 88.0634 421.527 89.5455 425.564C94.6505 439.278 104.421 450.615 115.455 459.961C116.278 460.625 117.431 459.463 116.608 458.8C105.245 449.177 95.1445 437.398 90.3689 422.965C89.765 421.084 89.2161 419.204 88.5574 417.379C88.0085 415.775 86.9655 414.116 86.4715 412.513C85.9226 411.628 85.9775 410.632 86.6911 409.637C86.9106 409.471 87.1302 409.305 87.3498 409.139C87.5144 408.863 87.8438 408.697 88.0085 408.365C88.2281 407.757 88.0634 407.204 87.6242 406.761C86.9106 406.042 85.8128 406.429 84.8796 406.153C81.3116 405.102 84.2209 402.669 84.4954 400.899C84.8796 398.577 82.0252 398.853 80.4882 398.743C80.7626 398.964 81.0371 399.13 81.2567 399.351C79.8843 390.945 77.3593 382.816 73.7364 375.129C73.5168 374.134 72.0896 374.963 72.5287 375.959Z" fill="#E8E8E8"/>
<path d="M73.1281 375.57C90.9682 380.381 106.613 392.603 117.975 407.092C130.052 422.465 137.572 440.936 141.634 460.015C141.854 461.066 143.446 460.623 143.226 459.572C139.109 440.217 131.424 421.525 119.183 405.93C107.656 391.276 91.7367 378.888 73.6221 374.022C72.5243 373.69 72.0851 375.293 73.1281 375.57Z" fill="#E8E8E8"/>
<path d="M79.6061 382.428C101.453 403.83 118.306 430.098 128.68 459.02C129.065 460.016 130.656 459.573 130.272 458.578C119.788 429.434 102.826 402.89 80.7589 381.267C80.0453 380.493 78.8376 381.654 79.6061 382.428Z" fill="#E8E8E8"/>
<path d="M89.3244 417.211C93.9354 417.709 98.4366 418.76 102.718 420.474C106.89 422.133 111.446 424.234 114.081 428.05C114.685 428.935 116.112 428.106 115.508 427.221C112.873 423.405 108.756 421.248 104.585 419.479C99.6991 417.377 94.5941 416.105 89.2695 415.552C88.2814 415.442 88.2814 417.101 89.3244 417.211Z" fill="#E8E8E8"/>
<path d="M97.5021 386.907C97.4472 393.267 98.4901 399.516 100.521 405.544C100.851 406.539 102.442 406.097 102.113 405.101C100.137 399.239 99.1488 393.156 99.1488 386.907C99.1488 385.856 97.5021 385.856 97.5021 386.907Z" fill="#E8E8E8"/>
<path d="M127.643 416.992C130.333 406.872 139.281 400.844 146.911 394.65C155.035 388.07 162.884 381.046 170.35 373.747C169.911 373.47 169.417 373.194 168.978 372.917C166.507 379.608 166.013 386.632 166.123 393.71C166.233 400.789 167.825 408.918 165.574 415.775C165.849 415.554 166.123 415.388 166.343 415.167C164.586 415.278 162.83 415.444 161.073 415.554C160.524 415.609 159.975 416.273 160.359 416.826C161.622 418.54 163.104 419.093 163.049 421.637C163.049 423.407 162.61 425.453 162.006 427.112C161.402 428.826 159.81 429.988 159.261 431.592C158.822 433.029 159.92 434.246 159.92 435.684C159.975 438.062 158.273 440.053 157.066 441.933C155.913 443.702 154.87 445.527 153.937 447.408C152.071 451.113 150.588 454.929 149.491 458.91C149.216 459.961 150.808 460.403 151.082 459.353C152.455 454.431 154.431 449.675 157.011 445.251C158.767 442.265 162.061 438.781 161.677 435.02C161.512 433.527 160.744 433.085 161.402 431.37C161.457 431.315 162.445 429.988 162.5 429.877C163.543 428.163 164.037 426.227 164.367 424.292C164.586 422.854 165.025 421.084 164.806 419.646C164.476 417.6 162.939 417.434 161.787 415.886C161.567 416.328 161.293 416.716 161.073 417.158C162.83 417.047 164.586 416.881 166.343 416.771C166.727 416.716 167.001 416.55 167.111 416.163C169.197 409.748 167.935 402.282 167.715 395.646C167.495 388.07 167.77 380.438 170.46 373.249C170.789 372.419 169.636 371.922 169.087 372.419C161.128 380.217 152.784 387.682 144.056 394.65C136.591 400.623 128.522 406.706 125.942 416.439C125.777 417.6 127.369 418.043 127.643 416.992Z" fill="#E8E8E8"/>
<path d="M164.255 380.934C158.876 390.39 153.386 399.736 148.226 409.303C143.396 418.152 139.114 427.331 137.083 437.23C136.864 438.281 138.456 438.723 138.675 437.673C140.761 427.553 145.207 418.262 150.148 409.248C155.198 400.013 160.522 390.943 165.682 381.763C166.176 380.879 164.749 379.994 164.255 380.934Z" fill="#E8E8E8"/>
<path d="M148.06 396.309C148.774 399.461 149.103 402.613 148.994 405.821C148.939 406.871 150.586 406.871 150.64 405.821C150.75 402.447 150.421 399.184 149.652 395.866C149.378 394.816 147.841 395.258 148.06 396.309Z" fill="#E8E8E8"/>
<path d="M157.008 385.746C157.612 388.124 157.722 390.446 157.447 392.824C157.338 393.875 158.984 393.875 159.094 392.824C159.424 390.28 159.259 387.792 158.6 385.303C158.326 384.308 156.734 384.75 157.008 385.746Z" fill="#E8E8E8"/>
<path d="M157.389 396.751C160.628 394.816 163.976 393.101 167.434 391.664C168.422 391.276 167.983 389.673 166.995 390.06C163.372 391.553 159.914 393.323 156.511 395.313C155.632 395.866 156.456 397.304 157.389 396.751Z" fill="#E8E8E8"/>
<path d="M143.233 424.511C145.319 422.742 147.405 421.027 149.546 419.368C151.796 417.599 154.266 415.221 157.011 414.115C157.999 413.728 157.56 412.124 156.572 412.511C154.102 413.451 152.071 415.276 149.985 416.935C147.295 419.037 144.66 421.138 142.08 423.35C141.257 424.014 142.41 425.175 143.233 424.511Z" fill="#E8E8E8"/>
<path d="M79.6611 393.489C83.5036 393.876 87.3461 394.263 91.1886 394.595C92.2316 394.705 92.2316 393.046 91.1886 392.936C87.3461 392.548 83.5036 392.161 79.6611 391.83C78.6182 391.719 78.6182 393.378 79.6611 393.489Z" fill="#E8E8E8"/>
<path d="M180.394 503.813C249.174 503.813 317.9 503.813 386.681 503.813C406.058 503.813 425.435 503.813 444.812 503.813C445.855 503.813 445.855 502.154 444.812 502.154C376.031 502.154 307.306 502.154 238.525 502.154C219.148 502.154 199.771 502.154 180.394 502.154C179.296 502.154 179.296 503.813 180.394 503.813Z" fill="#E8E8E8"/>
<path d="M413.023 368.327C413.023 376.401 413.023 384.475 413.023 392.549C413.023 393.6 414.67 393.6 414.67 392.549C414.67 384.475 414.67 376.401 414.67 368.327C414.67 367.276 413.023 367.276 413.023 368.327Z" fill="#E8E8E8"/>
<path d="M375.155 396.253C401.777 396.253 428.4 396.253 455.023 396.253C456.066 396.253 456.066 394.594 455.023 394.594C428.4 394.594 401.777 394.594 375.155 394.594C374.112 394.594 374.057 396.253 375.155 396.253Z" fill="#E8E8E8"/>
<path d="M393.047 396.697C393.047 403.665 393.047 410.633 393.047 417.656C393.047 418.707 394.694 418.707 394.694 417.656C394.694 410.688 394.694 403.72 394.694 396.697C394.694 395.591 393.047 395.591 393.047 396.697Z" fill="#E8E8E8"/>
<path d="M434.215 396.253C434.215 402.391 434.215 408.585 434.215 414.723C434.215 415.774 435.862 415.774 435.862 414.723C435.862 408.585 435.862 402.391 435.862 396.253C435.862 395.202 434.215 395.202 434.215 396.253Z" fill="#E8E8E8"/>
<path d="M408.142 419.259C428.507 419.259 448.872 419.259 469.237 419.259C470.28 419.259 470.28 417.6 469.237 417.6C448.872 417.6 428.507 417.6 408.142 417.6C407.099 417.6 407.099 419.259 408.142 419.259Z" fill="#E8E8E8"/>
<path d="M362.087 519.85C407.044 519.85 452.001 519.85 496.958 519.85C498.001 519.85 498.001 518.191 496.958 518.191C452.001 518.191 407.044 518.191 362.087 518.191C361.044 518.191 361.044 519.85 362.087 519.85Z" fill="#E8E8E8"/>
<path d="M548.009 505.526C592.143 505.526 636.331 505.526 680.465 505.526C692.871 505.526 705.276 505.526 717.682 505.526C718.725 505.526 718.725 503.867 717.682 503.867C673.548 503.867 629.36 503.867 585.226 503.867C572.82 503.867 560.415 503.867 548.009 503.867C546.966 503.867 546.966 505.526 548.009 505.526Z" fill="#E8E8E8"/>
<path d="M0.782222 533.843C46.0138 533.843 91.3004 533.843 136.532 533.843C137.575 533.843 137.575 532.184 136.532 532.184C91.3004 532.184 46.0138 532.184 0.782222 532.184C-0.260741 532.184 -0.260741 533.843 0.782222 533.843Z" fill="#E8E8E8"/>
<path d="M92.0109 550.432C128.954 550.432 165.897 550.432 202.839 550.432C203.882 550.432 203.882 548.773 202.839 548.773C165.897 548.773 128.954 548.773 92.0109 548.773C90.913 548.773 90.913 550.432 92.0109 550.432Z" fill="#E8E8E8"/>
<path d="M653.619 77.6077C653.619 62.1787 653.619 46.805 653.619 31.3759C653.619 30.3252 651.973 30.3252 651.973 31.3759C651.973 46.805 651.973 62.1787 651.973 77.6077C651.973 78.6584 653.619 78.6584 653.619 77.6077Z" fill="#E8E8E8"/>
<path d="M653.345 31.0438C673.161 31.0438 692.977 31.0438 712.794 31.0438C713.837 31.0438 713.837 29.3848 712.794 29.3848C692.977 29.3848 673.161 29.3848 653.345 29.3848C652.302 29.3848 652.302 31.0438 653.345 31.0438Z" fill="#E8E8E8"/>
<path d="M711.97 30.3252C711.86 45.9754 711.751 61.6256 711.586 77.2758C711.586 78.3265 713.233 78.3265 713.233 77.2758C713.343 61.6256 713.452 45.9754 713.617 30.3252C713.617 29.2744 711.97 29.2744 711.97 30.3252Z" fill="#E8E8E8"/>
<path d="M653.622 78.4383C673.164 78.4383 692.706 78.4383 712.248 78.4383C713.291 78.4383 713.291 76.7793 712.248 76.7793C692.706 76.7793 673.164 76.7793 653.622 76.7793C652.579 76.7793 652.579 78.4383 653.622 78.4383Z" fill="#E8E8E8"/>
<path d="M655.215 34.5849C655.215 47.5806 655.215 60.5211 655.215 73.5168C655.215 74.5675 656.862 74.5675 656.862 73.5168C656.862 60.5211 656.862 47.5806 656.862 34.5849C656.862 33.5342 655.215 33.5342 655.215 34.5849Z" fill="#E8E8E8"/>
<path d="M656.425 35.4129C673.771 35.4129 691.062 35.4129 708.408 35.4129C709.451 35.4129 709.451 33.7539 708.408 33.7539C691.062 33.7539 673.771 33.7539 656.425 33.7539C655.327 33.7539 655.327 35.4129 656.425 35.4129Z" fill="#E8E8E8"/>
<path d="M707.528 34.9716C707.473 47.6909 707.418 60.4101 707.363 73.1846C707.363 74.2353 709.01 74.2353 709.01 73.1846C709.065 60.4654 709.12 47.7462 709.175 34.9716C709.175 33.9209 707.528 33.9209 707.528 34.9716Z" fill="#E8E8E8"/>
<path d="M656.751 74.5653C673.823 74.5653 690.894 74.5653 707.966 74.5653C709.009 74.5653 709.009 72.9062 707.966 72.9062C690.894 72.9062 673.823 72.9062 656.751 72.9062C655.708 72.9062 655.708 74.5653 656.751 74.5653Z" fill="#E8E8E8"/>
<path d="M656.418 63.1192C662.731 60.9071 669.373 62.898 675.521 64.7229C681.778 66.5478 687.926 68.7599 693.91 71.3037C694.898 71.6908 695.337 70.0871 694.349 69.7C687.707 66.8796 680.9 64.5017 673.984 62.5662C668.11 60.9624 661.907 59.414 655.979 61.5154C654.991 61.8473 655.43 63.451 656.418 63.1192Z" fill="#E8E8E8"/>
<path d="M677.277 65.0001C687.651 64.3918 697.367 60.1889 707.632 59.0276C708.675 58.917 708.675 57.258 707.632 57.3686C697.367 58.5299 687.651 62.6775 677.277 63.3411C676.179 63.4517 676.179 65.1107 677.277 65.0001Z" fill="#E8E8E8"/>
<path d="M696.933 44.7588C694.627 43.4316 696.713 39.0628 699.183 40.1135C700.501 40.6665 700.775 42.2702 700.061 43.4315C699.293 44.7035 697.701 44.9247 696.384 44.5376C695.341 44.2611 694.901 45.8648 695.944 46.1413C698.14 46.7496 700.61 46.086 701.708 43.9293C702.696 41.9937 701.928 39.4499 699.842 38.5651C695.56 36.7401 692.047 43.9293 696.109 46.1966C696.987 46.6943 697.866 45.2565 696.933 44.7588Z" fill="#E8E8E8"/>
<path d="M680.136 29.9391C680.191 28.999 680.246 28.0589 680.52 27.1741C680.74 26.4552 681.289 24.7408 682.112 24.409C683.594 23.856 684.143 29.1096 684.253 30.105C684.363 31.1558 686.01 31.1558 685.9 30.105C685.735 28.1695 685.296 22.0864 682.222 22.5288C680.905 22.6947 679.971 24.1878 679.477 25.2938C678.819 26.7317 678.599 28.3354 678.544 29.8838C678.489 30.9899 680.136 30.9899 680.136 29.9391Z" fill="#E8E8E8"/>
<path d="M689.355 287.917C689.355 294.553 689.355 301.244 689.355 307.881C689.355 308.931 691.002 308.931 691.002 307.881C691.002 301.244 691.002 294.553 691.002 287.917C691.002 286.866 689.355 286.866 689.355 287.917Z" fill="#E8E8E8"/>
<path d="M669.431 310.315C684.361 310.315 699.347 310.315 714.278 310.315C715.321 310.315 715.321 308.656 714.278 308.656C699.347 308.656 684.361 308.656 669.431 308.656C668.388 308.656 668.388 310.315 669.431 310.315Z" fill="#E8E8E8"/>
<path d="M675.742 310.813C675.742 313.966 675.742 317.062 675.742 320.215C675.742 321.265 677.389 321.265 677.389 320.215C677.389 317.062 677.389 313.966 677.389 310.813C677.389 309.763 675.742 309.763 675.742 310.813Z" fill="#E8E8E8"/>
<path d="M699.73 311.31C699.73 315.015 699.73 318.776 699.73 322.481C699.73 323.532 701.377 323.532 701.377 322.481C701.377 318.776 701.377 315.015 701.377 311.31C701.377 310.204 699.73 310.204 699.73 311.31Z" fill="#E8E8E8"/>
<path d="M688.095 324.638C698.469 324.638 708.844 324.638 719.219 324.638C720.262 324.638 720.262 322.979 719.219 322.979C708.844 322.979 698.469 322.979 688.095 322.979C687.052 322.979 687.052 324.638 688.095 324.638Z" fill="#E8E8E8"/>
<path d="M308.289 486.338C325.58 474.559 334.253 468.641 336.504 467.922C341.993 466.153 359.778 460.457 375.313 470.024C386.456 476.881 396.721 491.757 392.439 501.711C389.365 508.79 379.979 511.002 371.47 513.048C358.9 516.034 348.141 514.375 342.103 512.937C339.742 515.26 335.955 518.357 330.63 520.403C321.792 523.832 311.582 523.223 311.088 521.177C310.869 520.127 313.065 518.08 323.714 513.878C322.451 512.495 320.585 510.836 317.95 509.675C310.155 506.08 302.36 509.564 300.878 510.283C308.508 514.762 310.155 517.085 309.771 518.357C308.783 521.564 293.248 522.615 289.076 515.26C288.637 514.541 287.43 512.053 288.418 507.352C290.394 498.725 297.53 493.693 308.289 486.338Z" fill="#8AA6BF"/>
<path d="M383.6 498.616C385.357 494.966 393.261 495.851 396.335 496.183C400.288 496.625 403.801 497.012 406.985 499.832C409.4 501.934 412.913 506.524 411.65 510.229C410.498 513.768 406.161 513.492 397.763 517.639C396.335 518.358 382.612 525.16 383.545 529.64C383.93 531.465 386.4 531.409 394.249 534.783C401.056 537.658 405.063 539.428 408.412 543.299C410.059 545.235 413.352 549.05 412.474 552.921C410.827 560.055 396.116 561.272 395.732 560.166C395.402 559.226 405.722 556.627 405.832 551.76C405.942 548.055 400.178 545.069 396.555 543.133C385.906 537.548 378.715 539.539 375.915 534.174C374.323 531.133 375.202 527.87 375.366 527.262C376.19 524.275 378.495 521.732 389.748 516.036C400.013 510.837 404.569 509.621 404.514 507.298C404.459 505.141 400.507 503.372 398.092 502.763C391.285 500.938 386.29 505.252 383.984 502.819C382.996 501.713 383.051 499.832 383.6 498.616Z" fill="#8AA6BF"/>
<path d="M289.844 471.85C293.302 474.449 296.76 477.048 300.218 479.647C305.159 479.15 310.044 478.707 314.985 478.209C318.059 475.223 321.133 472.182 324.207 469.195C324.426 471.076 324.865 475.334 325.03 477.38C326.951 495.795 327.116 497.399 325.963 499.5C322.176 506.302 309.386 509.067 302.03 504.311C298.462 501.989 297.09 498.505 294.51 491.813C291.381 483.739 290.283 476.661 289.844 471.85Z" fill="#8AA6BF"/>
<path d="M303.788 490.984C302.965 492.698 301.153 493.749 299.287 493.417C298.793 493.306 298.573 494.136 299.068 494.191C301.318 494.578 303.569 493.472 304.502 491.371C304.721 490.928 304.063 490.486 303.788 490.984Z" fill="white"/>
<path d="M311.42 490.431C313.231 492.2 315.646 492.975 318.117 492.587C318.665 492.532 318.391 491.703 317.897 491.813C315.701 492.145 313.56 491.426 311.969 489.878C311.584 489.491 311.035 490.044 311.42 490.431Z" fill="white"/>
<path d="M308.511 495.685C308.346 495.685 308.236 495.63 308.072 495.63C308.127 495.575 308.127 495.464 308.181 495.409C308.291 495.519 308.456 495.63 308.566 495.74C308.566 495.63 308.511 495.575 308.511 495.464C308.346 494.966 307.578 495.187 307.742 495.685C308.017 496.902 308.456 498.782 306.974 499.39C306.48 499.612 306.699 500.386 307.193 500.165C309.17 499.335 308.95 497.178 308.566 495.409C308.291 495.464 308.017 495.575 307.797 495.63C307.797 495.74 307.852 495.796 307.852 495.906C307.907 496.072 308.072 496.238 308.236 496.238C309.664 496.128 308.511 494.137 307.852 495.298C307.578 495.685 308.236 496.128 308.511 495.685Z" fill="white"/>
<path d="M307.956 496.072C308.23 497.012 308.285 498.063 308.889 498.892C309.383 499.556 310.152 499.888 310.975 499.722C311.469 499.611 311.25 498.837 310.756 498.948C309.219 499.28 308.999 496.846 308.725 495.851C308.615 495.353 307.846 495.574 307.956 496.072Z" fill="white"/>
<path d="M305.329 496.846C303.737 496.127 302.09 495.795 300.334 495.906C299.785 495.961 299.785 496.79 300.334 496.735C301.925 496.625 303.462 496.901 304.89 497.565C305.384 497.786 305.823 497.067 305.329 496.846Z" fill="white"/>
<path d="M303.902 497.952C302.53 498.062 301.322 498.615 300.389 499.556C300.004 499.943 300.608 500.496 300.992 500.164C301.816 499.39 302.804 498.892 303.957 498.781C304.396 498.726 304.396 497.897 303.902 497.952Z" fill="white"/>
<path d="M311.748 496.459C313.34 495.85 314.932 495.629 316.634 495.795C317.183 495.85 317.183 495.021 316.634 494.965C314.877 494.799 313.176 495.076 311.529 495.684C311.035 495.85 311.199 496.68 311.748 496.459Z" fill="white"/>
<path d="M312.849 497.953C314.057 497.787 315.21 497.898 316.362 498.34C316.856 498.506 317.076 497.732 316.582 497.566C315.374 497.123 314.112 497.013 312.849 497.179C312.3 497.179 312.3 498.063 312.849 497.953Z" fill="white"/>
<path d="M299.892 488.55C300.715 488.052 301.703 488.052 302.526 488.55C302.966 488.827 303.405 488.108 302.966 487.831C301.868 487.223 300.605 487.223 299.507 487.831C299.013 488.108 299.452 488.827 299.892 488.55Z" fill="white"/>
<path d="M311.42 487.444C312.243 487.002 313.176 486.891 314.164 487.002C314.658 487.057 314.933 486.283 314.384 486.227C313.231 486.061 312.078 486.227 311.035 486.78C310.487 486.946 310.926 487.665 311.42 487.444Z" fill="white"/>
<path d="M298.3 470.079C300.001 469.36 301.703 468.641 303.35 467.867C303.02 467.646 302.746 467.425 302.417 467.148C301.758 469.25 300.77 471.13 299.452 472.899C299.123 473.342 299.672 474.005 300.166 473.84C302.032 473.121 303.899 472.457 305.765 471.738C306.479 471.462 306.204 470.245 305.436 470.521C303.569 471.24 301.703 471.904 299.837 472.623C300.056 472.955 300.276 473.231 300.55 473.563C301.977 471.738 302.966 469.747 303.679 467.535C303.844 466.982 303.24 466.65 302.746 466.816C301.044 467.535 299.343 468.254 297.696 469.028C296.927 469.36 297.586 470.411 298.3 470.079Z" fill="#8AA6BF"/>
<path d="M301.045 460.016C302.198 459.352 303.35 458.91 304.613 458.633C304.393 458.301 304.174 458.025 303.899 457.693C303.405 458.799 302.801 459.905 302.088 460.901C301.813 461.343 302.198 461.785 302.637 461.841C304.119 461.951 305.491 461.564 306.644 460.679C307.248 460.182 306.644 459.131 306.04 459.629C305.052 460.403 303.954 460.735 302.692 460.624C302.856 460.956 303.021 461.232 303.241 461.564C303.954 460.513 304.558 459.463 305.052 458.357C305.272 457.859 304.887 457.306 304.338 457.417C302.966 457.693 301.649 458.191 300.441 458.91C299.727 459.352 300.331 460.403 301.045 460.016Z" fill="#8AA6BF"/>
<path d="M310.099 473.398C308.287 471.573 311.416 470.523 311.746 468.919C312.075 467.039 309.879 465.269 312.349 463.831C313.063 463.444 312.404 462.338 311.746 462.78C310.867 463.278 310.154 464.052 309.934 465.103C309.605 466.873 311.142 467.923 309.824 469.527C309.22 470.301 308.507 470.523 308.287 471.573C308.068 472.624 308.507 473.509 309.22 474.283C309.824 474.836 310.703 473.951 310.099 473.398Z" fill="#8AA6BF"/>
<path d="M461.663 315.513C324.047 325.523 186.431 335.477 48.8698 345.486C45.1371 244.949 41.4044 144.412 37.7266 43.8751C175.946 41.9948 314.166 40.1146 452.386 38.2344C455.46 130.642 458.534 223.05 461.663 315.513Z" fill="white" stroke="#161616" stroke-width="3.5" stroke-miterlimit="10"/>
<path d="M154.649 92.8153C181.327 92.8153 208.06 92.8153 234.738 92.8153C235.781 92.8153 235.781 91.1562 234.738 91.1562C208.06 91.1562 181.327 91.1562 154.649 91.1562C153.606 91.1562 153.606 92.8153 154.649 92.8153Z" fill="#161616"/>
<path d="M184.62 99.618C212.122 99.618 239.623 99.618 267.124 99.618C268.167 99.618 268.167 97.959 267.124 97.959C239.623 97.959 212.122 97.959 184.62 97.959C183.522 97.959 183.522 99.618 184.62 99.618Z" fill="#161616"/>
<path d="M54.4193 261.872C55.4074 284.988 56.3954 308.159 57.3835 331.275C57.4384 332.326 59.0852 332.326 59.0303 331.275C58.0422 308.159 57.0542 284.988 56.0661 261.872C56.0112 260.821 54.3644 260.821 54.4193 261.872Z" fill="#161616"/>
<path d="M175.337 248.378C177.697 248.378 180.058 248.378 182.473 248.378C183.516 248.378 183.516 246.719 182.473 246.719C180.113 246.719 177.752 246.719 175.337 246.719C174.294 246.719 174.294 248.378 175.337 248.378Z" fill="#161616"/>
<path d="M188.685 248.378C194.778 248.378 200.816 248.378 206.909 248.378C207.952 248.378 207.952 246.719 206.909 246.719C200.816 246.719 194.778 246.719 188.685 246.719C187.642 246.719 187.642 248.378 188.685 248.378Z" fill="#161616"/>
<path d="M220.685 247.493C227.93 247.493 235.176 247.493 242.477 247.493C243.52 247.493 243.52 245.834 242.477 245.834C235.231 245.834 227.985 245.834 220.685 245.834C219.642 245.834 219.642 247.493 220.685 247.493Z" fill="#161616"/>
<path d="M185.167 259.991C194.06 259.991 202.952 259.991 211.845 259.991C212.888 259.991 212.888 258.332 211.845 258.332C202.952 258.332 194.06 258.332 185.167 258.332C184.069 258.332 184.069 259.991 185.167 259.991Z" fill="#161616"/>
<path d="M198.013 253.743C208.387 253.743 218.762 253.743 229.137 253.743C230.18 253.743 230.18 252.084 229.137 252.084C218.762 252.084 208.387 252.084 198.013 252.084C196.97 252.084 196.97 253.743 198.013 253.743Z" fill="#161616"/>
<path d="M253.122 312.858C270.578 312.858 288.089 312.858 305.545 312.858C306.588 312.858 306.588 311.199 305.545 311.199C288.089 311.199 270.578 311.199 253.122 311.199C252.079 311.199 252.079 312.858 253.122 312.858Z" fill="#161616"/>
<path d="M296.22 317.339C305.387 317.339 314.609 317.339 323.776 317.339C324.819 317.339 324.819 315.68 323.776 315.68C314.609 315.68 305.387 315.68 296.22 315.68C295.177 315.68 295.177 317.339 296.22 317.339Z" fill="#161616"/>
<path d="M320.204 310.593C329.261 310.593 338.264 310.593 347.321 310.593C348.364 310.593 348.364 308.934 347.321 308.934C338.264 308.934 329.261 308.934 320.204 308.934C319.161 308.934 319.161 310.593 320.204 310.593Z" fill="#161616"/>
<path d="M366.423 160.671C383.165 160.671 399.907 160.671 416.65 160.671C417.693 160.671 417.693 159.012 416.65 159.012C399.907 159.012 383.165 159.012 366.423 159.012C365.38 159.012 365.38 160.671 366.423 160.671Z" fill="#161616"/>
<path d="M350.886 163.325C356.21 163.325 361.535 163.325 366.86 163.325C367.903 163.325 367.903 161.666 366.86 161.666C361.535 161.666 356.21 161.666 350.886 161.666C349.788 161.666 349.788 163.325 350.886 163.325Z" fill="#161616"/>
<path d="M353.966 167.804C371.861 167.804 389.811 167.804 407.706 167.804C408.749 167.804 408.749 166.145 407.706 166.145C389.811 166.145 371.861 166.145 353.966 166.145C352.923 166.145 352.923 167.804 353.966 167.804Z" fill="#161616"/>
<path d="M420.222 163.768C423.625 163.768 427.029 163.768 430.432 163.768C431.475 163.768 431.475 162.109 430.432 162.109C427.029 162.109 423.625 162.109 420.222 162.109C419.124 162.109 419.124 163.768 420.222 163.768Z" fill="#161616"/>
<path d="M406.882 231.347C411.932 231.347 416.927 231.347 421.977 231.347C423.02 231.347 423.02 229.688 421.977 229.688C416.927 229.688 411.932 229.688 406.882 229.688C405.784 229.688 405.784 231.347 406.882 231.347Z" fill="#161616"/>
<path d="M397.109 235.825C402.598 235.825 408.087 235.825 413.521 235.825C414.564 235.825 414.564 234.166 413.521 234.166C408.032 234.166 402.543 234.166 397.109 234.166C396.011 234.166 396.011 235.825 397.109 235.825Z" fill="#161616"/>
<path d="M405.063 240.304C415.877 240.304 426.691 240.304 437.505 240.304C438.548 240.304 438.548 238.645 437.505 238.645C426.691 238.645 415.877 238.645 405.063 238.645C404.021 238.645 404.021 240.304 405.063 240.304Z" fill="#161616"/>
<path d="M425.546 234.94C428.785 234.94 432.078 234.94 435.317 234.94C436.36 234.94 436.36 233.281 435.317 233.281C432.078 233.281 428.785 233.281 425.546 233.281C424.448 233.281 424.448 234.94 425.546 234.94Z" fill="#161616"/>
<path d="M199.438 165.979C207.123 165.979 214.754 165.979 222.439 165.979C223.482 165.979 223.482 164.32 222.439 164.32C214.754 164.32 207.123 164.32 199.438 164.32C198.396 164.32 198.396 165.979 199.438 165.979Z" fill="#161616"/>
<path d="M216.182 170.735C227.49 170.735 238.853 170.735 250.16 170.735C251.203 170.735 251.203 169.076 250.16 169.076C238.853 169.076 227.49 169.076 216.182 169.076C215.139 169.076 215.084 170.735 216.182 170.735Z" fill="#161616"/>
<path d="M245.989 164.376C252.412 164.376 258.889 164.376 265.311 164.376C266.354 164.376 266.354 162.717 265.311 162.717C258.889 162.717 252.412 162.717 245.989 162.717C244.946 162.717 244.946 164.376 245.989 164.376Z" fill="#161616"/>
<path d="M49.5273 76.1162C50.735 118.09 51.9426 160.118 53.1503 202.092C53.4796 214.037 53.809 225.927 54.1932 237.872C54.2481 238.923 55.8949 238.923 55.84 237.872C54.6324 195.898 53.4247 153.869 52.2171 111.896C51.8877 99.9509 51.5584 88.0612 51.1741 76.1162C51.1741 75.0654 49.5273 75.0654 49.5273 76.1162Z" fill="#161616"/>
<path d="M448.543 213.317C449.366 241.078 450.19 268.784 451.013 296.545C451.068 297.596 452.715 297.596 452.66 296.545C451.837 268.784 451.013 241.078 450.19 213.317C450.19 212.267 448.543 212.267 448.543 213.317Z" fill="#161616"/>
<path d="M334.859 200.595C335.189 203.968 335.518 207.397 335.793 210.77C338.976 209.94 342.105 209.056 345.289 208.226C344.85 204.853 344.466 201.424 344.026 198.051C340.952 198.88 337.933 199.765 334.859 200.595Z" fill="#D73F3B"/>
<path d="M332.938 226.42C336.231 225.978 339.47 225.591 342.763 225.148C343.202 229.185 343.587 233.222 344.026 237.259C341.062 237.37 338.097 237.481 335.188 237.591C334.42 233.831 333.706 230.126 332.938 226.42Z" fill="#D73F3B"/>
<path d="M344.961 250.921C346.004 254.405 347.047 257.944 348.145 261.428C351.109 260.045 354.073 258.663 356.982 257.28C356.049 254.183 355.061 251.142 354.128 248.045C351.109 249.04 348.035 249.98 344.961 250.921Z" fill="#D73F3B"/>
<path d="M127.969 283.879C128.682 294.608 129.396 305.336 130.11 316.009C148.773 314.793 167.437 313.631 186.1 312.415C186.43 302.792 186.814 293.115 187.143 283.492C167.437 283.658 147.675 283.769 127.969 283.879Z" fill="#202020"/>
<path d="M359.999 65.6056C362.151 65.6056 363.896 64.1448 363.896 62.3428C363.896 60.5409 362.151 59.0801 359.999 59.0801C357.846 59.0801 356.102 60.5409 356.102 62.3428C356.102 64.1448 357.846 65.6056 359.999 65.6056Z" fill="#202020"/>
<path d="M95.1449 90.0479C96.9336 90.0479 98.3836 89.0823 98.3836 87.8911C98.3836 86.7 96.9336 85.7344 95.1449 85.7344C93.3562 85.7344 91.9062 86.7 91.9062 87.8911C91.9062 89.0823 93.3562 90.0479 95.1449 90.0479Z" fill="#D73F3B"/>
<path d="M146.689 152.596C148.084 152.596 149.214 151.259 149.214 149.609C149.214 147.96 148.084 146.623 146.689 146.623C145.295 146.623 144.164 147.96 144.164 149.609C144.164 151.259 145.295 152.596 146.689 152.596Z" fill="#D73F3B"/>
<path opacity="0.21" d="M123.526 78.1038C124.514 77.9379 126.435 87.1731 131.156 103.929C137.359 125.995 143.507 143.801 147.953 155.968C141.201 160.171 126.106 168.189 105.521 168.466C90.9746 168.632 79.502 164.871 72.6953 161.996C86.0343 163.489 96.7932 163.102 104.314 162.383C116.225 161.277 114.139 160.005 123.142 159.562C126.874 159.396 131.76 159.396 136.755 156.355C138.567 155.249 139.884 154.032 140.762 153.147C137.249 145.848 132.748 135.119 129.125 121.681C123.361 99.8371 122.099 78.3803 123.526 78.1038Z" fill="#FFCC4D"/>
<path opacity="0.25" d="M174.959 138.105C175.837 145.129 177.429 152.981 180.064 161.387C187.584 185.277 200.265 202.31 209.816 212.817C204.107 217.075 197.026 221.499 188.518 225.204C162.718 236.431 138.62 234.772 125.72 232.781C125.226 229.85 124.732 226.919 124.238 223.988C129.728 224.154 135.546 224.043 141.639 223.711C163.377 222.329 182.04 217.407 196.916 211.932C192.195 203.858 188.792 196.89 186.432 191.637C180.723 179.083 176.496 169.627 175.014 156.852C174.081 149.055 174.465 142.474 174.959 138.105Z" fill="#FFCC4D"/>
<path opacity="0.14" d="M349.464 174.715C350.013 187.323 351.33 197.775 352.483 205.296C355.172 222.55 357.149 234.495 364.175 247.933C368.566 256.284 373.507 262.422 377.075 266.404C370.872 271.768 362.528 277.851 351.824 282.718C324.927 295.05 299.676 292.561 287.874 290.571C287.27 287.861 286.666 285.151 286.062 282.386C287.545 282.497 289.85 282.607 292.65 282.663C301.981 282.884 321.413 283.216 343.7 275.695C349.958 273.593 358.74 270.054 368.621 264.192C364.724 258.938 360.881 252.689 357.533 245.445C344.304 216.854 346.939 189.093 349.464 174.715Z" fill="#FFCC4D"/>
<path opacity="0.18" d="M391.511 50.6758C392.609 55.8188 394.2 63.6715 395.792 73.4598C398.757 92.3727 398.537 99.23 401.995 110.401C403.807 116.207 407.045 124.447 413.138 133.848C408.033 138.051 401.666 142.42 393.816 146.07C368.126 158.07 343.534 154.697 332.227 152.319C332.336 150.107 332.446 147.895 332.556 145.738C333.983 146.125 336.124 146.623 338.759 147.065C342.217 147.618 355.007 149.499 379.05 143.416C385.692 141.757 394.64 139.102 404.905 134.844C402.928 131.305 400.019 125.775 397.384 118.696C389.699 98.1793 389.754 80.3724 389.864 71.1924C389.919 66.1601 390.248 59.1368 391.511 50.6758Z" fill="#FFCC4D"/>
<path d="M63.3633 74.9523C57.9289 103.93 63.4182 133.24 68.9075 161.775C69.127 162.826 70.7189 162.383 70.4994 161.332C65.065 133.129 59.6306 104.096 64.9552 75.3947C65.1199 74.3993 63.528 73.9016 63.3633 74.9523Z" fill="#202020"/>
<path d="M64.9028 74.7306C72.7525 80.0395 82.2489 80.9796 91.5258 80.316C102.12 79.5418 112.605 77.2744 123.089 75.5048C124.132 75.3389 123.693 73.7352 122.65 73.9011C112.605 75.5601 102.559 77.7168 92.4041 78.5463C83.1272 79.3206 73.6308 78.6017 65.7262 73.2375C64.8479 72.6844 64.0245 74.1223 64.9028 74.7306Z" fill="#202020"/>
<path d="M121.986 76.6669C123.523 103.101 127.475 130.088 140.759 153.314C141.308 154.254 142.735 153.425 142.186 152.485C129.067 129.48 125.169 102.769 123.632 76.6669C123.578 75.6162 121.931 75.6162 121.986 76.6669Z" fill="#202020"/>
<path d="M70.276 162.216C82.7367 165.866 96.1305 163.654 108.811 162.603C120.064 161.663 132.14 161.221 141.801 154.585C142.68 153.976 141.856 152.539 140.978 153.147C131.262 159.838 119.076 160.06 107.768 161C95.5816 161.995 82.7367 164.041 70.7152 160.557C69.6722 160.336 69.2331 161.94 70.276 162.216Z" fill="#202020"/>
<path d="M91.3548 88.225C90.257 87.7272 91.4646 86.6765 92.1233 86.5106C92.9467 86.2894 94.5386 86.1788 94.9229 87.1189C95.1973 87.8378 94.7582 88.778 94.0995 89.0545C93.0565 89.5522 91.9038 88.9439 91.1902 88.225C90.4217 87.4507 89.2689 88.6121 90.0374 89.3863C91.4097 90.7688 93.6603 91.4877 95.362 90.2158C96.7343 89.2204 97.2284 87.0083 96.0756 85.6811C94.7582 84.188 91.9587 84.3539 90.4766 85.4599C89.1591 86.4553 88.8847 88.8333 90.5863 89.6075C91.5195 90.1052 92.3429 88.6674 91.3548 88.225Z" fill="#202020"/>
<path d="M113.368 162.439C109.415 182.624 113.642 203.03 117.924 222.827C118.143 223.878 119.735 223.436 119.516 222.385C115.289 202.919 111.117 182.789 114.959 162.881C115.179 161.83 113.587 161.388 113.368 162.439Z" fill="#202020"/>
<path d="M136.036 141.257C148.716 138.824 161.561 137.939 174.406 138.436C174.131 138.16 173.857 137.883 173.582 137.607C171.002 164.262 182.31 189.645 196.033 211.711C196.582 212.595 198.009 211.766 197.46 210.881C183.902 189.037 172.649 163.986 175.229 137.607C175.284 137.164 174.79 136.777 174.406 136.777C161.396 136.28 148.386 137.22 135.596 139.653C134.553 139.874 134.993 141.478 136.036 141.257Z" fill="#202020"/>
<path d="M118.806 223.989C145.484 227.141 172.546 223.104 197.247 212.486C198.235 212.043 197.357 210.661 196.424 211.048C172.052 221.555 145.154 225.426 118.806 222.33C117.763 222.219 117.763 223.878 118.806 223.989Z" fill="#202020"/>
<path d="M146.36 148.061C146.36 148.005 146.525 147.729 146.525 147.618C146.58 147.397 146.745 147.176 146.909 147.01C147.239 146.733 147.623 146.512 148.062 146.457C148.886 146.346 149.654 146.789 149.874 147.618C150.038 148.282 149.764 149.167 148.995 149.277C148.282 149.388 147.623 148.89 147.513 148.171C147.349 147.121 145.757 147.563 145.921 148.614C146.196 150.549 148.666 151.489 150.258 150.549C152.014 149.499 151.905 146.789 150.423 145.517C148.776 144.134 146.031 144.853 145.098 146.733C144.659 147.674 144.659 148.946 145.702 149.499C146.525 149.941 147.733 149.554 147.952 148.503C148.117 147.452 146.525 147.01 146.36 148.061Z" fill="#202020"/>
<path d="M68.7956 105.035C83.397 107.081 97.8887 104.04 111.886 100.003C112.929 99.7263 112.49 98.1226 111.447 98.3991C97.724 102.325 83.5068 105.422 69.2347 103.432C68.1918 103.266 67.7526 104.869 68.7956 105.035Z" fill="#202020"/>
<path d="M71.54 115.875C79.1152 116.705 86.6904 115.93 93.9912 113.608C94.9792 113.276 94.595 111.672 93.552 112.004C86.416 114.271 79.0054 114.99 71.54 114.216C70.4971 114.105 70.4971 115.764 71.54 115.875Z" fill="#202020"/>
<path d="M71.54 129.257C86.0317 130.972 100.633 129.921 114.686 126.216C115.729 125.939 115.29 124.335 114.247 124.612C100.304 128.317 85.867 129.313 71.54 127.598C70.4971 127.432 70.4971 129.091 71.54 129.257Z" fill="#202020"/>
<path d="M125.773 214.144C140.319 214.807 154.866 213.038 168.809 208.835C169.797 208.558 169.412 206.955 168.369 207.231C154.536 211.379 140.209 213.148 125.773 212.485C124.675 212.429 124.675 214.088 125.773 214.144Z" fill="#202020"/>
<path d="M128.575 201.481C135.053 201.26 141.53 200.762 148.007 200.043C149.05 199.933 149.05 198.274 148.007 198.384C141.53 199.103 135.107 199.601 128.575 199.822C127.532 199.877 127.532 201.536 128.575 201.481Z" fill="#202020"/>
<path d="M133.841 178.697C138.122 179.25 142.569 178.144 146.796 177.536C151.461 176.817 156.072 176.153 160.738 175.434C161.781 175.268 161.342 173.664 160.299 173.83C156.017 174.494 151.681 175.158 147.399 175.766C142.953 176.43 138.342 177.646 133.841 177.038C132.798 176.872 132.798 178.531 133.841 178.697Z" fill="#202020"/>
<path d="M327.835 54.7121C321.852 84.2981 321.248 114.714 326.023 144.521C326.188 145.572 327.78 145.129 327.615 144.079C322.895 114.603 323.553 84.4087 329.427 55.1545C329.646 54.1038 328.054 53.6614 327.835 54.7121Z" fill="#202020"/>
<path d="M329.703 55.0988C349.629 50.5088 370.214 49.5687 390.524 52.3337C391.567 52.4996 392.006 50.8959 390.963 50.73C370.379 47.9096 349.519 48.8498 329.264 53.4951C328.276 53.7716 328.715 55.3753 329.703 55.0988Z" fill="#202020"/>
<path d="M390.029 50.8408C389.425 79.3208 389.809 109.405 404.136 134.898C404.685 135.838 406.057 135.009 405.563 134.069C391.401 108.852 391.072 79.0443 391.675 50.8408C391.73 49.7901 390.083 49.7901 390.029 50.8408Z" fill="#202020"/>
<path d="M327.284 145.406C333.432 147.286 340.019 147.396 346.387 147.452C353.248 147.507 360.11 147.065 366.971 146.124C380.091 144.355 392.881 140.76 405.122 135.562C406.11 135.175 405.232 133.737 404.298 134.124C392.057 139.322 379.158 142.862 365.983 144.576C359.835 145.35 353.633 145.793 347.43 145.737C340.897 145.737 334.036 145.682 327.778 143.746C326.68 143.525 326.296 145.129 327.284 145.406Z" fill="#202020"/>
<path d="M360.881 56.8678C359.014 57.5315 358.191 59.6882 358.85 61.5131C359.618 63.5593 361.979 64.057 363.735 62.8403C365.437 61.6237 365.986 59.1905 364.339 57.6421C362.912 56.3148 360.442 56.2595 359.124 57.6974C358.411 58.4716 359.563 59.6329 360.277 58.8587C361.924 57.0891 365.162 59.5776 362.912 61.3472C362.033 62.0108 360.771 62.0108 360.387 60.8495C360.112 59.9647 360.387 58.7481 361.32 58.4163C362.308 58.0845 361.869 56.4807 360.881 56.8678Z" fill="#202020"/>
<path d="M328.659 80.4261C343.645 80.8132 358.576 80.5367 373.507 79.5412C374.55 79.4859 374.55 77.8269 373.507 77.8822C358.576 78.8776 343.59 79.2094 328.659 78.767C327.561 78.767 327.561 80.4261 328.659 80.4261Z" fill="#202020"/>
<path d="M330.14 88.8323C335.739 89.0535 341.338 89.2747 346.882 89.4959C347.925 89.5512 347.925 87.8921 346.882 87.8368C341.283 87.6156 335.684 87.3944 330.14 87.1732C329.042 87.1179 329.042 88.777 330.14 88.8323Z" fill="#202020"/>
<path d="M328.603 100.557C342.71 101.331 356.982 101.995 370.87 98.898C371.913 98.6768 371.474 97.0731 370.431 97.2943C356.653 100.336 342.545 99.6723 328.603 98.898C327.56 98.8427 327.56 100.502 328.603 100.557Z" fill="#202020"/>
<path d="M123.96 280.339C122.697 291.399 122.258 302.515 122.642 313.63C122.697 314.681 124.344 314.681 124.289 313.63C123.905 302.515 124.344 291.399 125.607 280.339C125.716 279.288 124.07 279.288 123.96 280.339Z" fill="#202020"/>
<path d="M124.509 281.004C144.051 281.004 163.647 280.728 183.189 280.119C184.232 280.064 184.232 278.405 183.189 278.46C163.647 279.069 144.051 279.345 124.509 279.345C123.466 279.345 123.466 281.004 124.509 281.004Z" fill="#202020"/>
<path d="M183.029 279.345C183.193 288.967 183.358 298.534 183.523 308.157C183.523 309.207 185.169 309.207 185.169 308.157C185.005 298.534 184.84 288.967 184.675 279.345C184.675 278.294 182.974 278.294 183.029 279.345Z" fill="#202020"/>
<path d="M122.477 312.414C122.586 316.009 128.789 314.405 130.82 314.295C136.639 313.907 142.458 313.52 148.221 313.078C160.023 312.248 171.825 311.474 183.627 310.645C184.67 310.589 184.67 308.93 183.627 308.986C173.582 309.649 163.591 310.368 153.546 311.032C148.77 311.364 143.995 311.695 139.219 312.027C137.792 312.138 124.123 313.465 124.068 312.414C124.123 311.364 122.477 311.364 122.477 312.414Z" fill="#202020"/>
<path d="M128.956 288.469C142.13 287.861 155.305 288.359 168.369 290.018C169.412 290.128 169.412 288.469 168.369 288.359C155.305 286.7 142.13 286.202 128.956 286.81C127.858 286.866 127.858 288.525 128.956 288.469Z" fill="#202020"/>
<path d="M129.45 296.875C136.806 296.322 144.216 295.713 151.572 295.16C152.615 295.105 152.615 293.446 151.572 293.501C144.216 294.054 136.806 294.663 129.45 295.216C128.407 295.271 128.407 296.93 129.45 296.875Z" fill="#202020"/>
<path d="M131.918 305.335C142.512 303.953 154.04 301.132 164.689 303.068C165.732 303.234 166.171 301.685 165.128 301.464C154.259 299.473 142.732 302.238 131.918 303.676C130.93 303.842 130.875 305.501 131.918 305.335Z" fill="#202020"/>
<path d="M274.701 186.218C265.973 217.518 267.071 251.031 277.775 281.723C278.104 282.718 279.696 282.276 279.367 281.28C268.773 250.865 267.675 217.684 276.293 186.66C276.567 185.61 274.976 185.167 274.701 186.218Z" fill="#202020"/>
<path d="M275.796 186.771C300.223 186.66 324.541 183.453 348.2 177.204C349.243 176.927 348.803 175.324 347.76 175.6C324.266 181.794 300.114 185.001 275.796 185.112C274.698 185.112 274.698 186.771 275.796 186.771Z" fill="#202020"/>
<path d="M347.758 176.208C346.77 191.582 347.428 207.066 350.173 222.274C351.545 229.961 353.192 237.647 356.211 244.836C359.23 251.97 363.402 258.441 368.288 264.358C368.946 265.187 370.154 264.026 369.44 263.196C364.445 257.169 360.218 250.477 357.254 243.177C354.455 236.21 352.918 228.744 351.655 221.389C349.02 206.513 348.416 191.305 349.35 176.208C349.459 175.157 347.813 175.157 347.758 176.208Z" fill="#202020"/>
<path d="M277.989 282.608C309.059 284.82 341.5 281.28 368.727 265.133C369.66 264.579 368.837 263.142 367.904 263.695C340.841 279.732 308.729 283.105 277.989 280.949C276.946 280.838 276.946 282.497 277.989 282.608Z" fill="#202020"/>
<path d="M311.035 191.749C310.102 190.145 311.968 188.154 313.56 189.426C315.262 190.808 313.45 193.021 311.639 192.302C310.651 191.914 310.212 193.518 311.2 193.905C312.682 194.514 314.493 193.85 315.372 192.523C316.36 191.03 315.92 189.149 314.548 188.099C311.584 185.721 307.851 189.426 309.608 192.578C310.157 193.518 311.584 192.689 311.035 191.749Z" fill="#202020"/>
<path d="M276.345 210.827C292.758 210.551 309.171 209.39 325.529 207.399C326.572 207.288 326.572 205.629 325.529 205.74C309.225 207.786 292.813 208.892 276.345 209.168C275.302 209.224 275.302 210.883 276.345 210.827Z" fill="#202020"/>
<path d="M331.406 199.711C331.9 202.255 332.395 204.854 332.889 207.398C333.108 208.449 334.7 208.006 334.48 206.956C333.986 204.412 333.492 201.813 332.998 199.269C332.834 198.218 331.242 198.66 331.406 199.711Z" fill="#202020"/>
<path d="M332.5 199.49C335.519 199.048 338.539 198.606 341.613 198.108C342.655 197.942 342.216 196.338 341.173 196.504C338.154 196.947 335.135 197.389 332.061 197.887C331.018 198.053 331.457 199.656 332.5 199.49Z" fill="#202020"/>
<path d="M341.121 197.609C341.56 199.987 341.945 202.365 342.384 204.687C342.549 205.738 344.14 205.296 343.976 204.245C343.537 201.867 343.152 199.489 342.713 197.167C342.548 196.171 340.957 196.614 341.121 197.609Z" fill="#202020"/>
<path d="M334.254 208.671C337.493 208.007 340.567 207.122 343.641 205.906C344.629 205.519 344.19 203.915 343.202 204.302C340.128 205.463 336.999 206.403 333.815 207.067C332.772 207.288 333.211 208.892 334.254 208.671Z" fill="#202020"/>
<path d="M334.536 201.37C335.14 202.752 335.963 203.858 337.171 204.798C337.61 205.13 338.433 205.13 338.543 204.411C338.982 201.425 340.025 198.771 341.782 196.282C342.386 195.397 340.958 194.568 340.355 195.452C338.543 197.996 337.39 200.872 336.951 203.969C337.39 203.858 337.884 203.748 338.324 203.582C337.281 202.752 336.512 201.757 335.963 200.485C335.524 199.545 334.097 200.374 334.536 201.37Z" fill="#202020"/>
<path d="M335.136 225.095C334.258 229.077 334.642 232.948 336.234 236.653C336.673 237.648 338.046 236.763 337.661 235.823C336.234 232.561 335.96 229.021 336.728 225.537C336.948 224.487 335.356 224.044 335.136 225.095Z" fill="#202020"/>
<path d="M336.235 225.648C339.528 225.095 342.822 224.597 346.115 224.044C345.786 223.712 345.457 223.38 345.127 223.048C344.578 226.588 344.963 229.961 346.335 233.279C346.719 234.275 348.311 233.832 347.927 232.837C346.664 229.85 346.225 226.698 346.719 223.491C346.829 222.827 346.39 222.385 345.731 222.495C342.438 222.993 339.144 223.546 335.851 224.099C334.753 224.21 335.192 225.814 336.235 225.648Z" fill="#202020"/>
<path d="M336.946 236.708C340.569 236.597 344.027 235.878 347.431 234.662C348.419 234.274 347.98 232.671 346.992 233.058C343.753 234.274 340.405 234.938 336.946 235.049C335.903 235.049 335.903 236.708 336.946 236.708Z" fill="#202020"/>
<path d="M337.443 229.021C337.937 230.459 338.76 231.455 340.078 232.229C340.682 232.561 341.231 232.118 341.34 231.51C341.67 228.579 342.438 225.759 343.646 223.049C344.085 222.109 342.658 221.224 342.219 222.219C340.901 225.206 340.078 228.302 339.694 231.51C340.133 231.289 340.517 231.012 340.956 230.791C340.023 230.238 339.474 229.574 339.09 228.524C338.706 227.584 337.114 228.026 337.443 229.021Z" fill="#202020"/>
<path d="M338.54 250.753C338.925 254.458 339.913 257.942 341.56 261.26C341.999 262.2 343.426 261.371 342.987 260.431C341.505 257.389 340.571 254.126 340.242 250.753C340.077 249.702 338.431 249.702 338.54 250.753Z" fill="#202020"/>
<path d="M339.306 250.588C343.532 250.976 347.485 250.201 351.272 248.321C350.888 248.155 350.449 247.989 350.065 247.823C350.778 251.197 352.26 254.128 354.566 256.727C355.279 257.501 356.432 256.34 355.719 255.565C353.633 253.188 352.315 250.533 351.657 247.436C351.547 246.883 350.888 246.717 350.449 246.939C346.936 248.653 343.203 249.317 339.306 248.985C338.263 248.874 338.263 250.533 339.306 250.588Z" fill="#202020"/>
<path d="M343.039 261.87C347.321 260.266 351.547 258.552 355.664 256.672C356.652 256.229 355.774 254.792 354.841 255.234C350.834 257.059 346.717 258.718 342.6 260.266C341.612 260.653 342.051 262.257 343.039 261.87Z" fill="#202020"/>
<path d="M342.16 253.519C343.477 254.681 346.496 258.662 348.033 255.731C348.747 254.404 348.582 252.579 349.021 251.086C349.68 248.985 350.778 247.049 352.205 245.39C352.864 244.561 351.711 243.399 351.052 244.229C349.515 246.054 348.308 248.045 347.594 250.367C347.265 251.418 346.99 252.524 346.826 253.63C346.606 255.012 346.222 254.681 345.179 254.017C344.52 253.575 343.916 252.911 343.312 252.358C342.544 251.639 341.391 252.8 342.16 253.519Z" fill="#202020"/>
<path d="M277.829 237.87C293.199 237.704 308.514 236.432 323.665 233.999C324.707 233.833 324.268 232.229 323.225 232.395C308.185 234.773 293.034 236.045 277.829 236.155C276.786 236.211 276.786 237.87 277.829 237.87Z" fill="#202020"/>
<path d="M276.071 215.416C286.007 215.693 295.888 215.361 305.768 214.532C306.811 214.421 306.811 212.762 305.768 212.872C295.888 213.702 285.952 213.979 276.071 213.757C275.028 213.702 275.028 215.361 276.071 215.416Z" fill="#202020"/>
<path d="M278.431 241.131C288.86 241.629 299.29 241.242 309.61 239.914C310.653 239.804 310.653 238.145 309.61 238.255C299.235 239.527 288.805 239.97 278.431 239.472C277.388 239.417 277.388 241.076 278.431 241.131Z" fill="#202020"/>
<path d="M313.126 239.141C316.09 239.197 318.999 238.809 321.854 237.869C322.842 237.538 322.403 235.934 321.415 236.266C318.725 237.15 315.98 237.538 313.126 237.482C312.083 237.482 312.083 239.141 313.126 239.141Z" fill="#202020"/>
<path d="M284.027 261.924C296.542 261.15 309.003 259.989 321.408 258.274C322.451 258.108 322.451 256.449 321.408 256.615C309.003 258.274 296.542 259.491 284.027 260.265C282.929 260.32 282.929 261.979 284.027 261.924Z" fill="#202020"/>
<path d="M285.454 265.796C289.571 265.796 293.688 265.796 297.805 265.796C298.848 265.796 298.848 264.137 297.805 264.137C293.688 264.137 289.571 264.137 285.454 264.137C284.411 264.137 284.411 265.796 285.454 265.796Z" fill="#202020"/>
<path d="M289.027 269.5C295.449 269.113 301.872 268.505 308.294 267.731C313.454 267.067 318.998 266.79 323.445 263.749C324.323 263.141 323.5 261.703 322.621 262.311C317.955 265.518 311.698 265.684 306.263 266.293C300.554 266.956 294.791 267.454 289.082 267.841C287.984 267.896 287.929 269.555 289.027 269.5Z" fill="#202020"/>
<path d="M351.711 224.817C361.702 224.319 371.637 222.992 381.463 220.89C381.134 220.725 380.804 220.503 380.475 220.337C385.086 234.163 391.893 247.048 400.621 258.716C401.224 259.546 402.707 258.716 402.048 257.887C393.43 246.384 386.678 233.61 382.067 219.95C381.902 219.508 381.518 219.287 381.079 219.397C371.418 221.499 361.647 222.771 351.766 223.268C350.613 223.213 350.613 224.872 351.711 224.817Z" fill="#202020"/>
<path d="M353.412 271.492C354.894 273.593 356.101 275.806 357.144 278.183C357.254 278.515 357.748 278.681 358.077 278.571C366.147 275.861 374.106 272.875 381.901 269.501C385.853 267.787 389.751 266.017 393.648 264.137C395.514 263.252 397.381 262.312 399.192 261.372C400.29 260.819 401.552 260.487 401.937 259.271C402.046 258.939 401.882 258.496 401.552 258.33C401.058 258.054 400.784 258.054 400.29 258.33C399.961 258.496 399.796 258.939 399.906 259.271C399.906 259.326 399.961 259.381 399.961 259.436C400.235 260.487 401.827 260.045 401.552 258.994C401.552 258.939 401.498 258.883 401.498 258.828C401.388 259.16 401.223 259.436 401.113 259.768C401.004 259.768 400.839 259.768 400.729 259.768C400.619 259.436 400.455 259.16 400.345 258.828C400.015 259.824 396.557 260.874 395.624 261.372C394.087 262.146 392.55 262.865 390.958 263.639C387.28 265.409 383.548 267.068 379.76 268.672C372.514 271.769 365.104 274.534 357.638 277.022C357.968 277.133 358.242 277.299 358.571 277.409C357.583 275.031 356.321 272.819 354.839 270.718C354.235 269.778 352.808 270.607 353.412 271.492Z" fill="#202020"/>
<path d="M362.96 229.131C362.85 228.412 364.168 227.748 364.662 228.246C365.32 228.91 364.222 230.126 363.454 229.85C362.466 229.463 362.027 231.066 363.015 231.454C365.375 232.338 367.681 228.91 365.869 227.085C365.046 226.255 363.783 226.311 362.795 226.808C361.752 227.361 361.203 228.412 361.423 229.573C361.533 230.624 363.125 230.126 362.96 229.131Z" fill="#202020"/>
<path d="M119.735 184.891C125.828 185.002 131.976 184.725 138.014 183.896C144.326 183.011 150.584 181.186 157.007 181.462C158.05 181.518 158.05 179.859 157.007 179.803C151.133 179.582 145.424 181.075 139.661 181.96C133.073 183.011 126.377 183.398 119.68 183.232C118.692 183.232 118.692 184.891 119.735 184.891Z" fill="#202020"/>
<path d="M120.614 166.585C129.946 167.304 139.278 166.475 148.335 164.097C149.378 163.82 148.939 162.216 147.896 162.493C138.948 164.815 129.836 165.645 120.614 164.926C119.571 164.871 119.571 166.53 120.614 166.585Z" fill="#202020"/>
<path d="M331.842 120.023C330.908 126.106 330.14 132.687 333.928 137.996C334.531 138.88 335.959 138.051 335.355 137.166C331.842 132.244 332.61 126.106 333.433 120.465C333.598 119.414 332.006 118.972 331.842 120.023Z" fill="#202020"/>
<path d="M332.338 119.967C345.402 120.464 358.467 119.192 371.202 116.151C370.873 115.985 370.543 115.764 370.214 115.598C371.367 121.294 373.562 126.603 376.636 131.469C377.185 132.354 378.613 131.524 378.064 130.64C375.045 125.884 372.959 120.686 371.806 115.155C371.696 114.713 371.202 114.492 370.818 114.602C358.247 117.589 345.348 118.861 332.393 118.363C331.295 118.252 331.295 119.911 332.338 119.967Z" fill="#202020"/>
<path d="M335.3 137.94C349.462 137.498 363.46 135.396 377.073 131.636C378.116 131.359 377.677 129.755 376.634 130.032C363.131 133.792 349.298 135.894 335.3 136.281C334.202 136.336 334.202 137.995 335.3 137.94Z" fill="#202020"/>
<path d="M528.853 524.217C528.853 530.466 528.853 536.66 528.853 542.909C484.939 560.44 475.991 566.689 476.65 568.956C476.815 569.509 477.968 571.168 501.022 568.458C523.858 565.748 542.357 561.822 555.202 558.615C552.951 545.84 550.646 533.066 548.395 520.291C541.863 521.618 535.33 522.945 528.853 524.217Z" fill="#161616"/>
<path d="M548.556 259.714C547.293 262.092 546.854 264.027 546.745 264.47C538.895 298.093 528.63 317.946 521.933 356.933C509.143 432.032 520.176 517.361 521.219 525.38C524.733 526.929 531.484 529.251 540.102 528.919C547.678 528.588 553.551 526.32 556.9 524.717C555.637 500.218 556.9 469.968 565.298 436.622C575.563 395.754 588.573 382.206 600.265 334.426C608.938 299.033 618.983 257.834 601.637 245.612C588.353 236.1 557.229 243.068 548.556 259.714Z" fill="#D73F3B"/>
<path opacity="0.2" d="M578.919 277.355C570.136 317.725 561.957 360.749 555.041 406.262C548.508 449.065 543.623 490.043 540 528.975C545.544 527.814 551.033 526.653 556.578 525.491C555.864 508.293 556.633 493.638 557.73 482.412C559.048 468.476 562.396 436.014 575.845 403.608C577.602 399.46 579.852 394.428 583.53 384.971C589.733 369.321 594.234 355.938 596.265 349.634C605.816 319.55 610.592 284.655 612.074 273.152C600.986 274.48 589.952 275.917 578.919 277.355Z" fill="#6D6C6C"/>
<path opacity="0.19" d="M597.029 347.643C575.511 375.901 565.466 401.506 560.416 418.704C555.805 434.354 553.774 448.18 551.139 466.097C547.406 491.536 545.979 512.992 545.375 528.256C548.998 527.371 552.566 526.431 556.189 525.546C555.585 504.144 557.067 485.84 558.879 471.572C561.074 454.65 563.599 435.018 572.382 411.405C575.566 402.833 577.103 400.4 584.349 381.874C589.948 367.385 594.23 355.495 597.029 347.643Z" fill="#6D6C6C"/>
<path d="M647.421 517.86C650.495 525.547 653.624 533.234 656.698 540.976C630.898 557.511 618.712 567.133 620.085 569.954C621.786 573.438 644.073 566.525 686.944 549.327C682.388 534.395 677.832 519.519 673.276 504.588C664.658 509.012 656.039 513.436 647.421 517.86Z" fill="#161616"/>
<path d="M626.233 260.379C639.681 272.766 639.242 290.131 640.944 318.887C640.944 318.887 645.116 389.617 659.113 446.467C662.627 460.679 668.994 482.744 680.796 509.178C678.82 511.722 673.441 517.916 663.999 521.178C654.338 524.497 646.104 522.727 643.03 521.897C626.233 493.03 614.321 468.421 606.636 451.389C571.011 372.751 568.156 331.33 568.156 309.707C568.156 287.476 568.54 260.821 584.953 251.918C597.304 245.226 615.419 250.425 626.233 260.379Z" fill="#D73F3B"/>
<path opacity="0.15" d="M588.141 268.839C594.234 292.452 600.821 316.453 607.847 340.785C626.181 403.939 646.107 463.609 667.022 519.574C669.053 518.523 671.523 517.085 674.048 515.149C676.628 513.159 678.659 511.168 680.196 509.398C677.341 502.707 673.389 493.029 669.217 481.139C662.905 462.945 652.64 429.488 647.315 384.916C642.21 342.113 639.63 320.711 639.85 307.218C640.014 296.102 641.002 273.484 626.73 261.318C623.766 258.829 620.857 257.336 618.826 256.451C608.561 260.599 598.351 264.746 588.141 268.839Z" fill="#6D6C6C"/>
<path opacity="0.22" d="M640.505 321.598C637.98 347.313 637.157 381.765 643.305 421.582C649.508 461.62 660.761 494.303 670.916 518.082C674.045 515.483 677.174 512.884 680.302 510.23C676.57 501.326 671.684 488.939 666.799 473.786C657.412 444.643 653.35 421.914 649.837 401.508C646.269 380.604 642.536 353.562 640.505 321.598Z" fill="#6D6C6C"/>
<path d="M383.492 58.3633C381.296 59.4693 378.277 61.4048 375.917 64.7229C374.654 66.4372 373.117 68.7046 372.898 71.912C372.843 73.184 372.678 75.949 374.435 77.774C374.929 78.327 376.246 79.3777 382.724 79.1565C388.487 78.9353 391.397 78.8247 392.879 77.2762C395.733 74.29 394.69 68.6493 392.879 65.2759C390.024 59.9117 384.425 58.5845 383.492 58.3633Z" fill="white" stroke="#161616" stroke-width="2" stroke-miterlimit="10"/>
<path d="M416.649 72.2434C424.389 81.1469 436.795 86.4558 459.576 95.9123C488.284 107.857 502.666 113.83 519.683 115.931C538.072 118.199 547.898 115.821 551.301 121.849C555.748 129.646 545.318 144.245 534.559 156.467C526.545 154.697 518.256 152.485 509.693 149.61C462.759 133.959 428.836 106.42 406.549 83.5248C403.75 84.1332 398.974 84.7415 393.54 83.0824C388.874 81.6999 382.287 78.1606 382.671 75.3403C383.165 71.9116 395.077 71.3033 395.79 71.248C392.167 69.7549 386.952 67.211 381.298 63.0634C379.652 61.8468 370.21 54.8235 371.363 52.6115C372.351 50.676 380.914 53.3304 388.983 55.819C396.339 58.0863 401.444 59.6901 407.043 63.5611C412.423 67.211 415.552 70.9715 416.649 72.2434Z" fill="white" stroke="#161616" stroke-width="2" stroke-miterlimit="10"/>
<path d="M378.666 58.971C379.983 60.4641 380.258 62.455 381.411 64.0034C382.399 65.3859 383.826 66.3813 385.308 67.2109C389.754 69.6994 394.475 71.7455 399.031 74.0129C399.8 74.4 400.788 73.3493 400.019 72.6857C397.659 70.6395 395.134 68.8146 392.499 67.1556C391.621 66.6026 390.742 68.0404 391.676 68.5934C394.201 70.1971 396.616 71.9114 398.867 73.847C399.196 73.4046 399.525 72.9622 399.855 72.5198C395.518 70.4183 391.181 68.3722 386.9 66.1048C384.869 65.0541 383.057 63.8375 382.014 61.7361C381.301 60.2982 380.917 58.9157 379.819 57.6991C379.105 57.0355 377.952 58.1968 378.666 58.971Z" fill="white"/>
<path d="M382.946 64.7772C385.471 65.8832 387.886 67.3211 390.082 69.0354C390.905 69.699 392.058 68.5377 391.235 67.8741C388.929 66.0491 386.459 64.556 383.769 63.3394C382.781 62.897 381.958 64.3348 382.946 64.7772Z" fill="white"/>
<path d="M376.467 57.9751C378.553 61.3484 381.298 64.1135 384.536 66.3255C385.415 66.9338 386.238 65.496 385.36 64.8877C382.341 62.8416 379.816 60.2424 377.894 57.0903C377.346 56.2608 375.918 57.0903 376.467 57.9751Z" fill="white"/>
<path d="M378.94 62.5093C380.038 64.0025 381.246 65.385 382.618 66.6016C383.606 67.4864 387.943 70.6386 385.692 72.2423C385.253 72.5188 385.692 73.2378 386.131 72.9613C387.668 71.9105 387.064 70.0303 386.131 68.7584C385.418 67.8182 384.43 67.0993 383.496 66.2698C382.069 64.9979 380.807 63.6153 379.654 62.1222C379.325 61.6245 378.611 62.0669 378.94 62.5093Z" fill="#161616"/>
<path d="M377.788 68.2622C379.435 70.5295 382.564 73.737 385.638 72.7968C386.132 72.6309 385.912 71.8567 385.418 72.0226C382.783 72.8521 379.874 69.8106 378.502 67.875C378.172 67.4326 377.459 67.8198 377.788 68.2622Z" fill="#161616"/>
<path d="M375.37 72.1335C377.181 74.622 379.816 76.0598 382.89 76.2257C383.439 76.281 383.439 75.4515 382.89 75.3962C380.146 75.2303 377.73 73.9031 376.084 71.6911C375.754 71.2487 375.041 71.6911 375.37 72.1335Z" fill="#161616"/>
<path d="M373.615 77.1112C376.195 79.8209 380.477 79.8762 383.057 77.1112C383.441 76.7241 382.837 76.1158 382.453 76.5029C380.202 78.9361 376.47 78.8808 374.219 76.5029C373.835 76.1158 373.231 76.7241 373.615 77.1112Z" fill="#161616"/>
<path d="M374.157 57.865C380.25 61.9019 384.642 68.7039 392.272 70.0312C392.766 70.1418 393.04 69.3123 392.491 69.257C384.971 67.985 380.58 61.183 374.596 57.2013C374.102 56.8142 373.718 57.5332 374.157 57.865Z" fill="#161616"/>
<path opacity="0.2" d="M373.506 75.9482C371.53 73.2384 373.177 67.4318 377.953 61.957C383.332 65.1092 388.657 68.3166 394.036 71.4688C393.048 71.4688 384.375 71.5794 383.771 74.2892C383.661 74.7316 383.771 75.3952 384.595 76.3353C387.339 77.6625 391.95 79.4322 397.879 79.5981C400.953 79.6534 403.642 79.2662 405.728 78.7685C416.926 90.1605 436.633 107.359 465.616 119.857C491.086 130.807 513.922 133.959 529.017 134.844C528.523 141.369 528.029 147.839 527.535 154.365C502.669 147.729 468.965 135.12 435.48 109.792C424.062 101.165 414.292 92.262 405.948 83.6903C398.263 84.9622 393.487 83.635 390.468 82.0866C387.888 80.7594 386.241 79.1003 382.838 78.8238C380.587 78.6579 378.666 79.2109 376.196 77.9943C375.921 77.8837 374.33 77.0542 373.506 75.9482Z" fill="#6D6C6C"/>
<path opacity="0.14" d="M444.207 114.99C451.892 119.138 460.785 123.341 470.94 126.935C493.062 134.843 513.097 137.332 528.413 137.885C528.193 143.526 528.028 149.222 527.809 154.862C511.89 151.102 491.909 144.521 470.72 132.576C460.565 126.88 451.782 120.852 444.207 114.99Z" fill="#6D6C6C"/>
<path d="M530.992 130.752C527.863 137.885 527.698 143.803 527.424 154.42C527.204 162.439 527.753 171.066 532.035 193.74C537.249 221.169 539.72 225.593 540.543 240.137C541.202 251.529 540.323 260.875 539.5 267.069C546.416 270.885 557.999 276.083 573.149 277.244C599.937 279.29 619.753 267.401 626.56 262.866C627.383 245.501 628.207 228.082 629.085 210.717C626.066 195.896 622.498 184.283 619.918 176.651C611.794 152.595 604.219 141.203 609.049 129.148C611.739 122.456 617.063 118.364 620.741 116.097C618.161 114.106 591.099 93.921 561.567 104.373C558.493 105.424 539.061 112.336 530.992 130.752Z" fill="white" stroke="#161616" stroke-width="2" stroke-miterlimit="10"/>
<path opacity="0.19" d="M561.457 104.319C569.691 117.591 574.302 129.315 576.937 137.5C576.937 137.5 589.837 176.985 580.395 229.963C578.364 241.244 574.741 257.282 567.605 275.642C570.35 276.25 573.643 276.748 577.376 276.914C577.376 276.914 583.14 277.19 589.617 276.361C597.522 275.31 611.08 271.052 627.054 262.867C627.328 244.341 627.603 225.871 627.877 207.345C623.815 191.695 619.698 179.141 616.624 170.348C609.214 149.389 603.999 139.546 608.281 129.149C611.08 122.347 616.789 118.144 621.235 115.711C615.417 111.84 604.658 105.812 589.946 103.489C577.815 101.609 567.825 102.936 561.457 104.319Z" fill="#6D6C6C"/>
<path opacity="0.11" d="M568.977 103.047C577.814 113.996 588.134 129.978 594.502 151.048C612.561 211.216 582.864 263.973 576.003 275.531C581.767 275.475 588.518 274.978 595.874 273.54C608.993 270.996 619.478 266.461 626.998 262.424C627.273 245.171 627.547 227.917 627.822 210.718C623.156 194.736 618.764 179.584 612.781 159.012C608.719 144.91 605.535 133.352 611.518 124.117C614.428 119.637 618.49 117.149 621.564 115.711C604.053 111.453 586.487 107.25 568.977 103.047Z" fill="#6D6C6C"/>
<path d="M564.92 216.027C564.755 204.193 564.645 192.414 564.48 180.579C592.64 179.141 620.8 177.703 649.015 176.266C650.003 187.215 650.991 198.165 652.034 209.114C622.996 211.437 593.958 213.704 564.92 216.027Z" fill="white" stroke="#161616" stroke-width="2" stroke-miterlimit="10"/>
<path d="M556.355 212.156C556.355 207.843 556.355 203.529 556.355 199.216C592.53 196.506 628.704 193.741 664.878 191.031C665.153 196.34 665.427 201.704 665.757 207.013C629.308 208.672 592.804 210.442 556.355 212.156Z" fill="white" stroke="#161616" stroke-width="2" stroke-miterlimit="10"/>
<path d="M559.375 192.689C559.814 199.049 560.253 205.353 560.637 211.713C594.122 209.003 627.552 206.238 661.036 203.528C661.311 197.777 661.585 192.025 661.915 186.219C627.716 188.375 593.518 190.532 559.375 192.689Z" fill="white" stroke="#161616" stroke-width="2" stroke-miterlimit="10"/>
<path d="M551.195 206.957C552.183 232.174 553.171 257.391 554.214 282.608C591.541 278.405 628.869 274.258 666.196 270.055C667.348 245.28 668.501 220.505 669.654 195.73C630.131 199.491 590.663 203.196 551.195 206.957Z" fill="white" stroke="#161616" stroke-width="2" stroke-miterlimit="10"/>
<path d="M557.561 216.801C574.523 214.533 591.484 212.929 608.556 211.934C609.325 211.879 609.325 210.662 608.556 210.662C591.484 211.658 574.468 213.261 557.561 215.529C556.792 215.639 556.792 216.911 557.561 216.801Z" fill="#161616"/>
<path d="M576.498 220.173C589.508 218.514 602.517 216.8 615.582 215.141C616.35 215.03 616.35 213.814 615.582 213.869C602.572 215.528 589.563 217.242 576.498 218.901C575.73 219.067 575.73 220.284 576.498 220.173Z" fill="#161616"/>
<path d="M639.02 255.567C638.801 259.051 638.801 262.59 639.13 266.074C639.185 266.848 640.447 266.848 640.393 266.074C640.063 262.59 640.008 259.051 640.283 255.567C640.338 254.793 639.075 254.793 639.02 255.567Z" fill="#161616"/>
<path d="M639.572 255.676C646.378 255.842 653.13 255.455 659.882 254.57C659.663 254.349 659.443 254.128 659.278 253.962C659.169 257.17 659.278 260.322 659.498 263.474C659.553 264.248 660.815 264.248 660.76 263.474C660.486 260.322 660.431 257.114 660.541 253.962C660.541 253.63 660.266 253.298 659.937 253.354C653.185 254.239 646.433 254.57 639.627 254.46C638.748 254.404 638.748 255.621 639.572 255.676Z" fill="#161616"/>
<path d="M640.069 267.07C646.82 267.18 653.462 266.462 660.049 264.968C660.818 264.803 660.489 263.586 659.72 263.752C653.243 265.19 646.711 265.909 640.069 265.798C639.3 265.798 639.3 267.015 640.069 267.07Z" fill="#161616"/>
<path d="M642.647 259.549C646.819 259.825 650.935 259.604 655.107 258.941C655.876 258.83 655.546 257.613 654.778 257.724C650.771 258.388 646.709 258.553 642.647 258.277C641.878 258.222 641.878 259.494 642.647 259.549Z" fill="#161616"/>
<path d="M645.285 263.032C649.621 262.922 653.793 262.092 657.91 260.599C658.624 260.323 658.349 259.106 657.581 259.382C653.628 260.876 649.511 261.65 645.285 261.816C644.516 261.76 644.461 263.032 645.285 263.032Z" fill="#161616"/>
<path opacity="0.2" d="M568.922 279.733C569.91 256.395 570.898 233.058 571.831 209.666C603.889 207.067 636.001 204.523 668.058 201.924C667.345 224.044 666.576 246.165 665.863 268.285C633.531 272.101 601.254 275.917 568.922 279.733Z" fill="#6D6C6C"/>
<path opacity="0.2" d="M655.984 186.828C656.149 193.243 655.819 200.875 654.173 209.336C650.111 230.129 640.34 245.115 633.698 253.576C638.199 259.604 642.7 265.632 647.256 271.66C633.478 273.264 619.7 274.867 605.922 276.471C608.118 251.143 610.313 225.815 612.509 200.543C611.795 197.225 611.027 193.907 610.313 190.589C625.519 189.261 640.779 188.045 655.984 186.828Z" fill="#6D6C6C"/>
<path d="M617.777 114.604C629.249 113.055 642.918 139.6 648.352 158.679C654.61 180.633 651.865 199.602 649.615 209.611C645.223 229.243 636.111 243.068 630.402 250.534C631.28 253.465 633.311 261.428 629.963 270.166C625.023 282.94 611.629 289.079 610.586 287.917C610.256 287.53 610.915 285.926 616.13 279.899C615.032 281.06 607.128 288.968 598.235 287.088C596.698 286.756 594.777 286.369 593.679 284.82C591.099 281.06 595.381 272.544 604.493 263.087C594.557 265.576 591.922 264.912 591.428 263.806C590.166 261.152 600.321 253.631 603.999 250.866C609.433 246.829 614.319 244.064 617.667 242.349C627.054 222.717 626.56 207.399 625.736 200.21C624.529 189.592 620.576 178.034 619.808 175.822C617.612 169.462 616.569 168.025 612.178 156.577C605.097 138.217 605.097 135.065 605.371 132.632C606.359 125.332 611.245 115.489 617.777 114.604Z" fill="white" stroke="#161616" stroke-width="2" stroke-miterlimit="10"/>
<path d="M593.898 283.271C599.991 279.787 605.316 275.308 609.762 269.888C610.421 269.059 609.268 267.897 608.609 268.727C604.273 274.036 599.058 278.46 593.075 281.888C592.141 282.331 592.965 283.769 593.898 283.271Z" fill="#161616"/>
<path d="M599.281 286.977C605.319 283.825 610.479 279.456 614.651 274.036C615.309 273.207 613.882 272.377 613.224 273.207C609.271 278.405 604.221 282.553 598.457 285.539C597.524 286.037 598.348 287.475 599.281 286.977Z" fill="#161616"/>
<path opacity="0.17" d="M613.165 117.258C602.242 126.825 646.814 168.799 639.184 216.469C633.97 249.152 612.342 270.498 612.342 270.498C606.304 276.581 594.941 284.047 596.313 286.646C597.301 288.526 604.163 286.812 606.633 286.037C611.299 284.6 614.538 282.166 616.349 280.563C613.604 283.659 610.475 287.475 611.134 288.249C612.067 289.245 619.862 285.153 624.748 279.401C633.201 269.447 631.993 255.622 631.17 249.981C633.146 247.382 635.726 243.732 638.361 239.087C640.776 234.939 647.748 221.999 650.767 204.413C656.091 173.278 645.168 148.725 640.776 139.102C636.824 130.53 630.127 116.318 619.972 115.71C618.654 115.544 615.306 115.378 613.165 117.258Z" fill="#6D6C6C"/>
<path opacity="0.22" d="M650.164 203.529C647.2 212.212 643.687 221.336 639.515 230.903C636.551 237.705 633.532 244.065 630.458 250.093C628.921 255.07 626.011 262.536 620.248 270.222C614.209 278.296 607.567 283.218 603.121 286.039C604.384 286.094 605.921 285.983 607.622 285.541C611.904 284.545 614.758 282.168 616.186 280.73C614.539 282.831 612.837 284.877 611.19 286.979C612.508 286.758 614.594 286.37 616.899 285.32C628.976 279.845 631.501 264.969 631.665 263.973C632.104 261.264 632.379 256.618 630.732 250.867C634.684 246.166 639.68 239.143 643.687 229.687C648.133 219.29 649.615 209.944 650.164 203.529Z" fill="#6D6C6C"/>
<path d="M518.366 78.2156C509.528 88.391 515.621 102.603 516.445 104.539C519.519 111.728 527.478 121.959 537.578 121.129C544.934 120.466 549.6 114.217 550.753 112.558C558.877 100.779 556.187 78.2709 542.464 72.4643C534.889 69.2568 524.459 71.1371 518.366 78.2156Z" fill="#161616"/>
<path d="M540.658 87.2857C541.042 91.6545 545.598 92.5946 548.672 99.7838C550.868 104.982 550.868 110.07 550.483 113.72C554.052 114.051 560.639 114.217 568.104 111.342C573.978 109.074 578.095 105.812 580.565 103.544C579.412 100.945 577.71 97.1293 575.679 92.5946C566.896 73.2945 565.469 71.6355 563.328 70.806C554.765 67.5432 539.944 79.1564 540.658 87.2857Z" fill="white" stroke="#161616" stroke-width="2" stroke-miterlimit="10"/>
<path d="M509.035 30.1607C507.169 32.8151 506.016 36.0779 505.852 50.069C505.742 62.014 506.401 72.9083 507.499 82.586C509.969 81.1482 512.439 79.7104 514.909 78.2725C516.007 80.9823 517.873 84.6875 521.057 88.282C527.37 95.4159 535.055 97.8491 538.458 98.7339C542.026 97.8491 550.919 95.084 557.67 86.623C562.117 80.9823 563.544 75.3969 563.873 74.125C565.904 65.7745 563.928 58.8619 562.885 55.9862C564.203 55.3779 566.234 54.2166 567.771 52.1152C571.009 47.6911 571.888 39.783 567.881 37.1286C564.916 35.1378 559.647 36.2991 555.694 40.3914C554.816 38.3452 553.444 35.5249 551.248 32.5939C550.699 31.875 546.582 26.4555 541.532 23.6351C531.816 17.9944 515.732 20.6489 509.035 30.1607Z" fill="white" stroke="#161616" stroke-width="2" stroke-miterlimit="10"/>
<path d="M505.028 47.5243C502.833 47.1371 498.771 45.9758 496.849 42.6025C493.556 36.9065 498.386 28.2242 499.594 26.0675C500.582 24.2425 503.217 19.8738 514.415 11.9657C522.923 5.93794 527.205 2.95168 531.816 1.51386C548.174 -3.40793 563.16 5.10842 565.959 6.71215C571.833 10.0855 575.566 13.7354 578.53 16.611C583.086 21.0351 588.191 26.1228 593.9 31.9847C608.556 51.1188 613.716 68.5939 615.802 79.0458C618.162 90.8802 620.578 102.936 613.551 110.014C606.525 117.093 593.68 115.655 585.83 112.282C574.907 107.581 570.241 97.6269 566.618 89.9401C560.47 76.7785 560.086 64.1698 560.69 55.9853C566.179 54.3816 568.978 49.1833 567.716 45.2569C566.728 42.1601 563.05 39.0632 559.262 40.1692C556.353 40.9987 554.267 44.0403 554.432 47.5795C551.797 47.5242 544.771 46.9159 538.074 41.8283C533.188 38.1231 530.718 33.699 529.565 31.2658C526.546 31.6529 520.508 32.7589 514.415 37.183C509.31 40.7222 506.456 44.9804 505.028 47.5243Z" fill="#161616"/>
<path opacity="0.24" d="M541.365 58.0864C547.952 66.1051 550.038 74.5662 550.038 74.5662C552.179 84.078 549.105 92.152 547.732 95.4147C551.191 92.7603 554.704 90.1058 558.162 87.4514C560.577 95.5253 562.938 103.544 565.353 111.618C567.164 111.452 570.897 110.788 574.63 108.134C577.484 106.088 579.186 103.71 580.119 102.217C575.673 98.0692 567.164 88.8892 563.267 74.4556C561.401 67.4876 561.126 61.2939 561.346 56.6486C566.341 54.6025 568.921 49.6807 567.878 45.5884C567.11 42.6021 564.09 39.0075 560.193 39.5605C556.954 40.0582 554.265 43.2657 554.319 47.1921C551.849 47.1921 546.031 46.9156 539.938 43.2104C533.625 39.3946 530.606 34.0857 529.453 31.8184C529.728 42.4362 532.966 48.5746 535.876 52.2245C537.797 54.7131 538.675 54.8237 541.365 58.0864Z" fill="#6D6C6C"/>
<path d="M515.843 55.7653C515.239 57.9773 515.294 60.2447 516.117 62.4014C516.392 63.1757 517.435 63.231 517.709 62.4014C518.368 60.4106 518.368 58.3092 517.764 56.3183C517.435 55.3229 515.843 55.71 516.172 56.7607C516.721 58.5304 516.666 60.2447 516.117 62.0143C516.666 62.0143 517.16 62.0143 517.709 62.0143C516.995 60.1341 516.886 58.1985 517.435 56.263C517.709 55.157 516.172 54.7146 515.843 55.7653Z" fill="#161616"/>
<path d="M513.867 52.3356C515.294 51.4508 517.051 51.6167 518.258 52.7781C519.027 53.497 520.179 52.3356 519.411 51.6167C517.709 49.9577 515.074 49.6259 513.043 50.8978C512.165 51.4508 512.989 52.8887 513.867 52.3356Z" fill="#161616"/>
<path d="M519.792 66.3817C520.835 66.3817 520.835 64.7227 519.792 64.7227C518.694 64.7227 518.694 66.3817 519.792 66.3817Z" fill="#161616"/>
<path d="M523.414 61.5717C523.414 61.627 523.414 61.6823 523.414 61.7376C523.414 62.18 523.798 62.5671 524.237 62.5671C524.677 62.5671 525.061 62.18 525.061 61.7376C525.061 61.6823 525.061 61.627 525.061 61.5717C525.061 61.1293 524.677 60.7422 524.237 60.7422C523.798 60.7422 523.414 61.074 523.414 61.5717Z" fill="#161616"/>
<path d="M523.579 65.7176C524.622 65.7176 524.622 64.0586 523.579 64.0586C522.536 64.0586 522.536 65.7176 523.579 65.7176Z" fill="#161616"/>
<path d="M500.964 58.3078C500.305 60.5199 500.36 62.7872 501.129 64.944C501.403 65.7182 502.446 65.7182 502.72 64.944C503.379 62.9531 503.434 60.8517 502.885 58.8608C502.611 57.8101 501.019 58.2525 501.293 59.3032C501.787 61.0729 501.732 62.7872 501.129 64.5015C501.677 64.5015 502.171 64.5015 502.72 64.5015C502.062 62.6213 501.952 60.6858 502.556 58.7502C502.83 57.6995 501.238 57.2571 500.964 58.3078Z" fill="#161616"/>
<path d="M500.039 54.1609C501.191 53.5526 502.783 53.8291 503.552 54.9351C504.156 55.7647 505.583 54.9351 504.979 54.1056C503.607 52.2807 501.246 51.6724 499.215 52.7231C498.282 53.2208 499.105 54.6586 500.039 54.1609Z" fill="#161616"/>
<path d="M518.532 84.2444C522.759 83.4702 526.437 81.2029 529.182 77.8295C529.676 77.2212 528.797 76.3364 528.303 76.9447C525.723 80.1522 522.265 82.2536 518.203 83.0278C517.435 83.1937 517.764 84.4103 518.532 84.2444Z" fill="#161616"/>
<path d="M527.101 77.0559C528.09 77.3877 528.913 77.8854 529.627 78.6043C530.175 79.1573 531.054 78.2725 530.505 77.7195C529.627 76.8347 528.584 76.2264 527.431 75.8393C526.662 75.6181 526.333 76.8347 527.101 77.0559Z" fill="#161616"/>
<path opacity="0.45" d="M561.293 4.7207C568.264 14.4537 577.212 28.2237 585.72 45.8094C594.723 64.3906 601.31 78.3817 596.205 83.9118C589.453 91.2669 566.124 79.5984 562.391 77.6628C563.159 82.6952 565.081 90.7139 570.734 98.7326C573.589 102.77 578.584 109.903 587.806 113.221C593.35 115.212 598.291 115.102 600.212 114.936C602.792 114.77 605.756 114.549 608.995 112.779C608.995 112.779 613.221 110.512 616.076 105.866C620.412 98.7878 618.107 89.2208 615.033 77.2204C611.355 62.8421 606.415 53.2751 601.584 43.8186C600.377 41.4959 598.949 38.7862 596.644 35.634C594.338 32.4265 592.637 30.7122 585.501 23.7996C574.906 13.4583 573.26 11.9651 570.076 9.80841C566.563 7.37516 563.434 5.77142 561.293 4.7207Z" fill="#371B9B"/>
<path opacity="0.43" d="M548.065 98.7891C548.504 100.061 549.492 103.656 548.065 107.637C545.924 113.554 539.996 115.545 539.063 115.822C532.311 118.034 523.803 114.55 518.094 106.974C518.862 108.964 520.564 112.504 524.077 115.601C525.834 117.149 530.609 121.297 537.361 120.799C538.514 120.688 545.924 120.135 549.328 113.665C551.798 109.075 551.249 103.324 548.065 98.7891Z" fill="#371B9B"/>
</svg>
