<svg width="1016" height="751" viewBox="0 0 1016 751" fill="none" xmlns="http://www.w3.org/2000/svg">
<path d="M655.956 186.248C661.672 186.248 666.306 181.681 666.306 176.047C666.306 170.413 661.672 165.846 655.956 165.846C650.24 165.846 645.605 170.413 645.605 176.047C645.605 181.681 650.24 186.248 655.956 186.248Z" fill="#FFCC4D"/>
<path d="M666.943 157.96C669.609 157.96 671.769 155.83 671.769 153.204C671.769 150.577 669.609 148.447 666.943 148.447C664.278 148.447 662.117 150.577 662.117 153.204C662.117 155.83 664.278 157.96 666.943 157.96Z" fill="#FFCC4D"/>
<path d="M350.519 96.0638C353.255 96.0638 355.472 93.8783 355.472 91.1823C355.472 88.4863 353.255 86.3008 350.519 86.3008C347.784 86.3008 345.566 88.4863 345.566 91.1823C345.566 93.8783 347.784 96.0638 350.519 96.0638Z" fill="#FFCC4D"/>
<path d="M674.624 667.387C679.253 667.387 683.006 663.689 683.006 659.126C683.006 654.564 679.253 650.865 674.624 650.865C669.995 650.865 666.242 654.564 666.242 659.126C666.242 663.689 669.995 667.387 674.624 667.387Z" fill="#FFCC4D"/>
<path d="M293.182 695.676C295.321 695.676 297.056 693.967 297.056 691.859C297.056 689.75 295.321 688.041 293.182 688.041C291.043 688.041 289.309 689.75 289.309 691.859C289.309 693.967 291.043 695.676 293.182 695.676Z" fill="#FFCC4D"/>
<path d="M341.567 413.675C343.776 413.675 345.567 411.909 345.567 409.732C345.567 407.554 343.776 405.789 341.567 405.789C339.358 405.789 337.566 407.554 337.566 409.732C337.566 411.909 339.358 413.675 341.567 413.675Z" fill="#FFCC4D"/>
<path d="M349.44 433.764C351.579 433.764 353.313 432.055 353.313 429.946C353.313 427.838 351.579 426.129 349.44 426.129C347.301 426.129 345.566 427.838 345.566 429.946C345.566 432.055 347.301 433.764 349.44 433.764Z" fill="#161616"/>
<path d="M344.805 540.156C348.803 540.156 352.044 536.962 352.044 533.021C352.044 529.081 348.803 525.887 344.805 525.887C340.807 525.887 337.566 529.081 337.566 533.021C337.566 536.962 340.807 540.156 344.805 540.156Z" fill="#161616"/>
<path d="M650.177 134.678C652.703 134.678 654.749 132.661 654.749 130.172C654.749 127.683 652.703 125.666 650.177 125.666C647.652 125.666 645.605 127.683 645.605 130.172C645.605 132.661 647.652 134.678 650.177 134.678Z" fill="#161616"/>
<path d="M476.25 142.563C478.46 142.563 480.251 140.798 480.251 138.62C480.251 136.443 478.46 134.678 476.25 134.678C474.041 134.678 472.25 136.443 472.25 138.62C472.25 140.798 474.041 142.563 476.25 142.563Z" fill="#161616"/>
<path d="M119.571 450.975C121.255 450.975 122.619 449.63 122.619 447.971C122.619 446.312 121.255 444.967 119.571 444.967C117.888 444.967 116.523 446.312 116.523 447.971C116.523 449.63 117.888 450.975 119.571 450.975Z" fill="#161616"/>
<path d="M664.018 688.04C668.227 688.04 671.638 684.677 671.638 680.53C671.638 676.382 668.227 673.02 664.018 673.02C659.81 673.02 656.398 676.382 656.398 680.53C656.398 684.677 659.81 688.04 664.018 688.04Z" fill="#161616"/>
<path d="M745.618 45.0593C747.827 45.0593 749.618 43.2941 749.618 41.1166C749.618 38.9391 747.827 37.1738 745.618 37.1738C743.408 37.1738 741.617 38.9391 741.617 41.1166C741.617 43.2941 743.408 45.0593 745.618 45.0593Z" fill="#161616"/>
<path d="M356.934 218.353C356.299 214.473 355.727 206.712 362.014 207.338C364.3 207.589 365.57 209.591 368.11 208.715C372.872 207.088 371.793 201.017 373.761 197.513C377 191.88 383.286 200.079 388.112 197.387C389.7 196.511 390.081 194.884 390.017 193.194C389.89 186.874 395.542 187.312 400.177 188.563C401.384 188.876 401.892 187.061 400.685 186.748C395.986 185.497 388.176 185.059 387.985 191.755C387.922 193.382 388.811 195.009 386.398 196.011C385.636 196.324 384.366 195.948 383.667 195.76C382.016 195.26 380.556 194.133 378.841 193.695C376.619 193.069 374.46 193.507 372.936 195.26C371.031 197.513 371.094 200.579 370.205 203.208C369.253 206.024 367.411 207.651 364.3 206.274C363.03 205.711 361.887 205.21 360.426 205.398C353.886 206.274 354.203 214.097 355.029 218.854C355.283 220.043 357.124 219.542 356.934 218.353Z" fill="#161616"/>
<path d="M364.426 221.982C364.934 218.101 368.109 216.412 371.792 216.412C373.761 216.412 375.729 216.725 377.634 216.036C381.952 214.409 381.127 209.778 382.143 206.148C384.048 199.264 392.874 203.52 397.764 202.393C401.066 201.579 403.86 198.325 402.463 194.883C402.018 193.757 400.177 194.257 400.621 195.384C402.78 200.578 395.414 200.891 392.303 200.516C390.017 200.265 387.794 199.89 385.508 200.453C381.889 201.392 380.492 204.02 379.984 207.4C379.539 210.529 379.603 213.971 375.475 214.472C373.253 214.722 371.03 214.096 368.808 214.597C365.252 215.41 362.966 218.352 362.521 221.856C362.331 223.171 364.236 223.171 364.426 221.982Z" fill="#161616"/>
<path d="M495.619 68.2785C493.396 71.0321 491.047 74.4116 492.126 78.1041C493.015 81.1081 495.428 82.2346 498.349 82.0468C500.064 81.9216 501.842 81.4836 503.239 82.9856C504.318 84.1121 503.62 86.4902 503.302 87.7419C502.794 89.682 501.842 91.5595 502.032 93.6247C502.35 96.441 504.636 98.6314 507.557 98.0056C508.763 97.7552 508.255 95.9403 507.049 96.1906C501.524 97.4423 505.334 88.3677 505.588 86.1773C505.779 84.3624 505.461 82.3597 504.064 81.0455C502.667 79.7312 500.953 79.8564 499.175 80.0441C496.381 80.3571 493.777 79.4809 493.65 76.164C493.587 73.6606 495.365 71.4076 496.889 69.5301C497.778 68.7166 496.381 67.3397 495.619 68.2785Z" fill="#161616"/>
<path d="M510.604 67.3383C507.62 68.59 505.715 71.6566 506.477 74.8483C506.858 76.2877 507.747 77.6646 509.017 78.5407C510.541 79.6672 512.319 79.4169 513.843 80.3557C516.7 82.0454 514.414 85.3623 514.541 87.9908C514.605 89.3051 514.922 90.4942 516.065 91.3077C517.78 92.622 520.32 92.1839 521.018 90.0561C521.399 88.9296 519.558 88.4289 519.177 89.5554C516.764 89.2425 515.938 88.1786 516.637 86.3637C516.764 85.7378 516.891 85.112 517.018 84.4862C517.145 83.8603 517.208 83.2345 517.208 82.6087C517.208 81.2944 516.827 79.9176 515.811 78.9788C514.287 77.602 511.938 78.1652 510.287 77.0387C506.921 74.7232 508.128 70.3423 511.557 68.9029C512.7 68.4648 511.684 66.9002 510.604 67.3383Z" fill="#161616"/>
<path d="M95.3778 437.27C93.9173 435.017 93.9173 432.263 95.3778 429.948C96.8383 427.695 98.8703 427.632 101.22 426.756C104.458 425.442 104.522 422.125 104.331 419.121C104.268 418.057 104.204 416.93 104.522 415.866C105.347 413.363 107.506 414.051 109.475 414.364C110.618 414.552 111.697 414.364 112.65 413.738C113.856 412.925 114.618 411.485 114.999 410.109C115.317 408.982 115.38 407.793 115.634 406.667C115.761 405.853 116.015 405.102 116.396 404.414C117.412 402.849 118.619 402.724 120.079 404.101C120.397 405.29 122.238 404.789 121.921 403.6C120.778 399.532 115.698 401.347 114.428 404.226C113.856 405.54 113.793 406.979 113.475 408.356C113.285 409.17 113.158 410.046 112.713 410.797C111.761 412.487 109.983 412.174 108.332 411.986C106.363 411.798 104.839 411.611 103.569 413.426C102.109 415.491 102.49 417.932 102.49 420.31C102.553 423.189 101.918 424.315 99.0608 425.254C97.9178 425.629 96.9653 425.817 95.9493 426.568C92.2663 429.134 91.3138 434.454 93.7268 438.146C94.3618 439.21 96.0128 438.271 95.3778 437.27Z" fill="#FFCC4D"/>
<path d="M103.316 441.587C100.649 441.211 101.665 438.333 102.872 437.206C103.761 436.393 104.967 435.892 106.11 435.329C107.507 434.64 108.904 433.827 109.92 432.638C112.651 429.258 108.714 424.752 112.524 422.061C116.334 419.432 126.557 418.243 123.573 411.234C123.128 410.108 121.477 411.109 121.922 412.173C124.081 417.242 113.603 418.744 110.936 420.872C109.984 421.623 109.158 422.624 108.777 423.813C108.015 426.442 110.238 429.133 108.269 431.636C105.983 434.39 101.094 434.39 99.9505 438.27C99.252 440.46 100.459 443.089 102.872 443.464C104.015 443.59 104.523 441.775 103.316 441.587Z" fill="#FFCC4D"/>
<path d="M799.403 296.144C798.578 294.705 798.705 293.14 799.594 291.763C800.991 289.761 802.642 290.199 804.801 290.386C806.261 290.512 807.595 290.824 808.992 290.011C811.468 288.509 811.087 285.38 811.532 283.002C812.548 277.432 817.437 282.501 820.739 280.749C821.946 280.123 822.39 278.934 822.644 277.682C823.089 275.241 823.216 267.982 827.978 270.923C828.994 271.549 830.01 269.922 828.931 269.296C824.676 266.73 821.247 270.986 820.866 274.928C820.612 277.181 820.866 279.372 817.818 279.059C816.739 278.934 815.659 278.37 814.58 278.245C812.865 278.057 811.341 278.558 810.389 280.06C809.309 281.812 809.69 284.003 809.246 285.88C808.293 290.136 804.61 287.758 801.626 288.259C797.625 288.947 795.784 293.703 797.689 297.02C798.324 298.147 799.975 297.208 799.403 296.144Z" fill="#FFCC4D"/>
<path d="M808.864 300.087C807.785 297.208 811.15 294.016 814.071 295.518C814.452 295.706 814.96 295.706 815.214 295.393C816.675 293.829 817.055 292.014 817.69 290.011C818.833 286.381 821.564 285.881 824.866 284.879C828.105 283.878 831.724 281.249 830.39 277.494C829.946 276.368 828.105 276.869 828.549 277.995C830.391 282.939 821.374 283.315 818.707 285.13C815.468 287.383 816.421 291.45 813.944 294.079C814.325 294.016 814.706 293.954 815.087 293.954C810.832 291.763 805.435 296.082 807.086 300.65C807.467 301.714 809.309 301.276 808.864 300.087Z" fill="#FFCC4D"/>
<path d="M552.388 316.483C552.515 316.483 553.912 319.862 554.483 320.301C555.372 320.989 556.451 321.052 557.531 320.864C559.436 320.551 560.642 319.174 562.293 318.298C565.849 316.295 565.849 319.737 567.246 321.677C568.834 323.993 570.549 322.866 572.39 321.74C573.597 320.989 574.739 320.488 575.819 321.552C576.39 322.115 576.771 323.054 577.216 323.743C577.914 324.744 578.676 325.558 579.819 326.058C580.899 326.559 581.915 324.932 580.772 324.431C578.168 323.305 577.851 319.049 574.739 318.611C573.279 318.423 572.644 319.237 571.501 319.862C570.104 320.676 569.278 321.239 568.389 319.675C568.008 319.049 567.945 318.173 567.501 317.547C565.469 314.23 562.293 316.045 559.753 317.672C559.309 317.985 558.864 318.298 558.356 318.548C557.277 318.235 556.134 317.922 555.054 317.609C554.61 317.171 554.61 316.107 554.229 315.544C553.594 314.668 552.959 314.418 551.943 314.605C550.673 314.856 551.181 316.671 552.388 316.483Z" fill="#FFCC4D"/>
<path d="M567.311 310.475C569.216 307.534 573.598 313.667 575.376 314.418C576.455 314.856 577.471 314.856 578.614 314.543C579.122 314.418 579.567 314.168 580.011 313.98C581.726 313.291 583.186 313.73 584.583 314.919C586.615 316.608 587.187 318.861 590.108 319.487C591.822 319.863 593.41 319.362 594.172 317.735C594.68 316.671 593.029 315.67 592.521 316.796C590.743 320.551 585.853 313.166 584.583 312.353C582.234 310.851 580.773 312.102 578.424 312.603C574.677 313.354 573.471 309.223 570.359 308.222C568.518 307.596 566.74 307.909 565.724 309.599C564.962 310.6 566.613 311.539 567.311 310.475Z" fill="#FFCC4D"/>
<path d="M804.608 419.872C838.326 419.872 872.045 419.872 905.827 419.872C907.034 419.872 907.034 417.994 905.827 417.994C872.109 417.994 838.39 417.994 804.608 417.994C803.401 417.994 803.401 419.872 804.608 419.872Z" fill="#E8E8E8"/>
<path d="M832.23 419.433C832.23 429.133 832.23 438.771 832.23 448.471C832.23 449.661 834.135 449.661 834.135 448.471C834.135 438.771 834.135 429.133 834.135 419.433C834.135 418.244 832.23 418.244 832.23 419.433Z" fill="#E8E8E8"/>
<path d="M879.346 418.495C879.346 404.977 879.346 391.459 879.346 377.941C879.346 376.752 877.441 376.752 877.441 377.941C877.441 391.459 877.441 404.977 877.441 418.495C877.441 419.746 879.346 419.746 879.346 418.495Z" fill="#E8E8E8"/>
<path d="M856.932 378.692C869.696 378.692 882.459 378.692 895.223 378.692C896.429 378.692 896.429 376.814 895.223 376.814C882.459 376.814 869.696 376.814 856.932 376.814C855.726 376.814 855.726 378.692 856.932 378.692Z" fill="#E8E8E8"/>
<path d="M831.852 153.329C831.852 165.032 831.852 176.735 831.852 188.376C831.852 189.565 833.757 189.565 833.757 188.376C833.757 176.673 833.757 164.97 833.757 153.329C833.757 152.14 831.852 152.14 831.852 153.329Z" fill="#E8E8E8"/>
<path d="M802.195 191.067C825.118 191.067 847.978 191.067 870.902 191.067C872.108 191.067 872.108 189.189 870.902 189.189C847.978 189.189 825.118 189.189 802.195 189.189C800.925 189.189 800.925 191.067 802.195 191.067Z" fill="#E8E8E8"/>
<path d="M870.266 190.818C870.266 198.578 870.266 206.338 870.266 214.099C870.266 215.288 872.171 215.288 872.171 214.099C872.171 206.338 872.171 198.578 872.171 190.818C872.171 189.629 870.266 189.629 870.266 190.818Z" fill="#E8E8E8"/>
<path d="M232.538 116.842C254.954 116.842 277.433 116.842 299.848 116.842C301.055 116.842 301.055 114.965 299.848 114.965C277.433 114.965 254.954 114.965 232.538 114.965C231.332 114.965 231.268 116.842 232.538 116.842Z" fill="#E8E8E8"/>
<path d="M297.055 116.656C297.055 122.664 297.055 128.672 297.055 134.68C297.055 135.869 298.96 135.869 298.96 134.68C298.96 128.672 298.96 122.664 298.96 116.656C298.96 115.404 297.055 115.404 297.055 116.656Z" fill="#E8E8E8"/>
<path d="M276.671 115.153C276.671 105.515 276.671 95.9398 276.671 86.302C276.671 85.1129 274.766 85.1129 274.766 86.302C274.766 95.9398 274.766 105.515 274.766 115.153C274.766 116.405 276.671 116.405 276.671 115.153Z" fill="#E8E8E8"/>
<path d="M99.3775 309.725C114.872 309.725 130.366 309.725 145.86 309.725C147.066 309.725 147.066 307.848 145.86 307.848C130.366 307.848 114.872 307.848 99.3775 307.848C98.171 307.848 98.171 309.725 99.3775 309.725Z" fill="#E8E8E8"/>
<path d="M127.762 290.888C127.762 296.52 127.762 302.153 127.762 307.785C127.762 308.974 129.667 308.974 129.667 307.785C129.667 302.153 129.667 296.52 129.667 290.888C129.667 289.699 127.762 289.699 127.762 290.888Z" fill="#E8E8E8"/>
<path d="M116.585 291.827C124.84 291.827 133.095 291.827 141.35 291.827C142.557 291.827 142.557 289.949 141.35 289.949C133.095 289.949 124.84 289.949 116.585 289.949C115.315 289.949 115.315 291.827 116.585 291.827Z" fill="#E8E8E8"/>
<path d="M396.242 686.415C416.943 686.415 437.644 686.415 458.345 686.415C459.551 686.415 459.551 684.537 458.345 684.537C437.644 684.537 416.943 684.537 396.242 684.537C394.972 684.537 394.972 686.415 396.242 686.415Z" fill="#E8E8E8"/>
<path d="M434.467 684.536C434.467 680.156 434.467 675.775 434.467 671.331C434.467 670.142 432.562 670.142 432.562 671.331C432.562 675.712 432.562 680.093 432.562 684.536C432.562 685.788 434.467 685.788 434.467 684.536Z" fill="#E8E8E8"/>
<path d="M428.69 671.393C437.263 671.393 445.899 671.393 454.471 671.393C455.678 671.393 455.678 669.516 454.471 669.516C445.899 669.516 437.263 669.516 428.69 669.516C427.484 669.516 427.484 671.393 428.69 671.393Z" fill="#E8E8E8"/>
<path d="M100.838 653.495C121.539 653.495 142.24 653.495 162.941 653.495C164.148 653.495 164.148 651.617 162.941 651.617C142.24 651.617 121.539 651.617 100.838 651.617C99.632 651.617 99.632 653.495 100.838 653.495Z" fill="#E8E8E8"/>
<path d="M129.539 628.962C129.539 636.159 129.539 643.419 129.539 650.616C129.539 651.805 131.444 651.805 131.444 650.616C131.444 643.419 131.444 636.159 131.444 628.962C131.444 627.773 129.539 627.773 129.539 628.962Z" fill="#E8E8E8"/>
<path d="M129.542 626.146C121.287 626.146 112.968 626.146 104.713 626.146C103.507 626.146 103.507 628.024 104.713 628.024C112.968 628.024 121.287 628.024 129.542 628.024C130.748 628.024 130.748 626.146 129.542 626.146Z" fill="#E8E8E8"/>
<path d="M791.148 598.422C789.053 596.357 789.561 592.352 792.799 591.663C794.514 591.288 796.165 592.352 797.816 592.539C799.086 592.727 800.419 592.602 801.245 591.475C802.515 589.848 801.499 587.971 801.435 586.156C801.308 580.461 808.166 580.836 811.595 582.839C812.357 583.277 813.183 582.526 812.992 581.775C811.341 573.952 820.422 568.57 826.645 573.764C827.597 574.515 828.931 573.201 827.978 572.45C820.295 566.067 809.055 572.575 811.151 582.338C811.595 581.963 812.103 581.65 812.548 581.274C809.627 579.522 805.88 578.646 802.769 580.586C801.626 581.274 800.61 582.338 800.102 583.59C799.721 584.466 799.53 585.28 799.594 586.218C799.657 587.908 800.229 587.783 798.959 589.41C797.562 591.225 797.435 590.412 795.466 589.973C794.768 589.786 794.133 589.661 793.371 589.723C791.783 589.786 790.323 590.537 789.307 591.663C787.084 594.104 787.656 597.546 789.878 599.736C790.704 600.613 792.037 599.298 791.148 598.422Z" fill="#E8E8E8"/>
<path d="M803.529 600.299C802.83 594.603 812.292 594.541 814.959 590.598C815.657 589.597 815.911 588.47 816.355 587.406C817.181 585.466 818.641 584.215 820.8 583.651C824.293 582.775 827.913 584.34 831.088 585.654C832.231 586.092 832.738 584.277 831.595 583.839C825.753 581.461 817.88 579.646 814.641 586.655C813.498 589.159 813.117 590.536 810.45 591.85C808.863 592.601 807.212 593.039 805.688 593.915C803.275 595.292 801.37 597.42 801.687 600.299C801.814 601.488 803.719 601.488 803.529 600.299Z" fill="#E8E8E8"/>
<path d="M530.417 418.308C531.687 421.437 532.957 424.629 534.227 427.758C534.354 427.382 534.545 427.069 534.672 426.694C533.973 427.132 533.275 427.57 532.576 428.071C531.497 425.567 531.941 424.942 533.973 426.068C535.18 426.819 535.751 428.446 536.005 429.76C536.577 432.764 535.942 435.894 534.926 438.772C534.672 439.523 535.434 440.024 536.069 439.899C539.879 439.148 541.403 443.654 540.641 446.47C540.069 448.536 538.926 450.35 537.783 452.165C537.148 453.167 538.799 454.105 539.434 453.104C541.466 449.975 543.816 446.095 542.419 442.215C541.339 439.336 538.672 437.521 535.561 438.084C535.942 438.46 536.323 438.835 536.704 439.211C537.974 435.581 538.799 431.012 537.212 427.32C536.132 424.879 533.656 423.001 530.862 423.815C528.703 424.441 527.623 426.569 528.639 428.634C530.354 432.076 533.338 429.761 535.561 428.321C535.878 428.133 536.132 427.633 536.005 427.257C534.735 424.128 533.465 420.936 532.195 417.807C531.814 416.743 529.973 417.181 530.417 418.308Z" fill="#E8E8E8"/>
<path d="M154.875 122.226C153.668 119.222 157.732 118.408 159.637 119.472C161.098 120.286 162.05 121.725 162.939 123.04C163.765 124.229 164.654 125.543 165.098 126.92C165.606 128.109 165.543 129.235 164.908 130.362C162.685 131.363 161.542 131.113 161.479 129.673C160.907 127.608 163.13 126.231 165.035 126.294C167.003 126.356 168.845 127.483 170.178 128.86C172.464 131.238 173.29 134.367 172.972 137.559C173.544 137.371 174.179 137.246 174.75 137.058C173.48 135.243 174.687 133.303 176.401 132.364C177.862 131.613 179.513 131.801 180.91 132.552C183.196 133.741 184.783 135.932 186.244 137.934C186.942 138.936 188.593 137.997 187.895 136.996C185.482 133.679 181.862 129.048 177.1 130.111C173.607 130.862 170.813 134.868 173.099 137.997C173.671 138.811 174.75 138.435 174.877 137.496C175.449 131.551 171.004 123.415 163.892 124.416C161.352 124.792 159.51 126.544 159.51 129.11C159.51 131.113 160.78 133.178 162.939 133.303C165.479 133.491 167.194 131.05 167.321 128.797C167.511 125.668 165.035 122.289 163.13 119.973C161.352 117.908 158.748 116.155 155.954 117.219C153.668 118.033 152.144 120.286 153.097 122.601C153.478 123.853 155.319 123.352 154.875 122.226Z" fill="#E8E8E8"/>
<path d="M489.393 214.034C486.726 212.47 488.631 207.839 491.616 209.779C494.473 211.656 490.663 214.848 488.822 212.658C488.06 211.719 486.726 213.033 487.488 213.972C488.949 215.724 491.743 215.599 493.394 214.16C495.299 212.47 494.791 209.716 492.822 208.339C490.854 206.963 487.996 207.213 486.79 209.466C485.583 211.594 486.409 214.473 488.504 215.662C489.457 216.225 490.409 214.66 489.393 214.034Z" fill="#E8E8E8"/>
<path d="M691.704 77.1653C690.307 75.2252 692.72 72.2838 694.943 73.16C694.752 73.0348 694.562 72.8471 694.371 72.7219C695.578 74.7872 693.8 77.6034 691.45 77.4782C691.768 77.7286 692.085 77.9163 692.339 78.1667C691.958 77.1027 691.514 75.9762 691.133 74.9123C690.688 73.7858 688.847 74.2865 689.291 75.413C689.672 76.4769 690.117 77.6034 690.498 78.6673C690.625 79.1054 690.942 79.3557 691.387 79.3557C693.419 79.4809 695.197 78.2292 696.086 76.4769C696.784 75.1001 697.165 72.2212 695.451 71.3451C691.704 69.5302 687.831 75.0375 690.053 78.1041C690.752 79.1054 692.403 78.1667 691.704 77.1653Z" fill="#E8E8E8"/>
<path d="M743.396 170.226C743.078 168.787 744.158 167.222 745.618 166.909C746.952 166.659 748.158 167.723 748.476 168.912C749.301 171.728 745.555 173.043 743.777 171.102C742.951 170.226 741.618 171.541 742.443 172.417C745.745 176.047 752.095 172.479 750.063 167.848C749.174 165.783 746.952 164.469 744.729 165.157C742.38 165.908 740.983 168.349 741.491 170.727C741.872 171.916 743.713 171.415 743.396 170.226Z" fill="#E8E8E8"/>
<path d="M537.273 688.229C534.86 687.102 535.05 683.848 537.273 682.596C539.432 681.407 541.464 682.471 543.432 683.347C545.083 684.098 546.988 684.787 548.449 683.347C549.782 682.096 549.528 680.156 549.592 678.528C549.846 672.208 556.069 673.459 560.323 675.024C561.466 675.462 561.974 673.647 560.831 673.209C557.085 671.769 551.878 670.393 548.893 674.023C548.004 675.086 547.75 676.338 547.687 677.652C547.623 678.529 548.004 680.469 547.496 681.282C546.099 683.347 544.194 681.47 542.734 680.844C539.94 679.655 535.939 679.968 534.225 682.847C532.764 685.288 533.653 688.604 536.257 689.793C537.4 690.357 538.352 688.73 537.273 688.229Z" fill="#E8E8E8"/>
<path d="M568.01 540.72C566.105 563.688 567.121 586.719 571.058 609.436C571.248 610.626 573.09 610.125 572.899 608.936C569.026 586.406 568.01 563.5 569.915 540.72C570.042 539.531 568.137 539.531 568.01 540.72Z" fill="#E8E8E8"/>
<path d="M569.28 542.16C579.186 545.539 589.409 547.792 599.823 548.919C609.602 549.92 620.842 550.984 630.24 547.354C631.383 546.916 630.875 545.101 629.732 545.539C620.588 549.107 609.475 548.043 599.823 547.041C589.6 545.978 579.503 543.662 569.788 540.345C568.581 539.907 568.137 541.722 569.28 542.16Z" fill="#E8E8E8"/>
<path d="M584.392 544.725C581.09 539.656 578.36 534.274 576.455 528.516C575.566 525.763 574.804 523.009 574.232 520.193C573.915 518.503 573.597 516.813 573.407 515.123C573.407 514.936 572.708 510.492 574.042 511.118C574.677 511.431 575.756 510.868 575.439 510.054C571.946 501.355 570.041 492.218 569.851 482.83C569.533 483.143 569.216 483.456 568.898 483.769C569.406 483.957 569.851 484.145 570.359 484.332C570.994 485.083 572.2 484.27 571.946 483.394C570.676 479.388 569.851 475.258 569.597 471.002C569.533 470.001 569.724 458.736 570.422 458.924C571.184 459.111 571.692 458.423 571.565 457.797C570.359 450.725 569.787 443.528 570.105 436.394C570.232 432.826 570.549 429.322 571.121 425.817C571.629 422.625 571.883 418.745 574.423 416.43C573.915 416.367 573.407 416.304 572.899 416.242C578.233 426.13 581.217 436.957 583.948 447.721C586.615 458.298 588.964 469 590.996 479.764C595.124 501.981 597.727 524.448 598.87 547.041C598.934 548.23 600.839 548.23 600.775 547.041C599.632 524.323 597.029 501.668 592.838 479.263C590.742 468.123 588.329 457.046 585.535 446.031C582.805 435.455 579.82 424.941 574.55 415.24C574.232 414.677 573.47 414.677 573.026 415.053C570.867 416.993 570.232 419.559 569.724 422.25C569.025 426.067 568.517 430.01 568.263 433.89C567.755 442.026 568.263 450.162 569.66 458.235C570.041 457.86 570.422 457.484 570.803 457.109C567.12 456.107 567.565 463.93 567.501 465.683C567.247 471.816 568.2 477.949 570.041 483.832C570.549 483.519 571.121 483.206 571.629 482.893C570.803 481.954 570.105 481.641 568.835 481.767C568.327 481.829 567.882 482.142 567.882 482.705C568.073 492.218 569.978 501.543 573.534 510.43C573.978 510.054 574.486 509.741 574.931 509.366C568.581 506.362 572.264 520.506 572.772 522.633C574.677 530.769 578.106 538.53 582.678 545.539C583.44 546.665 585.091 545.727 584.392 544.725Z" fill="#E8E8E8"/>
<path d="M594.488 482.205C593.917 478.199 593.79 474.131 594.298 470.126C594.425 469.125 596.838 457.359 598.044 457.86C598.679 458.173 599.441 457.797 599.505 457.046C599.886 449.035 602.426 441.901 605.41 434.516C608.395 427.194 611.316 420.122 616.269 413.801C615.824 413.801 615.38 413.801 614.935 413.801C618.555 417.869 618.11 424.065 618.301 429.134C618.555 434.829 618.745 440.524 618.809 446.219C618.936 457.422 618.745 468.624 618.237 479.826C617.158 502.732 614.554 525.575 610.617 548.167C610.427 549.357 612.268 549.857 612.459 548.668C616.586 525.137 619.19 501.293 620.269 477.386C620.777 465.37 620.904 453.354 620.65 441.338C620.523 435.33 620.396 429.322 619.952 423.314C619.698 419.371 619.063 415.491 616.269 412.424C615.951 412.049 615.253 412.049 614.935 412.424C610.046 418.683 606.998 425.567 604.077 432.889C600.838 440.774 598.108 448.41 597.663 457.046C598.171 456.796 598.616 456.483 599.124 456.233C595.25 454.543 593.98 462.679 593.472 464.869C592.075 470.752 591.948 476.697 592.837 482.643C592.774 483.894 594.615 483.394 594.488 482.205Z" fill="#E8E8E8"/>
<path d="M571.948 611.002C591.823 617.323 613.35 617.01 633.035 610.126C634.178 609.75 633.67 607.935 632.527 608.311C613.159 615.07 592.014 615.383 572.456 609.187C571.249 608.811 570.741 610.626 571.948 611.002Z" fill="#E8E8E8"/>
<path d="M629.986 546.728C630.748 556.866 631.573 567.005 632.272 577.143C632.97 587.47 633.224 597.921 631.51 608.185C631.319 609.374 633.161 609.874 633.351 608.685C635.066 598.609 634.939 588.471 634.24 578.332C633.542 567.818 632.716 557.242 631.891 546.728C631.827 545.539 629.922 545.539 629.986 546.728Z" fill="#E8E8E8"/>
<path d="M291.082 627.084C304.036 620.262 317.054 613.441 330.008 606.619C336.104 607.62 344.486 608.935 354.519 610.311C374.585 613.065 406.906 617.509 447.8 618.698C488.694 619.887 519.365 617.321 531.049 616.194C559.179 613.566 576.197 609.999 590.104 606.306C602.74 602.927 613.154 599.234 620.584 596.418C626.68 598.421 633.474 601.112 640.713 604.804C644.841 606.932 648.651 609.122 652.016 611.313C640.078 614.692 624.013 619.011 604.899 623.391C564.64 632.654 533.779 637.035 527.302 637.973C490.282 643.168 437.513 650.49 371.156 642.917C350.518 640.477 323.023 636.033 291.082 627.084Z" fill="white"/>
<path d="M290.383 627.148C290.7 629.776 291.081 632.342 291.399 634.971C296.161 636.285 303.146 638.162 311.782 640.04C328.292 643.67 345.056 646.173 366.964 647.863C447.863 654.121 512.506 648.551 512.506 648.551C544.827 645.735 576.196 642.856 616.709 631.216C631.949 626.835 644.395 622.391 653.285 618.949C652.587 616.008 651.888 613.066 651.19 610.125C648.713 611.126 645.03 612.566 640.522 614.193C609.915 625.208 584.705 628.837 562.226 631.528C512.823 637.536 488.122 640.478 451.863 641.041C410.588 641.73 355.216 639.289 290.383 627.148Z" fill="#161616"/>
<path d="M289.941 628.335C289.941 630.338 289.941 632.341 289.941 634.343C289.941 635.532 291.846 635.532 291.846 634.343C291.846 632.341 291.846 630.338 291.846 628.335C291.846 627.084 289.941 627.084 289.941 628.335Z" fill="#161616"/>
<path d="M290.639 636.097C338.074 648.739 387.604 650.366 436.435 651.055C483.362 651.681 530.606 649.678 576.834 641.229C602.869 636.473 628.523 629.526 653.288 620.076C654.431 619.638 653.923 617.823 652.78 618.261C609.092 634.971 562.673 643.482 516.001 647.049C468.947 650.617 421.449 649.803 374.396 646.987C346.265 645.234 318.389 641.605 291.147 634.345C289.941 633.969 289.433 635.784 290.639 636.097Z" fill="#161616"/>
<path d="M653.285 618.762C653.666 616.133 653.793 613.442 653.539 610.814C653.412 609.625 651.507 609.625 651.634 610.814C651.824 613.317 651.824 615.82 651.443 618.261C651.253 619.388 653.095 619.951 653.285 618.762Z" fill="#161616"/>
<path d="M291.465 628.149C304.8 621.891 317.881 615.195 330.708 607.935C331.787 607.309 330.835 605.744 329.755 606.308C316.928 613.505 303.847 620.264 290.512 626.522C289.369 627.023 290.322 628.65 291.465 628.149Z" fill="#161616"/>
<path d="M330.198 607.059C405.953 621.265 484.693 623.894 561.084 613.129C581.404 610.25 601.597 605.807 620.393 597.546C621.536 597.045 620.52 595.418 619.44 595.919C602.549 603.304 584.515 607.622 566.291 610.438C547.749 613.317 529.016 615.069 510.284 616.258C472.247 618.637 434.02 618.011 396.111 614.443C374.14 612.378 352.359 609.249 330.706 605.244C329.499 605.056 328.991 606.871 330.198 607.059Z" fill="#161616"/>
<path d="M620.014 597.233C631.317 600.863 641.922 605.932 651.828 612.378C652.844 613.067 653.796 611.439 652.78 610.751C642.747 604.242 631.952 599.11 620.522 595.418C619.316 595.043 618.808 596.857 620.014 597.233Z" fill="#161616"/>
<path d="M291.59 627.147C314.005 634.594 337.373 638.099 360.868 639.976C384.681 641.854 408.684 642.417 432.56 642.417C479.994 642.417 527.556 639.225 574.292 630.839C600.835 626.083 627.124 619.637 652.714 611.188C653.857 610.813 653.349 608.998 652.206 609.373C607.185 624.143 560.385 632.779 513.141 637.035C466.151 641.291 418.653 641.541 371.536 638.787C344.612 637.16 317.625 633.843 291.971 625.332C290.955 624.956 290.447 626.771 291.59 627.147Z" fill="#161616"/>
<path d="M328.167 269.733C405.764 252.022 485.647 248.142 565.022 247.391C587.501 247.141 609.98 247.203 632.459 247.203C633.665 247.203 633.665 245.326 632.459 245.326C552.83 245.2 472.82 245.138 393.762 255.965C371.537 259.031 349.503 262.912 327.659 267.918C326.452 268.231 326.96 270.046 328.167 269.733Z" fill="#161616"/>
<path d="M636.394 245.513C637.219 274.615 637.727 308.347 637.537 345.834C637.41 367.613 637.219 357.225 635.251 447.845C634.108 500.04 633.79 519.691 630.044 549.856C627.631 569.507 624.71 585.654 622.551 596.606C638.934 601.112 654.555 605.368 668.271 609.123C689.48 614.943 695.131 616.507 703.577 617.697C716.658 619.449 732.596 619.699 751.011 616.007C757.806 561.184 761.552 514.434 763.711 478.636C771.458 352.844 764.219 294.892 761.425 274.552C757.615 247.141 752.916 224.611 749.297 209.027C735.708 211.593 724.659 214.347 716.912 216.412C690.305 223.609 669.223 232.058 651.57 239.193C645.03 241.884 639.759 244.074 636.394 245.513Z" fill="white"/>
<path d="M198.625 210.154C198.117 215.536 197.545 222.17 197.037 227.928C186.496 346.398 181.226 405.665 179.511 443.778C177.733 484.707 177.606 544.036 186.433 617.822C187.131 619.324 188.401 621.389 190.687 623.079C193.672 625.27 196.402 625.207 201.8 626.709C206.054 627.898 208.277 629.087 210.309 629.838C216.151 632.091 229.232 634.657 245.869 634.031C269.745 633.092 288.096 625.895 301.558 620.451C314.195 615.381 324.291 609.937 331.276 605.806C327.339 570.947 324.418 534.148 322.767 495.534C319.402 413.425 322.767 338.012 329.689 270.798C326.768 269.671 322.513 268.106 317.497 266.104C308.861 262.662 288.16 254.338 251.711 236.815C237.296 229.931 219.262 220.981 198.625 210.154Z" fill="white"/>
<path d="M748.918 208.777C749.68 212.908 750.696 218.603 751.839 225.425C753.426 235.125 756.982 258.093 759.586 288.258C762.253 319.675 762.888 346.711 762.951 368.24C763.142 411.923 761.491 443.965 757.173 518.69C755.839 541.971 753.871 576.079 751.394 617.697C753.998 617.509 756.538 617.384 759.141 617.196C760.411 606.807 762.126 591.349 763.459 572.449C764.475 558.806 764.92 548.855 765.364 538.153C767.587 489.088 767.968 489.651 768.73 469.625C770.254 430.135 769.936 399.782 769.682 372.495C769.492 353.658 768.92 335.821 767.777 300.149C766.952 275.867 766.126 254.338 760.538 226.363C759.078 219.229 757.681 213.283 756.665 209.215C754.061 209.09 751.521 208.965 748.918 208.777Z" fill="#161616"/>
<path d="M188.913 211.281C188.468 213.472 187.77 216.851 187.071 220.982C185.039 232.935 184.531 241.947 184.341 244.888C182.944 266.167 180.15 276.556 176.086 323.806C175.324 332.443 174.752 340.015 173.609 355.223C171.26 386.264 170.117 401.785 169.291 419.308C168.402 438.897 168.275 452.728 168.085 480.39C167.894 504.296 167.767 521.569 168.402 544.162C168.91 562.186 169.926 586.656 172.403 615.82C177.546 617.322 182.626 618.824 187.77 620.326C187.706 617.51 187.516 612.44 187.135 606.12C185.611 578.02 183.134 566.629 182.563 543.223C182.372 536.026 182.499 531.27 182.563 524.448C183.261 475.508 182.436 453.166 182.88 421.373C183.642 369.492 187.198 328.938 190.246 294.392C193.104 261.723 196.342 233.749 199.136 211.844C195.644 211.657 192.278 211.469 188.913 211.281Z" fill="#161616"/>
<path d="M634.87 246.577C637.219 292.514 636.902 338.575 636.267 384.511C635.568 429.446 635.251 474.506 631.758 519.378C629.79 544.912 626.678 570.384 621.852 595.605C621.598 596.794 623.44 597.294 623.694 596.105C632.139 551.984 635.251 507.112 636.648 462.302C638.108 416.554 638.743 370.68 638.68 324.869C638.616 298.772 638.172 272.675 636.838 246.577C636.711 245.388 634.806 245.388 634.87 246.577Z" fill="#161616"/>
<path d="M637.22 246.577C672.463 229.367 709.864 216.975 748.472 209.653C749.679 209.403 749.171 207.588 747.964 207.838C709.229 215.223 671.637 227.74 636.268 244.95C635.188 245.513 636.141 247.14 637.22 246.577Z" fill="#161616"/>
<path d="M747.836 209.091C758.314 261.098 761.489 314.231 761.425 367.177C761.298 420.122 758.124 472.942 755.52 525.825C753.996 556.303 752.472 586.719 750.948 617.197C750.884 618.386 752.789 618.386 752.853 617.197C755.583 563.25 758.441 509.303 760.918 455.294C763.331 402.348 764.855 349.278 761.235 296.395C759.203 266.918 755.583 237.567 749.741 208.653C749.424 207.401 747.582 207.902 747.836 209.091Z" fill="#161616"/>
<path d="M622.173 595.98C625.031 599.234 630.111 599.86 634.111 601.049C639.572 602.677 645.097 604.304 650.558 605.931C661.607 609.185 672.592 612.627 683.768 615.381C705.612 620.638 728.028 621.702 750.189 617.947C751.396 617.759 750.888 615.944 749.681 616.132C727.837 619.824 705.739 618.76 684.276 613.566C674.053 611.125 664.02 607.996 653.987 604.992C648.907 603.49 643.827 601.988 638.747 600.486C636.207 599.735 633.667 598.984 631.127 598.233C628.46 597.42 625.475 596.856 623.57 594.666C622.681 593.79 621.348 595.104 622.173 595.98Z" fill="#161616"/>
<path d="M749.108 209.153C751.457 209.716 753.807 210.28 756.22 210.843C757.426 211.156 757.934 209.341 756.728 209.028C754.378 208.465 752.029 207.901 749.616 207.338C748.409 207.088 747.901 208.903 749.108 209.153Z" fill="#161616"/>
<path d="M756.091 210.216C762.441 235.5 764.156 261.91 765.997 287.882C767.902 314.417 768.918 341.015 769.363 367.676C770.125 420.559 768.283 473.442 765.235 526.262C763.521 556.177 761.362 586.092 759.139 616.006C759.076 617.195 760.981 617.195 761.044 616.006C765.045 562.811 768.664 509.615 770.379 456.294C772.093 403.098 771.966 349.777 768.537 296.581C766.696 267.668 765.045 238.003 757.996 209.778C757.615 208.526 755.774 209.027 756.091 210.216Z" fill="#161616"/>
<path d="M751.967 618.259C754.761 618.009 757.492 617.759 760.286 617.508C761.492 617.383 761.492 615.506 760.286 615.631C757.492 615.881 754.761 616.132 751.967 616.382C750.761 616.507 750.761 618.385 751.967 618.259Z" fill="#161616"/>
<path d="M328.105 270.296C323.85 313.666 321.31 357.162 320.485 400.72C319.659 444.466 320.548 488.274 323.215 531.957C324.676 556.49 326.771 580.96 329.311 605.367C329.438 606.556 331.343 606.556 331.216 605.367C326.644 562.06 323.787 518.564 322.644 475.006C321.501 431.26 322.072 387.452 324.422 343.769C325.755 319.236 327.597 294.766 329.946 270.296C330.137 269.107 328.232 269.107 328.105 270.296Z" fill="#161616"/>
<path d="M199.834 211.657C241.046 234.249 283.845 254.026 327.787 270.86C328.93 271.299 329.438 269.484 328.295 269.046C284.48 252.273 241.871 232.559 200.787 210.029C199.707 209.404 198.755 211.031 199.834 211.657Z" fill="#161616"/>
<path d="M197.863 211.218C190.814 264.163 185.925 317.422 183.258 370.805C180.591 424.189 180.21 477.635 181.988 531.019C183.004 560.996 184.718 590.974 187.131 620.888C187.258 622.078 189.163 622.078 189.036 620.888C184.718 567.63 182.686 514.184 182.813 460.8C182.94 407.354 185.353 353.971 189.925 300.712C192.529 270.797 195.831 241.008 199.768 211.218C199.895 210.029 197.99 210.029 197.863 211.218Z" fill="#161616"/>
<path d="M187.068 622.078C222.437 641.041 264.792 636.973 300.733 621.953C311.528 617.447 321.942 612.002 331.975 606.057C332.991 605.431 332.038 603.804 331.022 604.43C297.558 624.394 258.315 638.35 218.754 631.09C208.023 629.15 197.609 625.583 188.02 620.451C187.004 619.888 185.988 621.515 187.068 622.078Z" fill="#161616"/>
<path d="M173.036 616.884C177.481 618.949 182.053 620.701 186.688 622.266C187.831 622.641 188.339 620.827 187.196 620.451C182.687 618.949 178.306 617.259 173.988 615.257C172.845 614.756 171.893 616.383 173.036 616.884Z" fill="#161616"/>
<path d="M187.641 211.656C180.783 264.1 175.068 316.67 171.322 369.428C167.639 421.936 165.861 474.568 167.004 527.201C167.639 556.99 169.163 586.78 171.766 616.445C171.893 617.634 173.798 617.634 173.671 616.445C169.099 563.812 167.766 510.992 169.036 458.171C170.242 405.539 173.925 352.969 179.196 300.524C182.18 270.859 185.673 241.195 189.546 211.593C189.737 210.467 187.832 210.467 187.641 211.656Z" fill="#161616"/>
<path d="M188.721 212.971C192.404 212.22 196.087 211.97 199.897 212.157C201.104 212.22 201.104 210.342 199.897 210.28C195.96 210.092 192.087 210.405 188.213 211.156C187.007 211.406 187.515 213.221 188.721 212.971Z" fill="#161616"/>
<path d="M659.193 250.833C661.86 323.43 661.733 396.089 658.685 468.686C657.86 489.025 656.78 509.302 655.447 529.642C655.383 530.831 657.288 530.831 657.352 529.642C661.987 457.17 663.765 384.511 662.686 311.852C662.368 291.512 661.86 271.173 661.098 250.833C661.035 249.644 659.13 249.644 659.193 250.833Z" fill="#161616"/>
<path d="M689.991 224.798C692.531 275.303 693.801 325.933 693.737 376.5C693.737 427.067 692.467 477.697 689.927 528.202C688.53 556.803 686.689 585.341 684.466 613.879C684.403 615.068 686.308 615.068 686.371 613.879C690.308 563.436 692.975 512.932 694.436 462.364C695.833 411.797 696.023 361.167 694.944 310.6C694.309 281.999 693.293 253.399 691.896 224.798C691.832 223.609 689.927 223.609 689.991 224.798Z" fill="#161616"/>
<path d="M726.947 213.66C730.503 266.167 732.662 318.8 733.233 371.495C733.805 424.378 732.916 477.198 730.503 530.018C729.169 559.62 727.328 589.222 724.978 618.762C724.915 619.951 726.82 619.951 726.883 618.762C730.947 566.254 733.614 513.622 734.694 460.989C735.773 408.169 735.392 355.286 733.487 302.403C732.408 272.801 730.884 243.199 728.852 213.597C728.788 212.408 726.883 212.408 726.947 213.66Z" fill="#161616"/>
<path d="M652.651 553.111C651.19 569.507 648.523 585.779 644.65 601.8C644.396 602.989 646.174 603.49 646.491 602.301C650.428 586.092 653.095 569.695 654.556 553.111C654.683 551.921 652.778 551.921 652.651 553.111Z" fill="#161616"/>
<path d="M220.661 223.859C213.041 276.367 209.803 329.438 209.295 382.446C208.85 435.767 211.073 489.025 214.375 542.221C216.216 572.323 218.375 602.363 220.534 632.466C220.598 633.655 222.503 633.655 222.439 632.466C218.629 579.458 214.819 526.45 212.724 473.379C210.628 420.434 210.311 367.363 213.422 314.418C215.2 284.315 218.121 254.212 222.439 224.36C222.693 223.234 220.852 222.67 220.661 223.859Z" fill="#161616"/>
<path d="M257.174 241.384C252.348 292.139 249.11 343.082 248.03 394.087C247.014 445.03 248.221 495.973 252.475 546.791C254.825 575.016 258.127 603.116 262.445 631.091C262.635 632.28 264.477 631.779 264.286 630.59C256.539 580.148 252.094 529.205 250.443 478.199C248.792 427.882 249.745 377.44 252.539 327.186C254.126 298.585 256.349 269.985 259.079 241.447C259.206 240.195 257.301 240.195 257.174 241.384Z" fill="#161616"/>
<path d="M293.748 256.341C287.525 303.717 283.905 351.405 282.953 399.156C282 446.907 283.651 494.721 287.906 542.284C290.319 568.82 293.494 595.23 297.494 621.578C297.685 622.767 299.526 622.266 299.336 621.077C292.16 573.889 287.588 526.388 285.62 478.762C283.651 431.262 284.35 383.636 287.588 336.135C289.43 309.474 292.097 282.814 295.589 256.279C295.843 255.152 293.938 255.152 293.748 256.341Z" fill="#161616"/>
<path opacity="0.12" d="M712.723 217.915C719.772 246.265 725.487 279.497 727.392 316.734C732.154 411.485 709.548 488.9 689.863 538.592C675.957 560.558 662.114 582.525 648.207 604.492C661.733 610.25 681.799 616.946 706.818 618.949C724.09 620.325 739.076 619.074 750.76 617.196C750.887 614.443 752.982 572.574 753.109 569.821C760.031 429.571 760.475 419.996 760.729 410.358C761.872 371.119 761.682 314.794 754.887 244.513C752.538 232.559 750.188 220.606 747.839 208.715C736.218 211.719 724.471 214.785 712.723 217.915Z" fill="#3F3F3F"/>
<path opacity="0.13" d="M269.557 248.519C267.906 255.34 265.429 265.541 262.508 277.996C249.554 333.57 240.029 374.436 234.949 412.049C225.932 478.325 217.233 542.535 254.317 595.23C265.112 610.563 276.923 620.89 284.797 627.023C277.177 629.964 267.715 632.655 256.666 633.97C225.932 637.537 201.294 627.711 189.229 621.828C184.657 580.336 181.482 535.901 180.466 488.901C178.18 384.888 186.753 291.388 199.834 210.969C223.011 223.485 246.252 236.002 269.557 248.519Z" fill="#3F3F3F"/>
<path d="M202.948 181.179C202.122 181.805 202.757 184.246 203.9 188.439C204.345 190.066 204.789 191.318 205.043 192.131C204.535 195.511 204.091 198.89 203.583 202.27C202.567 202.395 199.963 202.958 197.55 205.023C195.328 206.964 194.439 209.217 194.121 210.218C196.153 210.406 198.63 210.844 201.297 211.657C205.17 212.846 208.218 214.474 210.441 215.85C210.441 216.601 210.568 218.041 211.584 219.105C212.473 219.981 213.552 220.106 214.187 220.231C216.473 220.607 219.204 221.107 222.696 221.858C224.22 222.735 226.76 224.174 229.872 225.864C240.413 231.496 244.223 232.435 254.764 237.942C261.558 241.51 260.987 241.635 265.749 243.888C273.052 247.392 279.338 249.458 283.593 250.647C285.371 248.707 288.228 244.952 289.816 239.507C291.086 235.189 291.022 231.434 290.768 228.993C291.848 229.556 293.562 230.182 295.531 229.932C300.611 229.368 303.849 223.673 304.865 219.605C305.754 216.038 304.929 213.785 304.23 209.592C302.643 200.205 301.246 191.818 305.183 186.499C308.485 182.055 315.279 179.99 320.74 174.045C321.248 173.481 322.201 172.418 321.883 171.917C321.312 170.978 316.867 172.605 314.708 173.544C313.311 174.17 302.833 178.926 299.658 189.691C299.15 191.38 299.087 196.262 299.023 205.962C298.96 213.034 299.087 217.039 296.229 219.355C294.769 220.544 292.61 221.233 290.641 220.794C287.72 220.169 286.323 217.352 285.053 215.475C281.751 210.531 277.052 208.466 271.274 205.649C266.765 203.459 262.892 202.645 255.081 200.956C247.715 199.391 245.493 199.579 242.318 197.263C238.762 194.635 236.793 190.942 235.777 188.877C234.761 186.937 233.174 183.87 232.475 179.489C232.094 176.924 232.158 175.109 231.523 174.983C230.38 174.733 229.808 179.928 225.935 181.742C223.585 182.869 222.061 181.805 217.934 181.93C215.267 181.993 212.219 182.556 208.79 184.058C207.647 183.244 204.091 180.366 202.948 181.179Z" fill="#8AA6BF"/>
<path d="M204.853 201.77C203.52 191.443 213.045 182.056 223.586 183.12C233.555 184.121 240.159 196.075 239.842 205.024C239.778 206.213 241.683 206.213 241.747 205.024C242.064 195.136 234.571 182.119 223.586 181.242C212.029 180.304 201.488 190.38 202.948 201.77C203.139 202.896 205.044 202.959 204.853 201.77Z" fill="#8AA6BF"/>
<path d="M204.661 208.277C208.535 215.725 216.853 220.982 225.553 219.855C233.49 218.791 240.221 212.47 241.428 204.647C241.618 203.458 239.777 202.958 239.586 204.147C238.507 211.281 232.538 217.039 225.299 217.978C217.361 219.042 209.868 214.16 206.312 207.338C205.741 206.275 204.09 207.213 204.661 208.277Z" fill="#8AA6BF"/>
<path d="M211.518 217.352C211.328 214.974 218.186 213.973 219.9 213.597C223.012 212.909 226.187 212.533 229.362 212.533C235.267 212.533 240.919 214.035 245.935 217.102C246.951 217.728 247.967 216.101 246.888 215.475C240.411 211.532 232.854 210.155 225.361 210.844C221.424 211.219 217.551 212.033 213.804 213.284C211.772 213.973 209.359 214.849 209.55 217.352C209.677 218.541 211.645 218.541 211.518 217.352Z" fill="#8AA6BF"/>
<path d="M238.826 195.698C242.826 200.455 249.303 201.581 255.082 202.833C262.765 204.585 270.703 206.15 277.434 210.343C291.34 218.979 293.944 237.817 282.958 249.895C282.133 250.772 283.466 252.148 284.292 251.21C294.071 240.508 294.325 224.111 284.228 213.472C278.894 207.839 271.274 204.898 263.845 202.958C256.288 201.018 245.43 200.705 240.096 194.321C239.397 193.445 238.064 194.759 238.826 195.698Z" fill="#8AA6BF"/>
<path d="M283.275 228.429C280.1 224.299 274.512 222.859 269.622 224.862C263.59 227.303 263.272 234.625 263.971 240.195C264.098 241.384 266.003 241.384 265.876 240.195C265.304 235.814 265.241 229.055 269.813 226.865C273.75 224.925 278.893 225.926 281.56 229.431C282.322 230.369 283.973 229.431 283.275 228.429Z" fill="#8AA6BF"/>
<path d="M265.62 239.319C262.127 236.691 258.508 234.438 253.999 235.627C253.491 235.752 253.237 236.315 253.364 236.753C254.507 241.134 261.492 242.949 265.175 244.514C270.827 246.954 276.605 249.02 282.447 250.835C283.59 251.21 284.098 249.395 282.955 249.02C278.256 247.58 273.684 246.016 269.112 244.138C266.636 243.137 264.223 242.073 261.81 240.946C259.651 239.945 255.777 238.756 255.142 236.253C254.952 236.628 254.698 237.004 254.507 237.379C258.444 236.315 261.683 238.631 264.604 240.884C265.62 241.697 266.572 240.07 265.62 239.319Z" fill="#8AA6BF"/>
<path d="M209.803 217.165C212.28 221.17 217.296 221.858 221.678 222.484C228.155 223.423 234.632 223.423 241.109 222.734C242.315 222.609 242.315 220.732 241.109 220.857C235.902 221.42 230.695 221.545 225.488 221.045C221.106 220.607 214.058 220.356 211.391 216.226C210.819 215.162 209.168 216.101 209.803 217.165Z" fill="#8AA6BF"/>
<path d="M195.009 210.781C195.835 206.4 199.708 204.147 204.026 203.96C203.709 203.709 203.391 203.521 203.137 203.271C203.455 204.773 203.899 206.213 204.534 207.589C204.979 208.716 206.82 208.215 206.376 207.089C205.804 205.649 205.36 204.272 204.979 202.77C204.915 202.395 204.471 202.082 204.09 202.082C199.01 202.332 194.184 205.086 193.231 210.28C192.977 211.47 194.819 211.97 195.009 210.781Z" fill="#8AA6BF"/>
<path d="M206.057 191.381C205.104 188.69 204.406 185.874 204.152 182.995C204.152 182.744 204.088 182.494 204.088 182.244C204.025 181.681 204.088 181.743 204.342 182.432C204.914 182.807 205.485 183.245 206.057 183.683C207.009 184.497 207.898 185.373 208.66 186.312C209.486 187.251 210.819 185.874 209.994 184.998C208.914 183.746 204.406 178.614 202.501 180.617C201.548 181.618 202.247 183.934 202.437 185.06C202.755 187.376 203.39 189.691 204.152 191.882C204.66 193.008 206.501 192.57 206.057 191.381Z" fill="#8AA6BF"/>
<path d="M227.52 182.619C228.092 181.618 228.663 180.617 229.298 179.615C229.552 179.177 229.806 178.802 229.997 178.364C230.378 177.738 230.378 177.175 231.14 177.362C232.029 177.55 231.711 179.615 231.711 180.366C231.711 181.555 231.775 182.745 231.775 183.934C231.775 185.123 233.68 185.123 233.68 183.934C233.68 181.994 233.743 180.053 233.616 178.113C233.553 176.862 233.108 175.485 231.711 175.047C230.441 174.671 229.552 175.485 228.917 176.424C227.838 178.113 226.885 179.928 225.869 181.618C225.234 182.745 226.885 183.683 227.52 182.619Z" fill="#8AA6BF"/>
<path d="M288.353 223.549C288.734 228.305 294.132 229.87 297.878 227.554C303.403 224.175 304.609 216.54 303.911 210.782C302.958 202.896 301.053 195.574 303.784 187.751C306.387 180.304 312.864 174.233 321.056 173.733C322.262 173.67 322.262 171.792 321.056 171.855C309.88 172.543 302.26 181.931 300.672 192.32C299.72 198.516 301.117 204.273 301.942 210.344C302.45 214.349 302.196 218.167 300.355 221.859C299.529 223.424 298.386 224.988 296.862 225.99C294.513 227.429 290.449 226.991 290.195 223.611C290.195 222.36 288.29 222.297 288.353 223.549Z" fill="#8AA6BF"/>
<path d="M289.369 226.927C291.338 232.122 298.196 229.806 301.18 226.802C306.07 221.921 304.99 213.785 304.609 207.589C304.546 206.4 302.641 206.4 302.704 207.589C302.958 211.532 303.339 215.787 302.641 219.73C302.323 221.608 301.625 223.36 300.355 224.862C298.958 226.552 292.862 230.807 291.211 226.427C290.766 225.3 288.925 225.801 289.369 226.927Z" fill="#8AA6BF"/>
<path d="M321.122 171.792C313.883 174.546 306.58 178.426 303.659 185.936C300.294 194.573 302.707 203.96 302.516 212.91C302.516 214.099 304.421 214.099 304.421 212.91C304.612 205.087 302.707 197.076 304.612 189.316C306.707 180.804 313.883 176.549 321.63 173.607C322.773 173.169 322.265 171.354 321.122 171.792Z" fill="#8AA6BF"/>
<path d="M319.661 172.856C312.994 175.86 306.898 181.117 303.786 187.814C302.135 191.318 302.389 195.198 302.389 199.016C302.389 203.898 302.58 208.842 302.961 213.723C303.024 214.912 304.929 214.912 304.866 213.723C304.612 209.78 304.421 205.9 304.358 201.958C304.294 197.827 303.723 192.945 305.31 189.065C308.041 182.494 314.2 177.425 320.614 174.483C321.757 173.983 320.804 172.356 319.661 172.856Z" fill="#8AA6BF"/>
<path d="M208.599 195.511C210.377 198.577 214.885 197.513 215.33 194.134C215.393 193.508 214.441 193.57 214.377 194.134C214.06 196.7 210.758 197.2 209.424 195.072C209.107 194.509 208.281 195.01 208.599 195.511Z" fill="white"/>
<path d="M222.06 193.069C224.028 196.386 229.045 195.072 229.108 191.255C229.108 190.629 228.156 190.629 228.156 191.255C228.092 194.196 224.409 195.135 222.885 192.631C222.568 192.068 221.742 192.506 222.06 193.069Z" fill="white"/>
<path d="M218.252 197.201C218.696 199.016 218.315 200.83 217.172 202.332C216.791 202.833 217.617 203.271 217.998 202.833C219.268 201.143 219.649 199.016 219.204 196.95C219.014 196.387 218.061 196.637 218.252 197.201Z" fill="white"/>
<path d="M218.631 197.137C218.441 199.516 219.774 201.769 221.997 202.77C222.568 203.02 223.013 202.207 222.505 201.956C220.6 201.08 219.393 199.203 219.584 197.137C219.584 196.512 218.631 196.512 218.631 197.137Z" fill="white"/>
<path d="M203.136 202.709C208.724 202.271 212.28 206.777 216.026 210.093C216.471 210.469 217.169 209.843 216.725 209.405C212.788 205.9 208.978 201.332 203.136 201.707C202.564 201.77 202.564 202.709 203.136 202.709Z" fill="white"/>
<path d="M213.552 213.722C220.728 209.216 229.237 207.714 237.555 209.529C238.127 209.654 238.381 208.778 237.809 208.653C229.237 206.838 220.474 208.34 213.108 212.971C212.536 213.222 213.044 214.035 213.552 213.722Z" fill="white"/>
<path d="M231.585 222.296C237.49 222.672 243.078 220.857 247.587 217.039C248.031 216.664 247.396 215.975 246.888 216.351C242.57 219.981 237.236 221.733 231.585 221.358C231.013 221.358 231.013 222.296 231.585 222.296Z" fill="white"/>
<path d="M229.87 177.862C228.473 180.178 228.156 182.869 228.981 185.435C229.172 185.998 230.061 185.748 229.87 185.184C229.108 182.869 229.362 180.428 230.632 178.363C231.013 177.8 230.188 177.299 229.87 177.862Z" fill="white"/>
<path d="M204.724 183.683C206.248 184.622 207.201 186.061 207.582 187.751C207.709 188.314 208.598 188.064 208.471 187.5C208.026 185.56 206.883 183.933 205.169 182.869C204.661 182.556 204.216 183.37 204.724 183.683Z" fill="white"/>
<path d="M238.316 193.696C239.523 195.135 240.92 196.387 242.507 197.326C243.015 197.639 243.523 196.825 243.015 196.512C241.491 195.573 240.094 194.384 239.015 193.007C238.57 192.569 237.935 193.258 238.316 193.696Z" fill="white"/>
<path d="M277.495 224.425C276.162 221.108 269.748 223.361 267.653 224.675C263.906 227.116 262.256 231.685 263.653 235.878C263.843 236.441 264.732 236.191 264.541 235.627C263.462 232.31 264.351 228.743 267.018 226.302C268.161 225.238 269.685 224.487 271.209 224.112C272.288 223.799 275.971 223.111 276.543 224.613C276.797 225.238 277.686 224.988 277.495 224.425Z" fill="white"/>
<path d="M264.416 235.94C259.463 233.875 254.192 233.687 249.049 235.252C248.477 235.439 248.731 236.316 249.303 236.128C254.319 234.563 259.336 234.814 264.162 236.816C264.733 237.067 264.987 236.128 264.416 235.94Z" fill="white"/>
<path d="M438.851 496.222C436.247 502.356 436.247 506.924 435.866 518.69C435.422 533.209 434.152 547.666 434.025 562.123C433.898 574.326 433.707 592.788 433.199 616.82C453.519 617.947 475.998 618.197 500.382 617.008C523.623 615.882 545.086 613.566 564.454 610.687C555.31 580.209 549.277 557.992 544.959 540.782C542.673 531.582 539.308 517.814 530.037 501.73C524.957 492.905 519.686 486.272 515.813 481.828C514.797 480.952 492.381 462.365 466.473 471.126C465.203 471.627 446.344 478.386 438.851 496.222Z" fill="#EC615B"/>
<path d="M476.251 532.709C480.506 540.157 484.76 547.604 488.951 555.052C489.523 556.116 491.174 555.177 490.602 554.113C486.348 546.666 482.093 539.218 477.902 531.771C477.331 530.707 475.68 531.646 476.251 532.709Z" fill="#C64F4F"/>
<path d="M475.744 532.333C485.523 544.349 491.174 558.055 494.222 573.075C497.08 587.282 498.921 601.676 500.001 616.132C500.064 617.321 501.969 617.321 501.906 616.132C500.763 601.3 498.858 586.468 495.937 571.886C492.889 556.803 486.92 543.035 477.141 531.019C476.379 530.018 474.982 531.395 475.744 532.333Z" fill="#C64F4F"/>
<path opacity="0.19" d="M491.047 469.688C493.269 474.068 496.444 480.514 500 488.275C510.351 510.93 521.082 534.837 526.797 564.251C529.147 576.142 531.369 593.352 530.417 614.818C535.751 614.568 541.402 614.13 547.308 613.504C553.213 612.878 558.865 612.127 564.199 611.251C562.548 605.744 559.881 596.982 556.896 586.155C548.578 555.865 547.435 546.415 540.323 526.451C535.052 511.618 530.163 501.542 523.114 491.905C516.764 483.206 510.795 477.761 503.239 473.943C498.54 471.565 494.158 470.376 491.047 469.688Z" fill="#3F3F3F"/>
<path opacity="0.11" d="M475.871 533.021C478.348 542.159 480.507 553.048 481.523 565.314C483.301 586.53 481.015 604.617 478.221 618.135C485.523 617.697 492.762 617.259 500.065 616.821C499.303 602.614 497.652 590.661 496.064 581.586C492.064 558.493 487.873 549.919 484.507 544.412C481.332 539.342 478.157 535.525 475.871 533.021Z" fill="#3F3F3F"/>
<path d="M394.527 389.58C392.431 390.957 391.161 393.586 388.685 398.78C386.653 403.036 385.7 406.353 384.176 411.297C379.985 425.316 380.43 422.937 378.969 428.257C377.064 435.329 373.635 447.72 371.73 464.055C369.889 479.888 370.27 492.092 370.333 495.033C371.032 513.621 374.334 527.452 376.556 536.338C380.493 552.297 385.764 565.565 396.241 592.038C398.527 597.733 400.432 602.426 401.766 605.681C400.813 605.806 399.289 605.994 397.448 606.244C387.859 607.37 386.526 607.12 382.652 607.934C377.699 608.998 373.254 610.062 371.54 613.754C370.778 615.444 370.46 617.822 371.413 618.635C372.619 619.637 374.969 617.384 379.033 616.07C382.462 615.006 385.51 615.068 387.605 615.381C385.954 618.573 385.002 621.452 384.43 623.517C383.033 628.273 381.954 632.153 383.732 634.907C384.621 636.284 386.335 637.536 387.732 637.16C388.494 636.972 389.193 636.284 391.098 631.34C392.939 626.396 393.066 624.831 394.59 622.891C395.924 621.264 397.448 620.388 398.464 619.887C397.956 621.452 397.384 623.767 397.13 626.584C397.003 628.273 396.813 629.838 397.13 631.841C397.384 633.655 397.956 637.536 400.877 639.663C401.385 640.039 403.48 641.604 404.75 640.79C405.83 640.164 405.512 638.412 405.957 632.779C406.338 628.023 406.719 626.709 407.036 625.958C407.862 623.767 409.132 622.203 410.084 621.264C409.767 625.77 409.83 629.525 409.957 632.279C410.211 636.722 410.656 638.725 412.116 639.976C412.942 640.665 414.339 641.353 415.482 640.853C416.625 640.352 417.006 638.787 417.323 636.847C418.72 629.525 417.895 627.397 419.482 623.705C420.117 622.265 420.816 620.513 422.53 619.261C426.15 616.633 431.293 618.197 431.992 618.385C435.04 619.324 436.183 620.951 437.707 620.263C438.977 619.699 439.675 617.885 439.739 616.383C439.802 612.69 435.675 609.874 432.119 607.558C430.341 606.369 427.674 604.805 424.118 603.553C421.006 597.482 417.069 588.658 413.831 577.456C411.672 569.946 410.656 564.188 409.703 558.743C406.338 539.655 407.544 532.333 403.798 513.37C402.909 508.802 402.02 505.172 401.512 503.107C401.766 499.978 402.21 495.096 402.845 489.151C404.941 469.75 406.338 457.609 410.592 443.34C413.958 432.137 417.387 422.937 417.387 422.937C421.705 411.485 423.102 409.92 422.594 406.228C420.816 394.587 402.337 384.449 394.527 389.58Z" fill="white"/>
<path d="M389.635 395.525C378.332 421.247 371.22 448.721 369.696 476.758C368.109 505.359 373.125 533.334 382.523 560.37C387.857 575.828 394.334 590.848 400.938 605.868C401.446 606.994 403.034 605.993 402.589 604.929C391.159 578.894 379.983 552.484 374.649 524.572C369.379 497.035 370.458 468.56 376.554 441.211C379.983 425.878 384.936 410.921 391.286 396.526C391.731 395.4 390.143 394.399 389.635 395.525Z" fill="#161616"/>
<path d="M413.32 431.262C405.319 455.106 401.128 480.077 400.684 505.173C400.684 506.362 402.589 506.362 402.589 505.173C403.033 480.202 407.224 455.482 415.162 431.763C415.543 430.636 413.701 430.135 413.32 431.262Z" fill="#161616"/>
<path d="M394.016 493.783C399.668 501.543 401.954 510.805 403.287 520.068C404.684 529.518 405.319 539.093 406.716 548.543C409.51 567.756 414.082 586.907 423.29 604.117C423.861 605.181 425.512 604.242 424.941 603.178C415.352 585.279 410.844 565.315 408.177 545.414C405.827 527.953 406.526 507.739 395.667 492.844C394.969 491.905 393.318 492.844 394.016 493.783Z" fill="#161616"/>
<path d="M400.683 604.992C394.778 605.305 388.872 605.868 383.094 606.932C378.966 607.745 374.585 609.06 371.727 612.314C370.076 614.254 367.981 618.885 371.6 620.2C373.188 620.763 374.585 619.699 375.918 618.948C379.22 617.07 382.649 615.13 386.586 616.194C387.793 616.507 388.301 614.692 387.094 614.379C383.856 613.503 380.935 614.254 378.014 615.694C377.125 616.132 376.299 616.57 375.474 617.07C374.966 617.321 374.521 617.634 374.013 617.947C373.442 616.945 372.807 615.944 372.235 614.942C372.362 613.378 375.537 611.563 376.68 610.937C379.792 609.31 383.411 608.747 386.84 608.246C391.476 607.558 396.111 607.12 400.747 606.869C401.953 606.807 401.953 604.929 400.683 604.992Z" fill="#161616"/>
<path d="M395.479 610.562C390.462 611.376 386.335 614.756 384.43 619.324C382.398 624.08 380.683 631.152 383.033 636.034C384.811 639.726 389.192 641.041 390.843 636.535C391.859 633.718 391.669 630.652 392.685 627.835C393.955 624.331 396.114 621.327 399.289 619.262C400.305 618.573 399.352 616.946 398.336 617.634C395.352 619.574 393.129 622.203 391.669 625.395C390.907 627.022 390.335 628.712 389.954 630.464C389.637 631.903 389.446 639.163 385.954 637.035C383.985 635.846 383.795 632.029 383.858 630.088C383.985 627.21 384.747 623.893 385.7 621.139C387.287 616.508 391.034 613.191 395.923 612.377C397.193 612.19 396.685 610.375 395.479 610.562Z" fill="#161616"/>
<path d="M401.446 615.194C397.509 617.697 396.112 623.142 395.731 627.523C395.35 632.216 396.683 637.286 400.239 640.602C402.335 642.543 405.573 643.544 406.145 639.914C407.097 633.844 404.621 625.27 411.352 621.64C412.431 621.077 411.479 619.449 410.399 620.013C407.986 621.327 406.462 623.455 405.51 626.021C404.176 629.776 404.938 633.593 404.367 637.473C404.113 639.226 403.605 641.103 401.636 639.288C400.938 638.662 400.303 637.849 399.795 637.035C398.588 635.158 397.89 633.03 397.699 630.84C397.255 626.459 398.398 619.449 402.462 616.821C403.414 616.132 402.462 614.505 401.446 615.194Z" fill="#161616"/>
<path d="M410.462 620.2C409.256 624.706 408.113 629.399 408.875 634.093C409.192 636.346 410.526 641.853 413.447 642.417C416.749 643.042 418.082 637.285 418.4 635.157C419.098 630.526 418.209 624.956 421.892 621.389C422.781 620.513 421.448 619.198 420.559 620.074C416.114 624.393 417.638 630.651 416.304 636.158C415.86 638.161 414.59 641.165 412.494 638.849C411.351 637.66 411.034 635.345 410.78 633.78C410.145 629.399 411.224 625.019 412.367 620.763C412.621 619.574 410.78 619.073 410.462 620.2Z" fill="#161616"/>
<path d="M424.178 605.18C427.924 606.682 431.798 608.309 434.719 611.188C436.052 612.502 437.703 614.505 438.084 616.383C439.037 621.577 435.1 618.26 433.639 617.634C429.639 615.882 421.701 617.134 419.415 621.139C418.844 622.203 420.495 623.142 421.066 622.078C422.273 619.887 425.575 619.324 427.861 619.011C429.258 618.823 430.845 618.698 432.179 619.074C433.703 619.512 434.655 620.826 436.116 621.264C438.211 621.89 439.799 620.451 440.116 618.448C440.688 615.194 437.83 611.564 435.608 609.436C432.496 606.494 428.496 604.867 424.559 603.303C423.543 602.927 423.098 604.742 424.178 605.18Z" fill="#161616"/>
<path opacity="0.13" d="M411.351 411.047C404.048 411.485 399.667 429.885 397.254 440.086C394.523 451.539 392.047 467.31 392.555 490.278C392.999 510.805 395.666 526.451 396.555 531.896C400.556 555.302 406.842 574.953 413.002 590.348C415.034 595.981 417.002 601.613 419.034 607.183C417.891 611.814 416.748 616.571 415.669 621.515C414.272 628.024 413.002 634.407 411.986 640.54C413.192 640.665 414.843 640.603 415.986 639.476C417.447 638.037 417.256 635.721 417.32 633.719C417.383 631.841 417.574 622.767 421.701 619.387C424.241 617.322 428.305 617.322 431.099 618.323C433.957 619.387 435.227 621.452 437.132 620.826C438.592 620.388 439.608 618.636 439.799 617.259C440.434 612.691 431.544 607.997 430.083 607.246C427.226 605.744 425.892 605.556 424.051 603.679C421.765 601.3 421.003 598.484 420.685 597.233C415.415 577.456 412.811 578.708 409.255 555.99C406.588 538.842 408.303 539.844 405.572 526.2C403.667 516.563 402.08 512.62 401.572 504.296C401 495.159 402.08 488.025 403.223 481.704C407.985 455.857 417.129 424.565 419.352 417.118C417.32 413.989 414.526 410.859 411.351 411.047Z" fill="#3F3F3F"/>
<path d="M540.957 153.768C538.988 153.705 537.464 157.21 537.083 158.149C536.512 159.525 535.623 162.216 536.258 166.034C536.258 166.034 536.639 168.663 537.909 184.559C538.226 188.126 538.29 193.32 537.337 199.829C534.797 206.713 532.384 212.095 530.733 215.6C525.145 227.366 521.399 232.059 513.588 246.954C510.667 252.524 510.413 253.4 506.984 260.285C498.412 277.37 492.125 288.072 485.712 299.524C480.06 309.538 472.123 324.245 462.788 343.145C462.344 344.772 460.121 353.471 465.265 361.106C470.726 369.18 482.156 372.809 493.205 369.305C494.919 366.927 497.332 363.234 499.555 358.415C501.714 353.721 502.73 350.092 503.428 347.776C504.127 345.46 506.921 337.638 512.572 321.867C514.35 316.985 516.509 311.165 520.891 299.775C527.558 282.314 530.86 273.615 533.083 268.17C538.099 255.779 541.909 247.205 549.402 230.557C553.339 221.796 558.165 211.219 563.753 199.203C566.992 197.388 571.437 194.572 576.199 190.504C583.057 184.684 586.486 179.74 593.09 170.352C597.345 164.219 600.583 158.837 599.694 153.455C599.567 152.704 599.25 150.513 598.043 150.2C596.519 149.762 594.614 152.766 592.519 155.395C590.36 158.086 587.121 161.591 582.295 165.22C583.946 160.714 585.597 157.21 586.74 154.894C589.344 149.637 591.503 146.258 592.836 140.437C594.297 134.242 592.963 133.115 592.582 132.802C590.868 131.551 587.947 133.929 586.232 132.552C584.708 131.238 586.042 128.359 584.835 127.67C583.629 126.982 580.962 129.047 579.057 131.238C575.755 134.993 574.993 138.623 573.786 142.127C572.643 145.569 570.548 150.263 566.611 155.457C565.658 155.583 564.388 155.645 563.817 154.894C563.182 154.018 564.071 152.579 564.896 150.263C565.087 149.7 564.96 150.013 566.293 144.255C566.801 142.065 567.754 137.997 568.516 134.742C569.595 130.049 570.103 128.109 569.087 126.043C568.897 125.605 568.071 123.915 566.865 123.853C565.468 123.79 564.388 125.981 563.563 127.67C560.197 134.492 558.483 137.934 558.038 139.123C555.816 145.069 552.831 154.143 552.387 157.272C552.323 157.648 552.196 158.962 551.561 160.652C551.244 161.465 551.053 161.778 550.863 162.279C549.275 165.784 550.609 168.099 548.958 169.351C548.767 169.476 547.815 170.165 547.053 169.914C546.227 169.664 545.846 168.6 545.402 165.033C544.767 160.151 545.148 158.712 544.005 156.584C543.243 155.645 542.29 153.83 540.957 153.768Z" fill="white"/>
<path d="M537.91 182.743C538.355 178.175 537.656 173.731 537.402 169.163C537.275 166.972 537.275 164.719 537.593 162.529C537.783 161.277 538.037 160.026 538.418 158.837C539.053 157.022 539.117 155.52 541.149 155.457C543.054 155.394 542.927 156.521 543.244 158.086C543.562 159.462 543.625 160.902 543.689 162.279C543.816 164.219 543.879 166.221 544.324 168.099C544.768 170.039 545.975 171.666 548.197 170.978C549.34 170.602 548.896 168.787 547.689 169.163C545.467 169.789 545.657 162.404 545.53 161.152C545.34 159.149 545.149 157.084 544.387 155.207C543.308 152.578 540.831 151.264 538.736 153.705C536.005 156.834 535.434 162.466 535.434 166.347C535.434 171.854 536.513 177.236 536.005 182.743C535.942 183.932 537.847 183.932 537.91 182.743Z" fill="#161616"/>
<path d="M548.957 170.227C552.132 164.156 553.084 157.272 554.926 150.763C556.894 143.754 559.371 136.87 563.054 130.611C563.879 129.235 564.705 127.294 565.911 126.231C568.261 124.103 568.261 128.171 568.07 129.923C567.689 133.803 566.673 137.746 565.784 141.563C564.959 145.068 563.816 148.448 562.99 151.952C562.546 153.892 562.546 155.582 563.943 157.084C564.768 157.96 566.102 156.646 565.276 155.77C563.689 154.08 565.34 150.701 565.848 148.886C566.419 146.82 566.991 144.755 567.435 142.69C568.324 138.872 569.213 134.992 569.785 131.049C570.102 128.984 570.547 125.354 568.705 123.79C567.118 122.476 565.53 123.727 564.451 124.979C559.815 130.674 556.958 138.184 554.672 145.068C552.068 153.016 551.243 161.903 547.306 169.35C546.734 170.352 548.385 171.291 548.957 170.227Z" fill="#161616"/>
<path d="M564.389 157.271C566.294 157.459 566.993 156.082 567.882 154.58C569.279 152.202 570.549 149.699 571.755 147.258C574.105 142.501 575.756 137.307 578.613 132.864C579.248 131.862 580.01 130.611 581.026 129.86C581.852 128.921 582.931 128.608 584.328 129.046C584.519 129.922 584.646 130.798 584.646 131.675C584.709 134.741 583.693 137.808 582.614 140.687C580.455 146.382 578.042 152.014 575.692 157.709C575.248 158.836 577.089 159.336 577.534 158.21C578.867 154.956 592.583 126.418 583.63 126.23C581.852 126.167 579.82 128.358 578.804 129.547C577.026 131.612 575.756 133.99 574.613 136.431C573.279 139.372 572.073 142.314 570.676 145.193C569.85 146.945 568.898 148.76 568.009 150.45C567.437 151.576 566.04 155.456 564.453 155.331C563.183 155.268 563.183 157.146 564.389 157.271Z" fill="#161616"/>
<path d="M586.869 134.242C587.567 130.612 591.568 133.115 592.076 135.431C592.52 137.371 591.758 139.311 591.123 141.126C590.171 143.88 589.091 146.571 587.948 149.199C585.726 154.331 583.122 159.212 580.201 164.031C579.566 165.095 581.217 166.034 581.852 164.97C584.583 160.527 586.996 155.896 589.155 151.202C590.996 147.134 593.219 142.628 593.917 138.184C594.362 135.368 593.536 131.738 590.361 130.737C588.012 129.986 585.472 131.425 585.027 133.804C584.837 134.93 586.678 135.431 586.869 134.242Z" fill="#161616"/>
<path d="M583.185 165.721C585.598 163.03 587.947 160.339 590.36 157.648C591.63 156.209 592.773 154.644 594.17 153.392C594.615 153.017 595.059 152.704 595.44 152.329C596.52 152.704 597.599 153.08 598.742 153.455C599.06 154.018 598.298 155.645 598.107 156.146C596.139 162.092 593.281 167.724 589.916 172.981C583.121 183.558 573.787 192.444 562.865 198.891C561.785 199.516 562.801 201.144 563.817 200.518C577.406 192.507 588.582 180.741 595.631 166.785C597.345 163.406 598.996 159.839 600.076 156.209C600.711 154.081 601.092 151.202 598.615 150.076C596.202 148.949 593.662 151.139 592.138 152.704C588.519 156.396 585.217 160.527 581.788 164.407C581.026 165.283 582.359 166.598 583.185 165.721Z" fill="#161616"/>
<path d="M536.258 180.804C536.703 186.562 537.147 192.444 536.195 198.202C535.242 203.897 532.829 209.154 530.162 214.286C524.765 224.675 519.113 234.939 513.589 245.265C502.54 265.917 491.491 286.507 480.442 307.16C474.092 318.988 467.742 330.879 461.392 342.707C460.82 343.771 462.471 344.71 463.043 343.646C485.839 301.026 509.08 258.595 531.496 215.725C534.163 210.656 536.639 205.462 537.719 199.892C538.989 193.571 538.544 187.187 538.036 180.804C538.1 179.615 536.195 179.615 536.258 180.804Z" fill="#161616"/>
<path d="M562.738 198.452C542.418 240.759 524.702 284.066 509.081 328.25C504.509 341.08 499.937 353.909 494.412 366.363C493.904 367.49 495.555 368.429 496.063 367.302C505.525 346.086 512.446 323.869 520.574 302.216C528.893 279.936 537.91 257.844 547.498 236.065C552.959 223.736 558.547 211.532 564.389 199.391C564.897 198.327 563.246 197.388 562.738 198.452Z" fill="#161616"/>
<path opacity="0.1" d="M591.44 133.49C588.836 133.115 585.344 143.629 583.312 148.886C577.152 165.032 571.945 166.91 558.737 188.814C553.848 196.887 547.117 209.028 540.322 224.862C520.002 267.043 499.746 309.287 479.426 351.468C484.379 357.413 489.268 363.421 494.221 369.367C496.698 362.42 500.317 352.219 504.826 339.89C513.017 317.673 523.622 289.072 538.608 254.276C544.577 240.508 552.832 221.921 563.436 200.079C566.357 198.264 570.421 195.448 574.866 191.568C580.835 186.436 588.709 179.489 594.107 168.161C595.821 164.657 597.98 159.275 599.123 152.203C598.298 151.827 597.091 151.389 595.758 151.639C593.472 152.078 592.265 154.268 591.313 155.77C587.63 161.34 582.232 165.032 581.534 164.594C581.153 164.281 582.232 162.466 585.153 156.584C591.122 144.505 588.646 147.697 590.995 143.629C592.329 141.313 593.662 139.311 593.218 136.745C593.218 135.618 592.519 133.678 591.44 133.49Z" fill="#3F3F3F"/>
<path opacity="0.13" d="M587.566 176.172C584.391 178.175 579.882 181.116 574.739 184.996C568.833 189.377 562.483 194.133 557.149 200.141C549.91 208.277 546.735 216.35 544.83 221.044C527.368 264.978 506.603 312.666 500.698 325.934C497.459 333.193 492.379 344.146 485.648 357.288C488.696 361.231 491.808 365.174 494.856 369.116C503.619 342.769 513.715 315.169 525.272 286.569C537.718 255.84 550.609 227.115 563.563 200.392C567.055 198.076 570.992 195.135 574.993 191.317C580.644 185.997 584.708 180.615 587.566 176.172Z" fill="#3F3F3F"/>
<path d="M418.718 357.351C416.368 358.916 411.098 362.545 405.7 368.428C400.112 374.499 396.874 380.194 394.207 385.013C392.111 388.705 390.587 391.96 389.508 394.338C391.159 397.467 393.826 402.286 397.509 408.044C404.049 418.245 409.129 423.752 417.892 434.829C421.575 439.46 426.909 446.407 433.259 455.169C434.275 459.863 435.164 464.807 435.926 470.001C437.45 480.64 438.022 490.528 438.022 499.415C440.371 501.919 444.435 505.548 450.404 508.114C460.31 512.433 469.327 511.181 474.026 510.43C484.44 508.865 491.552 504.297 496.442 501.105C505.332 495.347 511.364 488.463 515.365 482.768C514.539 473.005 513.46 462.929 512.126 452.478C510.983 443.591 509.713 434.954 508.316 426.568C508.189 419.997 507.554 411.048 505.395 400.659C503.617 391.96 501.458 381.821 495.045 369.805C487.044 354.848 477.074 345.773 473.201 342.456C469.772 339.515 466.66 337.324 464.374 335.76C455.103 341.58 447.102 345.21 441.641 347.4C431.481 351.531 426.719 352.157 418.718 357.351Z" fill="white"/>
<path d="M390.526 394.587C392.494 387.202 397.955 380.318 402.654 374.31C407.607 368.051 413.195 362.356 419.863 357.788C420.879 357.099 419.926 355.472 418.91 356.16C412.052 360.854 406.274 366.674 401.194 373.121C396.304 379.316 390.78 386.326 388.748 394.023C388.43 395.275 390.272 395.713 390.526 394.587Z" fill="#161616"/>
<path d="M389.127 395.213C402.208 417.743 417.702 438.897 435.292 458.235C436.117 459.111 437.451 457.797 436.625 456.921C419.163 437.707 403.796 416.679 390.778 394.275C390.143 393.211 388.492 394.149 389.127 395.213Z" fill="#161616"/>
<path d="M442.848 348.276C449.96 343.332 457.77 339.639 466.089 337.261C467.295 336.948 466.787 335.133 465.581 335.446C457.072 337.887 449.134 341.642 441.895 346.649C440.879 347.337 441.832 348.964 442.848 348.276Z" fill="#161616"/>
<path d="M464.504 337.762C494.857 358.603 507.874 395.151 506.414 430.511C506.35 431.7 508.255 431.7 508.319 430.511C509.843 394.4 496.381 357.351 465.456 336.135C464.504 335.447 463.551 337.074 464.504 337.762Z" fill="#161616"/>
<path d="M431.165 454.542C434.467 461.238 434.848 469.562 435.547 476.821C436.309 484.206 436.563 491.654 436.563 499.101C436.563 500.29 438.468 500.29 438.468 499.101C438.531 490.84 438.15 482.579 437.198 474.381C436.436 467.434 435.928 459.924 432.816 453.54C432.245 452.476 430.657 453.415 431.165 454.542Z" fill="#161616"/>
<path d="M437.771 499.478C447.296 510.993 463.552 514.248 477.713 510.681C485.587 508.678 492.889 504.86 499.43 500.104C505.97 495.348 512.193 489.84 515.876 482.581C516.448 481.517 514.797 480.578 514.225 481.642C510.669 488.589 504.7 493.908 498.414 498.477C492.318 502.92 485.523 506.55 478.157 508.615C464.314 512.433 448.376 509.491 439.041 498.164C438.343 497.225 437.009 498.539 437.771 499.478Z" fill="#161616"/>
<path d="M507.111 427.694C510.223 446.031 513.271 464.368 514.35 482.893C514.414 484.082 516.319 484.082 516.255 482.893C515.112 464.18 512.064 445.656 508.953 427.194C508.762 426.004 506.921 426.505 507.111 427.694Z" fill="#161616"/>
<path opacity="0.13" d="M445.262 345.773C452.31 353.971 461.962 366.738 470.027 384.011C481.838 409.295 484.187 431.136 485.965 449.724C487.362 463.867 488.124 483.581 485.33 507.112C490.728 504.797 498.348 500.792 505.714 493.845C509.778 489.965 512.826 486.084 515.112 482.705C513.016 465.244 510.921 447.721 508.825 430.26C509.206 415.866 506.92 404.225 504.761 396.34C498.094 371.932 485.267 356.224 480.949 351.28C475.043 344.458 469.265 339.452 465.01 336.135C458.406 339.389 451.866 342.581 445.262 345.773Z" fill="#3F3F3F"/>
<path opacity="0.14" d="M492.569 367.676C491.426 367.989 494.093 378.19 496.633 393.273C496.633 393.273 500.507 416.178 501.332 438.333C501.904 452.977 501.142 474.381 494.474 500.978C497.522 499.476 501.269 497.286 505.142 494.219C509.841 490.464 513.207 486.522 515.493 483.393C514.667 458.171 512.508 445.092 510.476 437.707C510.095 436.267 509.079 432.888 508.254 428.131C506.73 419.245 507.492 415.427 506.666 408.042C506.031 402.159 504.825 398.279 502.602 391.082C499.237 380.255 493.839 367.3 492.569 367.676Z" fill="#3F3F3F"/>
<path d="M417.833 254.4C413.642 256.716 408.308 260.221 403.164 265.54C392.496 276.743 389.067 289.259 387.861 295.455C386.908 295.33 384.305 295.142 382.209 296.769C379.098 299.148 379.034 303.841 380.241 306.595C380.685 307.596 381.32 308.41 382.654 310.037C384.241 311.977 385.257 313.166 386.908 313.855C387.607 314.168 389.194 314.606 391.48 314.105C392.179 316.17 393.321 319.049 395.036 322.366C397.258 326.622 400.624 332.943 407.355 338.45C409.324 340.077 412.372 342.205 416.499 344.145C418.023 346.085 420.817 350.153 421.135 355.66C421.77 365.361 414.594 373.434 407.8 377.001C395.989 383.197 383.162 377.001 378.463 374.686C375.923 373.434 363.159 366.925 357.825 352.656C351.348 335.446 359.794 318.235 364.81 307.972C369.89 297.646 372.24 298.334 376.113 288.258C381.257 274.928 378.526 270.234 384.432 260.033C386.718 256.028 391.353 248.017 401.068 244.262C409.387 241.07 417.071 242.697 420.373 243.636C423.103 242.009 427.929 239.693 434.025 239.693C448.503 239.693 457.774 253.211 459.997 256.466C466.601 266.041 463.108 268.982 469.013 282.438C476.443 299.398 483.682 298.397 490.35 314.293C493.588 322.053 498.986 334.883 493.017 347.149C486.857 359.791 472.824 363.483 471.046 363.921C467.807 364.735 459.108 366.863 450.408 362.294C449.583 361.856 438.661 355.973 437.772 345.897C437.454 342.205 438.534 338.763 438.788 338.012C440.121 333.944 442.407 331.315 443.106 330.439C445.836 327.122 449.138 320.989 451.424 308.785C452.504 308.723 454.282 308.472 456.06 307.471C459.806 305.343 461.584 301.025 461.393 297.27C461.33 296.394 461.076 291.387 457.393 289.697C455.869 289.009 454.282 289.197 453.393 289.385C441.582 277.619 429.707 266.041 417.833 254.4Z" fill="#161616"/>
<path d="M417.832 254.338C410.784 258.406 405.894 262.912 402.783 266.229C392.432 277.306 389.13 288.884 388.432 291.575C387.987 293.265 387.67 294.642 387.543 295.643C386.844 295.393 385.257 294.954 383.669 295.643C381.256 296.707 380.748 299.586 380.494 301.025C379.859 304.342 381.129 306.97 381.637 307.972C382.336 309.411 383.479 311.727 386.209 312.916C388.432 313.917 390.527 313.542 391.416 313.354C392.305 315.607 393.575 318.736 395.544 322.303C398.528 327.936 401.322 333.13 406.72 337.761C408.815 339.576 412.244 342.08 417.197 344.02C418.213 345.584 419.61 348.025 420.372 351.217C421.007 353.72 421.134 355.848 421.071 357.475C422.722 358.289 425.833 359.54 429.707 359.478C437.136 359.353 442.026 354.784 443.169 353.658C441.962 350.09 440.883 345.71 440.438 340.64C440.248 338.325 440.184 336.134 440.184 334.132C442.153 332.066 444.566 329.125 446.534 325.182C450.027 318.361 450.598 312.04 450.662 308.347C451.551 308.472 453.329 308.66 455.234 307.909C457.901 306.845 459.107 304.53 459.806 303.215C459.996 302.903 462.663 297.52 460.25 292.201C459.679 291.012 458.726 288.821 456.821 288.634C455.424 288.508 454.281 289.572 453.837 290.01C451.233 286.944 446.344 281.249 439.486 273.426C433.58 266.604 429.834 262.349 423.547 257.968C421.261 256.341 419.229 255.151 417.832 254.338Z" fill="white"/>
<path d="M409.068 320.739C408.433 322.178 411.417 324.744 412.814 325.808C415.735 327.936 418.847 328.249 419.99 328.311C421.323 328.437 425.705 328.749 429.705 325.933C430.658 325.245 433.325 323.43 434.341 320.05C435.039 317.61 434.849 314.23 433.515 313.667C432.499 313.291 431.547 314.543 429.388 316.045C425.578 318.611 421.641 319.237 418.275 319.737C412.56 320.614 409.703 319.487 409.068 320.739Z" fill="#202020"/>
<path d="M388.939 306.282C391.225 315.669 394.908 324.869 401.004 332.504C406.402 339.326 414.403 345.897 423.737 345.021C432.373 344.207 439.422 337.573 443.994 330.814C449.391 322.929 451.995 313.479 451.741 303.966C451.677 302.777 449.772 302.777 449.836 303.966C450.09 312.665 447.804 321.176 443.168 328.561C438.787 335.508 431.548 342.83 422.721 343.206C413.387 343.581 405.703 336.071 400.75 329.062C395.797 322.053 392.749 313.979 390.717 305.718C390.463 304.592 388.622 305.093 388.939 306.282Z" fill="#161616"/>
<path d="M415.928 344.145C418.595 348.15 419.928 352.531 419.928 357.35C419.928 358.539 421.833 358.539 421.833 357.35C421.833 352.281 420.373 347.462 417.579 343.206C416.944 342.142 415.293 343.081 415.928 344.145Z" fill="#161616"/>
<path d="M420.815 358.102C428.562 362.482 438.595 360.355 443.865 353.345C444.627 352.406 442.976 351.468 442.214 352.406C437.515 358.602 428.498 360.355 421.767 356.474C420.688 355.911 419.735 357.538 420.815 358.102Z" fill="#161616"/>
<path d="M439.105 335.759C439.169 341.454 440.058 347.087 441.899 352.531C442.28 353.658 444.122 353.157 443.741 352.031C442.026 346.711 441.074 341.329 441.01 335.759C441.01 334.507 439.105 334.507 439.105 335.759Z" fill="#161616"/>
<path d="M390.842 312.227C390.017 313.103 387.985 312.79 387.032 312.29C386.27 311.914 385.572 311.351 385 310.788C383.73 309.599 382.714 308.159 382.079 306.595C380.809 303.653 380.238 295.204 385.889 296.706C387.096 297.019 387.604 295.204 386.397 294.892C379.412 293.077 378.333 302.214 380.111 306.782C381.508 310.475 387.921 318.11 392.239 313.541C393.001 312.665 391.668 311.351 390.842 312.227Z" fill="#161616"/>
<path d="M454.66 290.323C455.422 287.819 458.724 292.638 459.105 293.514C459.867 295.517 460.121 297.708 459.804 299.835C459.296 304.091 455.867 308.159 451.104 306.97C449.898 306.657 449.39 308.472 450.596 308.785C458.28 310.725 462.407 302.839 461.709 296.393C461.391 293.577 460.248 289.947 457.518 288.445C455.74 287.506 453.454 287.757 452.819 289.759C452.438 291.011 454.279 291.449 454.66 290.323Z" fill="#161616"/>
<path d="M397.637 277.055C399.732 273.112 403.415 270.546 407.86 269.92C409.067 269.733 408.559 267.918 407.352 268.105C402.463 268.794 398.272 271.798 395.986 276.116C395.414 277.18 397.065 278.119 397.637 277.055Z" fill="#161616"/>
<path d="M426.975 267.417C432.309 266.165 437.643 268.794 440.056 273.55C440.628 274.614 442.215 273.675 441.707 272.611C438.913 267.042 432.563 264.163 426.467 265.602C425.261 265.915 425.769 267.73 426.975 267.417Z" fill="#161616"/>
<path d="M413.131 275.115C414.337 281.748 414.655 288.57 413.957 295.329C413.703 297.394 412.687 300.336 413.639 302.401C414.655 304.654 417.386 306.594 419.1 308.346C419.926 309.222 421.322 307.908 420.433 307.032C419.29 305.843 418.148 304.716 417.005 303.527C415.227 301.712 415.036 301.149 415.417 298.521C415.735 296.143 416.052 293.702 416.179 291.261C416.433 285.691 415.989 280.121 414.973 274.676C414.782 273.425 412.94 273.925 413.131 275.115Z" fill="#161616"/>
<path d="M405.131 291.199C404.178 289.697 403.734 288.07 403.861 286.317C403.861 285.942 404.115 284.315 404.432 284.252C404.623 284.252 404.94 286.442 405.004 286.693C405.131 287.506 405.194 288.383 405.194 289.196C405.194 289.446 405.131 291.512 405.131 290.26C405.067 288.445 405.194 286.63 405.258 284.815C404.623 284.878 403.988 285.003 403.416 285.066C403.734 287.006 403.924 288.946 403.924 290.948C404.559 290.948 405.194 290.948 405.829 290.948C405.829 290.698 405.829 290.448 405.829 290.197C405.829 289.008 403.924 289.008 403.924 290.197C403.924 290.448 403.924 290.698 403.924 290.948C403.924 292.138 405.829 292.138 405.829 290.948C405.829 288.821 405.639 286.693 405.258 284.565C405.067 283.501 403.416 283.814 403.416 284.815C403.353 286.818 403.099 289.008 403.353 291.011C403.48 291.95 403.924 292.826 405.004 293.014C408.179 293.64 407.226 287.506 406.972 286.004C406.782 284.815 406.591 283 405.448 282.312C404.496 281.749 403.48 282.312 402.908 283.188C401.321 285.817 402.21 289.697 403.67 292.075C404.115 293.139 405.766 292.2 405.131 291.199Z" fill="#161616"/>
<path d="M434.466 287.882C433.514 286.38 433.069 284.753 433.196 283.001C433.196 282.625 433.45 280.998 433.768 280.936C433.958 280.936 434.276 283.126 434.339 283.376C434.466 284.19 434.53 285.066 434.53 285.88C434.53 286.13 434.466 288.195 434.466 286.944C434.403 285.129 434.53 283.314 434.593 281.499C433.958 281.561 433.323 281.687 432.752 281.749C433.069 283.689 433.26 285.629 433.26 287.632C433.895 287.632 434.53 287.632 435.165 287.632C435.165 287.382 435.165 287.131 435.165 286.881C435.165 285.692 433.26 285.692 433.26 286.881C433.26 287.131 433.26 287.382 433.26 287.632C433.26 288.821 435.165 288.821 435.165 287.632C435.165 285.504 434.974 283.376 434.593 281.249C434.403 280.185 432.752 280.498 432.752 281.499C432.688 283.502 432.434 285.692 432.688 287.695C432.815 288.633 433.26 289.51 434.339 289.697C437.514 290.323 436.562 284.19 436.308 282.688C436.117 281.499 435.927 279.684 434.784 278.996C433.831 278.432 432.815 278.996 432.244 279.872C430.656 282.5 431.545 286.38 433.006 288.759C433.45 289.885 435.101 288.946 434.466 287.882Z" fill="#161616"/>
<path d="M395.733 296.958C396.939 296.958 396.939 295.08 395.733 295.08C394.526 295.08 394.526 296.958 395.733 296.958Z" fill="#161616"/>
<path d="M403.226 298.335C403.289 298.335 403.353 298.335 403.48 298.335C403.988 298.335 404.432 297.896 404.432 297.396C404.432 296.895 403.988 296.457 403.48 296.457C403.416 296.457 403.353 296.457 403.226 296.457C402.718 296.457 402.273 296.895 402.273 297.396C402.273 297.896 402.654 298.335 403.226 298.335Z" fill="#161616"/>
<path d="M398.78 304.092C399.987 304.092 399.987 302.215 398.78 302.215C397.574 302.215 397.51 304.092 398.78 304.092Z" fill="#161616"/>
<path d="M434.851 296.018C434.914 296.018 434.978 296.018 435.105 296.018C435.613 296.018 436.057 295.58 436.057 295.079C436.057 294.579 435.613 294.141 435.105 294.141C435.041 294.141 434.978 294.141 434.851 294.141C434.343 294.141 433.898 294.579 433.898 295.079C433.898 295.58 434.279 296.018 434.851 296.018Z" fill="#161616"/>
<path d="M441.835 291.387C443.041 291.387 443.041 289.51 441.835 289.51C440.628 289.51 440.628 291.387 441.835 291.387Z" fill="#161616"/>
<path d="M440.882 296.456C440.946 296.456 441.009 296.456 441.136 296.456C441.644 296.456 442.089 296.018 442.089 295.517C442.089 295.016 441.644 294.578 441.136 294.578C441.073 294.578 441.009 294.578 440.882 294.578C440.374 294.578 439.93 295.016 439.93 295.517C439.993 296.018 440.374 296.456 440.882 296.456Z" fill="#161616"/>
<path d="M410.655 322.178C409.639 320.738 407.988 318.673 408.686 316.796C409.512 314.668 412.115 314.981 413.83 315.231C415.925 315.544 417.64 315.919 419.672 315.294C421.323 314.793 422.783 313.729 424.307 312.915C427.927 310.913 432.181 310.725 433.324 315.419C436.563 328.248 413.576 331.878 410.02 320.613C409.639 319.487 407.797 319.925 408.178 321.114C412.56 334.945 439.738 329.813 434.975 314.48C434.15 311.914 432.181 309.724 429.387 309.411C424.815 308.973 421.831 313.479 417.449 313.792C414.211 314.042 410.274 311.601 407.67 314.605C405.321 317.296 407.226 320.738 408.94 323.117C409.702 324.118 411.353 323.179 410.655 322.178Z" fill="#161616"/>
<path d="M406.971 318.611C408.368 322.428 415.353 321.239 418.401 320.801C424.243 319.925 429.577 317.422 434.085 313.729C435.038 312.978 433.704 311.601 432.752 312.415C429.45 315.169 425.64 317.171 421.449 318.298C419.607 318.799 409.892 320.926 408.876 318.173C408.368 316.984 406.526 317.484 406.971 318.611Z" fill="#161616"/>
<path d="M418.276 346.086C425.705 347.963 435.611 343.332 439.802 337.261C440.501 336.26 438.85 335.321 438.151 336.323C434.468 341.642 425.261 345.898 418.784 344.271C417.577 343.958 417.069 345.773 418.276 346.086Z" fill="#161616"/>
<path d="M418.975 346.648C425.579 350.716 436.437 344.958 439.612 338.762C440.184 337.698 438.533 336.76 437.961 337.823C435.294 343.08 425.579 348.525 419.927 345.083C418.848 344.395 417.895 346.022 418.975 346.648Z" fill="#161616"/>
<path opacity="0.2" d="M445.326 280.311C445.77 282.564 446.342 286.131 446.723 290.449C447.612 301.964 449.136 321.24 437.325 334.07C434.785 336.823 429.387 341.705 419.418 344.458C422.593 344.333 426.466 343.958 430.657 342.894C432.753 342.393 434.658 341.767 436.372 341.079C436.626 346.649 436.817 352.219 437.071 357.789C439.23 356.412 441.325 355.098 443.484 353.721C440.563 347.337 440.563 342.393 440.944 339.264C441.516 334.883 443.167 331.316 444.818 327.749C446.278 324.62 447.802 322.116 449.009 320.364C449.136 321.678 449.453 323.055 450.342 324.369C454.216 330.064 466.344 330.628 473.964 325.746C481.013 321.24 484.442 312.103 482.664 302.715C483.87 303.717 485.14 304.906 486.347 306.345C487.299 307.472 489.776 310.726 493.205 322.179C494.284 325.746 494.792 327.561 495.11 329.376C495.491 331.879 496.189 336.636 494.856 342.018C492.57 351.28 485.775 356.6 483.743 358.102C482.283 359.166 477.838 362.357 471.17 363.859C467.995 364.548 458.47 366.801 449.517 361.669C446.151 359.729 444.31 358.289 443.294 356.537C442.214 354.597 442.087 352.782 441.96 351.405C441.389 342.831 441.135 338.513 441.706 335.572C443.421 327.06 447.294 326.184 449.453 316.484C450.215 312.979 450.406 310.038 450.469 308.16C451.295 308.285 452.565 308.41 454.089 308.035C457.264 307.221 458.851 304.655 459.423 303.717C461.709 300.149 462.725 293.766 459.169 290.825C458.661 290.386 456.883 289.072 453.454 289.323C450.85 286.319 448.12 283.315 445.326 280.311Z" fill="#3F3F3F"/>
<path opacity="0.13" d="M415.227 300.588C418.465 301.527 421.767 302.528 425.006 303.467C424.18 304.218 423.355 304.906 422.466 305.657C421.64 306.346 420.878 306.909 420.053 307.535C419.037 306.784 417.576 305.469 416.433 303.467C415.798 302.403 415.417 301.401 415.227 300.588Z" fill="#3F3F3F"/>
<path opacity="0.16" d="M364.301 308.409C357.379 332.504 362.523 351.967 372.873 356.223C381.001 359.54 395.67 354.846 398.4 346.648C398.781 345.584 399.162 343.706 397.702 337.949C396.432 332.879 393.828 325.244 387.986 316.545C386.97 315.919 385.637 314.918 384.367 313.416C382.144 310.725 381.509 307.846 381.319 306.469C383.16 308.347 385.827 310.725 387.542 309.974C389.193 309.223 390.209 306.97 389.637 304.717C390.209 307.596 391.098 311.538 392.749 316.107C394.908 322.178 397.067 328.06 402.083 333.63C404.369 336.196 408.878 340.389 416.498 343.393C417.768 344.958 420.117 348.337 420.879 353.281C421.006 354.032 421.451 357.475 420.308 361.793C420.054 362.794 418.53 368.239 413.513 372.933C407.671 378.44 400.686 379.441 398.4 379.754C381.192 382.007 367.857 367.175 365.507 364.609C363.158 361.981 359.284 357.6 357.062 350.841C353.506 340.076 356.236 330.376 358.205 323.304C360.046 316.67 362.523 311.664 364.301 308.409Z" fill="#3F3F3F"/>
</svg>
