<svg width="549" height="536" viewBox="0 0 549 536" fill="none" xmlns="http://www.w3.org/2000/svg">
<path d="M263.013 433.046C254.319 432.023 244.973 430.601 235.575 429.991C232.291 429.778 229.154 430.703 227.41 426.992C227.051 426.228 226.478 425.112 226.768 424.564C231.693 415.292 232.142 404.78 235.115 394.983C237.107 388.42 240.189 382.348 246.089 378.341C247.266 377.542 249.063 377.657 250.575 377.351C250.827 378.848 251.559 380.453 251.253 381.826C249.025 391.807 246.682 401.765 244.159 411.675C243.367 414.784 244.558 415.39 247.293 415.847C253.601 416.901 259.825 418.456 266.123 419.588C268.814 420.071 271.603 420.009 274.351 420.165C274.58 420.178 274.856 419.827 275.054 419.875C277.102 420.368 280.761 420.684 280.87 421.475C281.155 423.945 280.645 426.441 279.414 428.601C275.684 434.838 269.283 432.676 263.013 433.046Z" fill="#202020"/>
<g clip-path="url(#clip0_1872_7389)">
<path d="M242.517 416.821L243.961 414.878C242.555 414.223 242.001 416.213 240.172 415.399C250.962 403.069 259.015 389.124 266.668 374.93C274.366 360.65 282.012 346.342 285.978 330.54C285.076 329.641 284.418 330.283 283.825 330.535C276.241 333.742 268.325 334.504 260.237 333.564C251.343 332.551 242.522 330.974 233.829 328.843C222.574 326.059 218.012 320.562 216.794 309.045C215.147 293.475 223.645 279.245 238.109 273.044C251.234 267.417 264.07 267.899 276.471 274.882C282.699 278.388 286.803 284.104 290.196 290.251C293.26 295.813 295.676 301.708 297.398 307.82C298.357 311.208 298.381 311.298 301.09 308.8C308.1 302.424 313.832 294.773 317.982 286.257C322.682 276.519 324.966 266.116 326.367 255.447C328.658 238.002 325.969 220.885 323.251 203.766C321.182 190.729 318.8 177.725 315.433 164.973C311.666 150.705 306.305 136.96 299.942 123.624C296.732 116.898 292.982 110.453 289.684 103.766C288.197 100.749 285.501 98.2474 283.842 95.1554C283.496 94.5102 282.802 93.9423 283.356 93.2584C283.949 92.5274 284.655 93.1452 285.288 93.4594C286.103 93.8664 287.175 93.9072 287.598 94.8845C289.997 100.431 295.124 103.995 297.954 109.257C300.901 114.734 304.225 120.006 307.217 125.459C310.214 130.928 312.639 136.676 315.008 142.443C321.219 157.56 325.602 173.18 328.738 189.227C330.924 200.41 333.103 211.6 334.416 222.897C335.607 233.136 336.436 243.377 335.272 253.832C334.364 261.996 333.122 270.016 330.949 277.869C329.254 283.99 327.094 289.941 323.484 295.401C320.967 299.205 318.595 303.069 315.669 306.594C311.938 311.087 308.199 315.695 303.284 318.801C299.229 321.364 298.229 325.118 297.964 329.046C297.48 334.888 296.171 340.633 294.077 346.11C288.247 362.134 280.166 377.097 271.22 391.59C266.992 398.44 262.12 404.833 256.077 410.162C252.335 413.464 248.131 416.27 242.517 416.821ZM285.108 303.06C283.669 298.177 281.717 293.46 279.285 288.988C274.764 280.725 268.677 274.955 258.447 275.406C246.385 275.939 230.484 284.075 227.778 300.354C226.75 306.54 227.211 312.285 229.534 317.991C229.977 319.221 230.733 320.314 231.729 321.161C232.724 322.008 233.924 322.581 235.21 322.823C240.695 323.977 246.247 324.896 251.651 326.344C264.089 329.674 275.247 326.596 285.899 320.188C287.472 319.241 287.981 318.153 287.91 316.418C287.642 311.851 286.697 307.349 285.108 303.06ZM277.911 360.693L278.429 360.954L271.691 372.51L271.654 372.479L277.911 360.693Z" fill="#202020"/>
</g>
<defs>
<clipPath id="clip0_1872_7389">
<rect width="443" height="332" fill="white" transform="translate(8.88281 160.83) rotate(-17.4018)"/>
</clipPath>
</defs>
</svg>
