<svg width="1918" height="862" viewBox="0 0 1918 862" fill="none" xmlns="http://www.w3.org/2000/svg">
<path d="M334.793 783.633C333.039 783.673 331.31 783.263 329.548 783.408C329.27 783.431 328.773 783.345 328.72 783.203C328.196 781.788 326.445 781.958 325.463 781.043C324.593 780.232 324.514 779.591 324.934 778.773C326.554 775.604 327.979 772.363 329.301 769.083C329.649 768.219 329.991 767.349 330.246 766.46C330.49 765.608 331.289 765.336 331.986 765.1C332.742 764.845 332.831 765.684 333.232 766.043C335.117 767.725 335.172 770.004 335.724 772.125C336.435 774.861 337.075 777.613 337.881 780.325C338.552 782.582 337.764 783.995 334.793 783.633Z" fill="#EDEAEA"/>
<path d="M315.603 739.274C315.657 740.438 314.844 741.248 313.42 741.401C311.439 741.613 309.459 741.86 307.471 741.984C305.656 742.098 304.703 740.739 303.797 739.675C303.174 738.944 303.599 737.895 304.241 737.021C306.389 734.097 307.984 730.904 309.445 727.653C309.7 727.086 309.967 726.565 310.766 726.471C311.633 726.368 311.805 726.967 312.205 727.441C313.4 728.856 313.658 730.56 314.118 732.206C314.767 734.534 315.384 736.87 315.603 739.274Z" fill="#EDEAEA"/>
<path d="M311.442 765.304C311.442 766.774 311.875 767.927 310.37 768.59C310.012 768.748 309.696 768.961 309.322 768.901C307.638 768.633 305.994 768.719 304.456 769.418C303.253 769.964 302.577 769.538 301.684 768.733C299.97 767.186 299.929 766.564 301.007 764.65C302.733 761.591 304.688 758.615 305.761 755.271C305.902 754.78 306.099 754.304 306.348 753.849C306.885 752.933 307.859 752.917 308.602 753.692C310.17 755.327 310.347 757.384 310.68 759.374C311.032 761.474 311.228 763.595 311.442 765.304Z" fill="#EDEAEA"/>
<path d="M312.599 819.528C310.897 819.351 309.532 818.5 308.339 817.473C307.907 817.101 307.953 816.345 308.268 815.762C309.325 813.805 309.738 811.632 310.84 809.655C311.361 808.721 311.579 807.421 311.96 806.298C312.229 805.508 312.662 804.635 313.697 804.563C314.733 804.491 315.276 805.357 315.712 806.033C316.827 807.759 317.2 809.744 317.641 811.672C318.123 813.783 318.432 815.927 318.771 818.063C318.906 818.916 318.282 819.455 318.373 820.229C318.421 820.641 317.851 820.701 317.309 820.561C315.756 820.162 314.171 819.864 312.599 819.528Z" fill="#EDEAEA"/>
<path d="M289.097 751.029C289.101 752.406 288.316 753.05 286.67 752.777C285.322 752.553 283.982 752.677 282.666 752.687C281.041 752.698 279.973 752.043 278.871 751.161C277.855 750.347 277.803 749.402 278.386 748.437C280.237 745.368 281.768 742.145 282.957 738.811C283.422 737.509 284.384 737.43 285.387 738.461C286.064 739.148 286.575 739.957 286.887 740.837C288.018 744.153 288.758 747.569 289.097 751.029Z" fill="#EDEAEA"/>
<path d="M262.262 763.389C261.103 763.337 260.105 763.372 259.097 763.215C256.697 762.842 255.936 762.189 256.328 760.022C256.829 757.253 257.18 754.445 258.138 751.757C258.311 751.179 258.576 750.627 258.924 750.119C259.57 749.276 260.382 749.023 261.315 749.862C262.133 750.55 262.811 751.365 263.318 752.27C264.657 754.902 265.793 757.618 266.718 760.396C266.839 760.72 266.875 761.065 266.823 761.405C266.771 761.744 266.633 762.067 266.419 762.348C266.205 762.629 265.921 762.86 265.592 763.021C265.262 763.183 264.895 763.271 264.522 763.278C263.716 763.306 262.912 763.358 262.262 763.389Z" fill="#EDEAEA"/>
<path d="M287.156 807.444C286.113 807.645 285.128 807.932 284.03 807.734C282.411 807.441 280.595 805.225 281.108 803.844C282.246 800.779 282.931 797.604 283.964 794.515C284.199 793.812 284.364 793.024 285.382 792.91C286.405 792.796 286.817 793.525 287.168 794.17C288.929 797.407 290.085 800.854 291.243 804.295C291.585 805.311 291.195 806.116 290.065 806.7C289.116 807.19 288.005 806.848 287.156 807.444Z" fill="#EDEAEA"/>
<path d="M265.711 735.092C265.876 737.774 264.573 738.985 261.635 739.507C260.096 739.78 258.999 739.172 257.813 738.711C256.431 738.173 255.912 737.213 256.317 735.698C256.838 733.749 257.76 731.961 258.528 730.112C259.156 728.601 259.766 727.09 260.31 725.551C260.741 724.328 261.287 724.371 262.391 724.932C264.3 725.9 264.683 727.517 264.969 729.189C265.303 731.144 265.471 733.123 265.711 735.092Z" fill="#EDEAEA"/>
<path d="M251.5 794.791C251.515 793.813 251.818 792.857 252.377 792.024C253.719 789.894 254.678 787.61 255.679 785.342C256.491 783.502 256.669 783.646 258.355 784.63C260.11 785.656 260.549 787.178 261.126 788.706C261.75 790.364 262.285 792.057 262.731 793.764C263.137 795.319 262.794 795.638 261.168 796.15C259.669 796.622 258.288 797.374 256.636 797.473C255.848 797.52 255.491 797.292 255.255 796.668C255.042 796.103 254.575 796.143 254.076 796.333C252.722 796.849 251.498 796.114 251.5 794.791Z" fill="#EDEAEA"/>
<path d="M262.326 824.405C260.468 824.221 258.854 824.139 257.273 823.885C254.673 823.469 253.568 821.706 254.125 819.306C254.681 816.915 255.202 814.525 256.234 812.255C257.072 810.412 258.056 810.172 259.512 811.599C260.163 812.241 260.684 812.984 261.052 813.793C262.279 816.515 263.576 819.222 264.207 822.137C264.548 823.716 263.869 824.445 262.326 824.405Z" fill="#EDEAEA"/>
<path d="M241.898 758.989C241.948 761.07 241.407 761.433 239.467 761.398C238.363 761.378 237.251 761.712 236.142 761.888C234.414 762.162 231.793 760.773 231.334 759.427C231.257 759.237 231.222 759.035 231.232 758.832C231.242 758.63 231.295 758.432 231.39 758.248C232.73 755.454 234.04 752.648 235.392 749.859C235.983 748.642 236.666 748.543 237.77 749.455C240.253 751.504 240.768 754.391 241.614 757.127C241.765 757.739 241.86 758.362 241.898 758.989ZM238.085 756.525C237.651 756.154 238.287 755.182 237.309 754.935C236.967 754.848 236.752 755.369 236.878 755.671C237.112 756.232 236.897 757.061 237.738 757.281C238.15 757.387 238.085 756.95 238.085 756.524V756.525Z" fill="#EDEAEA"/>
<path d="M224.621 784.351C224.973 781.153 226.094 778.143 227.29 775.165C227.801 773.893 228.482 773.87 229.667 774.718C230.674 775.438 231.334 776.49 231.507 777.649C231.973 780.382 232.354 783.129 232.711 785.876C232.862 787.036 232.065 787.628 230.794 787.868C228.767 788.251 227.153 787.515 225.577 786.567C224.711 786.048 224.726 785.17 224.621 784.351Z" fill="#EDEAEA"/>
<path d="M283.135 783.096C282.586 783.055 281.955 782.832 281.718 783.022C280.883 783.691 279.867 783.232 278.948 783.538C277.968 783.865 276.474 781.654 276.593 780.549C276.768 778.912 278.311 777.877 278.561 776.235C278.807 774.613 279.515 773.048 280.051 771.467C280.106 771.238 280.243 771.033 280.439 770.883C280.636 770.734 280.881 770.648 281.137 770.641C281.775 770.61 282.112 770.874 282.403 771.403C284.015 774.332 284.872 777.515 286.102 780.571C286.781 782.259 285.089 782.854 283.135 783.096Z" fill="#EDEAEA"/>
<path d="M311.767 790.129C312.189 791.846 310.124 792.78 308.76 792.463C308.124 792.316 307.61 792.121 306.84 792.455C305.894 792.865 304.464 793.364 304.219 791.538C304.199 791.393 303.79 791.318 303.615 791.161C302.531 790.187 302.499 788.788 303.491 787.68C303.727 787.439 303.916 787.162 304.047 786.861C304.796 784.83 306.441 783.123 306.605 780.88C306.648 780.298 306.884 779.756 307.608 779.651C308.332 779.546 308.686 780.024 308.982 780.537C309.159 780.762 309.313 781.002 309.44 781.253C310.393 784.17 311.17 787.134 311.767 790.129Z" fill="#EDEAEA"/>
<path d="M1107.98 562.55C1107.74 562.868 1107.35 562.454 1107.11 562.713C1106.83 562.449 1106.44 562.611 1106.11 562.521C1105.94 562.553 1106.28 562.121 1105.85 562.316C1105.53 562.4 1105.2 562.436 1104.86 562.421L1104.73 561.817L1104.57 562.21L1103.87 561.8L1104.02 561.316C1103.83 561.205 1103.62 561.136 1103.39 561.117C1103.16 561.097 1102.94 561.128 1102.73 561.205L1103.71 561.617L1103.45 562.077C1103.29 562.007 1103.41 561.57 1102.98 561.845L1103.2 562.295C1103.14 562.328 1103.08 562.373 1103.06 562.362C1102.76 562.224 1102.47 562.077 1102.17 561.932C1101.9 562.375 1101.4 562.537 1100.8 562.697L1100.96 562.279C1100.79 562.184 1100.72 561.885 1100.35 561.919L1100.5 562.627C1100.21 562.744 1100.16 562.814 1100.26 562.982C1099.84 563.275 1099.77 562.713 1099.43 562.68L1099.35 563.17C1099.17 563.145 1099.07 562.938 1098.82 563.111C1098.48 563.351 1098.01 563.459 1097.66 563.701C1097.32 563.943 1097.04 563.825 1096.7 563.69L1096.66 564.148C1096.19 564.07 1095.82 564.343 1095.4 564.462C1094.39 564.746 1093.42 565.118 1092.43 565.446C1091.54 565.739 1090.68 566.079 1089.8 566.39C1089.08 566.645 1088.35 566.902 1087.62 567.133C1086.63 567.448 1085.67 567.846 1084.68 568.188C1083.92 568.455 1083.15 568.758 1082.38 569.052C1082.13 569.149 1081.9 569.345 1081.58 569.274C1081.54 569.271 1081.49 569.276 1081.45 569.288C1081.41 569.3 1081.38 569.319 1081.35 569.344C1080.65 569.895 1079.67 569.896 1078.93 570.356C1078.88 570.384 1078.82 570.394 1078.76 570.385C1078.01 570.254 1077.46 570.692 1076.85 570.929C1075.88 571.308 1074.87 571.608 1073.84 571.828C1073.62 571.859 1073.4 571.915 1073.2 571.995C1073.01 572.083 1072.82 572.018 1072.66 572.081C1072.45 572.159 1072.26 572.274 1072.1 572.418C1071.9 572.624 1071.76 572.205 1071.52 572.416C1071.34 572.571 1070.98 572.552 1070.74 572.665C1070.34 572.85 1069.84 572.775 1069.49 573.096C1069.42 573.162 1069.18 573.148 1069.05 573.096C1068.83 573.002 1068.75 572.971 1068.61 573.219C1068.54 573.356 1068.17 573.386 1067.92 573.42C1067.14 573.53 1066.43 573.929 1065.62 573.905C1064.98 574.294 1064.21 574.254 1063.51 574.419C1063.35 574.458 1063.19 574.514 1063.03 574.541C1062.72 574.594 1062.41 574.475 1062.09 574.682C1061.87 574.829 1061.46 574.591 1061.18 574.853C1061.12 574.904 1060.88 574.857 1060.77 574.793C1060.49 574.624 1060.63 574.894 1060.56 574.924C1060.46 574.972 1060.3 574.919 1060.2 574.962C1059.72 575.159 1059.2 575.234 1058.68 575.178C1057.75 575.073 1056.87 575.383 1055.95 575.363C1055.67 575.357 1055.39 575.53 1055.11 575.343C1054.59 575.581 1054.06 575.243 1053.54 575.345C1053.33 575.388 1053.07 575.545 1052.9 575.484C1052.49 575.372 1052.05 575.323 1051.62 575.338C1051.19 575.307 1050.76 575.236 1050.34 575.183C1050.28 575.176 1050.19 575.188 1050.17 575.16C1049.99 574.91 1049.69 575.059 1049.49 574.996C1049.03 574.851 1048.53 574.942 1048.09 574.711C1047.8 574.585 1047.53 574.419 1047.3 574.219L1047.1 574.593C1046.44 574.146 1045.46 574.216 1044.91 573.447H1044.24C1044.16 573.314 1044.09 573.119 1044.03 573.119C1043.57 573.122 1043.18 573.099 1043.22 572.543C1043.22 572.457 1042.97 572.359 1042.67 572.148L1042.93 572.822C1042.58 572.617 1042.33 572.477 1042.09 572.324C1041.85 572.195 1041.63 572.036 1041.44 571.853C1041.25 571.629 1040.93 571.562 1040.76 571.321C1040.62 571.1 1040.45 570.896 1040.25 570.713C1040.04 570.53 1039.93 570.281 1039.65 570.127C1039.46 570.025 1039.42 569.703 1039.32 569.475L1039.53 569.267L1039.81 569.485C1039.79 569.319 1039.8 569.211 1039.75 569.146C1039.53 568.909 1039.24 568.73 1038.92 568.625C1038.79 568.571 1038.63 568.501 1038.58 568.403C1038.52 568.265 1038.6 568.077 1038.53 567.941C1038.48 567.831 1038.2 567.765 1038.2 567.683C1038.21 567.265 1037.88 566.895 1038 566.47C1037.66 565.791 1037.88 565.075 1037.82 564.378C1037.72 563.082 1038.13 561.861 1038.61 560.672C1039.17 559.336 1039.96 558.086 1040.95 556.97C1041.64 556.18 1042.3 555.373 1043.06 554.625C1044.08 553.588 1045.02 552.492 1045.88 551.345C1046.14 550.996 1046.27 550.585 1046.56 550.234C1046.82 549.883 1047.02 549.499 1047.15 549.095C1047.26 548.731 1047.34 548.36 1047.39 547.986C1047.44 547.686 1047.29 547.362 1047.57 547.086C1047.62 547.032 1047.57 546.883 1047.54 546.785C1047.51 546.667 1047.41 546.557 1047.4 546.44C1047.34 545.629 1047.07 544.84 1046.62 544.134C1046.16 543.429 1045.53 542.824 1044.77 542.366C1043.86 541.792 1042.9 541.331 1041.98 540.799C1040.68 540.05 1039.3 539.426 1038.01 538.667C1037 538.077 1035.93 537.567 1034.9 537.019C1033.73 536.404 1032.5 535.895 1031.46 535.098C1030.89 535.016 1030.59 534.552 1030.1 534.356C1029.54 534.136 1029.17 533.684 1028.66 533.386C1028.09 533.01 1027.56 532.6 1027.06 532.16C1026.79 531.884 1026.48 531.65 1026.12 531.468C1025.9 531.379 1025.72 531.221 1025.62 531.023C1025.46 530.656 1025.1 530.462 1024.84 530.192C1023.54 528.926 1022.55 527.441 1021.92 525.825C1021.67 525.143 1021.58 524.419 1021.22 523.767C1021.34 523.187 1021.01 522.648 1021.03 522.075C1021.06 521.516 1020.93 520.932 1021.07 520.402C1021.28 519.607 1021.25 518.75 1021.76 518.024C1021.93 516.927 1023.14 514.995 1023.69 514.254C1024.36 513.418 1025.16 512.668 1026.07 512.027C1026.52 511.65 1027.08 511.378 1027.68 511.235C1028.08 511.155 1028.45 510.972 1028.87 510.884C1029.21 510.771 1029.59 510.765 1029.93 510.866C1030.07 510.916 1030.28 510.779 1030.46 510.77C1030.79 510.747 1031.13 510.747 1031.46 510.772C1031.7 510.794 1031.93 511.006 1032.19 510.806C1032.47 511.055 1032.83 510.844 1033.13 510.931C1033.39 511.007 1033.62 511.161 1033.88 511.239C1034.31 511.365 1034.75 511.453 1035.17 511.566C1035.31 511.597 1035.44 511.647 1035.55 511.712C1036.24 512.125 1037.05 512.246 1037.8 512.508C1038.6 512.79 1039.44 512.988 1040.21 513.329C1040.76 513.573 1041.36 513.725 1041.92 513.926C1042.51 514.138 1043.08 514.403 1043.69 514.591C1044.9 515.019 1046.09 515.503 1047.25 516.039C1048.76 516.671 1050.27 517.311 1051.77 517.957C1054.4 519.091 1057.02 520.24 1059.65 521.368C1060.3 521.658 1060.97 521.9 1061.66 522.091C1061.99 522.176 1062.26 522.363 1062.58 522.432C1063.08 522.537 1063.56 522.657 1064.06 522.748C1064.46 522.775 1064.85 522.834 1065.24 522.926C1065.87 523.16 1066.56 523.168 1067.2 523.355C1067.89 523.553 1068.62 523.292 1069.2 522.863C1069.45 522.675 1069.66 522.444 1069.91 522.246C1070.86 521.47 1071.09 520.544 1070.69 519.465C1070.47 518.999 1070.35 518.503 1070.33 518C1069.96 517.706 1070.33 517.225 1069.98 516.928C1070.05 516.342 1069.86 515.76 1070.1 515.148C1070.3 514.716 1070.38 514.251 1070.34 513.788C1070.16 512.554 1070.46 511.326 1070.55 510.101C1070.64 509.229 1070.83 508.368 1071.13 507.533C1071.31 506.955 1071.61 506.422 1071.84 505.869C1072.15 505.254 1072.55 504.676 1073.02 504.148C1073.94 503.014 1075.12 502.056 1076.47 501.331C1077.42 500.765 1078.45 500.312 1079.54 499.983C1079.99 499.853 1080.49 499.81 1080.94 499.7C1081.44 499.577 1081.96 499.695 1082.4 499.548C1082.85 499.413 1083.32 499.37 1083.78 499.424C1084.64 499.49 1085.49 499.609 1086.34 499.737C1087.16 499.899 1087.96 500.131 1088.72 500.43C1089.75 500.763 1090.72 501.228 1091.6 501.81C1091.75 501.884 1091.89 501.973 1092.01 502.077C1092.55 502.7 1093.12 503.311 1093.6 503.971C1094.37 505.012 1095.34 505.924 1096.47 506.665C1096.64 506.811 1096.79 506.974 1096.93 507.15C1097.15 507.051 1097.39 506.979 1097.64 506.938C1097.87 506.913 1098.09 506.859 1098.3 506.779C1098.53 506.718 1098.78 506.718 1099.01 506.779C1099.24 506.845 1099.37 506.536 1099.62 506.703C1099.69 506.749 1099.9 506.631 1100.04 506.586C1100.21 506.553 1100.37 506.504 1100.52 506.44C1100.73 506.323 1100.81 506.671 1101.04 506.521C1101.16 506.442 1101.38 506.478 1101.54 506.442C1101.73 506.402 1101.91 506.323 1102.1 506.289C1102.37 506.243 1102.6 506.388 1102.84 506.42C1103.01 506.443 1103.21 506.184 1103.41 506.138C1103.7 506.109 1103.98 506.06 1104.25 505.991C1104.51 505.898 1104.96 505.815 1105.09 506.273C1105.1 506.303 1105.35 506.277 1105.52 506.277L1105.32 505.92C1105.62 505.813 1105.84 505.475 1106.19 505.774C1106.32 505.598 1106.43 505.789 1106.51 505.78C1106.74 505.755 1106.83 505.253 1107.2 505.611C1107.44 505.508 1107.69 505.421 1107.95 505.351C1108.05 505.328 1108.21 505.491 1108.31 505.466C1108.46 505.43 1108.57 505.205 1108.75 505.391C1108.91 505.563 1108.99 505.301 1109.07 505.357C1109.14 505.413 1109.16 505.533 1109.2 505.623C1109.81 505.451 1109.81 505.451 1109.96 504.974C1110.11 505.026 1110.26 505.092 1110.41 505.17C1110.51 505.256 1110.6 505.352 1110.68 505.457L1110.98 505.017C1112.24 505.313 1112.34 505.29 1112.79 504.553H1113.4L1113.56 504.857C1113.68 504.455 1113.68 504.455 1114.13 504.234C1114.33 504.188 1113.98 504.663 1114.39 504.436C1114.5 504.375 1114.63 504.344 1114.77 504.348C1114.9 504.352 1115.02 504.391 1115.13 504.459C1115.2 504.486 1115.29 504.501 1115.37 504.501C1115.45 504.501 1115.53 504.486 1115.61 504.459C1115.89 504.363 1116.3 504.366 1116.24 503.919C1116.23 503.842 1116.38 503.703 1116.62 503.85C1116.86 503.993 1117.22 503.973 1117.58 504.034C1117.53 503.894 1117.48 503.76 1117.41 503.586C1117.92 503.748 1118.33 503.855 1118.72 503.485C1118.85 503.366 1119.03 503.629 1119.3 503.485C1119.66 503.287 1120.16 503.274 1120.66 503.17L1120.72 502.808C1120.77 502.789 1120.8 502.767 1120.82 502.769C1121.26 502.76 1121.7 502.706 1122.13 502.61C1122.56 502.493 1122.99 502.389 1123.42 502.288C1125.45 501.819 1127.39 501.116 1129.4 500.597C1130.82 500.229 1132.25 499.851 1133.7 499.538C1134.91 499.274 1136.14 499.002 1137.34 498.666C1138.03 498.509 1138.73 498.383 1139.43 498.289C1139.64 498.249 1139.86 498.172 1140.07 498.134C1140.44 498.07 1140.81 498.024 1141.17 497.971C1141.54 497.941 1141.91 497.885 1142.27 497.803C1143.05 497.568 1143.89 497.597 1144.67 497.355C1145.12 497.218 1145.64 497.337 1146.13 497.186C1146.53 497.063 1147.04 497.163 1147.39 496.986C1147.79 496.781 1148.22 496.896 1148.63 496.728C1149.04 496.559 1149.59 496.7 1150.08 496.552C1150.27 496.493 1150.57 496.633 1150.78 496.734C1150.91 496.821 1151.07 496.865 1151.23 496.858C1151.39 496.851 1151.54 496.793 1151.65 496.696C1152.22 496.433 1152.81 496.226 1153.43 496.081C1153.76 496.37 1154.05 496.108 1154.45 496C1154.41 496.173 1154.38 496.278 1154.35 496.381C1154.32 496.467 1154.29 496.552 1154.24 496.688C1154.66 496.567 1154.67 496.313 1154.62 496.03C1154.79 496.117 1154.93 496.225 1154.97 496.201C1155.18 496.078 1155.34 496.131 1155.56 496.193C1155.71 496.236 1155.92 496.094 1156.11 496.056C1156.23 496.035 1156.35 496.035 1156.47 496.056C1156.64 496.083 1156.77 496.365 1156.98 496.124C1157.18 495.894 1157.36 496.266 1157.48 496.155C1157.82 495.837 1158.06 496.205 1158.35 496.228C1158.59 496.248 1158.91 496.288 1158.98 496.609C1159.02 496.634 1159.06 496.651 1159.11 496.658C1159.16 496.665 1159.22 496.662 1159.26 496.65C1159.39 496.58 1159.49 496.455 1159.64 496.577C1160.04 496.908 1160.63 496.952 1161.02 497.305C1161.11 497.401 1161.24 497.464 1161.38 497.48C1161.65 497.463 1161.76 497.634 1161.88 497.767C1162.04 497.954 1162.23 498.121 1162.44 498.265C1162.67 498.417 1162.82 498.616 1163.19 498.637C1163.46 498.652 1163.61 499.012 1163.94 499.12C1164.88 499.449 1165.77 499.877 1166.59 500.397C1167.42 500.852 1168.21 501.359 1168.96 501.915C1169.42 502.28 1169.9 502.627 1170.34 503.007C1171.05 503.618 1171.53 504.392 1172.16 505.049C1173.04 505.964 1173.54 507.042 1174.13 508.091C1174.63 509.034 1175 510.025 1175.24 511.044C1175.41 511.671 1175.39 512.345 1175.75 512.93C1175.76 512.956 1175.76 512.984 1175.75 513.01C1175.62 513.642 1175.96 514.235 1175.94 514.862C1175.91 515.474 1175.95 516.088 1175.92 516.7C1175.91 516.945 1175.79 517.187 1175.76 517.432C1175.76 517.662 1175.7 517.889 1175.59 518.097C1175.48 518.267 1175.54 518.525 1175.42 518.749C1175.34 518.88 1175.53 519.118 1175.57 519.312C1175.61 519.526 1175.6 519.728 1175.26 519.743C1175.19 520.174 1174.79 520.514 1174.72 520.896C1174.59 521.649 1173.92 522.153 1173.73 522.858C1173.32 523.07 1173.42 523.551 1173.04 523.817C1172.75 524.025 1172.62 524.4 1172.39 524.681C1172.13 524.992 1171.84 525.28 1171.56 525.58C1171.51 525.638 1171.41 525.715 1171.43 525.765C1171.55 526.227 1171.14 526.423 1170.86 526.679C1170.4 527.099 1169.94 527.526 1169.45 527.92C1168.63 528.608 1167.75 529.236 1166.82 529.798C1166.19 530.16 1165.68 530.695 1165.03 531.011C1164.31 531.363 1163.66 531.797 1162.96 532.176C1162.08 532.656 1161.16 533.09 1160.26 533.537C1159.31 534.008 1158.32 534.416 1157.37 534.897C1156.84 535.22 1156.28 535.509 1155.7 535.761C1154.88 536.045 1154.18 536.507 1153.42 536.871C1152.48 537.322 1151.62 537.906 1150.72 538.436C1149.95 538.891 1149.35 539.511 1148.69 540.071C1148.44 540.323 1148.15 540.54 1147.82 540.716C1147.5 540.893 1147.24 541.159 1147.1 541.474C1146.75 542.09 1146.46 542.731 1146.22 543.39C1146.18 543.671 1146.15 543.955 1146.14 544.239C1146.1 544.454 1146.35 544.796 1145.84 544.847C1145.81 544.85 1145.79 545.034 1145.79 545.133C1145.78 545.693 1145.79 546.252 1145.78 546.812C1145.77 547.175 1146.1 547.487 1145.97 547.865C1146.33 548.185 1146.06 548.641 1146.3 549.025C1146.5 549.36 1146.41 549.826 1146.52 550.222C1146.65 550.727 1146.95 551.216 1146.98 551.721C1147.01 552.321 1147.37 552.816 1147.48 553.391C1147.57 553.916 1147.97 554.397 1148.07 554.922C1148.22 555.605 1148.42 556.28 1148.66 556.944C1148.68 557.014 1148.57 557.117 1148.51 557.218L1148.83 557.316C1148.86 557.814 1148.97 558.304 1149.17 558.77C1149.21 558.976 1149.23 559.185 1149.22 559.394C1149.25 559.588 1149.36 559.775 1149.39 559.968C1149.39 560.197 1149.45 560.423 1149.56 560.628C1149.68 560.826 1149.75 561.048 1149.75 561.273C1149.74 561.502 1149.81 561.727 1149.94 561.925C1150.07 562.112 1149.59 562.314 1149.97 562.504C1150.24 562.637 1150.02 562.927 1150.13 563.078C1150.41 563.436 1150.31 563.859 1150.45 564.241C1150.54 564.505 1150.61 564.774 1150.65 565.046C1150.7 565.313 1150.57 565.609 1150.81 565.848C1150.52 565.985 1150.84 566.086 1150.85 566.205C1150.86 566.323 1150.93 566.442 1150.95 566.564C1150.96 566.707 1150.97 566.852 1150.96 566.996C1150.96 567.053 1150.89 567.146 1150.92 567.16C1151.39 567.494 1151.14 568.029 1151.37 568.439C1151.44 568.652 1151.5 568.871 1151.53 569.092C1151.63 569.398 1151.83 569.702 1151.76 570.059C1151.75 570.234 1151.81 570.407 1151.93 570.544C1152.09 570.763 1152.15 571.027 1152.1 571.283C1152.08 571.667 1152.16 571.649 1152.26 572.062C1152.36 572.456 1152.63 572.808 1152.63 573.205C1152.64 573.564 1153.13 573.914 1152.68 574.288C1152.67 574.292 1152.81 574.43 1152.88 574.505C1153.07 574.699 1153.04 574.945 1153.11 575.168C1153.17 575.293 1153.19 575.428 1153.18 575.562C1153.16 575.696 1153.11 575.825 1153.03 575.938L1153.3 575.992C1153.32 576.011 1153.35 576.028 1153.36 576.049C1153.42 576.505 1153.48 576.963 1153.55 577.418C1153.61 577.822 1153.39 578.25 1153.72 578.637C1153.83 578.764 1153.43 578.948 1153.71 579.154C1153.78 579.2 1153.64 579.456 1153.6 579.615L1153.9 579.709C1153.88 580.168 1153.31 580.543 1153.7 581.035C1153.42 581.136 1152.97 581.064 1153.01 581.566L1153.4 581.399C1153.46 581.44 1153.54 581.471 1153.54 581.499C1153.53 581.677 1153.5 581.855 1153.48 582.033C1153.46 582.086 1153.45 582.141 1153.45 582.196C1153.91 582.333 1153.43 582.7 1153.7 582.948C1153.95 583.176 1153.62 583.537 1153.52 583.811C1153.43 584.052 1153.38 584.301 1153.36 584.552C1153.37 584.907 1153.3 585.26 1153.16 585.592C1152.96 585.896 1153.12 586.213 1152.96 586.479C1152.75 586.721 1152.63 587.019 1152.64 587.325C1152.22 587.753 1152.26 588.358 1151.92 588.814C1151.85 588.902 1151.69 588.938 1151.57 589.002V589.794C1151.33 589.919 1151 589.968 1151.01 590.297C1150.57 590.505 1151.14 590.74 1150.98 590.979C1150.91 590.985 1150.79 591.025 1150.75 590.992C1150.63 590.904 1150.56 590.818 1150.42 590.969C1150.31 591.076 1150.37 591.106 1150.42 591.205C1150.53 591.467 1150.28 591.833 1150.23 591.785C1149.89 591.483 1149.86 591.873 1149.7 591.942C1149.66 591.962 1149.64 591.99 1149.61 592.022C1149.59 592.055 1149.58 592.091 1149.58 592.129C1149.72 592.624 1149.27 592.747 1148.94 592.918C1148 593.409 1147.99 593.4 1147.23 593.425C1147.21 593.577 1147.22 593.73 1147.23 593.882C1147.25 593.974 1147.24 594.069 1147.19 594.152C1147.14 594.236 1147.06 594.303 1146.97 594.344C1146.42 594.65 1145.86 594.931 1145.29 595.187C1144.75 595.448 1144.17 595.633 1143.57 595.738C1142.68 595.837 1141.86 596.184 1140.94 596.131C1140.07 596.081 1139.19 596.113 1138.32 596.122C1137.39 596.132 1136.52 595.884 1135.63 595.7C1135.03 595.578 1134.45 595.403 1133.89 595.177C1133.52 595.014 1133.11 594.952 1132.71 594.998C1132.16 595.031 1131.62 594.921 1131.14 594.68C1129.89 594.156 1128.71 593.511 1127.62 592.756C1127.01 592.408 1126.44 592.01 1125.91 591.568C1125.05 590.734 1124.37 589.76 1123.92 588.699C1123.61 588.063 1123.23 587.454 1122.78 586.88C1121.95 585.76 1121.43 584.685 1120.66 583.265C1120.01 582.082 1119.54 580.845 1119 579.636C1118.71 578.999 1118.39 578.366 1118.15 577.71C1117.93 577.044 1117.61 576.406 1117.21 575.811C1116.95 575.454 1116.79 575.002 1116.53 574.63C1116.06 573.926 1115.64 573.198 1115.28 572.449C1114.8 571.559 1114.27 570.681 1113.86 569.772C1113.49 568.961 1112.91 568.263 1112.55 567.457C1112.18 566.658 1111.69 565.906 1111.24 565.139C1110.86 564.394 1110.19 563.797 1109.35 563.458C1108.81 563.268 1108.34 562.955 1107.98 562.55ZM1105.54 559.902L1105.67 559.789C1105.62 559.751 1105.57 559.678 1105.53 559.682C1105.18 559.712 1104.75 559.708 1104.63 559.596C1104.16 559.157 1103.56 559.331 1103.05 559.417C1102.57 559.549 1102.11 559.73 1101.69 559.958C1101.55 560.029 1101.4 560.082 1101.25 560.116C1101.18 560.124 1101.1 559.945 1101 560.091C1100.93 560.188 1100.87 560.292 1100.71 560.539C1101.26 560.347 1101.61 560.902 1102.04 560.483C1102.05 560.476 1102.26 560.571 1102.26 560.63C1102.26 560.663 1102.27 560.696 1102.29 560.726C1102.31 560.755 1102.34 560.779 1102.37 560.795C1102.4 560.811 1102.44 560.819 1102.48 560.817C1102.52 560.816 1102.55 560.805 1102.59 560.786C1103.04 560.547 1103.55 560.683 1104.04 560.615L1104.1 560.266L1104.5 560.617L1104.4 560.649L1104.8 561.005C1104.88 560.754 1104.61 560.303 1105.17 560.144C1105.3 560.243 1105.46 560.304 1105.62 560.319C1105.79 560.335 1105.96 560.304 1106.11 560.23C1105.9 560.11 1105.72 560.005 1105.54 559.902ZM1080.5 504.125L1079.4 503.617L1079.17 503.801L1079.32 503.951L1078.11 504.788C1078.15 504.823 1078.26 504.912 1078.24 504.934C1078.11 505.127 1077.94 505.302 1077.81 505.495C1077.51 505.925 1077.16 506.35 1077.43 506.916C1077.82 506.677 1078.04 506.2 1078.6 506.245C1078.54 506.112 1078.42 505.955 1078.46 505.896C1078.63 505.601 1078.87 505.339 1079.16 505.129C1079.45 504.984 1079.67 504.759 1079.8 504.489C1079.91 504.143 1080.18 504.25 1080.5 504.125ZM1147.34 590.385C1147.56 590.128 1147.76 589.86 1147.95 589.583C1148.46 588.709 1149.32 587.98 1149.41 586.922C1149.41 586.882 1149.49 586.85 1149.53 586.808C1149.81 586.516 1149.95 586.141 1149.93 585.759C1149.92 585.353 1150.03 584.95 1150.24 584.59C1150.27 584.549 1150.29 584.503 1150.3 584.455C1150.31 584.406 1150.31 584.356 1150.3 584.308C1150.28 584.26 1150.26 584.215 1150.23 584.176C1150.19 584.136 1150.15 584.103 1150.1 584.078C1149.97 584.199 1149.86 584.335 1149.77 584.483C1149.67 584.715 1149.66 584.974 1149.57 585.212C1149.34 585.869 1149.2 586.557 1148.78 587.159C1148.71 587.24 1148.68 587.338 1148.68 587.438C1148.71 587.628 1148.69 587.821 1148.62 588.003C1148.55 588.184 1148.44 588.35 1148.29 588.486C1147.79 589.008 1147.68 589.717 1147.05 590.128L1147.34 590.385ZM1147.16 571.771C1147.03 571.987 1146.87 572.196 1146.9 572.229C1147.16 572.462 1147.02 572.734 1147.04 572.983C1147.09 573.246 1147.09 573.515 1147.03 573.777C1146.94 574.026 1147.36 574.225 1147.06 574.453C1147.34 574.654 1147.21 574.934 1147.22 575.182C1147.24 575.447 1147.23 575.714 1147.23 575.981C1147.23 576.993 1147.23 578.005 1147.23 579.017C1147.24 579.119 1147.26 579.22 1147.29 579.319C1147.36 578.896 1147.53 578.502 1147.57 578.11C1147.65 577.176 1147.55 576.235 1147.75 575.299C1147.84 574.904 1147.65 574.483 1147.62 574.087C1147.54 573.305 1147.38 572.531 1147.16 571.771V571.771ZM1158.98 506.515C1159.14 506.612 1159.28 506.695 1159.43 506.773C1159.57 506.851 1159.71 506.924 1159.86 506.999C1159.62 507.38 1159.62 507.377 1159.92 507.566C1160.03 507.64 1160.2 507.732 1160.22 507.83C1160.28 508.219 1160.54 507.991 1160.67 508.009C1160.64 507.728 1160.62 507.463 1160.59 507.197C1160.97 506.976 1160.6 506.752 1160.58 506.536C1160.54 506.391 1160.45 506.259 1160.33 506.158C1160.31 506.138 1160.12 506.259 1159.98 506.327C1159.88 506.134 1159.8 505.981 1159.67 505.734L1160.2 505.926C1160.36 505.578 1159.92 505.712 1159.88 505.568C1159.86 505.373 1159.85 505.177 1159.87 504.982H1158.65L1158.49 504.587C1158.44 505.204 1158.44 505.204 1158.75 505.439L1158.86 505.156L1159.29 505.516L1159.72 505.303C1159.64 505.795 1159.24 505.886 1158.98 506.068L1158.98 506.515ZM1166.02 526.405C1166.13 526.416 1166.21 526.445 1166.24 526.422C1166.76 526.039 1167.29 525.671 1167.77 525.255C1168.73 524.377 1169.58 523.403 1170.29 522.354C1170.68 521.898 1170.97 521.388 1171.17 520.844C1171.23 520.583 1170.99 520.642 1170.96 520.52C1170.34 521.582 1169.79 522.682 1168.91 523.597C1168 524.553 1167 525.453 1166.02 526.405ZM1073.6 505.085C1072.99 505.379 1072.77 505.91 1072.49 506.398C1072.23 506.858 1072.11 507.379 1071.87 507.84C1071.61 508.339 1071.46 508.878 1071.43 509.427C1071.41 509.979 1070.99 510.513 1071.31 511.089C1071.4 510.964 1071.49 510.831 1071.56 510.694C1071.6 510.601 1071.56 510.484 1071.59 510.384C1071.68 510.02 1071.78 509.659 1071.88 509.297C1071.99 508.907 1072.2 508.535 1072.14 508.114C1072.6 507.249 1072.78 506.277 1073.39 505.464C1073.47 505.342 1073.54 505.216 1073.6 505.085ZM1160.57 520.711L1160.41 520.634C1160.31 520.791 1160.19 520.935 1160.04 521.062C1159.87 521.175 1159.58 521.173 1159.45 521.304C1159.15 521.54 1158.81 521.727 1158.44 521.854C1158.32 522.341 1157.81 522.479 1157.44 522.741C1157.15 522.946 1156.84 523.144 1156.57 523.363C1156.48 523.428 1156.47 523.558 1156.42 523.658C1156.73 523.549 1156.89 523.304 1157.24 523.387C1157.49 523.45 1157.47 523.249 1157.56 523.138C1157.64 523.045 1158 523.07 1158.01 523.013C1158.06 522.697 1158.35 522.647 1158.59 522.516C1158.86 522.382 1159.11 522.21 1159.33 522.008C1159.53 521.797 1159.78 521.813 1160.01 521.751C1159.95 521.623 1159.9 521.5 1159.81 521.299H1160.57V520.711Z" fill="#EDEAEA"/>
<path d="M1494.45 779.227C1493.42 780.379 1493.71 781.791 1493.36 782.982C1493.15 783.675 1492.6 784.79 1492.25 784.483C1489.81 782.305 1485.88 784.358 1484.01 780.763C1476.44 766.171 1465.23 754.425 1456.7 740.59C1456.1 739.617 1455.44 738.686 1454.83 737.72C1451.3 732.142 1451.31 732.141 1456.77 729.967C1462.39 727.732 1462.9 727.805 1467.31 732.993C1476.45 743.773 1485.55 754.606 1494.13 765.915C1496.81 769.441 1499.16 773.23 1499.25 777.995C1499.29 779.283 1499.16 780.564 1498.87 781.801C1498.6 782.862 1498.08 784.177 1496.84 784.052C1495.54 783.924 1495.93 782.533 1495.78 781.606C1495.64 780.758 1495.55 779.885 1494.45 779.227Z" fill="#EDEAEA"/>
<path d="M1540.31 740.095C1535.21 738.785 1531.14 735.418 1527.2 731.821C1518.63 724.009 1511.23 714.808 1502.44 707.257C1500.74 705.797 1500.89 704.771 1502.8 703.384C1508.33 699.355 1512.82 702.475 1517.07 706.148C1525.62 713.518 1533.97 721.142 1542.44 728.614C1544.64 730.551 1546.94 732.339 1549.23 734.147C1550.55 735.192 1550.6 736.557 1550.3 738.017C1550 739.529 1549.05 739.752 1547.67 739.869C1545.22 740.078 1542.81 740.659 1540.31 740.095Z" fill="#EDEAEA"/>
<path d="M1556.65 656.221C1562.05 657.222 1567.45 658.196 1572.84 659.239C1574.56 659.57 1576.37 659.92 1576.6 662.416C1576.81 664.693 1574.95 664.528 1573.79 665.274C1571.56 666.712 1569.11 667.112 1566.56 667.064C1555.49 666.859 1544.53 665.621 1533.95 661.297C1532.8 660.829 1531.55 660.627 1531.2 659.108C1530.81 657.39 1532.33 657.224 1533.07 656.353C1536.56 652.288 1540.81 653.076 1545.22 654.044C1549.01 654.878 1552.84 655.485 1556.65 656.192L1556.65 656.221Z" fill="#EDEAEA"/>
<g opacity="0.6">
<path d="M681.212 718.43C688.957 710.726 688.177 700.833 688.153 700.72V670.627C688.153 669.629 687.72 668.672 686.951 667.967C686.181 667.262 685.137 666.865 684.048 666.865H659.42C654.893 666.865 651.211 670.239 651.211 674.389V700.72C651.211 701.718 651.644 702.674 652.413 703.38C653.183 704.085 654.227 704.482 655.316 704.482H667.95C667.863 706.341 667.257 708.15 666.189 709.733C664.104 712.746 660.176 714.804 654.507 715.842L651.211 716.444V727.052H655.316C666.739 727.052 675.453 724.151 681.212 718.43ZM636.032 718.43C643.782 710.726 642.998 700.833 642.973 700.72V670.627C642.973 669.629 642.541 668.672 641.771 667.967C641.001 667.262 639.957 666.865 638.868 666.865H614.241C609.713 666.865 606.031 670.239 606.031 674.389V700.72C606.031 701.718 606.464 702.674 607.233 703.38C608.003 704.085 609.047 704.482 610.136 704.482H622.77C622.683 706.341 622.077 708.15 621.009 709.733C618.924 712.746 614.996 714.804 609.327 715.842L606.031 716.444V727.052H610.136C621.559 727.052 630.273 724.151 636.032 718.43Z" fill="white"/>
</g>
<path d="M160.686 32.8305C161.749 31.4558 161.184 30.0638 161.421 28.7787C161.559 28.0302 162.055 26.7832 162.519 27.0324C165.8 28.798 170.223 25.9495 173.023 29.2768C184.393 42.7822 199.713 52.6816 212.132 65.2289C213.005 66.1105 213.94 66.94 214.824 67.8126C219.93 72.8556 219.928 72.8576 213.68 76.1207C207.251 79.4767 206.623 79.4992 200.518 75.0219C187.835 65.72 175.208 56.3523 163.119 46.4022C159.349 43.2995 155.927 39.8666 155.089 35.0041C154.84 33.6931 154.797 32.3564 154.96 31.0342C155.124 29.896 155.541 28.4526 157.066 28.3425C158.648 28.2279 158.39 29.7266 158.719 30.6462C159.016 31.4889 159.253 32.3668 160.686 32.8305Z" fill="#EDEAEA"/>
<path d="M149.051 105.536C155.407 105.908 160.824 108.585 166.132 111.519C177.66 117.892 187.993 125.91 199.749 131.973C202.022 133.145 202.001 134.224 199.917 136.006C193.864 141.184 187.982 138.84 182.288 135.887C170.858 129.962 159.611 123.741 148.255 117.697C145.312 116.131 142.258 114.737 139.224 113.32C137.468 112.502 137.202 111.112 137.334 109.561C137.468 107.955 138.574 107.547 140.217 107.165C143.139 106.486 145.953 105.434 149.051 105.536Z" fill="#EDEAEA"/>
<path d="M142.294 194.527C135.634 194.527 128.978 194.555 122.321 194.51C120.202 194.496 117.965 194.482 117.304 191.97C116.7 189.678 118.964 189.494 120.245 188.51C122.714 186.614 125.603 185.74 128.678 185.305C142.056 183.412 155.446 182.601 168.869 185.019C170.322 185.28 171.862 185.249 172.512 186.74C173.245 188.426 171.448 188.883 170.684 189.916C167.115 194.739 161.869 194.74 156.407 194.586C151.707 194.452 146.998 194.558 142.294 194.558V194.527Z" fill="#EDEAEA"/>
</svg>
