<svg width="619" height="312" viewBox="0 0 619 312" fill="none" xmlns="http://www.w3.org/2000/svg">
<path d="M10.0154 257.866C89.1952 257.866 168.33 257.866 247.51 257.866C326.285 257.866 405.061 257.866 483.791 257.866C528.235 257.866 572.633 257.866 617.076 257.866C617.93 257.866 617.93 256.646 617.076 256.646C537.896 256.646 458.761 256.646 379.581 256.646C300.806 256.646 222.03 256.646 143.3 256.646C98.8568 256.646 54.4585 256.646 10.0154 256.646C9.16155 256.646 9.16155 257.866 10.0154 257.866Z" fill="#E8E8E8"/>
<path d="M177.584 256.158C173 254.247 169.091 251.197 166.484 247.252C165.271 245.422 164.237 243.348 163.698 241.274C163.204 239.2 164.103 237.086 166.799 237.411C168.551 237.614 169.944 238.672 171.203 239.648C171.472 239.322 171.742 238.997 172.012 238.672C169.091 236.964 166.799 234.605 165.406 231.718C164.462 229.725 162.26 223.422 166.035 222.812C166.484 222.73 166.619 222.242 166.439 221.917C162.844 215.207 161.99 207.724 161.227 200.404C160.867 196.907 160.508 192.678 163.518 189.994C167.068 186.74 171.967 189.018 174.932 191.783C180.46 196.948 183.336 204.308 186.257 210.856C189.312 217.728 191.964 224.723 193.896 231.88C196.098 240.176 197.266 248.676 196.772 257.175C196.727 257.948 198.075 257.948 198.12 257.175C199.109 239.77 193.312 222.893 185.987 207.033C182.976 200.526 179.561 192.149 172.461 188.408C169.72 186.984 166.394 186.578 163.698 188.286C160.957 190.034 159.923 193.125 159.744 196.012C159.519 200.445 160.373 205.122 161.137 209.473C161.901 213.987 163.159 218.42 165.361 222.527C165.496 222.242 165.63 221.917 165.765 221.632C161.811 222.283 162.62 227.448 163.384 229.928C164.597 233.995 167.518 237.452 171.427 239.729C172.056 240.095 172.82 239.2 172.236 238.753C170.079 237.126 167.338 235.296 164.417 236.476C161.316 237.736 162.17 240.99 163.069 243.308C165.406 249.448 170.529 254.491 177 257.175C177.674 257.541 178.393 256.484 177.584 256.158Z" fill="#E8E8E8"/>
<path d="M191.921 220.778C190.483 211.059 190.932 201.543 194.302 192.189C195.92 187.675 197.628 183.202 199.291 178.729C200.639 175.109 203.02 168.399 208.727 171.531C212.817 173.767 213.581 179.705 214.524 183.568C215.693 188.285 216.502 193.043 216.996 197.883C217.94 206.992 217.805 216.223 216.726 225.333C215.468 236.069 212.997 246.683 209.626 257.012C209.402 257.785 210.66 258.069 210.929 257.337C217.445 237.289 220.726 216.101 218.029 195.28C217.4 190.237 216.412 185.235 215.064 180.355C214.03 176.695 212.952 172.1 208.862 170.229C205.492 168.725 202.256 170.189 200.459 172.954C199.425 174.54 198.841 176.37 198.167 178.078C197.179 180.762 196.19 183.405 195.201 186.089C193.224 191.457 191.112 196.744 190.303 202.397C189.449 208.497 189.719 214.678 190.618 220.778C190.663 221.551 192.011 221.551 191.921 220.778Z" fill="#E8E8E8"/>
<path d="M164.912 189.221C177.854 210.083 188.055 232.775 190.392 256.849C190.481 257.622 191.83 257.622 191.74 256.849C189.358 232.571 179.157 209.717 166.08 188.611C165.676 187.919 164.508 188.529 164.912 189.221Z" fill="#E8E8E8"/>
<path d="M206.166 170.961C207.244 178.078 206.84 185.276 206.525 192.433C206.211 199.469 205.896 206.504 205.582 213.58C204.953 227.895 204.548 242.331 201.627 256.443C201.492 257.215 202.751 257.541 202.93 256.768C205.851 242.535 206.301 228.017 206.93 213.58C207.244 206.26 207.604 198.94 207.919 191.661C208.233 184.666 208.548 177.631 207.469 170.677C207.379 169.863 206.076 170.229 206.166 170.961Z" fill="#E8E8E8"/>
<path d="M193.268 191.498C198.975 198.452 203.064 206.341 205.221 214.759C205.401 215.532 206.704 215.207 206.524 214.434C204.322 205.894 200.233 197.883 194.436 190.847C193.942 190.237 192.774 190.847 193.268 191.498Z" fill="#E8E8E8"/>
<path d="M214.705 183.039C211.065 189.017 208.189 195.321 206.077 201.909C205.852 202.681 207.155 203.007 207.38 202.234C209.447 195.768 212.323 189.546 215.873 183.649C216.278 182.999 215.109 182.348 214.705 183.039Z" fill="#E8E8E8"/>
<path d="M165.901 222.69C175.383 226.187 183.247 232.572 188.235 240.664C188.64 241.356 189.808 240.746 189.404 240.054C184.236 231.677 176.057 225.17 166.261 221.551C165.452 221.185 165.137 222.364 165.901 222.69Z" fill="#E8E8E8"/>
<path d="M178.572 195.24C177.763 202.194 178.123 209.148 179.561 216.02C179.741 216.793 181.044 216.468 180.864 215.695C179.471 208.944 179.156 202.072 179.92 195.24C180.01 194.467 178.662 194.467 178.572 195.24Z" fill="#E8E8E8"/>
<path d="M18.2827 256.402C17.2491 253.678 16.4852 250.831 16.1257 247.944C15.9909 246.724 15.901 245.504 15.901 244.243C15.901 243.592 15.7662 242.657 15.946 242.047C15.946 241.803 15.9909 241.559 15.9909 241.315C16.8447 240.746 17.5637 240.827 18.1479 241.518C18.5523 241.844 19.3612 241.64 19.3163 241.071C19.1815 239.404 19.1815 237.736 19.4061 236.069C19.541 235.256 19.6758 234.442 19.9005 233.67C19.9903 233.385 21.0688 230.62 21.1587 230.742C21.4733 231.148 22.2372 231.148 22.372 230.579C24.3043 223.381 27.7645 216.671 31.9886 210.368C33.0671 208.741 34.2355 207.114 35.4039 205.528C36.7071 203.78 38.8641 201.014 40.8413 204.064C42.8635 207.155 43.4477 211.669 43.6275 215.207C44.0768 222.69 42.1895 230.132 39.5381 237.167C36.9767 244.04 33.7861 250.912 28.3038 256.321C27.7196 256.89 28.6633 257.744 29.2475 257.175C34.0108 252.498 37.0216 246.764 39.4932 240.868C42.0996 234.564 44.2116 228.017 44.8408 221.307C45.1553 218.054 45.1104 214.76 44.5711 211.506C44.1218 208.7 43.4477 205.122 41.5154 202.763C37.516 197.964 32.8874 206.708 31.2247 209.148C26.731 215.736 23.091 222.73 21.0688 230.254C21.4733 230.213 21.8777 230.172 22.2821 230.091C21.1587 228.749 19.7656 230.091 19.2713 231.23C17.8783 234.28 17.6086 237.818 17.9232 241.03C18.3276 240.868 18.6871 240.746 19.0916 240.583C18.2378 239.892 16.8447 238.997 15.6314 239.526C14.3731 240.095 14.5529 241.64 14.5529 242.698C14.4181 247.456 15.2719 252.132 16.9795 256.646C17.2491 257.46 18.5523 257.134 18.2827 256.402Z" fill="#E8E8E8"/>
<path d="M39.0438 202.682C37.5159 212.279 34.9545 221.714 31.3145 230.823C27.9442 239.363 22.2821 247.618 21.0238 256.728C20.934 257.5 22.2821 257.5 22.372 256.728C23.046 251.888 25.1131 247.415 27.2701 243.023C29.2923 238.875 31.2246 234.686 32.8873 230.416C36.3475 221.51 38.8191 212.32 40.302 202.966C40.4368 202.234 39.1336 201.909 39.0438 202.682Z" fill="#E8E8E8"/>
<path d="M26.6417 217.199C27.136 223.665 27.855 230.091 28.7987 236.516C28.9335 237.289 30.1918 236.963 30.1019 236.191C29.1582 229.887 28.4392 223.543 27.9898 217.199C27.9449 216.427 26.5968 216.386 26.6417 217.199Z" fill="#E8E8E8"/>
<path d="M35.0418 224.479C38.6368 221.267 41.7375 217.647 44.3439 213.743C44.7932 213.052 43.6248 212.442 43.1755 213.133C40.614 216.956 37.6032 220.453 34.0981 223.625C33.469 224.154 34.4127 225.008 35.0418 224.479Z" fill="#E8E8E8"/>
<path d="M13.294 255.793C10.1933 251.767 7.58693 247.456 5.60968 242.861C4.71093 240.787 3.94699 238.631 3.31787 236.476C3.00331 235.337 2.68874 234.199 2.41912 233.019C2.23937 232.328 1.07099 227.814 2.68874 228.099C3.22799 228.18 3.63243 227.814 3.49762 227.367C2.37418 221.755 1.65518 216.102 1.43049 210.409C1.34062 207.806 1.29568 205.122 1.9248 202.601C2.23937 201.381 2.68874 199.957 3.58749 198.941C5.65461 196.663 7.81162 198.534 9.15974 200.242C15.6307 208.457 19.765 218.339 21.7422 228.221C21.8771 228.993 23.1802 228.668 23.0454 227.895C21.7872 221.755 19.7201 215.817 16.889 210.165C15.4061 207.237 13.7434 204.431 11.856 201.747C10.5977 199.957 8.97999 197.151 6.41855 196.663C0.801365 195.606 0.0823669 204.471 0.0374294 207.603C-0.0524456 214.353 0.846306 221.145 2.19443 227.773C2.46406 227.529 2.73368 227.285 3.00331 227.041C-2.38919 226.187 2.05962 237.371 2.73368 239.282C4.84574 245.423 8.03631 251.238 12.0807 256.525C12.6199 257.053 13.7883 256.443 13.294 255.793Z" fill="#E8E8E8"/>
<path d="M4.44276 197.923C9.47576 212.035 13.7448 226.39 17.2499 240.867C17.4297 241.64 18.7329 241.315 18.5531 240.542C15.048 226.065 10.7789 211.709 5.74595 197.598C5.47632 196.866 4.17314 197.191 4.44276 197.923Z" fill="#E8E8E8"/>
<path d="M1.16202 216.793C6.50958 218.867 10.8685 222.405 13.6546 227C14.0591 227.692 15.2275 227.082 14.823 226.39C11.9021 221.592 7.40833 217.891 1.83608 215.736C1.0272 215.451 0.35314 216.508 1.16202 216.793Z" fill="#E8E8E8"/>
<path d="M13.6972 206.422C12.5288 210.448 11.8098 214.515 11.5402 218.663C11.4952 219.436 12.8433 219.436 12.8883 218.663C13.113 214.637 13.832 210.652 15.0003 206.748C15.225 205.975 13.9218 205.65 13.6972 206.422Z" fill="#E8E8E8"/>
<path d="M557.532 257.256C553.982 249.448 552.948 240.948 554.746 232.652C554.521 232.815 554.296 232.937 554.116 233.1C555.15 232.937 555.914 233.344 556.453 234.36C556.678 234.93 557.846 234.93 557.756 234.198C557.352 230.619 557.352 227 557.846 223.421C558.116 221.632 558.475 219.883 558.97 218.134C559.194 217.321 559.464 216.508 559.734 215.694C559.913 215.247 560.048 214.759 560.228 214.312C560.542 213.661 560.722 212.97 560.722 212.238C561.082 212.441 561.486 212.644 561.846 212.848C563.373 205.406 567.373 198.696 573.305 193.409C572.99 193.409 572.676 193.409 572.361 193.409C574.428 195.402 574.518 198.248 574.833 200.81C575.147 203.494 575.372 206.178 575.507 208.862C575.821 214.108 575.821 219.395 575.507 224.641C574.922 235.499 573.08 246.235 570.024 256.727C569.8 257.5 571.103 257.825 571.327 257.052C574.518 245.95 576.405 234.564 576.9 223.096C577.169 217.321 577.034 211.546 576.585 205.812C576.271 201.705 576.63 195.808 573.26 192.555C572.99 192.311 572.541 192.311 572.316 192.555C566.205 197.964 562.07 204.918 560.497 212.522C560.363 213.092 561.127 213.58 561.621 213.132C561.711 213.051 561.756 213.01 561.846 212.929C562.025 212.766 562.115 212.563 562.025 212.319C561.666 211.384 560.722 211.099 559.913 211.872C559.329 212.4 559.104 213.336 558.835 214.027C558.296 215.41 557.846 216.792 557.442 218.216C556.004 223.462 555.644 228.87 556.273 234.238C556.723 234.198 557.172 234.116 557.577 234.076C556.947 232.652 555.689 231.798 553.937 231.92C553.667 231.92 553.352 232.083 553.307 232.368C551.51 240.867 552.454 249.61 556.094 257.622C556.588 258.272 557.891 257.988 557.532 257.256Z" fill="#E8E8E8"/>
<path d="M577.573 224.439C578.742 217.2 581.932 210.287 586.965 204.512C588.178 203.129 589.437 201.869 590.83 200.649C591.729 199.876 593.751 197.68 595.144 199.51C595.683 200.201 595.638 201.34 595.638 202.153C595.593 206.098 595.009 210.124 594.335 214.069C591.773 229.319 585.752 243.999 576.719 257.094C576.27 257.745 577.438 258.395 577.888 257.704C586.111 245.707 591.863 232.45 594.829 218.583C595.548 215.248 596.087 211.913 596.447 208.538C596.762 205.813 597.705 202.113 596.582 199.469C594.2 193.776 587.145 202.316 585.437 204.309C580.539 210.083 577.394 216.915 576.27 224.113C576.18 224.886 577.483 225.211 577.573 224.439Z" fill="#E8E8E8"/>
<path d="M576.809 221.388C576.27 228.261 575.236 235.052 573.708 241.803C573.529 242.575 574.832 242.901 575.012 242.128C576.584 235.296 577.618 228.383 578.157 221.388C578.202 220.615 576.854 220.615 576.809 221.388Z" fill="#E8E8E8"/>
<path d="M594.156 198.452C586.516 217.85 579.146 237.288 572.001 256.849C571.732 257.581 573.035 257.906 573.305 257.174C580.405 237.614 587.774 218.175 595.459 198.777C595.728 198.045 594.425 197.72 594.156 198.452Z" fill="#E8E8E8"/>
<path d="M572.136 193.898C568.631 215.045 565.081 236.151 561.576 257.297C561.441 258.07 562.745 258.395 562.879 257.623C566.384 236.476 569.935 215.37 573.44 194.223C573.574 193.451 572.271 193.085 572.136 193.898Z" fill="#E8E8E8"/>
<path d="M560.361 211.994C561.844 220.208 563.327 228.382 564.81 236.597C564.945 237.37 566.248 237.044 566.113 236.272C564.63 228.057 563.147 219.883 561.665 211.668C561.53 210.896 560.227 211.221 560.361 211.994Z" fill="#E8E8E8"/>
<path d="M575.506 205.732C572.496 210.368 569.934 215.207 567.822 220.25C567.507 220.982 568.811 221.307 569.125 220.575C571.192 215.654 573.709 210.896 576.675 206.382C577.124 205.65 575.956 205.04 575.506 205.732Z" fill="#E8E8E8"/>
<path d="M581.168 210.53C581.168 217.524 581.168 224.56 581.168 231.554C581.168 232.327 582.516 232.327 582.516 231.554C582.516 224.56 582.516 217.524 582.516 210.53C582.516 209.757 581.168 209.757 581.168 210.53Z" fill="#E8E8E8"/>
<path d="M160.376 273.482C163.342 271.774 166.892 271.245 170.262 272.18C173.183 272.994 175.61 274.092 178.755 273.97C181.676 273.848 184.507 273.156 187.428 272.994C189.001 272.912 190.574 272.953 192.102 273.441C193.63 273.929 194.708 274.661 196.326 274.742C197.18 274.783 197.18 273.563 196.326 273.522C194.484 273.441 192.911 272.262 191.113 271.936C189.675 271.692 188.192 271.692 186.709 271.814C183.564 272.099 180.463 272.912 177.317 272.75C174.037 272.587 171.251 270.798 168.015 270.513C165.049 270.269 162.173 271.001 159.702 272.424C158.983 272.831 159.657 273.888 160.376 273.482Z" fill="#E8E8E8"/>
<path d="M274.606 270.026C279.1 269.904 283.594 269.741 288.042 269.619C290.244 269.538 292.536 269.334 294.738 269.497C296.581 269.619 297.974 270.554 299.681 270.92C301.074 271.205 302.422 271.002 303.815 270.717C306.197 270.229 308.534 269.782 311.005 269.7C315.275 269.497 319.544 269.944 323.768 270.392C324.622 270.473 324.622 269.253 323.768 269.172C319.544 268.724 315.275 268.277 311.005 268.48C308.983 268.562 306.961 268.806 304.984 269.212C302.602 269.7 300.76 270.066 298.468 269.131C295.143 267.83 291.637 268.277 288.132 268.399C283.639 268.521 279.145 268.684 274.696 268.806C273.752 268.846 273.752 270.066 274.606 270.026Z" fill="#E8E8E8"/>
<path d="M436.112 310.976C440.651 311.586 445.1 310.814 449.549 310.041C452.29 309.553 455.031 309.065 457.862 308.984C460.648 308.902 463.254 309.472 465.951 310.041C468.287 310.529 470.534 310.732 472.916 310.488C475.298 310.204 477.59 309.634 479.971 309.39C485.139 308.821 489.992 311.098 495.16 310.814C496.014 310.773 496.014 309.553 495.16 309.594C490.352 309.838 485.858 307.804 481.05 308.048C478.758 308.17 476.556 308.699 474.264 309.065C471.208 309.553 468.512 309.35 465.501 308.699C461.008 307.682 456.828 307.601 452.245 308.333C446.987 309.146 441.774 310.488 436.427 309.797C435.618 309.675 435.258 310.854 436.112 310.976Z" fill="#E8E8E8"/>
<path d="M560.678 271.49C569.665 268.765 579.417 271.327 588.674 270.188C591.28 269.863 593.932 269.456 596.583 269.66C598.785 269.822 600.852 270.595 603.009 270.798C605.256 270.961 607.458 270.392 609.66 270.188C612.401 269.944 615.097 270.107 617.794 270.554C618.647 270.717 619.007 269.538 618.153 269.375C615.906 269.009 613.614 268.806 611.323 268.846C608.896 268.928 606.559 269.538 604.133 269.578C601.841 269.619 599.684 268.724 597.392 268.48C594.92 268.196 592.449 268.48 589.977 268.765C584.72 269.416 579.687 269.375 574.429 269.131C569.621 268.928 564.857 268.887 560.274 270.31C559.51 270.554 559.824 271.734 560.678 271.49Z" fill="#E8E8E8"/>
<path d="M189 302.925C226.073 302.925 263.192 302.925 300.265 302.925C301.119 302.925 301.119 301.705 300.265 301.705C263.192 301.705 226.073 301.705 189 301.705C188.146 301.705 188.146 302.925 189 302.925Z" fill="#161616"/>
<path d="M292.49 309.553C311.544 309.553 330.553 309.553 349.606 309.553C350.46 309.553 350.46 308.333 349.606 308.333C330.553 308.333 311.544 308.333 292.49 308.333C291.592 308.333 291.592 309.553 292.49 309.553Z" fill="#161616"/>
<path d="M437.414 290.115C457.411 290.115 477.453 290.115 497.45 290.115C498.304 290.115 498.304 288.895 497.45 288.895C477.453 288.895 457.411 288.895 437.414 288.895C436.56 288.895 436.56 290.115 437.414 290.115Z" fill="#161616"/>
<path d="M520.367 291.904C532.23 291.904 544.139 291.904 556.002 291.904C556.856 291.904 556.856 290.684 556.002 290.684C544.139 290.684 532.23 290.684 520.367 290.684C519.513 290.684 519.513 291.904 520.367 291.904Z" fill="#161616"/>
<path d="M31.8513 279.541C53.0169 279.541 74.1375 279.541 95.303 279.541C96.1569 279.541 96.1569 278.321 95.303 278.321C74.1375 278.321 53.0169 278.321 31.8513 278.321C30.9975 278.321 30.9975 279.541 31.8513 279.541Z" fill="#161616"/>
<path d="M92.3825 275.109C104.111 275.109 115.795 275.109 127.524 275.109C128.377 275.109 128.377 273.889 127.524 273.889C115.795 273.889 104.111 273.889 92.3825 273.889C91.5287 273.889 91.5287 275.109 92.3825 275.109Z" fill="#161616"/>
<path d="M294.018 285.032C309.386 285.032 324.71 285.032 340.079 285.032C340.933 285.032 340.933 283.812 340.079 283.812C324.71 283.812 309.386 283.812 294.018 283.812C293.119 283.812 293.119 285.032 294.018 285.032Z" fill="#161616"/>
<path d="M492.1 74.2563C492.28 71.125 498.841 74.2563 500.684 73.9716C503.11 73.6056 503.649 71.1656 506.436 71.6943C508.143 72.0196 509.761 72.7516 511.558 72.589C512.727 72.467 513.581 71.857 514.704 71.5723C516.457 71.125 518.209 71.613 519.512 72.7516C520.141 73.2803 521.085 72.4263 520.456 71.8976C518.479 70.1896 516.007 69.8236 513.491 70.6776C511.379 71.4096 510.12 71.3283 508.008 70.759C506.975 70.4743 505.896 70.1896 504.818 70.3116C503.56 70.4743 503.065 71.0436 502.211 71.735C499.65 73.7276 497.808 71.8976 495.111 71.5316C493.044 71.247 490.932 72.1823 490.797 74.2563C490.707 75.0696 492.056 75.0696 492.1 74.2563Z" fill="#FFCC4D"/>
<path d="M499.787 68.0747C500.146 65.3907 505.359 67.6681 506.887 67.7901C508.954 67.9527 509.448 66.8954 510.931 65.9194C513.672 64.0894 515.65 66.4074 518.391 66.2854C519.155 66.2447 519.559 65.8381 520.188 65.5127C521.941 64.6181 523.649 64.4147 525.221 65.7567C525.85 66.2854 526.794 65.4314 526.165 64.9027C524.323 63.3574 522.121 63.2354 519.919 64.1301C518.93 64.5367 519.514 64.9841 517.807 64.9841C516.953 64.9841 515.874 64.3741 515.021 64.1707C513.807 63.8861 512.549 63.7234 511.336 64.1707C509.358 64.9027 509.269 66.692 506.482 66.4887C505.089 66.4074 503.876 65.6347 502.438 65.5534C500.506 65.4314 498.618 66.1634 498.349 68.0341C498.304 68.8474 499.652 68.8474 499.787 68.0747Z" fill="#FFCC4D"/>
<path d="M73.4189 215.166C75.2613 213.946 76.8342 213.377 78.9912 214.312C79.845 214.678 80.6538 215.085 81.5975 215.248C83.5748 215.532 85.3723 214.638 87.1248 213.946C88.7426 213.296 90.0907 212.93 91.7983 213.743C92.742 214.19 93.506 214.8 94.5845 214.963C96.7415 215.329 99.932 213.458 101.64 214.963C102.269 215.492 103.212 214.638 102.583 214.109C100.921 212.645 98.8985 213.336 96.8313 213.662C95.4383 213.865 94.5395 213.824 93.2813 213.174C92.6971 212.848 92.1578 212.442 91.4838 212.238C90.585 211.954 89.6863 211.913 88.7426 212.076C87.5293 212.32 86.4058 212.889 85.2375 213.336C83.1254 214.15 81.7323 214.109 79.5753 213.255C76.8341 212.116 75.0816 212.482 72.61 214.109C72.0708 214.556 72.7448 215.614 73.4189 215.166Z" fill="#FFCC4D"/>
<path d="M86.4064 208.863C89.4622 205.772 94.6749 209.351 98.4497 208.619C99.8427 208.334 100.741 207.928 102.179 208.375C103.033 208.66 103.752 209.188 104.606 209.473C106.269 210.002 107.842 209.758 109.369 209.107C110.133 208.782 109.459 207.724 108.695 208.05C105.55 209.432 104.157 207.277 101.416 206.87C100.562 206.748 99.8877 206.952 99.0788 207.196C97.5509 207.602 96.3825 207.643 94.7648 207.318C91.6191 206.708 87.9343 205.488 85.3728 208.05C84.8785 208.578 85.8222 209.432 86.4064 208.863Z" fill="#FFCC4D"/>
<path d="M267.259 56.2409C263.754 53.8416 266.09 48.4736 270.584 49.3682C272.427 49.7342 273.999 51.0762 273.999 52.8656C273.999 54.9802 272.022 56.8509 269.73 56.9729C268.876 57.0136 268.876 58.2336 269.73 58.1929C272.606 58.0709 275.033 55.9969 275.347 53.3942C275.617 50.8729 273.595 48.7582 270.944 48.2296C264.877 46.9689 261.956 54.1669 266.585 57.3389C267.259 57.7862 267.933 56.7289 267.259 56.2409Z" fill="#FFCC4D"/>
<path d="M47.1305 172.141C44.8836 169.905 46.9957 165.919 50.4559 166.773C54.6351 167.79 53.5566 173.117 49.3774 173.077C48.5236 173.077 48.5236 174.297 49.3774 174.297C51.8939 174.297 54.1857 172.589 54.5452 170.311C54.9047 168.197 53.3319 166.367 51.1749 165.675C46.2767 164.13 42.8614 169.701 46.1868 172.995C46.771 173.565 47.7147 172.711 47.1305 172.141Z" fill="#EC615B"/>
<path d="M278.874 159.412C277.212 160.51 275.953 161.974 275.414 163.763C274.785 165.878 276.403 168.846 274.83 170.432C273.841 171.449 272.134 172.14 271.684 173.523C271.505 174.011 271.549 174.458 271.729 174.946C271.954 175.638 272.268 175.76 272.268 176.492C272.268 177.712 271.1 178.24 269.977 178.769C269.213 179.135 269.887 180.192 270.651 179.826C272.089 179.135 273.931 177.996 273.796 176.329C273.706 175.272 272.583 174.621 273.212 173.482C273.617 172.791 274.65 172.262 275.234 171.734C276.358 170.798 277.122 169.822 276.942 168.399C276.717 166.854 276.223 165.674 276.672 164.088C277.122 162.584 278.11 161.364 279.503 160.469C280.222 160.022 279.548 158.964 278.874 159.412Z" fill="#EC615B"/>
<path d="M285.48 163.479C281.66 163.153 281.211 167.423 281.391 169.904C281.481 171.287 281.57 172.669 280.627 173.808C280.132 174.377 279.413 174.825 279.099 175.516C278.829 176.126 279.009 176.614 279.144 177.265C279.548 179.257 278.335 180.559 276.852 181.86C276.223 182.429 277.167 183.283 277.796 182.714C278.964 181.657 280.312 180.437 280.627 178.891C280.762 178.159 280.447 177.59 280.447 176.899C280.447 175.638 281.301 175.191 281.93 174.296C282.919 172.995 282.874 171.409 282.739 169.904C282.604 168.155 282.469 164.455 285.48 164.699C286.379 164.78 286.334 163.56 285.48 163.479Z" fill="#EC615B"/>
<path d="M289.569 13.0936C289.749 10.2876 294.962 11.3449 296.894 10.4096C298.287 9.71825 299.096 8.45759 299.86 7.27826C300.309 6.58692 300.714 5.81425 301.298 5.20425C302.466 3.98425 303.814 4.14692 305.432 4.02492C307.544 3.86226 309.252 2.92691 310.555 1.42225C311.094 0.812245 310.151 -0.0417451 309.611 0.568255C308.353 2.03226 306.78 2.72358 304.758 2.84558C303.769 2.88625 302.826 2.84558 301.882 3.25225C300.174 4.02491 299.366 5.69225 298.467 7.11558C297.748 8.21358 297.074 9.10825 295.726 9.55558C294.422 10.0029 292.94 9.75892 291.591 10.0436C289.794 10.4096 288.401 11.4263 288.266 13.1343C288.176 13.8663 289.524 13.8663 289.569 13.0936Z" fill="#EC615B"/>
<path d="M293.524 18.1764C294.872 16.1838 297.613 15.6958 299.77 14.7198C301.702 13.8658 302.691 12.7678 303.275 10.8971C304.129 8.00977 306.6 8.37577 309.342 8.00977C311.004 7.76577 312.352 7.27777 313.026 5.7731C313.341 5.0411 312.038 4.71577 311.723 5.44777C310.869 7.27777 307.499 6.83043 305.702 7.19643C303.859 7.52177 302.601 8.29443 302.062 9.96176C301.567 11.4664 301.388 12.4018 299.86 13.2558C298.916 13.7844 297.838 14.1504 296.804 14.5571C295.007 15.2484 293.344 16.0211 292.31 17.5664C291.906 18.2171 293.074 18.8271 293.524 18.1764Z" fill="#EC615B"/>
<path d="M496.058 204.755C494.979 201.746 498.394 198.655 501.63 200.485C505.18 202.478 503.203 207.033 499.248 206.951C498.395 206.911 498.395 208.131 499.248 208.171C504.281 208.334 506.933 202.519 502.709 199.713C498.574 196.947 493.272 200.851 494.755 205.121C495.024 205.853 496.327 205.528 496.058 204.755Z" fill="#EC615B"/>
<path d="M284.355 244.894C283.097 242.779 284.445 239.688 287.456 240.095C288.669 240.258 289.838 241.071 289.838 242.291C289.838 243.47 288.804 244.65 287.456 244.69C286.602 244.731 286.602 245.951 287.456 245.91C291.68 245.748 292.444 240.339 288.49 239.078C284.131 237.736 281.255 242.21 283.187 245.504C283.636 246.195 284.805 245.585 284.355 244.894Z" fill="#EC615B"/>
<path d="M475.341 6.13991C474.038 4.83858 475.925 3.00858 477.543 3.86258C479.565 4.96058 478.352 7.19725 476.465 7.64458C475.611 7.84792 475.97 9.02725 476.824 8.82391C480.105 8.09191 481.228 3.90325 477.723 2.60192C474.757 1.50392 472.24 4.87925 474.353 6.99391C474.982 7.60391 475.925 6.74991 475.341 6.13991Z" fill="#EC615B"/>
<path d="M387.392 13.0373C384.786 11.8173 386.359 8.076 389.28 8.84866C392.695 9.74333 391.527 13.7287 388.516 14.298C387.662 14.4607 388.021 15.64 388.875 15.4773C393.369 14.5827 394.223 8.56399 389.28 7.58799C385.011 6.73399 382.854 12.2647 386.673 14.054C387.482 14.4607 388.156 13.4033 387.392 13.0373Z" fill="#FFCC4D"/>
<path d="M350.005 282.224C350.185 287.511 350.32 292.798 350.5 298.084C331.941 303.046 322.818 306.299 323.133 307.844C323.537 309.796 338.412 309.146 367.756 305.892C367.127 296.864 366.498 287.796 365.823 278.768C360.566 279.906 355.308 281.045 350.005 282.224Z" fill="#161616" stroke="#161616" stroke-width="2" stroke-miterlimit="10"/>
<path d="M408.738 177.996C406.042 178.728 406.626 179.013 392.066 189.139C376.653 199.834 368.969 205.202 363.621 207.927C360.52 209.513 358.004 210.651 354.903 213.254C349.78 217.605 347.174 222.567 345.152 227.406C338.86 242.493 337.917 256.93 337.737 263.355C337.557 269.293 337.692 277.67 339.265 287.715C344.118 288.772 348.162 289.056 351.038 289.097C356.027 289.178 363.127 289.26 370.496 285.844C372.653 284.827 374.316 283.77 375.35 283.079C374.047 276.125 373.058 267.381 373.552 257.337C373.957 249.244 375.17 242.127 376.608 236.231C378.99 234.604 382.63 232.286 387.348 229.968C392.785 227.325 398.223 225.373 413.232 221.387C431.207 216.629 431.836 217.158 434.487 215.125C441.363 209.919 446.306 199.427 442.441 190.318C437.408 178.321 419.703 175.109 408.738 177.996Z" fill="white"/>
<path d="M401.817 182.103C393.504 187.349 385.235 192.636 376.922 197.882C369.552 202.559 361.643 206.951 354.902 212.441C348.431 217.687 344.836 224.234 342.5 231.717C339.938 240.013 338.275 248.593 337.422 257.174C336.433 267.056 336.658 276.979 337.916 286.82C338.006 287.593 339.354 287.593 339.264 286.82C337.062 269.984 338.141 252.863 342.544 236.434C344.657 228.504 347.443 220.859 353.959 214.962C360.25 209.269 368.159 204.958 375.394 200.363C384.426 194.629 393.459 188.895 402.491 183.161C403.21 182.713 402.536 181.656 401.817 182.103Z" fill="#161616"/>
<path d="M427.298 216.589C417.412 219.151 407.661 221.998 398.044 225.251C393.82 226.674 389.506 228.098 385.372 229.765C381.956 231.148 378.766 232.896 376.789 235.865C376.339 236.556 377.508 237.166 377.957 236.475C380.114 233.181 383.979 231.554 387.708 230.172C392.022 228.586 396.381 227.081 400.785 225.617C409.638 222.689 418.58 220.086 427.613 217.768C428.467 217.565 428.107 216.386 427.298 216.589Z" fill="#161616"/>
<path d="M377.372 229.764C372.699 247.047 371.845 265.022 374.856 282.59C374.99 283.363 376.294 283.037 376.159 282.265C373.193 264.9 374.047 247.129 378.675 230.089C378.855 229.317 377.552 228.991 377.372 229.764Z" fill="#161616"/>
<path d="M338.5 286.779C338.725 289.056 342.635 288.69 344.342 288.853C348.477 289.219 352.611 289.504 356.79 289.3C363.531 288.975 370.136 287.267 375.439 283.363C376.113 282.875 375.169 282.021 374.495 282.509C369.957 285.844 364.339 287.47 358.587 287.958C355.622 288.202 352.656 288.202 349.69 288.04C348.611 287.999 339.938 287.796 339.849 286.779C339.759 286.006 338.411 286.006 338.5 286.779Z" fill="#161616"/>
<path opacity="0.11" d="M426.895 202.884C420.694 200.037 413.594 207.317 396.068 214.555C381.733 220.493 378.183 219.029 372.566 222.119C362.68 227.528 353.917 242.941 360.208 287.715C361.601 287.715 363.219 287.593 365.016 287.267C369.735 286.373 373.105 284.339 375.127 282.916C373.554 274.01 372.611 262.786 374.139 249.976C374.768 244.567 375.756 239.606 376.925 235.133C381.194 232.896 387.845 229.683 396.383 226.674C417.099 219.313 429.951 219.761 432.018 213.173C433.097 209.472 430.58 204.551 426.895 202.884Z" fill="#666666"/>
<path opacity="0.12" d="M422.355 217.971C422.13 216.873 407.57 217.442 392.291 222.078C382.54 225.006 377.237 226.633 372.609 231.228C365.239 238.467 364.835 247.78 364.25 260.712C363.981 266.852 364.161 275.718 366.542 286.332C369.508 285.478 372.429 284.664 375.395 283.81C374.272 276.246 373.553 267.137 374.137 256.848C374.586 249.162 375.62 242.29 376.923 236.271C378.226 235.01 380.203 233.221 382.989 231.472C389.056 227.609 394.403 226.633 400.695 225.088C408.828 223.014 422.579 219.028 422.355 217.971Z" fill="#666666"/>
<path d="M497.715 254.532C507.511 251.644 515.825 250.018 521.891 249.042C530.564 247.659 532.586 247.944 534.204 249.042C536.99 250.912 536.406 253.678 537.44 270.92C537.799 276.573 537.979 277.996 536.721 279.745C532.452 285.886 518.251 285.601 517.173 282.917C516.768 281.86 518.116 279.908 524.857 275.963C524.632 272.1 524.408 268.236 524.138 264.373C516.454 266.04 508.769 267.748 501.13 269.416C500.052 264.495 498.883 259.534 497.715 254.532Z" fill="#161616" stroke="#161616" stroke-width="2" stroke-miterlimit="10"/>
<path d="M419.209 184.503C416.243 190.807 418.355 197.557 419.344 200.729C420.467 204.389 421.546 204.877 423.343 209.798C425.276 215.085 425.86 218.907 426.669 223.503C427.837 230.213 429.185 237.858 431.297 245.503C433.904 254.938 435.342 259.777 439.656 265.023C441.543 267.341 445.992 272.547 453.811 275.312C455.294 275.841 457.271 276.41 462.169 276.979C467.562 277.63 475.92 278.606 486.975 277.386C496.412 276.369 504.276 274.092 510.163 271.937C511.331 268.033 511.286 264.779 511.106 262.705C510.837 260.103 510.387 255.263 506.478 251.156C505.354 249.977 503.692 248.269 500.905 247.374C497.85 246.439 495.109 247.049 490.255 248.228C484.638 249.57 482.571 251.034 478.886 250.343C477.313 250.058 476.145 249.489 475.426 249.082C474.347 247.577 472.864 245.3 471.471 242.372C467.831 234.727 467.562 228.586 467.068 221.835C465.944 206.626 465.36 199.021 462.664 190.603C459.833 181.779 459.024 177.346 454.8 174.662C450.441 171.897 445.498 172.1 442.442 172.222C434.937 172.507 423.343 175.76 419.209 184.503Z" fill="white"/>
<path d="M456.958 177.468C464.328 191.458 464.912 207.155 466.53 222.283C467.698 233.222 468.732 248.228 481 254.003C481.764 254.369 482.438 253.312 481.674 252.946C475.383 249.977 472.237 244.121 470.485 238.143C468.597 231.596 468.103 224.723 467.474 217.972C466.126 203.983 464.912 189.709 458.172 176.818C457.767 176.126 456.599 176.736 456.958 177.468Z" fill="#161616"/>
<path d="M420.424 205.325C428.333 221.551 426.355 240.055 434.04 256.321C437.095 262.828 441.679 268.928 448.195 272.954C456.104 277.793 466.395 278.769 475.697 278.647C487.425 278.485 498.974 276.045 509.849 272.181C510.658 271.897 510.299 270.717 509.49 271.002C500.008 274.377 490.032 276.695 479.831 277.265C470.124 277.834 459.07 277.387 450.487 272.832C435.433 264.821 431.433 247.619 429.007 233.263C427.389 223.544 425.951 213.743 421.502 204.675C421.232 204.024 420.064 204.634 420.424 205.325Z" fill="#161616"/>
<path d="M474.57 249.286C482.704 253.596 492.006 245.3 500.589 247.822C505.353 249.245 507.689 253.881 508.993 257.948C510.431 262.34 510.61 266.935 509.622 271.408C509.442 272.181 510.745 272.506 510.925 271.734C511.824 267.504 511.779 263.153 510.7 258.964C509.667 255.142 507.869 250.79 504.319 248.269C501.039 245.91 496.68 245.87 492.725 246.561C487.423 247.496 480.457 251.034 475.244 248.269C474.481 247.862 473.806 248.879 474.57 249.286Z" fill="#161616"/>
<path opacity="0.11" d="M450.305 176.94C442.755 183.65 457.989 198.412 458.259 223.218C458.483 242.616 453.406 250.668 460.236 257.175C470.032 266.488 492.187 261.12 494.613 260.51C498.478 259.534 506.746 258.11 507.42 254.328C507.825 251.848 504.949 249.042 502.028 247.659C493.13 243.389 484.817 252.824 476.998 249.733C471.111 247.374 469.808 239.566 467.336 225.048C465.314 213.133 466.572 210.612 464.191 197.517C462.438 187.879 460.191 175.842 454.799 175.15C452.642 174.825 450.664 176.574 450.305 176.94Z" fill="#666666"/>
<path opacity="0.17" d="M462.53 192.881C461.811 192.922 461.766 200.73 461.676 210.368C461.451 237.736 463.159 243.552 467.068 248.676C468.686 250.79 471.742 254.694 477.314 256.89C489.627 261.811 505.984 255.345 506.029 251.238C506.029 249.164 501.85 247.618 501.176 247.374C496.907 245.829 493.626 247.334 484.953 248.676C481.358 249.245 478.303 249.53 476.146 249.692C474.528 247.862 472.281 245.016 470.484 241.193C467.023 233.995 467.293 228.139 467.068 221.917C466.574 206.545 463.428 192.84 462.53 192.881Z" fill="#666666"/>
<path d="M295.543 125.088C295.633 124.153 298.014 123.665 299.452 123.38C305.339 122.201 310.417 123.096 311.765 123.584C314.282 124.478 316.798 125.373 319.36 126.268C319.495 125.576 319.899 124.112 321.202 123.014C323.539 121.103 326.864 121.835 327.763 122.079C328.931 122.364 330.774 123.014 333.919 126.105C337.155 129.277 337.604 130.904 339.447 132.978C343.716 137.776 350.142 139.037 353.377 139.647C356.208 140.216 361.916 141.314 368.342 138.874C374.004 136.719 377.194 132.937 378.587 131.229C379.936 129.562 380.385 128.586 383.081 123.014C388.564 111.668 390.316 108.171 394.136 104.674C396.203 102.762 398.719 100.526 401.326 101.054C404.516 101.705 405.864 106.219 406.449 108.13C407.078 110.245 407.887 114.271 406.044 121.306C405.415 123.746 403.258 130.944 397.012 138.874C394.405 142.209 390.765 146.723 384.294 150.546C381.463 152.213 376.835 154.897 370.139 155.71C364.207 156.442 359.669 155.344 355.804 154.368C351.535 153.311 344.435 150.952 336.93 145.381C332.122 145.584 328.437 145.869 325.876 146.154C321.517 146.601 319.674 146.967 317.697 145.95C317.023 145.584 316.034 144.934 314.641 145.015C313.338 145.096 312.889 145.747 311.765 145.95C310.507 146.194 308.44 145.991 307.272 144.608C306.328 143.51 306.418 142.128 306.463 141.68C305.699 141.07 304.485 139.932 303.901 138.224C303.497 137.044 303.542 136.068 303.542 134.97C303.587 133.669 303.587 133.018 303.946 132.49C304.98 130.863 307.946 130.944 308.395 130.985C306.957 130.009 305.654 129.48 304.845 129.196C302.059 128.179 300.576 128.504 298.014 127.244C296.981 126.674 295.453 125.902 295.543 125.088Z" fill="white"/>
<path d="M401.731 100.526C397.821 99.1839 394.9 102.153 392.833 104.796C389.733 108.741 387.081 112.97 384.834 117.362C380.61 125.739 377.734 135.499 369.061 141.111C368.342 141.559 369.016 142.616 369.735 142.169C376.746 137.573 380.251 130.375 383.441 123.34C385.374 119.111 387.441 114.963 389.957 111.018C391.215 109.107 392.519 107.195 393.957 105.406C395.664 103.251 397.956 100.567 401.326 101.705C402.18 101.99 402.54 100.811 401.731 100.526Z" fill="#161616"/>
<path d="M323.135 127C321.203 127.569 320.439 125.414 321.023 124.234C321.473 123.299 322.641 122.811 323.63 122.526C325.517 122.038 327.674 122.364 329.427 123.136C332.348 124.438 334.01 127.081 335.808 129.44C338.953 133.588 343.133 136.922 348.211 138.956C358.321 142.982 370.14 140.826 377.914 133.75C378.543 133.181 377.555 132.327 376.971 132.896C371.668 137.776 364.163 140.379 356.614 139.728C348.885 139.078 341.874 135.011 337.381 129.358C334.055 125.088 329.876 119.354 323.001 121.428C321.068 121.998 319.181 123.543 319.495 125.536C319.765 127.325 321.563 128.748 323.54 128.138C324.304 127.935 323.944 126.756 323.135 127Z" fill="#161616"/>
<path d="M318.461 125.333C314.866 123.706 311.091 122.446 307.092 122.08C303.587 121.754 298.688 121.876 295.812 124.032C293.206 125.984 296.621 127.244 298.464 127.936C302.688 129.522 307.451 130.01 311.541 131.921C312.305 132.287 312.979 131.23 312.215 130.864C309.698 129.684 307.002 129.115 304.306 128.424C302.868 128.058 301.475 127.651 300.082 127.163C299.318 126.919 297.79 126.634 297.206 126.065C296.172 125.089 297.475 124.479 298.464 124.154C304.71 121.836 312.08 123.788 317.832 126.39C318.551 126.716 319.225 125.658 318.461 125.333Z" fill="#161616"/>
<path d="M311.225 131.148C309.293 130.09 306.866 129.968 304.934 131.066C303.361 131.92 302.058 133.791 302.777 135.458C303.586 137.37 306.732 137.573 308.574 137.898C311.405 138.346 314.101 138.346 316.708 137.166C317.472 136.8 316.798 135.743 316.034 136.109C313.113 137.451 309.877 136.963 306.777 136.312C305.563 136.068 305.518 136.109 304.754 134.93C303.766 134.198 303.811 133.425 304.799 132.693C305.069 132.49 305.339 132.327 305.608 132.124C307.136 131.27 309.023 131.392 310.551 132.205C311.27 132.612 311.944 131.554 311.225 131.148Z" fill="#161616"/>
<path d="M303.495 136.15C302.596 138.387 303.765 140.705 306.056 141.803C309.022 143.226 312.393 142.169 315.224 141.152C316.033 140.867 315.673 139.688 314.864 139.973C312.977 140.664 310.91 141.396 308.843 141.233C306.146 141.03 303.765 139.037 304.798 136.475C305.068 135.743 303.765 135.418 303.495 136.15Z" fill="#161616"/>
<path d="M305.607 141.274C304.799 143.551 306.821 145.463 309.113 146.073C312.483 146.927 315.179 145.219 317.606 143.307C318.28 142.779 317.291 141.925 316.662 142.453C315.134 143.633 313.561 144.893 311.494 145.056C309.427 145.219 306.012 144.08 306.911 141.599C307.18 140.867 305.877 140.542 305.607 141.274Z" fill="#161616"/>
<path d="M313.429 133.303C314.777 133.71 316.844 134.808 315.765 136.313C315.316 136.963 316.484 137.573 316.934 136.923C317.563 136.028 317.518 134.849 316.844 133.954C316.17 132.978 314.956 132.449 313.743 132.124C312.934 131.88 312.575 133.059 313.429 133.303Z" fill="#161616"/>
<path d="M315.36 137.451C316.303 138.387 315.899 139.851 314.551 140.217C313.742 140.42 314.057 141.599 314.91 141.396C317.292 140.786 317.966 138.183 316.348 136.557C315.719 136.028 314.776 136.882 315.36 137.451Z" fill="#161616"/>
<path d="M315.991 140.46C316.89 140.908 317.025 142.128 316.306 142.738C315.677 143.266 316.62 144.161 317.25 143.592C318.598 142.412 318.328 140.216 316.665 139.403C315.946 139.037 315.227 140.094 315.991 140.46Z" fill="#161616"/>
<path d="M317.563 126.308C318.551 126.715 319.54 127.162 320.529 127.569C321.292 127.894 322.011 126.837 321.203 126.512C320.214 126.105 319.225 125.658 318.237 125.251C317.473 124.926 316.799 125.983 317.563 126.308Z" fill="#161616"/>
<path d="M323.676 128.179C324.664 127.407 326.012 127.081 327.316 127.366C328.169 127.529 328.529 126.349 327.675 126.187C325.878 125.821 324.125 126.227 322.732 127.325C322.058 127.854 323.002 128.708 323.676 128.179Z" fill="#161616"/>
<path d="M324.436 129.643C323.178 133.018 324.661 136.76 328.031 138.59C328.795 138.996 329.469 137.939 328.705 137.532C325.829 135.987 324.661 132.774 325.739 129.968C326.009 129.196 324.706 128.87 324.436 129.643Z" fill="#161616"/>
<path d="M314.956 145.218C317.652 146.967 320.573 147.333 323.764 146.763C328.212 146.031 332.481 145.665 337.02 146.113C337.874 146.194 337.874 144.974 337.02 144.893C333.515 144.527 330.01 144.567 326.505 145.055C322.505 145.625 319.225 146.479 315.63 144.161C314.911 143.713 314.237 144.771 314.956 145.218Z" fill="#161616"/>
<path d="M335.853 145.585C342.279 148.35 348.211 152.051 354.862 154.328C360.973 156.402 367.669 156.809 374.05 155.386C380.611 153.922 385.913 150.424 390.542 146.073C395.35 141.6 399.664 136.557 402.72 130.904C406.315 124.316 408.068 116.996 407.169 109.676C407.079 108.904 405.731 108.904 405.821 109.676C406.809 117.728 404.518 125.74 400.114 132.734C396.024 139.241 390.227 145.748 383.442 150.14C376.611 154.532 367.759 155.996 359.58 154.328C351.222 152.62 344.166 147.781 336.482 144.487C335.763 144.202 335.089 145.26 335.853 145.585Z" fill="#161616"/>
<path opacity="0.16" d="M403.526 105.243C401.774 105.325 401.998 112.075 399.886 118.989C396.786 128.993 387.888 142.128 374.811 146.154C365.554 149.001 356.207 146.642 341.333 142.86C336.614 141.681 328.301 139.2 316.797 138.549C307.315 138.021 304.978 139.241 304.888 139.891C304.843 140.298 305.697 140.583 306.192 141.884C306.596 142.982 306.147 143.348 306.551 144.039C307.27 145.3 309.427 145.463 310.191 145.544C312.078 145.707 313.606 145.097 314.415 144.731C315.269 145.097 316.617 145.585 318.28 145.91C321.515 146.52 323.358 145.951 327.447 145.585C331.671 145.219 334.457 144.975 337.513 145.747C340.434 146.479 341.782 147.699 344.299 149.245C345.063 149.692 352.253 154.043 361.15 155.385C363.936 155.792 370.317 156.687 377.418 154.206C381.462 152.823 384.023 150.912 386.944 148.757C388.787 147.374 397.01 141.03 403.032 129.196C405.683 124.031 407.84 119.68 407.256 113.946C406.762 109.757 405.009 105.162 403.526 105.243Z" fill="#666666"/>
<path opacity="0.17" d="M317.517 141.68C319.674 140.704 322.19 141.518 323.179 141.843C328.796 143.592 329.335 142.372 337.828 143.51C344.839 144.446 345.108 146.276 354.32 148.96C363.173 151.562 370.318 153.636 377.373 151.603C387.394 148.716 392.023 139.566 392.382 139.85C392.742 140.094 388.698 148.96 379.036 153.108C370.273 156.89 361.151 154.978 358.545 154.45C354.32 153.555 350.905 152.091 347.175 150.464C342.816 148.594 339.401 146.642 336.93 145.178C333.784 145.056 331.312 145.3 329.605 145.503C325.426 146.072 323.673 146.926 320.258 146.479C319.359 146.357 315.629 145.869 315.315 144.324C315.135 143.307 316.348 142.209 317.517 141.68Z" fill="#666666"/>
<path d="M397.012 102.071C395.799 103.413 394.226 105.65 393.057 123.421C392.428 133.263 391.799 143.592 392.743 158.761C393.147 164.942 393.911 173.401 395.484 183.405C400.517 186.007 409.684 189.871 421.817 190.521C441.275 191.579 455.476 183.608 460.239 180.68C457.812 176.329 454.487 169.578 452.375 160.957C449.769 150.383 451.027 145.707 449.634 132.734C447.791 115.573 446.893 106.992 441.141 101.787C430.131 91.7826 405.955 92.108 397.012 102.071Z" fill="#D73F3B"/>
<path opacity="0.22" d="M421.504 94.751C424.694 99.0616 428.784 105.446 432.019 113.742C433.412 117.362 440.333 135.987 435.3 159.94C432.648 172.668 427.481 182.916 422.537 190.48C425.998 190.684 430.042 190.643 434.491 190.114C446.309 188.65 455.162 184.218 460.42 180.964C458.757 178.199 456.645 174.295 454.848 169.415C454.488 168.358 452.735 163.6 451.567 156.198C450.758 151.156 450.893 149.488 450.354 141.274C450.219 139.362 449.68 131.595 448.511 122.648C446.804 109.554 445.501 106.707 443.344 104.186C440.288 100.607 436.423 98.6957 434.716 97.8417C429.323 95.3203 424.29 94.8323 421.504 94.751Z" fill="#666666"/>
<path opacity="0.22" d="M448.555 125.292C447.881 131.88 446.982 138.671 445.904 145.666C443.432 161.445 440.152 176.125 436.422 189.586C439.478 189.22 443.387 188.488 447.656 186.983C453.229 185.031 457.408 182.429 460.239 180.395C454.262 170.879 452.195 162.909 451.431 157.215C450.667 151.481 450.937 145.951 449.454 132.449C449.094 129.44 448.78 126.959 448.555 125.292Z" fill="#666666"/>
<path d="M378.678 53.6785C377.78 55.6712 377.825 58.0299 377.825 62.7879C377.825 66.1632 377.87 70.8805 379.802 76.4519C381.285 80.7625 382.723 85.0732 387.172 88.8959C388.43 89.9939 393.867 94.6705 401.552 94.6705C403.035 94.6705 404.293 94.5079 405.102 94.3452C405.461 95.5652 406.225 97.2732 407.663 99.0219C408.427 99.9165 409.191 100.608 409.865 101.137C410.944 101.137 413.685 100.974 416.516 99.3472C419.212 97.7612 420.47 95.6872 420.92 94.7926C420.111 94.0606 417.999 91.9052 417.864 88.7739C417.819 87.9199 417.954 87.1879 418.089 86.5372C419.572 84.8292 421.144 82.5925 422.492 79.8679C423.167 78.5259 423.661 77.2652 424.11 76.0859C424.784 76.2486 426.132 76.4519 427.436 75.8826C428.829 75.2319 429.323 73.9712 429.907 72.4259C430.761 70.1486 431.705 67.5865 430.536 65.3092C429.413 63.1539 427.66 63.6419 426.132 61.6492C423.796 58.6805 426.087 55.6712 425.144 52.4179C423.706 47.4159 415.707 45.2605 412.606 44.4065C399.889 40.9905 382.633 44.8132 378.678 53.6785Z" fill="white"/>
<path d="M377.509 59.5345C378.632 59.6972 379.351 58.1111 381.104 56.5251C382.901 54.9391 385.912 53.2718 391.305 52.8245C395.709 52.4178 400.112 51.9705 404.516 51.5638C405.909 51.6451 409.1 51.9705 412.291 53.9631C414.852 55.5898 416.245 57.5418 416.919 58.5991C418.312 58.6398 419.66 58.7211 421.053 58.7618C421.323 60.2665 421.638 61.7711 421.907 63.2758C422.087 63.1131 424.514 61.1611 427.03 61.8931C429.052 62.4625 429.906 64.4145 430.266 65.3091C431.389 67.7898 430.625 69.7825 431.299 69.9451C432.108 70.1891 433.681 67.5051 433.861 67.1391C434.265 66.4478 435.568 64.0485 435.928 60.3071C436.197 57.2571 436.377 55.2238 435.074 53.3125C434.624 52.6618 434.175 52.2551 434.04 51.4418C433.816 49.8965 435.164 49.0425 435.928 47.5785C436.332 46.8058 436.422 46.0738 435.254 40.4618C433.995 34.4431 433.546 33.6298 432.872 33.4671C431.973 33.3045 431.164 34.4025 430.131 35.3378C428.333 37.0051 425.233 38.8351 419.481 39.5265C419.481 37.6965 419.211 36.2325 418.986 35.1751C418.582 33.5485 418.357 33.5485 416.919 29.7258C416.11 27.5705 415.931 26.6758 415.391 26.6351C414.493 26.5538 414.178 28.6278 412.066 29.3598C411.122 29.6851 410.763 29.4005 409.504 29.5631C408.381 29.6851 406.853 30.1325 405.101 31.4745C405.101 31.4745 402.404 33.1418 397.911 35.2158C392.923 37.4931 391.26 35.0125 386.092 37.0865C382.227 38.6318 379.891 41.3971 378.902 42.6578C377.913 43.9185 375.127 47.5785 375.127 52.6211C375.037 55.5085 375.936 59.3312 377.509 59.5345Z" fill="#161616"/>
<path d="M377.557 61.1606C376.793 68.0739 378.051 75.1092 381.286 81.4125C384.028 86.7399 388.387 92.0265 394.678 94.1412C401.104 96.2965 408.474 94.7106 413.821 91.0506C419.259 87.3092 422.674 81.7379 424.696 75.9225C424.966 75.1905 423.662 74.8652 423.393 75.5972C421.461 81.1279 418.225 86.4552 413.057 90.0339C407.71 93.6939 400.205 95.2392 393.959 92.5552C388.342 90.1559 384.567 85.1539 382.14 80.1519C379.219 74.1739 378.186 67.6266 378.905 61.1606C378.995 60.3879 377.646 60.3879 377.557 61.1606Z" fill="#161616"/>
<path d="M422.851 64.2111C423.481 61.7305 426.671 61.8118 428.289 63.3978C429.682 64.6991 429.996 66.6105 430.041 68.3591C430.131 71.2871 428.963 76.6958 424.334 75.3538C423.525 75.1098 423.166 76.2891 423.975 76.5331C430.536 78.4445 431.974 70.1891 431.165 66.2038C430.671 63.8858 429.008 61.4051 426.177 61.0798C424.02 60.8358 422.043 62.0558 421.548 63.9671C421.368 64.6178 422.672 64.9431 422.851 64.2111Z" fill="#161616"/>
<path d="M394.228 61.6488C393.195 63.6008 392.161 65.5122 391.172 67.4642C390.678 68.4808 390.139 69.4975 390.229 70.6768C390.453 73.0762 392.79 74.6622 395.217 75.1908C396.071 75.3942 396.43 74.2148 395.576 74.0115C392.655 73.3608 390.858 71.2462 392.116 68.5622C393.105 66.4475 394.273 64.3735 395.396 62.2588C395.756 61.5675 394.588 60.9575 394.228 61.6488Z" fill="#161616"/>
<path d="M387.665 66.9761C387.395 66.6914 387.215 66.3254 387.17 65.9594C387.125 65.7968 387.125 65.5934 387.17 65.4308C387.17 65.3088 387.395 64.9428 387.395 64.8614C387.305 64.8614 387.26 64.9021 387.17 64.9021C387.215 65.0241 387.215 65.1461 387.215 65.2681C387.215 65.4714 387.215 65.6748 387.215 65.8781C387.17 66.4068 387.036 66.8948 386.811 67.3828C387.17 67.3014 387.575 67.2201 387.934 67.0981C387.485 66.7321 387.305 66.3661 387.35 65.7968C387.44 65.0241 386.092 65.0241 386.002 65.7968C385.912 66.6101 386.272 67.4234 386.991 67.9521C387.395 68.2774 387.934 68.1148 388.114 67.6674C388.519 66.7321 388.698 65.6748 388.519 64.6988C388.384 64.0074 387.755 63.3161 386.946 63.6414C386.182 63.9261 385.867 64.9021 385.867 65.6341C385.867 66.4474 386.182 67.2201 386.811 67.8301C387.305 68.4401 388.249 67.5454 387.665 66.9761Z" fill="#161616"/>
<path d="M404.833 66.366C404.699 66.0407 404.609 65.756 404.609 65.4307C404.609 65.268 404.654 65.1054 404.699 64.9427C404.699 64.902 404.744 64.8207 404.744 64.78C404.833 64.658 404.788 64.658 404.564 64.78C404.564 64.8207 404.654 65.024 404.654 65.1054C404.654 65.268 404.654 65.4307 404.609 65.5934C404.519 65.9594 404.339 66.2847 404.114 66.5694C404.474 66.61 404.833 66.6507 405.193 66.6914C404.654 66 404.699 65.1867 405.283 64.4954C404.923 64.536 404.564 64.5767 404.204 64.6174C404.654 65.1054 404.339 65.8374 403.8 66.0814C404.114 66.2034 404.474 66.3254 404.788 66.4474C404.654 66.122 404.564 65.8374 404.519 65.4714C404.519 65.268 404.564 65.0647 404.564 64.8614C404.564 64.78 404.609 64.7394 404.609 64.658C404.474 64.4954 404.429 64.4547 404.519 64.5767C404.654 64.902 404.744 65.146 404.699 65.512C404.699 65.6747 404.609 65.9187 404.609 66.0407C404.609 66.122 404.564 66.1627 404.564 66.244C404.878 66.2034 404.923 66.122 404.744 65.9594C404.249 65.3087 403.081 65.9187 403.575 66.5694C404.07 67.22 405.148 67.7894 405.732 66.854C406.182 66.0814 406.182 64.7394 405.732 64.0074C405.238 63.2347 404.07 62.9907 403.485 63.8447C402.946 64.658 403.081 65.878 403.44 66.732C403.62 67.098 404.025 67.3014 404.429 67.098C405.822 66.4474 406.092 64.78 405.103 63.7227C404.789 63.3974 404.294 63.56 404.025 63.8447C403.216 64.8207 403.171 66.244 403.935 67.2607C404.159 67.5454 404.699 67.708 405.013 67.3827C405.822 66.4474 406.676 64.2514 405.058 63.56C404.339 63.2754 403.71 63.682 403.485 64.292C403.171 65.0647 403.171 65.9187 403.53 66.6507C403.89 67.3827 405.193 67.098 404.833 66.366Z" fill="#161616"/>
<path d="M390.453 59.5339C388.116 58.1513 385.061 58.8019 383.578 60.8759C383.128 61.5266 384.297 62.1366 384.746 61.4859C385.824 59.9406 388.071 59.5746 389.779 60.5506C390.498 60.9979 391.172 59.9406 390.453 59.5339Z" fill="#161616"/>
<path d="M402.854 59.8595C404.921 58.2735 408.112 58.7615 409.056 61.1608C409.325 61.8928 410.628 61.5675 410.359 60.8355C409.056 57.5415 404.742 56.7688 401.911 59.0055C401.281 59.4935 402.225 60.3475 402.854 59.8595Z" fill="#161616"/>
<path d="M404.517 94.7925C405.236 97.1919 406.629 99.3472 408.651 101.055C409.28 101.584 410.224 100.73 409.595 100.201C407.753 98.6152 406.449 96.7039 405.82 94.4672C405.551 93.6945 404.247 94.0199 404.517 94.7925Z" fill="#161616"/>
<path d="M416.918 87.2694C417.323 89.9941 418.356 92.4747 420.109 94.7521C420.603 95.4028 421.772 94.7927 421.277 94.1421C419.66 92.0681 418.626 89.7908 418.266 87.2694C418.177 86.5374 416.828 86.4968 416.918 87.2694Z" fill="#161616"/>
<path d="M408.741 101.258C413.594 102.763 419.167 99.2249 420.964 95.1989C421.279 94.4669 419.975 94.1415 419.661 94.8735C418.133 98.2895 413.145 101.34 409.101 100.079C408.292 99.8349 407.932 101.014 408.741 101.258Z" fill="#161616"/>
<path d="M405.328 95.4431C408.564 94.9551 411.44 93.5725 413.731 91.4578C414.316 90.8885 413.372 90.0344 412.788 90.6038C410.631 92.5964 407.979 93.8165 404.969 94.3045C404.115 94.4265 404.474 95.5651 405.328 95.4431Z" fill="#161616"/>
<path d="M406.092 96.2566C409.867 95.2806 414.136 92.5966 415.844 89.3433C416.203 88.6519 415.035 88.0013 414.675 88.7333C413.102 91.7019 409.193 94.2233 405.688 95.1179C404.879 95.3213 405.238 96.4599 406.092 96.2566Z" fill="#161616"/>
<path d="M377.78 56.5246C375.218 53.7999 376.252 48.9199 377.51 45.8292C379.038 42.0472 382.049 39.2006 386.408 38.1026C390.227 37.1266 394.317 37.2486 398.046 35.9472C402.181 34.4832 405.192 30.4572 409.955 30.7419C410.809 30.7826 410.809 29.5626 409.955 29.5219C404.517 29.1966 401.192 33.9139 396.294 35.1746C391.575 36.4352 386.318 35.9879 382.049 38.4686C378.678 40.4206 376.566 43.7146 375.623 47.1712C374.679 50.4652 374.185 54.6539 376.791 57.3786C377.375 57.9886 378.364 57.1346 377.78 56.5246Z" fill="#161616"/>
<path d="M392.158 51.9296C391.798 48.9609 392.518 46.0329 394.45 43.5929C396.607 40.8683 399.887 39.6483 403.123 38.2656C405.819 37.1269 408.291 35.7036 410.223 33.6296C412.11 31.6776 413.054 28.7903 415.436 27.2856C415.121 27.2043 414.807 27.1229 414.492 27.0823C416.739 31.8403 421.233 37.6556 417.188 42.6983C416.694 43.3489 417.862 43.9589 418.357 43.3083C422.716 37.8589 418.087 31.6369 415.66 26.4723C415.526 26.1876 415.031 26.0656 414.717 26.2689C412.11 27.8549 411.211 30.7016 409.189 32.7756C406.538 35.5816 403.078 36.8423 399.528 38.3876C393.686 40.9496 389.956 45.9109 390.72 51.9296C390.9 52.7023 392.293 52.7023 392.158 51.9296Z" fill="#161616"/>
<path d="M404.878 51.3599C407.754 46.5205 412.472 42.7385 418.224 40.9085C420.92 40.0545 423.752 39.5665 426.313 38.3872C428.785 37.2892 430.897 35.7439 432.739 33.9139C432.38 33.8732 432.02 33.8325 431.661 33.7919C433.323 37.0045 434.896 40.6239 435.211 44.1619C435.525 47.9845 433.188 50.9125 430.627 53.7185C430.088 54.3285 431.031 55.1825 431.571 54.5725C434.132 51.7259 436.649 48.7165 436.559 44.8939C436.469 40.8679 434.626 36.7605 432.784 33.1819C432.604 32.8159 432.02 32.7752 431.705 33.0599C429.369 35.3372 426.583 37.1265 423.347 38.1839C420.606 39.0785 417.73 39.5665 415.079 40.7459C410.18 42.9012 406.181 46.4392 403.62 50.7499C403.305 51.4412 404.473 52.0512 404.878 51.3599Z" fill="#161616"/>
<path d="M433.188 51.6045C436.424 57.2979 435.84 64.0485 431.705 69.2132C431.211 69.8639 432.379 70.4739 432.874 69.8232C437.323 64.2925 437.817 57.0539 434.357 50.9945C433.952 50.3032 432.784 50.9132 433.188 51.6045Z" fill="#161616"/>
<path opacity="0.14" d="M416.469 58.1924C416.604 60.185 416.694 63.0724 416.469 66.529C416.02 72.7104 415.66 78.0377 412.65 83.0397C408.875 89.2617 402.404 92.515 398.09 94.1417C400.157 94.2637 403.482 94.1824 407.302 93.0437C410.448 92.1084 412.829 90.7664 414.357 89.7091C415.211 92.7591 416.11 95.8091 416.964 98.8591C418.312 97.3951 419.615 95.8904 420.963 94.4264C419.795 92.3117 418.626 90.1564 417.458 88.0417C418.402 86.659 419.3 85.1951 420.199 83.6091C421.817 80.8437 423.12 78.2004 424.199 75.6791C424.783 75.8824 426.49 76.4111 428.018 75.6791C429.726 74.8657 430.13 73.0357 430.49 71.3684C430.849 69.6197 431.838 64.9431 428.782 62.9097C427.524 62.0557 425.322 61.4864 423.569 62.3404C422.626 62.8284 422.131 63.5604 421.862 64.0077C421.637 62.3404 421.457 60.673 421.233 59.0057C419.66 58.7617 418.042 58.477 416.469 58.1924Z" fill="#666666"/>
<path opacity="0.2" d="M406.18 51.279C408.696 48.7983 411.707 45.2603 414.313 40.5837C416.156 37.249 417.369 34.1583 418.133 31.5557C420.155 34.8497 419.975 37.493 419.841 38.6317C419.077 43.837 413.864 47.0903 410.943 48.9203C409.101 50.059 407.393 50.791 406.18 51.279Z" fill="#212121"/>
<path opacity="0.16" d="M415.391 55.8336C417.952 55.0203 420.963 53.841 424.153 52.0923C429.95 48.8796 433.86 45.057 436.287 42.251C436.601 43.959 436.916 47.3343 434.893 50.425C431.658 55.4676 423.704 57.9076 415.391 55.8336Z" fill="#212121"/>
<path opacity="0.22" d="M385.958 53.6372C385.868 51.9292 386.002 49.4892 386.856 46.6832C388.878 40.2578 393.911 35.4592 394.675 35.8658C395.305 36.1912 393.777 40.0138 385.958 53.6372Z" fill="#212121"/>
<path d="M388.159 79.8267C394.855 80.1113 401.37 78.8913 407.392 76.2073C407.976 75.9633 407.482 75.15 406.898 75.4347C401.056 78.0373 394.675 79.2167 388.204 78.932C387.485 78.8913 387.53 79.786 388.159 79.8267Z" fill="#161616"/>
<path d="M388.835 79.9899C389.734 81.4539 390.363 83.0399 390.723 84.6666C390.858 85.2359 391.801 84.992 391.711 84.4226C391.352 82.7146 390.678 81.0473 389.734 79.5019C389.42 79.0139 388.521 79.5019 388.835 79.9899Z" fill="#161616"/>
<path d="M390.81 84.707C393.506 87.0657 397.865 85.8864 400.741 84.3817C404.202 82.633 406.718 79.705 407.572 76.2077C407.707 75.6384 406.718 75.3944 406.583 75.9637C405.864 78.851 404.022 81.291 401.326 82.999C398.764 84.585 394.136 86.3744 391.529 84.0564C391.08 83.6497 390.361 84.3004 390.81 84.707Z" fill="#161616"/>
<path d="M390.182 81.6569C393.238 82.3889 396.743 81.5756 399.664 80.7622C402.495 79.9896 405.102 78.7289 407.079 76.6956C407.528 76.2482 406.809 75.5976 406.36 76.0449C404.472 77.9562 402.091 79.1356 399.394 79.8676C396.653 80.5996 393.283 81.4536 390.452 80.7622C389.823 80.6402 389.553 81.5349 390.182 81.6569Z" fill="#161616"/>
<path d="M390.632 82.1039C390.992 82.8766 391.351 83.6493 391.71 84.4219C391.935 84.9099 392.834 84.5439 392.654 84.0559C392.34 83.3239 392.115 82.6326 391.935 81.8599C391.71 82.0632 391.531 82.2259 391.306 82.4293C392.385 82.5919 393.463 82.6732 394.586 82.6732C395.126 82.6732 395.305 81.8599 394.721 81.7786C393.688 81.6159 392.879 81.6566 391.845 81.9413C391.531 82.0226 391.351 82.3479 391.531 82.6326C391.8 82.9986 392.115 83.4053 392.385 83.7713C392.744 84.2593 393.553 83.8526 393.238 83.3239C393.104 82.9579 392.969 82.5919 392.834 82.2666C392.519 82.3886 392.205 82.5106 391.89 82.6326C392.34 83.1613 392.519 83.7306 392.34 84.3406C392.654 84.2593 392.969 84.1779 393.283 84.0966C392.654 83.1612 392.115 84.2593 391.98 84.5439C391.845 84.9099 392.385 85.3166 392.744 85.0726C396.429 82.5513 400.743 81.2906 405.102 80.0706C405.731 79.9079 405.461 79.0133 404.832 79.1759C400.383 80.3959 395.98 81.6973 392.25 84.2593C392.519 84.4219 392.744 84.5846 393.014 84.7879C393.193 84.4219 393.733 84.3406 393.823 83.7713C393.912 83.2833 393.688 82.5513 393.104 82.3886C391.486 81.9006 392.07 83.9746 392.474 84.5439C392.744 84.9506 393.373 84.7472 393.418 84.2999C393.508 83.4459 393.328 82.8359 392.834 82.1446C392.519 81.7379 391.755 81.9819 391.89 82.5106C392.07 83.2019 392.07 83.1613 392.385 83.8119C392.654 83.6493 392.969 83.4866 393.238 83.3646C392.969 82.9986 392.654 82.5919 392.385 82.2259C392.295 82.4699 392.205 82.6733 392.07 82.9173C392.834 82.6326 393.598 82.5919 394.407 82.7546C394.452 82.4699 394.497 82.1446 394.542 81.8599C393.508 81.8599 392.609 81.8192 391.531 81.6566C391.126 81.5752 390.812 81.8599 390.902 82.2259C391.081 82.9986 391.306 83.6899 391.621 84.4219C391.935 84.2999 392.25 84.1779 392.564 84.0559C392.205 83.2833 391.845 82.5106 391.486 81.7379C391.261 81.0873 390.362 81.5753 390.632 82.1039Z" fill="#161616"/>
<path d="M393.508 83.568C395.081 82.714 396.698 82.0633 398.451 81.494C398.316 81.2093 398.181 80.9246 398.046 80.64C396.474 81.2906 394.901 81.9413 393.373 82.5513C392.879 82.7546 393.238 83.568 393.777 83.4053C398.002 81.9006 402.181 80.3553 406 78.078C405.731 77.9153 405.506 77.7526 405.236 77.5493C404.652 78.9726 402.046 79.1353 400.698 79.5826C399.574 79.9486 398.496 80.4366 397.372 80.8026C395.8 81.2906 393.957 81.2093 392.744 82.4293C392.294 82.8766 393.013 83.5273 393.463 83.08C394.451 82.0633 396.294 82.104 397.642 81.6973C398.99 81.2906 400.293 80.6806 401.686 80.274C403.574 79.7453 405.461 79.7046 406.225 77.834C406.36 77.468 405.821 77.102 405.461 77.3053C401.731 79.5013 397.597 81.0466 393.463 82.5106C393.598 82.7953 393.732 83.08 393.867 83.3646C395.44 82.714 397.013 82.0633 398.541 81.4533C399.08 81.25 398.676 80.4366 398.136 80.5993C396.339 81.1686 394.631 81.9006 392.969 82.7546C392.429 83.08 392.969 83.8933 393.508 83.568Z" fill="#161616"/>
<path d="M405.64 79.0953C405.64 79.0546 405.595 79.0139 405.595 78.9733C405.595 78.9326 405.595 78.9733 405.595 79.0546C405.55 79.0953 405.46 79.1766 405.415 79.2173H405.46C405.325 79.2173 405.191 79.258 405.056 79.258C404.831 79.2173 404.831 78.8513 404.786 79.0953C404.786 79.1766 404.786 79.2173 404.831 79.2986C404.876 79.4613 404.966 79.5426 405.146 79.6646C405.37 79.8273 405.73 79.7053 405.82 79.5019C405.954 79.2579 405.865 79.0139 405.64 78.8919C405.64 78.8919 405.595 78.892 405.595 78.8513C405.64 78.892 405.73 78.9733 405.775 79.0139C405.82 79.1359 405.82 79.136 405.82 79.0546C405.82 79.014 405.82 78.9733 405.82 78.9733C405.82 78.8513 405.775 78.7293 405.73 78.648C405.595 78.4853 405.415 78.3633 405.191 78.3633C404.606 78.3633 404.516 78.9733 404.696 79.3393C404.786 79.5833 405.011 79.746 405.325 79.6646C405.55 79.5833 405.775 79.2986 405.64 79.0953Z" fill="#161616"/>
<path d="M405.729 75.3939C406.583 75.7192 407.302 76.2479 407.796 76.9799C408.111 77.4679 409.01 77.0205 408.65 76.5325C408.021 75.5972 407.122 74.9059 405.999 74.5399C405.37 74.2959 405.1 75.1905 405.729 75.3939Z" fill="#161616"/>
<path d="M393.462 85.3578C397.012 83.0804 400.921 81.4944 405.145 80.6404C405.775 80.5184 405.505 79.6238 404.876 79.7458C400.517 80.5998 396.562 82.2264 392.922 84.5444C392.428 84.9104 392.922 85.7238 393.462 85.3578Z" fill="#161616"/>
<path d="M392.564 84.626C396.968 84.4227 401.057 83.2027 404.697 80.966C405.237 80.6407 404.742 79.8273 404.203 80.1933C400.698 82.3487 396.788 83.5687 392.564 83.7313C391.89 83.772 391.89 84.6667 392.564 84.626Z" fill="#161616"/>
<path d="M396.653 83.6093C399.125 83.1213 401.417 82.2673 403.574 81.0473C404.113 80.7219 403.619 79.9493 403.079 80.2746C401.012 81.4539 398.81 82.2673 396.429 82.7553C395.755 82.8366 396.024 83.7313 396.653 83.6093Z" fill="#161616"/>
<path d="M393.554 85.1945C397.149 85.1132 400.474 84.1778 403.44 82.3478C403.979 82.0225 403.485 81.2092 402.946 81.5752C400.115 83.3238 396.969 84.2185 393.554 84.2998C392.925 84.2998 392.925 85.2352 393.554 85.1945Z" fill="#161616"/>
<path d="M393.553 85.1132C393.508 85.8046 394.227 85.8859 394.811 85.8046C396.159 85.6419 397.462 85.3572 398.766 85.0726C399.395 84.9099 399.125 84.0559 398.496 84.1779C397.822 84.3406 397.148 84.4626 396.429 84.5846C396.114 84.6252 394.586 84.7066 394.541 85.0726C394.631 84.5439 393.598 84.5439 393.553 85.1132Z" fill="#161616"/>
<path d="M402.133 89.8723C402.582 88.7336 406.627 88.9776 410.132 89.3843C410.132 88.7743 410.267 87.8797 410.671 86.9037C410.986 86.131 411.48 85.3583 413.278 83.569C415.21 81.6576 416.198 80.7223 417.457 80.031C418.4 79.5023 419.973 78.811 422.175 78.4856C423.074 78.7703 424.018 79.055 424.916 79.299C425.186 78.5263 425.725 77.0623 426.759 74.2156C427.433 72.3043 427.837 71.3283 428.736 71.003C429.635 70.7183 430.848 71.003 431.477 71.6943C432.376 72.711 431.567 74.175 431.073 76.6556C430.803 78.079 431.028 77.835 430.938 83.1623C430.848 88.6116 430.623 88.571 430.668 90.8483C430.713 92.963 431.028 95.9723 432.106 99.5917C433.095 99.185 434.668 98.7377 436.555 98.7783C440.959 98.819 444.06 101.422 446.351 103.414C450.845 107.278 452.778 111.548 454.081 114.557C456.597 120.372 456.912 125.212 456.957 127.326C457.002 130.62 457.092 133.711 455.249 137.29C454.665 138.428 453.047 141.478 449.362 143.796C447.834 144.772 444.958 146.562 441.229 146.277C439.072 146.114 437.139 145.301 435.072 143.796C428.152 138.713 424.961 129.482 423.973 126.269C422.085 120.413 420.018 111.914 419.659 101.3C418.67 101.259 417.502 101.056 416.243 100.608C411.615 98.8597 409.817 94.671 409.458 93.6137C408.514 93.6543 405.144 93.6136 403.032 91.499C402.582 91.011 401.953 90.401 402.133 89.8723Z" fill="white"/>
<path d="M408.381 92.719C405.999 92.5563 403.258 91.743 402.629 89.3843C402.494 89.6283 402.314 89.8723 402.179 90.1163C405.64 89.4656 409.1 90.401 412.56 89.9536C413.414 89.8316 413.054 88.6523 412.2 88.7743C408.74 89.2216 405.28 88.2863 401.82 88.937C401.46 89.0183 401.281 89.3843 401.371 89.669C402.134 92.597 405.415 93.695 408.426 93.8983C409.28 93.9796 409.28 92.7596 408.381 92.719Z" fill="#161616"/>
<path d="M410.941 88.3669C410.402 85.4796 415.3 85.6423 417.142 86.0896C417.996 86.2929 418.355 85.1136 417.502 84.9103C414.491 84.1783 408.919 84.7069 409.638 88.6516C409.772 89.4649 411.076 89.1396 410.941 88.3669Z" fill="#161616"/>
<path d="M412.875 85.5616C413.279 84.1383 414.133 82.837 415.661 82.1863C417.458 81.4543 419.256 82.1863 420.919 82.8369C421.683 83.1623 422.402 82.105 421.593 81.7796C419.526 80.9256 417.324 80.1123 415.122 81.0476C413.234 81.8203 412.066 83.447 411.572 85.2363C411.392 86.009 412.695 86.3343 412.875 85.5616Z" fill="#161616"/>
<path d="M417.592 80.6808C417.502 80.5995 419.03 79.4608 419.255 79.3388C419.884 79.0541 420.603 78.8915 421.322 78.8915C423.074 78.8915 424.647 79.6641 426.04 80.4775C426.759 80.8841 427.433 79.8675 426.714 79.4201C424.467 78.1188 421.726 77.1021 419.075 78.0781C417.952 78.4848 415.255 80.3148 416.603 81.5755C417.233 82.1041 418.176 81.2501 417.592 80.6808Z" fill="#161616"/>
<path d="M430.939 90.9699C431.478 87.5132 431.658 84.0972 431.388 80.5999C431.254 78.6072 431.478 77.0619 432.018 75.1099C432.287 74.0932 432.512 73.0359 432.197 72.0192C431.703 70.6365 429.995 69.4979 428.378 70.2299C427.344 70.7179 427.074 71.8159 426.715 72.7512C426.041 74.4999 425.412 76.2892 424.783 78.0379C424.513 78.7699 425.816 79.0952 426.086 78.3632C426.445 77.3465 426.805 76.3299 427.209 75.3539C427.434 74.7439 427.793 72.7105 428.333 72.3445C430.58 72.1005 431.478 72.6699 430.939 74.1339C430.804 74.6219 430.669 75.0692 430.49 75.5572C430.265 76.3299 430.04 77.0619 429.95 77.8345C429.771 79.7865 430.175 81.8199 430.175 83.8125C430.175 86.1305 429.995 88.4079 429.636 90.6852C429.546 91.4172 430.849 91.7425 430.939 90.9699Z" fill="#161616"/>
<path d="M407.661 94.0201C409.998 94.1828 410.582 96.3788 411.661 97.8428C412.2 98.6155 412.874 99.3068 413.683 99.8762C415.256 101.015 417.098 101.625 419.12 101.787C419.974 101.869 419.974 100.649 419.12 100.567C415.705 100.283 413.548 98.4935 411.975 95.8908C410.987 94.2641 409.818 92.9628 407.661 92.8408C406.762 92.7595 406.807 93.9795 407.661 94.0201Z" fill="#161616"/>
<path d="M418.896 101.258C420.289 105.61 420.424 110.083 420.828 114.556C421.188 118.338 421.862 122.12 423.03 125.74C425.322 132.734 429.276 139.2 434.984 144.406C435.613 144.975 436.556 144.08 435.927 143.552C430.04 138.184 426.041 131.433 423.929 124.154C421.682 116.508 422.626 108.497 420.199 100.933C419.929 100.201 418.626 100.526 418.896 101.258Z" fill="#161616"/>
<path d="M429.637 90.4817C430.311 97.2731 432.513 103.902 436.198 109.839C439.793 115.614 445.32 120.616 446.579 127.366C446.713 128.139 448.017 127.814 447.882 127.041C446.758 120.9 442.13 116.224 438.58 111.1C434.311 104.878 431.749 97.8017 430.985 90.5224C430.895 89.7091 429.547 89.7091 429.637 90.4817Z" fill="#161616"/>
<path d="M432.737 99.9168C439.433 97.9648 446.038 102.845 449.544 107.562C453.228 112.523 454.891 118.623 455.655 124.52C456.374 130.295 455.88 136.598 451.611 141.234C447.656 145.545 440.331 147.253 435.343 143.349C434.669 142.82 433.725 143.715 434.4 144.203C439.118 147.903 446.083 147.375 450.712 143.796C456.374 139.445 457.767 132.369 457.183 125.984C456.554 119.03 454.621 111.588 449.948 105.895C446.038 101.177 439.208 96.7448 432.422 98.6968C431.568 98.9815 431.883 100.161 432.737 99.9168Z" fill="#161616"/>
<path opacity="0.15" d="M429.817 72.4259C427.435 73.2392 427.615 78.7699 427.794 82.7552C428.424 94.5892 428.738 100.527 431.3 109.636C434.984 122.609 438.355 125.984 440.197 127.57C442.849 129.847 447.926 133.141 450.083 131.84C453.499 129.766 448.061 117.403 446.713 114.394C442.174 104.146 441.186 100.73 437.815 99.6726C435.793 99.0626 433.816 99.3066 432.423 99.6726C430.491 95.9312 430.176 92.9219 430.221 90.8479C430.266 89.0992 430.581 89.0992 430.715 86.4559C430.985 81.6572 430.041 81.3725 430.536 78.2412C431.03 75.1912 432.333 73.3612 431.389 72.6292C431.075 72.2226 430.311 72.2632 429.817 72.4259Z" fill="#666666"/>
<path opacity="0.15" d="M433.68 101.746C436.87 104.552 439.072 107.236 440.555 109.351C444.195 114.434 445.723 118.989 446.262 120.737C447.026 123.218 447.386 125.373 447.61 126.959C446.846 124.845 445.408 121.673 442.892 118.135C440.87 115.288 439.567 114.312 437.859 111.75C436.466 109.635 434.713 106.382 433.68 101.746Z" fill="#666666"/>
<path d="M313.924 81.0479C312.486 82.1052 310.644 83.6912 308.936 85.8872C307.453 87.7985 306.509 89.6285 305.925 91.0519C307.273 91.6212 310.149 93.0445 310.733 95.5659C311.407 98.3312 308.891 100.853 305.566 104.106C303.364 106.221 299.993 109.067 295.05 111.67C294.196 111.67 292.489 111.589 290.601 110.694C288.355 109.596 287.276 107.969 286.872 107.319C284.984 107.807 282.558 108.62 279.906 110.043C277.435 111.385 275.547 112.849 274.199 114.069C274.828 115.371 276.716 118.949 280.985 120.495C282.647 121.105 284.76 121.43 288.669 120.82C292.624 120.21 297.971 118.746 304.307 114.842C313.34 109.271 317.834 102.764 319.092 100.812C322.237 95.9725 324.484 92.5159 323.181 88.5712C321.518 83.6505 315.317 81.4952 313.924 81.0479Z" fill="#161616"/>
<path d="M286.963 98.6973C289.39 95.6066 292.715 93.2886 296.58 91.9059C297.389 91.6213 297.029 90.4419 296.221 90.7266C291.996 92.2313 288.446 94.7119 285.795 98.0873C285.256 98.7379 286.424 99.3479 286.963 98.6973Z" fill="#161616"/>
<path d="M279.547 99.4289C283.187 92.2309 290.242 86.9442 298.78 85.0329C299.634 84.8296 299.274 83.6502 298.421 83.8535C289.613 85.8055 282.198 91.3362 278.379 98.7782C278.019 99.5509 279.142 100.161 279.547 99.4289Z" fill="#161616"/>
<path d="M273.301 100.73C274.335 95.1184 277.705 90.1977 282.513 86.4971C287.097 82.9591 294.152 79.1364 300.399 79.8684C301.252 79.9497 301.252 78.7297 300.399 78.6484C294.017 77.9164 286.917 81.6984 282.109 85.1957C276.896 89.0184 273.121 94.3457 271.998 100.364C271.863 101.178 273.166 101.503 273.301 100.73Z" fill="#161616"/>
</svg>
