<svg width="257" height="39" viewBox="0 0 257 39" fill="none" xmlns="http://www.w3.org/2000/svg">
<g clip-path="url(#clip0_915_4008)">
<path d="M255.825 26.125H254.65V18.102C254.65 17.1594 254.275 16.2539 253.615 15.5859L246.278 8.17148C245.617 7.50352 244.721 7.125 243.789 7.125H240.55V3.5625C240.55 1.5957 238.971 0 237.025 0H213.525C211.579 0 210 1.5957 210 3.5625V27.3125C210 29.2793 211.579 30.875 213.525 30.875H214.7C214.7 34.8086 217.858 38 221.75 38C225.642 38 228.8 34.8086 228.8 30.875H238.2C238.2 34.8086 241.358 38 245.25 38C249.142 38 252.3 34.8086 252.3 30.875H255.825C256.471 30.875 257 30.3406 257 29.6875V27.3125C257 26.6594 256.471 26.125 255.825 26.125ZM221.75 34.4375C219.804 34.4375 218.225 32.8418 218.225 30.875C218.225 28.9082 219.804 27.3125 221.75 27.3125C223.696 27.3125 225.275 28.9082 225.275 30.875C225.275 32.8418 223.696 34.4375 221.75 34.4375ZM245.25 34.4375C243.304 34.4375 241.725 32.8418 241.725 30.875C241.725 28.9082 243.304 27.3125 245.25 27.3125C247.196 27.3125 248.775 28.9082 248.775 30.875C248.775 32.8418 247.196 34.4375 245.25 34.4375ZM251.125 19H240.55V10.6875H243.789L251.125 18.102V19Z" fill="black"/>
</g>
<ellipse cx="2.80503" cy="2.97895" rx="2.80503" ry="2.97895" transform="matrix(0.441343 -0.897338 0.90694 0.421261 92 5.0332)" fill="#D73F3B"/>
<ellipse cx="2.80503" cy="2.97895" rx="2.80503" ry="2.97895" transform="matrix(0.441343 -0.897338 0.90694 0.421261 80 12.0332)" fill="#D73F3B"/>
<ellipse cx="2.80503" cy="2.97895" rx="2.80503" ry="2.97895" transform="matrix(0.441343 -0.897338 0.90694 0.421261 70 21.0332)" fill="#D73F3B"/>
<ellipse cx="2.80503" cy="2.97895" rx="2.80503" ry="2.97895" transform="matrix(0.441343 -0.897338 0.90694 0.421261 59 13.0332)" fill="#D73F3B"/>
<ellipse cx="2.80503" cy="2.97895" rx="2.80503" ry="2.97895" transform="matrix(0.441343 -0.897338 0.90694 0.421261 46 9.0332)" fill="#D73F3B"/>
<ellipse cx="2.80503" cy="2.97895" rx="2.80503" ry="2.97895" transform="matrix(0.441343 -0.897338 0.90694 0.421261 32 14.0332)" fill="#D73F3B"/>
<ellipse cx="2.80503" cy="2.97895" rx="2.80503" ry="2.97895" transform="matrix(0.441343 -0.897338 0.90694 0.421261 104 8.0332)" fill="#D73F3B"/>
<ellipse cx="2.80503" cy="2.97895" rx="2.80503" ry="2.97895" transform="matrix(0.441343 -0.897338 0.90694 0.421261 114 14.0332)" fill="#D73F3B"/>
<ellipse cx="2.80503" cy="2.97895" rx="2.80503" ry="2.97895" transform="matrix(0.441343 -0.897338 0.90694 0.421261 125 19.0332)" fill="#D73F3B"/>
<ellipse cx="2.80503" cy="2.97895" rx="2.80503" ry="2.97895" transform="matrix(0.441343 -0.897338 0.90694 0.421261 136 24.0332)" fill="#D73F3B"/>
<ellipse cx="2.80503" cy="2.97895" rx="2.80503" ry="2.97895" transform="matrix(0.441343 -0.897338 0.90694 0.421261 147 20.0332)" fill="#D73F3B"/>
<ellipse cx="2.80503" cy="2.97895" rx="2.80503" ry="2.97895" transform="matrix(0.441343 -0.897338 0.90694 0.421261 158 15.0332)" fill="#D73F3B"/>
<ellipse cx="2.80503" cy="2.97895" rx="2.80503" ry="2.97895" transform="matrix(0.441343 -0.897338 0.90694 0.421261 171 12.0332)" fill="#D73F3B"/>
<ellipse cx="2.80503" cy="2.97895" rx="2.80503" ry="2.97895" transform="matrix(0.441343 -0.897338 0.90694 0.421261 195 19.0332)" fill="#D73F3B"/>
<ellipse cx="2.80503" cy="2.97895" rx="2.80503" ry="2.97895" transform="matrix(0.441343 -0.897338 0.90694 0.421261 184 15.0332)" fill="#D73F3B"/>
<g clip-path="url(#clip1_915_4008)">
<path d="M10.7209 17.8872C8.76606 24.6811 8.99882 27.6922 8.99882 27.6922C8.99882 27.6922 11.8679 28.8757 19.1401 29.2728C26.4124 29.6699 29.2535 24.0745 27.0379 21.0783C24.8223 18.0821 20.2031 19.9247 20.2031 19.9247C20.2031 19.9247 23.4929 16.2844 21.2773 13.2882C19.0617 10.292 12.6757 11.0934 10.7209 17.8872Z" stroke="#D73F3B" stroke-width="3" stroke-linecap="round" stroke-linejoin="round"/>
</g>
<defs>
<clipPath id="clip0_915_4008">
<rect width="47" height="38" fill="white" transform="translate(210)"/>
</clipPath>
<clipPath id="clip1_915_4008">
<rect width="23.4628" height="23.9788" fill="white" transform="matrix(0.594566 0.804047 -0.821826 0.569738 19.707 6)"/>
</clipPath>
</defs>
</svg>
