<svg width="743" height="559" viewBox="0 0 743 559" fill="none" xmlns="http://www.w3.org/2000/svg">
<path d="M508.391 78.3223C509.76 79.2477 512.059 79.7014 509.068 81.4438C507.478 82.3701 509.055 84.8918 507.753 86.8417C507.054 87.8881 506.253 89.8709 505.617 91.462C505.201 92.5046 503.995 93.2838 504.997 94.5777C505.306 94.9761 505.356 95.4563 504.834 95.6478C502.166 96.6252 502.682 99.0855 502.3 101.015C500.735 108.9 499.757 116.93 500.082 124.901C500.546 136.291 501.74 147.676 504.614 158.801C504.668 159.011 504.854 159.246 504.801 159.415C504.3 160.998 508.858 162.336 505.149 163.974C500.087 166.21 497.678 165.712 496.024 161.98C494.078 157.59 492.327 153.106 490.753 148.575C485.049 132.158 484.695 115.347 487.779 98.4867C489.856 87.1322 494.885 76.8215 501.739 67.4275C507.023 60.185 512.7 53.2475 520.018 47.8127C522.565 45.9205 525.151 43.9128 528.044 42.6935C529.561 42.0546 530.815 41.1411 532.148 40.5316C537.322 38.1622 541.944 34.3744 548.13 34.2339C549.64 34.1997 550.864 32.5767 552.658 32.0563C569.58 27.1449 585.883 28.596 601.019 37.2804C615.799 45.7598 629.366 55.8917 639.83 69.4653C642.183 72.5176 643.632 75.9448 645.204 79.4234C647.01 83.4188 648.213 87.7035 650.61 91.4546C651.123 92.2575 651.684 93.2062 651.711 94.103C651.865 99.4774 653.674 104.59 654.155 109.926C654.641 115.91 654.524 121.926 653.804 127.886C653.282 132.623 653.396 137.453 653.106 142.206C652.752 148.005 650.354 153.479 648.268 158.939C646.345 163.975 643.585 168.571 640.842 173.193C640.389 173.954 640.323 174.834 639.083 174.679C638.875 174.676 638.669 174.722 638.483 174.814C638.298 174.906 638.139 175.041 638.019 175.208C634.776 183.37 625.485 190.219 618.384 193.162C609.46 196.861 600.131 199.303 590.486 199.445C582.646 199.537 574.891 197.844 567.836 194.502C562.274 191.91 556.647 189.5 551.29 186.483C543.841 182.289 539.462 175.855 536.636 168.242C534.301 161.831 532.329 155.299 530.731 148.677C529.088 142.043 531.22 135.934 533.616 130.122C536.514 123.116 540.638 116.655 545.803 111.028C549.236 107.145 554.053 104.68 559.28 104.134C566.691 103.278 573.939 104.179 581.104 106.054C587.093 107.621 591.924 111.382 597.248 114.2C598.514 114.87 598.684 116.223 597.694 117.576C596.854 118.722 596.599 119.954 598.368 120.657C598.513 120.487 598.588 120.41 598.649 120.325C599.44 119.201 597.408 117.315 599.409 116.709C601.221 116.161 602.432 117.678 603.622 118.809C608.629 123.568 611.682 129.29 611.972 136.143C612.212 141.822 613.105 147.415 610.893 153.158C606.428 164.754 599.953 167.058 588.14 168.609C584.258 169.119 580.808 167.434 577.255 166.274C566.661 162.817 566.263 152.564 571.788 145.884C573.935 148.818 570.344 151.948 572.176 155.456C573.385 152.637 573.23 150.128 573.858 147.802C574.137 146.766 574.319 144.69 575.535 145.171C576.98 145.743 579.018 144.258 580.203 147.372C581.467 150.691 582.807 154.306 585.016 157.335C586.897 159.914 590.086 159.91 591.861 157.388C596.829 150.331 598.717 142.318 597.965 134.021C597.48 128.661 593.794 124.337 589.264 121.238C584.5 117.979 579.797 114.525 574.037 112.913C572.307 112.429 565.587 111.268 563.793 111.694C562.434 112.026 561.228 112.791 560.365 113.867C559.887 114.438 559.714 115.873 558.19 114.811C557.464 114.305 556.438 115.473 556.95 115.96C558.666 117.598 557.032 118.61 556.342 119.534C552.551 124.604 550.576 130.58 547.623 136.062C546.996 137.215 546.703 138.513 546.776 139.816C546.849 141.119 547.286 142.379 548.038 143.458C548.764 144.431 549.099 145.63 548.978 146.827C548.13 152.571 551.426 156.972 553.632 161.796C554.94 164.657 554.871 168.004 556.768 170.794C559.826 175.269 564.023 178.893 568.947 181.308C574.35 184.012 579.897 186.583 585.79 188.145C594.315 190.405 601.853 187.604 609.079 183.405C611.875 181.781 613.63 178.732 617.233 178.038C617.796 177.93 618.363 175.05 619.391 173.565C629.147 159.467 633.969 143.694 636.253 126.955C637.72 116.198 636.055 105.906 633.075 95.6502C628.551 80.077 618.358 68.3281 606.157 58.056C600.065 52.8376 593.577 48.0776 586.748 43.8169C576.859 37.762 566.671 37.0569 555.819 41.277C550.859 43.2061 545.963 45.3649 541.032 47.3237C539.043 48.1133 536.055 49.3943 534.483 52.3646C533.117 54.9453 529.655 56.5018 527.459 58.9462C525.099 61.5761 521.786 63.3566 520.201 66.7139C519.792 67.5804 519.417 67.5449 519.018 66.5641C518.974 66.4369 518.886 66.3284 518.769 66.2565C518.653 66.1845 518.515 66.1534 518.378 66.1682C518.241 66.183 518.114 66.2428 518.017 66.3379C517.919 66.433 517.858 66.5576 517.843 66.6912C518.01 70.6068 513.502 72.3723 513.456 76.4135C513.426 78.8524 510.169 76.9928 508.391 78.3223ZM495.642 86.9981C488.844 93.7331 486.706 130.548 491.685 140.142C489.909 122.203 489.516 104.371 495.642 86.9981ZM633.547 157.994C634.663 155.333 635.914 152.718 636.871 150.004C640.7 139.14 641.825 127.804 642.596 116.445C642.662 115.479 642.616 113.012 639.929 112.963C641.533 128.534 637.308 143.184 633.547 157.994ZM599.03 152.524C599.596 151.182 600.092 149.807 600.742 148.506C602.766 144.452 601.809 140.036 602.394 135.809C602.444 135.424 602.34 135.034 602.102 134.722C601.865 134.409 601.513 134.199 601.12 134.135C600.107 133.99 600.165 134.877 600.302 135.47C601.637 141.255 599.678 146.697 599.03 152.524ZM536.722 133.615C534.563 136.671 534.167 140.094 534.475 143.663C536.316 140.541 536.158 137.003 536.722 133.615ZM501.676 96.1066C500.905 97.0174 500.393 97.6913 499.808 98.2984C499.016 99.1203 499.105 100.02 499.475 100.949C499.633 101.345 500.015 101.828 500.425 101.549C501.177 101.038 501.303 100.214 501.231 99.311C501.157 98.3935 502.249 97.6831 501.676 96.1066Z" fill="#EDEAEA"/>
<path d="M161.793 447.776C160.039 447.82 158.31 447.367 156.548 447.527C156.27 447.552 155.773 447.457 155.72 447.3C155.196 445.732 153.445 445.92 152.463 444.907C151.593 444.009 151.514 443.299 151.934 442.393C153.554 438.882 154.979 435.292 156.301 431.659C156.649 430.703 156.991 429.739 157.246 428.755C157.49 427.811 158.289 427.509 158.986 427.248C159.742 426.965 159.831 427.894 160.232 428.292C162.117 430.155 162.172 432.68 162.724 435.029C163.435 438.059 164.075 441.108 164.881 444.112C165.552 446.612 164.764 448.177 161.793 447.776Z" fill="#EDEAEA"/>
<path d="M142.603 398.642C142.657 399.931 141.844 400.829 140.42 400.998C138.439 401.233 136.459 401.507 134.471 401.644C132.656 401.77 131.703 400.265 130.797 399.087C130.174 398.277 130.599 397.114 131.241 396.146C133.389 392.907 134.984 389.371 136.445 385.77C136.7 385.142 136.967 384.565 137.766 384.46C138.633 384.347 138.805 385.01 139.205 385.535C140.4 387.102 140.658 388.989 141.118 390.813C141.767 393.391 142.384 395.979 142.603 398.642Z" fill="#EDEAEA"/>
<path d="M138.442 427.474C138.442 429.102 138.875 430.379 137.37 431.114C137.012 431.288 136.696 431.525 136.322 431.458C134.638 431.161 132.994 431.256 131.456 432.031C130.253 432.636 129.577 432.163 128.684 431.271C126.97 429.559 126.929 428.87 128.007 426.749C129.733 423.361 131.688 420.064 132.761 416.36C132.902 415.816 133.099 415.289 133.348 414.786C133.885 413.771 134.859 413.753 135.602 414.612C137.17 416.423 137.347 418.701 137.68 420.905C138.032 423.231 138.228 425.58 138.442 427.474Z" fill="#EDEAEA"/>
<path d="M139.599 487.536C137.897 487.34 136.532 486.397 135.339 485.26C134.907 484.848 134.953 484.011 135.268 483.365C136.325 481.197 136.738 478.79 137.84 476.6C138.361 475.566 138.579 474.125 138.96 472.882C139.229 472.007 139.662 471.04 140.697 470.96C141.733 470.88 142.276 471.84 142.712 472.588C143.827 474.5 144.2 476.698 144.641 478.835C145.123 481.172 145.432 483.547 145.771 485.913C145.906 486.858 145.282 487.456 145.373 488.313C145.421 488.769 144.851 488.835 144.309 488.681C142.756 488.239 141.171 487.909 139.599 487.536Z" fill="#EDEAEA"/>
<path d="M116.097 411.663C116.101 413.189 115.316 413.902 113.67 413.599C112.322 413.352 110.982 413.489 109.666 413.5C108.041 413.512 106.973 412.787 105.871 411.809C104.855 410.907 104.803 409.861 105.386 408.792C107.237 405.393 108.768 401.823 109.957 398.13C110.422 396.688 111.384 396.6 112.387 397.742C113.064 398.503 113.575 399.4 113.887 400.374C115.018 404.047 115.758 407.831 116.097 411.663Z" fill="#EDEAEA"/>
<path d="M89.2623 425.354C88.1025 425.297 87.105 425.335 86.097 425.161C83.6973 424.749 82.9363 424.025 83.328 421.625C83.8287 418.558 84.1803 415.447 85.138 412.47C85.3114 411.829 85.576 411.218 85.9236 410.655C86.57 409.722 87.3819 409.442 88.3154 410.37C89.1328 411.133 89.8109 412.036 90.3183 413.038C91.6567 415.954 92.7926 418.962 93.7176 422.039C93.8389 422.397 93.8751 422.78 93.8232 423.156C93.7712 423.532 93.6326 423.89 93.4186 424.201C93.2046 424.512 92.9212 424.768 92.5916 424.947C92.262 425.126 91.8954 425.224 91.5216 425.232C90.7165 425.262 89.9124 425.319 89.2623 425.354Z" fill="#EDEAEA"/>
<path d="M114.156 474.151C113.113 474.373 112.128 474.692 111.03 474.472C109.411 474.148 107.595 471.693 108.108 470.163C109.246 466.768 109.931 463.251 110.964 459.83C111.199 459.051 111.364 458.178 112.382 458.052C113.405 457.926 113.817 458.733 114.168 459.448C115.929 463.033 117.085 466.851 118.243 470.662C118.585 471.788 118.195 472.679 117.065 473.327C116.116 473.87 115.005 473.491 114.156 474.151Z" fill="#EDEAEA"/>
<path d="M92.7106 394.008C92.8756 396.978 91.5728 398.32 88.6353 398.898C87.096 399.2 85.9989 398.527 84.8126 398.016C83.431 397.421 82.9124 396.358 83.3174 394.68C83.8384 392.52 84.7603 390.539 85.5283 388.492C86.1563 386.818 86.7664 385.144 87.3095 383.439C87.7413 382.085 88.287 382.133 89.3909 382.754C91.2997 383.826 91.6828 385.617 91.9686 387.469C92.3029 389.635 92.4706 391.827 92.7106 394.008Z" fill="#EDEAEA"/>
<path d="M78.5 460.136C78.515 459.053 78.8181 457.993 79.3772 457.07C80.7187 454.711 81.6777 452.181 82.6787 449.67C83.4915 447.631 83.6692 447.79 85.355 448.881C87.1097 450.017 87.5494 451.703 88.1256 453.395C88.75 455.232 89.2853 457.108 89.7307 458.998C90.1371 460.72 89.7936 461.074 88.1684 461.641C86.6689 462.164 85.2881 462.997 83.6364 463.106C82.8475 463.158 82.491 462.906 82.2548 462.214C82.0416 461.589 81.5753 461.634 81.0758 461.844C79.7218 462.415 78.4976 461.601 78.5 460.136Z" fill="#EDEAEA"/>
<path d="M89.3262 492.938C87.468 492.734 85.8543 492.643 84.2733 492.362C81.6725 491.901 80.5681 489.948 81.1253 487.29C81.6807 484.641 82.2024 481.993 83.2341 479.48C84.0722 477.438 85.0559 477.173 86.512 478.752C87.1625 479.464 87.6839 480.287 88.0519 481.183C89.2791 484.199 90.5756 487.196 91.2068 490.426C91.5482 492.175 90.869 492.982 89.3262 492.938Z" fill="#EDEAEA"/>
<path d="M68.8984 420.478C68.9485 422.782 68.4072 423.184 66.467 423.145C65.3628 423.124 64.2507 423.493 63.1424 423.688C61.4138 423.992 58.7927 422.454 58.3336 420.962C58.2569 420.752 58.2224 420.528 58.232 420.304C58.2417 420.08 58.2952 419.86 58.3896 419.657C59.7301 416.562 61.0396 413.454 62.3923 410.364C62.9828 409.017 63.6655 408.907 64.7697 409.917C67.2526 412.187 67.7681 415.384 68.6139 418.415C68.7653 419.093 68.8604 419.783 68.8984 420.478ZM65.0848 417.748C64.6514 417.337 65.2866 416.261 64.3087 415.986C63.9668 415.89 63.752 416.467 63.8779 416.802C64.112 417.424 63.8966 418.342 64.738 418.585C65.1496 418.703 65.0851 418.219 65.0848 417.747V417.748Z" fill="#EDEAEA"/>
<path d="M51.6211 448.572C51.9733 445.03 53.0937 441.695 54.2901 438.397C54.801 436.988 55.4821 436.962 56.6673 437.902C57.674 438.699 58.3342 439.864 58.507 441.149C58.9727 444.176 59.3536 447.218 59.7112 450.261C59.8621 451.545 59.0648 452.202 57.794 452.468C55.767 452.892 54.1533 452.077 52.5766 451.026C51.711 450.451 51.7262 449.479 51.6211 448.572Z" fill="#EDEAEA"/>
<path d="M110.135 447.182C109.586 447.136 108.955 446.889 108.718 447.099C107.883 447.84 106.867 447.332 105.948 447.671C104.968 448.033 103.474 445.584 103.593 444.36C103.768 442.547 105.311 441.401 105.561 439.582C105.807 437.785 106.515 436.052 107.051 434.3C107.106 434.047 107.243 433.819 107.439 433.654C107.636 433.488 107.881 433.394 108.137 433.385C108.775 433.351 109.112 433.643 109.403 434.229C111.015 437.474 111.872 441 113.102 444.385C113.781 446.254 112.089 446.913 110.135 447.182Z" fill="#EDEAEA"/>
<path d="M138.767 454.972C139.189 456.874 137.124 457.908 135.76 457.557C135.124 457.394 134.61 457.179 133.84 457.548C132.894 458.002 131.464 458.555 131.219 456.532C131.199 456.372 130.79 456.289 130.615 456.115C129.531 455.036 129.499 453.486 130.491 452.259C130.727 451.992 130.916 451.685 131.047 451.351C131.796 449.102 133.441 447.212 133.605 444.726C133.648 444.082 133.884 443.482 134.608 443.366C135.332 443.249 135.686 443.778 135.982 444.347C136.159 444.596 136.313 444.861 136.44 445.14C137.393 448.372 138.17 451.654 138.767 454.972Z" fill="#EDEAEA"/>
<path d="M502.505 428.542C501.015 429.259 500.811 430.686 500.019 431.679C499.558 432.258 498.579 433.108 498.328 432.697C496.552 429.791 491.704 430.326 491.042 426.295C488.355 409.93 480.839 394.947 476.869 378.95C476.59 377.826 476.237 376.72 475.945 375.599C474.258 369.12 474.261 369.119 480.752 369.011C487.431 368.901 487.941 369.15 490.686 375.574C496.388 388.92 502.016 402.298 506.943 415.942C508.48 420.196 509.586 424.584 507.968 429.084C507.55 430.307 506.957 431.464 506.208 432.52C505.543 433.42 504.535 434.471 503.272 433.913C501.962 433.334 502.871 432.168 503.041 431.244C503.201 430.399 503.425 429.55 502.505 428.542Z" fill="#EDEAEA"/>
<path d="M564.486 408.042C559.615 405.008 556.571 400.412 553.734 395.644C547.574 385.287 543.133 374.039 536.646 363.848C535.392 361.878 535.915 360.968 538.406 360.341C545.642 358.518 549.211 363.03 552.346 367.98C558.639 377.913 564.647 388.021 570.826 398.024C572.428 400.617 574.198 403.11 575.942 405.614C576.951 407.061 576.511 408.359 575.678 409.624C574.818 410.935 573.748 410.809 572.265 410.432C569.626 409.761 566.898 409.454 564.486 408.042Z" fill="#EDEAEA"/>
<path d="M611.622 335.129C616.909 337.977 622.207 340.798 627.471 343.682C629.146 344.6 630.916 345.569 630.262 347.991C629.666 350.202 627.781 349.391 626.302 349.681C623.453 350.24 620.749 349.75 618.103 348.806C606.594 344.698 595.583 339.665 586.061 331.866C585.031 331.022 583.794 330.39 583.978 328.843C584.186 327.093 585.828 327.472 586.919 326.919C592.017 324.336 596.182 326.579 600.446 329.045C604.114 331.169 607.902 333.092 611.636 335.103L611.622 335.129Z" fill="#EDEAEA"/>
</svg>
