<svg width="1166" height="903" viewBox="0 0 1166 903" fill="none" xmlns="http://www.w3.org/2000/svg">
<g filter="url(#filter0_d_2464_3231)">
<path d="M1070.09 511.399C1062 583.113 1053.99 654.751 1045.9 726.464C1043.57 746.857 1041.31 767.25 1038.98 787.717C1038.83 789.147 1041.02 789.147 1041.16 787.717C1049.25 716.004 1057.27 644.366 1065.36 572.653C1067.69 552.26 1069.95 531.867 1072.28 511.399C1072.43 509.97 1070.24 509.97 1070.09 511.399Z" fill="#E8E8E8"/>
<path d="M1071.84 512.603C1073.3 504.928 1086.2 505.68 1091.08 508.841C1095.82 511.926 1094.29 518.172 1093.78 522.988C1093.27 527.954 1092.76 532.921 1092.25 537.887C1090.21 558.054 1088.17 578.146 1086.13 598.313C1082.05 638.346 1077.97 678.379 1073.88 718.337C1071.63 740.686 1069.37 763.111 1067.03 785.46C1066.89 786.89 1069.07 786.89 1069.22 785.46C1078.26 696.966 1087.37 608.472 1096.26 519.978C1096.62 516.065 1097.13 511.926 1094.44 508.766C1092.18 506.132 1088.68 505.078 1085.47 504.627C1079.79 503.874 1071.12 504.853 1069.73 511.926C1069.44 513.431 1071.55 514.033 1071.84 512.603Z" fill="#E8E8E8"/>
<path d="M1063.1 569.793C1048.67 566.708 1046.63 587.326 1041.67 596.281C1034.68 608.773 1022.07 617.426 1008.22 619.232C1007.13 619.383 1006.62 621.114 1007.93 621.415C1012.6 622.619 1013.47 628.488 1013.91 632.627C1014.35 636.916 1014.42 641.281 1014.05 645.57C1013.18 654.901 1010.34 663.856 1005.75 671.907C1005.02 673.187 1006.91 674.315 1007.64 673.036C1009.46 669.876 1013.84 670.327 1016.24 672.585C1019.01 675.218 1019.01 679.658 1018.64 683.195C1017.92 689.365 1015.66 695.084 1017.19 701.33C1017.41 702.308 1018.64 702.384 1019.15 701.631C1026.81 690.569 1037.45 682.217 1049.84 677.626C1051.15 677.175 1050.56 674.993 1049.25 675.444C1036.28 680.26 1025.28 688.914 1017.26 700.502C1017.92 700.578 1018.57 700.653 1019.23 700.803C1017.04 691.698 1024.77 680.636 1018.72 672.284C1015.66 667.994 1008.59 667.016 1005.67 671.983C1006.33 672.359 1006.91 672.735 1007.57 673.111C1012.96 663.555 1016.09 652.794 1016.39 641.732C1016.6 634.809 1016.9 621.415 1008.44 619.308C1008.37 620.06 1008.22 620.813 1008.15 621.49C1019.88 619.985 1030.74 613.965 1038.47 604.709C1042.18 600.269 1045.03 595.152 1046.99 589.584C1049.47 582.435 1052.6 569.868 1062.52 571.975C1063.9 572.276 1064.48 570.094 1063.1 569.793Z" fill="#E8E8E8"/>
<path d="M1077.82 516.442C1080.59 518.473 1084.09 518.925 1087.22 517.646C1088.53 517.119 1087.95 514.937 1086.64 515.463C1083.94 516.517 1081.25 516.216 1078.91 514.485C1077.82 513.657 1076.73 515.614 1077.82 516.442Z" fill="#E8E8E8"/>
<path d="M1078.91 521.031C1080.3 523.439 1083.29 524.643 1085.84 523.59C1087.15 523.063 1086.57 520.881 1085.25 521.408C1083.58 522.085 1081.68 521.558 1080.81 519.903C1080.08 518.623 1078.26 519.752 1078.91 521.031Z" fill="#E8E8E8"/>
<path d="M981.916 792.082C994.232 790.727 1007.86 787.416 1020.1 790.727C1025.64 792.232 1031.03 794.49 1036.65 795.92C1042.84 797.5 1049.25 798.403 1055.52 799.381C1056.9 799.607 1057.49 797.425 1056.1 797.199C1049.76 796.221 1043.42 795.242 1037.23 793.737C1031.18 792.232 1025.5 789.674 1019.45 788.244C1007.42 785.234 994.086 788.47 981.989 789.824C980.532 789.975 980.532 792.308 981.916 792.082Z" fill="#E8E8E8"/>
<path d="M1047.94 791.33C1057.27 792.082 1066.09 789.147 1075.05 787.04C1085.11 784.708 1095.31 783.88 1105.58 784.557C1106.97 784.632 1106.97 782.375 1105.58 782.3C1096.04 781.698 1086.56 782.3 1077.24 784.256C1067.54 786.288 1058.07 789.9 1048.01 789.072C1046.48 788.922 1046.48 791.179 1047.94 791.33Z" fill="#E8E8E8"/>
<path d="M988.548 434.945C978.855 498.607 969.163 562.268 959.398 626.005C956.629 644.065 953.859 662.2 951.09 680.26C950.871 681.69 952.985 682.292 953.203 680.862C962.896 617.201 972.588 553.539 982.353 489.803C985.123 471.743 987.892 453.607 990.661 435.547C990.88 434.118 988.766 433.516 988.548 434.945Z" fill="#E8E8E8"/>
<path d="M967.926 438.483C956.776 502.069 945.991 565.73 935.569 629.392C932.654 647.377 929.739 665.286 926.824 683.271C926.606 684.701 928.719 685.302 928.938 683.873C939.213 620.136 949.78 556.475 960.711 492.813C963.772 474.904 966.906 456.994 970.039 439.009C970.331 437.655 968.217 437.053 967.926 438.483Z" fill="#E8E8E8"/>
<path d="M969.454 437.805C973.171 429.678 982.936 427.948 988.985 434.494C989.932 435.548 991.535 433.968 990.515 432.914C983.519 425.389 971.859 427.27 967.559 436.752C966.976 437.956 968.871 439.085 969.454 437.805Z" fill="#E8E8E8"/>
<path d="M960.128 471.592C957.577 482.127 946.865 486.491 937.901 489.577C929.666 492.436 921.14 495.521 915.82 503.046C915.091 504.1 916.476 505.003 917.35 504.627C923.618 501.842 921.868 512.904 921.213 515.613C920.265 519.225 918.881 522.687 917.132 525.922C916.767 526.524 917.059 527.427 917.787 527.578C921.796 528.481 919.682 534.727 918.808 537.285C917.35 541.499 915.82 545.638 914.362 549.852C911.374 558.205 908.459 566.557 905.472 574.91C905.18 575.813 906.055 576.49 906.783 576.265C908.168 575.964 909.115 575.286 910.136 574.308C911.083 573.405 912.103 572.276 913.342 571.825C914.727 571.373 916.257 571.674 917.715 571.75C921.869 571.9 926.022 571.373 929.885 569.868C937.318 567.009 943.512 561.44 947.156 554.141C947.812 552.862 945.917 551.733 945.261 553.012C941.399 560.763 934.476 566.482 926.314 568.664C922.16 569.793 918.298 568.965 914.217 569.417C910.646 569.793 909.48 573.405 906.2 574.082C906.638 574.534 907.075 574.985 907.512 575.437C911.447 564.3 915.455 553.163 919.391 542.026C920.848 537.887 925.585 526.976 918.37 525.32C918.589 525.847 918.808 526.449 919.026 526.976C921.941 521.633 925.221 514.183 924.273 507.862C923.69 503.799 920.192 500.864 916.257 502.595C916.767 503.122 917.277 503.648 917.787 504.175C928.792 488.749 957.213 493.49 962.387 472.194C962.533 470.764 960.492 470.162 960.128 471.592Z" fill="#E8E8E8"/>
<path d="M903.429 689.29C912.028 690.269 919.534 684.098 928.207 685.377C936.15 686.506 943.365 690.946 951.527 690.57C952.911 690.494 952.911 688.237 951.527 688.312C943.219 688.688 935.858 684.023 927.769 683.045C919.243 682.066 911.883 688.011 903.429 687.033C902.044 686.882 902.044 689.14 903.429 689.29Z" fill="#E8E8E8"/>
<path d="M948.905 545.94C947.521 548.95 945.845 551.734 943.804 554.368C942.93 555.496 944.46 557.077 945.334 555.948C947.521 553.239 949.343 550.304 950.727 547.068C951.383 545.789 949.488 544.66 948.905 545.94Z" fill="#E8E8E8"/>
<path d="M640.424 674.466C669.282 667.092 699.38 672.359 728.53 674.241C759.137 676.197 789.818 676.498 820.498 676.197C837.915 676.047 855.259 675.67 872.676 675.369C874.061 675.369 874.061 673.112 872.676 673.112C841.559 673.714 810.368 674.316 779.251 673.864C763.801 673.639 748.352 673.112 732.975 672.209C718.036 671.306 703.169 669.726 688.23 668.898C672.052 667.995 655.727 668.221 639.914 672.284C638.529 672.585 639.112 674.767 640.424 674.466Z" fill="#E8E8E8"/>
<path d="M880.694 713.672C903.067 717.058 925.075 710.888 947.302 709.232C970.403 707.501 993.505 711.038 1016.02 716.531C1017.41 716.832 1017.99 714.725 1016.61 714.349C994.889 709.082 972.517 705.545 950.071 706.824C927.115 708.103 904.306 715.026 881.277 711.565C879.892 711.264 879.309 713.446 880.694 713.672Z" fill="#E8E8E8"/>
<path d="M150.777 674.015C177.74 671.306 204.559 673.112 231.085 678.756C243.401 681.389 255.79 684.174 268.47 684.023C280.786 683.873 293.029 681.465 305.126 679.358C319.701 676.799 334.495 674.617 349.215 677.1C350.6 677.326 351.183 675.144 349.798 674.918C324.802 670.629 300.462 679.583 275.757 681.465C261.911 682.518 248.575 680.185 235.093 677.326C222.34 674.617 209.587 672.359 196.542 671.306C181.311 670.102 166.008 670.252 150.777 671.833C149.392 671.833 149.392 674.09 150.777 674.015Z" fill="#E8E8E8"/>
<path d="M70.7581 492.888C92.6206 487.094 114.556 481.3 136.929 477.989C159.228 474.678 181.455 474.602 203.755 477.537C246.678 483.256 289.237 494.017 331.068 505.455C413.343 528.105 493.943 556.775 576.146 579.727C622.568 592.67 669.499 603.807 717.086 610.805C718.471 611.031 719.054 608.848 717.669 608.623C632.26 595.981 549.474 570.32 467.125 544.359C384.922 518.398 302.282 491.308 217.164 477.236C192.678 473.173 168.265 471.668 143.487 474.753C118.637 477.838 94.2967 484.234 70.1022 490.631C68.7905 491.082 69.3735 493.264 70.7581 492.888Z" fill="#E8E8E8"/>
<path d="M499.046 556.249C549.986 556.475 600.415 548.122 650.262 537.888C700.4 527.579 750.246 515.313 800.967 507.863C829.826 503.574 858.903 501.015 888.053 501.166C889.438 501.166 889.438 498.908 888.053 498.908C837.113 498.607 786.684 506.96 736.837 517.119C686.699 527.428 636.853 539.694 586.132 547.219C557.273 551.508 528.196 554.142 499.046 553.991C497.589 553.991 497.589 556.249 499.046 556.249Z" fill="#E8E8E8"/>
<path d="M999.553 513.28C1015.66 518.999 1031.25 526.148 1046.12 534.727C1047.36 535.404 1048.45 533.523 1047.21 532.77C1032.13 524.116 1016.39 516.893 1000.06 511.098C998.824 510.647 998.241 512.829 999.553 513.28Z" fill="#E8E8E8"/>
<path d="M44.2334 595.077C52.2497 609.826 55.3833 626.757 53.4157 643.538C53.3428 644.14 53.9987 644.667 54.5088 644.667C56.9866 644.516 61.2862 644.667 63.108 646.774C64.7842 648.655 63.108 650.762 62.0149 652.343C60.5574 654.45 58.6627 656.632 58.6627 659.341C58.6627 660.846 59.2457 662.05 59.7558 663.404C60.9218 666.188 61.5777 668.822 62.0878 671.832C62.7437 675.896 63.4724 679.809 65.0757 683.571C71.3429 698.471 85.5536 707.952 98.4524 716.23C99.6184 716.982 100.784 715.026 99.5455 714.273C85.2621 705.093 68.7194 694.106 65.0028 675.896C64.0554 671.23 63.4724 666.79 61.7234 662.275C59.7558 657.459 63.3267 655.277 65.2943 651.439C69.0109 644.441 59.7558 642.108 54.5817 642.409C54.946 642.786 55.3104 643.162 55.6748 643.538C57.7153 626.381 54.363 609.074 46.201 593.948C45.4723 592.669 43.5775 593.798 44.2334 595.077Z" fill="#E8E8E8"/>
<path d="M48.0215 595.228C55.4548 599.743 62.9609 604.333 70.3942 608.848C73.382 610.654 79.1392 613.589 77.8274 617.878C77.0987 620.286 74.4752 621.265 74.548 624.049C74.548 624.801 75.2039 625.328 75.9327 625.102C81.7627 623.522 84.1675 630.596 86.4267 634.584C88.3214 637.895 91.0907 640.228 93.7142 642.937C98.9612 648.43 103.188 654.826 106.394 661.749C113.026 676.047 114.921 692.526 111.496 707.953C111.204 709.382 113.318 709.984 113.609 708.555C117.326 691.699 114.994 673.864 107.269 658.513C103.334 650.612 98.0138 644.141 91.8923 637.97C87.0097 633.079 84.3862 620.437 75.3497 622.845C75.7869 623.221 76.297 623.597 76.7343 623.898C76.6614 622.168 79.0663 620.888 79.8679 619.534C80.378 618.556 80.5967 617.653 80.5238 616.524C80.3052 613.589 77.8274 611.106 75.6412 609.375C71.7059 606.29 67.0419 603.957 62.7423 601.399C58.224 598.614 53.6329 595.83 49.1147 593.046C47.8758 592.519 46.7827 594.476 48.0215 595.228Z" fill="#E8E8E8"/>
<path d="M60.557 616.599C79.796 643.914 94.0795 674.616 102.679 707.124C103.043 708.554 105.156 707.952 104.792 706.522C96.12 673.789 81.8365 642.861 62.4517 615.47C61.6501 614.266 59.7553 615.395 60.557 616.599Z" fill="#E8E8E8"/>
<path d="M90.6535 634.208C91.6738 608.848 111.277 589.283 113.099 563.999C112.37 564.075 111.642 564.225 110.986 564.3C112.953 570.621 114.921 576.942 116.961 583.263C118.2 587.101 125.634 604.333 117.253 604.108C116.16 604.108 115.795 605.613 116.67 606.215C119.949 608.397 119.293 612.912 119.512 616.449C119.658 619.459 120.314 622.017 121.48 624.801C125.269 633.455 126.071 641.883 124.832 651.214C123.666 659.868 121.334 668.296 119.293 676.724C117.107 685.904 114.921 695.16 112.735 704.341C112.37 705.77 114.484 706.372 114.848 704.943C117.253 694.784 119.731 684.625 122.136 674.391C124.322 665.286 126.8 656.181 127.528 646.774C127.82 642.636 127.747 638.422 127.018 634.283C126.217 629.617 123.957 625.78 122.573 621.34C120.824 615.771 123.447 607.87 117.836 604.183C117.617 604.86 117.472 605.613 117.253 606.29C124.905 606.516 123.739 597.335 122.208 592.444C119.221 582.887 116.16 573.255 113.172 563.698C112.808 562.494 111.131 562.72 111.059 563.999C109.31 589.208 89.6333 608.773 88.613 634.208C88.3944 635.637 90.5806 635.637 90.6535 634.208Z" fill="#E8E8E8"/>
<path d="M112.081 584.617C107.854 604.032 104.721 623.747 102.753 643.538C102.607 644.968 104.794 644.968 104.939 643.538C106.907 623.898 110.041 604.483 114.194 585.219C114.486 583.79 112.373 583.188 112.081 584.617Z" fill="#E8E8E8"/>
<path d="M73.8191 670.027C81.6896 671.532 88.6856 675.369 94.2969 681.239C95.3172 682.292 96.8476 680.712 95.8273 679.659C89.9973 673.488 82.6369 669.425 74.4021 667.844C73.0174 667.619 72.4344 669.801 73.8191 670.027Z" fill="#E8E8E8"/>
<path d="M84.6776 651.138C85.4063 645.043 86.208 639.023 86.9367 632.928C87.0825 631.498 84.8962 631.498 84.7505 632.928C84.0217 639.023 83.2201 645.043 82.4913 651.138C82.3456 652.568 84.5318 652.568 84.6776 651.138Z" fill="#E8E8E8"/>
<path d="M100.713 607.344C102.973 610.429 104.503 613.74 105.305 617.502C105.596 618.932 107.709 618.33 107.418 616.9C106.543 612.987 104.94 609.375 102.608 606.215C101.734 605.086 99.8389 606.14 100.713 607.344Z" fill="#E8E8E8"/>
<path d="M672.852 626.532C673.289 631.348 673.143 636.164 672.633 640.98C672.56 641.432 672.997 642.034 673.435 642.034C675.402 642.335 677.37 642.636 679.41 642.861C679.192 642.335 678.973 641.733 678.755 641.206C678.026 643.012 675.912 645.871 676.933 647.828C677.589 649.032 679.265 649.408 679.921 650.838C680.722 652.569 680.503 654.6 681.232 656.331C684.147 662.803 695.151 658.89 696.9 665.737C697.265 667.167 699.378 666.565 699.014 665.135C697.556 659.266 691.289 659.793 686.771 658.212C681.961 656.557 683.491 651.967 681.232 648.43C680.722 647.677 679.265 647.075 678.973 646.473C678.682 645.871 680.212 643.238 680.649 642.335C680.868 641.733 680.795 640.754 679.993 640.679C678.026 640.378 676.058 640.077 674.018 639.851C674.309 640.228 674.528 640.604 674.819 640.905C675.402 636.089 675.475 631.273 675.038 626.457C674.892 625.102 672.706 625.102 672.852 626.532Z" fill="#E8E8E8"/>
<path d="M675.26 629.241C681.454 632.176 688.232 634.584 693.916 638.497C701.203 643.539 702.224 650.988 702.151 659.492C702.151 660.921 704.337 660.921 704.337 659.492C704.337 651.816 703.827 644.141 697.851 638.798C691.875 633.38 683.495 630.671 676.353 627.285C675.114 626.683 674.021 628.639 675.26 629.241Z" fill="#E8E8E8"/>
<path d="M681.454 640.98C689.543 646.473 695.664 654.149 699.527 663.329C700.11 664.684 701.931 663.48 701.421 662.201C697.486 652.644 691 644.743 682.62 639.099C681.381 638.271 680.288 640.228 681.454 640.98Z" fill="#E8E8E8"/>
<path d="M702.584 642.409C702.001 640.076 700.981 637.142 702.147 634.884C703.094 633.078 704.916 632.702 706.447 631.648C708.706 630.143 709.216 626.607 710.309 624.349C711.038 622.844 712.422 619.909 713.88 619.006C715.993 617.652 717.742 620.06 718.325 622.167C718.908 624.274 718.544 626.306 717.815 628.337C717.451 629.316 716.868 630.143 716.941 631.272C717.014 632.1 717.232 632.551 717.669 633.304C718.908 635.26 720.22 636.54 720.439 639.098C720.73 643.463 718.544 647.225 715.92 650.461C711.912 655.427 707.03 659.491 705.281 665.962C704.916 667.392 707.03 667.994 707.394 666.564C710.018 657.083 720.657 652.493 722.406 642.635C723.062 639.023 722.115 636.54 720.657 633.379C719.273 630.294 720.074 629.316 720.584 626.456C720.876 624.876 720.803 623.145 720.366 621.565C719.783 619.232 717.742 615.695 714.973 615.771C712.204 615.771 709.799 620.662 708.706 622.694C707.613 624.725 707.03 627.961 705.354 629.391C704.042 630.52 702.511 630.67 701.273 631.949C698.503 635.035 699.451 639.399 700.398 643.011C700.908 644.366 703.022 643.839 702.584 642.409Z" fill="#E8E8E8"/>
<path d="M711.841 632.552C708.052 641.281 704.773 650.236 702.149 659.416C701.712 660.846 703.825 661.373 704.262 660.018C706.813 651.063 710.02 642.259 713.736 633.756C714.319 632.401 712.424 631.197 711.841 632.552Z" fill="#E8E8E8"/>
<path d="M135.545 661.448C156.752 654.149 179.853 654.826 200.622 663.48C201.934 664.007 202.517 661.824 201.205 661.298C180.072 652.569 156.533 651.891 134.962 659.266C133.65 659.793 134.233 661.975 135.545 661.448Z" fill="#E8E8E8"/>
<path d="M857.592 235.759C890.394 235.759 916.985 208.705 916.985 175.333C916.985 141.961 890.394 114.907 857.592 114.907C824.79 114.907 798.199 141.961 798.199 175.333C798.199 208.705 824.79 235.759 857.592 235.759Z" stroke="#E8E8E8" stroke-width="2" stroke-miterlimit="10"/>
<path d="M149.829 297.313C145.238 289.638 156.169 283.392 162.364 283.919C170.016 284.596 176.866 289.186 184.591 289.638C197.198 290.465 207.765 281.661 218.769 276.845C225.546 273.91 232.324 272.857 239.465 274.738C246.461 276.619 252.802 280.307 259.725 282.338C265.773 284.144 271.676 284.22 277.798 282.564C284.648 280.758 290.988 277.372 297.911 275.641C305.344 273.76 311.83 275.039 318.17 279.253C323.49 282.79 328.373 287.455 334.567 289.412C341.126 291.519 352.567 288.96 355.774 297.012C359.126 305.365 346.956 308.676 341.418 309.428C332.818 310.482 324.073 310.708 315.474 309.955C307.093 309.278 298.931 307.171 290.551 306.945C282.826 306.719 276.267 308.902 269.636 312.89C262.64 317.179 256.008 320.866 247.7 321.769C229.992 323.726 212.647 316.803 195.012 317.029C185.101 317.104 174.752 319.813 164.987 316.953C156.825 314.545 148.59 306.644 150.558 297.238C150.849 295.808 148.736 295.206 148.445 296.636C147.06 303.408 149.975 309.579 155.003 313.943C161.198 319.286 168.922 320.641 176.793 320.49C186.34 320.264 195.595 318.91 205.141 319.888C214.032 320.866 222.85 322.748 231.741 323.801C239.903 324.704 248.429 324.855 256.372 322.371C264.826 319.662 271.385 313.116 279.838 310.557C289.458 307.622 299.587 310.407 309.28 311.686C319.045 312.965 328.956 313.116 338.721 312.137C344.77 311.535 351.839 310.557 356.211 305.666C359.928 301.452 358.98 295.582 354.681 292.196C348.195 287.079 339.231 289.638 332.09 286.101C325.531 282.865 320.357 277.146 313.506 274.287C298.421 267.966 284.794 281.21 269.927 281.736C261.619 282.037 254.04 277.899 246.534 274.889C239.611 272.18 232.615 270.599 225.328 272.33C217.603 274.136 210.826 278.501 203.83 282.113C195.012 286.628 186.777 288.885 177.084 285.8C169.433 283.392 161.125 279.178 153.4 283.693C148.372 286.628 144.509 292.723 147.934 298.442C148.663 299.721 150.558 298.592 149.829 297.313Z" fill="#E8E8E8"/>
<path d="M525.499 190.759C531.329 178.343 547.289 187.674 555.742 190.458C566.673 194.07 575.71 188.953 585.475 184.288C591.524 181.353 597.5 179.622 604.204 179.999C611.054 180.45 617.759 182.407 624.536 183.385C637.435 185.191 649.459 180.977 661.994 178.795C668.698 177.666 675.549 177.44 682.253 178.193C685.678 178.569 689.103 179.171 692.456 180.074C695.589 180.902 699.452 181.654 702.221 183.385C710.674 188.577 699.452 197.306 694.205 198.886C688.812 200.542 683.055 200.166 677.589 199.187C671.249 198.059 664.982 196.177 658.569 195.951C652.52 195.65 647.055 197.306 641.516 199.564C635.103 202.197 628.982 204.756 621.986 204.831C615.135 204.906 608.212 203.928 601.362 203.552C585.621 202.799 569.807 203.176 554.139 204.681C546.633 205.433 538.981 207.239 531.475 207.314C527.758 207.39 523.823 206.562 521.054 203.853C519.45 202.197 518.284 200.015 518.649 197.607C519.086 194.672 521.418 191.888 524.625 192.415C526.009 192.641 526.592 190.458 525.208 190.233C520.762 189.555 516.973 192.866 516.39 197.456C515.807 202.423 519.742 206.637 523.969 208.368C530.527 211.077 538.179 208.895 544.884 208.067C553.192 207.013 561.499 206.261 569.88 205.885C578.261 205.508 586.568 205.358 594.949 205.659C603.257 205.884 611.564 206.863 619.872 207.164C627.451 207.389 634.01 205.132 640.933 202.272C649.022 198.961 656.31 197.532 664.982 199.037C676.569 200.993 690.051 205.809 700.836 198.36C704.553 195.801 708.342 190.91 707.031 186.019C705.573 180.375 696.901 179.02 692.383 177.891C685.387 176.161 678.172 175.408 670.958 175.709C663.233 176.086 655.727 177.892 648.221 179.547C639.767 181.428 631.532 182.407 622.933 180.977C615.645 179.773 608.358 177.591 600.852 177.816C585.257 178.193 572.868 193.619 556.835 188.652C549.985 186.545 543.645 182.331 536.212 182.482C531.038 182.632 525.863 184.739 523.531 189.781C523.021 190.91 524.916 192.039 525.499 190.759Z" fill="#E8E8E8"/>
<path d="M849.137 303.86C867.575 293.25 889.364 298.592 909.405 298.141C919.389 297.915 928.279 295.582 937.753 292.422C943.146 290.616 948.466 289.337 954.15 289.337C959.761 289.261 965.3 290.014 970.911 290.315C975.648 290.541 980.458 290.541 985.049 289.337C987.308 288.81 989.422 287.832 991.608 287.305C996.563 286.176 998.895 289.939 999.041 294.604C999.333 306.117 988.11 312.514 978.563 314.244C967.049 316.276 955.097 314.771 943.51 314.395C932.506 314.094 921.794 315.147 910.935 317.179C898.401 319.512 885.793 322.447 872.967 322.146C866.919 321.995 860.87 321.167 855.113 319.211C852.271 318.233 849.283 317.029 846.732 315.298C844.036 313.492 840.101 307.246 845.639 306.042C847.024 305.741 846.441 303.559 845.056 303.86C841.923 304.537 840.246 307.848 840.829 311.084C841.704 315.599 846.587 318.082 850.303 319.738C860.943 324.554 872.822 325.156 884.263 324.027C897.818 322.748 910.935 318.985 924.49 317.405C938.482 315.749 952.474 317.555 966.539 317.48C977.033 317.405 989.349 316.276 996.636 307.397C999.405 304.01 1001.3 299.721 1001.37 295.206C1001.45 291.594 1000.35 286.853 996.782 285.348C992.191 283.392 986.652 287.004 982.134 287.756C975.502 288.81 968.652 287.907 962.021 287.455C956.118 287.004 950.215 286.929 944.385 288.283C937.899 289.788 931.777 292.572 925.292 294.153C899.931 300.323 872.02 288.283 848.19 302.054C846.805 302.656 847.898 304.612 849.137 303.86Z" fill="#E8E8E8"/>
<path d="M91.1662 763.412C118.203 755.435 145.604 747.534 173.734 745.126C187.871 743.922 202.155 744.148 216.22 746.631C229.702 749.039 242.382 753.78 254.771 759.574C268.398 765.82 281.734 772.818 295.945 777.408C297.257 777.86 297.84 775.677 296.528 775.226C270.147 766.647 246.754 750.394 219.426 744.976C192.317 739.558 164.478 742.718 137.733 748.588C121.847 752.124 106.178 756.639 90.5832 761.229C89.2714 761.606 89.8544 763.788 91.1662 763.412Z" fill="#E8E8E8"/>
<path d="M258.777 757.919C279.838 755.285 300.753 753.329 321.887 755.887C342.729 758.446 363.061 764.616 382.008 773.947C383.247 774.549 384.413 772.593 383.102 771.991C364.591 762.885 344.842 756.715 324.51 754.006C302.502 750.996 280.712 752.952 258.777 755.661C257.392 755.812 257.392 758.069 258.777 757.919Z" fill="#E8E8E8"/>
<path d="M351.618 773.27C362.112 776.43 372.533 779.741 383.027 782.676C392.064 785.159 401.465 786.739 410.574 783.504C411.886 783.052 411.303 780.87 409.991 781.321C400.445 784.783 390.534 782.525 381.06 779.741C371.44 776.957 361.821 773.947 352.201 771.087C350.89 770.711 350.307 772.893 351.618 773.27Z" fill="#E8E8E8"/>
<path d="M262.714 778.236C285.524 779.365 306.949 794.339 330.124 788.921C331.508 788.62 330.925 786.438 329.541 786.739C306.731 792.082 285.233 777.107 262.714 775.978C261.33 775.903 261.33 778.161 262.714 778.236Z" fill="#E8E8E8"/>
<path d="M58.5153 783.052C75.4952 778.085 92.4751 773.119 109.455 768.152C110.84 767.776 110.257 765.594 108.872 765.97C91.8921 770.937 74.9122 775.903 57.9323 780.87C56.5477 781.246 57.1307 783.428 58.5153 783.052Z" fill="#E8E8E8"/>
<path d="M103.191 778.763C118.714 774.474 134.454 770.862 150.268 768.002C151.653 767.777 151.07 765.594 149.685 765.82C133.871 768.755 118.13 772.292 102.608 776.581C101.223 777.032 101.807 779.139 103.191 778.763Z" fill="#E8E8E8"/>
<path d="M433.752 714.725C490.157 714.725 546.563 714.725 603.041 714.725C607.267 714.725 607.267 707.952 603.041 707.952C546.635 707.952 490.23 707.952 433.752 707.952C429.525 707.952 429.525 714.725 433.752 714.725Z" fill="#161616"/>
<path d="M624.611 716.004C636.199 716.004 647.786 716.004 659.446 716.004C663.673 716.004 663.673 709.231 659.446 709.231C647.859 709.231 636.271 709.231 624.611 709.231C620.385 709.231 620.385 716.004 624.611 716.004Z" fill="#161616"/>
<path d="M682.186 714.725C687.36 714.725 692.607 714.725 697.781 714.725C702.008 714.725 702.008 707.952 697.781 707.952C692.607 707.952 687.36 707.952 682.186 707.952C677.959 707.952 677.959 714.725 682.186 714.725Z" fill="#161616"/>
<path d="M673.803 770.485C726.419 770.485 779.107 770.485 831.723 770.485C846.662 770.485 861.675 770.485 876.614 770.485C880.841 770.485 880.841 763.713 876.614 763.713C823.998 763.713 771.31 763.713 718.694 763.713C703.755 763.713 688.742 763.713 673.803 763.713C669.576 763.713 669.576 770.485 673.803 770.485Z" fill="#161616"/>
<path d="M893.447 769.281C904.67 769.281 915.82 769.281 927.043 769.281C931.27 769.281 931.27 762.509 927.043 762.509C915.82 762.509 904.67 762.509 893.447 762.509C889.221 762.509 889.221 769.281 893.447 769.281Z" fill="#161616"/>
<path d="M943.877 770.485C948.25 770.485 952.695 770.485 957.068 770.485C961.294 770.485 961.294 763.713 957.068 763.713C952.695 763.713 948.25 763.713 943.877 763.713C939.65 763.713 939.65 770.485 943.877 770.485Z" fill="#161616"/>
<path d="M199.752 131.462C203.396 133.494 206.748 135.977 209.809 138.912C210.829 139.89 212.359 138.31 211.339 137.331C208.206 134.246 204.708 131.688 200.845 129.581C199.606 128.828 198.513 130.785 199.752 131.462Z" fill="#161616"/>
<path d="M214.471 126.119C213.087 122.883 211.702 119.722 210.317 116.487C209.734 115.132 207.84 116.336 208.423 117.615C209.807 120.851 211.192 124.012 212.576 127.247C213.159 128.602 215.054 127.473 214.471 126.119Z" fill="#161616"/>
<path d="M223.875 120.927C222.563 116.939 222.126 112.95 222.709 108.736C222.855 107.307 220.668 107.307 220.523 108.736C220.013 113.101 220.377 117.39 221.834 121.529C222.199 122.883 224.312 122.281 223.875 120.927Z" fill="#161616"/>
<path d="M473.471 164.195C476.167 165.474 479.155 165.55 481.852 163.969C485.568 161.787 485.714 158.1 486.589 154.187C486.88 152.757 487.317 151.026 488.41 150.048C490.67 148.016 491.471 149.446 493.293 149.973C494.459 150.274 495.552 150.349 496.645 149.823C498.759 148.844 504.006 138.535 506.411 141.921C507.285 143.05 509.18 141.921 508.305 140.793C506.556 138.46 504.079 138.685 501.819 140.266C500.289 141.319 499.56 142.824 498.613 144.329C498.103 145.232 497.447 146.436 496.645 147.113C494.386 148.844 493.512 147.339 491.544 146.963C488.483 146.361 486.151 148.468 485.058 151.328C484.111 153.66 484.329 156.294 483.455 158.702C481.997 162.389 478.062 164.045 474.564 162.314C473.252 161.637 472.159 163.593 473.471 164.195Z" fill="#161616"/>
<path d="M484.4 171.42C486.805 173.226 489.574 172.022 491.396 169.915C494.603 166.002 492.344 159.38 497.372 156.897C501.089 155.015 505.388 155.843 508.959 153.209C512.093 150.877 513.769 147.265 514.06 143.352C514.133 141.922 511.947 141.922 511.874 143.352C511.583 147.942 508.668 151.704 504.368 152.984C501.599 153.811 498.538 153.661 495.987 155.015C493.874 156.144 492.635 158.101 492.052 160.433C491.615 162.014 491.542 163.744 491.178 165.325C490.595 167.582 488.408 171.646 485.566 169.463C484.4 168.636 483.307 170.592 484.4 171.42Z" fill="#161616"/>
<path d="M492.926 629.767C499.922 635.938 507.064 642.108 514.351 648.279C521.347 654.224 528.343 660.093 535.266 665.737C538.4 675.67 537.015 681.615 535.048 685.151C531.622 691.397 526.084 691.472 516.975 700.502C512.311 705.093 506.918 710.511 507.938 713.671C509.177 717.509 520.108 719.315 558.951 712.542C566.967 695.385 574.983 678.228 582.999 661.071C565.436 642.259 547.801 623.371 530.238 604.559C517.776 612.987 505.387 621.415 492.926 629.767Z" fill="#191919"/>
<path d="M414.074 451.801C406.131 471.592 414.366 493.565 427.338 527.954C432.73 542.252 438.342 553.013 441.257 558.506C447.014 569.417 450.366 574.158 473.905 608.396C492.634 635.637 494.455 638.421 499.921 640.227C518.723 646.473 549.185 630.52 549.476 609.676C549.695 595.077 534.974 584.542 532.569 582.811C523.605 569.793 517.994 557.904 514.423 549.1C508.229 533.673 501.597 517.269 502.909 496.65C504.075 478.891 509.832 477.838 509.541 462.336C509.468 459.928 508.593 430.957 491.395 419.293C468.949 404.168 425.589 423.206 414.074 451.801Z" fill="white" stroke="#191919" stroke-width="2" stroke-miterlimit="10"/>
<path opacity="0.47" d="M508.592 455.187C509.758 458.498 508.811 464.744 506.916 477.16C504.803 491.006 503.272 491.834 502.544 499.133C501.305 511.324 504.293 520.429 509.977 537.812C511.507 542.402 514.714 549.701 521.127 564.3C525.572 574.383 527.759 578.898 532.641 583.112C536.576 586.499 538.18 586.348 541.386 589.734C545.977 594.625 549.038 601.925 549.184 608.547C549.475 623.521 535.265 635.562 522.876 639.55C511.945 643.087 502.252 640.377 497.88 638.872C489.28 628.337 477.402 613.137 464.43 593.873C447.596 568.89 438.195 555.044 430.981 535.629C422.236 512.151 408.316 474.752 426.244 453.306C447.45 428.097 502.471 438.181 508.592 455.187Z" fill="#6C6D6D"/>
<path opacity="0.37" d="M460.641 487.62C469.604 494.919 468.22 507.486 470.114 525.998C472.301 547.293 477.839 567.159 483.305 579.726C498.973 615.846 529.653 628.338 525.208 637.292C522.73 642.259 510.779 643.463 502.252 640.754C499.119 639.776 496.714 638.346 495.183 637.292C481.702 619.232 471.28 603.806 464.139 592.97C427.41 537.436 423.547 519.3 426.681 504.401C427.555 500.262 429.815 489.351 438.487 484.911C445.41 481.224 454.738 482.804 460.641 487.62Z" fill="#6C6D6D"/>
<path opacity="0.47" d="M484.182 486.793C479.08 498.08 473.469 505.756 469.461 510.647C459.477 522.687 451.825 525.998 446.36 537.436C442.57 545.488 441.914 553.163 441.841 557.979C439.582 554.292 437.323 550.304 435.137 546.09C430.254 536.533 426.61 527.503 423.914 519.301C444.028 508.465 464.068 497.629 484.182 486.793Z" fill="#6C6D6D"/>
<path d="M351.84 623.371C358.836 629.541 365.978 635.712 373.265 641.882C380.261 647.827 387.257 653.697 394.18 659.34C391.848 662.049 388.204 666.188 383.759 671.155C375.524 680.26 373.338 682.141 370.787 686.581C369.548 688.763 362.698 700.878 366.342 705.619C371.152 711.865 393.233 703.211 407.662 693.805C416.48 688.011 430.618 676.573 441.986 654.75C424.423 635.938 406.788 617.05 389.225 598.237C376.69 606.59 364.229 615.018 351.84 623.371Z" fill="#191919"/>
<path d="M417.136 444.05C405.476 451.5 396.075 458.874 363.937 489.2C311.832 538.263 306.876 546.766 305.346 558.43C302.795 577.769 310.52 598.914 324.658 612.309C328.156 615.62 342.366 629.014 361.97 627.208C378.367 625.703 400.229 613.438 399.282 596.506C398.699 585.445 388.496 575.135 374.796 570.244C402.925 543.756 428.65 527.201 447.671 516.741C471.501 503.648 486.659 499.058 493.509 482.578C501.963 462.185 494.456 431.709 476.966 423.055C461.663 415.53 443.735 427.043 417.136 444.05Z" fill="white" stroke="#191919" stroke-width="2" stroke-miterlimit="10"/>
<path opacity="0.42" d="M453.211 435.697C453.211 449.619 451.024 468.281 440.53 485.739C416.481 525.471 372.319 523.063 361.096 558.882C359.785 563.171 355.048 582.962 364.522 593.948C369.769 599.968 377.931 601.699 380.19 609.826C381.501 614.491 380.19 619.006 378.878 622.167C389.008 619.834 396.805 611.782 398.481 601.925C401.105 586.348 386.603 576.264 385.51 575.512C380.918 572.427 376.4 571.448 373.558 571.072C405.259 540.144 433.753 522.611 454.887 512.151C469.462 504.927 487.097 497.703 494.021 479.944C499.851 464.894 495.478 448.866 491.033 438.181C478.425 437.278 465.818 436.525 453.211 435.697Z" fill="#6C6D6D"/>
<path opacity="0.5" d="M467.493 455.262C468.732 462.26 469.607 472.795 465.526 483.707C458.676 501.992 442.352 509.141 424.716 521.407C411.963 530.211 394.473 544.584 376.254 567.686C381.647 563.171 389.153 557.075 398.335 550.152C415.534 537.209 425.08 530.061 438.999 522.385C459.696 511.098 470.044 505.454 470.627 505.153C472.959 504.099 477.915 501.917 482.943 497.101C484.4 495.671 488.627 491.457 491.979 484.083C493.218 481.299 503.421 459.401 494.603 451.5C489.21 446.533 477.769 448.113 467.493 455.262Z" fill="#6C6D6D"/>
<path d="M431.711 247.949C440.383 246.143 453.573 244.412 469.46 246.067C483.234 247.497 508.521 250.056 528.27 269.696C533.517 274.963 542.845 284.445 546.198 299.721C550.351 318.684 542.991 334.938 540.003 340.657C527.906 363.834 508.958 363.758 500.359 385.43C499.558 387.462 497.226 393.633 491.687 399.502C485.638 405.823 477.185 410.188 475.582 408.457C474.853 407.629 475.217 405.296 479.881 398.223C478.715 398.975 473.906 402.136 468.148 400.781C460.205 398.975 454.885 389.795 456.416 383.549C456.78 381.969 457.8 379.561 470.043 372.036C475.655 368.574 478.497 366.844 483.671 364.36C497.007 357.964 521.201 336.142 517.703 315.749C515.663 304.01 504.877 295.206 496.06 291.443C478.497 284.069 467.055 296.109 453.355 290.164C445.339 286.627 436.011 276.769 431.711 247.949Z" fill="white" stroke="#191919" stroke-width="2" stroke-miterlimit="10"/>
<path opacity="0.29" d="M438.852 260.214C445.775 260.214 456.123 260.816 468.294 263.525C484.909 267.287 499.63 272.103 513.33 284.896C524.845 295.657 526.958 310.932 527.614 315.673C528.197 320.038 530.31 335.012 522.44 348.783C517.411 357.512 512.383 358.867 496.861 372.186C488.99 378.958 486.075 385.957 476.456 391.6C466.836 397.244 463.047 395.589 461.881 394.911C456.634 392.052 456.415 383.699 456.342 382.57C458.091 380.84 460.86 378.281 464.431 375.572C476.237 366.542 481.557 366.994 491.614 360.522C495.549 357.964 507.427 350.062 513.986 335.464C515.881 331.25 518.432 325.23 517.557 317.404C516.61 309.126 512.31 303.633 510.78 301.677C501.597 290.239 487.387 288.583 484.545 288.282C469.46 286.852 463.047 294.979 452.771 289.637C448.253 287.304 445.629 283.692 444.318 281.961C437.978 273.082 438.561 263.073 438.852 260.214Z" fill="#6C6D6D"/>
<path opacity="0.24" d="M447.962 284.971C448.326 280.607 465.015 278.349 476.456 278.274C487.898 278.199 500.796 278.124 511.145 287.605C517.12 293.023 519.452 299.118 519.89 300.322C526.448 317.78 514.788 334.862 513.404 336.743C514.934 334.335 519.89 325.907 517.922 315.372C515.954 304.461 507.938 298.516 504.003 295.657C501.671 293.926 493.873 288.358 482.942 287.981C470.48 287.605 465.015 294.378 455.104 290.69C454.667 290.465 447.743 287.831 447.962 284.971Z" fill="#6C6D6D"/>
<path d="M239.466 195.65C236.915 191.286 233.854 184.965 231.595 176.913C224.891 152.532 231.012 128.001 233.781 128.076C234.874 128.076 236.259 131.914 237.644 147.942C239.174 142.449 239.976 137.934 240.486 134.698C240.996 131.312 241.287 128.527 243.182 125.668C244.64 123.41 246.534 121.981 247.919 121.153C249.158 120.024 250.397 118.82 251.636 117.691C252.947 118.82 254.041 119.949 254.988 121.153C264.899 133.644 259.579 152.758 258.122 157.499C259.798 156.37 261.911 154.639 263.806 152.081C267.231 147.566 267.377 143.878 268.178 143.954C269.709 144.104 271.603 157.273 267.085 170.442C265.701 174.505 264.024 177.666 262.713 179.848C262.421 187.373 262.275 213.56 280.348 237.64C282.025 239.822 307.604 273.007 341.928 271.352C364.3 270.298 371.952 255.775 386.819 261.72C398.333 266.31 406.714 280.156 407.005 294.529C407.37 309.504 398.916 323.425 385.58 329.896C376.033 330.724 362.041 331.025 345.572 328.316C326.843 325.231 287.855 318.759 265.628 287.531C255.862 273.76 251.344 258.033 249.522 249.906C249.231 248.551 249.012 247.573 248.648 245.767C246.389 234.856 243.328 218.677 239.466 195.65Z" fill="white" stroke="#191919" stroke-width="2" stroke-miterlimit="10"/>
<path d="M247.335 126.947C248.72 126.947 248.72 124.689 247.335 124.689C245.951 124.689 245.951 126.947 247.335 126.947Z" fill="#161616"/>
<path d="M247.555 121.454C245.442 130.033 244.276 138.686 244.203 147.491C244.203 148.544 245.806 148.544 245.879 147.491C245.952 138.837 247.045 130.258 249.159 121.906C249.377 120.852 247.774 120.401 247.555 121.454Z" fill="#161616"/>
<path d="M253.967 121.454C252.364 129.656 251.417 137.933 251.344 146.286C251.344 147.34 252.947 147.34 253.02 146.286C253.166 138.084 253.967 129.957 255.571 121.905C255.716 120.776 254.186 120.325 253.967 121.454Z" fill="#161616"/>
<path opacity="0.24" d="M231.741 135.149C233.199 135.225 232.397 150.275 235.604 169.463C239.393 192.264 247.41 208.368 252.001 220.257C260.163 241.478 276.049 282.639 312.341 300.925C349.362 319.662 389.224 305.064 401.613 299.947C401.977 302.28 402.488 308.375 399.5 314.997C396.73 321.167 392.431 324.629 390.463 325.908C387.038 327.338 381.937 329.144 375.524 330.122C365.54 331.627 357.669 330.197 350.892 328.843C327.936 324.177 316.422 321.92 305.71 316.953C294.56 311.836 280.276 305.214 268.325 290.541C256.665 276.318 253.094 261.72 246.827 235.834C242.891 219.655 240.997 205.96 239.976 196.252C235.822 189.104 230.503 177.741 229.045 163.067C227.588 148.77 230.357 135.149 231.741 135.149Z" fill="#6C6D6D"/>
<path opacity="0.4" d="M242.745 126.119C243.619 125.291 244.494 124.463 245.441 123.636C240.996 141.395 238.591 150.274 238.226 150.199C237.862 150.048 239.32 142.072 242.745 126.119Z" fill="#6C6D6D"/>
<path opacity="0.44" d="M309.645 318.834C318.827 321.393 331.871 323.876 347.54 322.973C372.754 321.543 391.702 312.137 401.759 306.117C401.467 308.525 400.447 314.997 395.418 320.941C389.661 327.789 382.447 329.445 380.188 329.821C373.192 330.047 365.613 329.896 357.523 329.219C338.649 327.563 322.471 323.349 309.645 318.834Z" fill="#6C6D6D"/>
<path d="M420.488 350.966C442.424 338.474 477.549 320.339 522.878 305.289C593.202 281.962 633.21 284.294 702.077 269.244C740.191 260.967 795.649 245.465 861.455 214.011C861.601 222.138 861.965 230.49 862.621 239.219C864.005 258.408 866.556 276.092 869.617 292.12C863.058 303.709 856.426 315.372 849.868 326.961C851.835 346.977 853.73 366.994 855.698 387.01C816.272 387.913 775.9 389.419 734.652 391.827C633.065 397.696 536.724 407.704 446.067 420.647C437.541 397.47 429.015 374.218 420.488 350.966Z" fill="#AF4545"/>
<g opacity="0.28">
<path d="M504.66 320.866C560.774 304.085 618.855 295.055 677.228 293.926C678.612 293.926 678.612 291.669 677.228 291.669C618.636 292.798 560.336 301.903 504.077 318.684C502.692 319.06 503.275 321.242 504.66 320.866Z" fill="#681225"/>
</g>
<g opacity="0.28">
<path d="M657.695 306.569C709.072 293.174 764.748 305.816 814.158 283.316C815.469 282.714 814.303 280.758 813.064 281.36C763.874 303.784 708.197 291.067 657.112 304.386C655.727 304.763 656.31 306.945 657.695 306.569Z" fill="#681225"/>
</g>
<g opacity="0.28">
<path d="M761.468 321.317C786.537 315.598 812.408 314.469 837.914 318.156C839.299 318.382 839.882 316.2 838.497 315.974C812.627 312.212 786.392 313.265 760.885 319.135C759.501 319.436 760.084 321.618 761.468 321.317Z" fill="#681225"/>
</g>
<path d="M382.301 260.515C385.872 262.848 391.848 267.363 396.439 275.114C402.925 286.025 407.953 305.59 397.678 319.06C392.139 326.284 384.196 329.218 378.73 330.347C382.52 342.839 386.091 356.534 388.933 371.283C395.71 405.898 397.168 437.127 396.366 463.088C411.816 465.872 432.877 467.979 457.727 465.496C480.027 463.239 498.537 457.971 512.383 452.929C508.885 389.193 494.383 341.86 482.577 311.836C479.225 303.332 453.937 240.047 431.783 243.057C425.37 243.885 421.945 249.905 406.933 255.398C396.949 259.01 388.131 260.139 382.301 260.515Z" fill="white" stroke="#191919" stroke-width="2" stroke-miterlimit="10"/>
<path opacity="0.36" d="M415.094 253.367C422.235 261.719 432.219 274.738 441.11 292.421C464.139 338.023 463.191 380.915 462.098 397.169C460.203 425.162 452.77 448.565 444.972 466.023C455.466 465.045 466.908 463.465 479.151 461.057C491.03 458.724 501.961 455.94 511.799 453.005C511.143 441.492 509.686 423.657 506.333 402.136C498.39 351.116 485.272 316.276 472.738 290.841C451.969 248.927 437.102 241.778 432.147 243.584C431.345 243.885 427.701 245.541 423.62 247.873C419.976 249.905 417.134 251.862 415.094 253.367Z" fill="#6C6D6D"/>
<path opacity="0.49" d="M464.211 277.146C467.199 301.451 470.478 321.317 472.956 335.013C481.701 383.549 488.77 402.813 481.847 429.602C478.057 444.351 471.498 455.488 466.616 462.562C472.446 462.185 479.077 461.433 486.219 459.928C496.349 457.821 505.021 454.736 512.017 451.65C510.559 404.77 501.304 349.536 473.758 294.754C470.697 288.659 467.49 282.789 464.211 277.146Z" fill="#6C6D6D"/>
<path d="M383.832 353.223C382.666 365.037 382.156 378.582 382.885 393.482C384.051 416.508 387.913 436.224 392.14 451.951C400.375 451.575 412.618 451.274 427.412 451.951C459.185 453.381 474.999 457.971 489.647 459.627C533.809 464.744 547.218 441.341 596.482 433.741C618.053 430.43 650.919 429.451 693.988 444.276C724.669 461.508 755.276 478.815 785.957 496.048C788.799 489.952 796.305 476.106 811.973 466.324C834.127 452.403 856.718 456.541 862.111 457.67C857.738 445.931 850.815 422.378 856.573 394.385C858.613 384.527 861.747 376.174 864.953 369.477C847.026 361.726 821.738 351.944 790.621 343.591C736.62 328.993 694.644 326.585 652.231 324.402C571.413 320.188 510.781 327.939 494.311 330.121C449.566 336.292 412.035 345.247 383.832 353.223Z" fill="#D73F3B"/>
<path opacity="0.25" d="M598.086 386.784C598.086 387.01 659.082 395.664 720.006 405.221C743.982 408.983 768.613 413.047 797.108 428.172C815.545 437.954 829.245 449.016 838.355 457.294C841.561 456.315 846.225 455.262 851.91 455.638C855.408 455.864 858.395 456.466 860.8 457.218C858.468 450.371 856.136 441.867 854.679 431.859C853.294 422.453 853.076 414.1 853.294 407.177C649.609 390.547 598.086 386.559 598.086 386.784Z" fill="#681225"/>
<path opacity="0.28" d="M383.176 383.624C388.058 391.676 393.378 396.04 397.168 398.448C409.921 406.651 421.508 403.565 452.99 407.629C459.184 408.457 464.213 409.284 467.346 409.811C440.164 412.595 412.909 415.38 385.726 418.089C385.071 413.122 384.488 407.855 384.05 402.361C383.54 395.815 383.249 389.494 383.176 383.624Z" fill="#681225"/>
<g opacity="0.28">
<path d="M479.007 410.865C500.651 412.595 522.441 410.714 543.502 405.221C544.886 404.845 544.303 402.662 542.919 403.039C522.003 408.457 500.505 410.338 479.007 408.607C477.623 408.457 477.623 410.714 479.007 410.865Z" fill="#681225"/>
</g>
<g opacity="0.28">
<path d="M563.906 405.672C588.173 403.941 612.513 405.07 636.562 409.058C637.947 409.284 638.53 407.102 637.145 406.876C612.951 402.812 588.392 401.684 563.906 403.414C562.448 403.565 562.448 405.822 563.906 405.672Z" fill="#681225"/>
</g>
<g opacity="0.28">
<path d="M539.347 374.218C585.987 365.865 633.939 367.37 679.996 378.658C681.381 378.959 681.964 376.852 680.579 376.475C634.158 365.113 585.769 363.683 538.764 372.036C537.38 372.261 537.963 374.444 539.347 374.218Z" fill="#681225"/>
</g>
<g opacity="0.28">
<path d="M733.268 478.966C749.883 486.491 764.823 497.402 777.139 511.097C778.086 512.151 779.616 510.571 778.669 509.517C766.207 495.671 751.122 484.609 734.361 477.009C733.049 476.407 731.956 478.364 733.268 478.966Z" fill="#681225"/>
</g>
<path d="M414.587 188.576C419.979 206.937 421.947 217.548 429.599 234.328C433.17 242.154 436.595 248.4 439 252.464C431.202 256.226 418.522 261.042 402.271 261.644C392.651 262.02 384.416 260.741 378.076 259.311C378.732 254.27 379.096 248.024 378.586 240.875C377.93 231.92 376.109 224.395 374.287 218.827C365.615 217.698 356.942 216.569 348.27 215.441C346.594 211.603 344.845 207.765 343.169 203.852C340.764 203.777 338.432 203.702 336.027 203.626C337.849 198.359 340.546 190.006 343.679 179.697C349.509 160.282 349.436 157.498 352.57 153.134C361.242 141.169 380.845 133.569 393.599 139.965C401.323 143.803 405.842 158.777 414.587 188.576Z" fill="white" stroke="#161616" stroke-width="2" stroke-miterlimit="10"/>
<path d="M336.32 204.83C340.765 204.905 345.21 204.604 349.583 203.927C350.968 203.701 350.385 201.519 349 201.745C344.773 202.422 340.546 202.648 336.32 202.573C334.935 202.573 334.935 204.83 336.32 204.83Z" fill="#161616"/>
<path d="M334.497 169.989C337.121 168.559 340.546 169.237 342.368 171.795C343.17 172.924 345.064 171.795 344.263 170.666C341.785 167.13 337.194 166.001 333.404 168.033C332.165 168.71 333.259 170.666 334.497 169.989Z" fill="#161616"/>
<path d="M337.486 180.976C337.267 180.148 337.267 179.321 337.486 178.493C337.632 178.117 337.777 177.665 337.996 177.364C338.142 177.138 338.287 176.988 338.433 176.837C338.287 176.837 338.215 176.913 338.215 177.138C338.215 178.719 337.559 180.073 336.393 181.127C337.049 181.428 337.632 181.653 338.288 181.954C338.288 180.525 338.579 179.17 339.235 177.891C339.891 176.612 337.996 175.483 337.34 176.762C336.538 178.418 336.101 180.148 336.101 182.03C336.101 183.083 337.267 183.459 337.996 182.857C339.162 181.804 340.036 180.374 340.328 178.794C340.547 177.439 340.692 175.408 339.235 174.806C337.85 174.279 336.538 175.558 335.955 176.687C335.154 178.267 335.008 179.998 335.445 181.729C335.664 183.008 337.777 182.406 337.486 180.976Z" fill="#161616"/>
<path d="M355.705 173.225C359.057 172.172 362.628 173.3 364.669 176.31C365.47 177.514 367.365 176.386 366.564 175.182C364.013 171.419 359.422 169.688 355.122 171.043C353.81 171.419 354.393 173.601 355.705 173.225Z" fill="#161616"/>
<path d="M356.142 183.609C356.069 182.556 356.215 181.502 356.798 180.599C356.944 180.373 357.089 180.148 357.308 179.922C357.235 179.621 357.235 179.621 357.235 179.922C357.162 180.373 357.162 180.9 357.089 181.427C357.016 181.878 356.871 182.405 356.652 182.857C356.579 183.082 356.506 183.233 356.361 183.383C356.579 183.91 356.725 183.91 356.871 183.383C357.235 183.007 357.454 182.179 357.672 181.728C357.964 181.201 358.182 180.674 358.474 180.072C359.057 178.944 357.672 177.815 356.725 178.718C356.142 179.32 355.778 179.922 355.559 180.75C355.195 182.179 357.235 182.706 357.672 181.352C357.818 180.9 357.964 180.674 358.328 180.298C357.745 179.847 357.162 179.395 356.579 178.944C355.923 180.223 355.195 181.502 354.684 182.857C354.32 183.76 354.393 184.813 355.267 185.34C357.454 186.845 358.911 183.684 359.276 181.954C359.64 180.298 359.713 176.686 357.016 177.439C354.83 178.116 353.956 181.502 354.101 183.534C354.029 185.039 356.215 185.039 356.142 183.609Z" fill="#161616"/>
<path d="M349.512 157.95C350.095 153.961 351.625 147.49 355.925 140.793C357.455 138.46 360.589 133.418 365.763 130.032C375.528 123.56 390.54 124.087 401.472 131.988C412.111 139.739 417.431 153.66 415.172 167.431C393.237 164.271 371.374 161.11 349.512 157.95Z" fill="#FFCC4D"/>
<path d="M313.729 157.498C347.397 161.787 381.065 166.076 414.733 170.366C418.887 170.892 418.887 164.12 414.733 163.593C381.065 159.304 347.397 155.015 313.729 150.725C309.502 150.199 309.575 156.971 313.729 157.498Z" fill="#161616"/>
<path d="M393.235 166.528C387.259 168.711 383.834 172.849 379.826 177.816C371.373 188.2 373.85 192.038 367.948 198.51C358.474 208.819 348.854 202.724 340.401 212.807C333.259 221.386 334.134 232.974 334.425 235.533C334.717 238.091 335.955 248.4 344.336 255.474C351.551 261.569 361.316 262.999 361.972 261.644C362.19 261.118 361.389 259.914 355.996 256.302C357.599 257.43 360.004 258.785 363.211 259.387C366.854 260.064 370.352 259.387 370.425 258.86C370.425 258.484 368.458 258.484 366.927 256.828C366.053 255.85 365.616 254.721 365.47 253.743C368.385 255.7 372.101 257.355 375.672 256.302C385.292 253.367 387.041 231.77 387.551 224.621C389.373 201.444 382.814 188.802 390.757 180.675C391.413 179.998 394.693 176.687 398.191 177.364C402.709 178.192 406.134 185.266 404.604 189.931C403.365 193.919 398.847 195.048 399.138 195.801C399.575 196.779 407.154 195.274 413.494 190.157C415.826 188.276 417.721 186.771 418.669 183.986C420.418 179.17 418.377 173.677 415.681 170.441C410.215 163.669 399.721 164.12 393.235 166.528Z" fill="#161616" stroke="#161616" stroke-width="2" stroke-miterlimit="10"/>
<path opacity="0.22" d="M402.2 196.402C400.743 196.553 398.702 196.628 398.629 196.101C398.557 195.875 399.067 195.499 399.067 195.499C399.067 195.499 397.318 197.681 395.204 197.982C394.184 198.133 393.31 197.756 392.727 197.455C396.516 205.582 400.378 215.365 403.658 226.577C407.302 238.918 409.342 250.206 410.508 259.838C414.443 259.838 419.909 259.386 426.103 257.43C431.205 255.774 435.286 253.592 438.273 251.711C430.111 238.843 426.03 228.534 423.771 221.535C422.678 218.225 420.419 210.474 419.253 206.711C417.14 199.788 415.536 194.069 414.37 190.156C413.787 190.683 412.84 191.511 411.674 192.339C409.998 193.543 406.646 195.875 402.2 196.402Z" fill="#6D6C6C"/>
<path d="M378.004 125.968C386.749 127.699 393.308 134.772 394.328 143.125C395.494 153.058 388.279 159.831 387.623 160.433C396.951 161.561 406.207 162.765 415.535 163.894C415.68 161.712 415.753 158.702 415.17 155.24C413.421 144.103 406.935 137.256 405.551 135.826C403.437 133.568 395.713 126.269 384.344 125.592C381.721 125.517 379.534 125.742 378.004 125.968Z" fill="#8AA6BF"/>
</g>
<defs>
<filter id="filter0_d_2464_3231" x="-4" y="0" width="1174" height="911" filterUnits="userSpaceOnUse" color-interpolation-filters="sRGB">
<feFlood flood-opacity="0" result="BackgroundImageFix"/>
<feColorMatrix in="SourceAlpha" type="matrix" values="0 0 0 0 0 0 0 0 0 0 0 0 0 0 0 0 0 0 127 0" result="hardAlpha"/>
<feOffset dy="4"/>
<feGaussianBlur stdDeviation="2"/>
<feComposite in2="hardAlpha" operator="out"/>
<feColorMatrix type="matrix" values="0 0 0 0 0 0 0 0 0 0 0 0 0 0 0 0 0 0 0.25 0"/>
<feBlend mode="normal" in2="BackgroundImageFix" result="effect1_dropShadow_2464_3231"/>
<feBlend mode="normal" in="SourceGraphic" in2="effect1_dropShadow_2464_3231" result="shape"/>
</filter>
</defs>
</svg>
