<svg width="751" height="616" viewBox="0 0 751 616" fill="none" xmlns="http://www.w3.org/2000/svg">
<g filter="url(#filter0_d_1873_5254)">
<path d="M540.391 78.3223C541.76 79.2477 544.059 79.7014 541.068 81.4438C539.478 82.3701 541.055 84.8918 539.753 86.8417C539.054 87.8881 538.253 89.8709 537.617 91.462C537.201 92.5046 535.995 93.2838 536.997 94.5777C537.306 94.9761 537.356 95.4563 536.834 95.6478C534.166 96.6252 534.682 99.0855 534.3 101.015C532.735 108.9 531.757 116.93 532.082 124.901C532.546 136.291 533.74 147.676 536.614 158.801C536.668 159.011 536.854 159.246 536.801 159.415C536.3 160.998 540.858 162.336 537.149 163.974C532.087 166.21 529.678 165.712 528.024 161.98C526.078 157.59 524.327 153.106 522.753 148.575C517.049 132.158 516.695 115.347 519.779 98.4867C521.856 87.1322 526.885 76.8215 533.739 67.4275C539.023 60.185 544.7 53.2475 552.018 47.8127C554.565 45.9205 557.151 43.9128 560.044 42.6935C561.561 42.0546 562.815 41.1411 564.148 40.5316C569.322 38.1622 573.944 34.3744 580.13 34.2339C581.64 34.1997 582.864 32.5767 584.658 32.0563C601.58 27.1449 617.883 28.596 633.019 37.2804C647.799 45.7598 661.366 55.8917 671.83 69.4653C674.183 72.5176 675.632 75.9448 677.204 79.4234C679.01 83.4188 680.213 87.7035 682.61 91.4546C683.123 92.2575 683.684 93.2062 683.711 94.103C683.865 99.4774 685.674 104.59 686.155 109.926C686.641 115.91 686.524 121.926 685.804 127.886C685.282 132.623 685.396 137.453 685.106 142.206C684.752 148.005 682.354 153.479 680.268 158.939C678.345 163.975 675.585 168.571 672.842 173.193C672.389 173.954 672.323 174.834 671.083 174.679C670.875 174.676 670.669 174.722 670.483 174.814C670.298 174.906 670.139 175.041 670.019 175.208C666.776 183.37 657.485 190.219 650.384 193.162C641.46 196.861 632.131 199.303 622.486 199.445C614.646 199.537 606.891 197.844 599.836 194.502C594.274 191.91 588.647 189.5 583.29 186.483C575.841 182.289 571.462 175.855 568.636 168.242C566.301 161.831 564.329 155.299 562.731 148.677C561.088 142.043 563.22 135.934 565.616 130.122C568.514 123.116 572.638 116.655 577.803 111.028C581.236 107.145 586.053 104.68 591.28 104.134C598.691 103.278 605.939 104.179 613.104 106.054C619.093 107.621 623.924 111.382 629.248 114.2C630.514 114.87 630.684 116.223 629.694 117.576C628.854 118.722 628.599 119.954 630.368 120.657C630.513 120.487 630.588 120.41 630.649 120.325C631.44 119.201 629.408 117.315 631.409 116.709C633.221 116.161 634.432 117.678 635.622 118.809C640.629 123.568 643.682 129.29 643.972 136.143C644.212 141.822 645.105 147.415 642.893 153.158C638.428 164.754 631.953 167.058 620.14 168.609C616.258 169.119 612.808 167.434 609.255 166.274C598.661 162.817 598.263 152.564 603.788 145.884C605.935 148.818 602.344 151.948 604.176 155.456C605.385 152.637 605.23 150.128 605.858 147.802C606.137 146.766 606.319 144.69 607.535 145.171C608.98 145.743 611.018 144.258 612.203 147.372C613.467 150.691 614.807 154.306 617.016 157.335C618.897 159.914 622.086 159.91 623.861 157.388C628.829 150.331 630.717 142.318 629.965 134.021C629.48 128.661 625.794 124.337 621.264 121.238C616.5 117.979 611.797 114.525 606.037 112.913C604.307 112.429 597.587 111.268 595.793 111.694C594.434 112.026 593.228 112.791 592.365 113.867C591.887 114.438 591.714 115.873 590.19 114.811C589.464 114.305 588.438 115.473 588.95 115.96C590.666 117.598 589.032 118.61 588.342 119.534C584.551 124.604 582.576 130.58 579.623 136.062C578.996 137.215 578.703 138.513 578.776 139.816C578.849 141.119 579.286 142.379 580.038 143.458C580.764 144.431 581.099 145.63 580.978 146.827C580.13 152.571 583.426 156.972 585.632 161.796C586.94 164.657 586.871 168.004 588.768 170.794C591.826 175.269 596.023 178.893 600.947 181.308C606.35 184.012 611.897 186.583 617.79 188.145C626.315 190.405 633.853 187.604 641.079 183.405C643.875 181.781 645.63 178.732 649.233 178.038C649.796 177.93 650.363 175.05 651.391 173.565C661.147 159.467 665.969 143.694 668.253 126.955C669.72 116.198 668.055 105.906 665.075 95.6502C660.551 80.077 650.358 68.3281 638.157 58.056C632.065 52.8376 625.577 48.0776 618.748 43.8169C608.859 37.762 598.671 37.0569 587.819 41.277C582.859 43.2061 577.963 45.3649 573.032 47.3237C571.043 48.1133 568.055 49.3943 566.483 52.3646C565.117 54.9453 561.655 56.5018 559.459 58.9462C557.099 61.5761 553.786 63.3566 552.201 66.7139C551.792 67.5804 551.417 67.5449 551.018 66.5641C550.974 66.4369 550.886 66.3284 550.769 66.2565C550.653 66.1845 550.515 66.1534 550.378 66.1682C550.241 66.183 550.114 66.2428 550.017 66.3379C549.919 66.433 549.858 66.5576 549.843 66.6912C550.01 70.6068 545.502 72.3723 545.456 76.4135C545.426 78.8524 542.169 76.9928 540.391 78.3223ZM527.642 86.9981C520.844 93.7331 518.706 130.548 523.685 140.142C521.909 122.203 521.516 104.371 527.642 86.9981ZM665.547 157.994C666.663 155.333 667.914 152.718 668.871 150.004C672.7 139.14 673.825 127.804 674.596 116.445C674.662 115.479 674.616 113.012 671.929 112.963C673.533 128.534 669.308 143.184 665.547 157.994ZM631.03 152.524C631.596 151.182 632.092 149.807 632.742 148.506C634.766 144.452 633.809 140.036 634.394 135.809C634.444 135.424 634.34 135.034 634.102 134.722C633.865 134.409 633.513 134.199 633.12 134.135C632.107 133.99 632.165 134.877 632.302 135.47C633.637 141.255 631.678 146.697 631.03 152.524ZM568.722 133.615C566.563 136.671 566.167 140.094 566.475 143.663C568.316 140.541 568.158 137.003 568.722 133.615ZM533.676 96.1066C532.905 97.0174 532.393 97.6913 531.808 98.2984C531.016 99.1203 531.105 100.02 531.475 100.949C531.633 101.345 532.015 101.828 532.425 101.549C533.177 101.038 533.303 100.214 533.231 99.311C533.157 98.3935 534.249 97.6831 533.676 96.1066Z" fill="#EDEAEA"/>
<path d="M165.793 496.776C164.039 496.82 162.31 496.367 160.548 496.527C160.27 496.552 159.773 496.457 159.72 496.3C159.196 494.732 157.445 494.92 156.463 493.907C155.593 493.009 155.514 492.299 155.934 491.393C157.554 487.882 158.979 484.292 160.301 480.659C160.649 479.703 160.991 478.739 161.246 477.755C161.49 476.811 162.289 476.509 162.986 476.248C163.742 475.965 163.831 476.894 164.232 477.292C166.117 479.155 166.172 481.68 166.724 484.029C167.435 487.059 168.075 490.108 168.881 493.112C169.552 495.612 168.764 497.177 165.793 496.776Z" fill="#EDEAEA"/>
<path d="M146.603 447.642C146.657 448.931 145.844 449.829 144.42 449.998C142.439 450.233 140.459 450.507 138.471 450.644C136.656 450.77 135.703 449.265 134.797 448.087C134.174 447.277 134.599 446.114 135.241 445.146C137.389 441.907 138.984 438.371 140.445 434.77C140.7 434.142 140.967 433.565 141.766 433.46C142.633 433.347 142.805 434.01 143.205 434.535C144.4 436.102 144.658 437.989 145.118 439.813C145.767 442.391 146.384 444.979 146.603 447.642Z" fill="#EDEAEA"/>
<path d="M142.442 476.474C142.442 478.102 142.875 479.379 141.37 480.114C141.012 480.288 140.696 480.525 140.322 480.458C138.638 480.161 136.994 480.256 135.456 481.031C134.253 481.636 133.577 481.163 132.684 480.271C130.97 478.559 130.929 477.87 132.007 475.749C133.733 472.361 135.688 469.064 136.761 465.36C136.902 464.816 137.099 464.289 137.348 463.786C137.885 462.771 138.859 462.753 139.602 463.612C141.17 465.423 141.347 467.701 141.68 469.905C142.032 472.231 142.228 474.58 142.442 476.474Z" fill="#EDEAEA"/>
<path d="M143.599 536.536C141.897 536.34 140.532 535.397 139.339 534.26C138.907 533.848 138.953 533.011 139.268 532.365C140.325 530.197 140.738 527.79 141.84 525.6C142.361 524.566 142.579 523.125 142.96 521.882C143.229 521.007 143.662 520.04 144.697 519.96C145.733 519.88 146.276 520.84 146.712 521.588C147.827 523.5 148.2 525.698 148.641 527.835C149.123 530.172 149.432 532.547 149.771 534.913C149.906 535.858 149.282 536.456 149.373 537.313C149.421 537.769 148.851 537.835 148.309 537.681C146.756 537.239 145.171 536.909 143.599 536.536Z" fill="#EDEAEA"/>
<path d="M120.097 460.663C120.101 462.189 119.316 462.902 117.67 462.599C116.322 462.352 114.982 462.489 113.666 462.5C112.041 462.512 110.973 461.787 109.871 460.809C108.855 459.907 108.803 458.861 109.386 457.792C111.237 454.393 112.768 450.823 113.957 447.13C114.422 445.688 115.384 445.6 116.387 446.742C117.064 447.503 117.575 448.4 117.887 449.374C119.018 453.047 119.758 456.831 120.097 460.663Z" fill="#EDEAEA"/>
<path d="M93.2623 474.354C92.1025 474.297 91.105 474.335 90.097 474.161C87.6973 473.749 86.9363 473.025 87.328 470.625C87.8287 467.558 88.1803 464.447 89.138 461.47C89.3114 460.829 89.576 460.218 89.9236 459.655C90.57 458.722 91.3819 458.442 92.3154 459.37C93.1328 460.133 93.8109 461.036 94.3183 462.038C95.6567 464.954 96.7926 467.962 97.7176 471.039C97.8389 471.397 97.8751 471.78 97.8232 472.156C97.7712 472.532 97.6326 472.89 97.4186 473.201C97.2046 473.512 96.9212 473.768 96.5916 473.947C96.262 474.126 95.8954 474.224 95.5216 474.232C94.7165 474.262 93.9124 474.319 93.2623 474.354Z" fill="#EDEAEA"/>
<path d="M118.156 523.151C117.113 523.373 116.128 523.692 115.03 523.472C113.411 523.148 111.595 520.693 112.108 519.163C113.246 515.768 113.931 512.251 114.964 508.83C115.199 508.051 115.364 507.178 116.382 507.052C117.405 506.926 117.817 507.733 118.168 508.448C119.929 512.033 121.085 515.851 122.243 519.662C122.585 520.788 122.195 521.679 121.065 522.327C120.116 522.87 119.005 522.491 118.156 523.151Z" fill="#EDEAEA"/>
<path d="M96.7106 443.008C96.8756 445.978 95.5728 447.32 92.6353 447.898C91.096 448.2 89.9989 447.527 88.8126 447.016C87.431 446.421 86.9124 445.358 87.3174 443.68C87.8384 441.52 88.7603 439.539 89.5283 437.492C90.1563 435.818 90.7664 434.144 91.3095 432.439C91.7413 431.085 92.287 431.133 93.3909 431.754C95.2997 432.826 95.6828 434.617 95.9686 436.469C96.3029 438.635 96.4706 440.827 96.7106 443.008Z" fill="#EDEAEA"/>
<path d="M82.5 509.136C82.515 508.053 82.8181 506.993 83.3772 506.07C84.7187 503.711 85.6777 501.181 86.6787 498.67C87.4915 496.631 87.6692 496.79 89.355 497.881C91.1097 499.017 91.5494 500.703 92.1256 502.395C92.75 504.232 93.2853 506.108 93.7307 507.998C94.1371 509.72 93.7936 510.074 92.1684 510.641C90.6689 511.164 89.2881 511.997 87.6364 512.106C86.8475 512.158 86.491 511.906 86.2548 511.214C86.0416 510.589 85.5753 510.634 85.0758 510.844C83.7218 511.415 82.4976 510.601 82.5 509.136Z" fill="#EDEAEA"/>
<path d="M93.3262 541.938C91.468 541.734 89.8543 541.643 88.2733 541.362C85.6725 540.901 84.5681 538.948 85.1253 536.29C85.6807 533.641 86.2024 530.993 87.2341 528.48C88.0722 526.438 89.0559 526.173 90.512 527.752C91.1625 528.464 91.6839 529.287 92.0519 530.183C93.2791 533.199 94.5756 536.196 95.2068 539.426C95.5482 541.175 94.869 541.982 93.3262 541.938Z" fill="#EDEAEA"/>
<path d="M72.8984 469.478C72.9485 471.782 72.4072 472.184 70.467 472.145C69.3628 472.124 68.2507 472.493 67.1424 472.688C65.4138 472.992 62.7927 471.454 62.3336 469.962C62.2569 469.752 62.2224 469.528 62.232 469.304C62.2417 469.08 62.2952 468.86 62.3896 468.657C63.7301 465.562 65.0396 462.454 66.3923 459.364C66.9828 458.017 67.6655 457.907 68.7697 458.917C71.2526 461.187 71.7681 464.384 72.6139 467.415C72.7653 468.093 72.8604 468.783 72.8984 469.478ZM69.0848 466.748C68.6514 466.337 69.2866 465.261 68.3087 464.986C67.9668 464.89 67.752 465.467 67.8779 465.802C68.112 466.424 67.8966 467.342 68.738 467.585C69.1496 467.703 69.0851 467.219 69.0848 466.747V466.748Z" fill="#EDEAEA"/>
<path d="M55.6211 497.572C55.9733 494.03 57.0937 490.695 58.2901 487.397C58.801 485.988 59.4821 485.962 60.6673 486.902C61.674 487.699 62.3342 488.864 62.507 490.149C62.9727 493.176 63.3536 496.218 63.7112 499.261C63.8621 500.545 63.0648 501.202 61.794 501.468C59.767 501.892 58.1533 501.077 56.5766 500.026C55.711 499.451 55.7262 498.479 55.6211 497.572Z" fill="#EDEAEA"/>
<path d="M114.135 496.182C113.586 496.136 112.955 495.889 112.718 496.099C111.883 496.84 110.867 496.332 109.948 496.671C108.968 497.033 107.474 494.584 107.593 493.36C107.768 491.547 109.311 490.401 109.561 488.582C109.807 486.785 110.515 485.052 111.051 483.3C111.106 483.047 111.243 482.819 111.439 482.654C111.636 482.488 111.881 482.394 112.137 482.385C112.775 482.351 113.112 482.643 113.403 483.229C115.015 486.474 115.872 490 117.102 493.385C117.781 495.254 116.089 495.913 114.135 496.182Z" fill="#EDEAEA"/>
<path d="M142.767 503.972C143.189 505.874 141.124 506.908 139.76 506.557C139.124 506.394 138.61 506.179 137.84 506.548C136.894 507.002 135.464 507.555 135.219 505.532C135.199 505.372 134.79 505.289 134.615 505.115C133.531 504.036 133.499 502.486 134.491 501.259C134.727 500.992 134.916 500.685 135.047 500.351C135.796 498.102 137.441 496.212 137.605 493.726C137.648 493.082 137.884 492.482 138.608 492.366C139.332 492.249 139.686 492.778 139.982 493.347C140.159 493.596 140.313 493.861 140.44 494.14C141.393 497.372 142.17 500.654 142.767 503.972Z" fill="#EDEAEA"/>
<path d="M506.505 477.542C505.015 478.259 504.811 479.686 504.019 480.679C503.558 481.258 502.579 482.108 502.328 481.697C500.552 478.791 495.704 479.326 495.042 475.295C492.355 458.93 484.839 443.947 480.869 427.95C480.59 426.826 480.237 425.72 479.945 424.599C478.258 418.12 478.261 418.119 484.752 418.011C491.431 417.901 491.941 418.15 494.686 424.574C500.388 437.92 506.016 451.298 510.943 464.942C512.48 469.196 513.586 473.584 511.968 478.084C511.55 479.307 510.957 480.464 510.208 481.52C509.543 482.42 508.535 483.471 507.272 482.913C505.962 482.334 506.871 481.168 507.041 480.244C507.201 479.399 507.425 478.55 506.505 477.542Z" fill="#EDEAEA"/>
<path d="M568.486 457.042C563.615 454.008 560.571 449.412 557.734 444.644C551.574 434.287 547.133 423.039 540.646 412.848C539.392 410.878 539.915 409.968 542.406 409.341C549.642 407.518 553.211 412.03 556.346 416.98C562.639 426.913 568.647 437.021 574.826 447.024C576.428 449.617 578.198 452.11 579.942 454.614C580.951 456.061 580.511 457.359 579.678 458.624C578.818 459.935 577.748 459.809 576.265 459.432C573.626 458.761 570.898 458.454 568.486 457.042Z" fill="#EDEAEA"/>
<path d="M615.622 384.129C620.909 386.977 626.207 389.798 631.471 392.682C633.146 393.6 634.916 394.569 634.262 396.991C633.666 399.202 631.781 398.391 630.302 398.681C627.453 399.24 624.749 398.75 622.103 397.806C610.594 393.698 599.583 388.665 590.061 380.866C589.031 380.022 587.794 379.39 587.978 377.843C588.186 376.093 589.828 376.472 590.919 375.919C596.017 373.336 600.182 375.579 604.446 378.045C608.114 380.169 611.902 382.092 615.636 384.103L615.622 384.129Z" fill="#EDEAEA"/>
</g>
<defs>
<filter id="filter0_d_1873_5254" x="0" y="0" width="750.297" height="615.303" filterUnits="userSpaceOnUse" color-interpolation-filters="sRGB">
<feFlood flood-opacity="0" result="BackgroundImageFix"/>
<feColorMatrix in="SourceAlpha" type="matrix" values="0 0 0 0 0 0 0 0 0 0 0 0 0 0 0 0 0 0 127 0" result="hardAlpha"/>
<feOffset dy="4"/>
<feGaussianBlur stdDeviation="2"/>
<feComposite in2="hardAlpha" operator="out"/>
<feColorMatrix type="matrix" values="0 0 0 0 0 0 0 0 0 0 0 0 0 0 0 0 0 0 0.25 0"/>
<feBlend mode="normal" in2="BackgroundImageFix" result="effect1_dropShadow_1873_5254"/>
<feBlend mode="normal" in="SourceGraphic" in2="effect1_dropShadow_1873_5254" result="shape"/>
</filter>
</defs>
</svg>
