<svg width="100" height="100" viewBox="0 0 100 100" fill="none" xmlns="http://www.w3.org/2000/svg">
<g clip-path="url(#clip0_1872_7355)">
<path d="M49.9993 24.6367C18.9294 -9.88508 -8.68811 24.6367 5.12065 52.2542C18.9294 79.8718 49.9993 90.2284 49.9993 90.2284C49.9993 90.2284 81.0691 79.8718 94.8779 52.2542C108.687 24.6367 81.0689 -9.88508 49.9993 24.6367Z" fill="white"/>
<path d="M11.5189 47.8861C5.2121 35.2724 7.27694 21.265 14.3166 12.6504C2.67363 19.0682 -2.63222 36.749 5.1205 52.2546C18.9293 79.8721 49.9991 90.2288 49.9991 90.2288C49.9991 90.2288 53.0186 89.2221 57.5932 87.0001C54.5507 85.9245 25.0306 74.9102 11.5189 47.8861Z" fill="white"/>
<path d="M26.5586 30.8913C16.3201 19.5153 7.21955 30.8913 11.7697 39.992C16.3199 49.0928 26.5586 52.5055 26.5586 52.5055C26.5586 52.5055 36.797 49.0926 41.3474 39.992C45.8978 30.8915 36.7968 19.5151 26.5586 30.8913Z" fill="#FF97A4"/>
<path d="M16.8022 38.4653C14.504 33.8688 15.6892 28.6938 18.7433 26.161C12.3942 25.5102 8.45108 33.3551 11.7696 39.9924C16.32 49.0932 26.5583 52.5059 26.5583 52.5059C26.5583 52.5059 28.2899 51.9281 30.645 50.6158C28.0069 49.526 20.5134 45.8875 16.8022 38.4653Z" fill="#FF7D8D"/>
<path d="M63.7812 46.2419C53.5428 34.8659 44.4422 46.2419 48.9924 55.3427C53.5426 64.4434 63.7812 67.8561 63.7812 67.8561C63.7812 67.8561 74.0197 64.4432 78.5701 55.3427C83.1203 46.2419 74.0195 34.8657 63.7812 46.2419Z" fill="#FFCBD1"/>
<path d="M54.4828 54.165C52.1116 49.4225 53.4487 44.0641 56.7207 41.6274C49.936 40.2459 45.544 48.4459 48.9924 55.3426C53.5428 64.4433 63.7813 67.856 63.7813 67.856C63.7813 67.856 65.4371 67.3037 67.7119 66.0525C64.6695 64.7045 57.9375 61.0744 54.4828 54.165Z" fill="#FFB1BB"/>
<path d="M86.662 67.0334C88.6633 64.7399 90.5817 62.258 92.3464 59.5791C92.7934 58.9002 92.6055 57.9875 91.9268 57.5403C91.2479 57.093 90.3352 57.2809 89.8878 57.9598C82.8145 68.6983 73.1421 76.1893 65.7718 80.7959C61.4251 77.485 56.9025 73.7281 52.3288 69.6295C53.7144 68.3574 55.1017 67.0567 56.4876 65.7301C60.0197 68.128 63.0812 69.1744 63.3161 69.2528C63.6167 69.3528 63.9464 69.3528 64.2472 69.2528C64.6888 69.1055 75.1186 65.5375 79.8868 56.0012C82.2393 51.2965 81.4397 45.6708 78.1684 42.4456C84.4503 34.7895 89.4618 27.6415 92.8221 21.5569C97.6768 29.2737 99.0663 40.5889 93.5624 51.5967C93.2038 52.3139 93.5032 53.2129 94.2206 53.5715C94.938 53.9301 95.837 53.6305 96.1954 52.9133C99.8168 45.6704 100.899 37.4628 99.244 29.8028C98.3461 25.6495 96.6563 21.8161 94.3653 18.5986C97.9731 11.2284 98.5018 6.18803 95.9317 3.61772C92.6979 0.384719 85.6614 2.01128 75.0149 8.45306C74.8907 8.52826 74.7823 8.61927 74.6892 8.72142C73.2624 8.80072 71.8138 9.01048 70.3499 9.3556C63.5027 10.9689 56.6632 15.3757 50.0005 22.4634C43.3378 15.3761 36.498 10.9693 29.6512 9.3556C28.2486 9.02513 26.8596 8.81751 25.4906 8.73119C25.3768 8.57142 25.2299 8.43158 25.0508 8.32396C14.5236 1.99018 7.55862 0.406789 4.34828 3.61713C1.43598 6.52963 2.86215 12.2865 5.80179 18.3677C3.4264 21.6321 1.67582 25.5493 0.756488 29.8022C-0.899368 37.4624 0.183443 45.6698 3.80512 52.9127C6.51409 58.3309 9.88186 63.0809 13.4963 67.2008C7.02835 76.2158 -2.14507 91.056 3.17348 96.3746C4.25043 97.4515 5.74925 97.9892 7.6639 97.9892C11.4826 97.9892 16.9537 95.8492 24.018 91.5826C27.3246 89.5857 30.865 87.182 34.5533 84.441C42.8558 89.3711 49.2406 91.5267 49.5345 91.6248C49.8351 91.7248 50.1648 91.7248 50.4656 91.6248C50.7374 91.5342 57.1992 89.3539 65.5991 84.3492C68.7429 86.6885 71.7894 88.791 74.6896 90.6136C79.9157 93.8982 84.4122 96.1166 88.0546 97.2064C90.4174 97.9134 93.2503 98.465 95.5979 97.4091C96.1579 97.1574 96.6717 96.8086 97.1061 96.3744C99.269 94.2115 99.2397 90.2863 97.0196 84.7072C95.1044 79.8959 91.5235 73.7879 86.662 67.0334ZM77.2538 54.6842C73.5743 62.043 65.7614 65.5061 63.78 66.286C61.7952 65.5094 54.0011 62.0676 50.3091 54.6842C48.1255 50.3169 49.6417 45.6587 52.299 43.8477C53.2038 43.2309 54.1956 42.9274 55.2456 42.9274C57.5531 42.9274 60.1392 44.3948 62.6876 47.2262C63.2634 47.8663 64.2997 47.8663 64.8755 47.2262C68.5835 43.1067 72.3698 41.8749 75.2642 43.8477C77.9212 45.6587 79.4374 50.3167 77.2538 54.6842ZM93.8497 5.69877C95.2377 7.08666 94.6547 10.9023 92.3112 16.0564C91.0567 14.6872 89.6766 13.4786 88.1899 12.4652C85.6305 10.7208 82.8419 9.57513 79.903 9.03841C88.0885 4.59682 92.4624 4.31108 93.8497 5.69877ZM48.9062 25.6216C49.4822 26.2618 50.5181 26.2614 51.0943 25.6216C57.6921 18.2909 64.3976 13.782 71.0249 12.2204C76.6536 10.8937 82.0161 11.8199 86.5321 14.8978C88.1255 15.9839 89.5977 17.3374 90.9061 18.9095C87.6305 25.1294 82.4196 32.6401 75.7446 40.7581C73.4952 39.737 69.086 38.9331 63.7818 44.1153C57.2816 37.7653 52.1261 40.4034 50.6412 41.4153C46.3513 44.3393 45.049 50.7458 47.6765 56.0008C49.3478 59.3434 51.7146 61.9518 54.1031 63.9375C52.7814 65.1985 51.4587 66.4342 50.1388 67.644C47.2363 64.9828 44.3216 62.193 41.4261 59.2975C38.6191 56.4907 35.8765 53.629 33.2562 50.7751C36.5076 48.6719 40.2888 45.402 42.6648 40.6503C45.2923 35.3952 43.99 28.9888 39.7 26.0647C38.2154 25.0526 33.059 22.4148 26.5596 28.7647C20.257 22.6073 15.2178 24.9011 13.5645 25.9685C11.8028 23.2618 10.3875 20.8448 9.27073 18.7023C10.535 17.2187 11.9457 15.9353 13.4686 14.8976C17.9848 11.82 23.3465 10.8937 28.976 12.2202C35.6027 13.782 42.3084 18.2907 48.9062 25.6216ZM15.0768 28.4974C15.9817 27.8806 16.9736 27.577 18.0234 27.577C20.3309 27.577 22.917 29.0444 25.4654 31.8759C26.0412 32.5159 27.0773 32.5159 27.6533 31.8759C31.3613 27.7563 35.1476 26.5247 38.042 28.4974C40.699 30.3083 42.2154 34.9663 40.0318 39.3339C36.3523 46.6926 28.5394 50.1557 26.558 50.9356C24.5732 50.159 16.7791 46.7173 13.0871 39.3339C10.9031 34.9665 12.4197 30.3085 15.0768 28.4974ZM6.42991 5.69877C7.80901 4.31889 12.161 4.59389 20.3055 9.00013C17.2901 9.52005 14.4299 10.6796 11.8102 12.4652C10.3987 13.4273 9.08342 14.5656 7.8805 15.8497C5.30257 10.106 5.27601 6.85267 6.42991 5.69877ZM7.32835 21.3204C8.57757 23.5999 9.97288 25.8675 11.3696 27.994C8.78479 31.2975 8.30784 36.3577 10.4541 40.6505C15.2223 50.1868 25.6521 53.7549 26.0937 53.902C26.3943 54.002 26.724 54.002 27.0248 53.902C27.1838 53.8491 28.6377 53.3524 30.6558 52.2936C33.4346 55.3344 36.3529 58.3877 39.3441 61.3787C42.2019 64.2366 45.0796 66.9934 47.9482 69.6283C43.3242 73.7699 38.7541 77.5615 34.3791 80.8898C34.0742 80.7002 33.7678 80.5086 33.459 80.3117C24.9781 74.9043 13.4063 65.5332 6.43773 51.5965C0.877777 40.4759 2.35258 29.0413 7.32835 21.3204ZM22.4965 89.0629C12.1666 95.3011 6.81702 95.8549 5.25531 94.2931C3.06293 92.1006 5.44339 83.5894 15.5258 69.4233C21.0416 75.2305 26.9389 79.6426 31.8517 82.7775C28.5828 85.1707 25.4432 87.2832 22.4965 89.0629ZM50.0003 88.6672C48.4818 88.1137 43.4111 86.1539 37.0953 82.5158C41.3203 79.2594 45.7084 75.5947 50.1382 71.6178C54.522 75.5551 58.8656 79.1881 63.0611 82.426C56.6786 86.1207 51.5318 88.1096 50.0003 88.6672ZM95.0243 94.2931C93.3551 95.9625 87.5473 95.2185 76.2561 88.1217C73.7075 86.5197 71.0419 84.6963 68.2942 82.6818C73.2974 79.4709 79.1806 75.0322 84.6374 69.2602C94.8215 83.5303 97.2129 92.1043 95.0243 94.2931Z" fill="#202020"/>
</g>
<defs>
<clipPath id="clip0_1872_7355">
<rect width="100" height="100" fill="white"/>
</clipPath>
</defs>
</svg>
