<svg width="1909" height="15" viewBox="0 0 1909 15" fill="none" xmlns="http://www.w3.org/2000/svg">
<path d="M14.1757 7.23252C14.1757 11.2269 11.2269 14.465 7.23252 14.465C2.60371 13.3078 0 11.2269 0 7.23252C1.1572 3.18231 3.23811 0 7.23252 0C11.572 0.289301 14.1757 3.23811 14.1757 7.23252Z" fill="#D73F3B"/>
<path d="M101.703 7.23252C101.703 11.2269 98.7543 14.465 94.7599 14.465C90.131 13.3078 87.5273 11.2269 87.5273 7.23252C88.6845 3.18231 90.7655 0 94.7599 0C99.0994 0.289301 101.703 3.23811 101.703 7.23252Z" fill="#D73F3B"/>
<path d="M72.5273 7.23252C72.5273 11.2269 69.5785 14.465 65.5841 14.465C60.9553 13.3078 58.3516 11.2269 58.3516 7.23252C59.5088 3.18231 61.5897 0 65.5841 0C69.9236 0.289301 72.5273 3.23811 72.5273 7.23252Z" fill="#D73F3B"/>
<path d="M43.3515 7.23252C43.3515 11.2269 40.4027 14.465 36.4083 14.465C31.7795 13.3078 29.1758 11.2269 29.1758 7.23252C30.333 3.18231 32.4139 0 36.4083 0C40.7478 0.289301 43.3515 3.23811 43.3515 7.23252Z" fill="#D73F3B"/>
<path d="M130.879 7.23252C130.879 11.2269 127.93 14.465 123.936 14.465C119.307 13.3078 116.703 11.2269 116.703 7.23252C117.86 3.18231 119.941 0 123.936 0C128.275 0.289301 130.879 3.23811 130.879 7.23252Z" fill="#D73F3B"/>
<path d="M218.406 7.23252C218.406 11.2269 215.457 14.465 211.463 14.465C206.834 13.3078 204.23 11.2269 204.23 7.23252C205.388 3.18231 207.469 0 211.463 0C215.802 0.289301 218.406 3.23811 218.406 7.23252Z" fill="#D73F3B"/>
<path d="M189.23 7.23252C189.23 11.2269 186.282 14.465 182.287 14.465C177.658 13.3078 175.055 11.2269 175.055 7.23252C176.212 3.18231 178.293 0 182.287 0C186.627 0.289301 189.23 3.23811 189.23 7.23252Z" fill="#D73F3B"/>
<path d="M160.055 7.23252C160.055 11.2269 157.106 14.465 153.111 14.465C148.483 13.3078 145.879 11.2269 145.879 7.23252C147.036 3.18231 149.117 0 153.111 0C157.451 0.289301 160.055 3.23811 160.055 7.23252Z" fill="#D73F3B"/>
<path d="M247.582 7.23252C247.582 11.2269 244.633 14.465 240.639 14.465C236.01 13.3078 233.406 11.2269 233.406 7.23252C234.563 3.18231 236.644 0 240.639 0C244.978 0.289301 247.582 3.23811 247.582 7.23252Z" fill="#D73F3B"/>
<path d="M335.109 7.23252C335.109 11.2269 332.161 14.465 328.166 14.465C323.537 13.3078 320.934 11.2269 320.934 7.23252C322.091 3.18231 324.172 0 328.166 0C332.506 0.289301 335.109 3.23811 335.109 7.23252Z" fill="#D73F3B"/>
<path d="M305.934 7.23252C305.934 11.2269 302.985 14.465 298.99 14.465C294.362 13.3078 291.758 11.2269 291.758 7.23252C292.915 3.18231 294.996 0 298.99 0C303.33 0.289301 305.934 3.23811 305.934 7.23252Z" fill="#D73F3B"/>
<path d="M276.758 7.23252C276.758 11.2269 273.809 14.465 269.815 14.465C265.186 13.3078 262.582 11.2269 262.582 7.23252C263.739 3.18231 265.82 0 269.815 0C274.154 0.289301 276.758 3.23811 276.758 7.23252Z" fill="#D73F3B"/>
<path d="M364.285 7.23252C364.285 11.2269 361.336 14.465 357.342 14.465C352.713 13.3078 350.109 11.2269 350.109 7.23252C351.267 3.18231 353.347 0 357.342 0C361.681 0.289301 364.285 3.23811 364.285 7.23252Z" fill="#D73F3B"/>
<path d="M451.812 7.23252C451.812 11.2269 448.864 14.465 444.869 14.465C440.24 13.3078 437.637 11.2269 437.637 7.23252C438.794 3.18231 440.875 0 444.869 0C449.209 0.289301 451.812 3.23811 451.812 7.23252Z" fill="#D73F3B"/>
<path d="M422.637 7.23252C422.637 11.2269 419.688 14.465 415.693 14.465C411.065 13.3078 408.461 11.2269 408.461 7.23252C409.618 3.18231 411.699 0 415.693 0C420.033 0.289301 422.637 3.23811 422.637 7.23252Z" fill="#D73F3B"/>
<path d="M393.461 7.23252C393.461 11.2269 390.512 14.465 386.518 14.465C381.889 13.3078 379.285 11.2269 379.285 7.23252C380.442 3.18231 382.523 0 386.518 0C390.857 0.289301 393.461 3.23811 393.461 7.23252Z" fill="#D73F3B"/>
<path d="M480.988 7.23252C480.988 11.2269 478.039 14.465 474.045 14.465C469.416 13.3078 466.812 11.2269 466.812 7.23252C467.97 3.18231 470.051 0 474.045 0C478.385 0.289301 480.988 3.23811 480.988 7.23252Z" fill="#D73F3B"/>
<path d="M568.516 7.23252C568.516 11.2269 565.567 14.465 561.572 14.465C556.944 13.3078 554.34 11.2269 554.34 7.23252C555.497 3.18231 557.578 0 561.572 0C565.912 0.289301 568.516 3.23811 568.516 7.23252Z" fill="#D73F3B"/>
<path d="M539.34 7.23252C539.34 11.2269 536.391 14.465 532.397 14.465C527.768 13.3078 525.164 11.2269 525.164 7.23252C526.321 3.18231 528.402 0 532.397 0C536.736 0.289301 539.34 3.23811 539.34 7.23252Z" fill="#D73F3B"/>
<path d="M510.164 7.23252C510.164 11.2269 507.215 14.465 503.221 14.465C498.592 13.3078 495.988 11.2269 495.988 7.23252C497.145 3.18231 499.226 0 503.221 0C507.56 0.289301 510.164 3.23811 510.164 7.23252Z" fill="#D73F3B"/>
<path d="M597.691 7.23252C597.691 11.2269 594.743 14.465 590.748 14.465C586.119 13.3078 583.516 11.2269 583.516 7.23252C584.673 3.18231 586.754 0 590.748 0C595.088 0.289301 597.691 3.23811 597.691 7.23252Z" fill="#D73F3B"/>
<path d="M685.219 7.23252C685.219 11.2269 682.27 14.465 678.275 14.465C673.647 13.3078 671.043 11.2269 671.043 7.23252C672.2 3.18231 674.281 0 678.275 0C682.615 0.289301 685.219 3.23811 685.219 7.23252Z" fill="#D73F3B"/>
<path d="M656.043 7.23252C656.043 11.2269 653.094 14.465 649.1 14.465C644.471 13.3078 641.867 11.2269 641.867 7.23252C643.024 3.18231 645.105 0 649.1 0C653.439 0.289301 656.043 3.23811 656.043 7.23252Z" fill="#D73F3B"/>
<path d="M626.867 7.23252C626.867 11.2269 623.918 14.465 619.924 14.465C615.295 13.3078 612.691 11.2269 612.691 7.23252C613.849 3.18231 615.93 0 619.924 0C624.263 0.289301 626.867 3.23811 626.867 7.23252Z" fill="#D73F3B"/>
<path d="M772.746 7.23252C772.746 11.2269 769.797 14.465 765.803 14.465C761.174 13.3078 758.57 11.2269 758.57 7.23252C759.728 3.18231 761.808 0 765.803 0C770.142 0.289301 772.746 3.23811 772.746 7.23252Z" fill="#D73F3B"/>
<path d="M743.57 7.23252C743.57 11.2269 740.621 14.465 736.627 14.465C731.998 13.3078 729.395 11.2269 729.395 7.23252C730.552 3.18231 732.633 0 736.627 0C740.967 0.289301 743.57 3.23811 743.57 7.23252Z" fill="#D73F3B"/>
<path d="M714.394 7.23252C714.394 11.2269 711.446 14.465 707.451 14.465C702.822 13.3078 700.219 11.2269 700.219 7.23252C701.376 3.18231 703.457 0 707.451 0C711.791 0.289301 714.394 3.23811 714.394 7.23252Z" fill="#D73F3B"/>
<path d="M860.273 7.23252C860.273 11.2269 857.325 14.465 853.33 14.465C848.701 13.3078 846.098 11.2269 846.098 7.23252C847.255 3.18231 849.336 0 853.33 0C857.67 0.289301 860.273 3.23811 860.273 7.23252Z" fill="#D73F3B"/>
<path d="M831.098 7.23252C831.098 11.2269 828.149 14.465 824.154 14.465C819.526 13.3078 816.922 11.2269 816.922 7.23252C818.079 3.18231 820.16 0 824.154 0C828.494 0.289301 831.098 3.23811 831.098 7.23252Z" fill="#D73F3B"/>
<path d="M801.922 7.23252C801.922 11.2269 798.973 14.465 794.979 14.465C790.35 13.3078 787.746 11.2269 787.746 7.23252C788.903 3.18231 790.984 0 794.979 0C799.318 0.289301 801.922 3.23811 801.922 7.23252Z" fill="#D73F3B"/>
<path d="M888.176 7.23252C888.176 11.2269 885.227 14.465 881.233 14.465C876.604 13.3078 874 11.2269 874 7.23252C875.157 3.18231 877.238 0 881.233 0C885.572 0.289301 888.176 3.23811 888.176 7.23252Z" fill="#D73F3B"/>
<path d="M975.703 7.23252C975.703 11.2269 972.754 14.465 968.76 14.465C964.131 13.3078 961.527 11.2269 961.527 7.23252C962.685 3.18231 964.765 0 968.76 0C973.099 0.289301 975.703 3.23811 975.703 7.23252Z" fill="#D73F3B"/>
<path d="M946.527 7.23252C946.527 11.2269 943.578 14.465 939.584 14.465C934.955 13.3078 932.352 11.2269 932.352 7.23252C933.509 3.18231 935.59 0 939.584 0C943.924 0.289301 946.527 3.23811 946.527 7.23252Z" fill="#D73F3B"/>
<path d="M917.352 7.23252C917.352 11.2269 914.403 14.465 910.408 14.465C905.779 13.3078 903.176 11.2269 903.176 7.23252C904.333 3.18231 906.414 0 910.408 0C914.748 0.289301 917.352 3.23811 917.352 7.23252Z" fill="#D73F3B"/>
<path d="M1004.88 7.23252C1004.88 11.2269 1001.93 14.465 997.936 14.465C993.307 13.3078 990.703 11.2269 990.703 7.23252C991.86 3.18231 993.941 0 997.936 0C1002.28 0.289301 1004.88 3.23811 1004.88 7.23252Z" fill="#D73F3B"/>
<path d="M1092.41 7.23252C1092.41 11.2269 1089.46 14.465 1085.46 14.465C1080.83 13.3078 1078.23 11.2269 1078.23 7.23252C1079.39 3.18231 1081.47 0 1085.46 0C1089.8 0.289301 1092.41 3.23811 1092.41 7.23252Z" fill="#D73F3B"/>
<path d="M1063.23 7.23252C1063.23 11.2269 1060.28 14.465 1056.29 14.465C1051.66 13.3078 1049.05 11.2269 1049.05 7.23252C1050.21 3.18231 1052.29 0 1056.29 0C1060.63 0.289301 1063.23 3.23811 1063.23 7.23252Z" fill="#D73F3B"/>
<path d="M1034.05 7.23252C1034.05 11.2269 1031.11 14.465 1027.11 14.465C1022.48 13.3078 1019.88 11.2269 1019.88 7.23252C1021.04 3.18231 1023.12 0 1027.11 0C1031.45 0.289301 1034.05 3.23811 1034.05 7.23252Z" fill="#D73F3B"/>
<path d="M1121.58 7.23252C1121.58 11.2269 1118.63 14.465 1114.64 14.465C1110.01 13.3078 1107.41 11.2269 1107.41 7.23252C1108.56 3.18231 1110.64 0 1114.64 0C1118.98 0.289301 1121.58 3.23811 1121.58 7.23252Z" fill="#D73F3B"/>
<path d="M1209.11 7.23252C1209.11 11.2269 1206.16 14.465 1202.17 14.465C1197.54 13.3078 1194.93 11.2269 1194.93 7.23252C1196.09 3.18231 1198.17 0 1202.17 0C1206.51 0.289301 1209.11 3.23811 1209.11 7.23252Z" fill="#D73F3B"/>
<path d="M1179.93 7.23252C1179.93 11.2269 1176.98 14.465 1172.99 14.465C1168.36 13.3078 1165.76 11.2269 1165.76 7.23252C1166.92 3.18231 1169 0 1172.99 0C1177.33 0.289301 1179.93 3.23811 1179.93 7.23252Z" fill="#D73F3B"/>
<path d="M1150.76 7.23252C1150.76 11.2269 1147.81 14.465 1143.81 14.465C1139.19 13.3078 1136.58 11.2269 1136.58 7.23252C1137.74 3.18231 1139.82 0 1143.81 0C1148.15 0.289301 1150.76 3.23811 1150.76 7.23252Z" fill="#D73F3B"/>
<path d="M1238.29 7.23252C1238.29 11.2269 1235.34 14.465 1231.34 14.465C1226.71 13.3078 1224.11 11.2269 1224.11 7.23252C1225.27 3.18231 1227.35 0 1231.34 0C1235.68 0.289301 1238.29 3.23811 1238.29 7.23252Z" fill="#D73F3B"/>
<path d="M1325.81 7.23252C1325.81 11.2269 1322.86 14.465 1318.87 14.465C1314.24 13.3078 1311.64 11.2269 1311.64 7.23252C1312.79 3.18231 1314.87 0 1318.87 0C1323.21 0.289301 1325.81 3.23811 1325.81 7.23252Z" fill="#D73F3B"/>
<path d="M1296.64 7.23252C1296.64 11.2269 1293.69 14.465 1289.69 14.465C1285.06 13.3078 1282.46 11.2269 1282.46 7.23252C1283.62 3.18231 1285.7 0 1289.69 0C1294.03 0.289301 1296.64 3.23811 1296.64 7.23252Z" fill="#D73F3B"/>
<path d="M1267.46 7.23252C1267.46 11.2269 1264.51 14.465 1260.52 14.465C1255.89 13.3078 1253.29 11.2269 1253.29 7.23252C1254.44 3.18231 1256.52 0 1260.52 0C1264.86 0.289301 1267.46 3.23811 1267.46 7.23252Z" fill="#D73F3B"/>
<path d="M1354.99 7.23252C1354.99 11.2269 1352.04 14.465 1348.05 14.465C1343.42 13.3078 1340.81 11.2269 1340.81 7.23252C1341.97 3.18231 1344.05 0 1348.05 0C1352.38 0.289301 1354.99 3.23811 1354.99 7.23252Z" fill="#D73F3B"/>
<path d="M1442.52 7.23252C1442.52 11.2269 1439.57 14.465 1435.57 14.465C1430.94 13.3078 1428.34 11.2269 1428.34 7.23252C1429.5 3.18231 1431.58 0 1435.57 0C1439.91 0.289301 1442.52 3.23811 1442.52 7.23252Z" fill="#D73F3B"/>
<path d="M1413.34 7.23252C1413.34 11.2269 1410.39 14.465 1406.4 14.465C1401.77 13.3078 1399.16 11.2269 1399.16 7.23252C1400.32 3.18231 1402.4 0 1406.4 0C1410.74 0.289301 1413.34 3.23811 1413.34 7.23252Z" fill="#D73F3B"/>
<path d="M1384.16 7.23252C1384.16 11.2269 1381.22 14.465 1377.22 14.465C1372.59 13.3078 1369.99 11.2269 1369.99 7.23252C1371.15 3.18231 1373.23 0 1377.22 0C1381.56 0.289301 1384.16 3.23811 1384.16 7.23252Z" fill="#D73F3B"/>
<path d="M1471.69 7.23252C1471.69 11.2269 1468.74 14.465 1464.75 14.465C1460.12 13.3078 1457.52 11.2269 1457.52 7.23252C1458.67 3.18231 1460.75 0 1464.75 0C1469.09 0.289301 1471.69 3.23811 1471.69 7.23252Z" fill="#D73F3B"/>
<path d="M1559.22 7.23252C1559.22 11.2269 1556.27 14.465 1552.28 14.465C1547.65 13.3078 1545.04 11.2269 1545.04 7.23252C1546.2 3.18231 1548.28 0 1552.28 0C1556.61 0.289301 1559.22 3.23811 1559.22 7.23252Z" fill="#D73F3B"/>
<path d="M1530.04 7.23252C1530.04 11.2269 1527.09 14.465 1523.1 14.465C1518.47 13.3078 1515.87 11.2269 1515.87 7.23252C1517.02 3.18231 1519.11 0 1523.1 0C1527.44 0.289301 1530.04 3.23811 1530.04 7.23252Z" fill="#D73F3B"/>
<path d="M1500.87 7.23252C1500.87 11.2269 1497.92 14.465 1493.92 14.465C1489.3 13.3078 1486.69 11.2269 1486.69 7.23252C1487.85 3.18231 1489.93 0 1493.92 0C1498.26 0.289301 1500.87 3.23811 1500.87 7.23252Z" fill="#D73F3B"/>
<path d="M1646.75 7.23252C1646.75 11.2269 1643.8 14.465 1639.8 14.465C1635.17 13.3078 1632.57 11.2269 1632.57 7.23252C1633.73 3.18231 1635.81 0 1639.8 0C1644.14 0.289301 1646.75 3.23811 1646.75 7.23252Z" fill="#D73F3B"/>
<path d="M1617.57 7.23252C1617.57 11.2269 1614.62 14.465 1610.63 14.465C1606 13.3078 1603.39 11.2269 1603.39 7.23252C1604.55 3.18231 1606.63 0 1610.63 0C1614.97 0.289301 1617.57 3.23811 1617.57 7.23252Z" fill="#D73F3B"/>
<path d="M1588.39 7.23252C1588.39 11.2269 1585.45 14.465 1581.45 14.465C1576.82 13.3078 1574.22 11.2269 1574.22 7.23252C1575.38 3.18231 1577.46 0 1581.45 0C1585.79 0.289301 1588.39 3.23811 1588.39 7.23252Z" fill="#D73F3B"/>
<path d="M1734.27 7.23252C1734.27 11.2269 1731.32 14.465 1727.33 14.465C1722.7 13.3078 1720.1 11.2269 1720.1 7.23252C1721.25 3.18231 1723.34 0 1727.33 0C1731.67 0.289301 1734.27 3.23811 1734.27 7.23252Z" fill="#D73F3B"/>
<path d="M1705.1 7.23252C1705.1 11.2269 1702.15 14.465 1698.15 14.465C1693.53 13.3078 1690.92 11.2269 1690.92 7.23252C1692.08 3.18231 1694.16 0 1698.15 0C1702.49 0.289301 1705.1 3.23811 1705.1 7.23252Z" fill="#D73F3B"/>
<path d="M1675.92 7.23252C1675.92 11.2269 1672.97 14.465 1668.98 14.465C1664.35 13.3078 1661.75 11.2269 1661.75 7.23252C1662.9 3.18231 1664.98 0 1668.98 0C1673.32 0.289301 1675.92 3.23811 1675.92 7.23252Z" fill="#D73F3B"/>
<path d="M1762.18 7.23252C1762.18 11.2269 1759.23 14.465 1755.23 14.465C1750.6 13.3078 1748 11.2269 1748 7.23252C1749.16 3.18231 1751.24 0 1755.23 0C1759.57 0.289301 1762.18 3.23811 1762.18 7.23252Z" fill="#D73F3B"/>
<path d="M1849.7 7.23252C1849.7 11.2269 1846.75 14.465 1842.76 14.465C1838.13 13.3078 1835.53 11.2269 1835.53 7.23252C1836.68 3.18231 1838.77 0 1842.76 0C1847.1 0.289301 1849.7 3.23811 1849.7 7.23252Z" fill="#D73F3B"/>
<path d="M1820.53 7.23252C1820.53 11.2269 1817.58 14.465 1813.58 14.465C1808.96 13.3078 1806.35 11.2269 1806.35 7.23252C1807.51 3.18231 1809.59 0 1813.58 0C1817.92 0.289301 1820.53 3.23811 1820.53 7.23252Z" fill="#D73F3B"/>
<path d="M1791.35 7.23252C1791.35 11.2269 1788.4 14.465 1784.41 14.465C1779.78 13.3078 1777.18 11.2269 1777.18 7.23252C1778.33 3.18231 1780.41 0 1784.41 0C1788.75 0.289301 1791.35 3.23811 1791.35 7.23252Z" fill="#D73F3B"/>
<path d="M1878.88 7.23252C1878.88 11.2269 1875.93 14.465 1871.94 14.465C1867.31 13.3078 1864.7 11.2269 1864.7 7.23252C1865.86 3.18231 1867.94 0 1871.94 0C1876.28 0.289301 1878.88 3.23811 1878.88 7.23252Z" fill="#D73F3B"/>
<path d="M1908.05 7.23252C1908.05 11.2269 1905.11 14.465 1901.11 14.465C1896.48 13.3078 1893.88 11.2269 1893.88 7.23252C1895.04 3.18231 1897.12 0 1901.11 0C1905.45 0.289301 1908.05 3.23811 1908.05 7.23252Z" fill="#D73F3B"/>
</svg>
