<svg width="100" height="100" viewBox="0 0 100 100" fill="none" xmlns="http://www.w3.org/2000/svg">
<path d="M84.0764 11.1729H34.3264L20.2188 25.2317V88.5476H80.634C81.5467 88.5476 82.422 88.185 83.0673 87.5397C83.7127 86.8943 84.0752 86.019 84.0752 85.1064L84.0764 11.1729Z" fill="white"/>
<path d="M6.71107 85.3235L8.14607 78.0926C8.33321 77.1549 8.1714 76.1812 7.69107 75.3544C5.53438 71.5977 4.21862 67.4178 3.8346 63.1032C3.79275 62.5935 3.87787 62.0815 4.08236 61.6127C4.28684 61.144 4.60431 60.7333 5.00636 60.4173L6.81607 58.992C6.81607 58.992 6.5646 57.2567 6.45195 55.125C6.4237 54.6122 6.52283 54.1005 6.74048 53.6353C6.95813 53.1702 7.28753 52.7662 7.6993 52.4594L11.8064 49.41C12.1362 49.165 12.5251 49.0117 12.9335 48.9658C13.3418 48.9198 13.7551 48.9829 14.1311 49.1485C14.5072 49.3141 14.8327 49.5764 15.0745 49.9086C15.3163 50.2408 15.4659 50.6312 15.5078 51.04L15.5625 51.5717L17.9008 50.3556C18.1835 50.2086 18.4975 50.132 18.8161 50.132C19.1347 50.132 19.4487 50.2088 19.7314 50.3558C20.0141 50.5027 20.2572 50.7156 20.4403 50.9764C20.6234 51.2372 20.741 51.5383 20.7831 51.8541C21.2314 55.1944 22.1187 60.81 23.4449 64.81C23.9916 66.4544 25.0885 67.8602 26.5508 68.7903C28.6578 70.135 32.0887 72.1103 35.3937 73.0776L34.5384 75.852C34.3158 76.5758 33.8674 77.2092 33.2587 77.6597C32.6501 78.1101 31.9133 78.3539 31.1561 78.3553C29.3131 78.368 27.4707 78.2868 25.6361 78.112L22.8884 88.5476L6.71107 85.3235Z" fill="#FFD3BD"/>
<path d="M34.3264 11.1729V22.112C34.3266 22.5215 34.2461 22.9271 34.0895 23.3055C33.9329 23.6839 33.7033 24.0278 33.4138 24.3174C33.1243 24.6071 32.7805 24.8369 32.4022 24.9936C32.0238 25.1504 31.6183 25.2311 31.2087 25.2311H20.2188L34.3264 11.1729Z" fill="white"/>
<path d="M69.455 47.4056C69.455 44.2931 68.636 41.2354 67.0801 38.5397C65.5243 35.844 63.2864 33.6052 60.5913 32.0483C57.8962 30.4913 54.8388 29.6711 51.7263 29.6699C48.6138 29.6688 45.5558 30.4867 42.8596 32.0417C40.1633 33.5966 37.9237 35.8337 36.3658 38.5282C34.808 41.2228 33.9866 44.2799 33.9844 47.3924C33.9821 50.5049 34.799 53.5631 36.353 56.2599C37.907 58.9567 40.1433 61.1971 42.8373 62.7559C43.1726 62.9523 43.4505 63.2332 43.6432 63.5706C43.836 63.908 43.9368 64.29 43.9356 64.6786V68.7374H59.5064V64.6803C59.5034 64.2942 59.6017 63.914 59.7917 63.5778C59.9816 63.2416 60.2565 62.9611 60.5888 62.7645C63.2852 61.2085 65.5243 58.9698 67.0808 56.2736C68.6372 53.5774 69.4561 50.5188 69.455 47.4056Z" fill="#FFDE76"/>
<path d="M43.9339 68.7373H59.5048V72.7288C59.5047 74.5013 58.8005 76.2012 57.5471 77.4546C56.2937 78.7079 54.5938 79.412 52.8212 79.412H50.6174C49.7397 79.4121 48.8706 79.2392 48.0597 78.9033C47.2487 78.5675 46.5119 78.0752 45.8913 77.4546C45.2706 76.8339 44.7783 76.0971 44.4424 75.2862C44.1065 74.4753 43.9336 73.6062 43.9336 72.7285L43.9339 68.7373Z" fill="#EFAC52"/>
<path d="M53.5669 35.0102C56.3728 35.2501 59.0033 36.4755 60.9921 38.4694C62.981 40.4633 64.1997 43.0969 64.4325 45.9034C64.436 45.9481 64.4395 45.9917 64.4425 46.0373C64.4753 46.5578 64.3506 47.0762 64.0847 47.5249C63.8189 47.9737 63.4241 48.332 62.9518 48.5533C62.4794 48.7745 61.9514 48.8485 61.4365 48.7655C60.9215 48.6826 60.4435 48.4465 60.0645 48.0881C57.2028 45.3867 53.931 42.2781 50.9648 39.4531C50.585 39.0904 50.3238 38.6212 50.2158 38.1073C50.1077 37.5933 50.1578 37.0587 50.3595 36.5737C50.5612 36.0888 50.9049 35.6763 51.3456 35.3905C51.7862 35.1047 52.303 34.959 52.828 34.9726C53.0728 34.9776 53.319 34.9902 53.5669 35.0102Z" fill="#FFF7E1"/>
<path d="M87.0533 7.93596L79.7022 8.50743C78.7489 8.58259 77.8011 8.30687 77.0369 7.73213C73.5612 5.14685 69.5659 3.34651 65.3269 2.45537C64.8257 2.35367 64.3072 2.37775 63.8177 2.52547C63.3281 2.67318 62.8828 2.93993 62.5216 3.30184L60.8924 4.93037C60.8924 4.93037 59.1995 4.47596 57.0954 4.11213C56.5896 4.02355 56.0697 4.06156 55.5822 4.22275C55.0946 4.38395 54.6546 4.66333 54.3013 5.03596L50.788 8.75419C50.5058 9.0528 50.3077 9.42082 50.2138 9.82084C50.12 10.2208 50.1338 10.6386 50.2537 11.0315C50.3737 11.4245 50.5956 11.7787 50.8969 12.0581C51.1981 12.3375 51.568 12.5321 51.9689 12.6221L52.4904 12.7398L51.0066 14.918C50.8272 15.1814 50.7139 15.4841 50.6763 15.8005C50.6386 16.1169 50.6777 16.4377 50.7902 16.7358C50.9027 17.0339 51.0853 17.3006 51.3227 17.5132C51.56 17.7258 51.845 17.8782 52.1536 17.9574C55.4183 18.7974 60.8889 20.3415 64.7042 22.131C66.2734 22.8675 67.5406 24.1226 68.2924 25.6845C69.3789 27.936 70.9351 31.5763 71.5051 34.9721L74.361 34.4507C75.1059 34.3152 75.7879 33.9448 76.3071 33.3937C76.8264 32.8426 77.1555 32.1397 77.2463 31.388C77.4773 29.5595 77.6147 27.7203 77.658 25.8777L88.3424 24.3827L87.0533 7.93596Z" fill="#FFD3BD"/>
<path d="M62.7458 95.1451C62.4613 94.9462 62.2188 94.6932 62.0321 94.4005C61.8454 94.1079 61.7181 93.7813 61.6576 93.4395C61.5971 93.0976 61.6046 92.7472 61.6795 92.4082C61.7544 92.0693 61.8954 91.7484 62.0944 91.4639L88.6864 53.4345C89.3822 52.4395 90.2911 51.6123 91.347 51.013L94.545 49.1978C94.6039 49.1643 94.6712 49.1484 94.7389 49.1518C94.8066 49.1553 94.8719 49.1781 94.9271 49.2174C94.9823 49.2567 95.0252 49.311 95.0506 49.3739C95.076 49.4367 95.0829 49.5055 95.0706 49.5722L94.3979 53.2107C94.1858 54.3588 93.7297 55.448 93.0606 56.4048L66.427 94.493C66.2281 94.7776 65.9752 95.0202 65.6825 95.207C65.3899 95.3937 65.0633 95.521 64.7215 95.5816C64.3797 95.6421 64.0292 95.6348 63.6903 95.5599C63.3513 95.485 63.0304 95.344 62.7458 95.1451Z" fill="#FF8080"/>
<path d="M3.01562 93.1606L4.99651 84.1133L25.6374 88.3974L23.4953 97.2571C23.4953 97.2571 10.385 95.8309 3.01562 93.1606Z" fill="#EDF0F0"/>
<path d="M95.2726 5.19141L86.0547 6.08994L87.8706 27.0923L96.9214 26.0117C96.9214 26.0117 97.0538 12.8249 95.2726 5.19141Z" fill="#EDF0F0"/>
<path d="M44.2718 9.99609H34.3259C34.3174 9.99609 34.3094 9.99845 34.3009 9.99874C34.2331 9.9995 34.1655 10.0062 34.0989 10.0187C34.093 10.0187 34.0874 10.022 34.0815 10.0232C34.0199 10.0366 33.9595 10.055 33.9009 10.0782C33.8806 10.0858 33.8615 10.0949 33.8421 10.1037C33.7965 10.1244 33.7523 10.148 33.7097 10.1743C33.6921 10.1852 33.6741 10.1952 33.6571 10.2073C33.5993 10.2464 33.5452 10.2905 33.4953 10.3393L19.3877 24.3982C19.3383 24.448 19.2936 24.5022 19.2541 24.5602C19.2424 24.577 19.2324 24.5946 19.2215 24.612C19.1945 24.6552 19.1704 24.7002 19.1494 24.7467C19.1409 24.7655 19.1321 24.784 19.1244 24.8032C19.0992 24.8662 19.0795 24.9314 19.0656 24.9979V25.0023C19.0529 25.0702 19.0461 25.1391 19.0453 25.2082C19.0453 25.2164 19.043 25.224 19.043 25.2323V44.9114C19.043 45.2234 19.1669 45.5226 19.3875 45.7433C19.6082 45.9639 19.9074 46.0879 20.2194 46.0879C20.5315 46.0879 20.8307 45.9639 21.0513 45.7433C21.272 45.5226 21.3959 45.2234 21.3959 44.9114V26.4073H31.2083C32.3469 26.4056 33.4384 25.9525 34.2434 25.1472C35.0484 24.342 35.5011 23.2503 35.5024 22.1117V12.349H44.2718C44.5838 12.349 44.8831 12.2251 45.1037 12.0045C45.3243 11.7838 45.4483 11.4846 45.4483 11.1726C45.4483 10.8605 45.3243 10.5613 45.1037 10.3407C44.8831 10.12 44.5838 9.99609 44.2718 9.99609ZM33.1494 22.1117C33.1489 22.6265 32.9443 23.1201 32.5804 23.4842C32.2165 23.8484 31.7231 24.0534 31.2083 24.0543H23.0653L24.1691 22.9546L33.1494 14.0058V22.1117Z" fill="#202020"/>
<path d="M31.364 87.3714C31.052 87.3714 30.7527 87.4954 30.5321 87.716C30.3114 87.9366 30.1875 88.2359 30.1875 88.5479C30.1875 88.8599 30.3114 89.1592 30.5321 89.3798C30.7527 89.6004 31.052 89.7244 31.364 89.7244H61.8763L61.131 90.7899C60.5505 91.6202 60.3235 92.6471 60.5001 93.6446C60.6766 94.6422 61.2423 95.5288 62.0725 96.1094C62.9027 96.6899 63.9296 96.9169 64.9272 96.7403C65.9248 96.5638 66.8114 95.9981 67.3919 95.1679L82.901 72.9882V85.1058C82.9 85.7062 82.6611 86.2816 82.2366 86.7061C81.8121 87.1306 81.2366 87.3695 80.6363 87.3705H76.804C76.4919 87.3705 76.1927 87.4945 75.9721 87.7151C75.7514 87.9357 75.6275 88.235 75.6275 88.547C75.6275 88.859 75.7514 89.1583 75.9721 89.3789C76.1927 89.5995 76.4919 89.7235 76.804 89.7235H80.6363C81.8605 89.7218 83.034 89.2347 83.8996 88.3691C84.7652 87.5035 85.2523 86.33 85.254 85.1058V69.6235L94.0254 57.0794C94.7924 55.9855 95.3141 54.739 95.5548 53.4249L96.3663 49.035C96.4071 48.8146 96.384 48.5873 96.3 48.3796C96.2159 48.1719 96.0743 47.9925 95.8918 47.8626C95.7093 47.7327 95.4934 47.6575 95.2697 47.6461C95.0459 47.6346 94.8235 47.6873 94.6287 47.7979L90.7663 49.9902C89.5593 50.6774 88.5196 51.6236 87.7222 52.7608L85.2531 56.292V30.1638C85.2531 29.8518 85.1291 29.5525 84.9085 29.3319C84.6879 29.1113 84.3886 28.9873 84.0766 28.9873C83.7646 28.9873 83.4654 29.1113 83.2447 29.3319C83.0241 29.5525 82.9001 29.8518 82.9001 30.1638V58.9923C82.9008 59.1655 82.9402 59.3363 83.0154 59.4923L63.5207 87.3717L31.364 87.3714ZM89.6516 54.1091C90.248 53.2585 91.0256 52.5507 91.9284 52.0367L93.5943 51.0911L93.2413 52.9973C93.0613 53.9808 92.6709 54.9139 92.0969 55.7326L83.1013 68.5967L65.4628 93.8211C65.3524 93.979 65.212 94.1135 65.0496 94.2171C64.8872 94.3207 64.706 94.3913 64.5163 94.4249C64.3267 94.4585 64.1322 94.4543 63.9441 94.4128C63.7561 94.3712 63.578 94.293 63.4201 94.1826C63.2623 94.0722 63.1277 93.9318 63.0241 93.7694C62.9205 93.607 62.8499 93.4258 62.8164 93.2361C62.7828 93.0465 62.7869 92.852 62.8285 92.6639C62.8701 92.4759 62.9483 92.2978 63.0587 92.1399L89.6516 54.1091Z" fill="#202020"/>
<path d="M2.61558 94.2672C10.0326 96.9548 22.8279 98.3684 23.3688 98.4272C23.653 98.4578 23.9385 98.3841 24.1724 98.2197C24.4062 98.0554 24.5723 97.8117 24.6397 97.5339L26.7818 88.6739C26.8188 88.5206 26.8246 88.3615 26.7989 88.2059C26.7732 88.0503 26.7165 87.9014 26.6321 87.7682C26.5478 87.635 26.4375 87.5201 26.3078 87.4303C26.1781 87.3405 26.0318 87.2778 25.8773 87.2457L24.5244 86.9648L26.5226 79.3742C28.202 79.5045 29.9162 79.5289 31.16 79.5319C32.1693 79.5337 33.1523 79.2106 33.9636 78.6103C34.7749 78.0099 35.3714 77.1644 35.6647 76.1986L36.52 73.4242C36.5659 73.2752 36.5817 73.1186 36.5666 72.9634C36.5514 72.8082 36.5055 72.6576 36.4316 72.5203C36.3578 72.383 36.2573 72.2618 36.1362 72.1636C36.015 72.0655 35.8755 71.9924 35.7259 71.9486C32.6153 71.0369 29.3644 69.1892 27.1853 67.7986C25.9523 67.0125 25.0267 65.8268 24.5632 64.4398C23.2447 60.4628 22.3606 54.7495 21.9509 51.6981C21.8837 51.195 21.6963 50.7155 21.4047 50.3001C21.113 49.8848 20.7256 49.5457 20.2753 49.3117C19.8249 49.0776 19.3249 48.9555 18.8173 48.9555C18.3098 48.9555 17.8097 49.0778 17.3594 49.3119L16.3847 49.8189C16.1665 49.3448 15.8452 48.9253 15.4444 48.591C15.0435 48.2566 14.5732 48.0159 14.0676 47.8863C13.5619 47.7567 13.0338 47.7415 12.5216 47.8418C12.0093 47.942 11.5259 48.1553 11.1065 48.466L6.9997 51.5151C6.43158 51.9372 5.977 52.4935 5.67668 53.1344C5.37635 53.7752 5.23965 54.4805 5.27881 55.1872C5.35175 56.5631 5.4794 57.7684 5.56528 58.4813L4.28028 59.4934C3.72427 59.9287 3.2853 60.4956 3.00291 61.1429C2.72052 61.7902 2.60358 62.4976 2.66264 63.2013C3.05975 67.6905 4.4293 72.0394 6.67617 75.946C7.01234 76.5251 7.12541 77.207 6.99411 77.8636L5.95264 83.1101L5.23705 82.9631C4.93373 82.9001 4.61783 82.9594 4.35792 83.1279C4.09801 83.2965 3.91508 83.5607 3.84881 83.8634L1.86705 92.9095C1.80608 93.1881 1.84837 93.4794 1.98606 93.7291C2.12375 93.9788 2.34746 94.17 2.61558 94.2672ZM5.00823 63.0048C4.98216 62.689 5.03501 62.3717 5.16203 62.0813C5.28904 61.791 5.48624 61.5368 5.73587 61.3416L5.94675 61.1766C6.32801 63.3728 6.97933 65.5134 7.88587 67.5498C7.95103 67.6899 8.04315 67.8158 8.15695 67.9203C8.27076 68.0248 8.40404 68.1058 8.54917 68.1588C8.6943 68.2118 8.84845 68.2357 9.00281 68.2291C9.15717 68.2225 9.30872 68.1856 9.44881 68.1204C9.5889 68.0553 9.71479 67.9631 9.81928 67.8493C9.92377 67.7355 10.0048 67.6022 10.0578 67.4571C10.1108 67.312 10.1347 67.1578 10.1281 67.0035C10.1215 66.8491 10.0846 66.6976 10.0194 66.5575C8.38793 63.0498 7.99293 58.9269 7.98999 58.8857C7.98999 58.8786 7.98675 58.8719 7.98587 58.8648C7.98587 58.8513 7.98587 58.8381 7.98293 58.8245C7.97999 58.811 7.73764 57.1122 7.62999 55.0639C7.61177 54.7449 7.67295 54.4264 7.80805 54.1369C7.94315 53.8473 8.14795 53.5958 8.40411 53.4048L9.51558 52.5795C9.69028 55.4592 10.2412 60.5086 11.9785 64.5148C12.1027 64.8011 12.3354 65.0263 12.6257 65.141C12.9159 65.2556 13.2397 65.2503 13.526 65.1261C13.8123 65.002 14.0375 64.7692 14.1522 64.479C14.2668 64.1888 14.2615 63.8649 14.1373 63.5786C12.1753 59.0542 11.8518 52.8013 11.7985 50.8845L12.5109 50.3551C12.674 50.234 12.8663 50.1583 13.0682 50.1356C13.2701 50.1129 13.4744 50.1441 13.6603 50.226C13.8462 50.3079 14.0072 50.4376 14.1267 50.6019C14.2462 50.7662 14.3201 50.9592 14.3409 51.1613L14.3941 51.6798C14.4209 51.9966 14.9026 57.5622 16.165 62.3078C16.2037 62.4582 16.2717 62.5995 16.3653 62.7235C16.4588 62.8475 16.576 62.9517 16.71 63.0302C16.8441 63.1087 16.9923 63.1599 17.1462 63.1807C17.3002 63.2016 17.4567 63.1918 17.6068 63.1519C17.7569 63.112 17.8976 63.0427 18.0208 62.9481C18.144 62.8536 18.2473 62.7355 18.3247 62.6008C18.402 62.4661 18.4519 62.3174 18.4715 62.1634C18.4911 62.0093 18.48 61.8528 18.4388 61.7031C17.4897 58.1348 16.99 53.9489 16.8135 52.2498L18.447 51.3998C18.5623 51.34 18.6902 51.3089 18.8201 51.309C18.9499 51.3091 19.0778 51.3405 19.1929 51.4005C19.308 51.4606 19.407 51.5474 19.4814 51.6538C19.5559 51.7601 19.6036 51.8829 19.6206 52.0116C20.1344 55.8386 21.022 61.2301 22.3318 65.181C22.9655 67.0806 24.2322 68.7051 25.92 69.7828C27.9697 71.091 30.9279 72.7854 33.9297 73.8416L33.4162 75.5069C33.2692 75.9914 32.9702 76.4158 32.5634 76.7172C32.1565 77.0186 31.6634 77.181 31.157 77.1804C29.3561 77.1925 27.5556 77.1134 25.7626 76.9436C25.483 76.9142 25.2021 76.9858 24.9707 77.1454C24.7392 77.305 24.5725 77.5421 24.5006 77.8139L22.217 86.4875L8.25587 83.5884L9.30146 78.3219C9.54463 77.1031 9.33407 75.8375 8.7094 74.7631C6.63711 71.1586 5.37415 67.1464 5.00823 63.0048ZM5.89764 85.5022L24.2091 89.3025L22.5979 95.9669C19.555 95.5922 10.4215 94.3589 4.3897 92.3892L5.89764 85.5022Z" fill="#202020"/>
<path d="M95.0312 4.10778L85.8224 5.08601C85.5144 5.11877 85.2317 5.27167 85.0358 5.51153C84.8398 5.75138 84.7463 6.05885 84.7756 6.36719L84.8447 7.09484L79.5153 7.55543C78.8483 7.61468 78.1827 7.42761 77.6441 7.02954C74.0068 4.36924 69.8341 2.53251 65.4156 1.6469C64.7227 1.5111 64.0069 1.5497 63.3326 1.75922C62.6583 1.96874 62.0466 2.34261 61.5527 2.84719L60.4056 4.01366C59.7062 3.85043 58.5233 3.59131 57.1627 3.3666C56.4646 3.25077 55.7488 3.30977 55.0791 3.53832C54.4094 3.76688 53.8069 4.15787 53.3253 4.67631L49.4341 8.86454C49.0877 9.23792 48.8366 9.68943 48.7021 10.1807C48.5676 10.6719 48.5537 11.1884 48.6617 11.6861C48.7696 12.1839 48.9961 12.6483 49.3219 13.0397C49.6478 13.4312 50.0633 13.7381 50.5333 13.9345L50.2706 14.3275C49.9584 14.7937 49.7629 15.3281 49.7004 15.8856C49.6379 16.4432 49.7103 17.0076 49.9115 17.5313C50.1127 18.0551 50.4368 18.5228 50.8565 18.8951C51.2762 19.2674 51.7793 19.5334 52.3233 19.6707C55.8324 20.5548 60.75 21.9454 64.2483 23.5493C65.576 24.1618 66.6531 25.2116 67.2997 26.5231C68.4433 28.8422 69.9247 32.276 70.4891 35.4672C70.5163 35.6207 70.5737 35.7673 70.658 35.8985C70.7423 36.0297 70.8519 36.1428 70.9803 36.2312C71.1087 36.3197 71.2534 36.3817 71.406 36.4137C71.5586 36.4458 71.716 36.4471 71.8691 36.4178L74.72 35.8716C75.7121 35.6858 76.6179 35.1855 77.3035 34.4448C77.9891 33.7041 78.418 32.7624 78.5268 31.759C78.6636 30.5301 78.8236 28.8178 78.878 27.1322L86.6427 25.9772L86.773 27.3528C86.8006 27.644 86.9358 27.9145 87.1521 28.1115C87.3685 28.3085 87.6504 28.4178 87.943 28.4181C87.9929 28.418 88.0428 28.4149 88.0924 28.4087L97.1336 27.2498C97.4171 27.2135 97.6777 27.0752 97.8667 26.8608C98.0558 26.6463 98.1602 26.3704 98.1606 26.0845C98.1606 25.5404 98.158 12.6675 96.2986 5.00043C96.2309 4.72357 96.0652 4.4806 95.8322 4.31649C95.5992 4.15237 95.3147 4.07823 95.0312 4.10778ZM77.5474 24.9513C77.2692 24.9927 77.015 25.1323 76.8309 25.3449C76.6468 25.5576 76.545 25.8292 76.5439 26.1104C76.516 27.9112 76.3973 29.7095 76.1883 31.4984C76.1334 32.0019 75.9178 32.4743 75.5735 32.8457C75.2292 33.2172 74.7744 33.4679 74.2765 33.5607L72.565 33.8887C71.845 30.7898 70.4847 27.6634 69.4089 25.4825C68.5228 23.6869 67.0473 22.2498 65.2289 21.4116C61.5683 19.7322 56.5018 18.2972 52.898 17.389C52.7196 17.3436 52.5547 17.2562 52.4172 17.1338C52.2796 17.0115 52.1735 16.858 52.1077 16.6861C52.0419 16.5142 52.0183 16.329 52.039 16.1461C52.0597 15.9632 52.124 15.788 52.2265 15.6351L52.9797 14.5087C54.6483 14.8701 58.7509 15.8243 62.198 17.1598C62.4882 17.2692 62.8098 17.2596 63.093 17.1331C63.3761 17.0066 63.5979 16.7734 63.71 16.4842C63.822 16.195 63.8154 15.8733 63.6915 15.5889C63.5676 15.3046 63.3364 15.0808 63.0483 14.966C58.463 13.1892 52.9756 12.1004 52.6765 12.0416L51.5803 11.8063C51.4408 11.7763 51.3118 11.7099 51.2063 11.6138C51.1008 11.5177 51.0227 11.3954 50.9798 11.2593C50.9369 11.1232 50.9309 10.9782 50.9623 10.839C50.9937 10.6998 51.0614 10.5714 51.1586 10.4669L52.1721 9.37513C54.0703 9.63719 60.2433 10.6398 64.5333 13.0907C64.8042 13.2455 65.1255 13.2863 65.4266 13.2041C65.7276 13.122 65.9837 12.9236 66.1384 12.6526C66.2932 12.3817 66.334 12.0604 66.2518 11.7593C66.1696 11.4583 65.9713 11.2022 65.7003 11.0475C61.9083 8.8816 56.9497 7.78101 54.1065 7.29219L55.0477 6.27748C55.2655 6.04374 55.5378 5.86765 55.8403 5.76499C56.1429 5.66233 56.4661 5.63631 56.7812 5.68925C58.8056 6.02131 60.4639 6.44837 60.4806 6.45396C60.4974 6.45954 60.5071 6.45866 60.5203 6.4616C60.5277 6.4616 60.5342 6.4666 60.5415 6.46807C60.5818 6.47631 64.6236 7.31278 67.9439 9.32601C68.2107 9.4878 68.5308 9.53696 68.8339 9.46269C68.9839 9.42592 69.1253 9.35994 69.2499 9.26854C69.3744 9.17714 69.4798 9.0621 69.5599 8.92999C69.64 8.79787 69.6933 8.65127 69.7167 8.49856C69.7402 8.34585 69.7333 8.19001 69.6966 8.03995C69.6598 7.88989 69.5938 7.74854 69.5024 7.62397C69.411 7.49941 69.296 7.39406 69.1639 7.31396C67.239 6.18979 65.1825 5.30799 63.0412 4.68866L63.2294 4.49719C63.4509 4.27053 63.7252 4.10242 64.0276 4.00797C64.3301 3.91351 64.6513 3.89566 64.9624 3.95601C69.0388 4.7735 72.8884 6.4683 76.2441 8.92278C77.2438 9.66112 78.4787 10.009 79.7168 9.90102L85.0665 9.43866L86.4174 23.6331L77.5474 24.9513ZM89 25.9201L87.2283 7.30249L94.2371 6.55866C95.5336 12.7672 95.7597 21.9831 95.7991 25.049L89 25.9201Z" fill="#202020"/>
<path d="M51.4503 28.4961C47.3126 28.5551 43.3084 29.9698 40.0518 32.5231C36.7951 35.0764 34.4659 38.6273 33.4212 42.6315C32.3765 46.6357 32.674 50.872 34.268 54.6908C35.8621 58.5097 38.6647 61.7003 42.2462 63.7734C42.4031 63.8664 42.533 63.9989 42.6228 64.1577C42.7126 64.3165 42.7594 64.496 42.7583 64.6784V72.7281C42.7608 74.8119 43.5897 76.8097 45.0632 78.2831C46.5367 79.7566 48.5345 80.5854 50.6183 80.5878H52.8218C54.9057 80.5855 56.9036 79.7566 58.3771 78.2831C59.8506 76.8096 60.6795 74.8117 60.6818 72.7278V68.7366C60.6818 68.4246 60.5579 68.1254 60.3372 67.9048C60.1166 67.6841 59.8174 67.5602 59.5053 67.5602H55.4895V64.1425C55.4887 63.6494 55.6053 63.1632 55.8297 62.7241C56.0541 62.285 56.3797 61.9056 56.7798 61.6172C58.7589 60.2017 62.2071 57.1955 63.0665 52.9408C63.0901 52.8093 63.6306 49.6893 62.398 46.8175C62.0127 45.9197 61.4323 45.1189 60.699 44.4732C59.9658 43.8275 59.098 43.3532 58.1586 43.0846C57.2319 42.8102 56.2558 42.7456 55.301 42.8955C54.3463 43.0454 53.4369 43.4059 52.6389 43.9511C52.5115 44.0385 52.4026 44.1502 52.3184 44.2798C52.2342 44.4093 52.1764 44.5542 52.1482 44.7061C52.12 44.858 52.1219 45.014 52.154 45.1651C52.1861 45.3162 52.2476 45.4596 52.3351 45.5869C52.4225 45.7143 52.5342 45.8232 52.6638 45.9074C52.7933 45.9916 52.9382 46.0494 53.0901 46.0777C53.242 46.1059 53.398 46.1039 53.5491 46.0718C53.7002 46.0398 53.8436 45.9782 53.9709 45.8908C54.4824 45.5433 55.0649 45.3139 55.676 45.2195C56.2871 45.125 56.9116 45.1677 57.5042 45.3446C58.1091 45.5169 58.6681 45.8218 59.1406 46.2371C59.613 46.6524 59.9871 47.1676 60.2356 47.7455C61.1836 49.9534 60.7551 52.4996 60.7553 52.4996C60.0606 55.9375 57.1083 58.4875 55.4112 59.7019C54.707 60.2082 54.1333 60.8749 53.7378 61.6468C53.3422 62.4187 53.1361 63.2737 53.1365 64.1411V67.5587H50.5439V64.1411C50.5443 63.2737 50.3382 62.4187 49.9427 61.6468C49.5471 60.8748 48.9735 60.2082 48.2692 59.7019C46.7194 58.6208 45.3748 57.2719 44.2986 55.7187C44.2144 55.5877 44.105 55.4748 43.9769 55.3864C43.8487 55.298 43.7042 55.2359 43.5519 55.2038C43.3996 55.1716 43.2424 55.1701 43.0894 55.1991C42.9364 55.2282 42.7908 55.2873 42.6608 55.3731C42.5309 55.4589 42.4193 55.5696 42.3325 55.6988C42.2456 55.828 42.1853 55.9732 42.155 56.1259C42.1247 56.2786 42.125 56.4359 42.1559 56.5885C42.1868 56.7411 42.2477 56.886 42.3351 57.0149C43.5702 58.8091 45.1164 60.3678 46.9006 61.6172C47.3007 61.9056 47.6263 62.285 47.8507 62.7241C48.0751 63.1632 48.1917 63.6494 48.1909 64.1425V67.5602H45.1112V64.6778C45.1118 64.0832 44.9565 63.4988 44.661 62.9827C44.3655 62.4667 43.94 62.0371 43.4268 61.7367C40.8447 60.241 38.7143 58.0759 37.2607 55.4698C35.8071 52.8638 35.0842 49.9136 35.1683 46.9308C35.4121 38.1846 42.7306 30.9696 51.483 30.8472C53.6772 30.8158 55.8558 31.2209 57.8921 32.0388C59.9284 32.8568 61.7819 34.0713 63.3447 35.6119C64.9075 37.1524 66.1485 38.9882 66.9955 41.0126C67.8426 43.037 68.2788 45.2096 68.2789 47.404C68.2727 50.3096 67.505 53.1629 66.0521 55.6792C64.5993 58.1956 62.5122 60.2871 59.9989 61.7452C59.4884 62.0455 59.0657 62.4745 58.7727 62.9892C58.4797 63.5039 58.3268 64.0865 58.3292 64.6787C58.3292 64.9907 58.4531 65.29 58.6737 65.5106C58.8944 65.7312 59.1936 65.8552 59.5056 65.8552C59.8177 65.8552 60.1169 65.7312 60.3375 65.5106C60.5582 65.29 60.6821 64.9907 60.6821 64.6787C60.6794 64.4993 60.7237 64.3223 60.8105 64.1652C60.8974 64.0082 61.0237 63.8766 61.1771 63.7834C64.047 62.118 66.4302 59.7294 68.0891 56.8557C69.748 53.982 70.6246 50.7236 70.6315 47.4055C70.6315 44.8993 70.1333 42.4181 69.1659 40.1061C68.1985 37.7942 66.7813 35.6975 64.9965 33.9381C63.2118 32.1787 61.0951 30.7915 58.7696 29.8573C56.444 28.923 53.956 28.4603 51.4501 28.4961H51.4503ZM45.1112 69.9131H58.3292V72.7281C58.3275 74.1881 57.7467 75.5878 56.7143 76.6202C55.6819 77.6526 54.2821 78.2333 52.8221 78.2349H50.6183C49.1582 78.2333 47.7584 77.6525 46.7259 76.6201C45.6934 75.5877 45.1126 74.1879 45.1109 72.7278L45.1112 69.9131Z" fill="#202020"/>
<path d="M19.3415 91.3849C19.2659 91.3998 19.192 91.4225 19.121 91.4525C19.0503 91.482 18.9823 91.5174 18.9177 91.5584C18.8542 91.6025 18.7943 91.6517 18.7386 91.7054C18.5183 91.9264 18.3945 92.2257 18.3945 92.5378C18.3945 92.8498 18.5183 93.1492 18.7386 93.3701C18.7943 93.4239 18.8542 93.4731 18.9177 93.5172C18.9823 93.5582 19.0503 93.5936 19.121 93.6231C19.192 93.6531 19.2659 93.6758 19.3415 93.6907C19.4171 93.7058 19.4939 93.7137 19.571 93.7143C19.7356 93.7149 19.8985 93.681 20.0492 93.6148C20.1999 93.5485 20.335 93.4513 20.4458 93.3296C20.5565 93.2078 20.6405 93.0642 20.6923 92.9079C20.7441 92.7517 20.7626 92.5863 20.7464 92.4225C20.7303 92.2587 20.68 92.1001 20.5987 91.9569C20.5174 91.8138 20.407 91.6893 20.2746 91.5915C20.1422 91.4937 19.9907 91.4247 19.83 91.3892C19.6693 91.3536 19.5029 91.3521 19.3415 91.3849Z" fill="#202020"/>
<path d="M93.8116 21.2141C93.7812 21.1435 93.7448 21.0756 93.7028 21.0111C93.6586 20.9475 93.6094 20.8875 93.5557 20.8317C93.5012 20.7775 93.441 20.7291 93.3763 20.6876C93.3129 20.6439 93.2448 20.6074 93.1733 20.5788C93.1023 20.5488 93.0284 20.5261 92.9528 20.5111C92.7248 20.4631 92.4876 20.4851 92.2724 20.5744C92.0572 20.6636 91.874 20.8159 91.7469 21.0111C91.7038 21.0749 91.6673 21.1429 91.6381 21.2141C91.6083 21.2852 91.5856 21.3591 91.5704 21.4347C91.5553 21.5102 91.5474 21.587 91.5469 21.6641C91.5473 21.7411 91.5552 21.818 91.5704 21.8935C91.5852 21.9692 91.6079 22.0431 91.6381 22.1141C91.6673 22.1853 91.7038 22.2533 91.7469 22.317C91.8525 22.4794 91.9973 22.6125 92.168 22.704C92.3387 22.7955 92.5297 22.8425 92.7233 22.8406C92.8005 22.8416 92.8775 22.8337 92.9528 22.817C93.0283 22.8031 93.1022 22.7814 93.1733 22.7523C93.2443 22.7225 93.3122 22.6861 93.3763 22.6435C93.4404 22.6 93.5005 22.5508 93.5557 22.4964C93.6651 22.3872 93.7518 22.2575 93.8109 22.1146C93.8699 21.9718 93.9001 21.8187 93.8998 21.6641C93.9003 21.5871 93.8934 21.5103 93.8792 21.4347C93.8625 21.3595 93.8399 21.2857 93.8116 21.2141Z" fill="#202020"/>
<path d="M46.5649 54.5296C46.8044 55.0483 47.188 55.4871 47.6699 55.7937C48.1519 56.1004 48.7119 56.2619 49.2832 56.259C49.3382 56.259 49.3935 56.259 49.449 56.2543C50.042 56.2267 50.6129 56.0209 51.0872 55.6639C51.5615 55.3068 51.9171 54.8151 52.1076 54.2529L52.1352 54.1696C52.4715 53.1225 52.5803 52.0156 52.4544 50.923C52.3284 49.8304 51.9706 48.7772 51.4049 47.834C49.4261 44.5014 46.2185 44.8482 45.6273 44.9437C41.659 45.2902 40.3835 48.8643 40.4993 51.8317C40.5115 52.1435 40.647 52.4377 40.8761 52.6495C41.1052 52.8614 41.409 52.9736 41.7208 52.9614C42.0326 52.9492 42.3268 52.8137 42.5386 52.5846C42.7505 52.3556 42.8627 52.0517 42.8505 51.7399C42.8011 50.4752 42.9976 47.5114 45.8693 47.2846C45.9187 47.2808 45.9679 47.2738 46.0164 47.2637C46.4692 47.1977 46.9311 47.2349 47.3676 47.3726C45.732 49.592 45.4426 52.1014 46.5649 54.5296ZM49.2349 48.8038C49.2845 48.8777 49.3336 48.9549 49.382 49.0355C49.7769 49.6915 50.0272 50.4243 50.116 51.1849C50.2047 51.9454 50.13 52.7162 49.8967 53.4455L49.8796 53.4973C49.8406 53.6144 49.7661 53.7165 49.6665 53.7895C49.567 53.8625 49.4472 53.9029 49.3237 53.9049C49.1951 53.9165 49.066 53.8877 48.9544 53.8226C48.8428 53.7575 48.7542 53.6594 48.7008 53.5417C47.9467 51.912 48.1273 50.3214 49.2349 48.8032V48.8038Z" fill="#202020"/>
</svg>
