<svg width="116" height="108" viewBox="0 0 116 108" fill="none" xmlns="http://www.w3.org/2000/svg">
<path d="M114.73 54.0005C114.742 60.9357 113.235 67.8024 110.299 74.1933C110.212 74.3825 110.124 74.5717 110.03 74.7666C106.76 81.6676 101.894 87.8338 95.7678 92.8381L95.3053 93.2165C88.3983 98.7538 80.131 102.673 71.2115 104.637C62.2921 106.602 52.9864 106.554 44.0915 104.498C35.1967 102.441 26.9779 98.4374 20.1391 92.8293C13.3003 87.2212 8.04532 80.1759 4.82441 72.297C1.60349 64.4181 0.512597 55.9404 1.64517 47.5901C2.77774 39.2398 6.10002 31.2657 11.3274 24.3511C16.5548 17.4364 23.5315 11.7872 31.6599 7.88739C39.7883 3.98756 48.8261 1.95334 57.9991 1.959C61.4492 1.96005 64.8923 2.24596 68.2866 2.81326C81.3287 5.02163 93.1156 11.3509 101.6 20.7018C110.084 30.0527 114.73 41.8344 114.73 54.0005Z" fill="white"/>
<path d="M43.4348 2.83952L43.4354 2.83938C51.6063 0.90298 60.138 0.618232 68.4405 2.00472L68.441 2.00481C76.9102 3.43839 84.9227 6.59536 91.889 11.2447C98.8554 15.8941 104.599 21.918 108.696 28.8748C112.793 35.8316 115.139 43.5438 115.56 51.444C115.98 59.3439 114.465 67.2291 111.127 74.5196M43.4348 2.83952L96.371 93.4378C102.579 88.3549 107.518 82.1001 110.849 75.1007C110.944 74.9146 111.038 74.7172 111.127 74.5196M43.4348 2.83952C29.8853 6.08649 18.0848 13.7522 10.2445 24.4079C2.40359 35.0644 -0.937992 47.9801 0.849488 60.7375C2.63692 73.4945 9.42955 85.2122 19.9496 93.7005C30.4691 102.188 43.9961 106.867 57.9992 106.865M43.4348 2.83952L96.3702 93.4385L96.0585 93.6958L96.0564 93.6976L95.9001 93.8237L95.8994 93.8242C85.4005 102.238 71.9339 106.87 57.9992 106.865M111.127 74.5196C111.127 74.5195 111.127 74.5193 111.127 74.5191L110.899 74.4168L111.127 74.5209C111.127 74.5204 111.127 74.52 111.127 74.5196ZM57.9992 106.865L57.9993 106.615L57.9992 106.865ZM57.9992 2.78224L57.9991 2.78224C50.6593 2.77623 43.3906 4.09799 36.6093 6.67146C29.828 9.24493 23.6677 13.0193 18.4805 17.7777C13.2934 22.536 9.1813 28.1847 6.37839 34.4C3.57551 40.6152 2.13651 47.2756 2.14305 54.0001L2.14306 54.0011C2.12354 61.1311 3.74396 68.1854 6.89932 74.7034L6.89948 74.7038C10.4386 82.0415 15.8089 88.5159 22.5791 93.6036C29.3493 98.6915 37.3296 102.25 45.8769 103.991C54.4242 105.731 63.298 105.605 71.7824 103.623C80.2664 101.64 88.1223 97.8574 94.7173 92.5804L57.9992 2.78224ZM57.9992 2.78224C61.3976 2.78422 64.789 3.06512 68.1327 3.62156C76.3447 5.019 84.1098 8.08593 90.858 12.5959C97.6062 17.1059 103.166 22.9441 107.129 29.6804C111.093 36.4166 113.36 43.8803 113.767 51.5234C114.173 59.1666 112.708 66.7968 109.478 73.8541L109.477 73.8557L109.459 73.8979C109.378 74.0779 109.304 74.2429 109.214 74.4173L109.214 74.4173L109.211 74.4241C105.984 81.2093 101.196 87.2764 95.1722 92.2088L95.1718 92.2091L94.8735 92.4542L94.8718 92.4556L94.7181 92.5797L57.9992 2.78224Z" fill="#093F68" stroke="#202020" stroke-width="0.5"/>
<path d="M27.5875 47.6135C27.0437 49.2532 24.5812 51.5867 21.9625 55.2904C19.3437 58.9941 20.6812 65.7308 20.6812 65.7308L17.375 68.7236L31.3688 81.5548C33.8688 79.3647 39.0875 75.9361 42.7375 73.8148C46.8688 71.4125 59.0813 59.8025 60.6 58.2832C62.3063 56.5632 61.225 53.9201 58.875 54.0577C57.075 54.1667 54.7313 56.0071 53.7125 56.8785C55.1375 55.6 59.0875 51.9765 60.1313 50.2336C61.4125 48.0951 60.0125 46.9197 58.0375 46.0655C57.4125 45.8075 56.625 46.0655 55.7687 46.5757C56.322 46.0835 56.8203 45.5419 57.2563 44.9589C58.1875 43.5371 57.6438 41.4673 55.2375 40.8309C53.9875 40.4869 52.6125 41.3068 51.6125 42.1496C53.8 39.7187 53.6 38.6121 51.9 37.0527C49.8813 35.2008 49.4 36.0551 44.9063 40.1888L33.9563 50.2336C33.9563 50.2336 35.6688 44.248 35.325 42.3675C34.9813 40.4869 33.2625 39.9021 30.85 41.2552C28.4375 42.6083 28.1312 45.9737 27.5875 47.6135Z" fill="#E28362"/>
<path d="M31.3864 82.1279C31.3042 82.1283 31.2226 82.1139 31.1465 82.0854C31.0703 82.0568 31.0011 82.0148 30.9427 81.9616L16.9552 69.1247C16.8388 69.0173 16.7734 68.872 16.7734 68.7205C16.7734 68.569 16.8388 68.4237 16.9552 68.3163L19.9864 65.5299C19.7489 64.1424 18.9614 58.4206 21.4177 54.9748C22.5114 53.4383 23.5614 52.154 24.4864 51.0188C25.7364 49.511 26.7052 48.3127 26.9864 47.447C27.0864 47.1374 27.1864 46.7418 27.2927 46.3003C27.7552 44.4714 28.3864 41.9544 30.5364 40.7504C32.4114 39.7012 33.6614 39.8446 34.3802 40.1771C34.8151 40.3787 35.1876 40.6778 35.4629 41.0466C35.7382 41.4154 35.9076 41.8421 35.9552 42.287C36.1864 43.5712 35.5864 46.4264 35.0989 48.393L44.4739 39.793L45.7239 38.6463C47.9989 36.5364 49.0364 35.5732 50.2052 35.5732C50.9864 35.5732 51.6239 36.009 52.3427 36.6683C53.7239 37.9354 54.1489 39.019 53.5927 40.3491C54.1757 40.1657 54.8058 40.1497 55.3989 40.3032C55.9888 40.4343 56.5367 40.691 56.9982 41.0526C57.4597 41.4142 57.8218 41.8705 58.0552 42.3844C58.2526 42.8544 58.3305 43.3595 58.2829 43.8613C58.2352 44.3631 58.0633 44.8482 57.7802 45.2798L57.6802 45.4174C57.8967 45.4316 58.1085 45.4821 58.3052 45.5664C59.3052 46.0022 60.6864 46.7131 61.1177 47.94C61.247 48.3757 61.2754 48.8313 61.2012 49.2777C61.1269 49.724 60.9516 50.1511 60.6864 50.5315C59.9122 51.6467 59.0205 52.6895 58.0239 53.6447C58.2881 53.5713 58.5609 53.527 58.8364 53.5128C59.4337 53.4577 60.0349 53.5743 60.5568 53.8465C61.0786 54.1187 61.4952 54.5331 61.7489 55.0322C62.0455 55.6319 62.1391 56.2994 62.0177 56.9485C61.8962 57.5975 61.5653 58.1982 61.0677 58.6728C60.0364 59.7335 47.3739 71.7735 43.0864 74.2962C39.5177 76.3716 34.3364 79.7658 31.8364 81.9731C31.7763 82.0249 31.7055 82.0652 31.6283 82.0918C31.5511 82.1183 31.4689 82.1306 31.3864 82.1279ZM18.2614 68.7176L31.3864 80.7576C34.8619 78.039 38.5418 75.5484 42.3989 73.3043C46.4052 70.9823 58.3239 59.6876 60.1364 57.8702C60.4638 57.5638 60.6835 57.1744 60.7671 56.7523C60.8506 56.3301 60.7942 55.8947 60.6052 55.5023C60.462 55.2083 60.221 54.9634 59.9167 54.8027C59.6124 54.642 59.2605 54.5738 58.9114 54.6079C57.7927 54.6767 56.0052 55.6743 54.1427 57.2739C54.0836 57.3262 54.0138 57.3674 53.9374 57.395C53.861 57.4226 53.7794 57.4361 53.6973 57.4348C53.6151 57.4334 53.5341 57.4173 53.4588 57.3872C53.3835 57.3572 53.3153 57.3138 53.2583 57.2596C53.2013 57.2054 53.1564 57.1414 53.1263 57.0713C53.0962 57.0012 53.0815 56.9263 53.083 56.851C53.0844 56.7756 53.102 56.7013 53.1348 56.6322C53.1676 56.5631 53.2148 56.5006 53.2739 56.4483C54.5239 55.3475 58.5677 51.6323 59.5864 49.9352C59.7667 49.691 59.8898 49.415 59.9479 49.1249C60.006 48.8348 59.9978 48.5367 59.9239 48.2496C59.7114 47.6763 59.0052 47.103 57.7677 46.5583C57.4552 46.4264 56.8489 46.5984 56.1052 47.0342C55.9761 47.1126 55.8198 47.1442 55.6667 47.1229C55.5136 47.1017 55.3746 47.029 55.2766 46.9191C55.1785 46.8092 55.1284 46.6698 55.136 46.5279C55.1436 46.386 55.2084 46.2518 55.3177 46.1512C55.8386 45.6916 56.3095 45.1866 56.7239 44.6434C56.9091 44.3625 57.0217 44.0465 57.0531 43.7195C57.0845 43.3926 57.0339 43.0634 56.9052 42.7571C56.7382 42.4081 56.4844 42.0999 56.1643 41.8569C55.8441 41.614 55.4664 41.4432 55.0614 41.3582C54.0489 41.083 52.8552 41.8512 52.0364 42.545C51.92 42.6429 51.7674 42.6967 51.6094 42.6957C51.4514 42.6946 51.2997 42.6386 51.1849 42.5391C51.07 42.4395 51.0005 42.3038 50.9904 42.1592C50.9803 42.0145 51.0302 41.8717 51.1302 41.7595C53.2052 39.4662 52.8489 38.7094 51.4552 37.4366C50.8739 36.9034 50.4989 36.674 50.2052 36.674C49.5802 36.674 48.4489 37.7003 46.6177 39.4031C46.2364 39.7586 45.8177 40.1484 45.3677 40.5498L34.4177 50.5946C34.3195 50.6872 34.1902 50.7467 34.0506 50.7634C33.911 50.7801 33.7693 50.7532 33.6485 50.6868C33.5277 50.6204 33.4349 50.5186 33.385 50.3978C33.3352 50.277 33.3313 50.1443 33.3739 50.0212C33.8364 48.393 34.9864 43.8407 34.7302 42.4016C34.7082 42.1431 34.6182 41.8934 34.468 41.6737C34.3178 41.454 34.1118 41.271 33.8677 41.1403C33.2427 40.8766 32.2864 41.0658 31.1989 41.6792C29.4927 42.6367 28.9302 44.8784 28.5177 46.5124C28.4052 46.9539 28.2989 47.3724 28.1864 47.7164C27.8364 48.7771 26.8489 49.9811 25.4864 51.6495C24.5739 52.7962 23.5364 54.0346 22.4614 55.5424C19.9927 58.9824 21.2552 65.4955 21.2739 65.5586C21.2922 65.6503 21.2858 65.7447 21.2553 65.8336C21.2248 65.9225 21.1711 66.0032 21.0989 66.0688L18.2614 68.7176Z" fill="#093F68"/>
<path d="M39.0161 54.2921C38.9334 54.2918 38.8516 54.2764 38.7755 54.2469C38.6993 54.2174 38.6303 54.1743 38.5724 54.1201C38.456 54.0127 38.3906 53.8674 38.3906 53.7159C38.3906 53.5645 38.456 53.4191 38.5724 53.3117L51.1849 41.7418C51.2431 41.6884 51.3123 41.646 51.3885 41.6171C51.4646 41.5881 51.5462 41.5732 51.6286 41.5732C51.711 41.5732 51.7926 41.5881 51.8688 41.6171C51.9449 41.646 52.0141 41.6884 52.0724 41.7418C52.1306 41.7953 52.1769 41.8588 52.2084 41.9286C52.2399 41.9985 52.2562 42.0733 52.2562 42.1489C52.2562 42.2245 52.2399 42.2994 52.2084 42.3692C52.1769 42.4391 52.1306 42.5025 52.0724 42.556L39.4599 54.1201C39.402 54.1743 39.333 54.2174 39.2568 54.2469C39.1806 54.2764 39.0988 54.2918 39.0161 54.2921V54.2921Z" fill="#093F68"/>
<path d="M43.5122 58.4093C43.43 58.4097 43.3484 58.3953 43.2723 58.3667C43.1961 58.3382 43.1269 58.2961 43.0685 58.243C42.9521 58.1356 42.8867 57.9903 42.8867 57.8388C42.8867 57.6873 42.9521 57.542 43.0685 57.4346L55.3435 46.1686C55.4016 46.1149 55.4707 46.0722 55.5469 46.0431C55.623 46.014 55.7047 45.999 55.7872 45.999C55.8697 45.999 55.9514 46.014 56.0276 46.0431C56.1037 46.0722 56.1729 46.1149 56.231 46.1686C56.3474 46.276 56.4127 46.4213 56.4127 46.5728C56.4127 46.7243 56.3474 46.8696 56.231 46.977L43.9497 58.243C43.8333 58.3489 43.6762 58.4086 43.5122 58.4093Z" fill="#093F68"/>
<path d="M47.7505 62.944C47.6678 62.9437 47.586 62.9283 47.5098 62.8988C47.4337 62.8692 47.3646 62.8261 47.3067 62.772C47.1903 62.6646 47.125 62.5192 47.125 62.3678C47.125 62.2163 47.1903 62.071 47.3067 61.9636L53.2942 56.4768C53.3503 56.4168 53.4192 56.368 53.4968 56.3336C53.5743 56.2992 53.6588 56.2798 53.7448 56.2768C53.8309 56.2737 53.9167 56.287 53.9969 56.3159C54.0772 56.3447 54.15 56.3884 54.2109 56.4443C54.2718 56.5002 54.3195 56.567 54.3509 56.6406C54.3823 56.7141 54.3968 56.7929 54.3935 56.8718C54.3902 56.9508 54.3691 57.0283 54.3316 57.0994C54.2941 57.1705 54.2409 57.2338 54.1755 57.2852L48.1942 62.772C48.1364 62.8261 48.0673 62.8692 47.9912 62.8988C47.915 62.9283 47.8332 62.9437 47.7505 62.944V62.944Z" fill="#093F68"/>
<path d="M32.6164 82.6668L20.9352 93.3996C14.5717 88.3654 9.50426 82.0994 6.09766 75.0529L15.1914 66.7109L31.3852 81.566L32.6164 82.6668Z" fill="#4C4C4C"/>
<path d="M20.9378 93.9724C20.7867 93.9738 20.6401 93.9249 20.5253 93.8348C14.0997 88.7345 8.97828 82.398 5.52527 75.276C5.47467 75.1701 5.46013 75.0527 5.48355 74.9391C5.50697 74.8256 5.56727 74.7212 5.65652 74.6396L14.7503 66.2976C14.8674 66.1908 15.0258 66.1309 15.1909 66.1309C15.356 66.1309 15.5144 66.1908 15.6315 66.2976L33.0503 82.2821C33.1667 82.3895 33.232 82.5348 33.232 82.6863C33.232 82.8378 33.1667 82.9831 33.0503 83.0905L21.3753 93.8061C21.2589 93.912 21.1017 93.9717 20.9378 93.9724V93.9724ZM6.85027 75.1728C10.1427 81.8305 14.9329 87.7742 20.9065 92.6136L31.7503 82.6662L15.2128 67.5016L6.85027 75.1728Z" fill="#093F68"/>
<path d="M65.0873 73.2123C66.8748 73.7111 69.4186 75.9757 73.4561 78.3723C77.4936 80.7688 84.8373 79.5533 84.8373 79.5533L88.0936 82.5404L102.087 69.7092C99.6998 67.4159 95.9623 62.6285 93.6498 59.2803C91.0311 55.4848 78.3748 44.2876 76.7186 42.8944C74.8436 41.3292 71.9623 42.3211 72.1123 44.4768C72.2311 46.128 74.2373 48.2723 75.1873 49.2068C73.7936 47.9053 69.8436 44.2819 67.9436 43.3244C65.6123 42.1777 64.3311 43.4276 63.3998 45.2451C63.1186 45.7897 63.3998 46.5408 63.9561 47.3263C63.4193 46.8173 62.8289 46.3583 62.1936 45.956C60.6436 45.1017 58.3873 45.6005 57.6873 47.8079C57.3186 48.9545 58.2123 50.2216 59.1311 51.1389C56.4811 49.1265 55.2748 49.3157 53.5748 50.8752C51.5561 52.7271 52.4873 53.1685 56.9936 57.2851L67.9436 67.3299C67.9436 67.3299 61.4186 65.7647 59.3686 66.0743C57.3186 66.3839 56.6811 67.972 58.1561 70.1793C59.6311 72.3867 63.2998 72.7135 65.0873 73.2123Z" fill="#FFC9B0"/>
<path d="M88.0984 83.1367C88.0162 83.1372 87.9346 83.1227 87.8585 83.0942C87.7824 83.0656 87.7131 83.0236 87.6547 82.9704L84.6172 80.1898C83.1047 80.4076 76.8609 81.1243 73.1109 78.8768C71.4359 77.8678 70.0359 76.9103 68.7984 76.0561C67.1547 74.9094 65.8484 74.0265 64.9047 73.7627C64.5672 73.671 64.1359 73.5792 63.6547 73.4818C61.6547 73.0575 58.9172 72.4727 57.6047 70.5062C56.4609 68.7862 56.6172 67.6395 56.9484 66.9745C57.1685 66.5762 57.4948 66.2354 57.8969 65.9838C58.299 65.7322 58.7639 65.578 59.2484 65.5354C60.6484 65.3232 63.7609 65.8736 65.9047 66.3151L56.5297 57.7151L55.2797 56.5684C52.9797 54.4872 51.9297 53.5355 51.9297 52.4634C51.9297 51.7467 52.4047 51.1562 53.1234 50.4969C54.5047 49.2298 55.6859 48.8342 57.1297 49.3502C56.9368 48.8162 56.9194 48.242 57.0797 47.699C57.2255 47.1575 57.5071 46.6548 57.9021 46.2308C58.2971 45.8068 58.7944 45.4732 59.3547 45.2566C59.8632 45.0813 60.4083 45.0134 60.9493 45.0581C61.4904 45.1028 62.0135 45.2588 62.4797 45.5146C62.5297 45.5146 62.5797 45.5719 62.6297 45.6006C62.6453 45.402 62.7004 45.2077 62.7922 45.0273C63.2672 44.1099 64.0422 42.8428 65.3797 42.4415C65.8551 42.3241 66.3519 42.2991 66.8384 42.3682C67.3249 42.4373 67.7903 42.599 68.2047 42.8428C69.4206 43.5506 70.5574 44.3668 71.5984 45.2795C71.5184 45.0391 71.4702 44.7908 71.4547 44.5399C71.3989 43.9905 71.5307 43.4387 71.832 42.961C72.1332 42.4834 72.5889 42.1035 73.1359 41.8739C73.7891 41.6011 74.5164 41.5143 75.2239 41.6247C75.9314 41.7351 76.5866 42.0376 77.1047 42.4931C78.4109 43.5996 91.3859 55.0147 94.1359 58.9994C96.3984 62.2674 100.098 67.0261 102.505 69.3194C102.617 69.4263 102.68 69.5692 102.68 69.7178C102.68 69.8665 102.617 70.0094 102.505 70.1163L88.5109 82.9532C88.4037 83.0601 88.2563 83.1257 88.0984 83.1367ZM84.8359 79.003C84.9999 79.0036 85.157 79.0633 85.2734 79.1692L88.0984 81.755L101.223 69.715C98.2558 66.5298 95.5405 63.1538 93.0984 59.6128C90.5984 55.9492 78.2484 45.0043 76.2672 43.3417C75.9341 43.04 75.5095 42.8375 75.049 42.7608C74.5884 42.6841 74.1134 42.7366 73.6859 42.9117C73.366 43.0437 73.0996 43.265 72.9246 43.5439C72.7495 43.8228 72.6748 44.1453 72.7109 44.4654C72.7859 45.4916 73.8734 47.1314 75.6172 48.8399C75.6811 48.8927 75.7325 48.9569 75.7681 49.0287C75.8037 49.1005 75.8228 49.1783 75.8242 49.2571C75.8256 49.336 75.8092 49.4143 75.776 49.4871C75.7429 49.5598 75.6938 49.6256 75.6317 49.6802C75.5696 49.7347 75.4959 49.777 75.4153 49.8042C75.3346 49.8315 75.2486 49.8432 75.1628 49.8386C75.077 49.834 74.9931 49.8132 74.9164 49.7775C74.8397 49.7418 74.7719 49.692 74.7172 49.6311C73.5172 48.5131 69.4672 44.7807 67.6172 43.8462C67.3509 43.6808 67.0501 43.5679 66.7338 43.5146C66.4176 43.4613 66.0927 43.4688 65.7797 43.5366C65.1234 43.7315 64.5297 44.3794 63.9047 45.5146C63.7609 45.7955 63.9484 46.3517 64.4234 47.0397C64.5032 47.1582 64.5332 47.2993 64.5078 47.4367C64.4825 47.574 64.4034 47.6982 64.2855 47.786C64.1676 47.8738 64.0189 47.9192 63.8671 47.9137C63.7154 47.9083 63.571 47.8523 63.4609 47.7563C62.9622 47.278 62.4114 46.8476 61.8172 46.472C61.511 46.3022 61.1665 46.1989 60.8101 46.1701C60.4537 46.1413 60.0948 46.1877 59.7609 46.3058C59.3812 46.4584 59.0457 46.6903 58.7809 46.983C58.5161 47.2756 58.3295 47.6209 58.2359 47.9914C57.9359 48.9259 58.7734 50.021 59.5297 50.772C59.6365 50.8789 59.6951 51.0189 59.694 51.1638C59.6928 51.3087 59.6318 51.4479 59.5233 51.5532C59.4148 51.6586 59.2668 51.7223 59.1091 51.7316C58.9514 51.7409 58.7958 51.6951 58.6734 51.6034C56.1734 49.6999 55.3484 50.0267 53.9609 51.2995C53.3734 51.8384 53.1297 52.1824 53.1297 52.4462C53.1297 53.0195 54.2484 54.0572 56.1047 55.7428C56.4922 56.0926 56.9172 56.4767 57.3547 56.8895L68.3109 66.9343C68.4119 67.0243 68.4767 67.143 68.495 67.2711C68.5132 67.3992 68.4838 67.5291 68.4115 67.6399C68.3391 67.7507 68.2281 67.8359 68.0965 67.8816C67.9648 67.9273 67.8201 67.9309 67.6859 67.8918C65.9047 67.4675 60.9484 66.4126 59.3734 66.6476C59.093 66.6672 58.822 66.7489 58.5836 66.8857C58.3452 67.0225 58.1465 67.2104 58.0047 67.4331C57.7109 68.0064 57.9172 68.8894 58.5859 69.887C59.6297 71.4465 62.0734 71.9682 63.8547 72.3466C64.3359 72.4498 64.7922 72.5415 65.1672 72.6504C66.3234 72.9715 67.6672 73.8774 69.4484 75.1273C70.6984 75.9643 72.0484 76.9161 73.6984 77.9022C77.4797 80.1669 84.5484 79.003 84.6172 78.9915L84.8359 79.003Z" fill="#093F68"/>
<path d="M71.7482 63.3048C71.6655 63.3045 71.5837 63.2891 71.5075 63.2596C71.4313 63.2301 71.3623 63.187 71.3044 63.1328L58.6857 51.563C58.5693 51.4555 58.5039 51.3102 58.5039 51.1587C58.5039 51.0073 58.5693 50.862 58.6857 50.7545C58.7438 50.7008 58.8129 50.6582 58.889 50.6291C58.9652 50.5999 59.0469 50.585 59.1294 50.585C59.2119 50.585 59.2936 50.5999 59.3698 50.6291C59.4459 50.6582 59.5151 50.7008 59.5732 50.7545L72.1794 62.3244C72.2958 62.4318 72.3611 62.5772 72.3611 62.7286C72.3611 62.8801 72.2958 63.0254 72.1794 63.1328C72.0655 63.2395 71.9108 63.3012 71.7482 63.3048V63.3048Z" fill="#093F68"/>
<path d="M76.2302 59.1603C76.1479 59.1608 76.0664 59.1463 75.9902 59.1178C75.9141 59.0892 75.8448 59.0472 75.7864 58.9941L63.5114 47.751C63.446 47.6996 63.3929 47.6363 63.3553 47.5652C63.3178 47.4941 63.2968 47.4166 63.2934 47.3377C63.2901 47.2587 63.3046 47.18 63.336 47.1064C63.3675 47.0328 63.4151 46.966 63.476 46.9101C63.5369 46.8542 63.6098 46.8105 63.69 46.7817C63.7702 46.7529 63.856 46.7396 63.9421 46.7426C64.0282 46.7457 64.1126 46.765 64.1902 46.7994C64.2677 46.8338 64.3366 46.8826 64.3927 46.9426L76.6739 58.2029C76.7325 58.2562 76.779 58.3196 76.8107 58.3894C76.8425 58.4593 76.8588 58.5342 76.8588 58.6099C76.8588 58.6856 76.8425 58.7605 76.8107 58.8304C76.779 58.9003 76.7325 58.9637 76.6739 59.017C76.552 59.116 76.3928 59.1674 76.2302 59.1603Z" fill="#093F68"/>
<path d="M81.1729 55.2955C81.0903 55.2952 81.0084 55.2798 80.9323 55.2503C80.8561 55.2208 80.7871 55.1777 80.7292 55.1235L74.7479 49.6367C74.6456 49.527 74.592 49.3859 74.5981 49.2416C74.6042 49.0973 74.6694 48.9605 74.7807 48.8584C74.892 48.7562 75.0412 48.6964 75.1985 48.6909C75.3558 48.6853 75.5096 48.7344 75.6292 48.8283L81.6104 54.3151C81.7268 54.4225 81.7922 54.5678 81.7922 54.7193C81.7922 54.8708 81.7268 55.0161 81.6104 55.1235C81.495 55.2315 81.3378 55.2933 81.1729 55.2955Z" fill="#093F68"/>
<path d="M110.03 74.7544C106.76 81.6554 101.893 87.8216 95.7672 92.8259L95.3047 93.2043L85.8984 84.6043L88.0922 82.5919L102.086 69.7492L103.336 68.6025L110.03 74.7544Z" fill="#F56132"/>
<path d="M95.3052 93.7776C95.2229 93.778 95.1414 93.7636 95.0652 93.735C94.9891 93.7065 94.9198 93.6645 94.8614 93.6113L85.4552 84.9597C85.3388 84.8523 85.2734 84.707 85.2734 84.5555C85.2734 84.4041 85.3388 84.2587 85.4552 84.1513L87.6489 82.1389L87.7052 82.0931L102.874 68.1725C102.932 68.1188 103.001 68.0761 103.077 68.047C103.153 68.0179 103.235 68.0029 103.318 68.0029C103.4 68.0029 103.482 68.0179 103.558 68.047C103.634 68.0761 103.703 68.1188 103.761 68.1725L110.499 74.3531C110.587 74.4342 110.646 74.5376 110.67 74.65C110.693 74.7624 110.679 74.8786 110.63 74.9837C107.316 81.9549 102.397 88.1861 96.2114 93.2501L95.8989 93.5081L95.7427 93.6343C95.6224 93.7318 95.4657 93.7832 95.3052 93.7776V93.7776ZM86.7802 84.6043L95.3302 92.4131C101.275 87.5451 106.025 81.5751 109.268 74.8977L103.299 69.4224L88.5239 82.9817L88.4677 83.0276L86.7802 84.6043Z" fill="#093F68"/>
<path d="M74.2477 41.1111C73.3665 39.5975 73.3102 36.3467 72.3227 32.018C71.3352 27.6893 65.1852 23.8021 65.1852 23.8021V19.5996H45.3915C45.2915 22.7873 44.2665 28.578 43.3227 32.448C42.2477 36.8283 42.5665 52.9561 42.6602 55.0201C42.7727 57.3135 45.5727 58.5175 47.1352 56.8835C48.329 55.6393 48.5665 52.8243 48.6102 51.5457C48.6102 53.3689 48.6102 58.5003 49.1977 60.4095C49.9415 62.7487 51.8352 62.7028 53.8915 61.9976C54.5165 61.7912 54.879 61.0688 55.104 60.1687C55.0932 60.8739 55.156 61.5785 55.2915 62.2728C55.7352 63.8839 57.7102 64.9904 59.904 63.8839C61.0665 63.3105 61.3977 61.8428 61.454 60.5987C61.779 63.7348 62.779 64.3884 65.204 64.3884C68.0602 64.3884 67.704 63.4825 67.704 57.6345V43.4044C67.704 43.4044 71.1102 48.7421 72.7977 49.8487C74.4852 50.9552 76.1602 50.2557 76.8227 47.7331C77.4852 45.2104 75.1165 42.6189 74.2477 41.1111Z" fill="#FFC9B0"/>
<path d="M65.1787 64.9333C63.2225 64.9333 62.0537 64.4459 61.4287 63.1559C61.1534 63.6634 60.7178 64.0829 60.1787 64.3599C59.6583 64.6468 59.0721 64.8185 58.4667 64.8613C57.8614 64.9041 57.2534 64.8168 56.6912 64.6065C56.1892 64.4027 55.7446 64.0964 55.3915 63.7108C55.0383 63.3252 54.786 62.8707 54.6537 62.3819C54.6537 62.3303 54.6537 62.2787 54.6162 62.2157C54.4543 62.3406 54.2704 62.4394 54.0725 62.5081C53.035 62.8521 51.5037 63.2362 50.2537 62.6514C49.8265 62.4284 49.4553 62.1252 49.1645 61.7617C48.8737 61.3981 48.6699 60.9823 48.5662 60.5415C48.2548 59.251 48.081 57.9356 48.0475 56.6142C47.9117 56.833 47.7548 57.0403 47.5787 57.2334C47.1936 57.6568 46.6749 57.9603 46.094 58.102C45.513 58.2437 44.8985 58.2166 44.335 58.0246C43.6623 57.7949 43.0804 57.3852 42.6648 56.8485C42.2491 56.3118 42.0188 55.6728 42.0037 55.0146C41.8912 52.5321 41.6162 36.6393 42.6787 32.2934C43.6037 28.5151 44.635 22.7646 44.735 19.5597C44.735 19.4076 44.8008 19.2618 44.918 19.1543C45.0352 19.0467 45.1942 18.9863 45.36 18.9863H65.1475C65.3132 18.9863 65.4722 19.0467 65.5894 19.1543C65.7066 19.2618 65.7725 19.4076 65.7725 19.5597V23.4985C67.0225 24.3241 71.9787 27.8615 72.8975 31.8863C73.31 33.6866 73.5537 35.2747 73.7725 36.6737C74.0662 38.5485 74.2912 40.0277 74.76 40.8303C74.9287 41.117 75.16 41.461 75.385 41.8279C76.4725 43.4218 77.96 45.6119 77.3725 47.8594C76.86 49.8087 75.8662 50.5254 75.1162 50.7777C74.6534 50.9153 74.1604 50.9443 73.6822 50.8622C73.2041 50.7801 72.7559 50.5894 72.3787 50.3075C71.2225 49.545 69.4475 47.137 68.2725 45.4342V57.5946C68.2725 58.1679 68.2725 58.7413 68.2725 59.2286C68.2725 62.1927 68.2725 63.5458 67.4787 64.3083C66.985 64.8301 66.1975 64.9333 65.1787 64.9333ZM61.4287 59.9969C61.5842 59.9962 61.7344 60.0486 61.85 60.144C61.9655 60.2394 62.0382 60.371 62.0537 60.5129C62.36 63.4885 63.1912 63.7866 65.1787 63.7866C66.0037 63.7866 66.4287 63.7006 66.6537 63.5114C67.11 63.0871 67.1037 61.6423 67.085 59.2458C67.085 58.747 67.085 58.2023 67.085 57.6061V43.4046C67.0801 43.2752 67.1232 43.148 67.2072 43.0439C67.2912 42.9398 67.4111 42.8649 67.5475 42.8313C67.6795 42.799 67.8195 42.8073 67.9459 42.8549C68.0724 42.9025 68.1783 42.9869 68.2475 43.095C69.1787 44.5513 71.8725 48.5187 73.1662 49.3673C73.3803 49.5347 73.6352 49.6524 73.9094 49.7103C74.1835 49.7682 74.4689 49.7646 74.7412 49.6998C75.3975 49.4762 75.9225 48.7251 76.2162 47.5842C76.685 45.8069 75.36 43.8518 74.385 42.4242C74.1287 42.0401 73.8787 41.6789 73.6975 41.3578C73.1225 40.3774 72.8912 38.8867 72.5725 36.8285C72.36 35.441 72.1162 33.8758 71.71 32.1099C70.785 28.0507 64.8912 24.2897 64.835 24.2553C64.7513 24.202 64.6831 24.1308 64.6363 24.0479C64.5894 23.965 64.5654 23.8728 64.5662 23.7794V20.1731H46.0037C45.6374 24.3465 44.9482 28.4906 43.9412 32.5743C42.91 36.8113 43.1787 52.5378 43.3162 54.9917C43.3214 55.4212 43.4664 55.8395 43.7325 56.193C43.9987 56.5464 44.3739 56.8189 44.81 56.9754C45.1371 57.0848 45.4932 57.0983 45.8291 57.0141C46.1649 56.9299 46.464 56.7521 46.685 56.5053C47.4287 55.7313 47.935 53.8679 48.0037 51.5287C48.0037 51.3767 48.0696 51.2308 48.1868 51.1233C48.304 51.0158 48.463 50.9554 48.6287 50.9554C48.7945 50.9554 48.9535 51.0158 49.0707 51.1233C49.1879 51.2308 49.2537 51.3767 49.2537 51.5287C49.2537 53.0997 49.2537 58.3629 49.8162 60.2262C49.8762 60.5156 50.0011 60.7903 50.1829 61.0331C50.3647 61.2759 50.5996 61.4814 50.8725 61.6366C51.4975 61.9233 52.41 61.8602 53.6975 61.4359C54.0225 61.327 54.3225 60.811 54.51 60.0198C54.5266 59.8677 54.6083 59.728 54.7372 59.6312C54.8662 59.5344 55.0317 59.4886 55.1975 59.5038C55.3632 59.519 55.5156 59.594 55.6211 59.7123C55.7266 59.8305 55.7766 59.9824 55.76 60.1345C55.743 60.7973 55.7995 61.4601 55.9287 62.1125C56.0165 62.4301 56.1812 62.7255 56.4106 62.9766C56.64 63.2277 56.9282 63.4282 57.2537 63.563C57.6407 63.7013 58.0576 63.7547 58.471 63.7189C58.8845 63.6831 59.2831 63.559 59.635 63.3566C60.5662 62.8922 60.8162 61.5735 60.885 60.553C60.885 60.4009 60.9508 60.2551 61.068 60.1476C61.1852 60.0401 61.3442 59.9797 61.51 59.9797L61.4287 59.9969Z" fill="#093F68"/>
<path d="M61.457 61.1434C61.2913 61.1434 61.1323 61.083 61.0151 60.9755C60.8979 60.8679 60.832 60.7221 60.832 60.5701V44.2071C60.832 44.0551 60.8979 43.9092 61.0151 43.8017C61.1323 43.6942 61.2913 43.6338 61.457 43.6338C61.6228 43.6338 61.7818 43.6942 61.899 43.8017C62.0162 43.9092 62.082 44.0551 62.082 44.2071V60.5701C62.082 60.7221 62.0162 60.8679 61.899 60.9755C61.7818 61.083 61.6228 61.1434 61.457 61.1434V61.1434Z" fill="#093F68"/>
<path d="M55.1055 60.7134C54.9397 60.7134 54.7807 60.653 54.6635 60.5455C54.5463 60.4379 54.4805 60.2921 54.4805 60.1401V44.2071C54.4805 44.0551 54.5463 43.9092 54.6635 43.8017C54.7807 43.6942 54.9397 43.6338 55.1055 43.6338C55.2712 43.6338 55.4302 43.6942 55.5474 43.8017C55.6646 43.9092 55.7305 44.0551 55.7305 44.2071V60.1401C55.7305 60.2921 55.6646 60.4379 55.5474 60.5455C55.4302 60.653 55.2712 60.7134 55.1055 60.7134V60.7134Z" fill="#093F68"/>
<path d="M48.625 52.0912C48.4592 52.0912 48.3003 52.0308 48.1831 51.9233C48.0658 51.8158 48 51.67 48 51.5179V43.755C48 43.6029 48.0658 43.4571 48.1831 43.3496C48.3003 43.242 48.4592 43.1816 48.625 43.1816C48.7908 43.1816 48.9497 43.242 49.0669 43.3496C49.1842 43.4571 49.25 43.6029 49.25 43.755V51.5179C49.25 51.67 49.1842 51.8158 49.0669 51.9233C48.9497 52.0308 48.7908 52.0912 48.625 52.0912Z" fill="#093F68"/>
<path d="M68.2875 2.81328V19.6005H43.625V3.63888C48.319 2.51895 53.1499 1.95442 58 1.95901C61.4502 1.96007 64.8932 2.24598 68.2875 2.81328Z" fill="#FFCC4D"/>
<path d="M68.2878 20.1733H43.6253C43.4596 20.1733 43.3006 20.1129 43.1834 20.0054C43.0662 19.8979 43.0003 19.7521 43.0003 19.6V3.63839C42.9958 3.5082 43.0398 3.38047 43.125 3.27626C43.2102 3.17205 43.3316 3.09756 43.4691 3.06506C51.6075 1.13636 60.1056 0.852708 68.3753 2.23373C68.5209 2.25815 68.6523 2.32918 68.7462 2.43417C68.84 2.53916 68.8902 2.6713 68.8878 2.80706V19.6C68.8879 19.7482 68.8255 19.8906 68.7137 19.9975C68.6018 20.1044 68.4492 20.1674 68.2878 20.1733ZM44.2503 19.0267H67.6378V3.2944C59.8668 2.06381 51.9014 2.33328 44.2503 4.08559V19.0267Z" fill="#093F68"/>
</svg>
