<svg width="268" height="271" viewBox="0 0 268 271" fill="none" xmlns="http://www.w3.org/2000/svg">
<path d="M182.549 30.1347C171.912 30.6663 162.027 34.3352 154.512 40.5265C153.069 41.7251 150.544 44.2892 149.42 45.7068C147.07 48.6878 145.297 51.8876 144.225 55.1084C141.329 63.7595 142.586 72.6191 147.823 80.4156C149.606 83.0839 152.348 86.0336 155.007 88.1704C155.811 88.8166 156.471 89.3795 156.471 89.4107C156.471 89.442 155.677 91.9748 154.698 95.0496C152.956 100.532 152.925 100.657 152.925 101.522C152.946 103.419 154.059 105.024 155.852 105.733C156.533 106.004 157.728 106.067 158.502 105.858C158.873 105.765 162.841 103.92 167.706 101.574L176.262 97.4573L177.22 97.6137C181.519 98.3016 186.559 98.4163 191.043 97.916C205.639 96.3004 218.142 88.7645 224.079 78.0079C228.398 70.1801 228.872 61.1538 225.398 53.0029C221.368 43.5283 212.132 35.8778 200.433 32.3131C196.29 31.0519 192.228 30.3536 187.652 30.1243C185.384 30.0096 184.91 30.0096 182.549 30.1347ZM190.126 36.2218C198.598 37.1703 205.948 40.0783 211.823 44.7999C213.05 45.7901 215.689 48.4376 216.606 49.6154C221.244 55.5253 222.904 62.5817 221.244 69.3255C219.121 77.9766 211.658 85.5333 201.412 89.4107C193.692 92.3292 185.456 93.0588 176.952 91.5579L175.427 91.2869L167.593 95.06C163.284 97.1342 159.738 98.8123 159.718 98.7915C159.697 98.7706 160.512 96.1336 161.522 92.9233C162.542 89.7234 163.377 87.0447 163.377 86.9717C163.377 86.8988 162.882 86.5235 162.274 86.1275C159.749 84.5119 157.749 82.8963 155.883 80.9785C152.904 77.9141 150.967 74.8497 149.761 71.2954C146.895 62.8631 149.194 54.0244 156.079 47.1035C162.326 40.8079 171.623 36.8367 181.921 36.0654C183.621 35.9403 188.425 36.0237 190.126 36.2218Z" fill="black"/>
<path d="M169.355 58.0685C169.355 58.131 169.592 59.1421 169.87 60.3303C170.159 61.5081 170.375 62.5087 170.365 62.5504C170.344 62.5921 169.571 61.9042 168.644 61.0182C167.716 60.1322 166.922 59.4131 166.891 59.4131C166.757 59.4131 165.211 62.2481 165.304 62.3315C165.345 62.3732 166.396 62.7067 167.633 63.0716L169.88 63.7282L167.613 64.4161C166.366 64.7914 165.314 65.1249 165.283 65.1666C165.242 65.2083 165.335 65.4689 165.489 65.7399C165.654 66.0109 166.025 66.6779 166.335 67.2095L166.891 68.1684L168.613 66.5112C169.561 65.5939 170.344 64.8643 170.365 64.8747C170.375 64.8956 170.159 65.9066 169.87 67.1261C169.592 68.3456 169.355 69.3879 169.355 69.4401C169.355 69.4817 170.097 69.5234 171.004 69.5234C172.251 69.5234 172.653 69.4922 172.653 69.3984C172.653 69.3254 172.416 68.2831 172.128 67.0949C171.839 65.8962 171.622 64.906 171.643 64.8852C171.664 64.8643 172.437 65.5731 173.364 66.4591C174.302 67.345 175.096 68.0538 175.148 68.0434C175.189 68.0225 175.591 67.3763 176.044 66.605C176.57 65.6982 176.818 65.177 176.735 65.1353C176.673 65.0936 175.694 64.8018 174.56 64.4682C173.426 64.1347 172.437 63.8324 172.375 63.8012C172.303 63.7595 173.241 63.4259 174.467 63.0611C175.684 62.6963 176.704 62.3628 176.735 62.3107C176.797 62.2169 175.24 59.4131 175.127 59.4131C175.086 59.4131 174.292 60.1427 173.375 61.0286C172.457 61.925 171.684 62.6338 171.664 62.6234C171.653 62.6025 171.87 61.6123 172.148 60.4241C172.426 59.2254 172.653 58.1831 172.653 58.0997C172.653 57.9851 172.354 57.9538 171.004 57.9538C169.901 57.9538 169.355 57.9955 169.355 58.0685Z" fill="black"/>
<path d="M183.592 58.3395C183.643 58.5584 183.89 59.6007 184.148 60.6534C184.406 61.7061 184.602 62.5817 184.581 62.6025C184.571 62.6234 183.787 61.9146 182.86 61.0286C181.922 60.1427 181.128 59.4131 181.087 59.4131C181.015 59.4131 179.427 62.1752 179.438 62.2898C179.448 62.3315 180.458 62.6651 181.685 63.0299C182.911 63.3842 183.942 63.6969 183.963 63.7178C183.973 63.7386 183.004 64.0513 181.808 64.4057C180.602 64.7705 179.561 65.0936 179.489 65.1353C179.376 65.1979 180.901 67.9808 181.097 68.0434C181.149 68.0642 181.942 67.345 182.86 66.4486C183.787 65.5627 184.55 64.8435 184.571 64.8643C184.591 64.8747 184.354 65.9379 184.055 67.2095L183.509 69.5234H185.2C186.117 69.5234 186.88 69.4922 186.88 69.4401C186.88 69.3984 186.632 68.3456 186.323 67.0949C186.024 65.8545 185.797 64.8331 185.828 64.8331C185.849 64.8331 186.622 65.5627 187.55 66.4486C188.467 67.3346 189.261 68.0642 189.312 68.0642C189.457 68.0642 191.034 65.2396 190.931 65.1457C190.889 65.1041 189.92 64.8018 188.787 64.4682C187.653 64.1451 186.663 63.8429 186.591 63.8012C186.519 63.7595 187.426 63.4364 188.653 63.0716C189.859 62.7067 190.889 62.3732 190.931 62.3315C191.023 62.2586 189.457 59.4131 189.323 59.4131C189.271 59.4131 188.488 60.1427 187.57 61.0286C186.653 61.9146 185.89 62.6234 185.88 62.6025C185.859 62.5817 186.076 61.5602 186.364 60.3303C186.643 59.1004 186.88 58.0581 186.88 58.0164C186.88 57.9851 186.117 57.9538 185.189 57.9538H183.499L183.592 58.3395Z" fill="black"/>
<path d="M197.7 58.0059C197.7 58.0372 197.906 58.9232 198.164 59.9655C198.422 61.0078 198.669 62.0397 198.721 62.2586L198.813 62.6442L198.576 62.467C198.442 62.3628 197.659 61.6227 196.824 60.8306C195.793 59.83 195.288 59.4131 195.216 59.486C194.979 59.7257 193.587 62.2794 193.66 62.3419C193.701 62.3836 194.659 62.6755 195.783 63.009C196.917 63.3321 197.927 63.6344 198.04 63.6761C198.164 63.7282 197.494 63.9679 195.979 64.4161C194.742 64.7809 193.701 65.1041 193.66 65.1457C193.618 65.177 193.959 65.8754 194.422 66.6884L195.268 68.1684L195.896 67.5743C196.237 67.2408 197.041 66.4591 197.69 65.8232C198.329 65.1979 198.824 64.7705 198.793 64.8852C198.762 64.9998 198.525 66.0109 198.267 67.1261C198.009 68.2414 197.772 69.242 197.741 69.3358C197.69 69.513 197.814 69.5234 199.401 69.5234C200.988 69.5234 201.112 69.513 201.061 69.3358C201.03 69.242 200.793 68.2622 200.535 67.1782C200.277 66.0838 200.04 65.1041 199.999 64.9894C199.927 64.7601 200.421 65.177 202.318 66.9906L203.534 68.158L204.318 66.7822C204.751 66.0213 205.122 65.3438 205.142 65.2708C205.173 65.1457 203.802 64.6871 200.947 63.8846C200.535 63.7699 200.545 63.7595 202.854 63.0611C204.297 62.6234 205.163 62.3107 205.142 62.2377C205.132 62.1647 204.761 61.4768 204.328 60.7055L203.534 59.3088L202.699 60.1114C202.246 60.5596 201.473 61.3205 200.978 61.8104C200.473 62.2898 200.071 62.6338 200.071 62.5504C200.071 62.4253 200.937 58.5584 201.061 58.131C201.112 57.9642 200.988 57.9538 199.411 57.9538C198.473 57.9538 197.7 57.9747 197.7 58.0059Z" fill="black"/>
<path d="M88.2841 49.9471C87.6656 49.9888 86.1813 50.1556 84.9856 50.2911C83.8002 50.437 81.8727 50.6768 80.7079 50.8123C78.3475 51.0937 76.2447 51.2813 75.3376 51.2813C74.9975 51.2813 74.7295 51.323 74.7295 51.3751C74.7295 51.4168 74.3481 51.4898 73.8842 51.5314C69.5447 51.8963 65.3289 52.7093 62.0819 53.8245C55.8458 55.9508 51.4444 59.3279 48.4036 64.2997C47.1873 66.2905 46.239 68.4481 44.7856 72.5444C43.023 77.4953 42.219 79.0171 39.5905 82.3838C32.9112 90.9307 30.8599 94.5788 29.9425 99.4985C29.7982 100.291 29.5612 101.448 29.4169 102.063C29.0458 103.709 28.5922 106.544 28.3861 108.556C28.1387 110.985 28.1284 115.936 28.3758 118.197C28.8602 122.544 29.757 126.119 31.2104 129.486C32.5195 132.498 33.7667 134.405 36.9105 138.21C42.2293 144.651 44.0744 147.622 45.3938 151.812C46.1565 154.23 46.3318 155.627 46.3215 159.056C46.3112 165.06 44.9196 172.804 42.5901 179.798C41.0955 184.28 39.0855 188.459 37.6115 190.158C37.3744 190.429 37.2095 190.669 37.2301 190.7C37.2919 190.763 96.7982 224.627 96.9529 224.69C97.025 224.721 97.0869 224.221 97.1384 223.137C97.2518 220.531 97.6847 218.426 98.8392 214.955C100.488 209.973 103.715 202.551 106.652 196.954C107.992 194.401 108.889 192.608 109.807 190.69C110.641 188.918 111.095 188.293 111.786 187.938L112.291 187.667L116.012 187.594C122.248 187.469 125.309 187.25 128.701 186.677C130.721 186.333 131.669 186.01 132.958 185.207C134.957 183.967 136.235 182.08 136.586 179.871C136.751 178.818 136.648 176.692 136.38 175.504C136.215 174.763 136.091 174.492 135.751 174.055C134.05 171.887 134.432 169.938 137.132 166.988C137.947 166.091 138.153 165.8 138.287 165.351C138.565 164.382 138.245 163.663 136.947 162.308C135.493 160.776 134.586 160.15 131.649 158.608C130.669 158.097 129.886 157.659 129.907 157.638C129.927 157.618 130.515 157.67 131.226 157.753C131.927 157.836 133.153 157.982 133.947 158.076C135.916 158.305 137.916 158.232 139.256 157.878C140.4 157.576 141.863 156.971 142.286 156.627C142.698 156.294 142.678 155.981 142.162 154.824C141.626 153.636 141.431 152.823 141.348 151.437C141.297 150.478 141.317 150.228 141.513 149.571C141.709 148.925 141.833 148.716 142.327 148.216C143.276 147.267 144.409 146.944 147.193 146.809C148.481 146.746 148.636 146.715 149.244 146.413C149.615 146.225 150.151 145.86 150.45 145.579C151.604 144.516 151.996 143.453 151.903 141.649C151.8 139.732 151.718 139.523 148.027 132.06C142.935 121.762 142.121 119.792 141.812 116.957C141.699 115.904 141.709 115.8 141.967 114.706C142.564 112.121 142.935 109.098 142.832 107.514C142.74 106.211 142.296 104.533 141.389 102.094C140.338 99.2587 140.348 99.3108 140.379 97.6119C140.42 95.2146 139.926 92.5984 138.771 89.1171C137.905 86.48 136.163 82.217 135.071 80.0282C134.772 79.4236 134.761 79.3194 135.04 79.3194C135.885 79.3194 137.813 77.6204 138.627 76.1612C139.709 74.2121 140.173 71.6272 139.709 70.0324C139.183 68.198 137.225 66.1759 134.215 64.3414C132.03 63.0177 129.123 61.7044 126.412 60.8288C121.681 59.2967 120.238 58.8068 118.434 58.0667C115.672 56.9515 110.301 54.5229 108.796 53.7307C105.003 51.7086 100.849 50.4579 96.4065 49.9784C94.8295 49.8116 90.2013 49.7908 88.2841 49.9471Z" fill="black"/>
<path d="M183.993 106.535C178.139 107.067 172.634 110.361 168.614 115.781C161.481 125.37 159.915 140.098 164.78 151.834C165.027 152.439 165.233 152.949 165.233 152.96C165.233 152.97 163.44 154.7 161.244 156.795C157.018 160.819 156.76 161.111 156.41 162.341C155.946 164.008 156.699 166.051 158.142 167C159.245 167.729 159.255 167.729 163.12 167.844C165.048 167.896 180.468 167.948 197.393 167.959C222.699 167.969 228.296 167.948 228.935 167.833C232.491 167.187 235.346 165.916 238.366 163.612C239.572 162.695 241.943 160.235 242.984 158.838C246.613 153.929 248.715 148.311 249.509 141.39C249.715 139.618 249.746 135.355 249.561 133.625C248.829 126.569 246.736 120.784 243.108 115.854C239.036 110.309 233.594 107.057 227.492 106.525C226.038 106.4 185.426 106.41 183.993 106.535ZM228.78 112.643C230.687 113.102 232.604 113.977 234.233 115.145C236.047 116.458 238.48 119.199 239.758 121.399C245.108 130.55 245.242 143.172 240.098 152.491C237.253 157.64 233.12 160.975 228.368 161.944C227.482 162.122 226.183 162.132 201.259 162.111C186.859 162.101 172.676 162.059 169.738 162.007L164.388 161.924L167.367 159.099C168.996 157.535 170.573 156.014 170.861 155.711C171.562 154.961 171.768 154.388 171.707 153.408C171.665 152.73 171.583 152.501 171.006 151.344C169.027 147.352 167.996 143.068 167.841 138.211C167.511 127.621 172.212 117.74 179.376 113.977C180.953 113.154 182.488 112.664 184.251 112.435C184.426 112.414 194.301 112.393 206.206 112.404L227.853 112.424L228.78 112.643Z" fill="black"/>
<path d="M190.792 133.062C187.947 133.834 186.803 137.232 188.565 139.66C189.411 140.828 191.06 141.495 192.472 141.245C193.431 141.088 194.193 140.682 194.802 140.036C195.441 139.358 195.801 138.639 195.956 137.753C196.461 134.793 193.699 132.281 190.792 133.062Z" fill="black"/>
<path d="M204.295 133.061C201.811 133.739 200.523 136.647 201.677 138.971C202.492 140.587 204.347 141.556 206.048 141.254C207.718 140.951 208.975 139.794 209.387 138.158C210.202 135.031 207.398 132.217 204.295 133.061Z" fill="black"/>
<path d="M217.9 133.03C216.684 133.385 215.725 134.187 215.2 135.271C214.88 135.928 214.859 136.022 214.859 137.116C214.859 138.158 214.88 138.315 215.148 138.857C215.777 140.149 216.89 140.994 218.292 141.244C220.632 141.661 222.889 139.816 223.033 137.377C223.136 135.563 222.25 134.062 220.621 133.291C219.838 132.926 218.663 132.811 217.9 133.03Z" fill="black"/>
<path d="M150.813 174.639C149.412 175.035 148.247 176.015 147.587 177.37C147.206 178.152 147.154 178.34 147.113 179.153C147.072 180.039 147.092 180.143 147.999 183.343C148.515 185.146 148.968 186.751 148.999 186.907C149.061 187.168 149.02 187.21 148.515 187.47C145.381 189.075 143.124 192.035 142.124 195.85L141.887 196.736L141.856 214.82C141.825 231.195 141.846 232.998 142 233.947C142.856 239.242 146.824 243.369 151.916 244.266C153.225 244.495 203.63 244.495 204.929 244.266C208.743 243.598 212.082 240.972 213.773 237.324C214.185 236.448 214.608 235.114 214.834 234.009C214.999 233.207 215.082 199.332 214.917 197.654C214.731 195.621 214.175 193.818 213.226 192.202C211.454 189.159 208.475 187.022 205.104 186.355C204.125 186.167 203.393 186.157 187.261 186.157H170.439L169.872 185.771C169.563 185.563 166.017 183.092 161.997 180.289C157.977 177.485 154.39 175.046 154.019 174.869C153.452 174.598 153.205 174.546 152.36 174.514C151.69 174.493 151.184 174.535 150.813 174.639ZM161.709 187.283L168.44 191.994L186.138 192.015C203.012 192.046 203.867 192.056 204.403 192.244C206.351 192.901 207.846 194.276 208.609 196.111C209.176 197.487 209.155 196.82 209.124 215.706L209.093 233.113L208.794 233.988C208.062 236.104 206.537 237.616 204.403 238.345C203.857 238.522 202.826 238.533 178.995 238.564C162.657 238.585 153.885 238.554 153.359 238.491C150.813 238.147 148.762 236.417 147.989 233.947L147.762 233.217V215.237V197.257L148.041 196.497C148.742 194.537 150.185 193.047 151.978 192.4C152.308 192.286 153.432 192.067 154.473 191.921C155.864 191.723 156.369 191.608 156.369 191.504C156.369 191.431 155.771 189.232 155.029 186.626C154.297 184.02 153.689 181.842 153.689 181.779C153.689 181.717 153.978 181.873 154.339 182.123C154.689 182.384 158.008 184.698 161.709 187.283Z" fill="black"/>
<path d="M158.219 214.559V220.031H163.63H169.042V214.559V209.087H163.63H158.219V214.559Z" fill="black"/>
<path d="M173.062 214.559V220.031H178.474H183.886V214.559V209.087H178.474H173.062V214.559Z" fill="black"/>
<path d="M187.703 214.559V220.031H193.166H198.629V214.559V209.087H193.166H187.703V214.559Z" fill="black"/>
</svg>
