<svg width="270" height="292" viewBox="0 0 270 292" fill="none" xmlns="http://www.w3.org/2000/svg">
<path d="M90.6039 61.7342C89.7628 61.8465 88.1428 62.2733 87.1978 62.6215C81.642 64.7216 77.6958 69.6295 76.4081 76.031C76.2108 77.0418 76.1797 77.5359 76.1797 79.5125C76.1797 82.1068 76.3251 83.1288 77.0105 85.2515C78.6824 90.4962 82.5143 94.6292 87.2808 96.3475C90.9051 97.6502 94.2697 97.6615 97.8212 96.4036C104.789 93.9328 109.473 86.5767 109.109 78.659C108.715 70.2472 103.034 63.2953 95.3912 61.8802C94.2489 61.6668 91.6528 61.5882 90.6039 61.7342Z" fill="black"/>
<path d="M110.278 63.7336C117.122 72.7182 117.35 85.2855 110.829 94.4498C110.455 94.9776 109.572 96.0445 108.866 96.8195L107.578 98.2345L108.388 98.7175C111.14 100.346 113.778 102.637 115.751 105.141C117.371 107.185 117.859 108.129 122.335 117.821L126.592 127.019H126.987C127.569 127.019 132.013 126.592 132.065 126.525C132.086 126.502 133.675 120.191 135.585 112.52C137.496 104.838 139.158 98.2233 139.282 97.819C140.248 94.5958 142.626 92.1811 145.721 91.2827C146.79 90.9795 148.764 90.9458 149.927 91.2378C152.865 91.9341 155.316 94.2139 156.438 97.2799C157.05 98.9533 157.196 101.155 156.822 102.985C156.708 103.513 155.057 110.251 153.125 117.967C151.204 125.683 149.615 132.129 149.584 132.297C149.542 132.511 149.636 132.859 149.885 133.432C150.737 135.352 151.048 137.014 150.965 139.204C150.861 142.012 150.124 144.123 148.338 146.751L148.172 147.01H179.751H211.331V104.894V62.779H160.436H109.551L110.278 63.7336Z" fill="black"/>
<path d="M147.067 98.1447C146.434 98.3806 145.8 98.987 145.551 99.5935C145.457 99.8293 143.516 107.489 141.241 116.619L137.108 133.241L136.599 133.218C136.319 133.207 133.1 133.465 129.444 133.802C125.789 134.139 122.788 134.398 122.777 134.398C122.777 134.386 120.503 129.445 117.741 123.425C112.196 111.375 111.936 110.869 110.139 108.848C106.899 105.209 102.631 102.907 97.1482 101.851C95.9021 101.604 95.5178 101.581 92.1117 101.581C88.3005 101.581 87.8851 101.615 85.5278 102.154C82.0075 102.951 78.3521 104.793 75.6936 107.118C74.624 108.05 73.1909 109.701 72.3913 110.914C71.8825 111.689 69.1409 117.518 60.0232 137.239C53.5848 151.165 48.2159 162.868 48.0913 163.227C46.9698 166.506 48.7144 170.078 51.8298 170.875C53.6782 171.347 55.3813 170.797 56.7832 169.292L57.5413 168.483L65.8386 150.469L74.1359 132.466L74.1463 135.184V137.913L69.2032 160.341C66.389 173.155 64.2498 183.117 64.2082 183.566C64.0317 186.093 65.579 188.53 67.9051 189.372C68.5594 189.608 68.7878 189.619 73.0351 189.664L77.4694 189.698V209.554C77.4694 231.297 77.4278 229.938 78.0821 231.33C79.079 233.464 81.3117 234.722 83.5236 234.385C85.6005 234.059 87.2101 232.543 87.9163 230.23C88.1032 229.646 88.1136 228.691 88.1448 209.644L88.1655 189.687H92.1117H96.0578V209.655C96.0578 227.692 96.0786 229.691 96.224 230.241C96.4836 231.196 96.8367 231.847 97.5117 232.622C99.1525 234.52 101.666 234.958 103.898 233.745C105.092 233.082 106.245 231.409 106.536 229.915C106.619 229.489 106.65 223.536 106.65 209.509V189.698L111.147 189.664C115.384 189.619 115.664 189.608 116.204 189.383C117.242 188.968 117.699 188.653 118.385 187.901C119.486 186.699 120.015 185.228 119.911 183.622C119.88 183.049 118.302 175.659 114.916 160.318L109.973 137.857L109.984 135.161V132.466L112.621 138.149C115.103 143.495 115.301 143.876 115.872 144.505C116.858 145.572 118.25 146.224 119.527 146.224C119.828 146.224 123.722 145.898 128.188 145.494C134.844 144.887 136.776 144.674 138.946 144.303C141.916 143.798 142.082 143.73 143.038 142.686C144.575 140.99 144.98 138.452 144.045 136.341C143.9 136.004 143.464 135.375 143.09 134.937L142.404 134.151L146.486 117.81C149.186 106.983 150.567 101.278 150.567 100.907C150.577 99.9866 150.401 99.5036 149.809 98.8747C149.414 98.4367 149.134 98.2458 148.718 98.111C148.002 97.8864 147.752 97.8864 147.067 98.1447Z" fill="black"/>
<path d="M121.811 153.041C120.866 153.131 120.077 153.232 120.056 153.254C120.025 153.288 120.565 155.848 121.25 158.948L122.486 164.586H170.671H218.855L218.886 158.712L218.907 152.85L171.221 152.861C130.337 152.872 123.275 152.906 121.811 153.041Z" fill="black"/>
</svg>
