<svg width="527" height="437" viewBox="0 0 527 437" fill="none" xmlns="http://www.w3.org/2000/svg">
<path d="M386.57 245.392C386.528 252.304 386.443 259.258 386.401 266.17C386.401 267.877 386.358 269.584 386.358 271.248C386.358 272.4 386.104 273.85 386.57 274.96C387.291 276.837 389.706 276.325 390.596 277.904C390.681 277.605 390.765 277.306 390.808 277.008C387.714 278.544 386.909 282 386.655 285.2C386.443 288.272 386.316 293.221 390.299 293.818C390.257 293.434 390.214 293.05 390.13 292.666C384.112 295.44 386.528 306.277 389.07 310.629C390.935 313.829 393.689 316.432 396.528 318.736C398.139 320.058 399.749 321.296 401.401 322.576C402.376 323.344 403.351 324.069 404.283 324.837C404.791 325.221 406.953 326.416 407.037 327.141C407.207 326.928 407.334 326.714 407.503 326.544C407.546 326.544 407.546 326.544 407.588 326.544C407.673 326.842 407.758 327.141 407.8 327.44C407.842 327.397 407.842 327.354 407.885 327.312C408.224 326.586 407.164 325.946 406.783 326.672C406.741 326.714 406.741 326.757 406.698 326.8C406.529 327.141 406.614 327.44 406.91 327.696C407.207 327.952 407.419 327.952 407.8 327.824C408.054 327.738 408.309 327.482 408.266 327.226C408.097 325.904 406.783 325.306 405.766 324.538C404.283 323.344 402.757 322.192 401.274 320.997C398.478 318.821 395.638 316.645 393.223 314.085C390.511 311.226 388.647 307.898 388.096 303.93C387.63 300.688 387.206 295.482 390.765 293.818C391.231 293.605 391.147 292.709 390.596 292.666C387.206 292.154 387.672 287.29 387.926 284.688C388.18 282.128 388.901 279.44 391.401 278.202C391.698 278.032 391.782 277.605 391.613 277.306C390.723 275.77 388.562 276.069 387.757 274.704C387.121 273.68 387.545 271.29 387.587 270.053C387.587 268.346 387.63 266.64 387.63 264.976C387.672 258.49 387.714 251.962 387.799 245.477C387.841 244.581 386.57 244.538 386.57 245.392Z" fill="#E8E8E8"/>
<path d="M387.251 245.734C393.183 246.032 397.336 250.598 400.896 254.864C402.591 256.912 404.371 258.832 406.108 260.752C407.888 262.672 410.218 266.555 406.998 268.432C406.447 268.774 406.701 269.627 407.337 269.627C412.252 269.755 414.413 275.771 415.939 279.568C417.761 284.176 419.202 288.912 420.261 293.734C422.422 303.632 422.846 313.83 421.617 323.856C421.532 324.667 422.804 324.667 422.888 323.856C424.202 312.678 423.524 301.328 420.77 290.448C419.498 285.328 417.803 280.166 415.515 275.387C413.905 271.974 411.405 268.432 407.337 268.347C407.464 268.731 407.549 269.158 407.676 269.542C413.862 265.958 406.193 259.131 403.692 256.187C399.243 250.982 394.751 244.795 387.293 244.411C386.446 244.411 386.446 245.691 387.251 245.734Z" fill="#E8E8E8"/>
<path d="M408.523 261.091C411.489 250.51 415.642 240.313 420.981 230.713C420.685 230.798 420.388 230.883 420.092 230.926C421.236 231.609 422.422 232.291 423.566 232.974C424.159 233.315 424.71 232.633 424.456 232.078C421.405 225.934 430.558 222.009 433.652 218.339C433.397 218.382 433.143 218.425 432.889 218.425C433.482 218.766 434.118 219.107 434.711 219.449C435.008 219.619 435.389 219.534 435.601 219.235C438.991 213.433 444.966 210.19 450.729 207.203C450.432 206.947 450.093 206.734 449.796 206.478C447.974 212.494 450.856 219.065 451.407 225.081C451.703 228.323 451.746 231.609 451.491 234.894C451.364 236.515 451.491 238.947 450.856 240.398C450.856 241.465 450.262 242.062 449.034 242.275C448.652 242.318 448.313 242.361 447.932 242.403C447.084 242.489 446.195 242.574 445.347 242.659C445.008 242.702 444.669 242.915 444.711 243.299C444.754 244.153 445.008 244.409 445.644 244.963C446.449 245.646 447.084 245.731 447.466 246.926C447.678 247.566 447.678 248.291 447.678 248.931C447.635 252.387 447.127 255.929 446.533 259.342C445.94 262.67 445.093 265.955 444.076 269.155C443.186 271.843 441.999 275.854 438.694 276.281C438.27 276.323 437.847 276.793 438.143 277.262C440.601 281.059 436.957 285.667 435.177 288.953C433.228 292.451 431.448 296.035 429.795 299.662C426.49 306.873 423.778 314.339 421.575 321.977C421.363 322.787 422.592 323.129 422.803 322.318C425.304 313.529 428.566 304.995 432.55 296.803C434.414 292.921 436.66 289.251 438.609 285.411C440.008 282.638 441.109 279.395 439.287 276.579C439.118 276.921 438.906 277.219 438.737 277.561C441.237 277.262 442.847 275.47 443.949 273.294C445.601 269.966 446.491 266.126 447.296 262.499C448.186 258.489 448.779 254.393 448.991 250.297C449.076 248.931 449.203 247.395 448.61 246.115C448.271 245.262 446.11 243.939 446.067 243.342C445.855 243.555 445.644 243.769 445.432 243.982C447.805 243.726 451.195 244.323 452 241.593C453.059 238.179 453.017 233.955 452.975 230.457C452.975 226.702 452.593 222.99 451.915 219.321C451.152 215.182 449.796 211.043 451.068 206.862C451.237 206.307 450.601 205.881 450.135 206.137C444.16 209.251 438.016 212.622 434.541 218.638C434.838 218.553 435.135 218.467 435.431 218.425C434.838 218.083 434.202 217.742 433.609 217.401C433.397 217.273 433.016 217.273 432.846 217.486C429.287 221.71 419.922 225.721 423.439 232.761C423.736 232.462 424.032 232.163 424.329 231.865C423.185 231.182 421.998 230.499 420.854 229.817C420.558 229.646 420.134 229.731 419.964 230.03C414.625 239.758 410.388 250.041 407.379 260.707C407.04 261.561 408.269 261.902 408.523 261.091Z" fill="#E8E8E8"/>
<path d="M378.561 217.487C371.442 217.999 367.671 209.594 368.857 203.535C370.001 197.604 375.764 193.423 381.654 193.594C389.409 193.764 393.392 201.402 391.994 208.527C390.765 214.884 384.409 219.578 378.053 217.06C377.29 216.762 376.951 217.999 377.714 218.298C382.799 220.303 388.731 217.956 391.528 213.306C394.494 208.356 394.155 201.274 390.723 196.666C387.248 191.972 380.595 191.332 375.552 193.594C370.51 195.812 367.205 200.804 367.332 206.351C367.459 212.41 371.908 219.236 378.519 218.767C379.366 218.724 379.409 217.444 378.561 217.487Z" fill="#E8E8E8"/>
<path d="M443.615 123.75C441.157 128.358 438.318 132.71 435.097 136.806C434.589 137.446 435.479 138.342 435.987 137.702C439.292 133.52 442.216 129.083 444.716 124.39C445.098 123.664 443.996 123.024 443.615 123.75Z" fill="#E8E8E8"/>
<path d="M443.569 124.773C445.095 128.827 446.705 132.88 448.358 136.891C448.654 137.659 449.883 137.317 449.587 136.549C447.934 132.539 446.324 128.485 444.798 124.432C444.502 123.664 443.273 124.005 443.569 124.773Z" fill="#E8E8E8"/>
<path d="M443.267 125.371C442.97 141.243 440.936 157.03 437.165 172.433C436.953 173.243 438.182 173.585 438.394 172.774C442.208 157.243 444.242 141.371 444.538 125.371C444.581 124.518 443.309 124.518 443.267 125.371Z" fill="#E8E8E8"/>
<path d="M450.608 151.439C451.709 160.57 451.455 169.786 449.802 178.831C449.675 179.642 450.862 179.983 451.031 179.172C452.684 169.999 452.981 160.698 451.879 151.439C451.752 150.628 450.48 150.628 450.608 151.439Z" fill="#E8E8E8"/>
<path d="M445.732 169.187C447.215 172.601 449.8 175.715 449.969 179.555C450.012 180.195 450.817 180.451 451.156 179.897C452.639 177.294 454.165 174.691 455.648 172.089C456.071 171.363 454.97 170.723 454.546 171.449C453.063 174.051 451.537 176.654 450.054 179.257C450.436 179.385 450.859 179.47 451.241 179.598C451.071 175.459 448.402 172.259 446.834 168.59C446.495 167.779 445.393 168.419 445.732 169.187Z" fill="#E8E8E8"/>
<path d="M156.604 385.211C182.156 382.822 207.75 379.707 233.387 378.64C259.236 377.574 285.212 378.256 311.061 378.939C325.892 379.323 340.723 380.048 355.47 381.456C356.275 381.542 356.275 380.262 355.47 380.176C329.536 377.702 303.518 377.403 277.5 377.104C264.448 376.934 251.397 376.806 238.388 377.232C225.717 377.616 213.09 378.683 200.462 379.835C185.843 381.2 171.223 382.566 156.604 383.931C155.799 383.974 155.799 385.254 156.604 385.211Z" fill="#E8E8E8"/>
<path d="M289.57 366.351C300.206 368.357 310.715 368.271 321.436 367.29C332.453 366.266 343.428 365.626 354.488 365.114C376.693 364.133 398.897 363.237 421.059 362.298C433.729 361.743 446.4 361.231 459.07 360.677C459.875 360.634 459.875 359.354 459.07 359.397C436.823 360.335 414.618 361.274 392.371 362.213C370.506 363.151 348.513 363.621 326.69 365.498C320.758 366.01 314.825 366.693 308.893 366.778C302.537 366.863 296.18 366.266 289.909 365.071C289.104 364.986 288.765 366.223 289.57 366.351Z" fill="#E8E8E8"/>
<path d="M1.25672 357.307C21.0035 357.861 40.7502 357.776 60.497 357.051C61.3021 357.008 61.3021 355.728 60.497 355.771C40.7502 356.496 21.0035 356.581 1.25672 356.027C0.409219 355.984 0.409219 357.264 1.25672 357.307Z" fill="#E8E8E8"/>
<path d="M22.83 374.456C30.0338 372.92 37.6613 373.902 44.9498 374.243C52.2807 374.627 59.5692 374.968 66.9 375.352C81.816 376.12 96.6897 376.888 111.606 377.614C112.411 377.656 112.411 376.376 111.606 376.334C96.4354 375.566 81.2228 374.798 66.0525 374.03C58.4674 373.646 50.8823 373.262 43.2972 372.878C36.39 372.536 29.3558 371.726 22.5334 373.219C21.7283 373.39 22.0673 374.627 22.83 374.456Z" fill="#E8E8E8"/>
<path d="M137.065 341.945C163.253 343.737 189.017 336.91 215.162 336.996C215.967 336.996 215.967 335.716 215.162 335.716C189.017 335.63 163.253 342.414 137.065 340.665C136.26 340.58 136.26 341.902 137.065 341.945Z" fill="#E8E8E8"/>
<path d="M117.448 209.337C117.66 208.612 117.872 207.887 118.211 207.204C118.423 206.905 118.592 206.649 118.804 206.351C119.694 206.265 120.626 206.137 121.516 206.052C121.77 206.223 121.982 206.735 122.152 206.991C122.787 207.887 123.465 208.655 124.44 209.252C126.304 210.361 128.55 210.617 130.542 209.849C135.754 207.929 137.703 200.975 144.06 201.657C145.755 201.828 147.365 202.511 148.594 203.705C149.526 204.601 150.246 205.711 151.221 206.564C152.958 208.015 155.119 208.228 157.196 207.46C159.738 206.564 161.688 204.644 163.594 202.809C166.179 200.377 169.951 197.433 173.383 200.036C175.629 201.7 176.943 204.26 179.739 205.156C182.367 206.009 185.163 205.497 187.367 203.833C188.002 203.364 187.367 202.212 186.731 202.724C183.68 205.028 179.866 204.644 177.197 201.956C175.417 200.207 173.892 198.031 171.264 197.732C165.078 196.964 161.857 204.559 156.603 206.308C152.619 207.631 151.306 204.047 148.678 202.084C146.729 200.633 144.271 200.036 141.856 200.42C139.314 200.804 137.364 202.34 135.585 204.089C133.508 206.18 131.305 209.039 128.084 209.039C125.923 209.039 124.27 207.844 123.084 206.137C122.406 205.199 121.855 204.431 120.626 204.303C117.957 204.047 116.812 206.863 116.177 208.953C115.965 209.764 117.194 210.105 117.448 209.337Z" fill="#E8E8E8"/>
<path d="M182.795 187.28C184.32 182.8 189.66 186.597 191.694 188.261C193.473 189.712 195.55 191.205 197.965 191.12C201.948 190.949 204.067 186.853 207.33 185.147C211.864 182.8 214.619 188.901 219.026 188.304C220.975 188.048 221.992 186.469 223.221 185.104C224.534 183.653 225.89 183.653 227.755 184.08C229.492 184.507 231.272 184.933 233.009 185.36C233.814 185.573 234.153 184.336 233.348 184.122C231.611 183.696 229.831 183.269 228.094 182.842C226.907 182.544 225.721 182.203 224.534 182.544C222.204 183.269 221.526 186.384 219.195 186.939C216.695 187.536 214.237 184.72 212.076 183.824C210.254 183.056 208.474 183.056 206.737 183.995C204.872 184.976 203.474 186.64 201.821 187.962C200.72 188.858 199.491 189.669 198.05 189.754C195.846 189.882 194.024 188.347 192.414 187.067C190.465 185.531 188.388 183.696 185.719 183.909C183.812 184.037 182.244 185.061 181.608 186.896C181.312 187.706 182.541 188.048 182.795 187.28Z" fill="#E8E8E8"/>
<path d="M374.373 62.7769C373.991 70.7556 373.737 78.7769 373.652 86.7983C373.652 87.6089 374.924 87.6089 374.924 86.7983C375.008 78.7769 375.263 70.7983 375.644 62.7769C375.686 61.9663 374.415 61.9663 374.373 62.7769Z" fill="#E8E8E8"/>
<path d="M375.217 63.3762C385.006 62.0108 394.964 60.6882 404.71 62.9922C405.515 63.1628 405.854 61.9681 405.049 61.7548C395.091 59.3655 384.879 60.7308 374.878 62.1388C374.073 62.2242 374.412 63.4615 375.217 63.3762Z" fill="#E8E8E8"/>
<path d="M403.906 63.4176C404.118 79.6309 403.821 95.8869 402.974 112.1C402.931 112.911 404.203 112.911 404.245 112.1C405.092 95.8869 405.389 79.6736 405.177 63.4176C405.177 62.6069 403.906 62.6069 403.906 63.4176Z" fill="#E8E8E8"/>
<path d="M374.707 107.749C374.919 109.797 375.004 111.931 375.385 113.936C375.597 114.917 375.936 115.6 376.784 116.197C379.453 117.947 383.775 116.923 386.699 116.752C390.852 116.496 395.047 116.24 399.2 115.984C401.064 115.856 404.031 115.344 402.887 112.741C402.548 111.973 401.446 112.656 401.785 113.381C401.997 113.851 399.624 114.619 399.2 114.704C398.522 114.832 397.802 114.789 397.124 114.832C395.895 114.917 394.623 115.003 393.395 115.045C390.894 115.216 388.394 115.344 385.894 115.515C383.606 115.643 381.063 116.112 378.775 115.6C375.894 114.917 376.275 110.224 375.978 107.792C375.894 106.939 374.622 106.939 374.707 107.749Z" fill="#E8E8E8"/>
<path d="M366.997 106.17C363.268 111.674 359.412 117.093 355.513 122.469C355.386 122.64 355.386 122.938 355.513 123.109C356.191 124.176 357.335 124.602 358.564 124.218C360.386 123.664 361.276 121.573 362.209 120.122C363.734 117.733 365.471 115.472 367.336 113.296C368.141 112.4 368.946 111.504 369.794 110.65C370.768 109.669 372.421 107.578 373.819 107.365C374.624 107.237 374.285 106 373.48 106.128C372.209 106.341 371.362 107.365 370.429 108.218C369.2 109.37 368.014 110.565 366.87 111.845C364.666 114.32 362.632 116.965 360.853 119.738C360.344 120.506 359.92 121.445 359.285 122.128C358.607 123.109 357.886 123.194 357.039 122.384C357.293 122.042 357.547 121.701 357.759 121.36C358.903 119.781 360.047 118.202 361.149 116.624C363.48 113.338 365.768 110.053 368.014 106.725C368.565 106.128 367.463 105.488 366.997 106.17Z" fill="#E8E8E8"/>
<path d="M373.605 107.749C378.859 107.877 383.902 104.677 385.978 99.8129C387.843 95.4182 386.826 89.7009 382.885 86.7996C378.351 83.5142 372.545 85.9889 369.028 89.5729C366.952 91.7062 365.214 94.3942 364.791 97.3809C364.621 98.5755 364.663 99.7702 364.96 100.922C365.13 101.605 365.384 102.245 365.723 102.842C365.808 103.013 367.757 105.786 366.909 105.744C366.104 105.658 366.104 106.938 366.909 107.024C368.223 107.152 368.901 105.957 368.52 104.762C368.223 103.781 367.291 103.098 366.782 102.202C366.019 100.794 365.85 99.1729 366.062 97.5942C366.782 92.1329 372.545 86.4155 378.139 86.5009C383.647 86.5435 386.529 92.7302 385.385 97.5942C384.114 102.885 378.944 106.597 373.605 106.426C372.757 106.469 372.757 107.749 373.605 107.749Z" fill="#E8E8E8"/>
<path d="M379.63 67.8982L379.588 67.8555C379.588 68.1542 379.588 68.4529 379.588 68.7516C380.139 68.1116 383.953 68.1542 384.97 68.0262C386.58 67.8555 388.232 67.7275 389.843 67.6422C391.453 67.5569 393.106 67.4715 394.758 67.4289C395.479 67.4289 399.25 67.7702 399.504 67.0875C399.207 67.8555 400.436 68.1969 400.733 67.4289C400.775 67.3435 400.775 67.3009 400.818 67.2155C400.903 67.0022 400.818 66.7462 400.648 66.5755C399.716 65.6369 398.021 66.0635 396.792 66.0635C394.462 66.0635 392.173 66.1489 389.843 66.3195C387.682 66.4475 385.52 66.6609 383.317 66.8742C382.215 67.0022 379.461 66.8315 378.656 67.7702C378.444 68.0262 378.401 68.4102 378.656 68.6662L378.698 68.7089C379.334 69.3915 380.224 68.4529 379.63 67.8982Z" fill="#E8E8E8"/>
<path d="M379.031 74.1273C383.311 74.7246 387.463 74.554 391.743 74.3833C392.548 74.3406 392.548 73.0606 391.743 73.1033C387.548 73.274 383.522 73.4446 379.37 72.89C378.565 72.8046 378.226 74.042 379.031 74.1273Z" fill="#E8E8E8"/>
<path d="M376.148 78.9488C376.021 79.0768 375.894 79.2475 375.767 79.3755C375.385 79.8022 375.639 80.4422 376.233 80.4849C383.606 80.6129 390.979 80.2715 398.31 79.4608C399.115 79.3755 399.115 78.0955 398.31 78.1808C390.979 78.9915 383.606 79.3328 376.233 79.2048C376.402 79.5889 376.529 79.9302 376.699 80.3142C376.826 80.1862 376.953 80.0155 377.08 79.8875C377.589 79.2475 376.699 78.3515 376.148 78.9488Z" fill="#E8E8E8"/>
<path d="M385.261 85.9461C389.117 86.2448 392.973 86.0741 396.787 85.4341C397.592 85.3061 397.253 84.0688 396.448 84.1968C392.719 84.7941 388.99 84.9648 385.261 84.6661C384.413 84.6234 384.413 85.9034 385.261 85.9461Z" fill="#E8E8E8"/>
<path d="M374.923 103.225C371.491 103.396 368.567 100.367 369.668 96.868C370.516 94.0947 373.694 91.1507 376.576 90.6814C377.974 90.468 379.499 90.8094 380.559 91.7907C382.127 93.2414 381.703 95.3747 380.983 97.124C379.754 100.196 377.508 102.969 374.075 103.353C373.27 103.439 373.27 104.719 374.075 104.633C378.482 104.164 381.618 100.367 382.678 96.1854C383.695 92.26 380.813 89.0174 376.787 89.3587C373.058 89.7 368.948 93.4974 368.27 97.2094C367.55 101.348 370.897 104.719 374.923 104.505C375.728 104.463 375.728 103.183 374.923 103.225Z" fill="#E8E8E8"/>
<path d="M375.637 91.2354C373.942 94.9047 372.374 98.6167 370.976 102.371C370.679 103.139 371.908 103.481 372.204 102.713C373.603 99.0434 375.086 95.4167 376.739 91.8754C377.078 91.1074 376.018 90.4674 375.637 91.2354Z" fill="#E8E8E8"/>
<path d="M377.589 94.9063C376.487 97.2103 375.427 99.5143 374.326 101.818C373.987 102.544 375.088 103.226 375.427 102.458C376.529 100.154 377.589 97.8503 378.69 95.5463C379.029 94.821 377.97 94.1383 377.589 94.9063Z" fill="#E8E8E8"/>
<path d="M62.5703 25.232C62.5703 29.1147 62.5703 33.04 62.5703 36.9227C62.5703 37.7334 63.8416 37.7334 63.8416 36.9227C63.8416 33.04 63.8416 29.1147 63.8416 25.232C63.8416 24.4214 62.5703 24.4214 62.5703 25.232Z" fill="#E8E8E8"/>
<path d="M63.3812 37.4773C66.9831 37.4773 70.5426 37.4773 74.1444 37.4773C74.9496 37.4773 74.9496 36.1973 74.1444 36.1973C70.5426 36.1973 66.9831 36.1973 63.3812 36.1973C62.5761 36.1973 62.5761 37.4773 63.3812 37.4773Z" fill="#E8E8E8"/>
<path d="M74.9041 36.1117C74.9041 31.8877 74.9041 27.6211 74.9041 23.3971C74.9041 22.5864 73.6328 22.5864 73.6328 23.3971C73.6328 27.6211 73.6328 31.8877 73.6328 36.1117C73.6328 36.9224 74.9041 36.9224 74.9041 36.1117Z" fill="#E8E8E8"/>
<path d="M74.4377 22.585C70.7511 22.585 67.0645 22.585 63.4202 22.585C62.6151 22.585 62.6151 23.865 63.4202 23.865C67.1069 23.865 70.7935 23.865 74.4377 23.865C75.2429 23.865 75.2429 22.585 74.4377 22.585Z" fill="#E8E8E8"/>
<path d="M67.9609 38.1598C67.9609 42.5118 67.9609 46.8211 67.9609 51.1731C67.9609 51.9838 69.2322 51.9838 69.2322 51.1731C69.2322 46.8211 69.2322 42.5118 69.2322 38.1598C69.2322 37.3491 67.9609 37.3491 67.9609 38.1598Z" fill="#E8E8E8"/>
<path d="M53.0386 51.0026C57.7423 46.48 62.6578 42.128 67.7428 37.9893C68.3784 37.4773 67.4885 36.5813 66.8529 37.0933C61.7679 41.232 56.8948 45.5413 52.1488 50.1066C51.5555 50.6613 52.4454 51.5573 53.0386 51.0026Z" fill="#E8E8E8"/>
<path d="M69.3102 38.415C74.3952 42.2977 79.4802 46.1803 84.5652 50.063C85.2008 50.575 85.8364 49.4657 85.2008 48.9537C80.1158 45.071 75.0308 41.1883 69.9458 37.3057C69.3102 36.7937 68.6745 37.903 69.3102 38.415Z" fill="#E8E8E8"/>
<path d="M48.1273 52.5388C50.924 52.5388 53.7208 52.5388 56.5599 52.5388C57.365 52.5388 57.365 51.2588 56.5599 51.2588C53.7632 51.2588 50.9664 51.2588 48.1273 51.2588C47.3222 51.2588 47.3222 52.5388 48.1273 52.5388Z" fill="#E8E8E8"/>
<path d="M55.793 52.7933C55.793 55.9933 55.793 59.236 55.793 62.436C55.793 63.2466 57.0642 63.2466 57.0642 62.436C57.0642 59.236 57.0642 55.9933 57.0642 52.7933C57.0642 51.94 55.793 51.94 55.793 52.7933Z" fill="#E8E8E8"/>
<path d="M47.1914 52.1957C47.1914 55.9503 47.1914 59.705 47.1914 63.4597C47.1914 64.2703 48.4627 64.2703 48.4627 63.4597C48.4627 59.705 48.4627 55.9503 48.4627 52.1957C48.4627 51.3423 47.1914 51.3423 47.1914 52.1957Z" fill="#E8E8E8"/>
<path d="M47.7015 64.2282C50.3288 64.2282 52.9136 64.2282 55.5409 64.2282C56.346 64.2282 56.346 62.9482 55.5409 62.9482C52.9136 62.9482 50.3288 62.9482 47.7015 62.9482C46.8964 62.9482 46.8964 64.2282 47.7015 64.2282Z" fill="#E8E8E8"/>
<path d="M64.0586 52.4964C64.0586 56.2084 64.0586 59.9204 64.0586 63.5898C64.0586 64.4004 65.3298 64.4004 65.3298 63.5898C65.3298 59.8778 65.3298 56.1658 65.3298 52.4964C65.3298 51.6431 64.0586 51.6431 64.0586 52.4964Z" fill="#E8E8E8"/>
<path d="M64.6898 63.9314C67.2747 63.9314 69.8171 63.9314 72.402 63.9314C73.2071 63.9314 73.2071 62.6514 72.402 62.6514C69.8171 62.6514 67.2747 62.6514 64.6898 62.6514C63.8847 62.6514 63.8847 63.9314 64.6898 63.9314Z" fill="#E8E8E8"/>
<path d="M65.1195 53.1345C67.4077 53.1345 69.6536 53.1345 71.9418 53.1345C72.747 53.1345 72.747 51.8545 71.9418 51.8545C69.6536 51.8545 67.4077 51.8545 65.1195 51.8545C64.3143 51.8545 64.3143 53.1345 65.1195 53.1345Z" fill="#E8E8E8"/>
<path d="M71.4688 52.3248C71.4688 55.8235 71.4688 59.3221 71.4688 62.8635C71.4688 63.6741 72.74 63.6741 72.74 62.8635C72.74 59.3648 72.74 55.8661 72.74 52.3248C72.74 51.5141 71.4688 51.5141 71.4688 52.3248Z" fill="#E8E8E8"/>
<path d="M82.0283 52.3228C81.9012 55.0962 81.8164 57.8695 81.8164 60.6428C81.8164 61.4535 83.0877 61.4535 83.0877 60.6428C83.0877 57.8695 83.1724 55.0962 83.2995 52.3228C83.3419 51.5122 82.0707 51.5122 82.0283 52.3228Z" fill="#E8E8E8"/>
<path d="M82.5691 52.6241C85.3658 52.3254 88.1626 51.9841 90.9593 51.6854C91.7644 51.6001 91.7644 50.3201 90.9593 50.4054C88.1626 50.7041 85.3658 51.0454 82.5691 51.3441C81.7639 51.4294 81.7216 52.7094 82.5691 52.6241Z" fill="#E8E8E8"/>
<path d="M90.5378 51.3014C90.2412 54.16 90.3259 56.976 90.8344 59.792C90.9615 60.6027 92.1904 60.2614 92.0633 59.4507C91.5972 56.72 91.5124 54.032 91.8091 51.3014C91.8938 50.4907 90.6226 50.4907 90.5378 51.3014Z" fill="#E8E8E8"/>
<path d="M82.9986 61.7522C85.7953 61.3255 88.5921 60.8989 91.3888 60.4722C92.194 60.3442 91.855 59.1069 91.0498 59.2349C88.2531 59.6615 85.4563 60.0882 82.6596 60.5149C81.8545 60.6429 82.1935 61.8375 82.9986 61.7522Z" fill="#E8E8E8"/>
<path d="M67.7832 64.3143C66.2153 66.7036 64.8593 69.221 63.6304 71.781C63.2914 72.5063 64.3932 73.189 64.7322 72.421C65.961 69.8183 67.3594 67.3436 68.8849 64.9543C69.3087 64.2716 68.2069 63.6316 67.7832 64.3143Z" fill="#E8E8E8"/>
<path d="M68.1634 64.8235C69.7313 66.9568 71.0873 69.1755 72.2314 71.5221C72.6128 72.2475 73.7145 71.6075 73.3332 70.8821C72.1467 68.5355 70.7907 66.2741 69.2652 64.1835C68.799 63.5008 67.6973 64.1408 68.1634 64.8235Z" fill="#E8E8E8"/>
<path d="M61.346 73.4454C62.2359 73.4454 63.1258 73.4454 64.058 73.4881C64.4818 73.4881 64.8632 73.5307 65.2869 73.5734C66.0497 73.6161 65.9649 73.3601 66.092 74.0427C66.3886 75.6641 66.0497 77.7548 65.9225 79.4188C65.8378 80.2294 67.109 80.2294 67.1938 79.4188C67.2785 78.1388 67.3633 76.8161 67.3633 75.5361C67.3633 74.8107 67.5752 73.6161 67.1938 72.9334C66.8124 72.2934 65.9225 72.3787 65.2869 72.3361C63.9733 72.2507 62.6597 72.2081 61.346 72.2081C60.5409 72.1654 60.5409 73.4454 61.346 73.4454Z" fill="#E8E8E8"/>
<path d="M60.4962 73.4024C60.6234 74.8958 60.7505 76.3464 60.8776 77.8398C60.9624 79.0344 60.7929 80.7838 61.259 81.9358C61.4285 82.4051 61.6404 82.5757 62.1065 82.6611C63.2082 82.8744 64.8609 82.3198 65.9626 82.1491C66.7677 82.0211 66.4287 80.8264 65.6236 80.9118C64.8609 80.9971 63.6744 81.4664 62.954 81.2958C62.1489 81.0824 62.3184 79.9731 62.276 79.1198C62.1065 77.1998 61.937 75.3224 61.7675 73.4024C61.6827 72.5918 60.4115 72.5491 60.4962 73.4024Z" fill="#E8E8E8"/>
<path d="M70.0757 73.2306C69.991 74.468 69.9486 75.748 69.991 76.9853C69.991 77.284 70.3724 80.1 70.2453 80.1853C70.4571 80.1426 70.669 80.0573 70.8809 80.0146C70.8385 80.0146 70.7961 79.972 70.7114 79.972C70.8809 80.1853 71.008 80.3986 71.1775 80.5693C71.1775 80.5266 71.1775 80.484 71.1775 80.3986C71.008 80.612 70.8809 80.8253 70.7114 80.996C70.7537 80.996 70.7961 80.996 70.8385 80.9533C71.6436 80.7826 71.3046 79.5453 70.4995 79.716C70.4571 79.716 70.4148 79.716 70.3724 79.7586C70.0758 79.8013 69.9062 80.1 69.9062 80.356C69.9062 80.3986 69.9062 80.4413 69.9062 80.5266C69.9062 80.7826 70.1181 81.0813 70.3724 81.124C71.4741 81.3373 71.4741 80.3133 71.4318 79.5026C71.2623 77.3693 71.1775 75.2786 71.347 73.1026C71.3894 72.3773 70.1181 72.42 70.0757 73.2306Z" fill="#E8E8E8"/>
<path d="M70.8377 73.5295C70.8377 73.2308 73.5497 73.1455 73.931 73.1881C74.9904 73.3588 74.7785 73.4441 74.948 74.2121C75.0751 74.7241 74.9057 75.4495 74.8633 75.9615C74.8209 77.0281 74.8209 78.0521 74.8633 79.1188C74.8633 79.7161 75.287 81.5081 74.9904 81.9348C75.287 81.8495 75.5837 81.7641 75.8803 81.7215C75.8379 81.7215 75.7955 81.6788 75.7532 81.6788C75.8379 81.9348 75.965 82.1481 76.0498 82.4041C76.0498 82.3615 76.0922 82.3188 76.0922 82.2761C76.304 81.4655 75.0752 81.1241 74.8633 81.9348C74.8633 81.9775 74.8209 82.0201 74.8209 82.0628C74.7362 82.3188 74.8633 82.6601 75.1175 82.7881C75.1599 82.7881 75.2023 82.8308 75.2447 82.8308C75.5837 82.9588 75.9227 82.9161 76.1345 82.6175C76.4312 82.1908 76.304 81.7641 76.2617 81.2521C76.2193 80.1001 76.1345 78.9054 76.1345 77.7534C76.1345 76.6014 76.1769 75.4068 76.2193 74.2548C76.2616 73.7428 76.3888 73.0601 76.0498 72.5908C75.3294 71.6095 73.0412 71.9081 72.1089 72.0361C71.0495 72.1641 69.6512 72.2921 69.5664 73.5721C69.5664 74.3401 70.8377 74.3401 70.8377 73.5295Z" fill="#E8E8E8"/>
<path d="M70.9598 82.1907C72.2311 82.1054 73.5023 82.2334 74.7312 82.532C75.5363 82.7454 75.8753 81.508 75.0702 81.2947C73.7142 80.9107 72.3582 80.7827 70.9598 80.868C70.1123 80.9534 70.1123 82.2334 70.9598 82.1907Z" fill="#E8E8E8"/>
<path d="M86.8949 62.0098C85.8779 64.2711 84.988 66.6178 84.1829 68.9644C83.9286 69.7324 85.1575 70.0738 85.4117 69.3058C86.1745 67.0444 87.022 64.8258 87.9966 62.6498C88.3356 61.8818 87.2339 61.2418 86.8949 62.0098Z" fill="#E8E8E8"/>
<path d="M80.4166 72.1225C82.5353 71.5252 84.6964 71.2265 86.9423 71.3119C87.7474 71.3545 87.7474 70.0745 86.9423 70.0319C84.6117 69.9465 82.3234 70.2452 80.0775 70.8852C79.2724 71.0985 79.6114 72.3359 80.4166 72.1225Z" fill="#E8E8E8"/>
<path d="M80.3675 71.5254C79.9862 72.7201 80.2828 73.8294 80.4099 75.0241C80.537 76.4747 80.537 77.8828 80.4946 79.3334C80.4099 81.2107 80.876 81.4241 82.7405 81.2534C84.0118 81.1254 85.7491 81.4668 86.2153 80.0588C86.639 78.6934 86.5119 76.8587 86.639 75.4081C86.7661 73.8721 86.9356 72.2934 87.0628 70.7574C87.1475 69.9467 85.8763 69.9467 85.7915 70.7574C85.622 72.5494 85.4525 74.3841 85.283 76.1761C85.1983 76.9014 85.2407 77.7974 85.0712 78.5228C84.8169 79.7174 84.6898 79.8027 83.4609 79.9307C83.0795 79.9734 82.7405 80.0161 82.3591 80.0588C81.6388 80.3148 81.4269 80.1014 81.7235 79.3761C81.554 78.7788 81.8083 77.8401 81.7659 77.2001C81.7235 75.5787 81.0879 73.4028 81.554 71.8668C81.8506 71.0561 80.6218 70.7148 80.3675 71.5254Z" fill="#E8E8E8"/>
<path d="M88.6751 63.2052C89.6497 64.6985 90.4972 66.2772 91.3024 67.8985C91.6414 68.6238 92.7431 67.9838 92.4041 67.2585C91.6414 65.6372 90.7515 64.1012 89.7769 62.5652C89.3107 61.8398 88.209 62.4798 88.6751 63.2052Z" fill="#E8E8E8"/>
<path d="M90.12 69.7761C92.2387 69.7761 94.3575 69.7761 96.4763 69.7761C97.2814 69.7761 97.2814 68.4961 96.4763 68.4961C96.3491 68.4961 96.222 68.4961 96.0949 68.4961C95.2898 68.4961 95.2898 69.7761 96.0949 69.7761C96.222 69.7761 96.3491 69.7761 96.4763 69.7761C97.2814 69.7761 97.2814 68.4961 96.4763 68.4961C94.3575 68.4961 92.2387 68.4961 90.12 68.4961C89.2725 68.4961 89.2725 69.7761 90.12 69.7761Z" fill="#E8E8E8"/>
<path d="M89.4884 69.7321C89.6579 71.3534 89.785 72.9748 89.8274 74.5961C89.8698 75.7481 89.4884 77.7108 89.9969 78.7774C90.2935 79.4174 90.6749 79.5028 91.3529 79.5028C92.9208 79.4601 94.6158 79.0761 96.1837 78.8628C96.4379 78.8201 96.6498 78.4788 96.6498 78.2654C96.6074 75.3641 96.5651 72.5054 96.5227 69.6041C96.5227 68.7934 95.2514 68.7934 95.2514 69.6041C95.2938 72.5054 95.3362 75.3641 95.3785 78.2654C95.548 78.0521 95.6752 77.8388 95.8447 77.6681C94.8277 77.7961 93.8107 77.9241 92.7937 78.0948C92.4547 78.1374 91.4801 78.4361 91.1834 78.1801C90.9716 78.0094 91.1834 76.6868 91.1834 76.4308C91.1411 74.2121 91.0139 71.9934 90.8021 69.8174C90.6749 68.9214 89.4037 68.9214 89.4884 69.7321Z" fill="#E8E8E8"/>
<path d="M42.4449 73.2321C44.6484 71.1841 46.8943 69.264 49.3096 67.5147C49.9453 67.0454 49.3096 65.9361 48.674 66.4054C46.1739 68.2401 43.8009 70.2027 41.555 72.3361C40.9618 72.8907 41.8516 73.7867 42.4449 73.2321Z" fill="#E8E8E8"/>
<path d="M48.929 66.9592C50.2003 68.7939 51.2597 70.7139 52.1072 72.7192C52.4462 73.4872 53.5479 72.8045 53.2089 72.0792C52.319 70.0312 51.2597 68.1112 50.0308 66.3192C49.5647 65.6365 48.4629 66.2765 48.929 66.9592Z" fill="#E8E8E8"/>
<path d="M36.8057 75.5782C37.9498 75.4928 39.0516 75.4075 40.1957 75.3222C40.7042 75.2795 41.2551 75.1515 41.7212 75.1942C42.3144 74.9808 42.4839 75.0235 42.2297 75.3648C42.0602 75.6208 41.9754 75.8768 42.0178 76.1755C41.5517 78.2662 41.4669 80.4848 41.3822 82.6182C41.7636 82.4475 42.1026 82.3195 42.4839 82.1488C42.4416 82.1062 42.3992 82.0635 42.3568 81.9782C41.8059 81.3808 40.9161 82.2768 41.4669 82.8742C41.5093 82.9168 41.5517 82.9595 41.5941 83.0448C41.9754 83.4715 42.6534 83.1302 42.6958 82.5755C42.7382 80.7408 42.9077 78.9062 43.1619 77.1142C43.2891 76.3462 43.8399 75.0662 43.3738 74.2982C42.9924 73.7008 42.3568 73.8288 41.7636 73.8715C40.1109 73.9995 38.5007 74.1275 36.8481 74.2555C36.0006 74.3835 36.0006 75.6635 36.8057 75.5782Z" fill="#E8E8E8"/>
<path d="M37.657 74.3398C37.6146 74.3398 37.5723 74.3398 37.4875 74.3398C37.2756 74.3398 37.0638 74.4678 36.9366 74.6385C36.2586 75.7905 36.301 77.7958 36.0891 79.1185C35.7925 80.9958 35.4959 82.8732 35.1993 84.7505C35.1569 85.0919 35.284 85.4758 35.623 85.5185C37.6146 85.9452 39.4791 85.8599 41.386 85.1345C42.1488 84.8359 41.8098 83.5985 41.047 83.8972C39.352 84.5372 37.7418 84.6652 35.962 84.2812C36.0891 84.5372 36.2586 84.7932 36.3858 85.0492C36.5129 84.1958 37.996 75.6199 37.5723 75.5772C38.4621 75.7052 38.4621 74.4252 37.657 74.3398Z" fill="#E8E8E8"/>
<path d="M49.1869 74.1278L49.1445 74.1705C49.4412 74.1705 49.7378 74.1705 50.0344 74.1705C49.992 74.1705 49.992 74.1278 49.9497 74.1278C49.9497 74.4265 49.9497 74.7252 49.9497 75.0238C49.992 74.9812 50.7548 74.9812 50.9243 74.9812C51.3904 74.9385 51.8989 74.8958 52.365 74.8958C53.2549 74.8532 54.1448 74.8958 55.0347 74.9812C54.8652 74.5972 54.738 74.2559 54.5685 73.8719C54.4838 73.9145 54.399 73.9998 54.3567 74.0425C53.5515 74.1278 53.5515 75.4078 54.3567 75.3225C54.8228 75.2798 55.1618 75.1518 55.5008 74.7678C55.8822 74.3412 55.6279 73.7012 55.0347 73.6585C53.8058 73.5732 52.5769 73.5305 51.348 73.6158C50.7548 73.6585 49.5259 73.5305 49.1022 74.0852C48.8903 74.3412 48.8055 74.7678 49.1022 74.9812C49.1445 74.9812 49.1445 75.0238 49.1869 75.0238C49.4412 75.2372 49.8649 75.3225 50.0768 75.0238L50.1192 74.9812C50.6277 74.4265 49.7378 73.5305 49.1869 74.1278Z" fill="#E8E8E8"/>
<path d="M48.6748 74.4266C48.5477 76.1759 48.4206 77.9252 48.3358 79.6746C48.2935 80.6559 47.7426 83.1733 48.3358 84.0693C48.6325 84.4959 48.9291 84.6666 49.48 84.6239C50.0308 84.6239 50.6241 84.2399 51.1326 84.1119C52.1496 83.8133 53.209 83.7279 54.2683 83.7279C55.0735 83.7279 55.0735 82.4479 54.2683 82.4479C53.3361 82.4479 52.4038 82.5333 51.4716 82.7466C51.0478 82.8319 50.2427 83.3013 49.8613 83.2159C49.5647 83.4293 49.4376 83.3866 49.5223 83.0453C49.48 82.7039 49.48 82.3626 49.5223 81.9786C49.5647 79.5039 49.7766 76.9866 49.9461 74.5119C50.0308 73.5733 48.7596 73.5733 48.6748 74.4266Z" fill="#E8E8E8"/>
<path d="M54.1366 74.5543C53.7976 77.413 53.6281 80.2716 53.6705 83.173C53.6705 83.9836 54.9417 83.9836 54.9417 83.173C54.8993 80.2716 55.0688 77.413 55.4078 74.5543C55.535 73.7436 54.2637 73.7436 54.1366 74.5543Z" fill="#E8E8E8"/>
<path d="M392.634 253.54C402.635 275.684 409.627 299.065 413.483 323.087C413.61 323.897 414.839 323.556 414.712 322.745C410.813 298.639 403.779 275.129 393.736 252.9C393.397 252.175 392.295 252.815 392.634 253.54Z" fill="#E8E8E8"/>
<path d="M445.392 216.079C433.019 235.108 422.255 255.162 414.628 276.623C414.331 277.391 415.56 277.732 415.857 276.964C423.442 255.588 434.163 235.663 446.494 216.719C446.918 216.036 445.816 215.396 445.392 216.079Z" fill="#E8E8E8"/>
<path d="M388.304 276.923C395.169 278.8 401.059 283.067 405 289.04C405.466 289.723 406.568 289.083 406.102 288.4C401.991 282.171 395.847 277.648 388.643 275.686C387.838 275.472 387.499 276.71 388.304 276.923Z" fill="#E8E8E8"/>
<path d="M404.84 259.215C402.51 263.097 400.942 267.321 400.306 271.844C400.179 272.655 401.408 272.996 401.535 272.185C402.171 267.791 403.654 263.652 405.942 259.855C406.366 259.172 405.264 258.532 404.84 259.215Z" fill="#E8E8E8"/>
<path d="M418.021 235.236C420.098 237.54 421.539 240.185 422.64 243.044C423.149 244.324 423.573 245.646 423.954 246.926C424.335 248.164 425.225 249.998 424.717 251.236C424.42 252.004 425.649 252.345 425.946 251.577C426.454 250.34 425.946 249.102 425.564 247.908C425.056 246.158 424.505 244.409 423.827 242.702C422.64 239.63 421.072 236.772 418.869 234.297C418.36 233.7 417.471 234.596 418.021 235.236Z" fill="#E8E8E8"/>
<path d="M432.385 240.144C437.682 234 444.547 229.648 452.344 227.515C453.149 227.302 452.81 226.064 452.005 226.278C444.039 228.454 436.92 232.934 431.496 239.206C430.987 239.846 431.877 240.784 432.385 240.144Z" fill="#E8E8E8"/>
<path d="M417.426 274.405C421.24 270.992 425.732 268.603 430.478 266.811C432.639 266 434.8 265.36 437.003 264.72C438.232 264.379 439.419 264.08 440.648 263.739C441.241 263.611 443.741 262.587 444.207 262.843C444.122 262.544 444.038 262.245 443.995 261.947C443.953 261.989 443.953 262.032 443.911 262.075C444.207 261.989 444.504 261.904 444.8 261.861C444.758 261.861 444.716 261.819 444.673 261.819C443.953 261.435 443.317 262.544 444.038 262.928C444.08 262.928 444.122 262.971 444.165 262.971C444.461 263.141 444.843 263.056 445.055 262.757C445.097 262.715 445.097 262.672 445.139 262.629C445.309 262.331 445.224 261.947 444.928 261.733C444.334 261.392 443.699 261.691 443.063 261.819C441.622 262.16 440.182 262.501 438.741 262.885C435.986 263.611 433.232 264.421 430.52 265.36C425.435 267.195 420.604 269.712 416.579 273.381C415.943 274.021 416.833 274.96 417.426 274.405Z" fill="#E8E8E8"/>
<path d="M395.809 327.056C405.428 329.402 415.217 327.653 424.836 326.501C435.26 325.264 445.727 325.05 456.193 324.88C456.998 324.88 456.998 323.6 456.193 323.6C445.981 323.77 435.768 323.984 425.641 325.136C415.852 326.288 405.894 328.208 396.148 325.818C395.385 325.605 395.046 326.842 395.809 327.056Z" fill="#E8E8E8"/>
<path d="M426.151 323.428C443.27 322.532 460.39 321.593 477.509 320.697C478.314 320.654 478.314 319.374 477.509 319.417C460.39 320.313 443.27 321.252 426.151 322.148C425.346 322.19 425.346 323.47 426.151 323.428Z" fill="#E8E8E8"/>
<path d="M377.124 200.25C372.929 201.061 367.802 197.008 367.929 192.528C368.098 187.45 374.412 185.744 378.438 185.701C382.887 185.701 386.023 189.157 384.964 193.68C384.498 195.642 383.269 197.264 381.743 198.501C380.853 199.226 377.252 201.872 376.235 200.592C375.726 199.952 374.836 200.848 375.345 201.488C376.701 203.194 379.497 201.445 380.938 200.634C383.142 199.312 385.133 197.306 385.981 194.832C387.676 189.84 384.667 184.848 379.455 184.464C374.497 184.08 366.827 186.384 366.7 192.528C366.615 197.904 372.463 202.426 377.506 201.488C378.269 201.36 377.929 200.122 377.124 200.25Z" fill="#E8E8E8"/>
<path d="M51.8541 220.345C50.2862 222.137 48.9302 224.1 47.7861 226.233C47.4047 226.959 48.5065 227.599 48.8878 226.873C49.9896 224.868 51.2608 222.991 52.7863 221.241C53.2948 220.644 52.405 219.705 51.8541 220.345Z" fill="#161616"/>
<path d="M51.8145 220.858C53.0858 222.65 54.357 224.399 55.6283 226.191C56.0944 226.874 57.1961 226.234 56.73 225.551C55.4588 223.759 54.1875 222.01 52.9163 220.218C52.4078 219.535 51.306 220.175 51.8145 220.858Z" fill="#161616"/>
<path d="M51.7276 223.377C52.109 238.438 52.448 253.5 52.8294 268.604C52.8294 269.414 54.1006 269.414 54.1006 268.604C53.7192 253.542 53.3802 238.481 52.9988 223.377C52.9565 222.566 51.6852 222.524 51.7276 223.377Z" fill="#161616"/>
<path d="M54.221 269.796C73.0355 269.796 91.85 269.796 110.665 269.796C111.47 269.796 111.47 268.516 110.665 268.516C91.85 268.516 73.0355 268.516 54.221 268.516C53.4159 268.516 53.4159 269.796 54.221 269.796Z" fill="#161616"/>
<path d="M108.21 268.517C109.524 269.029 110.795 269.541 112.109 270.053C111.939 269.584 111.727 269.115 111.558 268.645C110.922 269.797 110.032 270.693 108.931 271.376C107.871 272.016 108.846 273.68 109.905 273.04C111.304 272.229 112.448 271.035 113.253 269.627C113.592 269.029 113.253 268.432 112.702 268.219C111.388 267.707 110.117 267.195 108.803 266.683C107.575 266.213 107.066 268.048 108.21 268.517Z" fill="#161616"/>
<path d="M433.652 38.0754C431.957 35.814 434.372 32.358 436.999 34.0647C438.186 34.8327 438.737 36.4114 437.889 37.6487C437.126 38.758 435.558 39.2274 434.372 38.63C433.652 38.246 433.016 39.3554 433.736 39.7394C435.474 40.5927 437.592 40.0807 438.821 38.5447C440.135 36.8807 439.669 34.534 438.059 33.254C436.491 32.0167 434.287 32.0167 432.931 33.5527C431.702 34.9607 431.49 37.222 432.635 38.758C433.016 39.3554 434.118 38.7154 433.652 38.0754Z" fill="#161616"/>
<path d="M468.911 200.334C468.826 198.329 470.309 196.964 472.259 196.964C473.064 196.964 473.699 197.177 474.462 196.836C475.903 196.196 476.454 194.532 476.92 193.124C477.598 191.076 478.106 190.094 480.649 190.734C481.327 190.905 481.751 191.246 482.471 190.99C484.59 190.18 483.318 186.51 486.539 187.108C487.344 187.278 487.683 186.041 486.878 185.87C485.861 185.657 484.886 185.742 483.996 186.382C483.191 186.98 483.107 187.705 482.64 188.473C482.598 189.284 482.047 189.625 481.03 189.497C480.818 189.369 480.564 189.241 480.352 189.156C479.886 189.113 479.632 188.857 479.123 188.9C478.191 188.942 477.471 189.54 476.92 190.222C476.115 191.204 475.903 192.398 475.437 193.593C474.971 194.788 474.504 195.641 473.064 195.769C472.428 195.812 471.835 195.598 471.199 195.684C468.953 196.025 467.513 198.116 467.597 200.334C467.682 201.188 468.953 201.188 468.911 200.334Z" fill="#161616"/>
<path d="M66.8931 267.365C72.868 255.29 73.8003 241.68 77.3174 228.837C78.2073 225.552 79.0971 221.712 81.5549 219.237C85.1568 215.61 89.7333 218.17 91.2164 222.437C92.3181 225.68 92.3605 229.434 92.5724 232.848C92.7843 236.517 92.9538 240.186 93.1656 243.856C93.6318 251.706 94.4369 259.6 97.0641 267.066C97.3184 267.834 98.5473 267.493 98.293 266.725C95.5386 258.874 94.7759 250.554 94.3521 242.277C94.1403 238.224 93.9708 234.128 93.6741 230.074C93.4199 226.832 93.2928 223.29 91.7673 220.346C90.5808 218.042 88.2925 216.165 85.6229 216.165C82.8685 216.165 80.5803 218.085 79.1819 220.304C77.3598 223.248 76.5123 226.96 75.6648 230.288C74.7325 234 73.9698 237.754 73.207 241.509C71.512 250.128 69.7746 258.789 65.8338 266.725C65.41 267.45 66.5118 268.09 66.8931 267.365Z" fill="#161616"/>
<path d="M72.6992 214.457C71.8517 213.22 73.5891 211.556 74.6061 212.921C75.5807 214.201 73.7586 215.481 72.7416 214.5C72.1484 213.945 71.2585 214.841 71.8517 215.396C72.7416 216.249 74.1824 216.335 75.1994 215.609C76.3435 214.799 76.4706 213.263 75.6231 212.153C74.7756 211.044 73.2078 210.745 72.1484 211.684C71.2161 212.537 70.9195 214.031 71.6399 215.097C72.0636 215.78 73.1654 215.14 72.6992 214.457Z" fill="#161616"/>
<path d="M82.0641 208.783C81.3861 207.802 82.8692 206.906 83.5049 207.93C84.1829 209.039 82.276 210.276 81.6404 209.039C81.259 208.314 80.1996 208.954 80.5386 209.679C81.0895 210.831 82.5726 211.13 83.632 210.49C84.7337 209.85 85.2422 208.399 84.5642 207.247C83.971 206.266 82.5726 205.754 81.5556 206.394C80.581 207.034 80.242 208.399 80.8776 209.38C81.4285 210.106 82.5302 209.466 82.0641 208.783Z" fill="#161616"/>
<path d="M78.3862 199.396C78.0472 198.415 79.1066 197.391 79.9541 198.201C80.8016 199.012 79.827 200.164 78.8523 199.823C78.0896 199.567 77.7506 200.804 78.5134 201.06C80.7169 201.785 82.5814 198.969 80.844 197.305C80.0812 196.537 78.8947 196.409 78.0048 197.049C77.1997 197.647 76.776 198.756 77.1573 199.737C77.454 200.505 78.6828 200.207 78.3862 199.396Z" fill="#161616"/>
<path d="M94.5683 210.79C94.4412 210.705 94.6107 210.833 94.653 210.918C94.653 210.961 94.653 211.004 94.653 211.046C94.653 211.089 94.653 211.089 94.653 211.004V211.046C94.653 211.046 94.7378 211.004 94.653 211.046C94.6107 211.046 94.7802 211.046 94.8225 211.046C94.9497 211.046 95.0768 211.089 95.2039 211.132C95.0344 210.918 94.9073 210.705 94.7378 210.534C94.7378 210.876 94.7378 211.217 94.7378 211.558C94.9073 211.345 95.0344 211.132 95.2039 210.961C94.8649 211.089 94.5259 211.132 94.1869 211.046C93.4242 210.79 93.0852 212.028 93.8479 212.284C94.3988 212.454 95.0344 212.454 95.5429 212.198C95.7972 212.07 96.009 211.9 96.009 211.601C96.009 211.26 96.009 210.918 96.009 210.577C96.009 210.278 95.7972 210.022 95.5429 209.98C94.8649 209.809 94.0598 209.724 93.636 210.406C93.297 210.918 93.3394 211.729 93.975 211.985C94.2717 212.156 94.653 212.07 94.8649 211.772C94.992 211.388 94.9073 210.961 94.5683 210.79Z" fill="#161616"/>
<path d="M165.33 40.9333C165.542 41.0186 165.076 43.1519 165.288 43.6639C165.584 44.3039 166.262 44.6879 166.94 44.7733C167.872 44.9439 168.678 44.5173 169.44 44.0479C170.203 43.5786 172.025 41.9573 172.576 43.7493C172.703 44.1333 172.279 45.0719 172.407 45.5839C172.788 47.2906 174.398 47.2053 175.542 46.3093C175.966 45.9679 176.22 45.5413 176.559 45.1573C176.983 44.1333 177.619 43.9199 178.424 44.5173C178.424 44.7733 178.466 45.0293 178.551 45.2426C178.975 45.8826 179.187 46.3093 180.034 46.2666C180.839 46.2239 180.839 44.9439 180.034 44.9866C180.076 44.9866 179.144 43.0666 178.636 42.8533C178.042 42.5973 177.364 42.8106 176.814 43.1519C176.432 43.3653 176.136 43.7066 175.839 44.0053C175.203 44.6453 175.246 45.5839 174.229 44.9439C173.254 44.3466 174.059 43.4079 173.381 42.5546C172.279 41.1466 170.415 41.9146 169.228 42.6826C168.55 43.1093 166.855 44.6453 166.432 42.3839C166.389 42.0853 166.644 41.6159 166.644 41.3173C166.644 40.6346 166.516 40.2506 165.923 39.9519C165.245 39.4399 164.61 40.5493 165.33 40.9333Z" fill="#161616"/>
<path d="M121.004 140.731C121.513 146.704 122.021 152.677 122.572 158.651C122.657 159.461 123.758 159.461 123.843 158.651C123.843 158.523 123.886 158.352 123.886 158.224C123.97 157.413 122.699 157.413 122.614 158.224C122.614 158.352 122.572 158.523 122.572 158.651C122.996 158.651 123.419 158.651 123.843 158.651C123.335 152.677 122.826 146.704 122.275 140.731C122.191 139.92 120.919 139.877 121.004 140.731Z" fill="#FFCC4D"/>
<path d="M121.979 141.2C123.759 140.816 126.852 140.262 128.208 141.755C129.437 143.078 129.14 145.68 129.31 147.472C129.607 151.056 129.903 154.64 130.2 158.182C130.285 158.992 131.556 158.992 131.471 158.182C131.047 153.062 131.005 147.686 130.157 142.608C129.522 138.64 124.606 139.366 121.64 139.963C120.835 140.134 121.174 141.371 121.979 141.2Z" fill="#FFCC4D"/>
<path d="M132.836 117.135C134.192 130.788 134.658 144.484 134.234 158.223C134.192 159.034 135.463 159.034 135.506 158.223C135.929 144.527 135.463 130.788 134.107 117.135C134.023 116.324 132.751 116.282 132.836 117.135Z" fill="#FFCC4D"/>
<path d="M134.355 117.138C136.092 117.394 138.211 117.394 139.821 117.991C141.982 118.759 141.643 122.684 141.855 124.69C142.237 128.572 142.491 132.455 142.745 136.338C143.211 144.402 143.381 152.466 143.55 160.53C143.55 161.34 144.822 161.34 144.822 160.53C144.61 151.228 144.398 141.884 143.762 132.583C143.466 128.231 143.254 123.836 142.576 119.527C141.982 115.858 137.618 116.327 134.694 115.858C133.889 115.815 133.55 117.01 134.355 117.138Z" fill="#FFCC4D"/>
<path d="M145.118 109.113C146.559 125.326 148.042 141.497 149.483 157.71C149.568 158.521 150.839 158.521 150.754 157.71C149.313 141.497 147.83 125.326 146.389 109.113C146.347 108.302 145.076 108.302 145.118 109.113Z" fill="#FFCC4D"/>
<path d="M145.924 109.755C147.958 109.371 150.035 109.243 152.111 109.456C153.849 109.627 155.077 109.968 155.162 111.846C155.204 112.486 155.204 113.168 155.204 113.808C155.332 117.008 155.459 120.208 155.628 123.408C156.179 135.654 156.815 147.856 157.45 160.102C157.493 160.912 158.764 160.912 158.722 160.102C158.044 146.875 157.366 133.691 156.772 120.464C156.645 117.691 156.518 114.96 156.433 112.187C156.391 110.95 156.391 109.712 155.247 108.902C154.187 108.176 152.535 108.134 151.306 108.091C149.399 107.963 147.492 108.134 145.585 108.518C144.78 108.688 145.119 109.926 145.924 109.755Z" fill="#FFCC4D"/>
<path d="M111.896 105.018C110.498 107.791 109.142 110.564 107.743 113.338C107.362 114.063 108.463 114.703 108.845 113.978C110.243 111.204 111.599 108.431 112.998 105.658C113.337 104.932 112.235 104.25 111.896 105.018Z" fill="#161616"/>
<path d="M112.067 106.299C112.661 108.773 113.974 110.949 115.924 112.571C116.559 113.083 117.449 112.187 116.813 111.675C115.034 110.181 113.847 108.261 113.296 106C113.084 105.147 111.856 105.488 112.067 106.299Z" fill="#161616"/>
<path d="M111.186 106.895C110.932 125.583 113.347 144.228 118.39 162.234C118.602 163.044 119.831 162.703 119.619 161.892C114.619 144.015 112.203 125.498 112.457 106.895C112.457 106.084 111.186 106.084 111.186 106.895Z" fill="#161616"/>
<path d="M119.909 163.345C129.824 162.406 139.782 161.894 149.741 161.852C159.021 161.809 169.064 161.425 177.623 165.649C178.344 165.99 178.979 164.924 178.259 164.54C169.953 160.444 160.461 160.529 151.393 160.572C140.884 160.572 130.375 161.084 119.909 162.065C119.103 162.15 119.103 163.43 119.909 163.345Z" fill="#161616"/>
<path d="M172.415 161.252C174.703 162.66 176.906 164.196 178.94 165.903C178.983 165.561 179.025 165.22 179.067 164.878C177.33 166.201 175.635 167.524 173.898 168.846C173.262 169.358 173.898 170.468 174.533 169.956C176.271 168.633 177.966 167.31 179.703 165.988C180 165.774 180.169 165.263 179.83 164.964C177.669 163.172 175.423 161.55 173.05 160.142C172.33 159.758 171.694 160.825 172.415 161.252Z" fill="#161616"/>
<path d="M115.119 128.529C115.754 129.297 116.39 130.065 117.026 130.833C117.28 131.131 117.831 131.046 118.043 130.705C121.433 124.006 124.78 117.265 128.213 110.566C129.102 108.859 130.331 110.267 131.603 110.737C132.408 111.035 133.255 110.95 134.06 110.651C136.094 109.883 137.45 107.75 138.383 105.873C139.908 102.673 141.264 99.3446 142.747 96.1019C143.129 95.2059 143.552 94.3099 143.934 93.4566C144.146 92.9446 144.4 91.8779 144.824 91.4939C146.137 90.2992 149.358 93.0299 150.459 93.7126C152.282 94.8219 154.909 97.2966 157.282 96.6566C159.062 96.1872 159.909 94.2246 160.418 92.6032C162.875 85.3072 166.011 78.6939 170.842 72.6779C171.223 72.2086 170.884 71.3979 170.206 71.6112C168.003 72.3366 166.011 73.4459 164.189 74.8539C163.596 75.3232 164.358 76.1766 164.952 75.8779C166.604 75.0672 168.299 74.2139 169.952 73.4032C169.655 73.2752 169.316 73.1472 169.02 73.0192C169.528 75.5792 170.037 78.1392 170.503 80.6992C170.672 81.5099 171.901 81.1686 171.732 80.3579C171.223 77.7979 170.715 75.2379 170.249 72.6779C170.164 72.2512 169.655 72.1232 169.316 72.2939C167.664 73.1046 165.969 73.9579 164.316 74.7686C164.57 75.1099 164.825 75.4512 165.079 75.7926C166.731 74.4699 168.511 73.5312 170.545 72.8486C170.333 72.5072 170.121 72.1232 169.91 71.7819C166.223 76.3899 163.172 81.4672 160.968 86.9712C160.375 88.4219 159.867 89.9152 159.401 91.4086C159.019 92.6032 158.426 95.1632 156.858 95.4192C155.078 95.7179 152.79 93.6699 151.349 92.7739C149.909 91.8779 148.51 90.8966 147.027 90.0859C145.332 89.1899 144.273 89.5312 143.425 91.1952C141.815 94.3952 140.501 97.8086 139.018 101.094C137.916 103.569 136.518 108.561 133.509 109.371C131.475 109.926 129.611 106.854 127.789 108.646C126.729 109.67 126.179 111.59 125.543 112.87C124.568 114.79 123.636 116.667 122.661 118.587C120.755 122.385 118.805 126.182 116.898 129.979C117.237 129.937 117.576 129.894 117.915 129.851C117.28 129.083 116.644 128.315 116.009 127.547C115.458 126.993 114.568 127.889 115.119 128.529Z" fill="#161616"/>
<path d="M299.576 22.5001C295.423 20.1961 293.643 14.3507 296.27 10.2121C298.94 5.98808 305.423 5.22008 309.195 8.33475C313.051 11.5774 313.093 18.2334 309.407 21.6041C305.593 25.1454 299.194 24.2067 296.059 20.2814C295.55 19.6414 294.66 20.5374 295.169 21.1774C298.093 24.7614 303.305 26.0414 307.585 24.2494C311.737 22.5001 313.898 17.9774 313.348 13.5827C312.797 9.06008 309.449 5.68941 304.957 5.17741C300.677 4.66541 296.101 6.79875 294.491 10.9801C292.711 15.5881 294.703 21.1774 298.982 23.5241C299.66 23.9934 300.296 22.8841 299.576 22.5001Z" fill="#FFCC4D"/>
<path d="M317.969 30.3507C316.189 27.0227 320.765 23.3534 323.054 26.9374C325.088 30.0947 320.087 32.4841 318.477 29.5401C318.096 28.8147 316.994 29.4547 317.375 30.1801C318.392 32.0574 320.765 32.5694 322.63 31.7587C324.833 30.8201 325.384 28.2601 324.155 26.2974C322.884 24.2494 320.257 23.4387 318.223 24.8894C316.316 26.2547 315.723 28.9427 316.824 31.0334C317.291 31.7161 318.392 31.0761 317.969 30.3507Z" fill="#FFCC4D"/>
<path d="M295.679 353.082C329.028 353.082 362.334 353.082 395.684 353.082C396.489 353.082 396.489 351.802 395.684 351.802C362.334 351.802 329.028 351.802 295.679 351.802C294.831 351.802 294.831 353.082 295.679 353.082Z" fill="#161616"/>
<path d="M416.619 353.082C422.976 353.082 429.332 353.082 435.688 353.082C436.493 353.082 436.493 351.802 435.688 351.802C429.332 351.802 422.976 351.802 416.619 351.802C415.814 351.802 415.814 353.082 416.619 353.082Z" fill="#161616"/>
<path d="M199.619 372.452C221.782 372.452 243.986 372.452 266.148 372.452C266.953 372.452 266.953 371.172 266.148 371.172C243.986 371.172 221.782 371.172 199.619 371.172C198.814 371.172 198.814 372.452 199.619 372.452Z" fill="#161616"/>
<path d="M265.295 367.333C284.491 367.333 303.729 367.333 322.925 367.333C323.73 367.333 323.73 366.053 322.925 366.053C303.729 366.053 284.491 366.053 265.295 366.053C264.49 366.053 264.49 367.333 265.295 367.333Z" fill="#161616"/>
<path d="M110.418 363.834C116.223 363.834 121.986 363.834 127.792 363.834C129.02 363.834 129.02 361.914 127.792 361.914C121.986 361.914 116.223 361.914 110.418 361.914C109.189 361.914 109.189 363.834 110.418 363.834Z" fill="#161616"/>
<path d="M133.726 363.834C135.718 363.834 137.667 363.834 139.659 363.834C140.888 363.834 140.888 361.914 139.659 361.914C137.667 361.914 135.718 361.914 133.726 361.914C132.497 361.914 132.497 363.834 133.726 363.834Z" fill="#161616"/>
<path d="M85.7513 286.352C86.5564 286.48 87.6581 287.504 88.5056 292.368C91.0058 292.538 93.5059 292.709 96.006 292.88C98.0824 291.13 100.159 289.381 102.235 287.589C102.532 289.296 102.913 291.813 103.252 294.885C104.015 302.01 103.549 303.717 104.015 307.685C104.227 309.434 105.201 316.816 109.736 323.984C113.21 329.488 115.499 329.658 118.211 335.034C120.329 339.258 120.965 343.226 121.219 345.829C121.643 345.786 127.025 345.36 130.457 349.584C132.025 351.546 133.762 355.216 132.449 358.117C131.177 360.933 128.253 360.506 122.957 365.157C121.092 366.778 119.312 368.4 119.736 369.68C120.16 371.002 122.448 370.746 126.474 372.922C128.592 374.074 129.609 374.672 129.948 375.696C131.22 379.408 123.168 385.125 121.982 385.978C118.083 388.709 113.337 390.842 112.744 389.989C111.854 388.709 121.431 381.669 119.99 378.938C118.931 376.89 112.914 379.45 111.515 377.189C109.99 374.714 115.371 368.528 118.253 365.157C123.804 358.672 127.321 357.05 126.728 354.874C126.092 352.57 121.262 351.034 118.761 352.613C116.643 353.936 117.066 356.922 116.261 358.885C114.736 362.64 107.447 365.712 82.3613 362.896C82.7003 362.213 83.2088 361.402 83.8444 360.634C86.0055 358.117 88.7175 357.221 90.0735 356.88C89.6921 356.24 87.4886 352.442 88.8446 347.834C89.8616 344.336 92.277 342.416 93.0821 341.818C91.3871 338.448 89.6921 334.778 88.0819 330.768C87.0649 328.165 86.1326 325.648 85.3275 323.216C82.9545 323.216 80.2001 322.789 78.0814 320.954C74.9033 318.138 76.1745 314.682 72.8693 312.165C69.7759 309.776 66.0893 310.842 65.4536 308.794C65.157 307.813 65.7503 306.661 66.3859 306.064C67.9961 304.528 70.8776 305.296 74.0134 306.149C76.1745 306.746 79.2679 307.856 82.7003 309.946C81.5561 308.282 79.4798 304.784 79.3526 300.133C79.056 293.136 83.2935 286.01 85.7513 286.352Z" fill="#161616"/>
<path d="M84.2698 316.987C81.3459 318.267 82.4477 326.928 83.507 334.821C84.185 339.813 85.3292 346.427 87.4903 354.149C81.5578 358.757 81.8544 360.08 82.0239 360.421C82.5748 361.573 86.5157 360.891 87.7445 360.677C89.0582 360.464 90.9227 360.123 91.982 359.44C94.9907 357.435 93.4228 351.333 92.4905 341.605C91.1345 327.525 92.7448 321.637 88.253 318.267C87.6598 317.797 85.7105 316.347 84.2698 316.987Z" fill="#161616"/>
<path d="M55.2866 334.65C55.4137 334.607 56.5155 334.053 56.4731 334.01C56.3884 333.967 56.3884 334.65 56.3884 334.821C56.346 335.375 56.1765 336.058 56.2612 336.655C56.4307 337.509 57.0664 337.935 57.9139 337.85C58.38 337.807 58.719 337.594 59.1004 337.295C59.1851 337.21 59.7784 336.698 59.8207 336.698C59.9055 336.741 59.9055 337.679 59.9479 337.765C60.1174 338.575 60.7106 339.258 61.6005 339.173C62.4056 339.087 62.4056 337.807 61.6005 337.893C61.1767 337.935 61.0496 335.631 60.3292 335.375C60.0326 335.247 59.6936 335.333 59.4394 335.461C58.8037 335.759 57.8715 337.125 57.5749 335.93C57.363 335.034 58.2529 333.754 57.4477 332.986C56.685 332.261 55.4137 333.114 54.6934 333.498C53.9306 333.925 54.5662 335.034 55.2866 334.65Z" fill="white"/>
<path d="M84.4293 300.261C85.1497 299.578 86.3786 299.748 86.8871 300.602C87.2261 301.114 88.0312 300.645 87.6922 300.133C86.8447 298.767 84.8955 298.511 83.7513 299.578C83.3276 300.005 84.0056 300.687 84.4293 300.261Z" fill="white"/>
<path d="M93.5075 299.963C94.2702 299.195 95.5415 299.152 96.3466 299.877C96.8127 300.304 97.4907 299.621 97.0246 299.195C95.8381 298.085 93.9736 298.128 92.8295 299.28C92.4057 299.707 93.0837 300.389 93.5075 299.963Z" fill="white"/>
<path d="M86.0965 304.953C85.6304 305.892 83.6387 309.135 85.7999 309.391C86.6897 309.476 87.5372 308.665 88.0457 308.068C88.7661 307.214 89.1899 306.148 89.5712 305.124C89.8679 304.356 88.639 304.015 88.3424 304.783C87.8762 305.977 87.3677 307.086 86.3507 307.94C86.1389 308.11 86.0117 308.409 86.0965 308.025C86.1389 307.769 86.266 307.513 86.3931 307.3C86.6474 306.745 86.9016 306.191 87.1982 305.636C87.5372 304.825 86.4355 304.185 86.0965 304.953Z" fill="#D73F3B"/>
<path d="M87.2425 305.637C87.7933 305.381 88.2171 305.039 88.7256 304.698C88.5561 304.741 88.3866 304.741 88.2171 304.783C88.2595 304.783 88.3019 304.826 88.3442 304.826C88.2171 304.741 88.09 304.613 87.9629 304.527C87.9629 304.271 87.9205 304.271 87.751 304.57C87.6239 304.698 87.5391 304.826 87.412 304.997C87.2001 305.253 87.0306 305.509 86.8611 305.765C86.4797 306.362 86.1407 306.959 85.8017 307.599C85.4204 308.325 86.5221 308.965 86.9035 308.239C87.2849 307.557 87.6662 306.831 88.09 306.191C88.429 305.679 89.1494 305.125 89.1917 304.485C89.2341 304.015 88.8527 303.589 88.429 303.589C88.1324 303.546 87.9205 303.717 87.7086 303.887C87.3272 304.186 86.9882 304.399 86.5221 304.613C85.8865 304.826 86.5221 305.935 87.2425 305.637Z" fill="#D73F3B"/>
<path d="M85.965 304.911C87.3634 304.954 88.677 303.93 88.9313 302.522C89.016 301.924 88.1261 301.668 87.999 302.266C87.8295 303.29 86.982 304.015 85.965 303.972C85.3294 303.93 85.3294 304.868 85.965 304.911Z" fill="white"/>
<path d="M88.1264 302.223C88.2959 303.93 89.779 305.295 91.5164 305.167C92.1097 305.125 92.1097 304.143 91.5164 304.186C90.3299 304.271 89.1858 303.461 89.0587 302.223C89.0163 301.626 88.084 301.626 88.1264 302.223Z" fill="white"/>
<path d="M345.641 221.797C331.615 238.906 317.632 255.973 303.605 273.082C325.598 278.586 347.591 284.09 369.583 289.594C370.304 280.421 370.473 261.69 360.346 242.106C355.769 233.232 350.303 226.576 345.641 221.797Z" fill="#8AA6BF"/>
<path d="M299.496 276.538C321.701 282.17 343.947 287.759 366.152 293.391C365.898 296.975 365.177 301.967 363.059 307.514C360.558 314.17 357.041 318.991 354.499 321.978C336.193 306.831 317.844 291.685 299.496 276.538Z" fill="#D73F3B"/>
<path d="M296.227 352.443C337.018 352.443 370.086 318.307 370.086 276.197C370.086 234.088 337.018 199.952 296.227 199.952C255.435 199.952 222.367 234.088 222.367 276.197C222.367 318.307 255.435 352.443 296.227 352.443Z" stroke="#161616" stroke-width="1.27875" stroke-miterlimit="10"/>
<path d="M297.157 274.576C297.326 274.406 297.75 274.534 297.835 274.747C297.877 274.576 297.877 274.406 297.92 274.235C297.877 274.32 297.75 274.278 297.708 274.235C297.369 274.107 297.03 274.363 296.945 274.662C296.86 275.003 297.072 275.344 297.369 275.43C297.877 275.6 298.471 275.472 298.81 275.088C299.233 274.662 299.106 274.064 298.725 273.68C298.047 272.998 296.987 272.955 296.309 273.595C295.631 274.192 296.521 275.131 297.157 274.576Z" fill="#161616"/>
<path d="M341.831 216.719C328.313 236.516 313.779 255.631 298.312 273.935C297.803 274.575 298.693 275.471 299.202 274.831C314.753 256.441 329.33 237.284 342.933 217.359C343.399 216.676 342.297 216.036 341.831 216.719Z" fill="#161616"/>
<path d="M297.671 275.387C321.571 279.697 345.301 284.774 368.861 290.662C369.666 290.875 370.005 289.638 369.2 289.425C345.64 283.579 321.91 278.459 298.01 274.15C297.205 274.022 296.866 275.259 297.671 275.387Z" fill="#161616"/>
<path d="M297.584 275.172C315.678 291.855 334.323 307.897 353.519 323.343C354.155 323.855 355.045 322.959 354.409 322.447C335.256 307.044 316.568 290.959 298.474 274.276C297.881 273.721 296.949 274.617 297.584 275.172Z" fill="#161616"/>
<path opacity="0.21" d="M296.27 200.122C297.838 207.162 298.897 217.189 295.041 227.429C286.27 250.81 260.802 251.962 251.141 271.034C245.886 281.402 244.573 298.554 261.184 328.421C261.184 333.456 261.184 338.448 261.184 343.482C256.268 340.709 250.844 336.954 245.632 331.834C225.843 312.336 222.792 286.864 222.156 277.178C222.199 270.181 223.173 247.44 239.827 227.13C243.598 222.522 256.989 206.736 279.786 201.658C286.439 200.208 292.202 199.994 296.27 200.122Z" fill="#6D6C6C"/>
<path d="M170.841 319.759C173.765 327.183 176.689 334.564 179.57 341.988C177.833 345.828 175.163 351.503 171.477 358.287C166.646 367.161 164.358 370.148 165.121 371.044C166.222 372.324 173.384 369.124 201.182 348.175C199.444 343.311 197.665 338.404 195.927 333.412C193.385 326.159 190.927 318.991 188.512 311.865C182.664 314.511 176.774 317.156 170.841 319.759Z" fill="#161616"/>
<path d="M248.981 189.711C253.685 197.775 250.337 210.276 249.871 211.94C247.286 221.625 241.438 222.564 219.997 243.001C206.564 255.844 202.708 261.049 199.869 266.767C196.012 274.617 194.614 281.913 194.063 286.863C195.801 297.103 197.538 307.3 199.275 317.54C194.826 320.441 188.597 323.897 180.63 326.329C175.037 328.036 169.952 328.889 165.757 329.273C161.858 319.332 156.265 300.985 159.273 278.671C162.918 251.492 177.198 233.7 189.063 218.937C207.115 196.495 228.006 181.945 245.888 172.559C245.295 175.759 244.956 180.367 246.735 185.231C247.583 187.535 248.515 188.9 248.981 189.711Z" fill="#D73F3B"/>
<path opacity="0.2" d="M241.945 178.148C236.648 192.57 230.292 203.748 224.529 212.154C207.367 237.284 194.697 239.332 184.569 262.671C178.086 277.604 176.687 291.855 176.264 296.975C175.204 308.879 176.136 318.991 177.323 326.415C179.696 326.33 182.662 325.988 185.925 325.05C192.239 323.215 196.731 320.015 199.316 317.754C198.595 314.298 197.536 309.178 196.349 302.906C194.739 294.202 193.934 289.807 193.934 286.692C193.934 277.519 197.79 270.607 200.926 265.103C202.409 262.5 206.731 255.29 221.859 241.338C237.834 226.618 244.487 224.058 248.682 213.263C251.183 206.82 251.14 201.7 251.098 200.036C250.716 188.815 244.445 180.964 241.945 178.148Z" fill="#6D6C6C"/>
<path opacity="0.27" d="M251.054 203.535C242.367 210.874 229.952 221.839 215.671 235.919C194.95 256.399 191.263 262.373 189.653 265.359C185.161 273.679 177.449 292.623 185.076 324.239C187.577 323.215 190.161 322.063 192.873 320.741C195.034 319.674 197.111 318.565 199.06 317.498C197.365 307.514 195.67 297.53 193.975 287.503C194.102 283.749 194.696 278.117 197.196 271.845C197.789 270.351 199.526 266.213 203.891 260.239C207.366 255.461 210.713 252.218 217.281 245.946C222.536 240.911 227.621 235.62 233.087 230.842C242.918 222.266 247.325 219.919 249.698 213.306C251.097 209.423 251.181 205.882 251.054 203.535Z" fill="#6D6C6C"/>
<path d="M217.496 318.821C223.937 323.813 230.378 328.805 236.819 333.797C228.259 355.642 228.259 361.317 229.997 362.298C232.878 363.962 242.328 353.68 247.709 346.128C252.498 339.344 255.295 332.986 256.905 328.549C254.278 325.178 251.269 321.68 247.921 318.096C243.302 313.146 238.768 308.922 234.488 305.253C228.853 309.818 223.174 314.298 217.496 318.821Z" fill="#161616"/>
<path d="M283.6 189.712C287.372 199.782 285.084 209.51 284.49 211.942C280.168 230.032 264.108 244.966 258.43 250.171C248.726 259.131 240.675 263.611 236.183 275.558C234.615 279.654 233.979 283.28 233.725 285.755C236.818 292.88 239.912 300.006 243.005 307.088C240.971 311.483 236.522 319.59 227.538 325.776C223.725 328.422 219.996 330.043 216.945 331.11C210.504 324.496 193.045 304.87 193.977 278.63C194.698 258.491 206.012 242.278 214.741 229.691C223.513 217.104 225.759 218.64 236.818 202.555C246.395 188.603 248.217 182.246 256.269 179.43C264.362 176.571 276.227 178.15 281.439 185.232C282.456 186.726 282.922 187.963 283.6 189.712Z" fill="#D73F3B"/>
<path opacity="0.24" d="M263.898 187.793C264.364 191.719 264.703 198.46 262.754 206.225C255.974 232.636 231.142 234.94 219.192 263.527C216.862 269.116 211.438 282.641 215.718 298.3C219.023 310.503 226.735 318.439 231.1 322.279C232.795 321.383 235.591 319.591 238.049 316.433C241.1 312.508 242.075 308.497 242.414 306.492C239.405 299.196 236.397 291.857 233.43 284.561C233.981 281.319 235.125 276.668 237.795 271.676C241.439 264.764 245.846 261.265 251.524 256.103C261.949 246.673 268.602 240.7 274.365 232.465C278.009 227.217 283.306 219.495 285.043 208.188C286.484 198.972 284.958 191.249 283.645 186.599C277.077 187.025 270.466 187.409 263.898 187.793Z" fill="#6D6C6C"/>
<path opacity="0.25" d="M285.466 201.488C282.118 207.675 276.355 217.318 267.456 227.643C250.337 247.483 238.726 251.622 230.76 266.896C227.327 273.467 224.191 284.304 228.047 301.712C232.921 303.675 237.836 305.638 242.709 307.643C239.616 300.304 236.565 293.008 233.472 285.67C233.768 282.043 234.658 276.667 237.667 271.12C240.336 266.171 243.303 263.568 249.828 257.595C260.634 247.696 266.058 242.747 268.261 240.272C273.304 234.683 278.813 228.411 282.288 218.726C284.83 211.856 285.381 205.67 285.466 201.488Z" fill="#6D6C6C"/>
<path d="M182.332 130.235C181.188 127.675 179.196 123.963 175.552 120.592C170.975 116.368 164.577 113.339 163.56 114.576C163.136 115.088 163.178 116.88 170.891 125.456" fill="white"/>
<path d="M182.332 130.235C181.188 127.675 179.196 123.963 175.552 120.592C170.975 116.368 164.577 113.339 163.56 114.576C163.136 115.088 163.178 116.88 170.891 125.456" stroke="#161616" stroke-width="0.8525" stroke-miterlimit="10"/>
<path d="M166.358 123.237C164.706 124.261 161.782 126.437 160.214 130.192C159.621 131.643 158.858 133.52 159.409 135.696C160.384 139.451 164.875 141.029 165.257 141.2C167.079 141.84 167.545 141.371 168.859 142.139C170.977 143.376 170.893 145.04 172.46 146.576C175.681 149.691 182.207 148.453 182.503 147.131C182.673 146.405 180.808 145.723 180.978 144.4C181.063 143.589 181.868 143.248 182.419 142.736C185.385 140.005 182.546 132.027 182.037 130.704C181.571 129.467 180.851 127.675 179.579 125.669" fill="white"/>
<path d="M166.358 123.237C164.706 124.261 161.782 126.437 160.214 130.192C159.621 131.643 158.858 133.52 159.409 135.696C160.384 139.451 164.875 141.029 165.257 141.2C167.079 141.84 167.545 141.371 168.859 142.139C170.977 143.376 170.893 145.04 172.46 146.576C175.681 149.691 182.207 148.453 182.503 147.131C182.673 146.405 180.808 145.723 180.978 144.4C181.063 143.589 181.868 143.248 182.419 142.736C185.385 140.005 182.546 132.027 182.037 130.704C181.571 129.467 180.851 127.675 179.579 125.669" stroke="#161616" stroke-width="0.8525" stroke-miterlimit="10"/>
<path d="M158.69 135.143C159.665 137.703 161.529 139.964 164.114 140.988C166.742 142.055 168.691 140.647 168.733 137.831C168.733 137.02 167.462 137.02 167.462 137.831C167.42 141.116 164.199 139.922 162.589 138.599C161.36 137.618 160.47 136.295 159.919 134.802C159.623 134.034 158.394 134.332 158.69 135.143Z" fill="#161616"/>
<path d="M161.868 131.643C163.139 134.032 164.834 136.677 167.462 137.659C169.835 138.555 171.233 137.104 171.487 134.843C171.572 134.032 170.301 134.032 170.216 134.843C169.835 138.213 166.572 135.867 165.428 134.672C164.411 133.605 163.648 132.325 162.97 131.003C162.588 130.277 161.487 130.917 161.868 131.643Z" fill="#161616"/>
<path d="M165.677 125.885C166.44 127.592 167.203 129.341 168.262 130.877C168.983 131.944 170 133.48 171.398 133.736C174.703 134.376 173.644 129.64 173.008 128.018C172.712 127.25 171.483 127.592 171.779 128.36C172.076 129.085 172.712 130.578 172.457 131.389C171.737 133.736 169.788 130.834 169.364 130.237C168.305 128.701 167.542 126.952 166.779 125.245C166.44 124.477 165.338 125.117 165.677 125.885Z" fill="#161616"/>
<path d="M166.308 123.963C167.579 123.323 169.147 124.475 170.037 125.328C170.927 126.182 171.52 127.291 171.986 128.4C172.283 129.168 173.512 128.827 173.215 128.059C172.156 125.414 169.02 121.19 165.672 122.854C164.952 123.195 165.588 124.304 166.308 123.963Z" fill="#161616"/>
<path d="M258.227 110.865C259.583 114.918 257.507 118.374 251.701 128.785C241.955 146.108 241.362 147.644 239.116 150.374C233.819 156.774 230.81 160.401 225.259 162.748C215.132 167.014 203.902 163.26 197.758 160.913C192.037 158.694 187.8 155.836 185.045 153.702C183.181 152.166 181.74 150.972 180.808 150.246C178.858 148.668 177.969 147.985 177.206 146.62C177.163 146.577 176.443 145.254 176.274 143.761C175.638 139.196 180.13 135.356 180.469 135.057C175.087 136.337 173.223 136.081 172.884 135.313C172.079 133.606 177.926 127.334 182.037 128.742C183.986 129.382 184.96 131.601 185.681 133.222C187.079 136.294 186.91 139.153 186.74 140.604C189.325 142.396 193.012 144.486 197.715 145.894C206.996 148.625 214.962 147.174 218.903 146.15C221.064 142.652 224.581 136.934 228.861 129.809C240.557 110.268 243.65 104.081 249.032 103.996C253.057 103.953 257.04 107.324 258.227 110.865Z" fill="white" stroke="#161616" stroke-width="0.8525" stroke-miterlimit="10"/>
<path d="M180.084 136.167C176.44 135.996 175.932 140.732 175.465 143.42C175.889 143.463 176.313 143.548 176.694 143.591C176.737 141.884 177.499 140.476 178.305 139.025C178.728 138.3 177.627 137.66 177.203 138.385C175.55 141.073 174.533 144.401 176.821 147.047C177.118 146.748 177.415 146.449 177.711 146.151C177.076 145.596 176.737 144.871 176.694 143.975C176.271 144.017 175.847 144.103 175.465 144.145C175.677 144.828 175.932 145.468 176.271 146.108C176.652 146.833 177.754 146.193 177.372 145.468C177.076 144.956 176.821 144.401 176.694 143.804C176.525 143.121 175.381 143.249 175.465 143.975C175.593 145.212 175.974 146.151 176.864 147.047C177.457 147.644 178.305 146.748 177.754 146.151C175.889 143.975 177.076 141.201 178.347 139.025C177.966 138.812 177.627 138.599 177.245 138.385C176.313 140.049 175.508 141.628 175.465 143.591C175.423 144.316 176.61 144.487 176.694 143.761C177.033 141.799 177.33 137.361 180.084 137.447C180.889 137.489 180.889 136.209 180.084 136.167Z" fill="white"/>
<path opacity="0.21" d="M251.743 105.745C249.074 112.956 244.751 123.238 237.929 134.886C230.98 146.79 227.335 152.764 221.064 155.921C208.182 162.364 188.308 158.012 181.613 145.681C179.579 141.926 179.112 138.129 179.112 135.27C177.502 135.825 175.002 136.422 172.587 135.484C167.163 133.308 166.654 125.158 163.773 125.244C161.866 125.329 160.468 128.956 159.959 130.278C159.493 131.473 158.73 133.436 159.196 135.484C159.874 138.513 163.052 140.902 167.036 141.67C169.112 142.694 170.426 143.846 171.231 144.742C172.629 146.278 173.01 147.473 174.494 148.198C175.807 148.838 177.206 148.753 178.138 148.582C180.129 150.204 183.265 152.636 187.333 155.153C196.062 160.529 206.614 167.014 218.564 164.796C224.2 163.772 228.056 161.169 230.429 159.59C234.285 156.988 238.438 153.062 246.319 138.769C249.582 132.838 253.608 124.945 257.633 115.217C257.803 114.79 258.735 112.273 257.422 109.628C255.811 106.129 251.955 105.745 251.743 105.745Z" fill="#6D6C6C"/>
<path opacity="0.22" d="M171.566 135.398C170.973 135.824 171.227 136.678 170.507 137.318C169.999 137.744 169.321 137.744 168.897 137.744C168.897 138.342 168.812 139.11 168.346 139.792C167.753 140.646 166.948 140.816 166.99 141.158C167.075 141.542 168.261 141.328 169.405 141.968C170.21 142.438 170.719 143.163 171.016 143.718C173.812 141.03 176.609 138.384 179.406 135.696C177.287 136.507 175.719 136.379 174.66 136.123C173.304 135.696 172.287 134.886 171.566 135.398Z" fill="#6D6C6C"/>
<path d="M257.88 102.501C255.041 105.359 253.558 108.602 250.677 115.087C248.388 120.165 244.702 128.655 243.473 139.962C242.117 152.591 245.295 155.45 242.753 164.837C240.846 171.919 237.244 177.125 234.574 180.282C238.007 183.738 244.236 189.071 253.516 192.357C269.237 197.903 283.051 193.722 287.585 192.101C291.357 181.861 295.086 171.621 298.857 161.423C298.899 152.762 299.238 145.381 299.577 139.663C300.425 126.01 301.823 115.557 302.713 109.199C303.73 101.733 304.79 95.4605 305.595 90.8525C296.06 91.3645 288.179 92.4739 282.543 93.4979C264.067 96.9112 259.703 100.666 257.88 102.501Z" fill="white" stroke="#161616" stroke-width="0.8525" stroke-miterlimit="10"/>
<path opacity="0.19" d="M280.342 93.7974C282.249 98.3627 284.707 105.744 285.257 115.003C286.571 137.019 276.02 154.256 268.011 167.312C264.367 173.243 258.731 181.477 250.383 190.395C253.603 192.101 258.222 194.021 264.028 194.96C274.537 196.667 283.096 194.107 287.334 192.485C290.893 182.16 294.41 171.877 297.97 161.552C298.182 154.512 298.563 147.216 299.114 139.792C300.385 122.469 302.462 106.213 305.004 91.1094C296.783 92.0054 288.563 92.9014 280.342 93.7974Z" fill="#6D6C6C"/>
<path opacity="0.11" d="M287.928 92.4743C290.979 100.41 294.157 111.973 293.436 125.882C291.402 164.581 260.977 188.005 255.723 191.93C258.943 193.082 263.308 194.277 268.605 194.618C276.486 195.13 282.885 193.509 286.826 192.144C290.724 181.818 294.665 171.536 298.564 161.21C298.564 151.781 298.903 141.712 299.708 131.045C300.81 116.666 302.632 103.354 304.835 91.3223C299.199 91.7063 293.564 92.0903 287.928 92.4743Z" fill="#6D6C6C"/>
<path d="M304.032 90.2988C307.464 91.5788 312.507 94.0535 316.151 99.0455C320.219 104.635 321.109 111.376 318.779 132.752C316.617 152.635 314.753 156.901 314.032 168.848C313.227 181.989 314.456 192.741 315.6 199.611C320.431 198.459 325.262 197.307 330.093 196.155C335.347 197.563 338.525 200.165 340.093 201.744C341.661 203.28 344.966 206.523 344.034 209.168C343.441 210.875 341.28 211.728 340.347 212.069C338.525 212.795 337 212.709 335.347 212.581C331.83 212.368 328.313 212.24 324.796 212.069C322.974 211.984 320.346 211.899 317.168 212.069C321.448 215.781 323.27 218.171 322.719 219.237C321.957 220.645 316.872 219.664 307.422 216.336C306.998 212.88 306.32 207.632 305.303 201.232C302.676 184.507 300.769 178.533 299.498 169.659C298.184 160.485 298.608 152.208 299.498 135.696C300.176 124.005 301.405 108.56 304.032 90.2988Z" fill="white" stroke="#161616" stroke-width="0.8525" stroke-miterlimit="10"/>
<path d="M323.69 206.396C326.953 205.031 330.343 205.799 333.479 207.207C336.148 208.359 338.776 209.767 340.852 211.815C341.445 212.369 342.335 211.473 341.742 210.919C339.326 208.572 336.318 206.993 333.224 205.756C330.046 204.433 326.614 203.836 323.309 205.201C322.631 205.457 322.97 206.695 323.69 206.396Z" fill="#161616"/>
<path d="M327.85 202.469C333.486 201.36 340.181 204.731 343.275 209.552C343.741 210.235 344.843 209.595 344.376 208.912C340.902 203.579 333.783 200.037 327.511 201.275C326.706 201.403 327.045 202.64 327.85 202.469Z" fill="#161616"/>
<path d="M332.721 199.526C334.967 199.611 336.916 200.593 338.865 201.659C339.586 202.043 340.221 200.934 339.501 200.55C337.34 199.398 335.179 198.331 332.721 198.246C331.916 198.203 331.916 199.483 332.721 199.526Z" fill="#161616"/>
<path opacity="0.16" d="M304.625 91.3232C306.744 96.1446 309.752 103.995 311.278 114.065C314.965 138.726 305.896 151.569 307.506 178.235C307.888 184.849 309.117 194.705 313.015 206.694C316.405 205.585 321.575 204.475 327.635 205.158C331.914 205.67 334.033 205.926 336.152 207.462C338.271 208.998 339.5 211.046 341.661 210.918C342.508 210.875 343.652 210.491 344.118 209.595C345.263 207.505 342.127 203.921 341.067 202.726C339.542 200.977 336.406 197.99 330.643 196.241C325.643 197.265 320.643 198.289 315.642 199.313C314.668 194.961 313.312 187.707 313.185 178.705C313.058 171.025 314.414 161.723 317.168 143.377C317.677 139.963 318.312 133.094 319.626 119.313C320.05 114.79 320.389 110.737 318.863 105.745C318.1 103.227 316.236 97.5099 310.727 93.9259C308.396 92.3046 306.15 91.6646 304.625 91.3232Z" fill="#6D6C6C"/>
<path opacity="0.22" d="M313.902 211.814C314.453 213.18 315.64 215.526 318.055 217.361C319.538 218.47 322.123 219.836 322.589 219.281C323.182 218.598 320.937 214.844 317.462 212.966C316.148 212.241 314.835 211.942 313.902 211.814Z" fill="#6D6C6C"/>
<path opacity="0.4" d="M318.653 126.438C314.797 137.105 310.178 154.214 311.449 175.334C312.085 186.129 314.161 195.43 316.365 202.812C314.161 194.364 313.526 187.366 313.314 182.588C312.805 169.83 315.094 162.662 317.467 139.238C318.06 133.82 318.441 129.34 318.653 126.438Z" fill="#6D6C6C"/>
<path opacity="0.22" d="M327.212 201.489C327.127 200.977 331.365 199.014 335.56 199.953C341.196 201.233 343.823 207.206 344.289 208.358C342.298 206.097 339.077 203.153 334.416 202.043C330.475 201.147 327.255 201.915 327.212 201.489Z" fill="#6D6C6C"/>
<path d="M242.288 81.5511C240.509 83.2151 240.127 86.7138 239.407 93.5831C238.602 101.476 238.263 105.487 239.915 107.492C242.924 111.162 249.407 111.375 253.899 109.37C259.196 106.98 261.018 101.818 261.484 100.538C263.561 94.6071 262.883 85.6471 256.611 81.5511C252.374 78.7351 245.805 78.2658 242.288 81.5511Z" fill="#161616"/>
<path d="M251.443 87.7797C252.078 90.8517 255.468 91.1078 258.35 96.0144C260.426 99.5558 260.85 103.182 260.892 105.785C263.477 105.742 268.265 105.23 273.435 102.542C277.461 100.409 280.173 97.7211 281.741 95.8864C280.681 94.1371 279.113 91.5771 277.249 88.5051C269.198 75.4918 268.011 74.4678 266.401 74.0411C259.875 72.4624 250.214 82.0624 251.443 87.7797Z" fill="white" stroke="#161616" stroke-width="0.8525" stroke-miterlimit="10"/>
<path d="M264.618 82.6166C262.669 86.7553 260.677 90.8513 257.965 94.5633C258.304 94.5206 258.643 94.478 258.982 94.4353C258.728 94.1366 258.474 93.7953 258.262 93.4966C258.22 93.7526 258.177 94.0086 258.177 94.2646C259.279 93.326 260.127 92.302 260.889 91.0646C260.508 90.8513 260.169 90.638 259.788 90.4246C259.194 91.7046 258.432 92.4726 257.203 93.0273C257.457 93.3686 257.711 93.71 257.965 94.0513C260.169 91.9606 262.161 89.6566 263.94 87.182C264.406 86.4993 263.305 85.8593 262.839 86.542C261.144 88.9313 259.194 91.15 257.076 93.1553C256.525 93.6673 257.245 94.4353 257.838 94.1793C259.237 93.5393 260.254 92.5153 260.889 91.1073C261.228 90.382 260.254 89.742 259.788 90.4673C259.067 91.5766 258.262 92.5153 257.287 93.4113C257.076 93.582 257.033 93.966 257.203 94.1793C257.584 94.7766 257.626 94.862 258.135 95.374C258.432 95.7153 258.898 95.5446 259.152 95.246C261.864 91.5766 263.856 87.438 265.805 83.2993C266.059 82.5313 264.957 81.8913 264.618 82.6166Z" fill="#161616"/>
<path d="M223.563 49.8497C221.614 53.4764 222.08 57.1457 223.012 64.3137C224.114 72.4204 225.555 79.2044 227.292 83.6844C227.547 84.3671 228.225 84.751 228.945 84.6657C229.877 84.5804 231.276 83.855 232.081 83.599C233.098 85.4337 234.793 87.9084 237.42 90.2124C242.632 94.735 248.353 95.8017 250.895 96.1004C253.395 95.1617 259.582 92.3884 263.692 85.7324C266.404 81.295 266.955 77.199 267.082 76.2604C267.803 70.1164 265.769 65.3377 264.794 63.3751C265.684 62.8204 267.04 61.8391 267.972 60.1751C269.922 56.7191 269.837 51.0017 266.743 49.4657C264.413 48.3137 260.726 49.5937 258.226 52.879C257.421 51.4711 256.192 49.5937 254.327 47.7164C253.861 47.247 250.429 43.7484 246.531 42.1697C238.903 39.1404 227.547 42.4684 223.563 49.8497Z" fill="white" stroke="#161616" stroke-width="0.8525" stroke-miterlimit="10"/>
<path d="M234.749 87.5265C237.672 86.7585 239.367 84.2838 240.851 81.8518C241.274 81.1691 240.173 80.5291 239.749 81.2118C238.435 83.3451 236.952 85.6064 234.41 86.3318C233.604 86.5024 233.943 87.7398 234.749 87.5265Z" fill="#161616"/>
<path d="M238.604 81.7644C239.452 81.807 240.13 82.1484 240.681 82.7884C241.232 83.4284 242.121 82.4897 241.571 81.8924C240.808 80.9964 239.748 80.527 238.604 80.4844C237.757 80.4844 237.757 81.7644 238.604 81.7644Z" fill="#161616"/>
<path d="M235.388 74.7241C235.388 74.6814 235.388 74.6387 235.388 74.5961C235.388 74.2547 235.092 73.9561 234.753 73.9561C234.414 73.9561 234.117 74.2547 234.117 74.5961C234.117 74.6387 234.117 74.6814 234.117 74.7241C234.117 75.0654 234.414 75.3641 234.753 75.3641C235.092 75.3214 235.388 75.0654 235.388 74.7241Z" fill="#161616"/>
<path d="M238.217 71.3112C239.022 71.3112 239.022 70.0312 238.217 70.0312C237.412 70.0312 237.412 71.3112 238.217 71.3112Z" fill="#161616"/>
<path d="M237.83 74.5554C238.636 74.5554 238.636 73.2754 237.83 73.2754C237.025 73.2754 237.025 74.5554 237.83 74.5554Z" fill="#161616"/>
<path d="M221.738 64.3991C220.382 63.9298 217.501 62.6924 215.848 59.8338C213.263 55.3964 215.34 50.2338 216.357 47.8018C216.907 46.4364 218.433 43.0658 225.806 36.4524C231.4 31.3751 234.239 28.8578 237.417 27.4498C248.773 22.4578 260.384 27.2364 262.503 28.1324C265.639 29.4124 267.927 30.9911 272.461 34.0631C277.97 37.8178 281.487 40.2498 284.241 44.4311C287.589 49.5511 285.555 50.8738 288.436 56.6338C293.013 65.7644 299.327 64.6551 303.098 73.1031C303.734 74.5111 307.251 82.3618 303.268 89.2311C300.005 94.8204 293.352 96.8258 288.436 96.6978C279.326 96.4418 273.605 88.5911 270.597 84.4951C264.876 76.6871 263.774 68.4098 263.52 63.9724C267.122 62.1378 268.52 58.2124 267.207 55.4818C266.19 53.3058 263.223 51.4711 260.638 52.5804C258.859 53.3484 257.715 55.3964 257.757 57.6578C256.062 57.9564 250.85 58.5964 245.468 55.6098C241.485 53.4338 239.324 50.3618 238.392 48.8258C236.019 49.7644 232.205 51.5564 228.433 55.0978C224.832 58.5111 222.798 62.0951 221.738 64.3991Z" fill="#161616"/>
<path opacity="0.24" d="M249.368 66.874C254.071 71.3113 256.359 76.218 257.08 77.882C260.046 84.7086 259.877 90.9806 259.58 94.1806C261.105 91.578 262.589 88.9753 264.114 86.33C266.572 91.8766 268.987 97.4233 271.445 102.927C272.759 102.629 275.343 101.861 277.844 99.642C279.75 97.9353 280.767 96.1006 281.276 94.9486C277.716 92.3886 270.725 86.586 266.657 76.602C264.707 71.8233 263.945 67.386 263.69 64.058C267.123 62.1806 268.563 58.426 267.419 55.61C266.614 53.562 264.114 51.258 261.36 52.026C259.029 52.666 257.419 55.1833 257.8 57.9993C256.02 58.2126 251.783 58.5113 247.079 56.4206C242.206 54.2446 239.537 50.7033 238.52 49.21C239.664 56.762 242.545 60.858 244.961 63.2046C246.486 64.7833 247.122 64.7833 249.368 66.874Z" fill="#6D6C6C"/>
<path opacity="0.24" d="M263.774 68.9219C263.477 68.9219 263.646 73.3165 263.223 77.3699C262.672 82.5752 261.146 86.7139 259.875 89.4872C261.019 88.7619 262.714 87.3965 264.197 85.2632C266.316 82.1485 266.697 79.0765 266.824 77.5832C266.443 76.9859 265.935 76.1325 265.469 75.0659C263.985 71.6525 264.028 68.9219 263.774 68.9219Z" fill="#6D6C6C"/>
<path opacity="0.19" d="M265.258 83.7268C266.275 84.7934 267.716 86.2015 269.58 87.7375C275.216 92.4735 280.682 95.1614 280.852 94.8628C281.021 94.5641 275.682 92.3881 271.614 86.5001C269.072 82.8308 267.588 78.4788 266.953 78.6921C266.656 78.7774 266.91 79.8014 266.402 81.4654C266.063 82.4468 265.597 83.2148 265.258 83.7268Z" fill="#6D6C6C"/>
<path opacity="0.74" d="M269.961 32.4844C274.961 41.1884 278.521 48.783 280.936 54.415C287.674 70.2444 287.123 74.5964 286.191 77.4124C284.114 83.7697 278.351 87.3537 274.919 89.0604C275.766 90.255 279.283 94.991 285.724 96.3137C286.953 96.5697 294.369 97.9777 300.005 92.815C304.2 89.0177 304.836 83.983 304.963 82.6604C305.725 75.4924 301.488 70.1164 300.132 68.5804C298.352 66.575 297.971 67.0444 293.818 62.991C290.598 59.8764 289.03 58.2977 288.097 56.335C286.614 53.135 287.589 51.7697 285.852 47.7164C284.919 45.4977 283.818 44.0044 283.012 42.8524C278.902 37.263 272.97 33.9777 269.961 32.4844Z" fill="#161616"/>
<path opacity="0.52" d="M239.835 95.8452C240.216 100.795 244.708 104.379 249.411 103.696C253.945 103.013 257.208 98.5758 256.403 93.8398C257.251 94.8212 258.437 96.4425 259.285 98.6612C259.963 100.411 260.217 101.989 260.302 103.141C259.666 104.208 256.361 109.499 250.174 110.523C249.115 110.693 243.097 111.589 240.258 107.963C238.902 106.171 238.775 103.995 238.69 102.245C238.606 99.3865 239.326 97.1252 239.835 95.8452Z" fill="#161616"/>
<path d="M231.865 67.6844C232.289 68.5377 232.289 69.7751 231.738 70.0311C231.187 70.3297 230.128 69.519 229.746 68.5804C229.45 67.7697 229.535 66.6177 230.085 66.4044C230.679 66.1911 231.526 66.9591 231.865 67.6844Z" fill="#161616"/>
<path d="M228.393 66.7026C229.876 66.1906 231.401 65.8066 232.969 65.5506C233.562 65.4653 233.308 64.5266 232.715 64.6119C231.147 64.8679 229.622 65.2519 228.138 65.7639C227.545 65.9773 227.799 66.8733 228.393 66.7026Z" fill="#161616"/>
<path d="M515.976 382.761C517.217 379.133 522.568 379.217 522.562 383.47C522.562 385.389 521.259 387.211 519.355 387.2C517.647 387.187 516.064 385.782 515.882 383.993C515.794 382.89 514.173 383.021 514.261 384.123C514.55 386.726 516.558 388.718 519.044 388.93C521.724 389.14 523.904 386.829 524.157 384.044C524.394 381.339 522.873 378.861 520.3 378.507C517.951 378.197 515.394 379.681 514.547 382.137C514.173 383.021 515.616 383.772 515.976 382.761Z" fill="#161616"/>
<path d="M498.398 264.988C497.988 258.565 502.991 252.113 509.215 251.915C515.56 251.7 520.853 258.405 520.135 265.016C519.34 271.821 512.274 276.937 506.138 275.359C499.731 273.767 496.316 265.859 498.336 259.345C498.667 258.285 497.098 257.967 496.767 259.026C494.964 265.043 497.197 271.877 502.06 275.324C506.791 278.661 513.103 277.647 517.407 273.681C521.848 269.618 523.131 263.288 520.577 257.848C518.169 252.646 512.737 249.126 507.169 250.499C501.029 252.007 496.445 258.502 496.897 265.101C496.865 266.221 498.486 266.09 498.398 264.988Z" fill="#FFCC4D"/>
<path d="M401.944 400.587C406.779 396.107 415.238 396.698 419.538 402.424C423.931 408.253 422.123 417.502 416.388 421.042C410.448 424.632 401.678 421.25 398.849 414.474C395.85 407.436 399.866 399.184 406.39 396.931C407.453 396.567 406.661 394.889 405.599 395.253C399.615 397.393 395.667 403.848 396.163 410.619C396.658 417.193 401.665 422.481 407.683 424C413.869 425.586 419.756 422.757 422.381 416.888C424.915 411.308 424.099 403.957 419.301 399.597C414.016 394.786 405.801 394.616 400.855 399.248C399.944 399.931 401.126 401.372 401.944 400.587Z" fill="#FFCC4D"/>
<path d="M423.53 423.701C428.685 422.99 431.524 431.146 425.81 432.42C420.769 433.567 419.8 425.494 424.376 424.816C425.497 424.67 425.134 422.832 424.013 422.978C421.099 423.397 419.392 426.377 419.648 429.345C419.925 432.844 423.055 434.922 426.173 434.257C429.423 433.579 431.633 430.407 430.609 426.875C429.641 423.561 426.361 421.359 423.129 421.784C422.028 422.068 422.391 423.905 423.53 423.701Z" fill="#FFCC4D"/>
<path d="M494.74 280.949C497.061 276.411 504.134 278.764 501.892 284.069C499.929 288.763 493.928 284.958 495.956 280.903C496.466 279.922 495.023 279.17 494.513 280.152C493.213 282.726 494.305 285.786 496.457 287.266C498.98 289.029 502.091 287.698 503.335 284.821C504.642 281.83 503.692 278.257 500.741 277.074C497.968 275.969 494.691 277.35 493.222 280.182C492.816 281.227 494.259 281.978 494.74 280.949Z" fill="#FFCC4D"/>
<path d="M489.242 77.2791C497.568 87.3501 505.966 97.6464 510.3 110.488C510.68 111.533 512.207 111.001 511.874 109.922C507.484 96.7749 498.861 86.2225 490.341 75.9435C489.685 75.0945 488.586 76.43 489.242 77.2791Z" fill="#E8E8E8"/>
<path d="M41.2065 143.774C44.2155 146.266 42.0061 152.029 37.9019 150.674C36.0492 150.065 34.8086 148.079 35.5762 146.022C36.2683 144.177 38.2546 142.911 40.0542 143.281C41.1534 143.536 41.6726 141.74 40.5734 141.486C37.9449 140.973 35.2227 142.514 34.0295 145.136C32.7608 147.97 34.1251 151.061 36.7134 152.218C39.2308 153.332 42.2276 152.472 43.5938 149.801C44.8269 147.357 44.4112 144.121 42.3772 142.425C41.6726 141.74 40.3734 143.063 41.2065 143.774Z" fill="#161616"/>
<path d="M194.963 6.6644C196.904 0.592773 203.698 5.73919 206.286 7.99436C208.551 9.96041 211.193 11.9843 214.267 11.8686C219.335 11.6373 222.032 6.08615 226.184 3.77315C231.953 0.592773 235.458 8.86176 241.066 8.05221C243.546 7.70526 244.841 5.56574 246.404 3.71534C248.076 1.74929 249.801 1.74927 252.174 2.32752C254.385 2.90577 256.65 3.48402 258.86 4.06227C259.885 4.3514 260.316 2.67446 259.292 2.38533C257.081 1.80708 254.816 1.22883 252.605 0.650584C251.096 0.245809 249.586 -0.216762 248.076 0.245837C245.11 1.22886 244.247 5.45008 241.282 6.2018C238.1 7.01135 234.973 3.19491 232.223 1.98059C229.904 0.939737 227.639 0.939716 225.429 2.21187C223.056 3.54184 221.277 5.79701 219.174 7.58958C217.772 8.80391 216.208 9.90259 214.375 10.0182C211.571 10.1917 209.252 8.11002 207.203 6.37527C204.723 4.29357 202.08 1.80708 198.683 2.09621C196.257 2.26968 194.262 3.65748 193.453 6.14396C193.075 7.24263 194.639 7.70525 194.963 6.6644Z" fill="#E8E8E8"/>
</svg>
