<svg width="1087" height="815" viewBox="0 0 1087 815" fill="none" xmlns="http://www.w3.org/2000/svg">
<path d="M142.263 540.209C144.097 545.643 142.127 551.076 141.312 556.442C140.632 560.992 141.176 564.999 143.69 568.938C145.048 571.044 146.951 573.217 147.494 575.73C148.173 578.854 145.864 581.027 144.845 583.744C143.825 586.461 144.505 590.332 147.902 590.807C147.766 590.264 147.63 589.653 147.426 589.109C145.864 590.807 145.388 593.32 146.815 595.29C147.902 596.784 150.212 596.92 150.823 598.889C151.434 600.859 150.415 603.372 150.076 605.274C148.785 613.22 153.608 620.147 159.315 625.105C165.973 630.946 173.31 635.7 179.289 642.288C185.539 649.148 190.702 657.026 194.575 665.448C195.118 666.602 196.885 665.584 196.341 664.429C189.819 650.37 179.968 638.417 167.604 629.044C160.742 623.883 152.182 617.77 151.842 608.262C151.774 605.206 153.269 602.149 152.861 599.093C152.725 598.142 152.454 597.192 151.774 596.444C150.28 594.679 145.864 593.592 148.785 590.468C149.26 589.992 149.125 588.906 148.309 588.77C143.69 588.091 147.902 582.25 148.649 580.416C149.26 579.058 149.6 577.699 149.464 576.205C149.125 572.334 145.999 569.414 144.301 566.086C139.953 557.664 147.086 548.292 144.097 539.53C143.825 538.444 141.855 538.987 142.263 540.209Z" fill="#E8E8E8"/>
<path d="M143.69 542.179C190.499 562.894 201.981 617.838 210.133 663.071C210.337 664.361 212.307 663.818 212.104 662.527C205.378 624.969 197.565 584.491 168.963 556.849C161.898 549.989 153.745 544.352 144.71 540.413C143.555 539.87 142.468 541.636 143.69 542.179Z" fill="#E8E8E8"/>
<path d="M147.087 546.934C172.088 578.652 189.887 615.802 198.991 655.126C199.263 656.416 201.233 655.873 200.961 654.582C191.789 614.851 173.786 577.497 148.581 545.44C147.698 544.422 146.271 545.916 147.087 546.934Z" fill="#E8E8E8"/>
<path d="M152.589 580.96C167.331 587.684 179.152 599.501 185.946 614.239C186.49 615.462 188.256 614.375 187.713 613.221C180.851 598.211 168.69 586.054 153.676 579.194C152.385 578.651 151.366 580.417 152.589 580.96Z" fill="#E8E8E8"/>
<path d="M203.339 618.178C198.856 598.822 214.209 583.201 223.721 568.26C228.34 560.992 232.213 553.182 235.134 545.1C236.561 541.161 237.58 537.086 238.803 533.079C239.958 529.275 241.52 524.997 245.665 523.842C245.257 523.706 244.917 523.502 244.51 523.367C246.072 526.423 246.887 529.751 246.548 533.214C246.344 535.388 244.713 537.765 244.917 539.802C245.053 541.025 246.14 542.927 246.548 544.149C247.023 545.711 247.363 547.273 247.567 548.835C247.839 550.737 247.974 552.639 247.974 554.54C247.974 555.967 247.023 559.838 247.499 560.925C246.955 559.77 245.461 560.653 245.665 561.739C247.567 573.285 250.284 585.035 250.964 596.649C251.643 608.33 246.955 618.246 241.045 628.026C230.582 645.345 219.441 663.818 221.547 684.94C221.683 686.231 223.721 686.231 223.585 684.94C221.275 661.781 235.134 643.172 245.8 624.019C250.828 614.986 253.749 605.75 252.934 595.358C252.051 583.948 249.469 572.538 247.635 561.196C247.023 561.468 246.412 561.74 245.8 562.011C245.868 562.147 245.936 562.283 246.004 562.419C246.14 562.758 246.548 562.894 246.887 562.894C249.401 562.962 249.673 560.11 249.877 558.208C250.42 553.522 250.013 548.767 248.79 544.285C248.314 542.587 247.159 540.685 247.363 538.92C247.567 537.29 248.45 535.592 248.654 533.826C249.129 529.819 248.246 525.947 246.412 522.416C246.208 522.008 245.665 521.805 245.257 521.94C238.259 523.978 237.172 532.264 235.406 538.24C232.349 548.496 227.865 558.276 222.09 567.309C212.171 582.862 196.817 598.686 201.505 618.79C201.709 620.012 203.679 619.469 203.339 618.178Z" fill="#E8E8E8"/>
<path d="M241.11 540.413C239.955 560.924 231.667 579.873 224.941 598.957C218.147 618.314 213.867 638.281 212.373 658.724C212.305 660.014 214.343 660.014 214.411 658.724C215.973 637.602 220.661 617.091 227.727 597.191C234.317 578.65 241.993 560.245 243.148 540.413C243.216 539.123 241.178 539.123 241.11 540.413Z" fill="#E8E8E8"/>
<path d="M212.307 587.073C213.258 596.377 215.772 605.342 219.916 613.764C220.528 614.919 222.226 613.9 221.683 612.745C217.742 604.663 215.229 596.038 214.345 587.141C214.21 585.782 212.171 585.782 212.307 587.073Z" fill="#E8E8E8"/>
<path d="M228.273 596.784C235.338 592.505 241.317 586.936 246.072 580.212C246.819 579.125 245.053 578.106 244.306 579.193C239.754 585.645 233.979 590.943 227.186 595.018C226.099 595.697 227.118 597.463 228.273 596.784Z" fill="#E8E8E8"/>
<path d="M191.994 660.015C196.342 668.097 199.059 676.79 200.079 685.891C200.214 687.182 202.253 687.182 202.117 685.891C201.03 676.451 198.244 667.418 193.76 658.996C193.149 657.842 191.383 658.86 191.994 660.015Z" fill="#E8E8E8"/>
<path d="M209.045 658.725C210.744 667.078 211.695 675.568 211.831 684.125C211.831 685.416 213.869 685.416 213.869 684.125C213.733 675.364 212.782 666.739 211.015 658.181C210.744 656.891 208.773 657.434 209.045 658.725Z" fill="#E8E8E8"/>
<path d="M891.544 601.268C890.729 603.984 889.438 606.905 889.031 609.757C888.827 610.912 888.759 611.998 889.506 612.949C890.457 614.104 892.088 614.24 893.447 614.443C896.504 614.987 899.561 615.462 902.618 615.87C913.624 617.364 924.766 617.975 935.84 618.179C947.321 618.383 958.803 618.043 970.352 617.636C973.341 617.5 976.738 617.839 979.591 617.296C980.407 617.16 981.29 617.16 981.833 616.413C983.056 614.851 981.358 613.493 979.795 614.308C979.456 614.511 979.184 615.055 979.32 615.462C979.388 615.53 979.388 615.666 979.456 615.734C979.931 616.956 981.901 616.413 981.426 615.191C981.358 615.123 981.358 614.987 981.29 614.919C981.154 615.326 980.95 615.666 980.814 616.073C980.407 615.802 979.999 615.53 979.591 615.258C978.912 615.258 978.301 615.326 977.621 615.326C976.534 615.394 975.447 615.394 974.292 615.462C972.322 615.53 970.284 615.598 968.314 615.666C964.306 615.802 960.365 615.938 956.357 616.006C947.933 616.209 939.576 616.277 931.152 616.006C922.999 615.802 914.847 615.258 906.762 614.308C902.482 613.832 898.202 613.221 893.922 612.474C891.137 611.998 890.797 610.776 891.544 608.127C892.156 606.022 892.835 603.848 893.447 601.743C893.854 600.521 891.884 599.977 891.544 601.268Z" fill="#E8E8E8"/>
<path d="M893.448 602.354C894.535 599.026 902.008 599.841 904.658 599.773C908.394 599.637 912.199 599.501 915.935 599.434C923.884 599.298 931.833 599.298 939.849 599.569C947.594 599.773 955.339 600.181 963.016 600.792C966.685 601.064 970.693 600.996 974.226 601.811C977.894 602.694 977.894 604.459 978.438 607.38C978.846 609.485 979.253 611.591 979.661 613.696C979.933 614.986 981.903 614.443 981.631 613.153C981.155 610.64 980.612 608.059 980.136 605.546C979.865 604.052 979.661 602.354 978.506 601.199C976.332 599.026 971.644 599.569 968.859 599.298C958.94 598.415 949.021 597.804 939.034 597.532C929.319 597.26 919.536 597.26 909.821 597.6C905.541 597.736 901.125 597.668 896.845 598.211C894.399 598.551 892.157 599.366 891.342 601.879C891.07 603.101 893.04 603.577 893.448 602.354Z" fill="#E8E8E8"/>
<path d="M895.416 613.627C898.406 630.063 900.512 646.634 901.802 663.274C901.87 663.885 902.21 664.225 902.821 664.293C922.795 666.126 942.837 666.602 962.81 665.719C964.101 665.651 964.101 663.614 962.81 663.681C942.769 664.564 922.727 664.089 902.821 662.255C903.161 662.595 903.501 662.934 903.841 663.274C902.55 646.431 900.444 629.723 897.386 613.084C897.115 611.793 895.145 612.336 895.416 613.627Z" fill="#E8E8E8"/>
<path d="M973.887 617.703C971.169 633.188 967.84 648.605 963.832 663.818C963.492 665.109 965.463 665.652 965.802 664.361C969.743 649.148 973.14 633.731 975.857 618.246C976.061 616.956 974.091 616.412 973.887 617.703Z" fill="#E8E8E8"/>
<path d="M849.626 491.446C854.109 503.603 857.37 516.1 859.476 528.8C859.544 529.14 859.884 529.412 860.156 529.479C862.33 530.091 864.504 530.702 866.61 531.313C866.406 530.906 866.134 530.498 865.931 530.091C864.708 535.66 864.164 541.704 869.395 545.236C871.094 546.391 872.86 547.07 873.268 549.311C873.54 550.941 873.404 552.571 873.743 554.201C874.423 557.665 875.849 560.993 877.887 563.845C882.439 570.162 889.573 572.878 895.959 576.885C903.024 581.368 908.527 587.82 912.196 595.291C912.739 596.445 914.506 595.427 913.962 594.272C910.973 588.159 906.761 582.658 901.462 578.379C895.619 573.625 888.078 571.18 882.575 566.087C879.654 563.438 877.548 559.906 876.325 556.171C875.714 554.269 875.374 552.299 875.306 550.33C875.238 549.243 875.442 548.36 874.966 547.409C873.811 544.829 870.482 544.082 868.716 542.044C866.066 538.988 867.085 534.234 867.833 530.634C867.969 530.091 867.697 529.547 867.153 529.412C865.795 529.004 863.077 528.8 861.99 527.985C860.631 526.967 860.699 524.25 860.428 522.62C859.748 519.02 858.933 515.489 858.05 511.889C856.283 504.758 854.109 497.83 851.596 490.971C851.188 489.68 849.218 490.224 849.626 491.446Z" fill="#E8E8E8"/>
<path d="M851.801 491.513C875.171 498.373 895.213 514.333 907.17 535.523C907.781 536.678 909.547 535.659 908.936 534.504C896.775 512.839 876.258 496.539 852.344 489.543C851.053 489.136 850.51 491.106 851.801 491.513Z" fill="#E8E8E8"/>
<path d="M904.724 532.602C917.292 551.28 925.716 572.402 929.521 594.61C929.725 595.901 931.695 595.357 931.491 594.067C927.686 571.722 919.126 550.397 906.49 531.584C905.743 530.497 903.976 531.516 904.724 532.602Z" fill="#E8E8E8"/>
<path d="M856.285 497.218C882.441 523.705 904.181 554.2 920.826 587.479C921.438 588.634 923.204 587.615 922.592 586.46C905.948 553.045 884.004 522.415 857.78 495.791C856.761 494.909 855.334 496.335 856.285 497.218Z" fill="#E8E8E8"/>
<path d="M861.109 520.989C878.433 531.448 893.651 545.031 905.948 561.128C906.763 562.146 908.53 561.128 907.714 560.109C895.214 543.673 879.792 529.818 862.128 519.223C861.041 518.544 860.022 520.31 861.109 520.989Z" fill="#E8E8E8"/>
<path d="M878.364 503.059C882.779 512.635 885.565 522.823 886.788 533.35C886.924 534.64 888.962 534.64 888.826 533.35C887.603 522.483 884.682 512.024 880.13 502.04C879.518 500.818 877.82 501.836 878.364 503.059Z" fill="#E8E8E8"/>
<path d="M925.786 567.716C923.884 522.483 966.888 493.551 986.454 457.216C985.843 457.012 985.163 456.876 984.552 456.672C984.552 462.377 984.484 468.082 984.484 473.787C984.484 476.436 984.484 479.085 984.416 481.666C984.416 484.382 985.435 493.619 980 491.921C979.185 491.649 978.37 492.668 978.845 493.415C981.699 497.762 982.378 503.127 980.544 508.085C979.661 510.462 978.709 511.345 978.438 513.926C978.166 516.778 977.894 519.699 977.622 522.551C977.079 528.324 976.468 534.029 975.924 539.802C975.381 545.236 975.448 551.212 973.886 556.442C972.391 561.603 968.111 564.524 963.627 567.037C959.687 569.346 955.747 571.587 952.146 574.372C945.352 579.737 940.121 587.276 940.325 596.173C940.325 597.463 942.363 597.463 942.363 596.173C942.091 584.356 951.602 576.409 960.91 570.908C964.646 568.667 968.723 566.765 971.848 563.641C974.905 560.585 976.06 556.849 976.603 552.638C978.098 540.821 978.913 528.936 980.068 517.118C980.34 514.333 980.816 512.228 981.97 509.715C982.718 508.017 983.193 506.183 983.465 504.35C983.941 500.071 982.922 495.928 980.544 492.328C980.136 492.804 979.796 493.347 979.389 493.823C986.047 495.996 986.318 487.099 986.318 482.956C986.386 474.195 986.386 465.433 986.454 456.604C986.454 455.586 985.028 455.178 984.552 456.061C964.782 492.736 921.642 521.804 923.612 567.58C923.748 569.006 925.786 569.006 925.786 567.716Z" fill="#E8E8E8"/>
<path d="M980.678 475.553C970.351 492.94 960.025 510.326 951.057 528.46C946.709 537.221 942.768 546.118 939.236 555.219C935.771 564.32 933.053 573.76 933.597 583.54C933.665 584.831 935.703 584.831 935.635 583.54C935.023 573.489 938.013 563.845 941.613 554.54C945.214 545.235 949.358 536.067 953.842 527.17C962.538 509.851 972.457 493.143 982.308 476.504C983.123 475.417 981.357 474.398 980.678 475.553Z" fill="#E8E8E8"/>
<path d="M940.801 525.878C939.171 533.01 938.831 540.209 939.85 547.408C940.054 548.698 942.024 548.155 941.82 546.865C940.869 540.005 941.209 533.146 942.772 526.422C943.043 525.131 941.073 524.588 940.801 525.878Z" fill="#E8E8E8"/>
<path d="M960.842 491.039C959.823 496.879 959.959 502.72 961.25 508.493C961.522 509.784 963.492 509.24 963.22 507.95C961.997 502.517 961.861 497.083 962.812 491.582C963.016 490.292 961.114 489.748 960.842 491.039Z" fill="#E8E8E8"/>
<path d="M978.911 539.394C989.984 526.354 999.496 512.159 1007.31 496.946C1006.7 496.878 1006.09 496.81 1005.47 496.674C1009.14 509.375 1008.4 522.483 1005.61 535.251C1004.25 541.431 1002.48 547.544 1000.58 553.589C999.699 556.373 998.748 559.158 997.797 562.01C996.778 565.066 995.827 569.413 992.09 570.092C991.615 570.16 991.343 570.636 991.343 571.043C991.207 574.507 991.003 578.242 989.441 581.434C987.471 585.509 983.53 586.596 979.454 587.751C973.34 589.449 967.089 591.214 962.809 596.172C961.926 597.123 963.421 598.617 964.236 597.599C967.225 594.135 971.166 592.369 975.446 591.011C979.046 589.856 983.123 589.381 986.452 587.479C992.294 584.219 993.042 577.02 993.313 571.043C993.042 571.383 992.838 571.722 992.566 571.994C997.865 571.111 999.088 564.319 1000.51 560.109C1002.96 552.909 1005.27 545.642 1006.97 538.239C1010.23 524.384 1011.38 509.918 1007.38 496.063C1007.17 495.248 1005.95 495.044 1005.54 495.791C997.865 510.869 988.49 524.928 977.484 537.832C976.601 538.986 978.027 540.413 978.911 539.394Z" fill="#E8E8E8"/>
<path d="M1001.47 517.865C996.235 534.504 987.471 549.989 975.854 562.962C966.411 573.421 951.94 582.522 950.378 597.803C950.242 599.093 952.28 599.093 952.416 597.803C953.231 589.449 958.666 582.997 964.373 577.292C970.012 571.655 975.854 566.357 980.882 560.177C991.004 547.816 998.613 533.622 1003.37 518.408C1003.84 517.186 1001.87 516.642 1001.47 517.865Z" fill="#E8E8E8"/>
<path d="M771.5 179.437C767.356 213.803 754.72 246.81 734.95 275.267C734.203 276.354 735.969 277.373 736.716 276.286C756.69 247.557 769.326 214.142 773.539 179.437C773.674 178.078 771.636 178.146 771.5 179.437Z" fill="#E8E8E8"/>
<path d="M771.839 179.98C801.732 183.783 831.964 183.919 861.856 180.455C863.147 180.319 863.147 178.282 861.856 178.417C831.964 181.881 801.732 181.745 771.839 177.942C770.548 177.806 770.548 179.844 771.839 179.98Z" fill="#E8E8E8"/>
<path d="M861.925 181.678C869.602 217.538 864.847 255.435 848.678 288.375C848.066 289.529 849.833 290.548 850.444 289.393C866.885 255.978 871.708 217.606 863.896 181.134C863.624 179.844 861.654 180.387 861.925 181.678Z" fill="#E8E8E8"/>
<path d="M736.24 277.102C772.179 290.413 811.039 289.802 848.813 289.055C850.103 289.055 850.103 287.017 848.813 287.017C811.243 287.765 772.587 288.376 736.784 275.132C735.561 274.657 735.017 276.626 736.24 277.102Z" fill="#E8E8E8"/>
<path d="M867.495 223.243C884.615 216.315 902.686 211.833 921.097 210.067C920.758 209.727 920.418 209.388 920.078 209.048C920.622 235.264 931.288 260.665 949.563 279.478C950.446 280.428 951.941 279.002 950.99 278.051C933.054 259.646 922.66 234.788 922.116 209.048C922.116 208.505 921.641 207.961 921.097 208.029C902.482 209.863 884.275 214.278 866.951 221.273C865.728 221.816 866.272 223.786 867.495 223.243Z" fill="#E8E8E8"/>
<path d="M830.333 290.479C833.051 299.784 835.972 309.089 839.437 318.121C842.222 325.389 845.823 332.452 851.87 337.546C852.889 338.361 854.315 336.934 853.296 336.119C846.978 330.754 843.445 323.283 840.66 315.609C837.603 307.187 834.885 298.629 832.304 290.004C831.896 288.714 829.994 289.257 830.333 290.479Z" fill="#E8E8E8"/>
<path d="M854.113 337.682C884.82 316.424 917.498 298.087 951.535 282.738C952.758 282.194 951.671 280.428 950.516 280.972C916.411 296.253 883.801 314.658 853.094 335.916C852.007 336.663 853.026 338.429 854.113 337.682Z" fill="#E8E8E8"/>
<path d="M777.952 188.81C803.089 191.934 828.362 194.175 853.635 195.465C854.926 195.533 854.926 193.496 853.635 193.428C828.294 192.138 803.089 189.896 777.952 186.772C776.662 186.636 776.662 188.674 777.952 188.81Z" fill="#E8E8E8"/>
<path d="M777.41 198.86C780.875 200.965 785.562 200.626 789.435 200.897C795.006 201.305 800.577 201.712 806.148 202.12C807.438 202.188 807.438 200.15 806.148 200.082C801.46 199.743 796.772 199.403 792.085 199.064C787.872 198.724 782.098 199.335 778.429 197.094C777.342 196.415 776.323 198.181 777.41 198.86Z" fill="#E8E8E8"/>
<path d="M773.878 208.981C786.515 209.863 799.151 210.746 811.72 211.629C823.812 212.444 836.381 214.346 848.474 213.123C849.764 212.988 849.764 210.95 848.474 211.086C836.381 212.308 823.812 210.475 811.72 209.592C799.083 208.709 786.447 207.826 773.878 206.943C772.587 206.875 772.587 208.913 773.878 208.981Z" fill="#E8E8E8"/>
<path d="M771.637 226.094C782.642 229.762 794.26 229.965 805.809 229.83C818.513 229.762 831.15 229.626 843.854 229.49C845.145 229.49 845.145 227.453 843.854 227.453C831.557 227.52 819.329 227.656 807.032 227.724C795.279 227.792 783.458 227.792 772.18 224.057C770.889 223.717 770.346 225.687 771.637 226.094Z" fill="#E8E8E8"/>
<path d="M757.641 256.862C757.641 259.036 757.438 261.345 757.641 263.586C757.777 264.673 758.253 265.759 759.544 265.827C761.106 265.895 762.329 264.129 763.28 263.179C764.843 261.549 766.269 259.851 767.696 258.153C768.511 257.134 767.085 255.708 766.269 256.727C764.571 258.9 762.737 260.937 760.767 262.839C760.563 263.043 760.359 263.246 760.087 263.45C759.68 263.858 759.544 263.79 759.679 263.179C759.476 262.703 759.679 261.752 759.679 261.277C759.679 259.783 759.679 258.357 759.679 256.862C759.679 255.572 757.641 255.572 757.641 256.862Z" fill="#E8E8E8"/>
<path d="M774.082 241.241C795.958 245.928 818.377 247.558 840.661 246.131C841.951 246.063 841.951 244.026 840.661 244.094C818.513 245.52 796.297 243.89 774.625 239.272C773.334 239 772.791 240.97 774.082 241.241Z" fill="#E8E8E8"/>
<path d="M854.588 312.96C881.967 302.976 908.123 289.936 932.513 273.976C933.6 273.229 932.581 271.463 931.494 272.21C907.24 288.102 881.288 301.142 854.045 310.99C852.822 311.466 853.365 313.435 854.588 312.96Z" fill="#E8E8E8"/>
<path d="M848.268 300.26C868.649 294.351 888.555 287.152 908.053 278.798C909.276 278.255 908.189 276.557 907.034 277.032C887.74 285.386 867.902 292.449 847.724 298.29C846.502 298.698 846.977 300.667 848.268 300.26Z" fill="#E8E8E8"/>
<path d="M857.102 283.961C868.72 279.139 880.337 274.249 891.954 269.427C902.145 265.148 912.607 261.277 921.643 254.757C922.662 254.01 921.711 252.244 920.624 252.991C911.384 259.647 900.582 263.654 890.188 268.001C878.978 272.687 867.768 277.373 856.559 282.059C855.404 282.535 855.947 284.504 857.102 283.961Z" fill="#E8E8E8"/>
<path d="M866.545 263.178C871.573 261.073 876.668 259.035 881.695 256.93C882.918 256.454 882.375 254.485 881.152 254.96C876.125 257.066 871.029 259.103 866.002 261.209C864.779 261.684 865.322 263.654 866.545 263.178Z" fill="#E8E8E8"/>
<path d="M869.328 236.826C876.053 237.03 882.847 233.77 889.03 231.325C895.484 228.744 901.802 225.892 907.984 222.768C909.139 222.156 908.12 220.39 906.965 221.002C900.919 224.058 894.804 226.843 888.486 229.355C882.576 231.733 875.85 234.993 869.328 234.789C867.969 234.721 867.969 236.758 869.328 236.826Z" fill="#E8E8E8"/>
<path d="M784.95 288.578C777.273 312.281 764.433 334.082 747.516 352.419C746.905 353.098 747.312 354.117 748.263 354.185C779.651 355.204 808.728 368.38 836.65 381.691C837.805 382.235 838.892 380.469 837.669 379.926C809.407 366.478 780.058 353.234 748.263 352.148C748.535 352.759 748.739 353.302 749.011 353.913C766.199 335.372 779.175 313.231 786.988 289.189C787.327 287.898 785.357 287.355 784.95 288.578Z" fill="#E8E8E8"/>
<path d="M838.96 381.013C848.131 363.219 858.05 345.832 868.648 328.785C869.328 327.698 867.561 326.611 866.882 327.766C856.284 344.745 846.365 362.2 837.193 379.994C836.582 381.149 838.348 382.235 838.96 381.013Z" fill="#E8E8E8"/>
<path d="M835.972 357.514C837.263 357.514 837.263 355.477 835.972 355.477C834.613 355.477 834.613 357.514 835.972 357.514Z" fill="#E8E8E8"/>
<path d="M765.519 342.911C776.117 342.164 785.085 348.548 794.8 351.74C800.099 353.438 805.602 354.321 810.901 356.087C816.268 357.785 821.228 360.366 825.915 363.558C827.002 364.305 828.021 362.539 826.934 361.792C822.654 358.872 818.035 356.427 813.143 354.729C807.369 352.691 801.186 351.74 795.344 349.839C785.425 346.579 776.389 340.127 765.519 340.942C764.16 340.942 764.16 342.979 765.519 342.911Z" fill="#E8E8E8"/>
<path d="M776.254 334.219C792.151 338.294 807.369 344.61 821.432 353.032C822.587 353.711 823.606 351.945 822.451 351.266C808.252 342.708 792.898 336.324 776.797 332.249C775.506 331.977 774.963 333.879 776.254 334.219Z" fill="#E8E8E8"/>
<path d="M781.418 322.333C788.483 323.827 795.005 326.68 800.984 330.755C802.071 331.502 803.09 329.736 802.003 328.989C795.888 324.846 789.163 321.926 781.961 320.364C780.67 320.092 780.127 322.061 781.418 322.333Z" fill="#E8E8E8"/>
<path d="M785.631 311.466C797.112 315.745 808.458 320.295 819.735 325.117C820.958 325.661 821.977 323.895 820.754 323.352C809.341 318.462 797.791 313.775 786.174 309.497C784.883 309.089 784.408 311.059 785.631 311.466Z" fill="#E8E8E8"/>
<path d="M207.822 206.399C206.735 222.564 206.463 238.864 201.3 254.417C196.476 268.883 188.392 282.127 177.794 293.061C176.91 294.012 178.337 295.438 179.22 294.487C189.818 283.553 197.971 270.377 202.93 255.979C208.433 240.018 208.705 223.107 209.86 206.399C209.928 205.109 207.89 205.109 207.822 206.399Z" fill="#E8E8E8"/>
<path d="M209.249 207.01C235.881 206.67 262.58 206.738 289.212 207.282C296.006 207.418 302.799 207.621 309.525 207.825C312.99 207.961 318.289 206.942 320.123 210.61C321.414 213.19 321.346 217.333 321.754 220.186C323.52 232.683 323.86 245.383 322.909 257.948C321.822 272.21 318.968 286.269 314.552 299.852C314.145 301.075 316.115 301.618 316.523 300.395C324.811 274.927 327.461 247.76 323.928 221.205C323.588 218.42 323.113 215.635 322.637 212.919C322.297 210.949 322.094 208.436 320.327 207.146C318.629 205.855 316.251 206.059 314.281 205.991C310.408 205.855 306.604 205.72 302.731 205.652C288.057 205.244 273.382 204.973 258.708 204.905C242.199 204.769 225.69 204.837 209.249 205.04C207.959 205.04 207.959 207.078 209.249 207.01Z" fill="#E8E8E8"/>
<path d="M178.269 295.574C212.782 305.219 249.264 306.237 284.32 298.699C285.611 298.427 285.067 296.457 283.776 296.729C249.128 304.268 212.985 303.181 178.813 293.605C177.522 293.265 176.979 295.167 178.269 295.574Z" fill="#E8E8E8"/>
<path d="M316.524 211.901C314.961 241.581 306.809 270.581 292.678 296.661C292.066 297.816 293.832 298.835 294.444 297.68C308.711 271.261 316.999 241.921 318.562 211.901C318.63 210.611 316.592 210.611 316.524 211.901Z" fill="#E8E8E8"/>
<path d="M316.523 217.537C318.425 226.57 317.61 235.671 316.047 244.636C314.688 252.446 313.126 260.257 311.359 268.067C307.895 283.348 303.207 298.426 294.239 311.398C293.492 312.485 295.258 313.503 296.006 312.417C305.313 298.969 310.069 283.28 313.601 267.456C317.202 251.292 322.026 233.565 318.493 216.994C318.221 215.703 316.251 216.247 316.523 217.537Z" fill="#E8E8E8"/>
<path d="M318.018 224.058C320.395 254.892 315.368 285.93 303.343 314.455C302.867 315.677 304.838 316.221 305.313 314.998C317.338 286.337 322.433 255.096 320.056 224.058C319.988 222.767 317.95 222.767 318.018 224.058Z" fill="#E8E8E8"/>
<path d="M191.246 312.416C225.283 318.257 260.067 318.053 294.035 311.873C295.326 311.669 294.783 309.7 293.492 309.903C259.931 316.016 225.418 316.22 191.789 310.447C190.499 310.243 189.955 312.213 191.246 312.416Z" fill="#E8E8E8"/>
<path d="M195.73 300.871C194.167 303.452 192.129 305.625 189.683 307.391C188.596 308.138 189.616 309.904 190.703 309.157C193.42 307.187 195.73 304.81 197.428 301.958C198.176 300.803 196.409 299.784 195.73 300.871Z" fill="#E8E8E8"/>
<path d="M200.486 315.745C199.603 317.443 198.583 319.073 197.361 320.567C196.545 321.586 197.972 323.012 198.787 321.993C200.146 320.363 201.301 318.665 202.184 316.764C202.796 315.609 201.097 314.523 200.486 315.745Z" fill="#E8E8E8"/>
<path d="M198.515 323.351C232.688 327.359 267.404 325.185 300.829 316.899C302.12 316.56 301.576 314.59 300.285 314.93C267.064 323.148 232.552 325.253 198.515 321.246C197.224 321.178 197.224 323.216 198.515 323.351Z" fill="#E8E8E8"/>
<path d="M215.16 233.702C244.509 229.695 274.13 231.596 303.547 233.634C304.838 233.702 304.838 231.664 303.547 231.596C273.926 229.559 244.17 227.657 214.617 231.732C213.326 231.868 213.87 233.838 215.16 233.702Z" fill="#E8E8E8"/>
<path d="M206.734 264.129C234.249 264.537 261.695 265.827 289.074 268.001C290.365 268.136 290.365 266.099 289.074 265.963C261.695 263.722 234.249 262.431 206.734 262.092C205.375 262.092 205.375 264.129 206.734 264.129Z" fill="#E8E8E8"/>
<path d="M198.515 279.885C228.951 281.311 259.387 282.805 289.823 284.232C291.114 284.299 291.114 282.262 289.823 282.194C259.387 280.768 228.951 279.274 198.515 277.847C197.224 277.779 197.224 279.817 198.515 279.885Z" fill="#E8E8E8"/>
<path d="M223.65 252.175C217.875 265.894 212.372 279.681 207.277 293.672C206.801 294.894 208.771 295.438 209.247 294.215C214.342 280.428 219.709 266.777 225.416 253.261C225.891 252.039 224.125 250.952 223.65 252.175Z" fill="#E8E8E8"/>
<path d="M246.683 254.553C239.957 268.136 234.387 282.127 229.563 296.389C229.155 297.612 231.126 298.155 231.533 296.933C236.289 282.806 241.792 268.951 248.45 255.572C249.061 254.417 247.295 253.398 246.683 254.553Z" fill="#E8E8E8"/>
<path d="M272.499 256.181C264.754 268.746 258.98 282.397 255.379 296.728C255.039 298.018 257.01 298.561 257.349 297.271C260.882 283.076 266.589 269.629 274.266 257.2C274.945 256.113 273.179 255.095 272.499 256.181Z" fill="#E8E8E8"/>
<path d="M292.88 257.133C286.494 269.494 281.059 282.33 276.575 295.574C276.167 296.796 278.137 297.339 278.545 296.117C282.961 283.077 288.328 270.444 294.646 258.219C295.19 256.997 293.491 255.978 292.88 257.133Z" fill="#E8E8E8"/>
<path d="M203.88 269.087C206.869 270.445 209.383 272.279 211.625 274.656C212.508 275.607 213.935 274.181 213.052 273.23C210.742 270.717 208.024 268.748 204.899 267.321C203.676 266.846 202.657 268.544 203.88 269.087Z" fill="#E8E8E8"/>
<path d="M213.12 265.623C208.772 268.204 204.968 271.464 201.775 275.336C200.959 276.354 202.386 277.781 203.201 276.762C206.326 272.958 209.927 269.834 214.139 267.389C215.294 266.71 214.275 264.944 213.12 265.623Z" fill="#E8E8E8"/>
<path d="M240.363 286.948C244.168 289.189 247.429 291.974 250.282 295.302C251.097 296.32 252.592 294.826 251.709 293.875C248.787 290.412 245.323 287.491 241.382 285.182C240.295 284.503 239.276 286.269 240.363 286.948Z" fill="#E8E8E8"/>
<path d="M251.912 284.097C247.564 287.357 243.556 291.024 239.887 295.031C239.004 295.982 240.431 297.476 241.314 296.458C244.847 292.519 248.719 288.987 252.931 285.795C253.95 285.116 252.931 283.35 251.912 284.097Z" fill="#E8E8E8"/>
<path d="M221.407 266.031C224.94 269.291 228.473 272.483 232.006 275.743C232.957 276.626 234.383 275.2 233.432 274.317C229.9 271.057 226.367 267.865 222.834 264.605C221.883 263.654 220.456 265.08 221.407 266.031Z" fill="#E8E8E8"/>
<path d="M233.025 264.401C228.066 267.253 223.718 270.921 220.185 275.403C219.37 276.422 220.796 277.848 221.612 276.83C225.076 272.483 229.221 268.951 234.044 266.167C235.199 265.487 234.112 263.722 233.025 264.401Z" fill="#E8E8E8"/>
<path d="M247.091 279.614C242.2 276.966 241.52 270.378 246.208 266.982C249.741 264.469 256.942 262.363 259.66 266.982C262.037 271.125 259.184 276.151 255.787 278.663C250.488 282.535 246.751 278.256 244.306 273.841C243.694 272.687 241.928 273.706 242.539 274.86C245.664 280.497 250.692 284.912 256.942 280.361C261.562 277.033 264.755 269.97 260.814 264.944C256.738 259.783 247.431 262.499 243.49 266.574C239.074 271.193 240.705 278.324 246.072 281.244C247.227 281.991 248.246 280.226 247.091 279.614Z" fill="#E8E8E8"/>
<path d="M218.285 211.765C216.995 216.452 216.587 221.206 217.266 226.096C217.402 227.386 219.508 227.386 219.304 226.096C218.693 221.409 218.965 216.859 220.256 212.309C220.595 211.086 218.625 210.543 218.285 211.765Z" fill="#E8E8E8"/>
<path d="M219.574 212.987C245.118 210.134 270.866 209.455 296.547 211.017C296.207 210.678 295.867 210.338 295.528 209.998C295.867 214.005 295.799 217.945 295.12 221.884C294.916 223.174 296.886 223.718 297.09 222.427C297.77 218.284 297.973 214.209 297.566 209.998C297.498 209.455 297.158 209.048 296.547 208.98C270.866 207.418 245.118 208.097 219.574 210.949C218.283 211.085 218.283 213.123 219.574 212.987Z" fill="#E8E8E8"/>
<path d="M221.546 225.416C246.004 224.872 270.461 224.329 294.919 223.786C296.21 223.786 296.21 221.748 294.919 221.748C270.461 222.291 246.004 222.835 221.546 223.378C220.255 223.446 220.255 225.483 221.546 225.416Z" fill="#E8E8E8"/>
<path d="M631.346 626.667C669.527 626.667 707.64 626.667 745.821 626.667C749.761 626.667 749.761 620.555 745.821 620.555C707.64 620.555 669.527 620.555 631.346 620.555C627.406 620.555 627.406 626.667 631.346 626.667Z" fill="#161616"/>
<path d="M759.678 626.667C767.898 626.667 776.051 626.667 784.271 626.667C788.212 626.667 788.212 620.555 784.271 620.555C776.051 620.555 767.898 620.555 759.678 620.555C755.738 620.555 755.738 626.667 759.678 626.667Z" fill="#161616"/>
<path d="M808.932 622.39C813.891 622.39 818.919 622.39 823.878 622.39C827.818 622.39 827.818 616.277 823.878 616.277C818.919 616.277 813.891 616.277 808.932 616.277C804.991 616.277 804.991 622.39 808.932 622.39Z" fill="#161616"/>
<path d="M760.764 678.013C806.418 678.013 852.072 678.013 897.726 678.013C901.666 678.013 901.666 671.9 897.726 671.9C852.072 671.9 806.418 671.9 760.764 671.9C756.824 671.9 756.824 678.013 760.764 678.013Z" fill="#161616"/>
<path d="M906.287 678.013C917.701 678.013 929.114 678.013 940.528 678.013C944.468 678.013 944.468 671.9 940.528 671.9C929.114 671.9 917.701 671.9 906.287 671.9C902.347 671.9 902.347 678.013 906.287 678.013Z" fill="#161616"/>
<path d="M961.928 676.993C978.709 676.993 995.421 676.993 1012.2 676.993C1016.14 676.993 1016.14 670.881 1012.2 670.881C995.421 670.881 978.709 670.881 961.928 670.881C957.988 670.881 957.988 676.993 961.928 676.993Z" fill="#161616"/>
<path d="M1032.51 673.734C1036.05 673.734 1039.65 673.734 1043.18 673.734C1047.12 673.734 1047.12 667.621 1043.18 667.621C1039.65 667.621 1036.05 667.621 1032.51 667.621C1028.57 667.621 1028.57 673.734 1032.51 673.734Z" fill="#161616"/>
<path d="M103.402 691.052C158.431 689.694 213.461 688.675 268.49 688.064C284.252 687.86 300.081 687.724 315.842 687.588C317.133 687.588 317.133 685.551 315.842 685.551C260.813 685.958 205.784 686.773 150.754 687.928C134.993 688.267 119.163 688.607 103.402 689.015C102.043 689.082 102.043 691.12 103.402 691.052Z" fill="#161616"/>
<path d="M251.98 702.394C293.694 700.628 335.475 700.9 377.121 703.209C378.412 703.277 378.412 701.24 377.121 701.172C335.475 698.863 293.694 698.591 251.98 700.357C250.621 700.425 250.621 702.462 251.98 702.394Z" fill="#161616"/>
<path d="M911.517 617.566C908.867 623.814 905.402 629.587 901.122 634.885C900.307 635.904 901.734 637.33 902.549 636.311C907.101 630.742 910.701 624.697 913.487 618.109C913.962 616.887 911.992 616.344 911.517 617.566Z" fill="#E8E8E8"/>
<path d="M924.359 616.072C918.992 627.958 911.315 638.621 901.736 647.518C900.784 648.401 902.211 649.827 903.162 648.944C912.877 639.979 920.622 629.18 926.125 617.091C926.669 615.937 924.902 614.918 924.359 616.072Z" fill="#E8E8E8"/>
<path d="M937.673 616.752C929.181 634.003 917.02 649.081 901.87 660.966C900.851 661.781 902.278 663.207 903.297 662.392C918.515 650.371 930.811 635.09 939.372 617.703C939.983 616.616 938.217 615.598 937.673 616.752Z" fill="#E8E8E8"/>
<path d="M950.106 617.295C940.867 634.07 929.385 649.352 915.798 662.867C914.846 663.818 916.341 665.244 917.224 664.293C930.88 650.71 942.565 635.225 951.804 618.314C952.552 617.159 950.785 616.14 950.106 617.295Z" fill="#E8E8E8"/>
<path d="M961.18 616.82C952.348 633.935 941.41 649.828 928.434 664.09C927.551 665.041 928.978 666.535 929.861 665.517C942.905 651.118 954.047 635.158 962.946 617.839C963.558 616.685 961.792 615.666 961.18 616.82Z" fill="#E8E8E8"/>
<path d="M970.148 616.888C962.063 634.139 951.533 650.167 938.829 664.361C937.945 665.312 939.372 666.806 940.255 665.788C953.096 651.389 963.762 635.293 971.914 617.839C972.526 616.752 970.759 615.665 970.148 616.888Z" fill="#E8E8E8"/>
<path d="M971.237 630.063C964.919 642.695 957.174 654.513 948.138 665.379C947.323 666.398 948.749 667.824 949.565 666.805C958.736 655.803 966.617 643.85 973.003 631.081C973.615 629.927 971.848 628.908 971.237 630.063Z" fill="#E8E8E8"/>
<path d="M377.598 46.6594C377.598 58.2052 377.598 69.751 377.598 81.229C377.598 82.5194 379.636 82.5194 379.636 81.229C379.636 69.6831 379.636 58.1373 379.636 46.6594C379.636 45.301 377.598 45.301 377.598 46.6594Z" fill="#E8E8E8"/>
<path d="M340.503 83.1313C374.54 83.1313 408.509 83.1313 442.546 83.1313C443.836 83.1313 443.836 81.0938 442.546 81.0938C408.509 81.0938 374.54 81.0938 340.503 81.0938C339.145 81.0938 339.145 83.1313 340.503 83.1313Z" fill="#E8E8E8"/>
<path d="M412.246 85.6436C412.246 96.3065 412.246 106.902 412.246 117.564C412.246 118.855 414.284 118.855 414.284 117.564C414.284 106.902 414.284 96.3065 414.284 85.6436C414.284 84.3532 412.246 84.3532 412.246 85.6436Z" fill="#E8E8E8"/>
<path d="M359.12 121.299C392.274 121.299 425.36 121.299 458.513 121.299C459.804 121.299 459.804 119.262 458.513 119.262C425.36 119.262 392.274 119.262 359.12 119.262C357.83 119.262 357.83 121.299 359.12 121.299Z" fill="#E8E8E8"/>
<path d="M357.215 122.046C357.215 130.06 357.215 138.007 357.215 146.021C357.215 147.311 359.253 147.311 359.253 146.021C359.253 138.007 359.253 130.06 359.253 122.046C359.253 120.756 357.215 120.688 357.215 122.046Z" fill="#E8E8E8"/>
<path d="M850.171 404.852C870.756 404.852 891.274 404.852 911.859 404.852C913.149 404.852 913.149 402.814 911.859 402.814C891.274 402.814 870.756 402.814 850.171 402.814C848.813 402.814 848.813 404.852 850.171 404.852Z" fill="#E8E8E8"/>
<path d="M882.781 405.667C882.781 413.749 882.781 421.831 882.781 429.981C882.781 431.272 884.819 431.272 884.819 429.981C884.819 421.899 884.819 413.817 884.819 405.667C884.819 404.377 882.781 404.377 882.781 405.667Z" fill="#E8E8E8"/>
<path d="M845.484 431C869.194 431 892.836 431 916.546 431C917.837 431 917.837 428.963 916.546 428.963C892.836 428.963 869.194 428.963 845.484 428.963C844.193 428.963 844.193 431 845.484 431Z" fill="#E8E8E8"/>
<path d="M864.098 430.933C864.098 437.792 864.098 444.652 864.098 451.512C864.098 452.802 866.136 452.802 866.136 451.512C866.136 444.652 866.136 437.792 866.136 430.933C866.136 429.574 864.098 429.574 864.098 430.933Z" fill="#E8E8E8"/>
<path d="M908.938 431.815C908.938 438.675 908.938 445.535 908.938 452.394C908.938 453.685 910.976 453.685 910.976 452.394C910.976 445.535 910.976 438.675 910.976 431.815C910.976 430.525 908.938 430.525 908.938 431.815Z" fill="#E8E8E8"/>
<path d="M245.46 627.483C276.304 627.483 307.148 627.483 337.991 627.483C339.282 627.483 339.282 625.445 337.991 625.445C307.148 625.445 276.304 625.445 245.46 625.445C244.102 625.445 244.102 627.483 245.46 627.483Z" fill="#E8E8E8"/>
<path d="M103.402 628.774C122.832 628.774 142.262 628.774 161.692 628.774C162.983 628.774 162.983 626.736 161.692 626.736C142.262 626.736 122.832 626.736 103.402 626.736C102.043 626.736 102.043 628.774 103.402 628.774Z" fill="#E8E8E8"/>
<path d="M226.031 467.539C256.874 467.539 287.718 467.539 318.562 467.539C319.852 467.539 319.852 465.502 318.562 465.502C287.718 465.502 256.874 465.502 226.031 465.502C224.672 465.502 224.672 467.539 226.031 467.539Z" fill="#E8E8E8"/>
<path d="M277.73 468.355C277.73 475.418 277.73 482.549 277.73 489.612C277.73 490.903 279.769 490.903 279.769 489.612C279.769 482.549 279.769 475.418 279.769 468.355C279.769 467.064 277.73 467.064 277.73 468.355Z" fill="#E8E8E8"/>
<path d="M260.269 490.631C284.319 490.631 308.369 490.631 332.419 490.631C333.709 490.631 333.709 488.594 332.419 488.594C308.369 488.594 284.319 488.594 260.269 488.594C258.91 488.594 258.91 490.631 260.269 490.631Z" fill="#E8E8E8"/>
<path d="M314.754 491.446C314.754 499.121 314.754 506.863 314.754 514.538C314.754 515.828 316.792 515.828 316.792 514.538C316.792 506.863 316.792 499.121 316.792 491.446C316.792 490.156 314.754 490.156 314.754 491.446Z" fill="#E8E8E8"/>
<path d="M813.894 634.75C840.05 634.75 866.138 634.75 892.294 634.75C893.585 634.75 893.585 632.713 892.294 632.713C866.138 632.713 840.05 632.713 813.894 632.713C812.535 632.713 812.535 634.75 813.894 634.75Z" fill="#E8E8E8"/>
<path d="M981.699 627.346C1009.49 627.346 1037.2 627.346 1064.99 627.346C1066.28 627.346 1066.28 625.309 1064.99 625.309C1037.2 625.309 1009.49 625.309 981.699 625.309C980.408 625.309 980.408 627.346 981.699 627.346Z" fill="#E8E8E8"/>
<path d="M714.84 434.124C714.84 447.164 714.84 460.272 714.84 473.312C714.84 474.603 716.878 474.603 716.878 473.312C716.878 460.272 716.878 447.164 716.878 434.124C716.878 432.766 714.84 432.766 714.84 434.124Z" fill="#E8E8E8"/>
<path d="M717.081 453.481C729.31 453.481 741.607 453.481 753.836 453.481C755.126 453.481 755.126 451.443 753.836 451.443C741.607 451.443 729.31 451.443 717.081 451.443C715.791 451.443 715.791 453.481 717.081 453.481Z" fill="#E8E8E8"/>
<path d="M751.594 439.015C751.594 451.24 751.594 463.533 751.594 475.758C751.594 477.048 753.632 477.048 753.632 475.758C753.632 463.533 753.632 451.24 753.632 439.015C753.632 437.657 751.594 437.657 751.594 439.015Z" fill="#E8E8E8"/>
<path d="M728.156 479.221C747.314 479.221 766.54 479.221 785.699 479.221C786.99 479.221 786.99 477.184 785.699 477.184C766.54 477.184 747.314 477.184 728.156 477.184C726.797 477.184 726.797 479.221 728.156 479.221Z" fill="#E8E8E8"/>
<path d="M767.559 481.87C767.559 491.243 767.559 500.615 767.559 510.056C767.559 511.346 769.597 511.346 769.597 510.056C769.597 500.683 769.597 491.311 769.597 481.87C769.597 480.512 767.559 480.512 767.559 481.87Z" fill="#E8E8E8"/>
<path d="M612.527 98.3448C612.527 119.603 612.527 140.861 612.527 162.119C612.527 163.409 614.565 163.409 614.565 162.119C614.565 140.861 614.565 119.603 614.565 98.3448C614.565 97.0543 612.527 97.0543 612.527 98.3448Z" fill="#E8E8E8"/>
<path d="M614.632 98.2074C648.057 98.2074 681.483 98.2074 714.84 98.2074C716.131 98.2074 716.131 96.1699 714.84 96.1699C681.415 96.1699 647.989 96.1699 614.632 96.1699C613.341 96.1699 613.341 98.2074 614.632 98.2074Z" fill="#E8E8E8"/>
<path d="M713.957 98.0049C713.957 119.059 713.957 140.113 713.957 161.099C713.957 162.39 715.995 162.39 715.995 161.099C715.995 140.045 715.995 118.991 715.995 98.0049C715.995 96.7145 713.957 96.7145 713.957 98.0049Z" fill="#E8E8E8"/>
<path d="M614.429 163.815C648.194 163.815 682.027 163.815 715.792 163.815C717.083 163.815 717.083 161.777 715.792 161.777C682.027 161.777 648.194 161.777 614.429 161.777C613.138 161.777 613.138 163.815 614.429 163.815Z" fill="#E8E8E8"/>
<path d="M657.974 96.1024C657.634 94.2687 657.566 92.4349 657.906 90.6012C658.246 88.9712 659.061 85.7112 660.963 87.7487C661.914 88.7674 661.982 91.0087 662.254 92.2991C662.594 93.997 662.933 95.7628 663.273 97.4608C663.545 98.7512 665.515 98.2078 665.243 96.9174C664.632 93.9291 664.36 90.6012 663.205 87.7487C662.594 86.2545 661.439 84.4887 659.604 84.5566C657.566 84.6245 656.751 86.7978 656.276 88.4958C655.46 91.1445 655.46 93.8612 656.004 96.5099C656.208 97.9362 658.178 97.3928 657.974 96.1024Z" fill="#E8E8E8"/>
<path d="M618.438 105.679C618.438 122.183 618.438 138.686 618.438 155.19C618.438 156.481 620.476 156.481 620.476 155.19C620.476 138.686 620.476 122.183 620.476 105.679C620.476 104.321 618.438 104.321 618.438 105.679Z" fill="#E8E8E8"/>
<path d="M619.999 105.543C649.348 105.543 678.697 105.543 707.978 105.543C709.269 105.543 709.269 103.506 707.978 103.506C678.629 103.506 649.28 103.506 619.999 103.506C618.709 103.506 618.709 105.543 619.999 105.543Z" fill="#E8E8E8"/>
<path d="M708.113 103.981C708.113 121.572 708.113 139.162 708.113 156.753C708.113 158.043 710.151 158.043 710.151 156.753C710.151 139.162 710.151 121.572 710.151 103.981C710.151 102.691 708.113 102.691 708.113 103.981Z" fill="#E8E8E8"/>
<path d="M621.085 156.684C650.23 156.684 679.376 156.684 708.521 156.684C709.812 156.684 709.812 154.646 708.521 154.646C679.376 154.646 650.23 154.646 621.085 154.646C619.794 154.646 619.794 156.684 621.085 156.684Z" fill="#E8E8E8"/>
<path d="M619.931 138.959C633.247 135.36 646.563 132.235 660.218 136.107C671.496 139.367 681.822 145.411 693.508 147.381C694.798 147.585 695.342 145.615 694.051 145.411C681.618 143.306 670.748 136.582 658.588 133.594C645.34 130.334 632.228 133.526 619.456 136.99C618.097 137.329 618.64 139.299 619.931 138.959Z" fill="#E8E8E8"/>
<path d="M666.671 138.823C679.24 137.397 691.74 132.439 704.445 135.088C705.735 135.359 706.279 133.39 704.988 133.118C692.012 130.402 679.443 135.292 666.671 136.718C665.38 136.922 665.38 139.027 666.671 138.823Z" fill="#E8E8E8"/>
<path d="M668.846 124.356C667.283 122.862 667.148 120.213 668.778 118.719C670.544 117.021 673.737 117.496 675.096 119.466C676.523 121.436 676.183 124.424 674.349 125.986C672.107 127.888 669.118 126.394 667.555 124.424C666.808 123.405 664.974 124.424 665.789 125.443C667.963 128.363 671.971 130.265 675.232 127.888C678.289 125.646 678.765 120.96 676.455 118.04C674.417 115.459 670.205 114.916 667.623 117.021C664.906 119.194 664.838 123.541 667.351 125.918C668.37 126.665 669.797 125.239 668.846 124.356Z" fill="#E8E8E8"/>
<path d="M749.759 577.494C751.933 573.011 755.533 567.51 761.376 565.88C770.344 563.367 776.73 572.332 790.113 578.852C814.299 590.67 835.36 581.841 837.33 588.429C838.893 593.658 826.324 602.148 818.172 606.223C801.799 614.373 770.887 620.961 756.62 603.506C754.514 600.925 748.672 592.843 749.759 577.494Z" fill="#161616" stroke="#161616" stroke-width="3" stroke-miterlimit="10"/>
<path d="M731.279 586.324C728.358 583.539 727.067 580.008 726.523 577.427C731.619 560.38 742.217 547.408 754.582 545.981C762.53 545.099 770.343 549.038 776.458 552.162C786.444 557.188 786.648 560.516 796.295 566.492C812.532 576.612 824.082 574.778 825.033 580.144C825.916 585.169 816.812 592.097 807.913 595.221C790.045 601.469 784.406 588.497 756.62 589.72C746.769 590.195 737.597 592.301 731.279 586.324Z" fill="#161616" stroke="#161616" stroke-width="3" stroke-miterlimit="10"/>
<path d="M608.719 475.485C610.078 483.907 612.184 497.558 614.358 514.402C622.646 577.7 619.317 586.937 629.236 600.113C652.131 630.539 703.152 625.378 707.161 624.902C736.238 621.574 755.94 606.293 763.821 599.433C759.337 591.623 754.853 583.88 750.369 576.07C727.95 576.274 705.53 576.545 683.043 576.749C687.866 559.363 693.505 530.158 688.682 494.638C685.013 467.471 676.589 446.01 669.523 431.611C651.044 432.97 629.712 436.026 606.477 442.206C595.268 445.195 584.873 448.591 575.294 452.122C574.818 464.958 574.207 483.228 573.867 505.233C572.712 588.499 577.468 605.614 589.425 614.307C595.268 618.518 605.458 618.858 625.568 619.265C660.556 620.012 690.176 610.843 724.757 600.113C732.569 597.668 738.887 595.562 742.76 594.272C740.79 578.719 738.752 563.234 736.781 547.681C722.99 551.416 708.587 554.948 693.641 558.344C679.306 561.536 665.379 564.388 651.86 566.833" fill="#D73F3B"/>
<path d="M601.314 486.215C608.38 488.864 609.603 497.761 610.282 504.281C611.233 513.043 611.777 521.804 612.32 530.633C613.407 547.816 614.562 565.067 618.842 581.774C619.182 583.065 621.152 582.521 620.812 581.231C615.921 562.146 615.174 542.45 613.883 522.958C613.339 514.605 613.135 505.979 611.369 497.761C610.146 492.056 607.633 486.487 601.858 484.314C600.635 483.838 600.091 485.808 601.314 486.215Z" fill="#281472"/>
<path d="M633.584 603.712C638.815 608.263 643.91 613.56 649.753 617.431C655.392 621.167 662.186 622.525 668.776 623.748C670.066 624.019 670.61 622.05 669.319 621.778C662.933 620.555 656.343 619.333 650.772 615.665C645.133 611.93 640.174 606.768 635.011 602.286C634.059 601.403 632.565 602.897 633.584 603.712Z" fill="#281472"/>
<path d="M684.199 569.754C691.604 569.89 698.805 571.248 705.735 573.761C706.958 574.236 707.501 572.267 706.278 571.792C699.145 569.211 691.74 567.852 684.199 567.717C682.84 567.649 682.84 569.686 684.199 569.754Z" fill="#281472"/>
<path opacity="0.58" d="M574.82 498.646C575.227 492.33 579.575 486.692 585.418 484.112C591.532 481.463 599.141 483.229 603.829 486.964C611.981 493.348 611.302 505.37 611.642 519.904C612.253 546.459 613.001 578.312 628.626 599.57C632.227 604.46 638.749 611.727 650.57 617.975C644.456 620.896 633.518 625.107 619.726 624.36C613.748 624.02 597.647 623.001 586.097 611.252C580.458 605.547 575.567 596.853 574.072 554.949C573.597 540.618 573.461 521.398 574.82 498.646Z" fill="#474747"/>
<path opacity="0.59" d="M685.964 560.585C702.88 556.238 719.797 551.892 736.713 547.545C737.732 556.917 738.683 566.358 739.702 575.73C732.026 573.625 723.33 571.655 713.886 570.093C702.948 568.327 692.894 567.444 683.926 567.105C684.605 564.932 685.285 562.758 685.964 560.585Z" fill="#474747"/>
<path d="M579.507 283.892C579.303 279.138 579.846 273.909 582.971 272.143C594.181 265.894 635.147 306.169 655.257 350.79C663.138 368.313 672.785 397.585 670.679 437.724C639.563 443.429 608.516 449.202 577.401 454.907C572.101 446.009 563.134 432.494 549.342 418.232C535.551 403.969 530.32 402.882 524.409 392.491C511.773 370.214 518.567 344.882 520.265 338.497C522.507 330.212 527.399 312.417 544.383 298.63C558.038 287.492 572.713 284.707 579.507 283.892Z" fill="#8AA6BF" stroke="#161616" stroke-width="3" stroke-miterlimit="10"/>
<path opacity="0.36" d="M578.352 294.759C586.436 300.329 614.63 321.043 626.044 360.639C638.476 403.969 621.967 439.354 617.891 447.436C635.691 444.448 653.558 441.527 671.358 438.539C672.445 421.288 672.037 390.861 658.586 356.428C641.737 313.369 613.475 287.628 599.48 276.422C592.415 282.534 585.417 288.647 578.352 294.759Z" fill="#8AA6BF"/>
<path opacity="0.4" d="M649.688 341.486C650.842 348.074 652.201 357.718 652.745 369.536C653.696 390.386 654.443 405.26 647.106 420.473C644.253 426.45 637.934 437.045 624.211 446.689C639.769 443.837 655.258 441.052 670.816 438.2C671.563 424.005 670.952 404.173 665.177 381.557C660.897 365.325 655.122 351.81 649.688 341.486Z" fill="#828181"/>
<path d="M447.504 278.255C452.26 285.182 456.54 290.887 460.004 295.234C468.497 306.033 471.758 308.817 476.309 309.768C480.182 310.583 483.85 309.904 486.024 309.428C492.071 308.206 494.517 305.761 498.525 303.859C503.824 301.414 505.93 302.637 523.118 302.84C535.551 302.976 534.192 302.297 545.334 302.501C555.117 302.705 563.201 303.316 568.908 303.859C567.278 302.569 565.647 301.346 564.085 300.056C561.843 299.445 555.321 297.407 550.225 291.023C546.013 285.725 544.994 280.292 544.655 277.847C546.081 277.44 548.595 276.421 550.225 274.044C553.622 269.018 550.09 262.158 548.867 259.849C547.372 256.997 544.655 251.835 540.918 252.243C538.133 252.514 535.483 255.774 534.668 260.189C528.282 262.226 518.634 264.128 508.648 260.868C489.829 254.688 485.957 235.128 475.698 234.856C469.04 234.788 459.597 242.531 447.504 278.255Z" fill="white"/>
<path d="M445.669 275.13C451.036 287.423 459.189 298.29 469.447 306.915C470.466 307.73 471.893 306.304 470.874 305.489C460.683 296.931 452.735 286.268 447.368 274.111C446.892 272.957 445.126 273.976 445.669 275.13Z" fill="#161616"/>
<path d="M478.28 289.8C478.891 293.264 479.638 296.66 480.521 300.055C481.337 302.976 481.948 306.507 483.443 309.156C485.549 312.892 492.275 308.273 494.449 306.575C495.468 305.76 494.041 304.334 493.022 305.149C491.527 306.304 488.538 308.613 486.5 308.341C484.258 308.07 483.715 303.655 483.171 301.957C481.948 297.814 480.997 293.603 480.25 289.325C479.978 287.966 478.008 288.51 478.28 289.8Z" fill="#161616"/>
<path d="M468.971 290.207C466.389 288.034 463.06 285.249 464.283 281.446C463.739 281.582 463.128 281.718 462.585 281.921C465.234 284.502 467.272 287.559 468.563 291.022C468.767 290.615 469.039 290.207 469.242 289.8C468.835 289.46 468.359 289.121 467.952 288.849C467.612 287.559 465.642 288.102 465.981 289.392C466.457 291.226 467.952 292.041 469.786 291.769C470.329 291.701 470.669 290.954 470.465 290.547C469.039 286.744 466.865 283.416 463.943 280.563C463.4 280.02 462.449 280.291 462.245 281.039C460.818 285.589 464.215 289.121 467.476 291.769C468.495 292.449 469.99 291.022 468.971 290.207Z" fill="#161616"/>
<path d="M462.586 282.669C464.217 285.182 465.847 287.695 467.478 290.208C468.157 291.295 469.924 290.276 469.244 289.189C467.614 286.676 465.983 284.163 464.353 281.65C463.673 280.496 461.907 281.515 462.586 282.669Z" fill="#161616"/>
<path d="M493.295 279.816C492.072 278.39 490.782 276.76 490.17 274.926C489.966 274.383 489.898 273.771 489.898 273.228C490.034 272.345 490.238 272.277 490.646 272.956C491.325 273.228 491.937 274.518 492.344 275.13C493.295 276.556 494.178 278.118 494.654 279.68C494.926 280.563 495.265 280.699 494.314 280.291C493.431 279.884 492.616 278.933 492.004 278.254C491.121 277.235 489.695 278.729 490.578 279.68C491.665 280.903 495.198 284.502 496.624 281.718C497.915 279.205 494.722 274.79 493.295 272.956C492.072 271.394 489.151 268.27 487.996 271.734C486.841 275.198 489.763 278.797 491.801 281.174C492.684 282.261 494.11 280.835 493.295 279.816Z" fill="#161616"/>
<path d="M488.809 273.296C490.372 275.809 491.934 278.322 493.497 280.835C494.176 281.921 495.943 280.902 495.263 279.816C493.837 277.507 492.614 275.197 491.459 272.752C490.915 273.16 490.372 273.567 489.828 273.975C491.391 275.469 492.546 277.235 493.293 279.273C493.769 280.495 495.739 279.952 495.263 278.729C494.38 276.352 493.089 274.315 491.255 272.549C490.372 271.734 489.149 272.752 489.625 273.771C490.78 276.216 492.002 278.593 493.429 280.835C494.04 280.495 494.584 280.155 495.195 279.816C493.633 277.303 492.07 274.79 490.508 272.277C489.896 271.19 488.13 272.209 488.809 273.296Z" fill="#161616"/>
<path d="M543.227 284.096C545.333 289.665 545.129 295.506 542.412 300.803C541.8 301.958 543.567 302.976 544.178 301.822C547.1 296.049 547.507 289.597 545.197 283.552C544.722 282.398 542.752 282.873 543.227 284.096Z" fill="#161616"/>
<path d="M437.517 234.38C436.43 235.875 426.579 249.662 431.81 266.98C436.974 284.095 452.395 290.208 454.162 290.887C453.415 286.676 452.192 276.285 457.219 264.739C463.198 250.816 474.203 244.296 477.736 242.395C479.978 245.655 488.47 257.2 504.639 261.751C519.11 265.758 531.067 261.751 535.007 260.257C535.755 259.034 538.608 254.823 542.209 254.959C547.372 255.163 552.467 264.535 549.41 270.92C547.508 274.927 543.024 276.285 541.801 276.625C542.549 279.545 544.111 283.96 547.508 288.374C553.215 295.913 560.688 298.833 564.968 300.531C569.18 302.161 603.624 315.269 624.141 293.672C635.215 282.058 640.514 262.158 633.245 248.507C627.335 237.505 616.94 237.437 588.882 225.008C555.253 210.066 559.873 205.516 539.967 199.2C529.572 195.872 491.324 183.715 461.431 204.497C447.776 213.937 440.846 226.706 437.517 234.38Z" fill="#161616"/>
<path d="M422.708 349.702C422.436 345.763 422.3 334.421 429.705 324.029C441.051 308.137 460.617 307.797 463.946 307.729C469.856 307.594 477.669 308.612 495.741 318.528C507.494 324.98 523.595 335.1 540.783 350.925C545.131 351.196 552.332 352.147 559.738 356.426C567.618 360.908 582.225 372.726 579.1 385.426C577.333 392.625 570.064 399.621 563.135 399.281C551.993 398.738 544.791 379.585 542.481 380.74C540.647 381.623 546.218 393.033 543.772 394.595C541.53 396.021 532.698 389.162 528.622 379.857C525.293 372.386 525.837 365.323 526.516 361.316C510.211 353.641 483.308 343.997 450.019 345.695C439.828 346.306 430.724 347.8 422.708 349.702Z" fill="white" stroke="#161616" stroke-width="3" stroke-miterlimit="10"/>
<path opacity="0.34" d="M422.844 348.344C425.29 335.168 431.064 329.123 434.393 326.475C455.25 309.631 494.79 329.938 506.543 335.915C520.402 342.978 530.796 351.604 535.824 356.018C545.879 364.915 543.365 365.459 557.088 378.499C566.532 387.464 573.257 392.557 571.899 396.225C570.744 399.213 565.037 399.485 564.493 399.485C551.246 399.96 542.142 379.449 541.734 378.499C544.995 390.384 544.384 393.984 542.889 394.731C540.036 396.225 531.612 388.347 528.079 379.042C525.293 371.707 526.109 364.847 526.924 360.976C516.801 356.426 503.961 351.875 488.811 348.887C461.568 343.59 438.334 345.627 422.844 348.344Z" fill="#828181"/>
<path d="M366.86 355.273C364.686 366.887 361.969 391.405 373.043 418.164C393.831 468.491 445.396 483.296 452.326 485.13C452.529 493.076 452.801 501.091 453.005 509.037C440.369 515.013 421.686 525.473 403.071 543.199C389.28 556.375 365.23 579.874 355.922 618.383C350.216 641.95 351.914 663.208 355.243 679.236C437.311 680.594 519.312 681.953 601.38 683.311C604.03 667.826 606.951 636.992 593.839 602.694C570.401 541.365 514.353 517.526 503.618 513.18C503.415 502.449 503.143 491.786 502.939 481.055C513.469 478.746 537.859 471.954 558.308 450.289C592.413 414.225 587.249 367.023 586.366 360.096C513.13 358.466 439.961 356.903 366.86 355.273Z" fill="white" stroke="#161616" stroke-width="3" stroke-miterlimit="10"/>
<path d="M379.975 430.728C386.701 434.395 393.902 437.18 401.579 438.267C407.15 439.014 412.449 438.538 418.02 437.927C425.085 437.112 432.083 436.501 439.08 435.278C446.214 434.056 453.008 431.95 460.073 430.388C461.975 429.981 463.742 429.777 465.644 430.185C469.381 430.932 471.555 433.241 474.408 435.414C478.348 438.402 483.444 438.199 487.52 435.754C489.694 434.395 491.664 432.697 493.838 431.407C497.031 429.505 500.564 428.555 504.3 428.283C508.309 428.011 512.385 428.283 516.325 429.03C521.013 429.913 525.157 431.815 529.641 433.241C538.473 436.093 541.19 426.653 548.052 423.461C556.273 419.59 567.618 419.997 576.246 421.831C577.537 422.102 578.081 420.133 576.79 419.861C569.317 418.231 561.979 418.299 554.438 419.59C551.245 420.133 548.188 420.88 545.403 422.578C542.21 424.547 540.375 427.536 537.658 429.981C533.717 433.512 529.166 430.796 525.021 429.234C521.285 427.875 517.344 426.992 513.336 426.517C506.678 425.702 499.613 425.974 493.566 429.234C488.607 431.95 484.327 437.384 478.077 435.075C475.359 434.056 473.661 431.543 471.215 430.117C469.245 428.894 466.867 428.147 464.557 427.943C460.141 427.604 455.589 429.505 451.309 430.592C443.225 432.63 434.936 433.988 426.58 434.871C420.058 435.55 413.332 436.772 406.742 436.569C397.639 436.297 388.943 433.241 381.062 428.894C379.839 428.283 378.82 430.049 379.975 430.728Z" fill="#161616"/>
<path d="M453.347 500.887C454.434 503.468 455.521 506.184 457.355 508.358C458.51 509.784 460.277 510.87 461.024 512.704C461.771 514.606 461.771 517.119 462.043 519.156C462.926 526.152 463.877 533.147 466.799 539.667C467.342 540.89 469.108 539.803 468.565 538.648C465.372 531.653 464.76 524.046 463.741 516.508C463.402 514.063 463.266 511.55 461.499 509.648C458.782 506.66 456.948 504.215 455.317 500.343C454.842 499.121 452.871 499.664 453.347 500.887Z" fill="#161616"/>
<path d="M497.777 506.794C494.788 504.485 492.478 508.764 491.391 511.073C490.304 513.246 489.489 515.488 488.945 517.797C488.334 520.446 488.47 523.502 487.247 525.947C486.092 528.46 484.19 530.565 483.103 533.146C482.084 535.455 481.336 537.9 480.657 540.345C479.094 546.458 478.211 552.774 477.124 558.954C476.92 560.245 478.891 560.788 479.094 559.498C480.725 550.193 481.54 539.802 486.228 531.448C487.315 529.546 488.741 527.916 489.489 525.879C490.032 524.453 490.1 522.958 490.304 521.532C490.508 520.038 494.312 506.658 496.35 508.221C497.302 509.036 498.796 507.609 497.777 506.794Z" fill="#161616"/>
<path d="M475.967 586.8C475.355 585.713 474.744 584.423 475.016 583.201C475.423 581.299 477.529 581.027 478.209 582.861C479.024 585.034 477.733 587.547 476.238 588.973C476.646 588.906 477.054 588.838 477.461 588.838C476.646 588.226 475.831 587.615 475.084 587.072C473.997 586.257 473.045 588.091 474.064 588.838C474.88 589.449 475.695 590.06 476.442 590.603C476.782 590.875 477.393 590.739 477.665 590.468C480.111 588.091 482.353 581.706 478.073 579.805C476.374 579.058 474.472 579.941 473.521 581.503C472.298 583.54 473.113 585.985 474.2 587.887C474.812 588.973 476.578 587.955 475.967 586.8Z" fill="#161616"/>
<path d="M470.603 610.164C470.127 609.213 469.38 607.923 469.584 606.768C469.72 606.089 470.603 605.138 471.282 605.75C471.961 606.293 472.029 607.923 471.826 608.67C471.622 609.349 470.467 610.504 469.855 609.621C469.108 608.602 467.342 609.621 468.089 610.64C469.176 612.202 471.418 612.338 472.845 610.979C474.407 609.485 474.271 606.497 473.116 604.799C471.961 603.101 469.72 603.373 468.497 604.799C466.73 606.7 467.817 609.349 468.836 611.319C469.448 612.338 471.214 611.319 470.603 610.164Z" fill="#161616"/>
<path d="M480.454 618.247C479.571 617.568 480.454 615.326 481.677 616.006C482.221 616.277 482.56 617.092 482.424 617.704C482.221 618.586 481.066 618.451 480.59 617.975C479.639 617.024 478.212 618.519 479.163 619.401C480.59 620.76 483.24 620.76 484.191 618.858C484.938 617.296 484.259 615.326 482.9 614.376C481.405 613.357 479.503 613.968 478.62 615.53C477.737 617.092 478.009 618.994 479.503 620.013C480.454 620.76 481.473 618.994 480.454 618.247Z" fill="#161616"/>
<path d="M413.671 680.39C419.31 675.839 424.948 671.289 430.587 666.739C433.305 664.565 435.886 662.256 438.808 660.354C441.729 658.453 444.922 657.57 448.183 656.347C458.374 652.408 467.341 635.497 479.027 646.092C482.831 649.488 485.956 652.476 490.916 654.106C496.554 655.94 502.125 657.027 507.492 659.675C517.819 664.769 526.243 672.987 531.882 682.971C532.493 684.125 534.26 683.106 533.648 681.952C529.3 674.141 523.322 667.486 515.985 662.324C512.452 659.811 508.579 657.706 504.571 656.076C499.951 654.174 495.128 653.427 490.44 651.729C482.016 648.673 477.668 637.942 467.409 641.066C463.265 642.357 459.936 645.141 456.743 647.994C454.841 649.691 452.939 651.389 450.765 652.748C447.979 654.514 444.786 655.125 441.797 656.415C437.041 658.453 433.101 662.052 429.093 665.244C423.454 669.795 417.815 674.345 412.176 678.896C411.225 679.779 412.652 681.205 413.671 680.39Z" fill="#161616"/>
<path d="M501.719 496.335C500.971 501.836 500.156 507.27 499.409 512.771C498.729 517.729 498.661 523.57 496.42 528.188C496.895 528.052 497.371 527.916 497.846 527.849C495.944 526.558 497.235 520.174 497.235 518.272C497.303 514.944 497.371 511.684 497.439 508.356C497.439 507.066 495.4 507.066 495.4 508.356C495.265 513.178 495.197 518.001 495.061 522.891C494.993 525.336 494.517 528.052 496.759 529.614C497.167 529.886 497.914 529.75 498.186 529.275C500.36 524.792 500.564 519.563 501.243 514.673C502.058 508.764 502.942 502.855 503.757 496.946C503.825 495.588 501.855 495.045 501.719 496.335Z" fill="#161616"/>
<path d="M452.395 487.71C451.308 493.483 452.123 499.053 454.705 504.282C455.316 505.437 457.015 504.418 456.471 503.263C454.161 498.509 453.414 493.416 454.365 488.254C454.569 486.963 452.599 486.42 452.395 487.71Z" fill="#161616"/>
<path d="M415.027 458.913C427.392 467.946 442.678 471.41 455.586 479.356C456.673 480.035 457.76 478.269 456.605 477.59C443.629 469.644 428.343 466.18 416.046 457.147C414.959 456.332 413.94 458.098 415.027 458.913Z" fill="#161616"/>
<path d="M454.635 469.44C460.749 473.176 465.029 478.881 466.863 485.876C467.203 487.166 469.173 486.623 468.834 485.333C466.931 477.862 462.312 471.681 455.722 467.674C454.567 466.995 453.548 468.761 454.635 469.44Z" fill="#161616"/>
<path d="M489.896 495.114C493.157 486.149 497.438 477.116 505.386 471.411C506.473 470.664 505.454 468.898 504.367 469.645C495.943 475.758 491.391 484.995 487.926 494.571C487.519 495.861 489.489 496.337 489.896 495.114Z" fill="#161616"/>
<path d="M428.615 675.636C435.544 668.029 444.444 662.8 454.431 660.355C455.722 660.083 455.178 658.113 453.887 658.385C443.561 660.83 434.321 666.331 427.188 674.142C426.305 675.228 427.732 676.655 428.615 675.636Z" fill="#161616"/>
<path d="M444.242 669.252C449.133 667.078 454.025 664.905 458.916 662.732C460.139 662.188 459.052 660.423 457.897 660.966C453.006 663.139 448.114 665.313 443.223 667.486C442.068 668.029 443.087 669.795 444.242 669.252Z" fill="#161616"/>
<path d="M484.802 643.919C490.78 649.42 500.428 647.519 505.931 653.495C506.814 654.446 508.24 653.02 507.357 652.069C501.718 645.957 492.207 647.926 486.229 642.493C485.278 641.542 483.851 643.036 484.802 643.919Z" fill="#161616"/>
<path d="M355.313 686.434C419.514 686.434 483.715 686.434 547.984 686.434C566.055 686.434 584.194 686.434 602.266 686.434C610.146 686.434 610.146 674.209 602.266 674.209C538.065 674.209 473.864 674.209 409.595 674.209C391.524 674.209 373.384 674.209 355.313 674.209C347.432 674.209 347.432 686.434 355.313 686.434Z" fill="#161616"/>
<path d="M364.957 359.483C422.84 359.483 480.723 359.483 538.606 359.483C554.911 359.483 571.148 359.483 587.453 359.483C595.334 359.483 595.334 347.258 587.453 347.258C529.57 347.258 471.687 347.258 413.804 347.258C397.499 347.258 381.262 347.258 364.957 347.258C357.077 347.258 357.077 359.483 364.957 359.483Z" fill="#161616"/>
<path d="M348.381 347.258C343.625 347.258 338.869 347.258 334.114 347.258C326.233 347.258 326.233 359.483 334.114 359.483C338.869 359.483 343.625 359.483 348.381 359.483C356.261 359.483 356.261 347.258 348.381 347.258Z" fill="#161616"/>
<path d="M307.416 358.125C309.25 358.125 311.084 358.125 312.919 358.125C316.112 358.125 319.169 355.341 319.033 352.013C318.897 348.685 316.315 345.9 312.919 345.9C311.084 345.9 309.25 345.9 307.416 345.9C304.223 345.9 301.165 348.685 301.301 352.013C301.437 355.273 303.951 358.125 307.416 358.125Z" fill="#161616"/>
<path d="M616.465 685.551C626.112 685.551 635.827 685.551 645.475 685.551C653.355 685.551 653.355 673.326 645.475 673.326C635.827 673.326 626.112 673.326 616.465 673.326C608.585 673.326 608.585 685.551 616.465 685.551Z" fill="#161616"/>
<path d="M666.263 686.911C667.962 686.911 669.66 686.911 671.359 686.911C674.552 686.911 677.609 684.126 677.473 680.798C677.337 677.47 674.755 674.686 671.359 674.686C669.66 674.686 667.962 674.686 666.263 674.686C663.07 674.686 660.013 677.47 660.149 680.798C660.285 684.126 662.798 686.911 666.263 686.911Z" fill="#161616"/>
<path d="M452.325 485.606C451.849 490.292 451.442 495.046 452.393 499.664C453.412 504.554 456.469 508.018 458.711 512.365C461.293 517.255 462.04 523.163 463.263 528.461C464.554 534.098 465.844 539.735 467.135 545.372C467.747 547.953 471.619 546.866 471.076 544.286C469.853 538.852 468.562 533.419 467.339 527.986C466.184 522.96 465.369 517.662 463.467 512.908C461.768 508.629 458.303 505.166 456.877 500.751C455.314 495.861 455.925 490.563 456.401 485.606C456.673 483.025 452.597 483.025 452.325 485.606Z" fill="#161616"/>
<path d="M443.087 483.567C446.824 485.333 450.628 485.876 454.705 485.197C457.286 484.79 456.199 480.85 453.618 481.258C450.696 481.733 447.775 481.326 445.125 480.035C442.748 478.881 440.709 482.413 443.087 483.567Z" fill="#161616"/>
<path d="M493.427 506.999C490.166 509.309 488.535 512.636 487.788 516.44C487.244 519.021 487.109 521.669 486.361 524.25C485.614 526.831 484.391 529.208 483.168 531.653C478.616 540.822 474.064 550.534 475.355 560.993C475.695 563.574 479.771 563.574 479.432 560.993C478.209 551.145 482.421 542.248 486.701 533.691C488.535 530.023 490.234 526.424 490.913 522.416C491.66 518.274 491.728 513.18 495.465 510.531C497.639 508.969 495.601 505.437 493.427 506.999Z" fill="#161616"/>
<path d="M453.753 598.007C456.402 598.007 456.402 593.932 453.753 593.932C451.171 593.932 451.171 598.007 453.753 598.007Z" fill="#161616"/>
<path d="M446.417 631.626C449.066 631.626 449.066 627.551 446.417 627.551C443.767 627.551 443.767 631.626 446.417 631.626Z" fill="#161616"/>
<path d="M467.408 553.726C467.612 555.084 467.816 556.51 468.019 557.869C468.155 558.955 469.582 559.566 470.533 559.295C471.688 558.955 472.096 557.869 471.96 556.782C471.756 555.424 471.552 553.997 471.348 552.639C471.212 551.552 469.786 550.941 468.835 551.213C467.68 551.552 467.272 552.639 467.408 553.726Z" fill="#161616"/>
<path d="M478.008 571.113C478.008 571.249 478.008 571.453 478.008 571.588C478.008 572.675 478.959 573.694 480.046 573.626C481.133 573.558 482.084 572.743 482.084 571.588C482.084 571.453 482.084 571.249 482.084 571.113C482.084 570.026 481.133 569.008 480.046 569.075C478.959 569.143 478.008 569.958 478.008 571.113Z" fill="#161616"/>
<path d="M534.057 434.531C540.579 432.086 545.742 427.332 551.992 424.412C559.669 420.88 567.754 425.159 575.363 422.238C577.809 421.288 576.722 417.348 574.276 418.299C570.132 419.861 565.919 418.978 561.571 418.707C557.971 418.435 554.574 418.91 551.245 420.269C544.723 422.918 539.492 428.079 532.902 430.592C530.592 431.543 531.611 435.482 534.057 434.531Z" fill="#161616"/>
<path d="M546.487 554.812C540.305 557.46 545.536 563.98 548.39 566.833C554.232 572.674 559.464 579.126 564.015 585.985C572.915 599.365 579.097 614.374 582.426 630.063C582.698 631.354 584.668 630.81 584.397 629.52C581.543 616.208 576.652 603.372 569.858 591.554C566.597 585.849 562.86 580.416 558.716 575.322C556.61 572.742 554.436 570.229 552.126 567.784C550.088 565.678 541.936 558.954 547.507 556.577C548.729 556.034 547.642 554.268 546.487 554.812Z" fill="#161616"/>
<path d="M554.03 560.042C574.615 577.157 582.972 603.304 590.513 628.026C590.92 629.249 592.891 628.773 592.483 627.483C584.806 602.422 576.314 575.934 555.457 558.547C554.438 557.732 553.011 559.159 554.03 560.042Z" fill="#161616"/>
<path d="M583.309 636.856C584.6 638.69 586.163 640.863 588.609 641.067C590.511 641.203 592.549 640.116 592.821 638.079C593.025 636.788 591.054 636.245 590.851 637.536C590.647 638.826 589.288 639.301 588.133 638.894C586.774 638.418 585.823 636.992 585.076 635.838C584.329 634.751 582.562 635.77 583.309 636.856Z" fill="#161616"/>
<path d="M587.316 665.516C590.373 666.875 594.178 665.924 595.808 662.867C597.371 659.947 596.148 655.94 593.295 654.31C590.373 652.68 586.365 653.835 584.667 656.687C582.968 659.675 584.191 663.479 586.909 665.312C587.996 666.059 589.015 664.294 587.928 663.547C586.093 662.324 585.278 659.675 586.433 657.706C587.52 655.804 590.306 654.989 592.276 656.076C594.246 657.095 595.061 659.879 594.042 661.849C593.023 663.886 590.306 664.633 588.335 663.75C587.18 663.207 586.093 664.973 587.316 665.516Z" fill="#161616"/>
<path d="M379.224 369.874C379.904 401.319 393.016 431.814 415.435 453.819C416.386 454.77 417.813 453.276 416.862 452.393C394.782 430.727 381.874 400.776 381.262 369.874C381.195 368.584 379.156 368.584 379.224 369.874Z" fill="#161616"/>
<path d="M381.4 368.992C379.634 367.226 377.12 367.294 375.218 368.856C372.704 370.961 372.976 374.765 373.248 377.753C373.927 386.65 375.694 395.411 378.343 403.901C383.642 420.744 392.542 436.365 404.295 449.473C405.178 450.424 406.605 448.998 405.722 448.047C396.143 437.384 388.534 425.159 383.303 411.847C380.789 405.599 378.887 399.079 377.46 392.491C376.713 388.891 376.101 385.292 375.694 381.692C375.49 379.994 375.286 378.364 375.218 376.666C375.15 375.919 375.082 375.172 375.15 374.493C375.218 372.863 376.984 367.43 379.974 370.486C380.925 371.369 382.352 369.875 381.4 368.992Z" fill="#161616"/>
<path opacity="0.25" d="M587.792 360.571C587.86 362.744 529.298 366.276 412.174 371.302C410.136 380.538 408.777 393.171 412.174 407.162C423.044 452.326 472.095 469.713 476.986 471.343C477.598 488.73 478.277 506.184 478.888 523.571C473.657 525.541 466.795 528.529 459.254 533.079C454.431 536 442.949 543.471 432.283 555.628C426.237 562.555 406.807 584.832 405.244 618.586C404.293 638.622 410.068 654.786 414.687 664.498C469.853 667.622 525.086 670.814 580.251 673.938C505.112 674.55 430.041 675.229 354.902 675.84C352.525 660.695 350.283 631.694 362.443 599.094C364.685 593.186 383.3 545.508 432.963 518.545C440.843 514.266 447.705 511.482 452.461 509.716C452.257 501.294 452.053 492.941 451.849 484.519C444.988 482.753 434.797 479.493 423.519 473.177C416.929 469.509 373.178 444.108 364.957 394.529C363.666 386.651 362.579 374.222 365.569 358.669C513.672 357.515 587.724 358.126 587.792 360.571Z" fill="#474747"/>
<path opacity="0.3" d="M489.013 358.873C453.753 363.831 418.494 368.789 383.234 373.679C384.185 385.428 387.854 409.675 404.499 434.261C425.084 464.619 453.006 477.116 463.808 481.327C464.419 494.231 465.099 507.135 465.71 520.039C442.679 524.522 427.529 533.894 419.241 540.007C413.738 544.082 364.008 580.485 369.579 632.849C370.53 641.882 373.791 657.367 386.291 674.482C375.557 674.618 364.891 674.753 354.157 674.821C351.983 658.182 350.013 623.884 367.812 588.499C381.4 561.604 400.83 545.101 412.108 535.728C427.258 523.163 441.728 515.013 452.327 509.92C452.666 501.566 453.074 493.212 453.414 484.858C439.894 482.006 412.923 474.196 392.134 450.153C390.639 448.455 385.476 442.343 380.313 433.174C365.231 406.415 364.212 378.433 365.638 360.163C406.876 359.688 447.979 359.281 489.013 358.873Z" fill="#474747"/>
<path d="M450.764 329.736C429.5 345.221 413.127 364.306 414.689 366.208C415.436 367.158 419.581 365.936 434.935 356.088C432.285 357.65 426.035 361.657 422.774 369.468C421.823 371.777 418.697 378.229 421.551 382.44C424.608 386.854 432.693 386.447 437.924 384.681C448.046 381.285 452.87 370.758 453.414 371.165C454.229 371.709 442.951 387.805 444.582 389.095C446.28 390.522 463.944 375.512 477.463 354.458C481.608 348.006 484.461 342.369 486.363 338.226C498.388 338.498 513.266 339.516 530.115 342.301C560.551 347.259 572.168 353.779 592.889 350.383C605.594 348.345 626.179 341.825 626.926 332.181C627.877 320.228 598.12 309.225 591.666 306.848C542.615 288.715 496.622 305.49 489.149 308.343C470.534 315.474 457.694 324.71 450.764 329.736Z" fill="white" stroke="#161616" stroke-width="3" stroke-miterlimit="10"/>
<path d="M419.853 381.352C420.193 382.031 420.397 382.167 421.008 382.575C421.348 382.846 421.959 382.71 422.231 382.439C428.957 374.425 434.8 365.12 444.379 360.162C445.534 359.551 444.515 357.785 443.36 358.396C433.577 363.422 427.666 372.795 420.804 381.013C421.212 380.945 421.62 380.877 422.027 380.877C421.891 380.673 421.756 380.537 421.62 380.333C421.008 379.179 419.242 380.198 419.853 381.352Z" fill="#161616"/>
<path d="M426.238 386.583C430.382 387.534 434.187 381.897 436.633 379.248C440.641 374.901 444.445 370.555 449.677 367.566C450.831 366.887 449.812 365.189 448.657 365.8C444.717 368.042 441.524 371.03 438.467 374.29C436.904 375.988 435.41 377.686 433.779 379.384C432.285 381.014 429.159 385.157 426.782 384.613C425.491 384.342 424.947 386.311 426.238 386.583Z" fill="#161616"/>
<path opacity="0.33" d="M420.124 373.814C436.429 362.337 440.37 359.688 440.438 359.824C440.573 359.959 434.051 363.899 428.413 371.437C425.559 375.309 423.725 378.976 422.57 381.693C422.774 382.1 423.385 383.187 424.608 383.866C426.171 384.749 427.597 384.545 428.073 384.477C428.481 384.274 429.092 383.934 429.771 383.459C432.149 381.897 433.576 380.063 434.119 379.452C434.391 379.112 438.671 373.747 440.641 371.641C442.408 369.739 445.397 367.294 450.288 365.529C446.28 371.641 442.204 377.822 438.196 383.934C442.34 381.897 445.057 379.587 446.756 377.822C448.454 376.124 448.998 375.105 452.055 371.302C454.908 367.77 457.014 365.529 457.83 364.578C464.963 356.428 475.629 337.004 482.423 330.484C496.962 316.425 520.4 327.903 566.665 328.242C590.036 328.446 609.398 325.526 622.714 322.877C623.869 323.692 626.043 325.526 626.858 328.514C626.858 328.514 627.877 332.249 625.296 336.936C622.442 342.233 608.175 351.742 577.807 350.927C553.01 350.247 545.469 343.456 512.248 339.72C501.106 338.498 491.934 338.158 486.092 338.022C480.589 351.062 474.27 360.639 469.311 367.091C458.373 381.421 446.008 391.405 444.174 390.047C444.038 389.979 443.699 389.639 443.495 389.028C443.019 387.669 444.038 386.107 444.582 385.292C445.601 383.662 446.892 381.489 448.522 378.365C447.435 379.723 445.669 381.557 443.087 383.119C436.09 387.398 424.676 388.756 420.804 383.187C420.26 382.508 418.494 379.655 420.124 373.814Z" fill="#828181"/>
<path opacity="0.51" d="M495.602 337.955C495.67 337.343 511.227 337.751 528.416 338.634C573.05 340.943 584.736 344.203 601.992 337.955C612.862 334.016 620.607 328.243 624.819 324.711C626.11 327.224 627.468 330.959 626.449 334.695C623.936 343.796 609.329 346.784 599.886 348.686C594.655 349.772 585.755 351.063 571.692 349.84C559.191 348.821 554.232 346.784 540.984 343.999C514.488 338.498 495.534 338.566 495.602 337.955Z" fill="#828181"/>
</svg>
